<?xml version="1.0" standalone="no"?>
<!DOCTYPE svg PUBLIC "-//W3C//DTD SVG 1.1//EN" "http://www.w3.org/Graphics/SVG/1.1/DTD/svg11.dtd">
<svg xmlns="http://www.w3.org/2000/svg">
<metadata>Copyright (C) 2021 by original authors @ fontello.com</metadata>
<defs>
<font id="fontello" horiz-adv-x="1000" >
<font-face font-family="fontello" font-weight="400" font-stretch="normal" units-per-em="1000" ascent="850" descent="-150" />
<missing-glyph horiz-adv-x="1000" />
<glyph glyph-name="location" unicode="&#xe800;" d="M500 850c-194 0-352-158-352-352 0-65 19-129 53-184l279-450c5-9 15-14 25-14h0c10 0 20 5 25 14l272 454c32 55 50 117 50 180 0 194-158 352-352 352z m252-502l-248-412-253 408c-29 47-44 100-44 154 0 162 132 294 293 294 162 0 293-132 293-294 0-52-14-104-41-150z m-252 326c-97 0-176-79-176-176 0-96 78-175 176-175 99 0 176 80 176 175 0 97-79 176-176 176z m0-293c-65 0-118 53-118 117 0 65 53 118 118 118 65 0 117-53 117-118 0-63-51-117-117-117z" horiz-adv-x="1000" />

<glyph glyph-name="burger" unicode="&#xe801;" d="M164 610c0-21-18-38-41-38-22 0-41 17-41 38 0 21 19 38 41 38 23 0 41-17 41-38z m81 0c0 21 18 38 41 38h651c22 0 40-17 40-38 0-21-18-38-40-38h-651c-23 0-41 17-41 38z m-81-230c0-21-18-38-41-38-22 0-41 17-41 38 0 21 19 38 41 38 23 0 41-17 41-38z m81 0c0 21 18 38 41 38h651c22 0 40-17 40-38 0-21-18-38-40-38h-651c-23 0-41 17-41 38z m-81-230c0-21-18-39-41-39-22 0-41 18-41 39 0 21 19 38 41 38 23 0 41-17 41-38z m81 0c0 21 18 38 41 38h407c22 0 40-17 40-38 0-21-18-39-40-39h-407c-23 0-41 18-41 39z" horiz-adv-x="1000" />

<glyph glyph-name="search" unicode="&#xe802;" d="M988-79l-285 285c56 68 89 154 89 248 0 218-178 396-396 396-218 0-396-178-396-396 0-218 178-396 396-396 94 0 181 34 249 89l284-285c8-8 19-12 29-12 11 0 22 4 30 12 16 16 16 43 0 59z m-592 221c-172 0-313 140-313 312 0 173 141 313 313 313 172 0 312-140 312-313 0-172-140-312-312-312z" horiz-adv-x="1000" />

<glyph glyph-name="clock" unicode="&#xe803;" d="M678 262l-139 104v213c0 22-18 39-39 39-21 0-39-17-39-39v-232c0-12 6-24 16-31l155-116c7-5 15-8 23-8 12 0 23 5 31 16 13 17 9 41-8 54z m-178 588c-276 0-500-224-500-500 0-276 224-500 500-500 276 0 500 224 500 500 0 276-224 500-500 500z m0-923c-233 0-422 190-422 423 0 233 189 423 422 423 233 0 423-190 423-423 0-233-190-423-423-423z" horiz-adv-x="1000" />

<glyph glyph-name="mail" unicode="&#xe804;" d="M912 731h-824c-48 0-88-40-88-88v-586c0-48 39-88 88-88h824c48 0 88 40 88 88v586c0 48-39 88-88 88z m-12-59l-398-398-402 398h800z m-841-603v562l282-280-282-282z m41-41l282 282 99-98c12-11 30-11 42 0l96 97 281-281h-800z m841 41l-280 281 280 281v-562z" horiz-adv-x="1000" />

<glyph glyph-name="phone" unicode="&#xe805;" d="M921 192c-62 0-122 9-179 28-28 10-60 2-78-16l-114-86c-130 69-213 153-282 282l83 111c21 21 29 52 20 80-19 58-29 119-29 180 0 44-35 79-79 79h-184c-44 0-79-35-79-79 0-508 413-921 921-921 44 0 79 35 79 79v184c0 43-35 79-79 79z m26-263c0-15-11-26-26-26-479 0-868 389-868 868 0 15 12 26 26 26h184c15 0 27-11 27-26 0-67 10-133 31-196 3-10 0-20-9-30l-96-127c-6-8-7-18-3-27 78-154 173-248 328-328 9-4 19-3 28 3l129 98c7 7 18 9 27 6 63-20 129-31 196-31 15 0 26-12 26-26l0-184z" horiz-adv-x="1000" />

<glyph glyph-name="download" unicode="&#xe806;" d="M816 267v-204c0-16-13-29-29-29h-574c-16 0-29 13-29 29v204h-59v-204c0-49 39-88 88-88h574c49 0 88 39 88 88v204h-59z m-175 113l-112-112v457h-58v-457l-112 112-41-42 182-182 182 182-41 42z" horiz-adv-x="1000" />

<glyph glyph-name="arrow" unicode="&#xe807;" d="M792 571l199-199c12-12 12-32 0-44l-199-199c-12-12-32-12-44 0-12 12-12 32 0 44l145 146h-893v62h893l-145 146c-12 12-12 32 0 44 12 12 32 12 44 0z" horiz-adv-x="1000" />

<glyph glyph-name="chevron" unicode="&#xe808;" d="M885 607l-418-417-418 417-49-49 467-465 466 465-48 49z" horiz-adv-x="933" />

<glyph glyph-name="documents" unicode="&#xe809;" d="M983-117h-66v467c0 28-23 50-50 50v100c0 28-23 50-50 50v100c0 28-23 50-50 50v100c0 28-23 50-50 50h-434c-27 0-50-22-50-50v-100c-27 0-50-22-50-50v-100c-27 0-50-22-50-50v-100c-27 0-50-22-50-50v-467h-66c-9 0-17-7-17-16 0-10 8-17 17-17h966c10 0 17 7 17 17 0 9-7 16-17 16z m-716 917c0 9 7 17 16 17h434c9 0 16-8 16-17v-100h-251c-8 39-42 67-82 67-40 0-74-28-82-67h-51l0 100z m180-100h-94c7 20 26 33 47 33 21 0 40-13 47-33z m-230-50c0 9 7 17 16 17h534c9 0 16-8 16-17v-100h-351c-8 39-42 67-82 67-40 0-74-28-82-67h-51l0 100z m180-100h-94c7 20 26 33 47 33 21 0 40-13 47-33z m-230-50c0 9 7 17 16 17h634c9 0 16-8 16-17v-100h-451c-8 39-42 67-82 67-40 0-74-28-82-67h-51v100z m180-100h-94c7 20 26 33 47 33 21 0 40-13 47-33z m536-517h-766v467c0 9 7 17 16 17h734c9 0 16-8 16-17l0-467z m-600 217c56 0 100 45 100 100 0 55-44 100-100 100-55 0-100-45-100-100 0-55 45-100 100-100z m0 167c37 0 67-30 67-67 0-37-30-67-67-67-36 0-66 30-66 67 0 37 30 67 66 67z" horiz-adv-x="1000" />

<glyph glyph-name="sale" unicode="&#xe80a;" d="M944 340c139 186 3 457-230 456-94 0-186-49-237-128-352 82-615-322-398-610l-18-61c-2-7 0-14 4-19 5-5 12-7 18-6l69 12c230-179 574-38 618 246 42 8 82 26 116 52l48-9c7-1 13 1 18 6 4 5 6 12 4 19l-12 42z m-556-397c-81 0-156 27-218 77-4 4-10 5-16 4l-47-8 12 41c2 6 1 13-3 17-182 225-17 567 272 566 461-20 461-678 0-697z m519 413c-4-5-5-11-3-18l6-21-26 4c-5 1-11 0-15-4-28-22-61-38-95-47 10 175-101 332-258 387 47 63 119 100 198 100 205 0 322-242 193-401z m-440 126c-10 4-22-1-26-10l-139-331c-4-10 1-22 11-26 10-4 21 1 25 11l139 330c4 10 0 22-10 26z m-92-74c0 50-37 91-81 91-107-5-107-177 0-182 44 0 81 41 81 91z m-81-52c-23 0-42 24-42 52 3 69 81 69 84 0 0-28-19-52-42-52z m187-83c-44 0-81-41-81-91 5-120 158-120 162 0 0 50-36 91-81 91z m0-143c-23 0-41 23-41 52 2 69 81 69 83 0 0-29-19-52-42-52z" horiz-adv-x="1000" />

<glyph glyph-name="certificate" unicode="&#xe80b;" d="M505 413h-375c-8 0-14-7-14-15 0-8 6-15 14-15h375c9 0 15 7 15 15 0 8-6 15-15 15z m0-103h-375c-8 0-14-7-14-15 0-8 6-15 14-15h375c9 0 15 7 15 15 0 8-6 15-15 15z m0-103h-375c-8 0-14-7-14-15 0-8 6-15 14-15h375c9 0 15 7 15 15 0 8-6 15-15 15z m279-250c-8 0-15-7-15-15v-20c0-23-19-43-43-43h-648c-24 0-43 20-43 43v705c0 3 0 6 1 9h133c28 0 51 23 51 50v134c3 0 6 1 9 1h497c24 0 43-20 43-43v-195c0-9 7-15 15-15 8 0 14 6 14 15v195c0 40-32 72-72 72h-497c-19 0-38-7-51-21l-151-151c-14-14-21-32-21-51v-705c0-40 32-72 72-72h648c40 0 72 32 72 72v20c0 8-6 15-14 15z m-594 843v-114c0-11-9-21-21-21h-113l134 135z m794-473c11 15 13 33 8 51-6 17-19 31-36 37-12 4-19 14-20 26 0 19-9 35-24 46-14 11-33 14-51 9-11-4-23 0-31 10-11 14-28 23-46 23-18 0-35-9-47-23-7-10-19-14-31-10-17 5-36 2-51-9-14-11-23-27-24-46 0-12-8-22-19-26-17-6-30-20-36-37-6-18-3-36 7-51 7-10 7-23 0-33-10-15-13-34-7-51 6-18 19-31 36-37 11-5 19-15 19-27 1-17 8-33 21-43 9-7 19-12 30-13v-134c0-11 6-21 16-27 9-5 22-5 31 1l54 33c1 0 1 0 2 0l53-33c10-6 22-6 32-1 10 6 16 16 16 27v134c11 1 21 6 29 13 13 10 21 26 21 43 1 12 8 22 20 27 17 6 30 19 36 37 5 17 3 36-8 51-6 10-6 23 0 33z m-130-339l-54 33c-10 6-23 6-33 0l-53-33c-1-1-3 0-3 1v136c10 2 20-3 26-11 12-14 29-22 47-22 18 0 35 8 46 22 6 8 16 13 27 11v-136c0-1-2-2-3-1z m106 289c5-7 7-17 4-25-3-9-10-16-18-19-23-8-38-29-39-53 0-9-4-16-10-22-8-6-18-8-27-5-24 6-48-2-63-21-6-7-14-11-23-11-9 0-18 4-23 11-12 15-29 23-47 23-5 0-11-1-16-2-10-3-20-1-27 5-7 6-10 13-11 22 0 24-16 45-38 53-9 3-15 10-18 19-3 8-2 18 3 25 14 20 14 46 0 66-5 8-6 17-3 26 3 8 9 15 18 18 22 8 38 29 38 53 1 10 5 18 12 23 8 6 17 7 26 5 23-7 48 1 63 20 5 7 14 11 23 11 9 0 17-4 23-11 15-19 39-27 63-20 8 2 18 1 25-5 7-5 12-13 12-22 1-25 16-46 39-54 8-3 15-10 18-18 3-9 1-18-4-26-13-20-13-46 0-66z m-176 156c-68 0-123-55-123-123 0-68 55-123 123-123 67 0 123 55 123 123 0 68-56 123-123 123z m0-216c-52 0-94 42-94 93 0 52 42 94 94 94 51 0 93-42 93-94 0-51-42-93-93-93z" horiz-adv-x="1000" />

<glyph glyph-name="cross" unicode="&#xe80c;" d="M546 350l362 362c13 13 13 33 0 46-13 13-33 13-46 0l-362-362-362 362c-13 13-33 13-46 0-13-13-13-33 0-46l362-362-362-362c-13-13-13-33 0-46 6-6 15-10 23-10 8 0 17 4 23 10l362 362 362-362c6-6 15-10 23-10 8 0 17 4 23 10 13 13 13 33 0 46l-362 362z" horiz-adv-x="1000" />

<glyph glyph-name="delivery" unicode="&#xe80d;" d="M929 629l-454 220c-4 2-9 2-13 0l-454-220c-5-2-8-7-8-13v-532c0-6 3-11 8-13l454-220c2-1 5-1 7-1 2 0 4 0 6 1l454 220c5 2 8 7 8 13v532c0 6-3 11-8 13z m-460 190l420-203-122-59c-1 1-1 2-2 2l-418 201 122 59z m-155-75l420-203-86-41-420 202 86 42z m430-230v-154l-81-39v154l81 39z m164-421l-425-205v500l178 85c7 4 10 13 7 20-4 7-13 10-20 7l-179-87-41 20c-7 3-16 0-19-7-4-7-1-16 6-19l39-19v-500l-425 205v500l386-186c2-1 5-2 7-2 5 0 10 3 13 8 3 8 0 16-7 20l-380 183 146 70 440-212 0 0v-176c0-5 3-10 7-12 2-2 5-3 8-3 2 0 4 1 6 2l110 53c5 2 8 7 8 13v177l135 65v-500z" horiz-adv-x="950" />

<glyph glyph-name="chevron-right" unicode="&#xe80e;" d="M219 786l434-436-434-436 50-50 485 486-485 486-50-50z" horiz-adv-x="1000" />

<glyph glyph-name="cards" unicode="&#xe80f;" d="M982 661c-13 15-31 25-51 26l-704 59c-20 2-39-4-55-17-15-13-24-31-26-51l-14-133h-57c-41 0-75-34-75-75v-441c0-42 34-75 75-75h707c41 0 75 33 75 75v71l25-2c2 0 4 0 6 0 39 0 72 30 75 69l37 439c1 20-5 40-18 55z m-907-155h707c20 0 36-16 36-36v-40h-779v40c0 20 16 36 36 36z m-36-116h779v-81h-779v81z m743-397h-707c-20 0-36 16-36 36v241h779v-241c0-20-16-36-36-36z m179 616l-37-439c-1-20-19-34-39-33l-28 3v330c0 41-34 75-75 75h-611l14 129c0 0 0 0 0 0 1 20 19 35 39 33l704-59c10 0 18-5 24-12 7-8 10-17 9-27z m-225-397h-188c-11 0-19-8-19-19v-123c0-11 8-19 19-19h188c11 0 20 8 20 19v123c0 11-9 19-20 19z m-19-122h-149v83h149v-83z" horiz-adv-x="1000" />

<glyph glyph-name="tg" unicode="&#xe810;" d="M500-150c276 0 500 224 500 500 0 276-224 500-500 500-276 0-500-224-500-500 0-276 224-500 500-500z m-314 476c59 32 124 59 185 86 105 44 210 87 316 128 21 7 58 13 62-17-2-44-10-87-16-130-14-95-31-189-47-284-5-31-45-48-70-28-61 41-122 82-182 124-19 20-1 49 16 63 50 49 103 91 151 143 12 31-25 5-38-3-68-48-135-98-207-139-37-20-80-3-117 8-33 14-81 28-53 49l0 0z" horiz-adv-x="1000" />

<glyph glyph-name="twi" unicode="&#xe811;" d="M0 350c0 276 224 500 500 500 276 0 500-224 500-500 0-276-224-500-500-500-276 0-500 224-500 500z m485 94l1-18-17 2c-64 9-120 36-167 82l-23 23-6-17c-12-37-4-77 22-104 14-15 11-17-13-8-9 3-16 5-17 4-2-3 6-35 13-48 9-17 27-35 48-45l17-8-21 0c-19 0-20-1-18-8 7-23 35-47 66-58l21-7-19-12c-28-16-60-25-93-26-16 0-29-2-29-3 0-3 43-23 68-31 74-23 163-13 229 26 47 28 94 84 116 137 12 29 24 81 24 106 0 17 1 19 21 38 11 11 22 24 24 27 4 7 3 7-14 1-30-11-34-9-20 7 11 11 24 31 24 37 0 2-5 0-11-3-6-4-20-9-31-12l-19-6-17 11c-9 7-23 14-30 16-17 5-45 4-61-2-43-16-71-57-68-101z" horiz-adv-x="1000" />

<glyph glyph-name="vk" unicode="&#xe812;" d="M347 850h307c280 0 346-66 346-346v-307c0-281-66-347-346-347h-307c-281 0-347 66-347 347v307c0 280 66 346 347 346z m470-319c5 15 0 27-21 27h-73c-19 0-27-10-32-21 0 0-37-90-90-149-17-17-24-22-33-22-5 0-12 5-12 21v145c0 18-5 26-21 26h-114c-12 0-19-8-19-17 0-17 27-21 29-71v-107c0-23-4-28-13-28-25 0-85 91-121 195-7 21-14 28-32 28h-74c-21 0-24-9-24-20 0-19 24-115 115-242 60-87 145-134 222-134 47 0 52 11 52 29v65c0 22 5 25 19 25 11 0 30-6 73-47 49-50 58-72 85-72h73c21 0 31 10 25 31-6 20-30 50-61 85-17 20-42 42-50 52-11 15-8 20 0 33-1 0 88 126 97 168z" horiz-adv-x="1000" />

<glyph glyph-name="whatsapp" unicode="&#xe813;" d="M500-150c276 0 500 224 500 500 0 276-224 500-500 500-276 0-500-224-500-500 0-276 224-500 500-500z m17 222h-1c-49 0-98 12-142 36l-157-41 42 154c-26 45-40 96-40 148 0 164 134 298 298 298 79 0 154-31 210-87 56-57 87-131 87-211 0-164-134-297-297-297z m-135 90l9-5c38-23 81-35 125-35h1c136 0 247 111 247 247 0 66-26 128-73 175-46 47-108 72-174 72-137 0-248-110-248-247 0-46 13-92 38-131l6-9-25-92 94 25z m274 143c5-2 9-4 10-7 2-3 2-17-4-35-6-17-36-33-50-35-13-2-29-3-47 3-11 3-25 8-42 15-70 31-117 98-126 111-1 1-1 1-1 2l0 0c-4 5-31 40-31 76 0 35 17 53 25 61 1 0 1 1 1 1 7 8 15 10 20 10 5 0 10 0 15-1 0 0 1 0 1 0 4 0 10 0 15-12 2-5 5-13 8-20 7-16 14-33 15-35 2-4 3-9 1-13-1-1-1-2-1-3-2-3-4-6-7-10-1-1-2-3-3-4-3-4-6-7-8-9-4-4-7-8-3-15 4-7 19-32 41-52 24-21 45-30 55-34 2-1 4-2 5-2 7-4 12-3 16 1 4 5 19 22 24 30 5 7 10 6 16 3 7-2 44-20 51-24 2-1 3-1 4-2z" horiz-adv-x="1000" />

<glyph glyph-name="yt" unicode="&#xe814;" d="M0 350c0 276 224 500 500 500 276 0 500-224 500-500 0-276-224-500-500-500-276 0-500 224-500 500z m756 124c-7 23-25 42-48 48-41 11-208 11-208 11 0 0-167 0-208-11-23-6-41-25-47-48-12-43-12-132-12-132 0 0 0-89 12-132 6-24 24-42 47-49 41-11 208-11 208-11 0 0 167 0 208 11 23 7 41 25 48 49 11 43 11 132 11 132 0 0 0 89-11 132z m-306-224v167l133-84-133-83z" horiz-adv-x="1000" />

<glyph glyph-name="fb" unicode="&#xe815;" d="M1000 350c0 276-224 500-500 500-276 0-500-224-500-500 0-250 183-456 422-494v350h-127v144h127v110c0 126 75 195 189 195 54 0 112-10 112-10v-123h-63c-62 0-82-39-82-78v-94h139l-22-144h-117v-350c239 38 422 244 422 494z" horiz-adv-x="1000" />

<glyph glyph-name="vk-1" unicode="&#xe816;" d="M0 350c0 276 224 500 500 500 276 0 500-224 500-500 0-276-224-500-500-500-276 0-500 224-500 500z m817 181c5 15 0 27-21 27h-73c-19 0-27-10-32-21 0 0-37-90-90-149-17-17-24-22-33-22-5 0-12 5-12 21v145c0 18-5 26-21 26h-114c-12 0-19-8-19-17 0-17 27-21 29-71v-107c0-23-4-28-13-28-25 0-85 91-121 195-7 21-14 28-32 28h-74c-21 0-24-9-24-20 0-19 24-115 115-242 60-87 145-134 222-134 47 0 52 11 52 29v65c0 22 5 25 19 25 11 0 30-6 73-47 49-50 58-72 85-72h73c21 0 31 10 25 31-6 20-30 50-61 85-17 20-42 42-50 52-11 15-8 20 0 33-1 0 88 126 97 168z" horiz-adv-x="1000" />

<glyph glyph-name="households" unicode="&#xe817;" d="M990 375l-465 465c-14 14-36 14-50 0l-464-465c-14-14-14-37 0-50 14-14 36-14 50 0l10 10v-449c0-20 16-36 36-36h786c20 0 36 16 36 36v449l10-10c14-14 37-13 51 1 13 14 13 35 0 49z m-383-454h-214v286h214v-286z m250 0h-178v322c0 20-16 36-36 36h-286c-20 0-36-16-36-36v-322h-178v486l357 357 357-357v-486z" horiz-adv-x="1000" />

<glyph glyph-name="idea" unicode="&#xe818;" d="M500 731c-16 0-29 13-29 29v61c0 16 13 29 29 29 16 0 29-13 29-29v-61c0-16-13-29-29-29z m279-161c-8 14-3 32 11 40l51 29c14 8 31 3 40-11 8-14 3-32-11-40l-51-29c-14-8-32-3-40 11z m-660-381c-8 14-3 32 11 40l51 29c14 8 32 4 40-10 8-15 3-32-11-41l-50-29c-14-8-32-3-41 11z m542 499c-14 8-19 26-11 40l30 50c8 15 26 19 40 11 14-8 19-26 11-40l-30-51c-8-14-26-18-40-10z m-362 10l-29 51c-9 14-4 32 10 40 14 8 32 4 40-11l30-50c8-14 3-32-11-40-14-8-32-4-40 10z m542-520l-51 29c-14 9-19 26-11 41 8 14 26 18 40 10l51-29c14-8 19-26 11-40-8-14-26-19-40-11z m-660 381l-51 29c-14 8-19 26-11 40 9 14 26 19 41 11l50-29c14-8 19-26 11-40-8-14-26-19-40-11z m729-180h-58c-17 0-30 13-30 30 0 16 13 29 30 29h58c16 0 30-13 30-29 0-17-14-30-30-30z m-762 0h-58c-16 0-29 13-29 30 0 16 13 29 29 29h58c17 0 30-13 30-29 0-17-13-30-30-30z m352-529c65 0 117 53 117 117h-234c1-66 52-117 117-117z m0 822c-164 1-247-135-260-222-11-69 5-138 45-194 54-75 84-151 94-228h242c9 79 39 155 89 222 35 46 54 101 54 159 0 110-87 263-264 263z m79-284l-50-50v-105c0-16-13-29-29-29-16 0-29 13-29 29v105l-50 50c-12 11-12 30 0 41 11 12 30 12 41 0l38-38 38 38c11 12 30 12 41 0 12-11 12-30 0-41z" horiz-adv-x="1000" />

<glyph glyph-name="language" unicode="&#xe819;" d="M588 438v412h-588v-588h412v-412h588v588h-412z m-529 353h470v-470h-470v470z m882-882h-470v353h117v117h353v-470z m-705 295h-58v-176h176v58h-118v118z m528 293h58v175h-175v-58h117v-117z m-440 234h-58v-59h-147v-58h60c7-56 31-106 68-145-13-7-27-12-42-16l-64-16 15-57 63 16c28 7 53 18 76 33 23-15 48-26 76-33l63-16 15 57-64 16c-15 4-29 9-42 16 37 39 61 89 67 145h61v58h-147v59z m-29-228c-30 30-50 68-56 111h112c-6-43-26-81-56-111z m383-182l-60-176h-59v-59h38l-37-107 56-19 43 126h90l46-127 55 20-39 107h41v59h-62l-64 176h-48z m2-176l23 67 24-67h-47z" horiz-adv-x="1000" />

<glyph glyph-name="manager" unicode="&#xe81a;" d="M861 437h-2v60c0 195-158 353-353 353-195 0-352-158-352-353v-60h-15c-55 0-97-49-97-104v-155c-1-54 41-99 95-100 1 0 1 0 2 0h91c13 0 23 11 23 24 0 1 0 1 0 2v303c0 15-9 30-23 30h-27v60c0 168 136 304 303 304 168 0 303-136 303-304v-60h-27c-13 0-22-15-22-30v-303c-1-13 8-25 21-26 0 0 1 0 1 0h29l-3-4c-37-49-95-78-157-78-13 66-78 109-144 96-57-12-98-62-99-120 1-67 56-122 124-122 34 1 66 14 89 38 16 17 27 37 30 60 77-1 150 36 197 98l23 34c54 4 87 37 87 86v154c0 54-40 117-97 117z m-658-310h-64c-27 1-48 23-47 50 0 0 0 1 0 1v155c0 28 19 54 47 54h64v-260z m382-204c-13-15-33-23-53-24-40 1-73 33-74 73 0 41 33 74 73 74 40 0 73-33 73-73 0 0 0-1 0-1 1-18-6-36-19-49z m323 243c0-34-32-39-47-39h-52v260h52c28 0 47-38 47-67v-154z" horiz-adv-x="1000" />

<glyph glyph-name="news" unicode="&#xe81b;" d="M826 737h-29v-719c0-47-39-86-87-86h-296-236v-27c0-30 25-55 55-55h297 296c30 0 55 25 55 55v777c0 30-25 55-55 55z m-412-774h296c30 0 55 25 55 55v719 58c0 30-25 55-55 55h-296-99v-18c1-2 1-4 1-6v-120-31c0-43-35-78-78-78h-31-120c-2 0-4 0-5 0h-19v-579c0-30 24-55 55-55h60 236z m11 188h-193c-14 0-26 12-26 26 0 15 12 26 26 26h193c15 0 26-11 26-26 0-14-12-26-26-26z m193 133h-386c-14 0-26 12-26 26 0 15 12 26 26 26h386c15 0 26-11 26-26 0-14-11-26-26-26z m-386 194h386c15 0 26-12 26-26 0-15-11-26-26-26h-386c-14 0-26 11-26 26 0 14 12 26 26 26z m-145 150h151c0 0 0 0 0 0 26 0 46 21 46 46 0 0 0 0 0 1v151c0 14-11 23-23 23-6 0-12-2-16-7l-175-174c-15-15-4-40 17-40z" horiz-adv-x="1000" />

<glyph glyph-name="tick" unicode="&#xe81c;" d="M985 703c-19 19-51 19-70 0l-599-599-231 230c-19 19-51 19-70 0-20-20-20-51 0-71l265-266c20-19 52-19 71 0l634 635c20 19 20 51 0 71z" horiz-adv-x="1000" />

<glyph glyph-name="view" unicode="&#xe81d;" d="M1006 370c-10 12-225 299-500 299-275 0-490-287-500-299-8-12-8-28 0-39 10-13 225-300 500-300 275 0 490 287 500 300 8 11 8 27 0 39z m-500-273c-203 0-378 191-430 253 52 62 227 253 430 253 203 0 378-191 430-253-52-62-227-253-430-253z m0 451c-110 0-200-89-200-198 0-109 90-198 200-198 110 0 200 89 200 198 0 109-90 198-200 198z m0-330c-74 0-133 59-133 132 0 73 59 132 133 132 74 0 133-59 133-132 0-73-59-132-133-132z" horiz-adv-x="1063" />

<glyph glyph-name="x" unicode="&#xe81e;" d="M548 350l379 379c14 14 14 35 0 49-13 13-34 13-48 0l-379-380-379 380c-13 13-35 13-48 0-14-14-14-35 0-49l379-379-379-379c-14-14-14-35 0-48 6-7 15-11 24-11 8 0 17 4 24 11l379 379 379-379c7-7 16-11 24-11 9 0 18 4 24 11 14 13 14 34 0 48l-379 379z" horiz-adv-x="1000" />
</font>
</defs>
</svg>
