<svg width="563" height="528" viewBox="0 0 563 528" fill="none" xmlns="http://www.w3.org/2000/svg">
<g clip-path="url(#clip0)">
<path d="M439.713 328.715C438.561 312.919 436.257 296.598 429.346 281.855C427.618 278.433 425.891 275.011 423.875 271.588C417.252 253.687 407.461 236.838 394.503 221.306C387.88 213.409 380.969 205.774 372.906 198.929C387.592 189.715 402.278 180.502 416.964 171.024C421.571 168.128 417.252 161.284 412.645 164.18C397.095 173.92 381.833 183.661 366.283 193.401C365.131 192.611 363.98 191.558 362.54 190.769C378.953 175.763 395.655 161.547 413.22 147.858C417.54 144.435 411.205 138.907 407.173 142.329C389.32 156.282 372.042 171.024 355.341 186.293C354.477 185.767 353.613 185.24 352.461 184.714C361.964 159.178 374.346 134.958 389.608 112.055C392.488 107.579 385.001 103.631 382.121 108.106C366.859 131.009 354.477 155.492 344.686 180.765C343.823 180.238 342.959 179.975 342.095 179.712C338.927 159.704 335.184 139.17 337.2 119.689C337.775 114.687 329.137 114.687 328.561 119.689C326.833 137.854 330.001 157.072 332.88 175.763C327.409 173.657 321.938 171.551 316.467 169.445C301.205 163.653 285.079 159.704 268.666 158.388C257.435 157.335 246.205 157.861 234.974 158.651C201.571 154.176 167.016 156.545 134.189 164.706C106.257 171.551 80.9168 183.924 60.4718 202.615C40.3148 220.78 23.6132 244.736 13.2467 269.482C-2.87895 307.654 -4.6067 352.408 9.7912 391.633C10.0792 392.686 10.3671 393.739 10.6551 394.792C27.0687 447.707 71.4142 494.566 129.006 511.941C149.739 517.996 171.336 520.629 192.933 520.629C213.09 525.367 233.535 528.526 254.556 528C280.472 527.473 306.1 521.155 329.137 510.362C360.524 495.619 386.152 471.926 405.158 444.811C430.21 409.798 442.304 370.309 439.713 328.715ZM389.32 223.939C392.2 227.361 394.791 230.783 397.383 234.469C387.304 223.149 375.786 213.409 362.828 205.248C363.116 205.248 363.404 204.984 363.692 204.984C365.419 203.931 366.859 202.878 368.587 202.089C375.786 208.407 382.697 216.304 389.32 223.939ZM358.508 194.717C359.372 195.244 360.524 196.034 361.388 196.56C360.524 197.087 359.948 197.613 359.084 197.876C357.645 198.929 357.069 200.246 357.069 201.825C356.493 201.562 355.917 201.299 355.629 200.772C354.765 200.246 353.901 199.719 353.325 199.456C354.765 197.876 356.493 196.297 358.508 194.717ZM346.126 202.089C347.854 202.878 349.582 203.931 351.022 204.721C355.629 207.617 359.948 210.776 364.268 213.672C380.681 225.255 391.912 240.524 401.414 257.372C417.252 286.067 423.299 316.342 420.995 348.459C418.98 372.942 412.357 396.898 400.262 419.012C375.786 463.502 329.713 491.671 276.44 499.832C223.744 507.729 164.425 508.256 114.896 487.722C101.074 481.14 88.1158 473.506 76.0216 464.818C36.5713 432.964 15.5504 382.682 17.2781 335.296C18.4299 308.181 26.4928 279.486 42.0425 256.056C59.032 230.52 86.3881 211.566 114.896 197.876C146.571 182.608 181.414 175.236 216.833 174.71C245.917 174.183 276.44 174.71 304.66 182.871C318.77 188.662 332.88 195.244 346.126 202.089ZM331.152 180.765C332.304 181.291 333.168 181.555 334.32 182.081C334.608 184.45 335.184 187.083 335.472 189.452C325.969 184.45 316.467 180.765 306.388 177.869C291.702 172.077 276.728 166.812 261.179 163.127C285.943 163.653 308.692 171.288 331.152 180.765ZM235.262 163.916C239.582 164.443 243.901 165.233 248.22 166.022C255.995 167.339 263.482 169.181 270.969 171.288C264.346 170.498 258.011 170.235 251.388 169.971C217.697 168.392 184.87 169.181 152.618 177.869C152.906 177.869 152.906 177.606 153.194 177.606C171.048 172.341 189.477 169.445 207.906 166.812C217.121 165.759 226.048 164.443 235.262 163.916ZM60.7598 210.249C81.2048 189.715 107.409 177.079 136.493 169.445C158.953 163.653 182.566 161.021 206.179 161.547C176.519 165.496 147.723 171.814 120.367 183.924C91.5713 196.823 65.943 215.251 44.9221 237.365C31.964 250.791 21.8854 265.797 14.6865 281.855C23.9011 255.53 40.3148 230.783 60.7598 210.249ZM14.6865 386.895C14.3985 385.841 14.1106 384.525 13.8226 383.472C6.62366 355.567 7.48754 324.503 15.5504 296.861C18.142 287.91 21.8854 279.486 26.7807 271.325C11.519 303.179 7.48754 340.035 14.3985 373.732C18.142 392.16 25.3409 410.061 35.1315 426.383C26.2048 414.273 19.5818 400.847 14.6865 386.895ZM134.477 507.466C97.6184 497.725 66.5189 475.085 44.6341 446.39C54.4247 456.394 65.3671 465.082 77.1734 472.979C88.6917 481.404 101.362 488.511 115.184 493.777C132.173 501.411 149.739 507.992 167.304 513.258C156.074 512.205 145.132 510.362 134.477 507.466ZM192.069 514.574C181.99 512.205 171.912 509.309 161.833 506.15C176.807 508.519 192.069 509.572 207.042 509.835C224.32 510.098 241.885 509.572 259.451 507.466C249.084 509.572 238.718 511.152 228.351 512.205C216.545 513.784 204.451 514.574 192.069 514.574ZM360.812 484.036C320.498 516.153 267.802 527.737 215.969 519.576C248.508 516.943 281.048 509.309 310.707 500.095C349.87 487.722 382.985 465.082 405.158 434.544C393.639 452.972 378.665 469.82 360.812 484.036ZM423.011 383.999C416.964 405.322 406.597 424.803 392.2 441.652C397.959 434.281 403.142 426.383 407.461 418.222C419.268 396.108 425.027 371.626 427.042 347.143C429.346 316.868 423.299 287.91 409.765 260.531C412.933 265.007 415.812 269.482 418.692 274.221C423.011 285.541 425.891 297.124 427.618 309.234C430.786 333.98 429.922 359.516 423.011 383.999Z" fill="#917171"/>
<path d="M187.749 312.92C176.806 309.76 168.456 302.916 159.241 296.861C148.875 290.016 136.78 285.014 125.262 280.013C120.367 277.906 115.759 284.751 120.943 286.857C132.749 291.859 144.267 297.124 154.922 303.706C158.377 305.812 161.545 307.918 164.712 310.024C161.545 313.183 160.969 318.448 162.121 322.66C164.136 329.505 171.623 334.507 179.398 333.98C187.461 333.454 192.068 326.082 189.189 319.501C191.492 317.921 191.492 313.973 187.749 312.92Z" fill="#917171"/>
<path d="M323.378 275.8C304.372 287.91 284.503 298.967 264.346 309.234C262.618 310.024 262.042 311.34 262.33 312.656C257.723 314.762 258.299 323.45 259.739 327.398C260.891 330.821 263.77 333.453 266.938 334.506C270.681 336.612 275.576 335.559 278.168 332.664C283.639 328.715 284.215 321.607 281.336 316.078C280.472 314.236 278.744 312.656 277.016 311.603C294.294 302.652 311.283 292.912 327.697 282.645C332.304 279.749 327.985 272.904 323.378 275.8Z" fill="#917171"/>
<path d="M303.796 425.593C298.613 386.368 261.178 363.465 220.288 361.095C200.131 360.042 176.518 363.991 161.257 376.891C145.707 390.054 143.691 417.432 141.387 435.334C140.811 440.336 149.45 440.336 150.026 435.334C152.33 417.959 154.921 396.372 167.304 382.419C178.534 369.783 203.874 368.73 220.288 368.993C255.995 369.52 290.55 391.896 295.157 425.593C296.021 430.595 304.66 430.595 303.796 425.593Z" fill="#917171"/>
<path d="M79.1884 243.683C77.7486 241.577 74.0052 240.524 73.1413 238.155C71.4135 233.416 63.0628 235.522 64.7905 240.261C66.2303 243.683 68.8219 245.262 71.7015 247.632C74.2931 249.738 71.1256 252.107 68.246 253.423C66.5183 252.897 64.5025 253.423 63.3507 255.003C62.7748 255.529 62.4868 256.319 61.9109 256.846C59.6073 259.742 63.3507 263.69 66.8062 262.637C73.1413 260.795 78.9005 257.899 80.9162 251.581C81.4921 248.948 80.9162 246.052 79.1884 243.683Z" fill="#917171"/>
<path d="M107.12 231.837C105.68 233.153 99.0572 240.524 96.7535 238.681C93.586 236.049 90.9944 231.837 88.6907 228.678C85.5232 224.729 78.0363 228.678 81.2038 232.626C85.2352 237.628 89.2666 245.263 96.4656 247.105C102.801 248.685 109.712 241.051 113.455 237.365C117.199 233.679 111.151 228.151 107.12 231.837Z" fill="#917171"/>
<path d="M100.21 272.115C94.7384 267.903 89.5551 263.427 83.508 259.742C78.0368 256.319 72.5656 260.532 70.2619 265.007C67.6703 269.482 75.1572 273.431 77.7488 268.956C77.7488 268.692 79.1886 266.586 79.1886 266.586C81.2043 267.376 82.9321 269.219 84.3719 270.535C87.5394 272.905 90.707 275.274 93.8745 277.906C98.1939 280.802 104.529 275.274 100.21 272.115Z" fill="#917171"/>
<path d="M110.576 246.052C105.681 246.842 101.073 248.422 96.4659 250.264C95.0261 250.791 94.4502 252.37 94.4502 253.687C94.4502 259.742 97.6177 265.007 103.089 268.166C107.696 271.062 112.016 264.217 107.408 261.321C105.393 260.005 103.953 258.162 103.377 256.056C106.544 255.003 109.712 254.213 112.88 253.423C118.351 252.634 116.047 244.999 110.576 246.052Z" fill="#917171"/>
<path d="M166.44 343.194C154.346 342.931 142.828 345.037 131.885 349.249C129.294 350.039 126.99 351.092 124.687 352.671C122.959 353.724 122.383 355.304 122.671 357.146C124.399 365.834 139.66 363.465 146.283 362.675C156.074 361.622 165.289 357.41 170.184 348.986C171.624 346.353 169.896 343.194 166.44 343.194Z" fill="#917171"/>
<path d="M302.931 345.3C302.644 345.3 302.068 345.037 301.78 345.037C301.204 344.247 300.052 343.72 298.612 343.72C286.518 343.194 275 345.3 264.057 350.039C260.314 351.618 262.041 356.093 265.209 357.147C278.167 361.622 292.565 360.042 304.083 352.671C306.963 350.565 306.675 346.353 302.931 345.3Z" fill="#917171"/>
</g>
<path d="M230.203 36.1289C231.935 35.9648 233.12 36.9401 233.758 39.0547C233.284 40.4036 232.454 41.5703 231.27 42.5547H231.734C233.812 40.9688 235.025 40.7409 235.371 41.8711C231.306 44.1497 229.155 45.8997 228.918 47.1211C228.681 48.3242 229.328 48.6797 230.859 48.1875L237.777 45.3984C238.452 45.599 238.607 45.9818 238.242 46.5469C234.086 48.8255 230.987 49.9648 228.945 49.9648C227.049 49.7461 226.74 48.4154 228.016 45.9727C222.091 48.6341 218.217 49.9648 216.395 49.9648C215.137 49.5091 214.672 48.3698 215 46.5469C219.193 39.7109 224.26 36.2383 230.203 36.1289ZM220.469 42.7188C217.552 45.4714 216.34 47.1849 216.832 47.8594C217.324 48.5339 219.339 48.1055 222.875 46.5742C226.43 45.0247 228.909 43.0195 230.312 40.5586C231.625 38.9362 231.188 38.0794 229 37.9883C226.229 38.3711 223.385 39.9479 220.469 42.7188ZM246.172 36.1289C248.031 36.0013 249.253 36.2565 249.836 36.8945C250.438 37.5143 250.738 38.0703 250.738 38.5625C250.757 39.0547 250.656 39.4831 250.438 39.8477C250.219 40.194 248.077 41.7982 244.012 44.6602C242.772 45.8268 242.326 46.5651 242.672 46.875C243.018 47.1667 243.775 47.2214 244.941 47.0391C248.296 45.7448 254.339 44.3138 263.07 42.7461C264.456 42.7461 265.148 42.9375 265.148 43.3203C265.148 43.7031 260.318 44.9062 250.656 46.9297C244.24 49.2083 240.676 50.1016 239.965 49.6094C239.272 49.099 239.108 48.3333 239.473 47.3125C239.71 46.3464 241.642 44.569 245.27 41.9805L247.402 39.9023C248.095 38.681 248.013 38.0612 247.156 38.043C246.299 38.0247 245.069 38.3255 243.465 38.9453C241.861 39.5469 240.885 40.3216 240.539 41.2695C240.193 42.1992 239.646 42.6367 238.898 42.582C238.151 42.5091 237.786 41.8073 237.805 40.4766C241.542 37.6875 244.331 36.2383 246.172 36.1289ZM300.805 1.04688C301.88 0.372396 303.12 0.983073 304.523 2.87891C304.924 3.84505 304.715 4.25521 303.895 4.10938L301.434 2.87891L278.492 26.832L267.336 38.5078C270.635 38.5078 272.312 39 272.367 39.9844C272.568 40.6042 272.358 41.2695 271.738 41.9805C271.118 42.6914 270.48 43.3385 269.824 43.9219C269.168 44.5052 268.749 44.9518 268.566 45.2617C275.457 42.819 278.146 42.4089 276.633 44.0312C270.271 46.8021 266.634 48.3333 265.723 48.625C264.829 48.9167 263.982 49.0807 263.18 49.1172C262.396 49.1536 262.122 48.6888 262.359 47.7227C268.594 42.8555 270.453 40.6042 267.938 40.9688C263.727 40.9688 259.68 43.0833 255.797 47.3125C251.914 51.5417 249.344 54.2122 248.086 55.3242C246.828 56.418 242.581 59.5898 235.344 64.8398C232.135 66.9727 228.863 68.5677 225.527 69.625C222.173 70.7005 219.74 71.3568 218.227 71.5938C216.695 71.849 215.31 71.8854 214.07 71.7031C212.812 71.5391 211.919 70.8919 211.391 69.7617C210.862 68.6315 211.026 67.2552 211.883 65.6328C212.721 64.0104 214.052 62.543 215.875 61.2305C224.497 54.8685 234.414 49.3451 245.625 44.6602L248.359 43.6758C259.333 41.1419 265.814 38.0885 267.801 34.5156L268.402 33.7773C275.749 26.6315 284.18 18 293.695 7.88281L300.805 1.04688ZM215.191 68.9141C215.428 69.388 216.504 69.5065 218.418 69.2695L224.598 67.4375C231.543 65.2865 238.579 60.9479 245.707 54.4219C252.816 47.8958 256.243 44.5143 255.988 44.2773C255.733 44.0221 255.378 43.9401 254.922 44.0312C247.648 44.888 238.142 49.1901 226.402 56.9375C220.842 59.9453 217.124 63.1719 215.246 66.6172C214.954 67.6745 214.936 68.4401 215.191 68.9141ZM290.551 36.8945C292.1 36.2201 293.622 36.0104 295.117 36.2656C296.612 36.5026 297.368 37.5052 297.387 39.2734C297.387 41.7708 292.52 43.5482 282.785 44.6055C280.743 45.1888 279.741 45.8997 279.777 46.7383C279.832 47.5768 280.206 48.0872 280.898 48.2695C281.609 48.4336 282.357 48.5521 283.141 48.625C283.943 48.6797 286.941 48.1966 292.137 47.1758C297.332 46.1367 299.893 45.7812 299.82 46.1094C299.766 46.4193 297.305 47.2031 292.438 48.4609C287.589 49.7005 283.615 50.2018 280.516 49.9648C278.438 49.3815 277.608 48.2057 278.027 46.4375L278.246 45.207H276.414C276.268 44.7695 276.578 44.3685 277.344 44.0039C278.128 43.6211 282.53 41.2513 290.551 36.8945ZM287.352 40.4492C281.682 42.8737 281.956 43.4935 288.172 42.3086C293.185 41.069 295.691 40.0026 295.691 39.1094C295.691 38.2161 294.598 37.888 292.41 38.125L287.352 40.4492ZM311.988 36.375C315.361 35.6094 317.648 35.3815 318.852 35.6914C320.073 35.9831 320.72 36.4844 320.793 37.1953C320.866 37.888 320.374 38.9727 319.316 40.4492C316.418 42.8372 314.03 43.7122 312.152 43.0742L311.059 42.5273C310.366 41.6706 310.648 40.2578 311.906 38.2891C310.63 38.7995 309.29 39.4193 307.887 40.1484C304.332 42.026 302.436 43.6029 302.199 44.8789C301.16 46.957 301.771 47.9505 304.031 47.8594C316.682 45.4167 322.935 44.7331 322.789 45.8086C311.469 48.5794 304.77 49.9102 302.691 49.8008C300.613 49.6914 299.565 49.1536 299.547 48.1875C298.872 45.8359 299.93 43.4753 302.719 41.1055C305.526 38.7174 308.616 37.1406 311.988 36.375ZM311.879 38.3984C313.264 38.3984 314.221 38.8724 314.75 39.8203C310.812 41.6979 310.858 42.2904 314.887 41.5977C316.618 40.6497 317.767 39.7383 318.332 38.8633C318.897 37.9701 318.551 37.5052 317.293 37.4688C316.053 37.4141 314.249 37.724 311.879 38.3984ZM334.957 36.375C338.329 35.6094 340.617 35.3815 341.82 35.6914C343.042 35.9831 343.689 36.4844 343.762 37.1953C343.835 37.888 343.342 38.9727 342.285 40.4492C339.387 42.8372 336.999 43.7122 335.121 43.0742L334.027 42.5273C333.335 41.6706 333.617 40.2578 334.875 38.2891C333.599 38.7995 332.259 39.4193 330.855 40.1484C327.301 42.026 325.405 43.6029 325.168 44.8789C324.129 46.957 324.74 47.9505 327 47.8594C339.651 45.4167 345.904 44.7331 345.758 45.8086C334.438 48.5794 327.738 49.9102 325.66 49.8008C323.582 49.6914 322.534 49.1536 322.516 48.1875C321.841 45.8359 322.898 43.4753 325.688 41.1055C328.495 38.7174 331.585 37.1406 334.957 36.375ZM334.848 38.3984C336.233 38.3984 337.19 38.8724 337.719 39.8203C333.781 41.6979 333.827 42.2904 337.855 41.5977C339.587 40.6497 340.736 39.7383 341.301 38.8633C341.866 37.9701 341.52 37.5052 340.262 37.4688C339.022 37.4141 337.217 37.724 334.848 38.3984ZM368.316 36.293C369.629 35.8737 370.185 36.3841 369.984 37.8242C364.115 42.3268 361.28 44.8516 361.48 45.3984C360.952 46.3828 361.207 46.9844 362.246 47.2031C364.178 46.9479 366.484 46.1641 369.164 44.8516C371.862 43.5208 373.092 43.2018 372.855 43.8945C372.217 45.2435 369.993 46.6836 366.184 48.2148C362.392 49.7279 360.195 50.1198 359.594 49.3906C358.992 48.6615 358.855 47.0846 359.184 44.6602L349.477 49.1992C348.273 49.5273 347.253 49.5638 346.414 49.3086C345.594 49.0352 345.293 48.2422 345.512 46.9297C349.285 41.1693 351.956 38.0247 353.523 37.4961C355.091 36.9492 355.465 37.3047 354.645 38.5625C349.796 43.5208 347.517 46.3555 347.809 47.0664C348.118 47.7773 350.607 46.8932 355.273 44.4141C359.94 41.9167 364.288 39.2096 368.316 36.293ZM389.344 36.293C391.385 36.293 392.716 37.0221 393.336 38.4805C393.646 40.7773 392.461 42.4453 389.781 43.4844C387.12 44.5234 384.805 45.3346 382.836 45.918C380.867 46.2826 380.147 46.8477 380.676 47.6133C381.204 48.3607 382.152 48.6523 383.52 48.4883L390.766 47.0117C395.688 45.2799 398.194 44.6146 398.285 45.0156C398.395 45.3984 396.927 46.1367 393.883 47.2305C390.857 48.3242 387.257 49.2357 383.082 49.9648C380.111 50.2201 378.589 49.3086 378.516 47.2305C374.961 48.707 372.874 49.2539 372.254 48.8711C371.251 48.6341 371.014 47.9232 371.543 46.7383C372.053 45.5534 373.393 44.3958 375.562 43.2656C376.164 42.901 376.602 43.1289 376.875 43.9492C376.583 44.332 376 44.7513 375.125 45.207C374.25 45.6628 373.685 46.1549 373.43 46.6836C373.174 47.2122 373.284 47.431 373.758 47.3398C376.164 46.8841 378.197 45.3893 379.855 42.8555C381.533 40.3216 383.082 38.5625 384.504 37.5781C385.944 36.5755 387.557 36.1471 389.344 36.293ZM380.594 44.7422C381.177 44.9974 383.155 44.4414 386.527 43.0742C389.918 41.6888 391.613 40.5221 391.613 39.5742C391.486 38.4987 390.538 37.9518 388.77 37.9336C386.126 37.9336 383.401 40.2031 380.594 44.7422ZM431.645 36.293C432.957 35.8737 433.513 36.3841 433.312 37.8242C427.443 42.3268 424.608 44.8516 424.809 45.3984C424.28 46.3828 424.535 46.9844 425.574 47.2031C427.507 46.9479 429.812 46.1641 432.492 44.8516C435.19 43.5208 436.421 43.2018 436.184 43.8945C435.546 45.2435 433.322 46.6836 429.512 48.2148C425.72 49.7279 423.523 50.1198 422.922 49.3906C422.32 48.6615 422.184 47.0846 422.512 44.6602L412.805 49.1992C411.602 49.5273 410.581 49.5638 409.742 49.3086C408.922 49.0352 408.621 48.2422 408.84 46.9297C412.613 41.1693 415.284 38.0247 416.852 37.4961C418.419 36.9492 418.793 37.3047 417.973 38.5625C413.124 43.5208 410.845 46.3555 411.137 47.0664C411.447 47.7773 413.935 46.8932 418.602 44.4141C423.268 41.9167 427.616 39.2096 431.645 36.293ZM463.582 39C464.184 39.8385 464.238 40.8229 463.746 41.9531C463.436 43.3932 460.647 45.0885 455.379 47.0391C454.121 48.0052 453.72 48.8438 454.176 49.5547L461.832 47.0391L462.215 47.4492V47.8867L452.59 52.4531C452.699 59.125 451.605 62.9531 449.309 63.9375L446.191 65.25L442.254 65.7148L438.918 64.9766L437.633 63.9102L436.785 62.2969L436.594 60.9297C436.867 59.0156 438.389 57.2383 441.16 55.5977C448.233 52.6263 451.77 50.3294 451.77 48.707C450.165 48.707 449.199 48.6068 448.871 48.4062C448.543 48.1875 448.543 47.8138 448.871 47.2852C449.199 46.7565 451.323 46.0091 455.242 45.043L459.727 43.2109C462.789 40.9141 462.862 39.6107 459.945 39.3008C457.029 38.9909 455.342 39.556 454.887 40.9961C454.03 40.9961 453.547 40.6406 453.438 39.9297C453.346 39.2188 453.693 38.6354 454.477 38.1797C455.279 37.724 456.773 37.4323 458.961 37.3047C461.458 37.5964 462.999 38.1615 463.582 39ZM438.672 61.5586L439.93 63.2266L440.559 63.6914L442.145 63.8555L442.992 63.8281L444.578 63.6094C448.224 63.1719 450.229 60.6562 450.594 56.0625L450.566 54.5586L450.156 53.3008C449.318 53.3555 448.27 53.8659 447.012 54.832C446.191 55.3607 444.605 56.2448 442.254 57.4844C441.27 57.9219 440.404 58.569 439.656 59.4258C438.945 59.8633 438.617 60.5742 438.672 61.5586ZM481.574 36.6211C484.327 35.0352 485.257 35.099 484.363 36.8125C483.288 37.8333 480.034 40.2396 474.602 44.0312C473.982 45.2161 473.672 46.1276 473.672 46.7656C473.672 47.3854 474.492 47.3854 476.133 46.7656C477.792 46.1276 479.915 44.8151 482.504 42.8281C483.051 42.901 483.26 43.3203 483.133 44.0859C483.023 44.8333 481.848 45.7812 479.605 46.9297C477.382 48.0599 475.577 48.707 474.191 48.8711C472.824 49.0169 472.077 48.8802 471.949 48.4609C471.84 48.0234 471.949 46.9388 472.277 45.207L462.98 49.9648C461.978 50.1836 461.513 49.7917 461.586 48.7891C462.898 45.3073 463.828 43.5208 464.375 43.4297C465.451 43.3568 465.76 43.9492 465.305 45.207C463.646 47.3763 463.646 47.9688 465.305 46.9844C472.159 43.7031 477.582 40.2487 481.574 36.6211ZM499.785 36.1562C503.832 35.5182 505.956 36.2656 506.156 38.3984C506.703 40.2396 503.741 42.7096 497.27 45.8086C490.798 48.9076 486.915 50.4479 485.621 50.4297C484.327 50.4115 483.488 50.1836 483.105 49.7461C482.741 49.2904 482.659 48.4701 482.859 47.2852C483.06 46.1003 484.919 44.1133 488.438 41.3242C491.956 38.5169 495.738 36.7943 499.785 36.1562ZM486.113 45.7539C484.527 47.668 484.974 48.4154 487.453 47.9961C489.951 47.5768 495.027 45.0794 502.684 40.5039L503.258 39.9844C504.005 38.8177 503.413 38.1068 501.48 37.8516C499.548 37.5964 496.896 38.3711 493.523 40.1758C490.169 41.9622 487.699 43.8216 486.113 45.7539ZM515.426 36.375C518.798 35.6094 521.086 35.3815 522.289 35.6914C523.51 35.9831 524.158 36.4844 524.23 37.1953C524.303 37.888 523.811 38.9727 522.754 40.4492C519.855 42.8372 517.467 43.7122 515.59 43.0742L514.496 42.5273C513.803 41.6706 514.086 40.2578 515.344 38.2891C514.068 38.7995 512.728 39.4193 511.324 40.1484C507.77 42.026 505.874 43.6029 505.637 44.8789C504.598 46.957 505.208 47.9505 507.469 47.8594C520.12 45.4167 526.372 44.7331 526.227 45.8086C514.906 48.5794 508.207 49.9102 506.129 49.8008C504.051 49.6914 503.003 49.1536 502.984 48.1875C502.31 45.8359 503.367 43.4753 506.156 41.1055C508.964 38.7174 512.053 37.1406 515.426 36.375ZM515.316 38.3984C516.702 38.3984 517.659 38.8724 518.188 39.8203C514.25 41.6979 514.296 42.2904 518.324 41.5977C520.056 40.6497 521.204 39.7383 521.77 38.8633C522.335 37.9701 521.988 37.5052 520.73 37.4688C519.491 37.4141 517.686 37.724 515.316 38.3984ZM526.992 36.293L553.297 36.8125C554.008 37.3047 553.944 37.8151 553.105 38.3438C552.267 38.8724 549.177 39.0638 543.836 38.918L539.27 38.8086C538.103 38.8815 535.068 38.5716 530.164 37.8789C531.568 39.3919 532.27 41.8438 532.27 45.2344C536.262 42.0807 539.06 40.5039 540.664 40.5039C541.32 40.5586 541.503 40.9049 541.211 41.543L529.645 49.9648C528.915 49.9466 528.56 49.6003 528.578 48.9258L530.164 46.8203C530.164 41.9167 528.76 38.5807 525.953 36.8125C525.898 36.3568 526.245 36.1836 526.992 36.293ZM561.828 35.6914C562.685 35.5456 563.031 35.819 562.867 36.5117C559.24 38.8451 557.052 40.5677 556.305 41.6797C560.716 41.8073 562.922 43.3841 562.922 46.4102C562.922 48.0326 559.887 49.2174 553.816 49.9648C551.501 49.9284 550.134 49.6458 549.715 49.1172C549.314 48.5703 549.186 47.9414 549.332 47.2305C549.478 46.5195 550.298 45.4076 551.793 43.8945C551.21 43.694 551.036 43.3568 551.273 42.8828C556.195 38.4896 559.714 36.0924 561.828 35.6914ZM557.453 43.4023C555.503 43.2018 554.053 43.6029 553.105 44.6055C552.176 45.6081 551.62 46.3464 551.438 46.8203C551.273 47.2943 551.328 47.668 551.602 47.9414C551.893 48.2148 552.385 48.3607 553.078 48.3789C553.789 48.3789 554.919 48.2604 556.469 48.0234C558.036 47.7865 559.267 47.4674 560.16 47.0664C561.053 46.6471 561.309 45.9818 560.926 45.0703C560.561 44.1406 559.404 43.5846 557.453 43.4023Z" fill="#7B6C64"/>
<defs>
<clipPath id="clip0">
<rect width="440" height="422" fill="white" transform="translate(0 106)"/>
</clipPath>
</defs>
</svg>
