<svg width="120" height="118" viewBox="0 0 120 118" fill="none" xmlns="http://www.w3.org/2000/svg">
<path opacity="0.3" fill-rule="evenodd" clip-rule="evenodd" d="M31.1375 0.869111C31.1798 1.09317 31.2837 1.21677 31.4405 1.23016C31.6131 1.24499 31.5914 1.34216 31.3622 1.58087C31.188 1.76243 30.9513 1.87049 30.8363 1.82091C30.5042 1.67752 30.2678 2.05489 30.3508 2.59603C30.3928 2.86961 30.358 3.16559 30.2733 3.25384C30.0837 3.45134 29.8842 3.28549 29.9742 3.00495C30.0105 2.89162 29.9556 2.92858 29.8519 3.08711C29.7183 3.29113 29.6333 3.31304 29.5608 3.16211C29.5044 3.04475 29.4045 3.00476 29.3389 3.07314C29.2732 3.14152 29.2836 3.26043 29.3621 3.33749C29.4568 3.43082 29.413 3.45778 29.2303 3.41827C28.9948 3.36719 28.9645 3.41514 29.0164 3.75644C29.0497 3.975 29.1501 4.31775 29.2394 4.51784C29.3318 4.72471 29.3161 4.9028 29.2034 4.93047C29.0648 4.96446 29.0192 4.90446 29.052 4.7316C29.0879 4.54323 29.0431 4.53328 28.8642 4.69011C28.7351 4.80344 28.5664 4.95028 28.4895 5.01629C28.4126 5.0824 28.2756 5.13712 28.1851 5.13765C27.7715 5.14059 27.855 5.37886 28.4083 5.77381C29.0538 6.23468 29.0715 6.30493 28.5432 6.30868C28.2325 6.311 28.2047 6.33807 28.3036 6.54367C28.3651 6.67147 28.3185 6.82045 28.1999 6.87493C28.0796 6.9301 28.0529 7.04102 28.1393 7.12571C28.2588 7.24296 28.2307 7.26456 28.0167 7.22048C27.7796 7.17153 27.7682 7.19169 27.9393 7.35875C28.0651 7.48141 28.0564 7.64071 27.9163 7.78668C27.7935 7.91467 27.6981 8.16983 27.7043 8.35378C27.7105 8.53774 27.5493 8.86149 27.3462 9.07314C27.1429 9.2849 27.0247 9.5043 27.0835 9.56076C27.2261 9.69768 26.919 10.6986 26.7194 10.7475C26.6327 10.7688 26.6109 10.833 26.6706 10.8904C26.801 11.0155 26.3013 12.7007 26.0591 12.953C25.9652 13.0508 25.9635 13.2662 26.0552 13.4315C26.1468 13.5969 26.1431 13.7697 26.0467 13.8155C25.848 13.9098 25.5736 15.0044 25.6442 15.421C25.6839 15.6548 25.6369 15.6966 25.3315 15.6987C24.8789 15.7019 24.6418 15.9329 24.9532 16.0672C25.3379 16.2333 25.4276 16.6117 25.1505 16.9004C24.9885 17.0691 24.8985 17.5549 24.9109 18.1924C24.9249 18.9084 24.8518 19.2562 24.6665 19.3554C24.4687 19.4609 24.4639 19.5234 24.6471 19.6026C24.8927 19.7085 24.8347 19.8627 24.4164 20.216C24.301 20.3136 24.2585 20.5017 24.3221 20.634C24.3901 20.7754 24.3094 21.0082 24.126 21.1993C23.9329 21.4004 23.8747 21.5822 23.9731 21.6766C24.0604 21.7604 24.1245 21.9547 24.1154 22.1082C24.1058 22.2703 24.2646 22.5139 24.4942 22.6893C24.8238 22.941 24.8463 23.0108 24.6292 23.1105C24.486 23.1763 24.4414 23.2295 24.53 23.2289C24.7088 23.2277 24.8129 23.9461 24.6573 24.1081C24.5409 24.2294 24.5439 24.8135 24.6616 24.9264C24.7478 25.0092 24.745 25.5566 24.6522 26.7343C24.6211 27.1291 24.6404 27.4949 24.6951 27.5474C24.8375 27.6841 24.8711 28.8471 24.7416 29.1625C24.6815 29.3089 24.7062 29.4997 24.7966 29.5865C24.8869 29.6732 24.9179 29.8486 24.8656 29.9763C24.8131 30.1039 24.8756 30.3095 25.0045 30.4333C25.1333 30.5569 25.1776 30.7218 25.103 30.7995C25.0283 30.8773 25.013 31.1132 25.0689 31.3239C25.1439 31.6061 25.1051 31.7073 24.9212 31.7086C24.784 31.7096 24.6226 31.7649 24.5621 31.8316C24.5019 31.8983 24.5901 31.9153 24.7586 31.8692C25.2092 31.746 25.2865 31.8987 25.3232 32.9837C25.3415 33.5236 25.4094 33.9652 25.4741 33.9647C25.5387 33.9643 25.6485 34.0821 25.7181 34.2268C25.8146 34.4273 25.7827 34.4903 25.5841 34.4917C25.1558 34.4948 25.117 34.6733 25.5193 34.7911C25.8251 34.8805 25.8878 34.9593 25.8567 35.2151C25.8357 35.388 25.8777 35.5862 25.95 35.6556C26.0223 35.725 26.0329 35.8323 25.9736 35.894C25.9144 35.9558 25.9437 36.081 26.0388 36.1724C26.1349 36.2646 26.116 36.4382 25.9963 36.563C25.8744 36.69 25.8576 36.8614 25.9577 36.9574C26.0551 37.051 26.1807 37.3167 26.2369 37.5482C26.293 37.7796 26.4674 38.1138 26.6245 38.2909C26.7913 38.479 26.8568 38.7229 26.782 38.8777C26.7116 39.0232 26.7301 39.1596 26.8226 39.1807C26.9154 39.2018 27.031 39.4084 27.0798 39.6401C27.1285 39.8717 27.2606 40.1497 27.3734 40.258C27.4861 40.3662 27.5107 40.5251 27.4282 40.6111C27.2303 40.8173 27.4271 41.2043 27.8562 41.453C28.0547 41.568 28.1535 41.7021 28.0894 41.7689C27.9616 41.902 28.2814 42.8555 28.5353 43.0993C28.6798 43.238 28.6551 43.2669 28.3674 43.2964C28.0585 43.328 28.065 43.3388 28.4453 43.4251C28.7871 43.5025 28.8519 43.5612 28.8127 43.7586C28.7866 43.8903 28.8894 44.1459 29.0412 44.3263C29.1931 44.5069 29.3321 44.8189 29.3499 45.0196C29.3678 45.2204 29.5477 45.576 29.7497 45.81C29.9516 46.044 30.1321 46.4127 30.1506 46.6296C30.1692 46.8463 30.2753 47.0628 30.3864 47.1107C30.4975 47.1587 30.5718 47.2801 30.5514 47.3804C30.5312 47.4809 30.7269 47.8328 30.9862 48.1626C31.2457 48.4924 31.4739 48.9186 31.4931 49.1098C31.5125 49.301 31.6329 49.5391 31.7607 49.6389C32.1677 49.9569 32.2603 50.1194 32.1189 50.2667C32.0246 50.3649 32.1438 50.5503 32.4954 50.8529C32.7782 51.0963 33.0517 51.4684 33.1029 51.6796C33.1541 51.8908 33.3053 52.2018 33.439 52.3707C33.5726 52.5397 33.6723 52.8143 33.6607 52.9811C33.6478 53.1665 33.6897 53.235 33.7685 53.1573C33.8942 53.0335 34.066 53.2772 34.5689 54.293C34.6518 54.4604 34.9468 54.8216 35.2242 55.0957C35.5627 55.4299 35.7059 55.6854 35.6594 55.8726C35.6043 56.0948 35.6508 56.1567 35.8878 56.1771C36.1084 56.1958 36.221 56.2976 36.3232 56.5704C36.399 56.7728 36.6098 57.1469 36.7918 57.4017C36.9737 57.6565 37.1451 57.9454 37.1727 58.0435C37.2386 58.2778 37.3502 58.4191 38.4242 59.6252C38.9226 60.1851 39.3166 60.7208 39.2997 60.8157C39.2828 60.9106 39.5743 61.2821 39.9475 61.6412C40.3208 62.0002 41.0295 62.8606 41.5226 63.553C42.0157 64.2454 42.8624 65.233 43.4045 65.7474C43.9464 66.262 44.6482 67.0371 44.9639 67.4698C45.5029 68.2084 46.6503 69.2817 46.9812 69.3568C47.0629 69.3753 47.1583 69.4962 47.1932 69.6253C47.2282 69.7544 47.4825 69.9981 47.7585 70.1668C48.0345 70.3356 48.2802 70.5477 48.3047 70.6383C48.3293 70.729 48.5515 71.0165 48.7987 71.2771C49.0459 71.5379 49.2126 71.8277 49.1691 71.9213C49.1148 72.0381 49.1921 72.1242 49.4164 72.1964C49.5958 72.2543 49.8844 72.348 50.0576 72.4044C50.2343 72.462 50.5147 72.7195 50.6962 72.9909C50.8969 73.291 51.1074 73.474 51.2506 73.473C51.4099 73.4719 51.4932 73.5635 51.5192 73.7677C51.5462 73.9811 51.6121 74.0504 51.7549 74.0155C51.8716 73.9869 52.2621 74.2752 52.7063 74.7184C53.1206 75.1316 53.6899 75.6242 53.9714 75.8126C54.3645 76.0759 54.4911 76.2516 54.518 76.5705C54.5369 76.7989 54.6046 76.9315 54.6682 76.8653C54.7317 76.7992 54.7475 76.6527 54.7034 76.5401C54.6592 76.4273 54.7908 76.5377 54.9958 76.7852C55.2009 77.0328 55.4675 77.2345 55.5882 77.2337C55.7089 77.2328 56.0038 77.3699 56.2434 77.5383C56.483 77.7067 56.8635 77.9213 57.0892 78.0154C57.6782 78.2609 58.3441 78.8276 58.4651 79.1865C58.5268 79.3691 58.6099 79.4529 58.6686 79.3918C58.7498 79.3072 59.6377 79.8226 60.1627 80.259C60.2306 80.3153 60.3685 80.3795 60.4693 80.4017C60.5704 80.4238 60.9106 80.7167 61.2256 81.0525C61.5989 81.4506 61.8114 81.5982 61.836 81.4764C61.8596 81.3597 61.9443 81.403 62.0616 81.5916C62.1648 81.7575 62.3238 81.8752 62.4145 81.8529C62.5055 81.8306 62.5986 81.8823 62.6217 81.9676C62.6448 82.053 62.7388 82.1044 62.8305 82.082C62.9221 82.0595 63.4333 82.3912 63.9662 82.8192C64.4991 83.2471 65.0505 83.6089 65.1916 83.6233C65.4535 83.65 65.8436 83.9073 66.5512 84.52C66.7704 84.7097 67.0171 84.8484 67.0994 84.8281C67.1817 84.8079 67.4172 84.9529 67.6228 85.1503C67.8285 85.3476 68.1213 85.5081 68.2737 85.5071C68.4941 85.5055 68.54 85.5604 68.4986 85.7769C68.4699 85.9265 68.5001 85.9946 68.5657 85.9283C68.7608 85.7309 69.4079 86.0396 69.558 86.4016C69.7052 86.7563 70.8084 87.2887 70.9944 87.0949C71.0521 87.0348 71.2228 87.1639 71.3792 87.3861C71.5393 87.6133 71.7841 87.7957 71.9479 87.8097C72.1693 87.8286 72.2157 87.8795 72.1492 88.0298C72.0904 88.1626 72.2575 88.2184 72.6688 88.2033C73.1207 88.1866 73.2978 88.2531 73.3648 88.4644C73.4467 88.7224 73.6306 88.8476 74.6207 89.3187C74.7462 89.3783 74.9921 89.5377 75.1671 89.6727C75.3421 89.8079 75.6963 90.0531 75.954 90.2179C76.3141 90.4482 76.4133 90.5939 76.3825 90.8474C76.3458 91.15 76.3695 91.1626 76.6706 91.0018C77.0342 90.8074 77.2986 90.7965 77.8858 90.9518C78.2174 91.0396 78.2651 91.0941 78.184 91.2919C78.0583 91.5978 78.2452 91.7752 78.4586 91.5529C78.5913 91.4146 78.6471 91.4489 78.7408 91.7265C78.8337 92.0019 78.9708 92.0908 79.4104 92.1611C79.7145 92.2098 80.1436 92.4229 80.3643 92.6348C80.6686 92.9268 80.8321 92.9796 81.0414 92.8532C81.3304 92.6786 81.6565 92.838 81.4502 93.0529C81.3845 93.1213 81.4321 93.2209 81.5557 93.2742C81.6795 93.3276 81.7479 93.4558 81.7079 93.559C81.668 93.6625 81.7299 93.6567 81.8452 93.5465C82.0115 93.3877 82.1153 93.4228 82.3434 93.7142C82.553 93.9821 82.6544 94.0268 82.7156 93.8778C82.7719 93.7407 82.839 93.7548 82.9188 93.921C82.9998 94.0893 83.0972 94.1071 83.2227 93.9762C83.3427 93.8513 83.4463 93.8647 83.5184 94.0145C83.5794 94.1413 83.6741 94.1985 83.7288 94.1415C83.7836 94.0844 84.0425 94.1794 84.3042 94.3525C84.5659 94.5256 84.8445 94.6513 84.9232 94.6321C85.002 94.6128 85.3164 94.7688 85.6221 94.9788C85.9277 95.1886 86.3741 95.366 86.6139 95.3727C86.8538 95.3795 87.1701 95.5001 87.3168 95.6409C87.4634 95.7816 87.6318 95.8462 87.6911 95.7845C87.7503 95.7227 87.8767 95.7469 87.9718 95.8382C88.067 95.9296 88.1005 96.0504 88.0464 96.1068C87.9922 96.1633 88.158 96.3013 88.415 96.4138C88.6719 96.5264 88.9263 96.5605 88.9805 96.49C89.23 96.1641 89.3764 96.1298 89.4919 96.37C89.5746 96.5421 89.6289 96.5567 89.6577 96.4145C89.6847 96.2806 89.783 96.2824 89.9255 96.4192C90.0494 96.5381 90.2475 96.5908 90.3658 96.5364C90.4843 96.482 90.9229 96.6545 91.3406 96.9195C91.8881 97.2671 92.1786 97.3596 92.3816 97.2511C92.6793 97.092 93.6484 97.3129 93.7138 97.5548C93.7578 97.7176 94.5063 97.6869 94.6709 97.5154C94.7307 97.4531 94.9588 97.4669 95.1778 97.5462C95.4142 97.6318 95.6117 97.603 95.664 97.4755C95.7898 97.169 96.3116 97.1558 96.6193 97.4512C96.7633 97.5894 96.9833 97.6557 97.1083 97.5982C97.3447 97.4897 97.8251 97.928 97.7892 98.2198C97.7782 98.3107 97.8583 98.3632 97.9671 98.3366C98.0761 98.3098 98.1103 98.2352 98.0432 98.1708C97.9761 98.1064 97.999 97.9724 98.0943 97.8731C98.2075 97.7552 98.1821 97.6558 98.0212 97.5864C97.8857 97.5279 97.7298 97.347 97.675 97.1844C97.6182 97.0164 97.4658 96.8638 97.3219 96.8312C97.1778 96.7984 97.0254 96.6456 96.9684 96.4767C96.9075 96.2964 96.7211 96.116 96.4932 96.0168C96.0439 95.8213 95.8281 95.3021 96.2307 95.3852C96.3756 95.4152 96.2161 95.2121 95.8346 94.8806C95.4833 94.5755 95.1251 94.3624 95.0384 94.4069C94.9519 94.4516 94.8075 94.4176 94.7177 94.3314C94.6277 94.245 94.4815 94.2503 94.3926 94.3429C94.2684 94.4723 94.0836 94.3699 93.5967 93.9025C93.0701 93.3971 92.9941 93.26 93.1493 93.0956C93.2548 92.9836 93.2524 92.9108 93.1437 92.9283C93.0378 92.9454 92.7621 92.9443 92.531 92.926C92.152 92.8959 92.0943 92.8455 91.941 92.4094C91.7891 91.9778 91.7311 91.9245 91.3969 91.9102C91.0891 91.8972 90.9643 91.7975 90.6945 91.3493C90.2173 90.5564 89.9776 90.3737 89.6628 90.5639C89.4485 90.6934 89.3435 90.6595 89.2133 90.4191C89.12 90.2465 88.9475 90.0236 88.83 89.9237C88.7125 89.8241 88.6861 89.6697 88.7713 89.5809C88.9714 89.3725 88.8614 89.2747 88.4053 89.2552C88.204 89.2466 87.9023 89.1328 87.7348 89.0025C87.5674 88.8722 87.3315 88.743 87.2106 88.7157C87.0666 88.6829 87.0661 88.5874 87.2095 88.438C87.3591 88.2822 87.3541 88.1786 87.1939 88.1094C87.0651 88.0539 86.945 88.0811 86.9271 88.1702C86.9091 88.2591 86.6596 88.1065 86.3727 87.8311C85.9691 87.4437 85.8718 87.2528 85.9432 86.9873C86.0519 86.5825 85.8167 86.3003 85.494 86.4483C85.3478 86.5155 85.3341 86.6244 85.4557 86.7521C85.5601 86.8617 85.5649 86.9187 85.4665 86.8791C85.3682 86.8393 85.1361 86.517 84.9505 86.1626C84.765 85.8083 84.5465 85.5032 84.4646 85.4846C84.3829 85.4661 84.3856 85.3783 84.4709 85.2895C84.556 85.2008 84.6071 84.9823 84.5846 84.804C84.5506 84.5363 84.5901 84.4851 84.8114 84.51C84.9588 84.5266 85.3557 84.4471 85.6935 84.3334C86.3235 84.1213 86.7286 84.1842 86.8161 84.5076C86.8472 84.6225 86.7728 84.6706 86.6165 84.6371C86.4138 84.5933 86.3995 84.6147 86.5397 84.7521C86.6347 84.845 86.874 84.8821 87.0718 84.8347C87.2696 84.7872 87.5151 84.8287 87.6175 84.927C87.7641 85.0677 87.743 85.1118 87.5182 85.1344C87.33 85.1531 87.2607 85.2154 87.3147 85.3166C87.4728 85.6126 88.627 86.4997 88.7235 86.3992C88.7769 86.3435 88.7393 86.2195 88.6396 86.1239C88.4768 85.9676 88.4931 85.9496 88.8003 85.9474C89.0803 85.9454 89.1595 86.01 89.2374 86.3035C89.3166 86.6016 89.4032 86.6651 89.751 86.68C90.1516 86.697 90.1661 86.7109 90.0925 87.0072C90.0286 87.2647 90.0689 87.3211 90.3336 87.3437C90.5086 87.3588 90.6739 87.4532 90.7011 87.5537C90.7283 87.6542 90.9746 87.8052 91.2484 87.8896C91.6247 88.0053 91.8155 88.16 92.0301 88.5232C92.3817 89.1185 92.3449 89.0897 92.5208 88.9064C92.6865 88.7338 93.8508 89.5178 94.0529 89.9381C94.1396 90.1185 94.201 90.1245 94.2686 89.9597C94.3363 89.7947 94.4735 89.8083 94.7509 90.0077C95.0327 90.21 95.0841 90.3114 94.9392 90.3777C94.8061 90.4389 94.8398 90.5654 95.0405 90.758C95.2058 90.9167 95.3925 90.993 95.4552 90.9276C95.518 90.8623 95.5945 90.9014 95.6251 91.015C95.6639 91.1579 95.7525 91.1096 95.9143 90.8577L96.148 90.4943L96.7616 91.1534C97.3099 91.7423 97.3537 91.8475 97.1724 92.1395C96.8371 92.6797 97.1138 92.8931 97.5545 92.434C97.9844 91.9861 98.073 92.0233 98.4181 92.7972C98.6259 93.2632 98.6697 93.3048 98.7488 93.1121C98.8124 92.957 98.8758 92.9648 98.9591 93.1379C99.0292 93.2835 99.1332 93.3284 99.2118 93.2465C99.4054 93.0449 100.159 94.0304 100.202 94.5412C100.222 94.7781 100.288 94.895 100.361 94.8196C100.429 94.7483 100.423 94.6302 100.347 94.5571C100.246 94.4606 100.276 94.4238 100.453 94.4225C101.078 94.4181 103.589 97.9697 103.499 98.7294C103.488 98.8165 103.547 98.9735 103.629 99.0786C103.839 99.3469 103.945 100.4 103.827 101.04C103.772 101.336 103.746 101.697 103.77 101.843C103.802 102.047 103.641 102.242 103.073 102.685C102.408 103.204 102.307 103.235 102.061 102.998C101.79 102.738 101.44 102.886 100.852 103.509C100.749 103.618 100.512 103.662 100.325 103.608C100.138 103.553 99.9711 103.576 99.9543 103.659C99.9375 103.742 99.7866 103.799 99.6189 103.784C99.4511 103.77 99.2471 103.828 99.1655 103.913C99.0838 103.998 98.9509 104.004 98.8702 103.927C98.7805 103.841 98.5598 103.943 98.3024 104.191C97.6172 104.849 97.4306 104.944 96.7946 104.953C96.3764 104.96 96.1383 105.056 96.0239 105.264C95.9326 105.43 95.6554 105.609 95.4061 105.663C95.1573 105.717 94.8402 105.88 94.7012 106.024C94.5623 106.169 94.2783 106.313 94.0701 106.343C93.8619 106.373 93.5564 106.536 93.3915 106.704C93.199 106.9 93.0294 106.949 92.9185 106.843C92.8233 106.752 92.6779 106.747 92.5954 106.833C92.5128 106.919 92.3346 106.942 92.1994 106.884C92.0369 106.814 91.9056 106.877 91.8121 107.071C91.7135 107.275 91.488 107.365 91.0699 107.368C90.7339 107.37 90.3154 107.509 90.1201 107.682C89.9278 107.852 89.6279 107.971 89.4534 107.945C89.2788 107.919 89.0123 108.027 88.8611 108.184C88.6879 108.365 88.3574 108.453 87.9681 108.422C87.6282 108.395 87.2742 108.453 87.1815 108.549C87.0887 108.646 86.935 108.65 86.8399 108.559C86.7438 108.467 86.5711 108.493 86.4513 108.617C86.3328 108.741 86.1907 108.799 86.1357 108.746C85.9396 108.558 84.9906 109.453 84.9845 109.832C84.9793 110.15 84.9292 110.198 84.5049 110.29C83.97 110.406 83.9762 110.515 84.5176 110.511C85.1258 110.507 84.9268 110.724 84.1875 110.872C83.8031 110.949 83.4452 111.057 83.3921 111.112C83.339 111.167 83.2454 111.064 83.1841 110.882C83.1228 110.7 82.944 110.453 82.7868 110.331C82.5487 110.148 82.5552 110.022 82.8274 109.577C83.041 109.227 83.2364 109.042 83.3937 109.042C83.5652 109.041 83.5536 109.078 83.3529 109.171C83.1314 109.273 83.1276 109.335 83.3349 109.464C83.4795 109.554 83.6414 109.558 83.6948 109.472C83.7481 109.386 83.8342 109.404 83.886 109.512C83.9434 109.631 84.0665 109.618 84.2013 109.477C84.3597 109.312 84.3494 109.194 84.1646 109.059C83.9629 108.912 83.9754 108.714 84.2221 108.147C84.5292 107.442 84.5475 107.425 84.9217 107.488C85.133 107.523 85.3236 107.465 85.3453 107.357C85.367 107.25 85.4596 107.234 85.5511 107.322C85.6426 107.41 85.8478 107.403 86.0072 107.306C86.1668 107.21 86.3203 107.218 86.349 107.324C86.3776 107.429 86.4523 107.462 86.5151 107.397C86.5778 107.332 86.5833 107.234 86.5274 107.18C86.4713 107.126 86.4953 106.955 86.5807 106.8C86.6661 106.645 86.783 106.563 86.8405 106.618C86.8979 106.673 87.042 106.617 87.1606 106.494C87.2791 106.37 87.4311 106.322 87.4982 106.386C87.5653 106.451 87.6368 106.422 87.6569 106.323C87.6769 106.223 87.7484 106.195 87.8155 106.259C87.8826 106.324 88.0481 106.261 88.183 106.121C88.3181 105.98 88.5946 105.833 88.7975 105.794C89.0004 105.755 89.5106 105.543 89.9311 105.324C90.3517 105.105 90.7436 104.971 90.8019 105.027C90.8602 105.083 91.052 104.979 91.2281 104.795C91.6006 104.407 93.4753 103.734 93.7973 103.873C94.0873 103.998 94.3227 103.739 94.183 103.448C94.0132 103.095 94.3891 102.818 95.225 102.681C95.6417 102.613 96.1766 102.428 96.4134 102.269C96.6504 102.111 96.8955 102.031 96.9583 102.091C97.0209 102.151 97.1347 102.071 97.2114 101.912C97.4327 101.454 98.2354 100.967 98.866 100.908C99.4785 100.851 99.782 100.487 99.4684 100.186C99.3691 100.091 99.2724 99.8652 99.2533 99.6847C99.2342 99.5041 99.0164 99.0996 98.7694 98.7857C98.4511 98.3811 98.3388 98.2964 98.3839 98.4948C98.4405 98.7435 98.4158 98.7692 98.1623 98.7256C97.9088 98.682 97.8982 98.693 98.0673 98.8245C98.4415 99.1157 98.5179 99.2784 98.3586 99.4444C98.2697 99.537 98.2456 99.6595 98.305 99.7165C98.457 99.8624 97.5209 100.535 97.2123 100.501C97.073 100.486 96.7073 100.626 96.3995 100.812C95.8737 101.131 94.9266 101.22 94.6717 100.975C94.6089 100.915 94.495 100.927 94.419 101.002C94.256 101.164 93.5629 101.079 93.0867 100.839C92.8962 100.743 92.6634 100.761 92.5495 100.88C92.4356 100.998 92.2027 101.016 92.0123 100.92C91.5449 100.685 90.8441 100.595 90.6871 100.749C90.5361 100.898 89.9451 100.661 89.4554 100.256C89.3423 100.162 89.2519 100.152 89.2547 100.233C89.2574 100.315 88.9573 100.366 88.5877 100.348C87.8552 100.312 87.44 100.066 87.8181 99.8926C88.0132 99.803 87.9893 99.7681 87.6663 99.6714C87.4555 99.6082 87.228 99.562 87.1607 99.5686C86.7007 99.6139 85.7562 99.3206 85.4664 99.0424C85.1364 98.7256 84.5932 98.4704 83.3347 98.0408C82.9874 97.9221 82.5145 97.5918 82.108 97.1836C81.4356 96.5086 81.1933 96.4584 81.3478 97.0259C81.4221 97.2993 81.3989 97.3009 81.1695 97.0385C80.8668 96.6918 80.1416 96.4936 79.9408 96.7028C79.8662 96.7805 79.7514 96.7926 79.6857 96.7296C79.6034 96.6505 79.6682 96.5831 79.8942 96.5124C80.3374 96.3737 80.4826 96.2 80.3009 96.0257C80.2174 95.9455 79.8973 96.0473 79.5836 96.2536C78.9101 96.6967 78.5348 96.5378 78.4861 95.7886C78.4532 95.2824 78.4528 95.282 78.2889 95.5799C78.1638 95.8076 78.0721 95.8278 77.9028 95.6653C77.7807 95.5481 77.5088 95.4297 77.2987 95.4021C76.8069 95.3378 76.6973 95.2343 76.8984 95.0248C76.9873 94.9322 77.0082 94.8066 76.9448 94.7457C76.8813 94.6848 76.7567 94.7108 76.6678 94.8034C76.5789 94.8961 76.4283 94.8971 76.3331 94.8058C76.238 94.7145 76.1117 94.6903 76.0524 94.752C75.9931 94.8138 75.8668 94.7896 75.7716 94.6983C75.6765 94.607 75.6476 94.4813 75.7073 94.4191C75.7718 94.3519 75.6638 94.2703 75.4427 94.219C75.1279 94.1457 75.0756 94.0789 75.1082 93.7918C75.1295 93.6047 75.1138 93.4196 75.0733 93.3807C75.0327 93.3417 74.9144 93.3982 74.8106 93.5061C74.6757 93.6465 74.5106 93.6095 74.2318 93.3762C74.0175 93.1969 73.7431 93.0744 73.6222 93.1041C73.5015 93.1336 73.2224 92.975 73.0021 92.7515C72.7631 92.5091 72.5505 92.3987 72.4746 92.4777C72.232 92.7305 71.5169 92.5676 71.288 92.2075C71.1542 91.9968 71.0234 91.9121 70.9501 91.9884C70.8845 92.0568 70.7123 92.0026 70.5675 91.8677C70.4226 91.7329 70.1051 91.5703 69.8618 91.5064C69.2607 91.3483 68.7968 90.8842 68.7812 90.4252C68.7692 90.0675 68.7596 90.0639 68.6155 90.3622C68.483 90.6365 68.3973 90.6358 67.9751 90.3565C67.707 90.1792 67.4855 89.9711 67.4829 89.8939C67.4803 89.8168 67.2669 89.7485 67.0089 89.7423C66.6866 89.7346 66.3561 89.5674 65.9538 89.2086C65.6313 88.9213 65.2968 88.6992 65.21 88.7149C65.0702 88.7402 64.0198 87.9807 63.4972 87.4764C63.3908 87.3736 63.1724 87.3027 63.012 87.3187C62.8517 87.3348 62.5515 87.1859 62.3451 86.9877C62.1386 86.7895 61.71 86.5241 61.3927 86.3978C61.0754 86.2716 60.3931 85.8531 59.8767 85.4676C59.3601 85.0822 58.6545 84.5943 58.3085 84.3834C57.9627 84.1725 57.5382 83.8093 57.3654 83.5761C57.1597 83.2985 56.8934 83.1206 56.5938 83.0608C56.3422 83.0106 55.9132 82.7568 55.6405 82.4967C55.3678 82.2367 54.8621 81.8917 54.5166 81.7298C53.8884 81.4358 53.5119 81.0789 53.2832 80.5601C53.2161 80.4084 53.2325 80.2669 53.3196 80.2456C53.4066 80.2242 53.3685 80.1596 53.2347 80.1018C53.1009 80.0441 52.953 80.0371 52.9059 80.0862C52.7796 80.2177 51.8854 79.786 51.3159 79.3189C51.0432 79.0951 50.258 78.4328 49.5711 77.8473C48.329 76.7886 48.3234 76.781 48.5621 76.5178C48.798 76.2575 48.7965 76.2554 48.4763 76.3955C48.0556 76.5796 47.6622 76.405 47.515 75.969C47.451 75.7794 47.228 75.5257 47.0196 75.4056C46.5616 75.1416 44.8369 73.5077 44.8311 73.3321C44.8288 73.2634 44.6814 73.1646 44.5037 73.1127C44.2871 73.0493 44.2163 72.9807 44.2892 72.9047C44.3528 72.8384 44.2264 72.6807 43.985 72.525C43.6225 72.2912 43.6068 72.2425 43.8565 72.1266C44.1276 72.0007 44.1226 71.9946 43.7489 71.9956C43.5333 71.9961 43.2273 71.8724 43.0691 71.7205C42.9109 71.5686 42.6308 71.4003 42.4468 71.3464C42.1966 71.2733 42.147 71.2121 42.2505 71.1041C42.3562 70.9935 41.9744 70.5519 40.6267 69.2261C39.6559 68.2709 38.8138 67.3416 38.7512 67.1561C38.6887 66.971 38.5046 66.6918 38.3419 66.5356C38.1376 66.3395 38.1038 66.1901 38.2328 66.0534C38.3921 65.8844 38.3796 65.8644 38.1484 65.9184C37.9362 65.968 37.6565 65.7619 36.8633 64.9717C36.3056 64.4161 35.7942 63.7984 35.7269 63.5987C35.6594 63.3991 35.3455 62.9834 35.029 62.6751C34.645 62.3009 34.4831 62.0423 34.5424 61.898C34.5912 61.779 34.5524 61.6638 34.4564 61.642C34.3604 61.6201 34.1367 61.4014 33.9595 61.1557C33.7108 60.8112 33.6938 60.6791 33.8851 60.5775C34.0816 60.4732 34.0779 60.4556 33.8674 60.4928C33.5549 60.548 32.7854 59.6814 32.0367 58.4313C31.7792 58.0012 31.404 57.4328 31.2029 57.1682C31.0017 56.9034 30.8446 56.5611 30.8537 56.4071C30.8628 56.2534 30.7534 56.0153 30.6106 55.8782C30.4678 55.7411 30.2068 55.3487 30.0307 55.0061C29.8545 54.6636 29.6066 54.3386 29.4795 54.2837C29.2125 54.1686 28.4382 52.7161 28.5703 52.5785C28.6189 52.5278 28.4978 52.393 28.301 52.279C28.1005 52.1626 27.927 51.9437 27.9064 51.7806C27.8861 51.6205 27.7664 51.4089 27.6405 51.3104C27.2449 51.0007 27.2258 50.9131 27.5468 50.8808C27.8204 50.8533 27.8069 50.8272 27.4369 50.6661C27.0896 50.5151 27.0097 50.4007 26.983 50.0169C26.9653 49.7607 26.7837 49.3317 26.5794 49.0638C26.3749 48.7957 26.2447 48.538 26.2899 48.491C26.3349 48.444 26.3033 48.347 26.2197 48.2756C26.136 48.2039 25.8858 47.8919 25.6638 47.5819C25.3817 47.1884 25.3285 47.0113 25.4876 46.9954C25.6494 46.9791 25.573 46.8298 25.2237 46.4801C24.9533 46.2093 24.6812 45.7781 24.619 45.5221C24.5569 45.2659 24.4238 44.9775 24.3234 44.8811C24.0219 44.5917 23.7775 43.7218 23.9479 43.5442C24.0353 43.4532 24.0333 43.3082 23.9434 43.2219C23.8535 43.1356 23.8145 42.9769 23.8566 42.8689C23.9179 42.712 23.9044 42.699 23.7893 42.8043C23.6213 42.9582 23.2487 42.6569 23.4053 42.4937C23.4634 42.4332 23.4146 42.2319 23.2967 42.0464C23.1788 41.861 23.1187 41.6211 23.163 41.513C23.2073 41.4051 23.0739 41.0941 22.8664 40.8221C22.6589 40.5499 22.5107 40.16 22.537 39.9555C22.5631 39.751 22.4898 39.5428 22.374 39.4929C22.246 39.4376 22.2384 39.3165 22.3543 39.1847C22.4594 39.0653 22.4623 39.0036 22.3606 39.0477C22.1323 39.147 21.9146 38.7376 22.0956 38.5491C22.1681 38.4735 22.1545 38.2281 22.0652 38.0037C21.976 37.7793 21.8223 37.3971 21.724 37.1542C21.6256 36.9116 21.5307 36.5534 21.5131 36.3585C21.3923 35.0211 21.3382 34.7045 21.1819 34.4225C21.0443 34.1744 21.0777 34.0609 21.3348 33.9019C21.6671 33.6966 21.604 33.4115 21.2649 33.5854C21.1219 33.6587 21.048 33.5798 20.9276 33.2251C20.8162 32.8971 20.8581 32.6826 21.0784 32.4531C21.3079 32.214 21.3284 32.0823 21.1611 31.9217C21.0389 31.8043 20.9337 31.5577 20.9275 31.3738C20.9213 31.1898 20.8826 31.0071 20.8416 30.9677C20.8005 30.9283 20.7439 30.1944 20.7157 29.3367C20.6876 28.4791 20.6158 27.7307 20.5563 27.6736C20.4968 27.6165 20.4885 27.5278 20.5377 27.4765C20.587 27.4252 20.5625 27.191 20.4832 26.9562C20.404 26.7214 20.4005 26.4653 20.4754 26.3873C20.5503 26.3093 20.5354 26.1082 20.4424 25.9404C20.3094 25.7006 20.3464 25.5902 20.6153 25.4239C21.0116 25.1791 21.0926 24.7079 20.7629 24.5657C20.6371 24.5114 20.5272 24.2078 20.5163 23.8845C20.5054 23.5639 20.448 23.2549 20.3885 23.1977C20.3291 23.1407 20.3844 23.024 20.5116 22.9384C20.6387 22.8526 20.7351 22.6298 20.7262 22.4432C20.7065 22.0364 20.9994 21.6322 21.193 21.799C21.2689 21.8644 21.2583 21.7601 21.1692 21.5673C21.0802 21.3745 21.0815 21.1393 21.1724 21.0446C21.2697 20.9432 21.4467 20.9719 21.6037 21.1146C21.8634 21.3505 21.8659 21.3466 21.6995 20.9571C21.6056 20.7376 21.4485 20.5022 21.3503 20.4341C21.0882 20.2521 21.2033 19.6244 21.532 19.4431C21.7793 19.3067 21.7736 19.2826 21.4886 19.2582C20.9995 19.2163 20.9856 18.8614 21.4594 18.5082C21.7272 18.3084 21.8222 18.1582 21.7321 18.0764C21.266 17.6525 21.2354 17.5166 21.5362 17.2032C21.7139 17.018 21.8004 16.7791 21.7371 16.6476C21.676 16.5208 21.7489 16.2892 21.899 16.1328C22.0696 15.955 22.107 15.7864 21.9988 15.6825C21.8882 15.5764 21.9296 15.4084 22.1137 15.2166C22.272 15.0517 22.4043 14.7461 22.4077 14.5375C22.4111 14.3291 22.5472 14.0045 22.7099 13.8162C22.8728 13.628 23.0153 13.3187 23.0265 13.1288C23.0443 12.8294 23.0981 12.7844 23.4343 12.7889C23.8017 12.7938 23.8039 12.8049 23.4749 13.0004C23.2093 13.1582 23.1942 13.1944 23.4106 13.1544C23.6209 13.1156 23.6573 13.1406 23.5529 13.2522C23.3761 13.4408 23.9121 13.8475 24.1645 13.7161C24.2844 13.6537 24.2551 13.5817 24.0787 13.5056C23.9035 13.43 23.8252 13.2446 23.8529 12.9713C23.8783 12.72 23.7535 12.3957 23.5406 12.1596C23.2275 11.8126 23.2232 11.7435 23.5038 11.57C23.8459 11.3586 23.8979 10.9255 23.614 10.6529C23.4273 10.4737 23.8225 10.086 24.123 10.1535C24.3371 10.2017 24.5375 9.72917 24.5393 9.17237C24.5412 8.52402 24.8413 8.10292 25.3205 8.07554C25.7239 8.05249 25.7268 8.04276 25.4178 7.7461C25.164 7.50247 25.1524 7.41602 25.3608 7.32031C25.5045 7.25439 25.5538 7.20073 25.4703 7.20132C25.1676 7.20347 25.6817 5.98443 26.2695 5.30604C26.6008 4.92399 26.8451 4.5857 26.8125 4.55438C26.7799 4.52294 27.04 4.17071 27.3907 3.77145C27.7414 3.37242 28.0096 2.97464 27.9868 2.8876C27.9253 2.65274 28.6353 1.73462 28.9563 1.63432C29.1204 1.58286 29.3489 1.33167 29.5143 1.02071C29.7734 0.533336 29.8417 0.495377 30.4335 0.511359C30.9826 0.526081 31.082 0.576667 31.1375 0.869111ZM26.5275 8.07934C26.5042 8.10359 26.563 8.19819 26.6581 8.28951C26.7533 8.38084 26.8781 8.4066 26.9355 8.34675C26.9929 8.28702 26.9341 8.19243 26.8049 8.13659C26.6756 8.08086 26.5508 8.05509 26.5275 8.07934ZM25.7745 11.1755C25.7256 11.2246 25.7675 11.2833 25.8675 11.306C25.9676 11.3287 26.1307 11.2611 26.23 11.1558C26.3854 10.9906 26.3726 10.9726 26.137 11.0253C25.9866 11.0589 25.8235 11.1266 25.7745 11.1755ZM24.5979 11.7053C24.5386 11.7671 24.542 11.8674 24.6055 11.9283C24.6689 11.9892 24.7693 11.9885 24.8286 11.9267C24.8878 11.865 24.8844 11.7646 24.821 11.7037C24.7576 11.6429 24.6572 11.6436 24.5979 11.7053ZM23.8115 19.7957C23.713 19.8198 23.7164 19.9201 23.819 20.0186C23.9217 20.1172 24.0221 20.1164 24.0421 20.0171C24.0622 19.9177 24.0588 19.8173 24.0346 19.7941C24.0104 19.7708 23.91 19.7715 23.8115 19.7957ZM22.3312 18.9141C22.2423 19.0067 22.2537 19.1633 22.3566 19.262C22.5099 19.4091 22.547 19.3864 22.5619 19.1355C22.5718 18.967 22.5604 18.8104 22.5365 18.7875C22.5125 18.7645 22.4201 18.8214 22.3312 18.9141ZM22.6459 19.9712C22.5866 20.033 22.5931 20.1363 22.6602 20.2007C22.7274 20.2651 22.7988 20.2366 22.8189 20.1373C22.839 20.0379 22.8326 19.9346 22.8045 19.9078C22.7765 19.8808 22.7052 19.9095 22.6459 19.9712ZM23.1348 20.7628C23.0827 20.8901 23.1218 21.0127 23.2222 21.0355C23.3343 21.0609 23.3799 20.9819 23.3407 20.8302C23.255 20.4991 23.2446 20.4956 23.1348 20.7628ZM22.3927 20.9275C22.3004 21.0237 22.3065 21.1211 22.4066 21.1438C22.5067 21.1665 22.6341 21.1376 22.69 21.0795C22.7458 21.0213 22.7395 20.924 22.6761 20.8631C22.6126 20.8022 22.4851 20.8312 22.3927 20.9275ZM95.8949 92.374C95.9788 92.5089 95.9943 92.6743 95.9295 92.7418C95.8647 92.8093 95.872 92.8641 95.9456 92.8636C96.1684 92.862 96.1712 92.4889 95.9498 92.3031C95.7627 92.1461 95.7573 92.153 95.8949 92.374ZM96.9353 94.8421C96.8829 94.9698 96.8549 95.0885 96.873 95.1059C96.8911 95.1233 97.0086 95.0904 97.1341 95.0329C97.2717 94.9697 97.2964 94.865 97.1964 94.7691C97.0964 94.6731 96.9928 94.702 96.9353 94.8421ZM89.0201 87.2442C88.7659 87.2697 88.7538 87.3121 88.9474 87.498C89.0752 87.6206 89.2824 87.6739 89.4078 87.6164C89.541 87.5552 89.5712 87.4496 89.4806 87.3626C89.3953 87.2807 89.1881 87.2274 89.0201 87.2442ZM20.9942 22.269C20.8943 22.2934 20.9336 22.4251 21.083 22.5668C21.2987 22.771 21.3376 22.7669 21.2825 22.5457C21.1974 22.2048 21.2094 22.2163 20.9942 22.269ZM87.8142 87.5459C87.8206 87.7349 87.8692 87.7508 88.006 87.6083C88.1067 87.5033 88.2442 87.4702 88.3113 87.5346C88.3784 87.5991 88.45 87.57 88.4702 87.4697C88.4929 87.3577 88.3722 87.2886 88.1563 87.2903C87.8945 87.292 87.8078 87.357 87.8142 87.5459ZM98.5339 97.4777C98.5364 97.5517 98.6321 97.6513 98.7463 97.6987C98.8727 97.7512 98.871 97.6983 98.7418 97.564C98.6249 97.4425 98.5314 97.4037 98.5339 97.4777ZM103.08 102.143C103.021 102.205 103.024 102.305 103.088 102.366C103.151 102.427 103.252 102.426 103.311 102.364C103.37 102.303 103.367 102.202 103.303 102.141C103.24 102.08 103.139 102.081 103.08 102.143ZM88.5531 88.7511C88.5673 89.1736 88.6642 89.1085 88.7624 88.6099C88.8017 88.4108 88.7679 88.2816 88.6875 88.3231C88.6069 88.3646 88.5465 88.5571 88.5531 88.7511ZM88.0276 88.813C87.9785 88.9378 88.0314 88.9375 88.1625 88.812C88.281 88.6984 88.3174 88.606 88.2433 88.6065C88.1693 88.6071 88.0721 88.7 88.0276 88.813ZM91.7078 92.2924C91.652 92.3506 91.5246 92.3795 91.4245 92.3568C91.3244 92.3341 91.3182 92.2367 91.4106 92.1404C91.503 92.0442 91.6305 92.0152 91.6939 92.0761C91.7574 92.137 91.7637 92.2343 91.7078 92.2924ZM97.0814 97.7742C97.0552 97.8015 97.0558 97.9047 97.0826 98.0038C97.1094 98.1028 97.1827 98.1303 97.2454 98.065C97.3082 97.9996 97.3077 97.8962 97.2443 97.8354C97.1808 97.7745 97.1076 97.7469 97.0814 97.7742ZM89.8889 91.0174C89.7369 91.019 89.6107 90.9641 89.6085 90.8956C89.6062 90.8269 89.7305 90.8256 89.8847 90.8925C90.1074 90.9894 90.1084 91.0149 89.8889 91.0174ZM77.2127 91.1196C77.1142 91.1437 77.0855 91.2133 77.149 91.2742C77.2124 91.335 77.3448 91.3651 77.4433 91.341C77.5418 91.3169 77.5705 91.2473 77.507 91.1864C77.4436 91.1255 77.3112 91.0955 77.2127 91.1196ZM26.3744 47.3219C26.3253 47.4467 26.3782 47.4463 26.5093 47.3209C26.6278 47.2073 26.6642 47.1149 26.5901 47.1154C26.5161 47.1159 26.4189 47.2089 26.3744 47.3219ZM29.4605 51.0212C29.463 51.0952 29.5586 51.1948 29.6729 51.2422C29.7993 51.2947 29.7975 51.2418 29.6684 51.1075C29.5514 50.986 29.458 50.9472 29.4605 51.0212ZM28.4089 49.9767C28.2952 50.0951 28.4687 50.3574 28.6341 50.3168C28.7341 50.2923 28.7351 50.1946 28.6362 50.0997C28.5374 50.0049 28.4351 49.9494 28.4089 49.9767ZM40.2159 62.723C40.1146 62.7478 40.1427 62.811 40.2821 62.8713C40.5535 62.9883 40.6673 62.9429 40.5015 62.7837C40.4418 62.7264 40.3133 62.6991 40.2159 62.723ZM85.322 108.409C85.2 108.536 85.1783 108.658 85.274 108.68C85.3697 108.701 85.49 108.617 85.5412 108.492C85.6726 108.172 85.5822 108.138 85.322 108.409ZM38.0983 62.85C37.9998 62.8741 38.0002 62.9716 38.099 63.0664C38.1979 63.1613 38.3273 63.1885 38.3866 63.1267C38.4459 63.065 38.4456 62.9676 38.3859 62.9103C38.3261 62.8529 38.1968 62.8259 38.0983 62.85ZM84.3978 108.323C84.3979 108.471 84.9145 108.585 84.9432 108.444C84.961 108.356 84.8455 108.279 84.6867 108.274C84.5278 108.269 84.3978 108.291 84.3978 108.323ZM83.7742 108.636C83.7149 108.698 83.6114 108.696 83.5443 108.631C83.4772 108.567 83.5027 108.494 83.6012 108.47C83.6997 108.446 83.8031 108.448 83.8311 108.475C83.8591 108.502 83.8335 108.575 83.7742 108.636ZM45.6534 73.0994C45.6004 73.1545 45.6054 73.2999 45.6643 73.4225C45.7359 73.5715 45.802 73.5711 45.8635 73.4211C45.964 73.1763 45.8083 72.9379 45.6534 73.0994ZM47.6248 75.6621C47.5656 75.7239 47.569 75.8242 47.6324 75.8851C47.6958 75.946 47.7962 75.9453 47.8555 75.8835C47.9148 75.8218 47.9114 75.7214 47.8479 75.6606C47.7845 75.5997 47.6841 75.6004 47.6248 75.6621ZM83.269 110.548C83.114 110.709 83.3585 110.855 83.599 110.744C83.7463 110.677 83.7441 110.611 83.5923 110.545C83.4674 110.491 83.3219 110.493 83.269 110.548ZM82.6821 110.971C82.5678 110.924 82.4721 110.825 82.4696 110.75C82.4671 110.676 82.5606 110.715 82.6775 110.837C82.8067 110.971 82.8085 111.024 82.6821 110.971Z" fill="#7B6C64"/>
</svg>
