<svg width="440" height="491" viewBox="0 0 440 491" fill="none" xmlns="http://www.w3.org/2000/svg">
<g clip-path="url(#clip0)">
<path d="M432.161 232.455C425.404 208.898 414.053 187.066 399.728 167.819C391.891 157.477 383.782 147.71 374.863 139.092C388.377 129.325 411.891 137.368 426.755 134.495C431.891 133.634 429.728 125.303 424.593 126.165C408.377 129.325 386.215 122.143 371.62 131.048C380.269 115.823 395.674 106.056 412.972 105.768C418.107 105.768 418.107 97.1502 412.972 97.1502C400.269 97.4375 388.377 102.034 378.918 109.79C381.08 101.172 382.161 91.6921 382.701 81.6376C382.972 76.1795 374.864 76.1795 374.593 81.6376C373.512 98.5866 371.62 114.674 362.161 127.314L361.891 127.026C369.188 106.63 366.485 79.6268 348.647 69.5723C344.053 66.9869 339.999 74.4559 344.593 77.0413C358.107 84.5104 359.999 105.481 355.134 121.855C352.701 120.132 350.269 118.408 347.566 116.685C300.809 88.5321 244.593 82.4995 192.431 90.2558C179.728 90.8303 167.026 92.8412 154.593 95.4266C138.647 98.5866 122.972 102.896 108.107 110.077C93.5122 116.972 81.0797 127.888 69.4581 139.379C58.377 150.583 47.8365 162.361 38.377 175.288C20.8095 199.706 8.37704 227.858 2.97164 258.022C1.07975 270.087 0.268937 282.152 0.539208 294.218C-0.812144 311.741 -0.00133301 329.265 2.97164 346.788C7.8365 374.653 19.1879 400.795 36.2149 422.34C54.8635 445.896 80.2689 462.558 107.026 473.474C144.053 488.7 185.404 492.434 225.674 488.987C227.296 489.274 228.918 489.274 230.539 489.561C261.35 492.721 292.701 489.561 321.62 477.496C348.107 466.293 371.891 447.907 390.539 424.926C399.728 413.435 407.296 401.082 413.242 387.581C415.945 382.697 418.647 377.813 421.08 372.93C441.891 329.552 445.134 278.705 432.161 232.455ZM344.323 121.855C347.026 123.579 349.999 125.59 352.701 127.314C351.62 129.612 350.539 131.623 349.188 133.634C327.296 118.696 302.701 108.641 277.026 103.183C274.593 102.321 272.161 101.459 269.728 100.885C258.377 97.4375 246.755 94.5648 235.134 92.8412C273.242 93.1285 311.62 102.034 344.323 121.855ZM86.4851 131.335C99.9987 119.845 115.674 112.088 132.431 106.917H132.701C125.945 109.79 119.458 112.95 112.972 116.397C100.269 123.292 88.6473 131.91 77.0257 140.528C75.9446 141.39 74.5933 142.252 73.5122 143.401C77.8365 139.092 82.1608 135.07 86.4851 131.335ZM33.2419 200.28C48.377 168.968 75.1338 147.71 102.701 129.612C125.404 114.386 151.35 104.907 177.566 99.1611C182.161 98.2993 186.755 97.1502 191.35 96.5757C199.728 96.2884 208.107 96.2884 216.485 96.863C219.999 97.1502 223.512 97.4375 227.296 98.0121C218.647 98.0121 209.999 98.2993 201.62 98.8739C175.945 101.172 150.539 107.492 127.026 118.408C99.7284 131.048 71.35 149.146 52.7014 174.426C42.9716 187.928 35.6743 203.153 28.9176 218.666C22.9716 232.167 17.8365 245.956 14.5933 260.607C10.2689 279.28 8.37704 298.527 9.45813 317.774C8.10677 310.305 7.02569 302.548 6.75542 294.792C9.18786 261.756 18.9176 229.295 33.2419 200.28ZM157.837 480.943C98.377 472.038 41.0797 439.002 17.296 377.813C11.35 362.875 7.8365 347.075 6.48515 331.276C7.8365 336.446 9.7284 341.617 11.6203 346.501C12.7014 348.799 13.5122 351.384 14.5933 353.683C29.9987 410.849 76.4852 449.056 128.918 466.58C140.809 470.602 153.242 473.474 165.674 475.198C175.674 478.645 186.215 481.518 196.485 483.816C183.512 483.816 170.539 482.954 157.837 480.943ZM35.1338 387.868C43.2419 398.784 52.7014 408.839 62.7014 418.031C81.6203 434.98 102.701 448.194 125.134 458.824C120.539 457.1 115.945 455.376 111.62 453.653C83.2419 441.3 57.0257 421.478 39.1879 394.762C37.8365 392.464 36.4852 390.166 35.1338 387.868ZM338.377 462.558C313.782 477.209 286.485 483.816 258.647 484.678C267.566 483.241 276.215 481.231 284.593 479.22C313.512 472.038 341.891 459.973 366.215 441.3C368.377 439.576 370.539 437.853 372.431 436.129C362.161 446.471 350.809 455.376 338.377 462.558ZM408.647 383.559C391.891 412.286 367.566 436.129 338.918 451.929C311.35 467.154 280.809 475.198 250.539 479.794C241.62 481.231 232.701 482.092 223.782 482.954C215.674 481.805 207.296 480.369 199.188 478.645C205.404 478.932 211.62 479.22 217.837 479.22C248.377 479.22 279.458 475.198 308.647 465.143C360.269 447.333 401.62 405.966 419.728 351.959C417.026 362.588 413.242 373.504 408.647 383.559ZM418.647 335.01C411.35 366.035 395.404 394.475 374.053 416.882C352.161 439.864 324.323 454.514 294.864 463.133C264.593 472.038 232.701 474.049 201.35 472.9C189.728 472.325 178.107 471.463 166.755 469.452C161.35 467.729 155.945 465.718 150.809 463.707C122.161 452.504 94.8635 437.853 70.8095 417.744C49.7284 399.933 32.1608 378.101 20.2689 352.534C16.4852 338.457 14.5933 324.381 14.323 310.305C13.5122 279.28 21.35 249.403 33.5122 221.538C40.5392 205.164 48.1068 189.364 58.6473 175.288C69.1879 161.499 82.7014 150.87 97.0257 141.677C120.809 126.452 145.674 114.961 172.972 108.928C199.999 102.896 228.107 102.321 255.674 105.768C262.431 106.63 269.188 107.779 276.215 109.216C282.161 111.226 288.377 113.525 294.053 116.11C332.161 131.91 368.377 157.764 392.701 193.386C408.377 216.655 418.377 245.094 422.701 273.821C424.593 293.93 423.242 314.901 418.647 335.01ZM428.647 335.585C429.728 328.977 430.539 322.083 430.809 315.188C431.62 301.974 430.539 288.76 428.647 275.832C427.296 259.745 423.782 243.658 418.647 228.72C408.107 198.844 390.269 170.117 367.566 148.572C367.836 148.284 368.107 147.71 368.377 147.423C369.188 145.699 369.999 144.263 371.08 143.113C387.566 158.913 401.35 177.586 412.161 197.982C428.377 228.145 435.674 263.192 434.323 297.665C433.782 310.305 431.891 323.232 428.647 335.585Z" fill="#917171"/>
<path d="M181.621 212.061C172.162 222.402 162.702 231.595 150 237.053C138.108 242.224 124.865 243.66 112.162 245.097C107.027 245.671 107.027 254.289 112.162 253.715C122.702 252.566 133.243 251.129 143.513 248.257C140 260.322 146.216 273.249 158.648 275.835C173.513 278.995 177.297 258.598 172.162 247.682C170.54 244.235 167.297 241.362 163.784 239.351C172.432 233.606 180 225.85 187.297 218.093C191.081 214.071 185.135 208.039 181.621 212.061Z" fill="#917171"/>
<path d="M322.703 219.817C302.973 218.955 278.108 219.242 264.325 202.006C260.811 197.697 255.136 204.017 258.649 208.039C264.865 215.508 272.703 220.104 281.352 222.977C280.541 224.126 279.73 225.562 279.19 226.424C276.487 231.308 276.217 237.34 277.298 242.798C279.46 254.576 292.433 260.035 302.163 256.013C312.163 251.991 315.676 239.064 311.352 229.297C311.081 228.722 310.811 228.148 310.541 227.573C314.595 227.86 318.919 227.86 322.703 228.148C328.109 228.722 327.838 220.104 322.703 219.817Z" fill="#917171"/>
<path d="M326.216 314.903C325.676 316.34 311.622 313.467 308.649 319.5C306.757 323.522 305.946 327.256 305.135 331.565C302.703 343.631 288.649 337.023 281.622 335.587C273.784 334.151 266.216 339.034 262.162 345.641C258.108 351.674 255.406 358.569 251.081 364.601C243.244 375.23 233.514 366.038 226.757 360.005C208.919 343.918 198.379 361.729 181.622 368.336C169.73 372.932 159.189 343.918 150.271 337.885C143.784 333.576 135.946 335.587 130.541 340.758C126.757 344.492 132.433 350.525 136.216 346.79C148.919 334.438 158.919 367.761 167.838 373.507C175.676 378.39 182.433 378.103 190.271 373.794C195.135 371.208 199.189 367.187 203.784 364.314C212.703 358.569 219.46 364.889 225.946 370.634C232.433 376.667 238.108 379.539 246.487 378.103C255.676 376.667 261.352 364.027 265.135 356.558C270.811 345.354 279.73 343.343 290.541 346.79C295.135 348.227 299.46 347.94 303.784 346.79C311.352 344.78 312.973 334.151 314.325 327.543C315.406 321.798 325.676 325.532 329.189 323.522C332.433 321.511 332.973 320.649 334.325 316.914C335.676 311.744 327.838 309.445 326.216 314.903Z" fill="#917171"/>
<path d="M331.352 271.526C327.298 271.813 323.784 272.387 320 273.536C311.352 274.685 303.784 278.707 297.568 285.889C295.406 288.474 296.757 293.645 300.541 293.358C313.244 292.496 324.595 287.613 334.325 278.995C336.757 276.409 334.595 271.238 331.352 271.526Z" fill="#917171"/>
<path d="M153.243 293.645C150 287.325 141.622 288.475 135.946 288.762C132.703 289.049 128.919 289.049 125.676 289.911C120.811 290.485 116.487 293.071 113.514 297.667C111.622 300.54 114.324 303.987 117.027 304.274C121.622 304.849 160.27 306.86 153.243 293.645Z" fill="#917171"/>
</g>
<path d="M282.441 28.375C285.814 27.6094 288.102 27.3815 289.305 27.6914C290.526 27.9831 291.173 28.4844 291.246 29.1953C291.319 29.888 290.827 30.9727 289.77 32.4492C286.871 34.8372 284.483 35.7122 282.605 35.0742L281.512 34.5273C280.819 33.6706 281.102 32.2578 282.359 30.2891C281.083 30.7995 279.743 31.4193 278.34 32.1484C274.785 34.026 272.889 35.6029 272.652 36.8789C271.613 38.957 272.224 39.9505 274.484 39.8594C287.135 37.4167 293.388 36.7331 293.242 37.8086C281.922 40.5794 275.223 41.9102 273.145 41.8008C271.066 41.6914 270.018 41.1536 270 40.1875C269.326 37.8359 270.383 35.4753 273.172 33.1055C275.979 30.7174 279.069 29.1406 282.441 28.375ZM282.332 30.3984C283.717 30.3984 284.674 30.8724 285.203 31.8203C281.266 33.6979 281.311 34.2904 285.34 33.5977C287.072 32.6497 288.22 31.7383 288.785 30.8633C289.35 29.9701 289.004 29.5052 287.746 29.4688C286.507 29.4141 284.702 29.724 282.332 30.3984ZM294.008 28.293L320.312 28.8125C321.023 29.3047 320.96 29.8151 320.121 30.3438C319.283 30.8724 316.193 31.0638 310.852 30.918L306.285 30.8086C305.118 30.8815 302.083 30.5716 297.18 29.8789C298.583 31.3919 299.285 33.8438 299.285 37.2344C303.277 34.0807 306.076 32.5039 307.68 32.5039C308.336 32.5586 308.518 32.9049 308.227 33.543L296.66 41.9648C295.931 41.9466 295.576 41.6003 295.594 40.9258L297.18 38.8203C297.18 33.9167 295.776 30.5807 292.969 28.8125C292.914 28.3568 293.26 28.1836 294.008 28.293ZM329.801 28.1562C330.803 27.8099 331.368 28.1107 331.496 29.0586C328.743 31.0456 327.276 32.3398 327.094 32.9414L327.012 33.1055L328.926 32.2852C333.21 30.8086 336.928 30.1797 340.082 30.3984C340.72 30.4167 340.957 30.8542 340.793 31.7109C339.007 33.388 337.512 34.6549 336.309 35.5117C330.712 38.7565 328.47 40.3607 329.582 40.3242L332.316 39.9688L339.289 38.793C341.422 38.556 341.951 38.7656 340.875 39.4219C339.799 40.0599 338.104 40.5794 335.789 40.9805C333.492 41.3633 331.341 41.6914 329.336 41.9648C327.969 42.0742 327.176 41.974 326.957 41.6641C326.738 41.3542 326.811 40.8893 327.176 40.2695C327.54 39.6315 329.436 38.0365 332.863 35.4844C334.303 34.6458 335.297 34.0443 335.844 33.6797C336.391 33.2969 337.129 32.7409 338.059 32.0117L336.5 32.2031C328.826 33.4062 325.016 34.9557 325.07 36.8516C325.38 39.6589 323.22 41.181 318.59 41.418C317.296 41.3268 316.548 41.026 316.348 40.5156C316.147 40.0052 316.211 39.4766 316.539 38.9297C320.513 35.0833 324.934 31.4922 329.801 28.1562ZM319.027 38.3281C318.207 39.1484 317.897 39.6771 318.098 39.9141C318.316 40.1328 319.018 40.1328 320.203 39.9141C322.901 39.5495 323.967 38.2734 323.402 36.0859C323.038 35.6667 322.418 35.7305 321.543 36.2773C320.686 36.8242 319.848 37.5078 319.027 38.3281ZM350.5 7.64844L352.961 7.78516L355.039 8.03125L357.145 8.33203C358.348 8.55078 359.879 8.89714 361.738 9.37109C365.694 10.6654 368.474 12.5247 370.078 14.9492C371.701 17.3555 372.493 19.0872 372.457 20.1445C372.457 27.2357 365.348 33.4518 351.129 38.793C346.772 40.7253 343.546 41.6914 341.449 41.6914C340.137 41.5638 339.754 40.7161 340.301 39.1484C345.861 31.5469 351.311 27.7461 356.652 27.7461C358.548 27.7461 359.496 29.2227 359.496 32.1758H360.617C367.016 28.8398 370.215 25.2487 370.215 21.4023C370.762 20.5091 369.96 18.5404 367.809 15.4961C365.676 12.4336 360.909 10.638 353.508 10.1094C346.125 9.5625 339.198 9.58984 332.727 10.1914C323.904 12.069 319.492 14.1198 319.492 16.3438C318.326 17.401 317.751 17.1823 317.77 15.6875C320.23 10.6198 327.941 7.95833 340.902 7.70312L346.371 7.51172L350.5 7.64844ZM345.523 35.375C341.586 39.1849 342.643 40.0599 348.695 38C354.766 35.9219 357.801 33.7708 357.801 31.5469V30.918C357.181 29.569 356.051 29.1406 354.41 29.6328C352.441 29.6328 349.479 31.5469 345.523 35.375Z" fill="#7B6C64"/>
<defs>
<clipPath id="clip0">
<rect width="440" height="422" fill="white" transform="translate(0 69)"/>
</clipPath>
</defs>
</svg>
