<svg width="573" height="520" viewBox="0 0 573 520" fill="none" xmlns="http://www.w3.org/2000/svg">
<g clip-path="url(#clip0)">
<path d="M439.712 304.298C438.56 287.202 436.256 269.535 429.345 253.579C427.617 249.874 425.89 246.17 423.874 242.466C417.251 223.09 407.46 204.853 394.502 188.042C384.424 175.219 373.769 162.682 360.235 153.279C346.989 143.876 331.727 137.892 317.042 131.623C301.78 125.354 285.654 121.08 269.24 119.656C258.01 118.516 246.78 119.086 235.549 119.941C202.146 115.096 167.591 117.661 135.052 126.494C107.12 133.903 81.7798 147.295 61.3347 167.526C50.1044 178.639 40.0258 191.461 31.3871 205.138C22.7483 199.155 20.1567 188.042 20.7326 178.069C21.3085 160.972 33.4028 144.161 50.6803 141.026C52.408 140.741 51.8321 137.892 49.8164 138.177C32.8269 141.311 21.8845 155.558 18.429 171.515C15.2614 185.762 19.5808 198.87 29.9473 206.848C23.3243 217.676 17.5651 228.789 13.2457 240.471C-2.87993 281.788 -4.60768 329.943 9.79023 372.685C10.0782 373.824 10.3661 374.964 10.6541 376.104C27.0677 433.377 71.4133 484.097 129.005 502.903C149.738 509.457 171.335 512.306 192.932 512.306C213.089 517.435 233.534 520.855 254.555 520.285C280.471 519.715 306.099 512.876 329.136 501.194C360.523 485.237 386.151 459.592 405.157 430.243C430.209 392.061 442.303 349.319 439.712 304.298ZM42.0415 225.939C44.6332 221.95 47.2248 218.246 50.1044 214.541C68.2457 217.106 88.1148 212.832 104.816 207.988C128.429 201.149 150.602 190.036 172.199 178.924C173.926 178.069 172.487 175.504 170.759 176.359C135.628 194.026 99.0572 212.262 58.7431 211.977C56.4394 211.977 54.4237 211.977 52.1201 211.692C68.8216 191.176 91.5703 175.219 114.607 162.967C146.282 146.44 181.125 138.462 216.544 137.892C245.628 137.322 276.151 137.892 304.371 146.725C318.769 152.994 332.591 160.117 345.837 167.526C347.565 168.381 349.293 169.521 350.733 170.375C355.34 173.51 359.659 176.929 363.979 180.063C380.392 192.601 391.623 209.128 401.125 227.364C416.963 258.423 423.01 291.191 420.706 325.954C418.691 352.454 412.068 378.383 399.973 402.319C375.497 450.474 329.424 480.963 276.151 489.796C223.455 498.344 164.136 498.914 114.607 476.689C100.785 469.565 87.8269 461.302 75.7326 451.899C36.5703 417.421 15.5494 362.997 17.2771 311.707C18.429 282.073 26.4918 251.014 42.0415 225.939ZM331.151 144.161C342.382 149.29 353.324 154.988 362.827 162.682C372.905 170.66 381.256 180.918 389.031 191.176C391.911 194.88 394.502 198.585 397.094 202.574C385.288 188.042 371.178 176.074 355.34 166.386C349.581 162.682 343.822 158.978 338.062 155.558C327.696 149.29 317.042 144.731 306.099 141.311C291.413 135.042 276.439 129.344 260.89 125.354C285.942 125.924 308.691 134.188 331.151 144.161ZM235.261 125.924C239.581 126.494 243.9 127.349 248.22 128.204C255.994 129.629 263.481 131.623 270.968 133.903C264.345 133.048 258.01 132.763 251.387 132.478C217.696 130.768 184.869 131.908 152.617 141.311C152.905 141.311 152.905 141.026 153.193 141.026C171.047 135.327 189.476 132.193 207.905 129.344C217.12 127.919 226.047 126.779 235.261 125.924ZM136.492 132.193C158.953 125.924 182.565 123.075 206.178 123.645C176.518 127.919 147.722 134.758 120.366 147.865C91.5703 161.827 65.9421 181.773 44.9211 205.708C43.7693 207.133 42.6175 208.273 41.4656 209.697C39.7379 209.128 38.0101 208.558 36.2824 207.703C43.4813 196.59 51.5442 186.047 60.7588 176.359C81.4918 154.134 107.696 140.171 136.492 132.193ZM35.1305 209.982C36.5703 210.837 38.2981 211.407 39.7379 211.977C29.3714 224.799 21.0206 238.762 14.9735 253.864C19.5808 238.477 26.4918 223.945 35.1305 209.982ZM14.6855 367.556C14.3976 366.416 14.1096 364.991 13.8216 363.851C6.62269 333.647 7.48656 299.739 15.5494 269.82C18.141 260.132 21.8845 251.014 26.7798 242.181C11.518 276.659 7.48656 316.551 14.3976 353.024C18.141 372.97 25.34 392.346 35.1305 410.012C26.2038 396.905 19.5808 382.658 14.6855 367.556ZM134.476 498.059C97.6174 487.516 66.518 463.011 44.6332 431.953C54.4237 442.78 65.3661 452.184 77.1724 460.732C88.6908 469.85 101.361 477.544 115.183 483.242C132.172 491.506 149.738 498.629 167.303 504.328C156.073 503.188 145.131 501.194 134.476 498.059ZM192.068 505.753C181.989 503.188 171.911 500.054 161.832 496.635C176.806 499.199 192.068 500.339 207.042 500.624C224.319 500.909 241.884 500.339 259.45 498.059C249.083 500.339 238.717 502.049 228.35 503.188C216.544 504.898 204.45 505.753 192.068 505.753ZM360.811 472.699C320.497 507.462 267.801 520 215.968 511.167C248.507 508.317 281.047 500.054 310.706 489.796C349.869 476.404 382.984 451.899 405.157 418.845C393.638 438.791 378.665 457.313 360.811 472.699ZM423.01 364.421C416.963 387.502 406.596 408.587 392.199 426.824C397.958 418.845 403.141 410.297 407.46 401.464C419.267 377.529 425.026 351.029 427.042 324.529C429.345 291.761 423.298 260.417 409.764 230.783C412.932 235.627 415.811 240.471 418.691 245.6C423.01 257.853 425.89 270.39 427.617 283.498C430.785 310.282 429.921 337.922 423.01 364.421Z" fill="#917171"/>
<path d="M195.523 274.095C186.884 258.708 163.559 247.595 146.282 251.584C129.58 255.573 130.732 280.078 139.659 290.051C149.449 300.879 170.758 306.578 175.941 287.772C179.397 275.804 161.831 266.686 158.664 280.363C157.8 283.498 160.392 285.492 162.695 285.777C154.057 291.191 147.721 289.766 143.978 281.218C137.643 267.541 143.402 260.417 160.392 260.132C168.742 262.127 177.381 267.541 183.428 273.24C203.873 292.046 185.444 315.126 162.407 316.266C144.554 317.121 129.58 303.159 120.653 288.912C115.182 280.078 118.638 270.105 121.517 261.272C123.245 256.143 132.748 232.493 141.962 237.622C146.858 240.186 151.177 233.063 146.282 230.213C130.444 221.38 119.502 242.751 114.894 254.433C105.968 277.229 109.423 294.04 127.852 310.567C141.386 323.105 164.423 328.803 181.701 319.97C200.706 310.852 205.889 292.616 195.523 274.095Z" fill="#917171"/>
<path d="M316.177 239.901C306.962 229.358 291.125 223.09 278.455 231.923C266.072 240.186 273.559 259.277 282.198 266.971C290.837 274.664 306.674 269.25 306.674 256.998C306.674 244.745 291.413 244.745 288.533 255.288C288.533 255.573 288.533 255.858 288.245 256.143C286.517 255.858 284.79 255.573 283.35 255.288C278.455 247.025 280.758 240.756 290.261 236.197C296.596 235.342 302.931 239.331 307.538 243.036C314.161 248.735 315.025 258.138 313.585 266.116C310.994 279.223 296.308 281.788 285.366 279.793C252.538 273.525 256.858 213.117 290.837 215.111C296.308 215.396 296.308 206.848 290.837 206.563C272.983 205.423 261.177 220.525 255.706 235.912C249.659 252.439 256.57 270.675 269.528 281.503C280.182 290.336 300.051 292.331 311.57 283.213C324.528 272.955 327.407 252.439 316.177 239.901Z" fill="#917171"/>
<path d="M343.822 322.82C332.015 324.814 323.089 330.798 315.026 338.776C304.659 349.319 298.324 344.19 287.094 340.201C281.623 338.207 276.439 337.352 270.392 337.352C261.753 337.067 251.675 340.771 245.34 346.185C233.534 355.873 226.335 376.674 207.905 374.109C194.947 372.4 154.057 357.583 153.193 382.373C152.905 387.787 161.544 387.787 161.832 382.373C162.408 367.841 207.041 384.937 216.256 382.658C230.078 379.238 236.701 367.556 245.628 357.298C253.115 348.749 263.481 345.615 274.424 345.9C284.214 346.185 292.853 353.309 302.356 354.733C306.387 355.303 311.57 353.593 314.738 351.029C323.376 343.051 329.999 335.357 341.806 331.653C351.308 328.803 360.235 333.363 365.706 340.771C373.769 351.884 360.811 361.002 353.036 364.136C343.534 368.126 331.151 366.131 321.073 366.131C302.931 365.846 286.806 373.539 270.968 380.948C249.083 391.206 225.759 406.023 200.418 401.179C193.219 399.754 186.884 399.184 179.397 400.609C174.79 401.464 170.183 403.173 165.863 404.598C164.424 405.168 162.984 405.453 161.256 406.023C151.178 410.012 149.738 406.593 156.937 396.05C162.408 396.62 162.408 388.072 156.937 387.502C140.811 386.077 128.429 404.313 144.555 414.286C152.329 419.13 165.287 414.001 172.774 411.437C183.429 408.017 191.78 408.302 203.01 410.582C208.481 411.722 214.816 411.437 220.575 410.582C254.267 404.313 281.911 377.814 316.178 375.249C333.743 373.824 369.738 380.093 375.497 355.018C379.24 336.782 362.539 319.685 343.822 322.82Z" fill="#917171"/>
<path d="M84.3702 121.935C82.3545 119.94 80.0508 117.946 78.0351 115.951C78.899 113.957 79.7628 111.392 81.2026 109.683C82.0665 109.398 82.6424 108.828 83.5063 107.973C87.5377 104.554 82.3545 99.4246 78.323 101.134C76.8833 101.704 76.0194 102.559 74.8675 103.699C73.1398 105.123 71.1241 106.263 69.1084 107.403C66.2288 104.554 63.0613 101.704 60.1817 98.8547C57.0141 96.0053 51.8309 98.8547 52.9827 103.129C53.5586 105.978 54.4225 108.828 54.9984 111.677C54.1346 111.677 53.2707 111.962 52.4068 111.962C47.5115 112.247 46.6476 118.801 51.255 120.225C53.8466 121.08 56.4382 121.935 59.0298 122.505C57.878 127.064 57.878 131.623 59.0298 136.467C59.8937 139.886 65.3649 140.741 66.8047 137.607C68.5325 133.903 70.5482 130.198 72.2759 126.494C74.8675 127.349 77.4592 127.919 80.0508 128.774C84.3702 130.198 87.5377 125.069 84.3702 121.935Z" fill="#917171"/>
<path d="M439.135 152.709C437.119 150.429 435.103 148.15 432.799 145.585C433.663 143.591 434.527 141.311 435.103 139.317C436.543 135.612 431.936 132.763 428.768 134.473C427.328 135.042 426.176 135.897 424.737 136.467C423.009 134.473 421.281 132.478 419.841 130.483C416.962 127.064 411.491 130.768 412.642 134.758C413.218 136.752 413.794 138.747 414.37 141.026C410.339 142.166 406.019 143.021 401.412 142.736C396.517 142.451 395.365 150.429 400.26 150.999C406.595 151.854 412.642 153.279 418.689 154.704C418.977 155.273 418.977 155.558 419.265 156.128C418.402 158.123 417.538 160.117 416.386 162.112C415.81 162.682 415.522 163.252 415.234 163.822C414.658 164.961 414.37 166.101 413.794 167.526C412.066 172.085 419.553 175.219 421.569 170.945C423.873 166.671 425.888 162.112 427.616 157.838C429.92 158.693 432.224 159.263 434.527 160.402C439.135 161.542 441.726 155.558 439.135 152.709Z" fill="#917171"/>
<path d="M390.47 133.048C376.648 122.505 362.826 112.247 346.701 105.693C329.423 98.5699 311.282 99.4247 293.428 102.274C291.701 102.559 292.276 105.409 294.292 105.124C312.146 102.559 329.135 102.274 346.125 108.543C361.674 114.527 375.496 125.07 388.454 135.327C389.894 136.182 391.91 134.188 390.47 133.048Z" fill="#917171"/>
<path d="M165.288 335.642C162.984 336.782 160.968 337.922 158.665 339.061C158.377 339.061 157.801 338.776 157.225 339.061C148.874 339.916 142.539 343.62 137.356 350.174C134.764 353.309 139.084 357.013 142.251 356.443C142.827 356.158 143.691 356.158 144.267 355.873C145.419 356.158 146.283 355.873 147.434 355.303C147.722 355.303 147.722 355.018 148.01 355.018C156.361 352.454 163.848 348.464 170.471 342.766C174.214 339.061 169.319 333.363 165.288 335.642Z" fill="#917171"/>
<path d="M334.606 288.912C332.878 288.627 331.439 288.627 329.999 288.912C329.135 288.342 327.983 288.342 326.543 288.627C320.496 290.906 315.025 294.325 310.418 299.169C307.826 301.734 309.554 306.293 313.585 306.578C322.8 306.578 331.439 302.874 337.774 296.32C340.365 293.186 338.35 289.197 334.606 288.912Z" fill="#917171"/>
</g>
<path d="M271.441 36.375C274.814 35.6094 277.102 35.3815 278.305 35.6914C279.526 35.9831 280.173 36.4844 280.246 37.1953C280.319 37.888 279.827 38.9727 278.77 40.4492C275.871 42.8372 273.483 43.7122 271.605 43.0742L270.512 42.5273C269.819 41.6706 270.102 40.2578 271.359 38.2891C270.083 38.7995 268.743 39.4193 267.34 40.1484C263.785 42.026 261.889 43.6029 261.652 44.8789C260.613 46.957 261.224 47.9505 263.484 47.8594C276.135 45.4167 282.388 44.7331 282.242 45.8086C270.922 48.5794 264.223 49.9102 262.145 49.8008C260.066 49.6914 259.018 49.1536 259 48.1875C258.326 45.8359 259.383 43.4753 262.172 41.1055C264.979 38.7174 268.069 37.1406 271.441 36.375ZM271.332 38.3984C272.717 38.3984 273.674 38.8724 274.203 39.8203C270.266 41.6979 270.311 42.2904 274.34 41.5977C276.072 40.6497 277.22 39.7383 277.785 38.8633C278.35 37.9701 278.004 37.5052 276.746 37.4688C275.507 37.4141 273.702 37.724 271.332 38.3984ZM283.008 36.293L309.312 36.8125C310.023 37.3047 309.96 37.8151 309.121 38.3438C308.283 38.8724 305.193 39.0638 299.852 38.918L295.285 38.8086C294.118 38.8815 291.083 38.5716 286.18 37.8789C287.583 39.3919 288.285 41.8438 288.285 45.2344C292.277 42.0807 295.076 40.5039 296.68 40.5039C297.336 40.5586 297.518 40.9049 297.227 41.543L285.66 49.9648C284.931 49.9466 284.576 49.6003 284.594 48.9258L286.18 46.8203C286.18 41.9167 284.776 38.5807 281.969 36.8125C281.914 36.3568 282.26 36.1836 283.008 36.293ZM351.477 1.04688C352.552 0.372396 353.792 0.983073 355.195 2.87891C355.596 3.84505 355.387 4.25521 354.566 4.10938L352.105 2.87891L329.164 26.832L318.008 38.5078C321.307 38.5078 322.984 39 323.039 39.9844C323.24 40.6042 323.03 41.2695 322.41 41.9805C321.79 42.6914 321.152 43.3385 320.496 43.9219C319.84 44.5052 319.421 44.9518 319.238 45.2617C326.129 42.819 328.818 42.4089 327.305 44.0312C320.943 46.8021 317.306 48.3333 316.395 48.625C315.501 48.9167 314.654 49.0807 313.852 49.1172C313.068 49.1536 312.794 48.6888 313.031 47.7227C319.266 42.8555 321.125 40.6042 318.609 40.9688C314.398 40.9688 310.352 43.0833 306.469 47.3125C302.586 51.5417 300.016 54.2122 298.758 55.3242C297.5 56.418 293.253 59.5898 286.016 64.8398C282.807 66.9727 279.535 68.5677 276.199 69.625C272.845 70.7005 270.411 71.3568 268.898 71.5938C267.367 71.849 265.982 71.8854 264.742 71.7031C263.484 71.5391 262.591 70.8919 262.062 69.7617C261.534 68.6315 261.698 67.2552 262.555 65.6328C263.393 64.0104 264.724 62.543 266.547 61.2305C275.169 54.8685 285.086 49.3451 296.297 44.6602L299.031 43.6758C310.005 41.1419 316.486 38.0885 318.473 34.5156L319.074 33.7773C326.421 26.6315 334.852 18 344.367 7.88281L351.477 1.04688ZM265.863 68.9141C266.1 69.388 267.176 69.5065 269.09 69.2695L275.27 67.4375C282.215 65.2865 289.251 60.9479 296.379 54.4219C303.488 47.8958 306.915 44.5143 306.66 44.2773C306.405 44.0221 306.049 43.9401 305.594 44.0312C298.32 44.888 288.814 49.1901 277.074 56.9375C271.514 59.9453 267.796 63.1719 265.918 66.6172C265.626 67.6745 265.608 68.4401 265.863 68.9141ZM342.289 36.1289C344.021 35.9648 345.206 36.9401 345.844 39.0547C345.37 40.4036 344.54 41.5703 343.355 42.5547H343.82C345.898 40.9688 347.111 40.7409 347.457 41.8711C343.392 44.1497 341.241 45.8997 341.004 47.1211C340.767 48.3242 341.414 48.6797 342.945 48.1875L349.863 45.3984C350.538 45.599 350.693 45.9818 350.328 46.5469C346.172 48.8255 343.073 49.9648 341.031 49.9648C339.135 49.7461 338.826 48.4154 340.102 45.9727C334.177 48.6341 330.303 49.9648 328.48 49.9648C327.223 49.5091 326.758 48.3698 327.086 46.5469C331.279 39.7109 336.346 36.2383 342.289 36.1289ZM332.555 42.7188C329.638 45.4714 328.426 47.1849 328.918 47.8594C329.41 48.5339 331.424 48.1055 334.961 46.5742C338.516 45.0247 340.995 43.0195 342.398 40.5586C343.711 38.9362 343.273 38.0794 341.086 37.9883C338.315 38.3711 335.471 39.9479 332.555 42.7188ZM361.922 36.7305C363.763 36.3294 364.884 36.8398 365.285 38.2617L369.25 36.6758C370.544 36.3112 371.456 36.3568 371.984 36.8125C372.513 37.2682 372.75 37.888 372.695 38.6719C372.641 39.4557 372.221 40.4128 371.438 41.543C370.654 42.6549 369.615 43.3294 368.32 43.5664C367.336 43.5846 366.625 43.5208 366.188 43.375C365.75 43.2292 365.458 42.9922 365.312 42.6641C365.185 42.3177 365.312 42.1536 365.695 42.1719C366.096 42.1901 366.47 42.2357 366.816 42.3086C367.163 42.3815 367.664 42.3724 368.32 42.2812C368.995 42.1901 369.697 41.6706 370.426 40.7227C371.155 39.7565 371.273 38.9544 370.781 38.3164C370.289 37.6784 368.776 38.0977 366.242 39.5742L364.93 40.5039C363.945 41.2513 363.034 42.1536 362.195 43.2109L361.156 44.2773L360.527 45.0156C360.199 45.6536 360.09 46.2734 360.199 46.875C360.309 47.4583 361.202 47.6589 362.879 47.4766C365.559 46.9297 367.819 46.401 369.66 45.8906L370.727 45.5898C371.401 45.5898 371.647 45.763 371.465 46.1094C371.283 46.4557 370.809 46.7565 370.043 47.0117C369.277 47.2669 368.111 47.6315 366.543 48.1055C363.973 48.8164 362.15 49.1901 361.074 49.2266C359.999 49.263 359.288 49.0078 358.941 48.4609C358.595 47.9141 358.422 47.3034 358.422 46.6289L357.301 47.3672C356.134 48.1693 354.667 48.8346 352.898 49.3633C351.13 49.8737 350.109 50.0104 349.836 49.7734C349.544 49.5182 349.663 49.099 350.191 48.5156C351.23 48.3516 352.096 48.1328 352.789 47.8594C353.5 47.5859 354.43 47.0664 355.578 46.3008L357.191 45.2617C361.275 42.0534 363.307 40.0026 363.289 39.1094C363.271 38.1979 362.551 37.9974 361.129 38.5078C359.488 39.3281 358.367 40.3398 357.766 41.543C357.164 42.7279 356.727 43.0104 356.453 42.3906C356.18 41.7526 356.562 40.75 357.602 39.3828C358.659 37.9974 360.099 37.1133 361.922 36.7305ZM406.574 36.293C407.887 35.8737 408.443 36.3841 408.242 37.8242C402.372 42.3268 399.538 44.8516 399.738 45.3984C399.21 46.3828 399.465 46.9844 400.504 47.2031C402.436 46.9479 404.742 46.1641 407.422 44.8516C410.12 43.5208 411.35 43.2018 411.113 43.8945C410.475 45.2435 408.251 46.6836 404.441 48.2148C400.65 49.7279 398.453 50.1198 397.852 49.3906C397.25 48.6615 397.113 47.0846 397.441 44.6602L387.734 49.1992C386.531 49.5273 385.51 49.5638 384.672 49.3086C383.852 49.0352 383.551 48.2422 383.77 46.9297C387.543 41.1693 390.214 38.0247 391.781 37.4961C393.349 36.9492 393.723 37.3047 392.902 38.5625C388.053 43.5208 385.775 46.3555 386.066 47.0664C386.376 47.7773 388.865 46.8932 393.531 44.4141C398.198 41.9167 402.546 39.2096 406.574 36.293ZM424.703 36.293L451.008 36.8125C451.719 37.3047 451.655 37.8151 450.816 38.3438C449.978 38.8724 446.888 39.0638 441.547 38.918L436.98 38.8086C435.814 38.8815 432.779 38.5716 427.875 37.8789C429.279 39.3919 429.98 41.8438 429.98 45.2344C433.973 42.0807 436.771 40.5039 438.375 40.5039C439.031 40.5586 439.214 40.9049 438.922 41.543L427.355 49.9648C426.626 49.9466 426.271 49.6003 426.289 48.9258L427.875 46.8203C427.875 41.9167 426.471 38.5807 423.664 36.8125C423.609 36.3568 423.956 36.1836 424.703 36.293ZM493.172 1.04688C494.247 0.372396 495.487 0.983073 496.891 2.87891C497.292 3.84505 497.082 4.25521 496.262 4.10938L493.801 2.87891L470.859 26.832L459.703 38.5078C463.003 38.5078 464.68 39 464.734 39.9844C464.935 40.6042 464.725 41.2695 464.105 41.9805C463.486 42.6914 462.848 43.3385 462.191 43.9219C461.535 44.5052 461.116 44.9518 460.934 45.2617C467.824 42.819 470.513 42.4089 469 44.0312C462.638 46.8021 459.001 48.3333 458.09 48.625C457.197 48.9167 456.349 49.0807 455.547 49.1172C454.763 49.1536 454.49 48.6888 454.727 47.7227C460.961 42.8555 462.82 40.6042 460.305 40.9688C456.094 40.9688 452.047 43.0833 448.164 47.3125C444.281 51.5417 441.711 54.2122 440.453 55.3242C439.195 56.418 434.948 59.5898 427.711 64.8398C424.503 66.9727 421.23 68.5677 417.895 69.625C414.54 70.7005 412.107 71.3568 410.594 71.5938C409.062 71.849 407.677 71.8854 406.438 71.7031C405.18 71.5391 404.286 70.8919 403.758 69.7617C403.229 68.6315 403.393 67.2552 404.25 65.6328C405.089 64.0104 406.419 62.543 408.242 61.2305C416.865 54.8685 426.781 49.3451 437.992 44.6602L440.727 43.6758C451.701 41.1419 458.181 38.0885 460.168 34.5156L460.77 33.7773C468.116 26.6315 476.547 18 486.062 7.88281L493.172 1.04688ZM407.559 68.9141C407.796 69.388 408.871 69.5065 410.785 69.2695L416.965 67.4375C423.91 65.2865 430.947 60.9479 438.074 54.4219C445.184 47.8958 448.611 44.5143 448.355 44.2773C448.1 44.0221 447.745 43.9401 447.289 44.0312C440.016 44.888 430.509 49.1901 418.77 56.9375C413.21 59.9453 409.491 63.1719 407.613 66.6172C407.322 67.6745 407.303 68.4401 407.559 68.9141ZM482.918 36.8945C484.467 36.2201 485.99 36.0104 487.484 36.2656C488.979 36.5026 489.736 37.5052 489.754 39.2734C489.754 41.7708 484.887 43.5482 475.152 44.6055C473.111 45.1888 472.108 45.8997 472.145 46.7383C472.199 47.5768 472.573 48.0872 473.266 48.2695C473.977 48.4336 474.724 48.5521 475.508 48.625C476.31 48.6797 479.309 48.1966 484.504 47.1758C489.699 46.1367 492.26 45.7812 492.188 46.1094C492.133 46.4193 489.672 47.2031 484.805 48.4609C479.956 49.7005 475.982 50.2018 472.883 49.9648C470.805 49.3815 469.975 48.2057 470.395 46.4375L470.613 45.207H468.781C468.635 44.7695 468.945 44.3685 469.711 44.0039C470.495 43.6211 474.897 41.2513 482.918 36.8945ZM479.719 40.4492C474.049 42.8737 474.323 43.4935 480.539 42.3086C485.552 41.069 488.059 40.0026 488.059 39.1094C488.059 38.2161 486.965 37.888 484.777 38.125L479.719 40.4492ZM529.703 15.7305C531.617 14.7643 532.693 15.3112 532.93 17.3711V18.9844C530.706 23.9427 522.721 29.375 508.977 35.2812V35.8281C512.331 35.8281 514.008 37.0951 514.008 39.6289C513.26 41.9258 507.281 45.3711 496.07 49.9648C493.828 50.2565 492.543 50.2656 492.215 49.9922C491.887 49.7188 491.786 49.1628 491.914 48.3242C494.302 44.7148 495.924 42.8008 496.781 42.582L496.973 41.8164L493.309 45.0703L492.816 44.5234V43.9766C493.053 42.0625 498.139 38.444 508.074 33.1211C518.046 24.2253 525.255 18.4284 529.703 15.7305ZM513.105 30.9336H513.598C525.246 25.2461 531.07 21.0807 531.07 18.4375C531.544 17.0703 530.77 17.0156 528.746 18.2734C526.741 19.513 521.527 23.7331 513.105 30.9336ZM494.676 47.2578C493.855 48.1328 494.32 48.3151 496.07 47.8047C503.18 45.2526 508.402 42.7096 511.738 40.1758C512.613 38.4622 511.693 37.5599 508.977 37.4688C505.112 37.4688 500.345 40.7318 494.676 47.2578ZM525.082 36.1562C529.129 35.5182 531.253 36.2656 531.453 38.3984C532 40.2396 529.038 42.7096 522.566 45.8086C516.095 48.9076 512.212 50.4479 510.918 50.4297C509.624 50.4115 508.785 50.1836 508.402 49.7461C508.038 49.2904 507.956 48.4701 508.156 47.2852C508.357 46.1003 510.216 44.1133 513.734 41.3242C517.253 38.5169 521.035 36.7943 525.082 36.1562ZM511.41 45.7539C509.824 47.668 510.271 48.4154 512.75 47.9961C515.247 47.5768 520.324 45.0794 527.98 40.5039L528.555 39.9844C529.302 38.8177 528.71 38.1068 526.777 37.8516C524.845 37.5964 522.193 38.3711 518.82 40.1758C515.466 41.9622 512.996 43.8216 511.41 45.7539ZM536.648 36.1289C538.508 36.0013 539.729 36.2565 540.312 36.8945C540.914 37.5143 541.215 38.0703 541.215 38.5625C541.233 39.0547 541.133 39.4831 540.914 39.8477C540.695 40.194 538.553 41.7982 534.488 44.6602C533.249 45.8268 532.802 46.5651 533.148 46.875C533.495 47.1667 534.251 47.2214 535.418 47.0391C538.772 45.7448 544.815 44.3138 553.547 42.7461C554.932 42.7461 555.625 42.9375 555.625 43.3203C555.625 43.7031 550.794 44.9062 541.133 46.9297C534.716 49.2083 531.152 50.1016 530.441 49.6094C529.749 49.099 529.585 48.3333 529.949 47.3125C530.186 46.3464 532.118 44.569 535.746 41.9805L537.879 39.9023C538.572 38.681 538.49 38.0612 537.633 38.043C536.776 38.0247 535.546 38.3255 533.941 38.9453C532.337 39.5469 531.362 40.3216 531.016 41.2695C530.669 42.1992 530.122 42.6367 529.375 42.582C528.628 42.5091 528.263 41.8073 528.281 40.4766C532.018 37.6875 534.807 36.2383 536.648 36.1289ZM567.902 36.293C569.215 35.8737 569.771 36.3841 569.57 37.8242C563.701 42.3268 560.866 44.8516 561.066 45.3984C560.538 46.3828 560.793 46.9844 561.832 47.2031C563.764 46.9479 566.07 46.1641 568.75 44.8516C571.448 43.5208 572.678 43.2018 572.441 43.8945C571.803 45.2435 569.579 46.6836 565.77 48.2148C561.978 49.7279 559.781 50.1198 559.18 49.3906C558.578 48.6615 558.441 47.0846 558.77 44.6602L549.062 49.1992C547.859 49.5273 546.839 49.5638 546 49.3086C545.18 49.0352 544.879 48.2422 545.098 46.9297C548.871 41.1693 551.542 38.0247 553.109 37.4961C554.677 36.9492 555.051 37.3047 554.23 38.5625C549.382 43.5208 547.103 46.3555 547.395 47.0664C547.704 47.7773 550.193 46.8932 554.859 44.4141C559.526 41.9167 563.874 39.2096 567.902 36.293Z" fill="#7B6C64"/>
<defs>
<clipPath id="clip0">
<rect width="440" height="422" fill="white" transform="translate(0 98)"/>
</clipPath>
</defs>
</svg>
