<svg width="480" height="422" viewBox="0 0 480 422" fill="none" xmlns="http://www.w3.org/2000/svg">
<g clip-path="url(#clip0)">
<path d="M479.712 222.591C478.56 206.785 476.257 190.453 469.345 175.702C467.618 172.277 465.89 168.853 463.874 165.428C457.251 147.516 447.461 130.657 434.503 115.115C427.592 106.949 420.393 99.0462 412.33 91.9339C427.016 81.6605 445.445 77.7092 464.162 81.1336C469.633 82.1873 471.937 74.5481 466.466 73.4944C444.581 69.5431 422.696 74.2847 405.707 86.6655C404.555 85.6118 403.115 84.8215 401.675 83.7678C411.754 65.3284 428.743 51.1037 449.764 42.6742C454.948 40.5668 450.34 33.9813 445.445 35.8253C423.272 44.5182 405.707 59.7966 394.764 79.2897C394.188 79.0263 393.324 78.4994 392.749 78.236C397.068 71.9139 398.796 63.4844 400.523 56.3721C404.555 38.4595 401.675 19.4932 394.476 2.37084C392.461 -2.37073 384.11 -0.263368 386.126 4.47821C390.733 15.2785 393.037 26.0787 393.612 37.6692C393.9 46.0987 392.749 64.5381 385.55 74.2847C383.822 73.4944 382.094 72.7042 380.654 71.9139C385.838 54.2647 376.623 35.035 356.754 27.1324C351.571 25.025 347.251 31.874 352.434 33.9813C368.56 40.3034 376.047 54.5281 372.879 68.7529C367.984 66.6455 362.801 64.8016 357.618 62.9576C342.356 57.1623 326.23 53.211 309.817 51.8939C298.586 50.8403 287.356 51.3671 276.126 52.1574C242.722 47.6792 208.167 50.05 175.34 58.216C147.408 65.065 122.068 77.4457 101.623 96.1486C80.314 114.851 63.6125 138.823 53.246 163.584C37.1203 201.78 35.3926 246.562 49.7905 285.812C50.0784 286.865 50.3664 287.919 50.6543 288.973C67.068 341.92 111.414 388.809 169.005 406.195C189.738 412.253 211.335 414.888 232.932 414.888C253.089 419.629 273.534 422.79 294.555 422.263C320.471 421.737 346.099 415.415 369.136 404.614C400.523 389.863 426.152 366.155 445.157 339.023C470.209 303.724 482.304 264.211 479.712 222.591ZM429.319 118.013C432.199 121.437 434.79 124.861 437.382 128.549C427.592 117.222 416.073 107.739 403.403 99.8365C404.843 98.5194 406.283 96.9389 408.01 95.6218C415.785 102.207 422.696 110.11 429.319 118.013ZM397.644 91.9339C397.932 90.8802 398.508 89.8265 399.084 89.0363C399.66 89.5631 400.236 89.8265 401.099 90.3534C399.66 91.6705 397.932 92.9876 396.492 94.5681C396.204 94.8315 396.204 95.0949 395.916 95.0949C395.628 95.0949 395.628 94.8315 395.34 94.8315C395.052 94.5681 395.052 94.5681 394.764 94.5681C396.204 94.0413 397.068 93.5144 397.644 91.9339ZM388.717 82.9776C389.869 83.5044 390.733 84.0313 391.885 84.5581C391.021 86.402 390.157 87.9826 389.581 89.8265C389.293 90.3534 389.293 90.6168 389.293 90.8802C386.989 89.5631 384.686 88.246 382.382 86.9289C384.974 86.1386 386.989 84.5581 388.717 82.9776ZM378.351 77.7092C379.215 77.9726 380.078 78.4994 380.942 79.0263C379.79 79.8165 378.639 80.3434 377.487 80.6068C377.199 80.6068 376.911 80.8702 376.623 80.8702C377.199 79.8165 377.775 78.7628 378.351 77.7092ZM386.126 95.8852C387.853 96.6755 389.581 97.7291 391.021 98.5194C395.628 101.417 399.948 104.578 404.267 107.476C420.681 119.066 431.911 134.345 441.414 151.204C457.251 179.916 463.298 210.21 460.995 242.347C458.979 266.845 452.356 290.817 440.262 312.944C415.785 357.462 369.712 385.648 316.44 393.814C263.743 401.717 204.424 402.243 154.895 381.697C141.073 375.111 128.115 367.472 116.021 358.779C76.5706 327.169 55.5496 276.855 57.2774 229.439C58.4292 202.307 66.492 173.594 82.0418 150.15C99.0313 124.598 126.387 105.632 154.895 91.9339C186.571 76.6555 221.414 69.2797 256.832 68.7529C285.916 68.226 316.44 68.7529 344.66 76.9189C358.77 82.4507 372.879 89.0363 386.126 95.8852ZM370.288 74.2847C369.424 76.1286 368.56 77.7092 367.408 79.5531C360.497 76.3921 353.586 73.7579 346.387 71.9139C331.414 65.8552 316.44 60.5868 300.89 56.8989C325.654 57.6892 348.115 65.065 370.288 74.2847ZM275.262 57.6892C279.581 58.216 283.9 59.0063 288.22 59.7966C295.995 61.1137 303.482 62.9576 310.968 65.065C304.345 64.2747 298.01 64.0113 291.387 63.7479C257.696 62.1673 224.869 63.221 192.618 71.9139C192.906 71.9139 192.906 71.6505 193.194 71.6505C211.047 66.3821 229.476 63.4844 247.906 60.8502C257.12 59.5331 266.047 58.4795 275.262 57.6892ZM100.759 104.315C121.204 83.7678 147.408 71.1236 176.492 63.4844C198.953 57.6892 222.565 55.055 246.178 55.5818C216.518 59.5331 187.722 65.8552 160.366 77.9726C131.571 90.8802 105.942 109.32 84.9214 131.447C71.9632 144.881 61.8847 159.896 54.6858 175.965C63.9004 149.36 80.314 124.861 100.759 104.315ZM54.6858 281.07C54.3978 280.016 54.1098 278.699 53.8219 277.645C46.6229 249.723 47.4868 218.376 55.5496 190.98C58.1413 182.024 61.8847 173.594 66.78 165.428C51.5182 197.039 47.4868 233.918 54.3978 267.899C58.1413 286.338 65.3402 304.251 75.1308 320.583C66.2041 308.202 59.581 295.031 54.6858 281.07ZM174.476 401.717C137.618 391.97 106.518 369.316 84.6334 340.603C94.424 350.613 105.366 359.306 117.173 367.209C128.691 375.638 141.361 382.75 155.183 388.019C172.173 395.658 189.738 402.243 207.304 407.512C196.073 406.458 185.131 404.614 174.476 401.717ZM232.068 408.829C221.989 406.458 211.911 403.561 201.832 400.4C216.806 402.77 232.068 403.824 247.042 404.087C264.319 404.351 281.885 403.824 299.45 401.717C289.084 403.824 278.717 405.405 268.351 406.458C256.544 408.039 244.45 408.829 232.068 408.829ZM400.811 378.272C360.497 410.41 307.801 422 255.968 413.834C288.508 411.2 321.047 403.561 350.707 394.077C389.869 381.697 422.984 359.042 445.157 328.486C433.639 347.189 418.665 364.048 400.811 378.272ZM463.01 278.172C456.963 299.509 446.597 319.003 432.199 335.861C437.958 328.486 443.141 320.583 447.461 312.417C459.267 290.29 465.026 265.792 467.042 241.293C469.345 211 463.298 182.024 449.764 154.628C452.932 159.106 455.811 163.584 458.691 168.326C463.01 179.653 465.89 191.243 467.618 203.361C470.785 228.122 469.921 253.674 463.01 278.172Z" fill="#917171"/>
<path d="M199.817 176.228C194.633 178.599 195.497 186.765 195.497 190.98C195.497 196.775 197.225 202.307 201.832 206.522C203.848 208.629 208.455 207.576 209.031 204.678C209.895 200.463 210.471 196.512 210.471 192.297C210.759 182.814 209.607 171.75 199.817 176.228Z" fill="#917171"/>
<path d="M323.063 175.175C320.183 172.541 316.152 174.648 315.576 178.072C314.712 185.975 315 193.878 316.44 201.78C316.728 202.834 317.592 203.624 318.744 204.151C319.607 205.205 321.047 205.732 322.487 205.995C329.974 206.522 331.702 198.883 331.702 193.614C331.702 186.502 328.246 179.916 323.063 175.175Z" fill="#917171"/>
<path d="M371.728 292.66C370 291.87 368.848 290.816 368.272 289.236C368.272 288.446 368.272 287.392 367.696 286.602C367.696 285.548 367.984 284.494 368.848 283.441C371.728 278.962 364.241 275.011 361.361 279.489C360.209 281.07 359.633 282.914 359.346 285.021H180.811C180.524 284.494 180.236 283.967 179.66 283.441C179.372 281.597 178.796 279.489 177.932 277.645C176.204 274.221 171.597 275.538 170.445 278.436C169.581 279.226 169.005 280.543 169.293 282.124C170.157 286.338 169.869 290.553 169.005 295.031C167.853 299.246 174.476 301.88 176.78 298.192C177.932 296.612 178.796 294.768 179.084 293.187H360.497C361.937 296.085 364.241 298.456 367.408 299.773C372.304 301.617 376.623 294.768 371.728 292.66Z" fill="#917171"/>
<path d="M187.434 235.498C185.131 234.708 183.115 234.444 180.811 234.708C175.052 234.708 169.581 234.708 163.822 234.708C163.534 234.708 163.246 234.708 162.958 234.708C161.806 234.708 160.366 234.708 159.214 234.708C156.335 234.708 153.455 238.132 155.471 240.767C155.759 241.03 156.047 241.293 156.335 241.82C156.335 243.137 156.911 244.454 158.639 244.981C159.502 245.245 160.366 245.508 160.942 245.772C164.686 248.406 169.293 249.986 174.476 249.723C175.052 249.723 175.34 249.723 175.916 249.723C179.084 250.777 182.539 250.777 185.131 249.196C187.146 249.196 189.162 248.933 190.89 248.669C192.906 248.406 194.057 246.562 194.057 244.981C194.345 240.767 191.754 237.342 187.434 235.498Z" fill="#917171"/>
<path d="M365.681 232.074C365.393 229.703 363.953 228.386 361.361 228.122C360.209 228.122 359.345 228.122 358.194 228.122C357.618 227.595 356.754 227.332 355.602 227.332C344.372 227.069 333.717 229.176 323.639 233.918C321.335 234.971 320.759 238.396 322.775 240.24C329.974 246.035 338.613 246.298 347.539 244.981C355.026 243.664 366.832 241.03 365.681 232.074Z" fill="#917171"/>
</g>
<path d="M38.7891 38.7305C40.7031 37.7643 41.7786 38.3112 42.0156 40.3711V41.9844C39.7917 46.9427 31.8073 52.375 18.0625 58.2812V58.8281C21.4167 58.8281 23.0938 60.0951 23.0938 62.6289C22.3464 64.9258 16.3672 68.3711 5.15625 72.9648C2.91406 73.2565 1.62891 73.2656 1.30078 72.9922C0.972656 72.7188 0.872396 72.1628 1 71.3242C3.38802 67.7148 5.01042 65.8008 5.86719 65.582L6.05859 64.8164L2.39453 68.0703L1.90234 67.5234V66.9766C2.13932 65.0625 7.22526 61.444 17.1602 56.1211C27.1315 47.2253 34.3411 41.4284 38.7891 38.7305ZM22.1914 53.9336H22.6836C34.332 48.2461 40.1562 44.0807 40.1562 41.4375C40.6302 40.0703 39.8555 40.0156 37.832 41.2734C35.8268 42.513 30.6133 46.7331 22.1914 53.9336ZM3.76172 70.2578C2.94141 71.1328 3.40625 71.3151 5.15625 70.8047C12.2656 68.2526 17.4883 65.7096 20.8242 63.1758C21.6992 61.4622 20.7786 60.5599 18.0625 60.4688C14.1979 60.4688 9.43099 63.7318 3.76172 70.2578ZM40.1289 59.293C41.4414 58.8737 41.9974 59.3841 41.7969 60.8242C35.9271 65.3268 33.0924 67.8516 33.293 68.3984C32.7643 69.3828 33.0195 69.9844 34.0586 70.2031C35.9909 69.9479 38.2969 69.1641 40.9766 67.8516C43.6745 66.5208 44.9049 66.2018 44.668 66.8945C44.0299 68.2435 41.806 69.6836 37.9961 71.2148C34.2044 72.7279 32.0078 73.1198 31.4062 72.3906C30.8047 71.6615 30.668 70.0846 30.9961 67.6602L21.2891 72.1992C20.0859 72.5273 19.0651 72.5638 18.2266 72.3086C17.4062 72.0352 17.1055 71.2422 17.3242 69.9297C21.0977 64.1693 23.7682 61.0247 25.3359 60.4961C26.9036 59.9492 27.2773 60.3047 26.457 61.5625C21.6081 66.5208 19.3294 69.3555 19.6211 70.0664C19.931 70.7773 22.4193 69.8932 27.0859 67.4141C31.7526 64.9167 36.1003 62.2096 40.1289 59.293ZM66.9258 59.4023C67.9831 59.0013 68.6211 59.1016 68.8398 59.7031C69.0586 60.2865 65.8685 63.7409 59.2695 70.0664C59.0143 70.832 59.4245 71.069 60.5 70.7773C65.0573 69.2461 67.8464 68.3802 68.8672 68.1797C69.888 67.9609 70.3984 68.0977 70.3984 68.5898C70.1432 69.4466 68.1107 70.5221 64.3008 71.8164C60.4909 73.0924 58.112 73.5026 57.1641 73.0469C56.2161 72.5729 56.0885 71.5794 56.7812 70.0664L58.6406 67.1133L51.5859 66.3203C49.8724 67.2135 48.4961 68.2799 47.457 69.5195C46.418 70.7591 45.6159 71.4245 45.0508 71.5156C44.5039 71.6068 44.2943 71.1237 44.4219 70.0664C46.0625 67.8789 48.4596 65.5091 51.6133 62.957C54.7852 60.3867 57.0182 58.9922 58.3125 58.7734C59.625 58.5547 59.6432 59.2201 58.3672 60.7695C57.6562 61.3346 56.8268 61.9271 55.8789 62.5469L53.9375 64.1055L56.7812 64.9531C59.6615 65.3177 63.043 63.4674 66.9258 59.4023ZM85.3828 59.1289C87.1146 58.9648 88.2995 59.9401 88.9375 62.0547C88.4635 63.4036 87.6341 64.5703 86.4492 65.5547H86.9141C88.9922 63.9688 90.2044 63.7409 90.5508 64.8711C86.4857 67.1497 84.3346 68.8997 84.0977 70.1211C83.8607 71.3242 84.5078 71.6797 86.0391 71.1875L92.957 68.3984C93.6315 68.599 93.7865 68.9818 93.4219 69.5469C89.2656 71.8255 86.1667 72.9648 84.125 72.9648C82.2292 72.7461 81.9193 71.4154 83.1953 68.9727C77.2708 71.6341 73.3971 72.9648 71.5742 72.9648C70.3164 72.5091 69.8516 71.3698 70.1797 69.5469C74.3724 62.7109 79.4401 59.2383 85.3828 59.1289ZM75.6484 65.7188C72.7318 68.4714 71.5195 70.1849 72.0117 70.8594C72.5039 71.5339 74.5182 71.1055 78.0547 69.5742C81.6094 68.0247 84.0885 66.0195 85.4922 63.5586C86.8047 61.9362 86.3672 61.0794 84.1797 60.9883C81.4089 61.3711 78.5651 62.9479 75.6484 65.7188Z" fill="#7B6C64"/>
<defs>
<clipPath id="clip0">
<rect width="440" height="422" fill="white" transform="translate(40)"/>
</clipPath>
</defs>
</svg>
