<svg width="229" height="79" viewBox="0 0 229 79" fill="none" xmlns="http://www.w3.org/2000/svg">
<path d="M15.6777 18.7598C16.5215 18.4902 16.8789 18.8184 16.75 19.7441C12.9766 22.6387 11.1543 24.2617 11.2832 24.6133C10.9434 25.2461 11.1074 25.6328 11.7754 25.7734C13.0176 25.6094 14.5 25.1055 16.2227 24.2617C17.957 23.4062 18.748 23.2012 18.5957 23.6465C18.1855 24.5137 16.7559 25.4395 14.3066 26.4238C11.8691 27.3965 10.457 27.6484 10.0703 27.1797C9.68359 26.7109 9.5957 25.6973 9.80664 24.1387L3.56641 27.0566C2.79297 27.2676 2.13672 27.291 1.59766 27.127C1.07031 26.9512 0.876953 26.4414 1.01758 25.5977C3.44336 21.8945 5.16016 19.873 6.16797 19.5332C7.17578 19.1816 7.41602 19.4102 6.88867 20.2188C3.77148 23.4062 2.30664 25.2285 2.49414 25.6855C2.69336 26.1426 4.29297 25.5742 7.29297 23.9805C10.293 22.375 13.0879 20.6348 15.6777 18.7598ZM34.3105 18.7598C34.9668 18.6309 35.1953 18.8945 34.9961 19.5508L32.2188 22.3633H32.5703C35.3125 21.0273 37.5156 20.3594 39.1797 20.3594C39.6133 20.4648 39.7246 20.7285 39.5137 21.1504C33.959 22.8613 31.1816 24.3262 31.1816 25.5449C31.2637 25.8848 31.5273 26.0605 31.9727 26.0723C34.75 25.9902 37.8438 25.416 41.2539 24.3496C41.875 24.3027 41.9922 24.5723 41.6055 25.1582C39.707 26.4004 36.3496 27.1973 31.5332 27.5488C30.373 27.3848 29.793 26.5879 29.793 25.1582L27.0156 26.3535C26.7461 26.2012 26.6289 25.9316 26.6641 25.5449L34.3105 18.7598ZM50.8516 18.6543C51.9648 18.5488 52.7266 19.1758 53.1367 20.5352C52.832 21.4023 52.2988 22.1523 51.5371 22.7852H51.8359C53.1719 21.7656 53.9512 21.6191 54.1738 22.3457C51.5605 23.8105 50.1777 24.9355 50.0254 25.7207C49.873 26.4941 50.2891 26.7227 51.2734 26.4062L55.7207 24.6133C56.1543 24.7422 56.2539 24.9883 56.0195 25.3516C53.3477 26.8164 51.3555 27.5488 50.043 27.5488C48.8242 27.4082 48.625 26.5527 49.4453 24.9824C45.6367 26.6934 43.1465 27.5488 41.9746 27.5488C41.166 27.2559 40.8672 26.5234 41.0781 25.3516C43.7734 20.957 47.0312 18.7246 50.8516 18.6543ZM44.5938 22.8906C42.7188 24.6602 41.9395 25.7617 42.2559 26.1953C42.5723 26.6289 43.8672 26.3535 46.1406 25.3691C48.4258 24.373 50.0195 23.084 50.9219 21.502C51.7656 20.459 51.4844 19.9082 50.0781 19.8496C48.2969 20.0957 46.4688 21.1094 44.5938 22.8906ZM63.3848 18.7598C64.041 18.6309 64.2695 18.8945 64.0703 19.5508L61.293 22.3633H61.6445C64.3867 21.0273 66.5898 20.3594 68.2539 20.3594C68.6875 20.4648 68.7988 20.7285 68.5879 21.1504C63.0332 22.8613 60.2559 24.3262 60.2559 25.5449C60.3379 25.8848 60.6016 26.0605 61.0469 26.0723C63.8242 25.9902 66.918 25.416 70.3281 24.3496C70.9492 24.3027 71.0664 24.5723 70.6797 25.1582C68.7812 26.4004 65.4238 27.1973 60.6074 27.5488C59.4473 27.3848 58.8672 26.5879 58.8672 25.1582L56.0898 26.3535C55.8203 26.2012 55.7031 25.9316 55.7383 25.5449L63.3848 18.7598ZM86.377 18.8125C88.5449 18.3203 90.0156 18.1738 90.7891 18.373C91.5742 18.5605 91.9902 18.8828 92.0371 19.3398C92.084 19.7852 91.7676 20.4824 91.0879 21.4316C89.2246 22.9668 87.6895 23.5293 86.4824 23.1191L85.7793 22.7676C85.334 22.2168 85.5156 21.3086 86.3242 20.043C85.5039 20.3711 84.6426 20.7695 83.7402 21.2383C81.4551 22.4453 80.2363 23.459 80.084 24.2793C79.416 25.6152 79.8086 26.2539 81.2617 26.1953C89.3945 24.625 93.4141 24.1855 93.3203 24.877C86.043 26.6582 81.7363 27.5137 80.4004 27.4434C79.0645 27.373 78.3906 27.0273 78.3789 26.4062C77.9453 24.8945 78.625 23.377 80.418 21.8535C82.2227 20.3184 84.209 19.3047 86.377 18.8125ZM86.3066 20.1133C87.1973 20.1133 87.8125 20.418 88.1523 21.0273C85.6211 22.2344 85.6504 22.6152 88.2402 22.1699C89.3535 21.5605 90.0918 20.9746 90.4551 20.4121C90.8184 19.8379 90.5957 19.5391 89.7871 19.5156C88.9902 19.4805 87.8301 19.6797 86.3066 20.1133ZM105.994 18.9707C107.764 17.9512 108.361 17.9922 107.787 19.0938C107.096 19.75 105.004 21.2969 101.512 23.7344C101.113 24.4961 100.914 25.082 100.914 25.4922C100.914 25.8906 101.441 25.8906 102.496 25.4922C103.562 25.082 104.928 24.2383 106.592 22.9609C106.943 23.0078 107.078 23.2773 106.996 23.7695C106.926 24.25 106.17 24.8594 104.729 25.5977C103.299 26.3242 102.139 26.7402 101.248 26.8457C100.369 26.9395 99.8887 26.8516 99.8066 26.582C99.7363 26.3008 99.8066 25.6035 100.018 24.4902L94.041 27.5488C93.3965 27.6895 93.0977 27.4375 93.1445 26.793C93.9883 24.5547 94.5859 23.4062 94.9375 23.3477C95.6289 23.3008 95.8281 23.6816 95.5352 24.4902C94.4688 25.8848 94.4688 26.2656 95.5352 25.6328C99.9414 23.5234 103.428 21.3027 105.994 18.9707ZM115.943 19.1465C116.939 18.7129 117.918 18.5781 118.879 18.7422C119.84 18.8945 120.326 19.5391 120.338 20.6758C120.338 22.2812 117.209 23.4238 110.951 24.1035C109.639 24.4785 108.994 24.9355 109.018 25.4746C109.053 26.0137 109.293 26.3418 109.738 26.459C110.195 26.5645 110.676 26.6406 111.18 26.6875C111.695 26.7227 113.623 26.4121 116.963 25.7559C120.303 25.0879 121.949 24.8594 121.902 25.0703C121.867 25.2695 120.285 25.7734 117.156 26.582C114.039 27.3789 111.484 27.7012 109.492 27.5488C108.156 27.1738 107.623 26.418 107.893 25.2812L108.033 24.4902H106.855C106.762 24.209 106.961 23.9512 107.453 23.7168C107.957 23.4707 110.787 21.9473 115.943 19.1465ZM113.887 21.4316C110.242 22.9902 110.418 23.3887 114.414 22.627C117.637 21.8301 119.248 21.1445 119.248 20.5703C119.248 19.9961 118.545 19.7852 117.139 19.9375L113.887 21.4316ZM128.441 5.48828L130.023 5.57617L131.359 5.73438L132.713 5.92773C133.486 6.06836 134.471 6.29102 135.666 6.5957C138.209 7.42773 139.996 8.62305 141.027 10.1816C142.07 11.7285 142.58 12.8418 142.557 13.5215C142.557 18.0801 137.986 22.0762 128.846 25.5098C126.045 26.752 123.971 27.373 122.623 27.373C121.779 27.291 121.533 26.7461 121.885 25.7383C125.459 20.8516 128.963 18.4082 132.396 18.4082C133.615 18.4082 134.225 19.3574 134.225 21.2559H134.945C139.059 19.1113 141.115 16.8027 141.115 14.3301C141.467 13.7559 140.951 12.4902 139.568 10.5332C138.197 8.56445 135.133 7.41016 130.375 7.07031C125.629 6.71875 121.176 6.73633 117.016 7.12305C111.344 8.33008 108.508 9.64844 108.508 11.0781C107.758 11.7578 107.389 11.6172 107.4 10.6562C108.982 7.39844 113.939 5.6875 122.271 5.52344L125.787 5.40039L128.441 5.48828ZM125.242 23.3125C122.711 25.7617 123.391 26.3242 127.281 25C131.184 23.6641 133.135 22.2812 133.135 20.8516V20.4473C132.736 19.5801 132.01 19.3047 130.955 19.6211C129.689 19.6211 127.785 20.8516 125.242 23.3125ZM143.646 18.8125C145.814 18.3203 147.285 18.1738 148.059 18.373C148.844 18.5605 149.26 18.8828 149.307 19.3398C149.354 19.7852 149.037 20.4824 148.357 21.4316C146.494 22.9668 144.959 23.5293 143.752 23.1191L143.049 22.7676C142.604 22.2168 142.785 21.3086 143.594 20.043C142.773 20.3711 141.912 20.7695 141.01 21.2383C138.725 22.4453 137.506 23.459 137.354 24.2793C136.686 25.6152 137.078 26.2539 138.531 26.1953C146.664 24.625 150.684 24.1855 150.59 24.877C143.312 26.6582 139.006 27.5137 137.67 27.4434C136.334 27.373 135.66 27.0273 135.648 26.4062C135.215 24.8945 135.895 23.377 137.688 21.8535C139.492 20.3184 141.479 19.3047 143.646 18.8125ZM143.576 20.1133C144.467 20.1133 145.082 20.418 145.422 21.0273C142.891 22.2344 142.92 22.6152 145.51 22.1699C146.623 21.5605 147.361 20.9746 147.725 20.4121C148.088 19.8379 147.865 19.5391 147.057 19.5156C146.26 19.4805 145.1 19.6797 143.576 20.1133ZM151.082 18.7598L167.992 19.0938C168.449 19.4102 168.408 19.7383 167.869 20.0781C167.33 20.418 165.344 20.541 161.91 20.4473L158.975 20.377C158.225 20.4238 156.273 20.2246 153.121 19.7793C154.023 20.752 154.475 22.3281 154.475 24.5078C157.041 22.4805 158.84 21.4668 159.871 21.4668C160.293 21.502 160.41 21.7246 160.223 22.1348L152.787 27.5488C152.318 27.5371 152.09 27.3145 152.102 26.8809L153.121 25.5273C153.121 22.375 152.219 20.2305 150.414 19.0938C150.379 18.8008 150.602 18.6895 151.082 18.7598ZM189.684 5.54102C190.914 4.91992 191.605 5.27148 191.758 6.5957V7.63281C190.328 10.8203 185.195 14.3125 176.359 18.1094V18.4609C178.516 18.4609 179.594 19.2754 179.594 20.9043C179.113 22.3809 175.27 24.5957 168.062 27.5488C166.621 27.7363 165.795 27.7422 165.584 27.5664C165.373 27.3906 165.309 27.0332 165.391 26.4941C166.926 24.1738 167.969 22.9434 168.52 22.8027L168.643 22.3105L166.287 24.4023L165.971 24.0508V23.6992C166.123 22.4688 169.393 20.1426 175.779 16.7207C182.189 11.002 186.824 7.27539 189.684 5.54102ZM179.014 15.3145H179.33C186.818 11.6582 190.562 8.98047 190.562 7.28125C190.867 6.40234 190.369 6.36719 189.068 7.17578C187.779 7.97266 184.428 10.6855 179.014 15.3145ZM167.166 25.8086C166.639 26.3711 166.938 26.4883 168.062 26.1602C172.633 24.5195 175.99 22.8848 178.135 21.2559C178.697 20.1543 178.105 19.5742 176.359 19.5156C173.875 19.5156 170.811 21.6133 167.166 25.8086ZM190.545 18.7598C191.389 18.4902 191.746 18.8184 191.617 19.7441C187.844 22.6387 186.021 24.2617 186.15 24.6133C185.811 25.2461 185.975 25.6328 186.643 25.7734C187.885 25.6094 189.367 25.1055 191.09 24.2617C192.824 23.4062 193.615 23.2012 193.463 23.6465C193.053 24.5137 191.623 25.4395 189.174 26.4238C186.736 27.3965 185.324 27.6484 184.938 27.1797C184.551 26.7109 184.463 25.6973 184.674 24.1387L178.434 27.0566C177.66 27.2676 177.004 27.291 176.465 27.127C175.938 26.9512 175.744 26.4414 175.885 25.5977C178.311 21.8945 180.027 19.873 181.035 19.5332C182.043 19.1816 182.283 19.4102 181.756 20.2188C178.639 23.4062 177.174 25.2285 177.361 25.6855C177.561 26.1426 179.16 25.5742 182.16 23.9805C185.16 22.375 187.955 20.6348 190.545 18.7598ZM202.393 19.1465C203.389 18.7129 204.367 18.5781 205.328 18.7422C206.289 18.8945 206.775 19.5391 206.787 20.6758C206.787 22.2812 203.658 23.4238 197.4 24.1035C196.088 24.4785 195.443 24.9355 195.467 25.4746C195.502 26.0137 195.742 26.3418 196.188 26.459C196.645 26.5645 197.125 26.6406 197.629 26.6875C198.145 26.7227 200.072 26.4121 203.412 25.7559C206.752 25.0879 208.398 24.8594 208.352 25.0703C208.316 25.2695 206.734 25.7734 203.605 26.582C200.488 27.3789 197.934 27.7012 195.941 27.5488C194.605 27.1738 194.072 26.418 194.342 25.2812L194.482 24.4902H193.305C193.211 24.209 193.41 23.9512 193.902 23.7168C194.406 23.4707 197.236 21.9473 202.393 19.1465ZM200.336 21.4316C196.691 22.9902 196.867 23.3887 200.863 22.627C204.086 21.8301 205.697 21.1445 205.697 20.5703C205.697 19.9961 204.994 19.7852 203.588 19.9375L200.336 21.4316Z" fill="#F1ECEA"/>
<path opacity="0.5" fill-rule="evenodd" clip-rule="evenodd" d="M120.979 40.769C121.147 40.8659 121.284 40.8667 121.379 40.7714C121.483 40.6665 121.534 40.7349 121.563 41.018C121.585 41.2333 121.526 41.4486 121.431 41.4964C121.156 41.6342 121.271 41.9993 121.667 42.2462C121.868 42.371 122.04 42.5587 122.051 42.6633C122.075 42.8976 121.859 42.936 121.726 42.7208C121.673 42.6338 121.667 42.6905 121.713 42.8467C121.772 43.0478 121.739 43.1158 121.602 43.0793C121.495 43.0509 121.414 43.0941 121.423 43.1752C121.431 43.2563 121.514 43.3157 121.607 43.3072C121.719 43.297 121.713 43.3408 121.587 43.4386C121.425 43.5645 121.439 43.611 121.689 43.767C121.849 43.8669 122.126 43.992 122.304 44.0449C122.489 44.0995 122.596 44.2089 122.552 44.2983C122.498 44.408 122.434 44.4045 122.34 44.2868C122.238 44.1583 122.207 44.1821 122.211 44.3867C122.213 44.5345 122.216 44.7268 122.217 44.8139C122.218 44.9012 122.178 45.0214 122.129 45.081C121.905 45.3538 122.105 45.4317 122.663 45.289C123.315 45.1226 123.37 45.1501 123.084 45.4985C122.915 45.7034 122.918 45.7367 123.105 45.7863C123.221 45.8172 123.292 45.9307 123.263 46.0388C123.233 46.1483 123.29 46.2276 123.392 46.2181C123.533 46.2051 123.532 46.2356 123.386 46.3513C123.225 46.4794 123.232 46.4981 123.434 46.479C123.582 46.4649 123.68 46.5593 123.698 46.7324C123.714 46.8842 123.827 47.0888 123.95 47.1871C124.072 47.2855 124.194 47.5714 124.22 47.8225C124.246 48.0736 124.323 48.2733 124.392 48.2662C124.559 48.2489 125.039 49.0076 124.962 49.1657C124.928 49.2343 124.958 49.2844 125.028 49.2772C125.18 49.2614 125.998 50.5274 126.029 50.8266C126.041 50.9426 126.18 51.0637 126.337 51.0956C126.494 51.1276 126.604 51.2264 126.581 51.315C126.534 51.4978 127.093 52.2872 127.401 52.4729C127.575 52.5771 127.576 52.6312 127.41 52.8324C127.165 53.1309 127.185 53.415 127.442 53.2857C127.76 53.126 128.054 53.2779 128.09 53.6203C128.11 53.8205 128.376 54.15 128.796 54.4968C129.267 54.8863 129.453 55.128 129.415 55.3046C129.376 55.493 129.413 55.531 129.565 55.455C129.768 55.353 129.836 55.4769 129.836 55.9478C129.836 56.0778 129.935 56.2104 130.055 56.2424C130.184 56.2766 130.291 56.4591 130.314 56.6857C130.339 56.9242 130.425 57.0637 130.54 57.0518C130.642 57.0412 130.803 57.1073 130.897 57.1988C130.997 57.2953 131.242 57.3269 131.481 57.2741C131.825 57.1982 131.882 57.2224 131.828 57.4202C131.792 57.5506 131.802 57.6095 131.85 57.5511C131.948 57.4332 132.47 57.7651 132.49 57.9573C132.505 58.1011 132.885 58.4244 133.022 58.4101C133.123 58.3997 133.476 58.7064 134.188 59.423C134.427 59.6632 134.675 59.8543 134.739 59.8477C134.905 59.8305 135.677 60.4561 135.811 60.7165C135.873 60.8375 136.01 60.9276 136.115 60.9167C136.221 60.9057 136.352 60.9831 136.406 61.0885C136.46 61.194 136.627 61.2675 136.778 61.2519C136.928 61.2363 137.059 61.2991 137.069 61.3913C137.079 61.4835 137.223 61.625 137.39 61.7057C137.614 61.8136 137.658 61.8955 137.559 62.0167C137.484 62.1072 137.432 62.2438 137.442 62.3206C137.452 62.3972 137.511 62.3488 137.574 62.2127C137.74 61.8487 137.882 61.8831 138.605 62.4633C138.964 62.7519 139.288 62.9533 139.323 62.9107C139.358 62.868 139.494 62.8617 139.626 62.8967C139.809 62.9451 139.832 63.0011 139.724 63.132C139.492 63.4144 139.586 63.5393 139.883 63.3412C140.108 63.1906 140.194 63.1933 140.342 63.3561C140.443 63.4662 140.594 63.5491 140.679 63.5403C140.763 63.5316 140.839 63.5843 140.846 63.6576C140.854 63.7308 140.951 63.7813 141.062 63.7698C141.174 63.7582 141.277 63.8673 141.292 64.0153C141.308 64.1659 141.409 64.2723 141.526 64.2602C141.64 64.2484 141.881 64.3141 142.062 64.4062C142.243 64.4982 142.555 64.57 142.755 64.5657C142.968 64.5611 143.162 64.654 143.222 64.7892C143.277 64.9164 143.376 64.9802 143.44 64.9313C143.505 64.8823 143.702 64.9215 143.878 65.0186C144.055 65.1156 144.308 65.1839 144.439 65.1702C144.571 65.1566 144.688 65.229 144.698 65.331C144.724 65.5755 145.082 65.6619 145.478 65.5192C145.661 65.4532 145.802 65.4631 145.81 65.5423C145.827 65.7001 146.619 66.0215 146.916 65.9908C147.085 65.9734 147.09 66.0056 146.952 66.2107C146.803 66.4308 146.814 66.4325 147.078 66.2313C147.315 66.0504 147.389 66.0406 147.495 66.1762C147.566 66.2667 147.788 66.3416 147.988 66.3426C148.188 66.3435 148.466 66.4262 148.606 66.5263C148.746 66.6264 149.075 66.7065 149.337 66.7044C149.599 66.7023 149.937 66.7893 150.087 66.898C150.238 67.0065 150.436 67.0575 150.528 67.0114C150.62 66.9653 150.739 66.9841 150.793 67.0534C150.847 67.1226 151.182 67.1903 151.538 67.204C151.893 67.2175 152.294 67.3053 152.429 67.3992C152.563 67.4929 152.783 67.5466 152.918 67.5184C153.347 67.4287 153.503 67.4585 153.521 67.6332C153.533 67.7497 153.718 67.7749 154.107 67.7129C154.419 67.6631 154.81 67.691 154.975 67.7751C155.139 67.8591 155.424 67.9332 155.606 67.9396C155.789 67.9462 156.021 68.0337 156.123 68.1342C156.236 68.2459 156.303 68.2566 156.296 68.1617C156.285 68.0103 156.537 68.0334 157.47 68.2695C157.624 68.3083 158.019 68.3162 158.349 68.2869C158.75 68.2512 158.994 68.2996 159.09 68.4344C159.204 68.5942 159.269 68.5982 159.412 68.4542C159.545 68.32 159.673 68.3029 159.905 68.3878C160.078 68.4509 160.436 68.521 160.7 68.5436C160.965 68.5663 161.246 68.6148 161.325 68.6513C161.513 68.7386 161.665 68.7441 163.034 68.7118C163.67 68.6969 164.232 68.737 164.285 68.8009C164.337 68.8648 164.737 68.8806 165.174 68.836C165.611 68.7912 166.556 68.8058 167.274 68.8681C167.993 68.9306 169.096 68.9255 169.726 68.8567C170.356 68.7881 171.242 68.7597 171.695 68.7937C172.469 68.8517 173.792 68.6973 174.022 68.5223C174.078 68.479 174.209 68.4838 174.312 68.5328C174.414 68.5818 174.711 68.5508 174.972 68.4638C175.232 68.3769 175.504 68.3339 175.576 68.3684C175.648 68.4027 175.956 68.4172 176.26 68.4003C176.564 68.3835 176.843 68.4357 176.88 68.5162C176.926 68.6169 177.024 68.6141 177.194 68.5074C177.33 68.422 177.548 68.285 177.679 68.2029C177.813 68.1192 178.134 68.0788 178.409 68.1109C178.713 68.1465 178.947 68.1104 179.025 68.016C179.111 67.911 179.216 67.9074 179.362 68.0041C179.515 68.1052 179.596 68.1006 179.652 67.9876C179.697 67.8951 180.098 67.7997 180.628 67.7554C181.122 67.714 181.753 67.6151 182.029 67.5355C182.415 67.4244 182.598 67.4393 182.819 67.5993C182.978 67.714 183.101 67.7436 183.092 67.665C183.084 67.5866 182.998 67.4947 182.901 67.4608C182.804 67.427 182.947 67.4022 183.22 67.4056C183.492 67.4091 183.769 67.3467 183.834 67.2671C183.9 67.1875 184.15 67.0705 184.39 67.0073C184.631 66.944 184.978 66.8141 185.162 66.7186C185.644 66.4692 186.375 66.3483 186.674 66.4689C186.826 66.5301 186.926 66.5223 186.918 66.4498C186.908 66.3495 187.728 66.0545 188.298 65.9534C188.371 65.9403 188.488 65.8856 188.558 65.8319C188.628 65.778 189.003 65.7181 189.393 65.6986C189.856 65.6756 190.068 65.6185 190.002 65.5346C189.939 65.4541 190.014 65.4227 190.2 65.4509C190.364 65.4756 190.527 65.4369 190.562 65.3651C190.598 65.293 190.682 65.2607 190.75 65.2931C190.818 65.3256 190.903 65.2926 190.939 65.22C190.974 65.1474 191.469 64.997 192.038 64.8861C192.606 64.775 193.143 64.6152 193.229 64.5307C193.39 64.3738 193.77 64.2614 194.554 64.1389C194.797 64.1008 195.022 64.0164 195.054 63.9511C195.086 63.8859 195.308 63.8123 195.549 63.7874C195.789 63.7626 196.053 63.66 196.136 63.5595C196.256 63.4142 196.316 63.4146 196.434 63.5624C196.515 63.6644 196.576 63.6825 196.569 63.6026C196.548 63.3649 197.102 63.1127 197.418 63.2158C197.729 63.3169 198.677 62.8902 198.653 62.6604C198.646 62.5891 198.823 62.5491 199.053 62.5704C199.288 62.592 199.54 62.5331 199.638 62.4335C199.772 62.299 199.83 62.2968 199.891 62.4242C199.945 62.5366 200.073 62.4581 200.288 62.1802C200.524 61.8747 200.664 61.7956 200.838 61.8693C201.05 61.9594 201.232 61.9085 202.078 61.5219C202.186 61.4728 202.424 61.4004 202.607 61.3609C202.79 61.3215 203.143 61.2259 203.391 61.1487C203.737 61.0409 203.886 61.057 204.033 61.2184C204.209 61.411 204.23 61.4024 204.291 61.1156C204.364 60.769 204.501 60.5896 204.923 60.2912C205.162 60.1228 205.223 60.1218 205.307 60.2851C205.436 60.5379 205.653 60.5142 205.626 60.2505C205.609 60.0864 205.662 60.069 205.893 60.1622C206.122 60.2546 206.255 60.2143 206.541 59.9653C206.739 59.7931 207.112 59.6305 207.37 59.6038C207.725 59.567 207.849 59.4892 207.882 59.2817C207.927 58.995 208.208 58.8701 208.235 59.125C208.243 59.2061 208.334 59.2303 208.436 59.179C208.538 59.1276 208.659 59.1542 208.704 59.2378C208.749 59.3216 208.779 59.2778 208.771 59.1409C208.759 58.9434 208.838 58.895 209.152 58.9078C209.44 58.9195 209.525 58.8779 209.462 58.7549C209.404 58.6416 209.45 58.6055 209.601 58.6457C209.754 58.6864 209.819 58.6324 209.803 58.4773C209.788 58.3291 209.853 58.2686 209.989 58.3048C210.105 58.3354 210.194 58.3052 210.187 58.2376C210.18 58.1699 210.383 58.0531 210.638 57.978C210.894 57.9028 211.128 57.7902 211.158 57.7279C211.189 57.6656 211.462 57.5463 211.765 57.4629C212.068 57.3794 212.428 57.1856 212.563 57.0322C212.699 56.8787 212.95 56.7386 213.122 56.7208C213.293 56.7031 213.427 56.6287 213.419 56.5554C213.412 56.4822 213.497 56.4129 213.608 56.4014C213.719 56.3899 213.816 56.4352 213.823 56.502C213.83 56.569 214.01 56.5372 214.223 56.4314C214.437 56.3257 214.598 56.178 214.582 56.1032C214.507 55.7581 214.565 55.6431 214.784 55.7011C214.941 55.7428 214.98 55.7153 214.904 55.6173C214.832 55.525 214.887 55.4616 215.053 55.4443C215.198 55.4293 215.341 55.3289 215.37 55.221C215.4 55.1131 215.752 54.9216 216.152 54.7954C216.677 54.6301 216.895 54.4912 216.936 54.2977C216.996 54.014 217.669 53.5018 217.862 53.5937C217.991 53.6555 218.381 53.1477 218.36 52.9444C218.352 52.8705 218.486 52.7287 218.657 52.6293C218.842 52.522 218.932 52.3765 218.878 52.2712C218.748 52.0181 219.025 51.6688 219.385 51.6316C219.553 51.6141 219.716 51.5068 219.747 51.3929C219.807 51.1776 220.353 51.1067 220.523 51.2927C220.576 51.3506 220.653 51.3274 220.696 51.2412C220.738 51.1548 220.708 51.0909 220.63 51.099C220.552 51.1071 220.477 51.0175 220.465 50.8997C220.451 50.7599 220.372 50.7212 220.239 50.788C220.127 50.8442 219.925 50.8457 219.789 50.791C219.65 50.7347 219.467 50.7496 219.367 50.8258C219.267 50.902 219.085 50.9168 218.944 50.8601C218.794 50.7996 218.575 50.8213 218.386 50.9154C218.014 51.1011 217.559 50.9534 217.833 50.7358C217.932 50.6575 217.713 50.6489 217.29 50.7144C216.9 50.7748 216.566 50.8909 216.547 50.9725C216.529 51.0541 216.428 51.1298 216.323 51.1407C216.218 51.1516 216.141 51.2503 216.152 51.3602C216.168 51.5136 216.001 51.5778 215.432 51.6366C214.816 51.7003 214.686 51.6738 214.664 51.4805C214.649 51.349 214.601 51.31 214.552 51.3911C214.506 51.4699 214.354 51.6501 214.216 51.7913C213.989 52.023 213.925 52.0327 213.558 51.8904C213.195 51.7496 213.129 51.7579 212.937 51.969C212.76 52.1635 212.627 52.1898 212.189 52.117C211.414 51.9883 211.165 52.0437 211.116 52.3559C211.083 52.5685 211.003 52.6185 210.776 52.5699C210.613 52.535 210.374 52.5239 210.245 52.5453C210.117 52.5668 210.002 52.4982 209.991 52.3928C209.966 52.1457 209.842 52.1633 209.58 52.4514C209.464 52.5786 209.225 52.713 209.049 52.7502C208.873 52.7873 208.661 52.87 208.577 52.934C208.477 53.0102 208.414 52.9573 208.396 52.7802C208.377 52.5953 208.307 52.5409 208.175 52.6074C208.068 52.6609 208.02 52.7547 208.068 52.8161C208.116 52.8774 207.88 52.956 207.545 52.9907C207.073 53.0395 206.896 52.9969 206.763 52.8023C206.561 52.5057 206.249 52.5026 206.168 52.7966C206.132 52.9298 206.195 52.9995 206.344 52.9909C206.472 52.9834 206.512 53.012 206.432 53.0545C206.353 53.0967 206.017 53.0694 205.686 52.9937C205.355 52.918 205.038 52.8913 204.981 52.9346C204.924 52.9779 204.869 52.9272 204.858 52.8219C204.847 52.7167 204.733 52.5615 204.605 52.477C204.413 52.3502 204.402 52.2958 204.539 52.1647C204.63 52.0773 204.796 51.7728 204.907 51.4881C205.115 50.9571 205.377 50.7266 205.634 50.8493C205.726 50.8929 205.716 50.9684 205.609 51.0522C205.47 51.1607 205.476 51.182 205.642 51.1666C205.754 51.1561 205.909 51.0199 205.986 50.8638C206.064 50.7078 206.225 50.5699 206.345 50.5576C206.516 50.5398 206.533 50.5782 206.425 50.7381C206.334 50.8719 206.336 50.952 206.431 50.973C206.71 51.0342 207.916 50.7716 207.904 50.6525C207.897 50.5864 207.796 50.5421 207.679 50.5541C207.489 50.5738 207.486 50.5531 207.653 50.3505C207.805 50.1659 207.89 50.1499 208.123 50.2623C208.359 50.3764 208.448 50.355 208.648 50.1354C208.878 49.8822 208.895 49.8805 209.047 50.0937C209.179 50.279 209.237 50.284 209.397 50.1231C209.502 50.0167 209.654 49.9609 209.734 49.9991C209.814 50.0373 210.046 49.9599 210.251 49.8275C210.532 49.6452 210.736 49.6063 211.089 49.6679C211.667 49.769 211.628 49.777 211.606 49.5597C211.585 49.3549 212.73 49.0284 213.113 49.13C213.277 49.1736 213.314 49.1367 213.245 49.0006C213.175 48.8643 213.259 48.782 213.54 48.7112C213.825 48.6392 213.919 48.6619 213.882 48.7938C213.849 48.9152 213.95 48.9635 214.184 48.9392C214.377 48.9192 214.529 48.8393 214.521 48.7618C214.513 48.6843 214.58 48.656 214.671 48.6991C214.784 48.7533 214.802 48.6683 214.727 48.422L214.619 48.0665L215.382 48.0313C216.064 47.9998 216.156 48.0298 216.246 48.3112C216.412 48.8318 216.702 48.7692 216.646 48.2247C216.591 47.6935 216.663 47.6561 217.353 47.8609C217.769 47.9842 217.82 47.9786 217.739 47.8195C217.673 47.6914 217.713 47.6542 217.87 47.696C218.003 47.7312 218.089 47.688 218.079 47.5909C218.054 47.3517 219.105 47.4064 219.46 47.6628C219.624 47.7817 219.736 47.8032 219.727 47.7139C219.718 47.6293 219.638 47.5676 219.549 47.5768C219.432 47.5889 219.424 47.5492 219.52 47.432C219.859 47.0202 223.534 47.3521 223.977 47.8343C224.028 47.8896 224.162 47.9385 224.275 47.9431C224.563 47.955 225.304 48.4718 225.653 48.9055C225.815 49.1061 226.035 49.3244 226.143 49.3905C226.292 49.4828 226.33 49.697 226.307 50.3156C226.279 51.041 226.244 51.124 225.956 51.1538C225.639 51.1865 225.544 51.4987 225.625 52.2308C225.64 52.3588 225.539 52.5388 225.401 52.6309C225.263 52.7231 225.187 52.8453 225.232 52.9026C225.276 52.9599 225.23 53.0901 225.129 53.1921C225.028 53.2941 224.954 53.46 224.964 53.5608C224.975 53.6618 224.906 53.7523 224.812 53.7621C224.707 53.7729 224.653 53.9748 224.672 54.2813C224.724 55.0973 224.683 55.2722 224.341 55.6944C224.117 55.972 224.048 56.1815 224.121 56.3724C224.178 56.5247 224.143 56.8062 224.041 56.9997C223.94 57.1928 223.872 57.4911 223.89 57.6629C223.908 57.8346 223.845 58.1005 223.751 58.254C223.657 58.4074 223.595 58.698 223.613 58.8996C223.635 59.1348 223.574 59.2738 223.445 59.2872C223.333 59.2987 223.251 59.3916 223.262 59.4936C223.272 59.5956 223.189 59.725 223.077 59.7811C222.943 59.8486 222.912 59.97 222.987 60.1391C223.065 60.3173 223 60.5155 222.773 60.7912C222.591 61.0128 222.452 61.3641 222.457 61.5886C222.462 61.8094 222.375 62.0719 222.262 62.1719C222.15 62.2721 222.074 62.5067 222.094 62.6936C222.116 62.9076 221.992 63.1733 221.759 63.4114C221.556 63.6192 221.399 63.8831 221.411 63.9976C221.423 64.1122 221.341 64.2154 221.23 64.2269C221.118 64.2385 221.04 64.3662 221.056 64.5142C221.071 64.6606 221.03 64.786 220.966 64.7926C220.737 64.8163 220.798 65.937 221.04 66.1519C221.243 66.3327 221.247 66.3922 221.074 66.7215C220.857 67.1368 220.931 67.1931 221.224 66.8361C221.554 66.435 221.586 66.6865 221.277 67.2533C221.117 67.5481 220.991 67.8428 220.998 67.9085C221.005 67.974 220.886 67.9779 220.735 67.9168C220.584 67.8559 220.326 67.8351 220.161 67.8705C219.912 67.9243 219.834 67.8501 219.694 67.4237C219.584 67.0887 219.572 66.8579 219.657 66.7545C219.751 66.6419 219.768 66.6699 219.719 66.8532C219.664 67.0553 219.702 67.0924 219.899 67.0284C220.037 66.9838 220.127 66.8796 220.101 66.7969C220.075 66.7142 220.133 66.6677 220.232 66.6938C220.34 66.7226 220.399 66.6345 220.382 66.4679C220.361 66.2721 220.279 66.213 220.091 66.2591C219.885 66.3095 219.763 66.1907 219.531 65.7136C219.242 65.1196 219.241 65.098 219.487 64.8877C219.625 64.7691 219.692 64.6114 219.634 64.5374C219.576 64.4634 219.617 64.3938 219.724 64.3827C219.831 64.3717 219.938 64.2333 219.963 64.0752C219.988 63.917 220.077 63.8206 220.161 63.8607C220.245 63.9009 220.308 63.8702 220.3 63.7927C220.292 63.7152 220.231 63.6573 220.166 63.664C220.101 63.6708 220.003 63.5598 219.949 63.4173C219.895 63.2748 219.906 63.1526 219.973 63.1456C220.04 63.1387 220.083 63.0131 220.068 62.8666C220.052 62.7202 220.104 62.5937 220.183 62.5855C220.261 62.5774 220.282 62.5147 220.229 62.4462C220.175 62.3777 220.196 62.315 220.274 62.3069C220.353 62.2988 220.403 62.1556 220.386 61.9889C220.368 61.8221 220.424 61.5588 220.51 61.4041C220.596 61.2492 220.738 60.7969 220.826 60.3992C220.914 60.0015 221.042 59.6703 221.11 59.6632C221.178 59.6562 221.215 59.4724 221.193 59.2549C221.145 58.7945 221.735 57.191 222.001 57.0573C222.241 56.9369 222.202 56.6383 221.937 56.5679C221.615 56.4826 221.642 56.0822 222.01 55.4579C222.194 55.1467 222.367 54.6929 222.394 54.4496C222.421 54.2061 222.503 54.0009 222.576 53.9933C222.65 53.9857 222.66 53.8662 222.599 53.7277C222.423 53.3276 222.547 52.5301 222.854 52.084C223.152 51.6506 223.082 51.2491 222.716 51.2871C222.599 51.2991 222.4 51.2369 222.273 51.1488C222.145 51.0608 221.764 50.9783 221.426 50.9654C220.989 50.9487 220.873 50.9752 221.026 51.0561C221.218 51.1575 221.222 51.188 221.055 51.3299C220.888 51.4718 220.889 51.4848 221.067 51.4472C221.46 51.3641 221.607 51.4046 221.628 51.6014C221.639 51.7113 221.705 51.7953 221.775 51.7881C221.952 51.7698 221.876 52.7578 221.685 52.9414C221.599 53.0243 221.49 53.342 221.442 53.6473C221.361 54.1691 220.9 54.8396 220.602 54.8704C220.529 54.878 220.474 54.9594 220.481 55.0512C220.497 55.2478 220.063 55.6549 219.647 55.8337C219.48 55.9052 219.364 56.0675 219.379 56.2083C219.394 56.349 219.277 56.5114 219.111 56.5828C218.703 56.7583 218.261 57.1674 218.276 57.3565C218.29 57.5385 217.813 57.7939 217.282 57.8889C217.159 57.9108 217.103 57.9644 217.157 58.0079C217.212 58.0514 217.081 58.2769 216.867 58.509C216.443 58.969 216.056 59.1043 216.151 58.7598C216.199 58.5821 216.164 58.5783 215.924 58.7361C215.768 58.8391 215.614 58.9625 215.581 59.0103C215.359 59.337 214.652 59.7928 214.313 59.8278C213.927 59.8677 213.465 60.0817 212.498 60.6673C212.231 60.8288 211.758 60.9548 211.271 60.994C210.466 61.0589 210.301 61.1897 210.753 61.4044C210.971 61.508 210.959 61.5241 210.664 61.5283C210.273 61.5337 209.748 61.8987 209.774 62.1467C209.783 62.2389 209.728 62.3209 209.651 62.3288C209.555 62.3388 209.547 62.2588 209.625 62.0713C209.777 61.7035 209.744 61.5117 209.532 61.5336C209.434 61.5437 209.325 61.8102 209.287 62.1307C209.206 62.8189 208.897 62.9764 208.385 62.5911C208.039 62.3308 208.039 62.3309 208.142 62.6042C208.221 62.813 208.184 62.8844 207.986 62.9048C207.844 62.9196 207.618 63.0319 207.485 63.1542C207.175 63.4407 207.048 63.455 207.022 63.2065C207.01 63.0966 206.94 63.013 206.866 63.0207C206.792 63.0283 206.741 63.1245 206.752 63.2344C206.764 63.3442 206.682 63.4435 206.571 63.455C206.459 63.4665 206.375 63.5359 206.382 63.6091C206.39 63.6824 206.305 63.7517 206.194 63.7632C206.082 63.7747 205.985 63.7236 205.978 63.6499C205.969 63.5702 205.857 63.5956 205.703 63.7119C205.483 63.8774 205.412 63.8745 205.243 63.6932C205.134 63.5751 205.005 63.4823 204.958 63.4872C204.91 63.4921 204.882 63.6011 204.895 63.7292C204.913 63.8958 204.798 63.9834 204.495 64.0362C204.261 64.0769 204.032 64.1886 203.985 64.2843C203.938 64.3798 203.682 64.4745 203.417 64.4944C203.129 64.5161 202.941 64.5939 202.951 64.6877C202.982 64.9874 202.485 65.3655 202.127 65.3149C201.917 65.2854 201.79 65.3239 201.8 65.4144C201.808 65.4955 201.679 65.5782 201.512 65.598C201.346 65.6179 201.067 65.7355 200.892 65.8593C200.461 66.1653 199.906 66.211 199.6 65.9656C199.362 65.7742 199.354 65.7785 199.469 66.0391C199.574 66.2787 199.527 66.3345 199.115 66.4557C198.853 66.5327 198.597 66.562 198.546 66.5207C198.494 66.4795 198.333 66.5813 198.188 66.7469C198.007 66.9539 197.717 67.0774 197.265 67.1413C196.902 67.1927 196.575 67.2883 196.538 67.3539C196.478 67.4596 195.411 67.7251 194.798 67.7869C194.674 67.7994 194.508 67.9031 194.431 68.0171C194.353 68.1312 194.093 68.2449 193.851 68.2699C193.61 68.2949 193.203 68.428 192.948 68.5656C192.693 68.7034 192.048 68.9175 191.516 69.0414C190.983 69.1653 190.281 69.3561 189.955 69.4655C189.629 69.5747 189.162 69.6506 188.916 69.634C188.624 69.6144 188.363 69.6898 188.16 69.8529C187.99 69.9899 187.591 70.1297 187.273 70.1636C186.955 70.1975 186.455 70.3369 186.161 70.4732C185.627 70.7212 185.19 70.7693 184.728 70.6303C184.593 70.5898 184.511 70.5002 184.545 70.4313C184.578 70.3624 184.516 70.3514 184.405 70.4068C184.294 70.4624 184.209 70.5555 184.215 70.6137C184.231 70.7696 183.462 71.1154 182.848 71.2286C182.554 71.2827 181.695 71.4286 180.94 71.5527C179.574 71.7773 179.566 71.7767 179.526 71.4737C179.487 71.1742 179.484 71.174 179.4 71.4619C179.289 71.8401 178.961 72.0007 178.598 71.8544C178.44 71.7908 178.153 71.7957 177.962 71.8654C177.54 72.0186 175.538 72.2392 175.421 72.1452C175.375 72.1085 175.23 72.1501 175.099 72.2376C174.94 72.3443 174.857 72.3525 174.847 72.2624C174.839 72.1838 174.668 72.1788 174.435 72.2504C174.085 72.3578 174.045 72.3409 174.106 72.1127C174.173 71.8649 174.166 71.8648 173.963 72.1103C173.845 72.2519 173.597 72.3836 173.412 72.4027C173.227 72.4218 172.965 72.5117 172.83 72.6023C172.645 72.7255 172.578 72.7239 172.565 72.596C172.551 72.4651 172.056 72.4695 170.46 72.6145C169.31 72.7189 168.247 72.7533 168.093 72.6911C167.938 72.629 167.657 72.5942 167.466 72.6139C167.228 72.6386 167.112 72.5776 167.094 72.4168C167.072 72.2183 167.052 72.2154 166.961 72.397C166.877 72.5637 166.59 72.6322 165.644 72.7122C164.979 72.7683 164.299 72.7595 164.133 72.6924C163.967 72.6255 163.525 72.5998 163.153 72.6355C162.7 72.6789 162.444 72.641 162.383 72.5218C162.332 72.4235 162.237 72.3848 162.17 72.4356C162.103 72.4863 161.839 72.5111 161.583 72.4905C161.224 72.4617 161.129 72.3992 161.168 72.2173C161.208 72.0304 161.194 72.023 161.103 72.1817C160.968 72.4172 159.985 72.439 158.766 72.2337C158.346 72.1629 157.773 72.0924 157.491 72.0768C157.209 72.0612 156.902 71.9735 156.807 71.8819C156.712 71.7903 156.498 71.7294 156.331 71.7467C156.164 71.7639 155.767 71.7164 155.449 71.6412C155.13 71.5659 154.784 71.5474 154.679 71.6002C154.458 71.711 153.094 71.4098 153.077 71.2465C153.071 71.1864 152.917 71.1907 152.735 71.2562C152.55 71.3229 152.314 71.3147 152.197 71.2374C152.082 71.1615 151.879 71.1222 151.747 71.1498C151.329 71.2366 151.262 71.2004 151.417 70.972C151.549 70.7773 151.525 70.7716 151.218 70.9245C150.93 71.068 150.812 71.0566 150.549 70.8604C150.373 70.7294 149.996 70.6096 149.71 70.5943C149.425 70.579 149.187 70.5208 149.181 70.465C149.175 70.4094 149.095 70.3761 149.003 70.3911C148.911 70.406 148.572 70.3963 148.249 70.3692C147.84 70.3349 147.696 70.2712 147.773 70.158C147.851 70.0429 147.712 70.0099 147.295 70.0441C146.971 70.0705 146.543 70.0088 146.343 69.907C146.143 69.805 145.883 69.7316 145.766 69.7438C145.413 69.7802 144.716 69.456 144.694 69.2454C144.683 69.1374 144.588 69.058 144.483 69.0689C144.378 69.0798 144.254 69.017 144.207 68.9292C144.139 68.8017 144.123 68.8033 144.128 68.9374C144.136 69.1332 143.737 69.2096 143.717 69.0161C143.709 68.9443 143.552 68.8642 143.368 68.8382C143.183 68.8122 142.995 68.718 142.949 68.6288C142.903 68.5397 142.629 68.4539 142.339 68.4384C142.049 68.4229 141.715 68.3029 141.597 68.1718C141.479 68.0408 141.304 67.9729 141.208 68.021C141.102 68.0741 141.02 68.0117 140.998 67.8623C140.978 67.7269 140.94 67.6907 140.912 67.7819C140.852 67.9868 140.468 67.9015 140.444 67.6779C140.435 67.5883 140.269 67.4606 140.074 67.3941C139.88 67.3277 139.549 67.2155 139.337 67.1448C139.126 67.0741 138.842 66.9369 138.706 66.8399C137.774 66.1743 137.539 66.0334 137.271 65.9789C137.035 65.931 136.98 65.8458 137.017 65.5887C137.066 65.2566 136.847 65.1392 136.774 65.4583C136.743 65.5929 136.652 65.5974 136.356 65.4788C136.082 65.3691 135.966 65.2222 135.938 64.95C135.909 64.6665 135.835 64.5797 135.639 64.5999C135.496 64.6147 135.279 64.5463 135.156 64.4479C135.034 64.3496 134.894 64.2732 134.846 64.2781C134.798 64.2831 134.292 63.9115 133.721 63.4524C133.15 62.9933 132.625 62.6235 132.556 62.6307C132.486 62.6379 132.424 62.594 132.418 62.5331C132.412 62.4723 132.247 62.358 132.051 62.2792C131.856 62.2003 131.688 62.0601 131.678 61.9675C131.669 61.875 131.53 61.7727 131.371 61.7402C131.142 61.6938 131.091 61.6082 131.131 61.3393C131.189 60.9433 130.928 60.6277 130.655 60.7647C130.551 60.8169 130.294 60.7199 130.079 60.547C129.865 60.3756 129.634 60.2411 129.564 60.2483C129.495 60.2555 129.449 60.1542 129.463 60.0232C129.477 59.8921 129.386 59.7048 129.26 59.6068C128.986 59.3932 128.884 58.9761 129.098 58.9421C129.182 58.9287 129.109 58.8776 128.935 58.8287C128.761 58.7796 128.61 58.6478 128.598 58.5355C128.586 58.4153 128.701 58.3152 128.879 58.2918C129.174 58.2529 129.173 58.2491 128.83 58.1413C128.636 58.0806 128.398 58.0525 128.3 58.0789C128.039 58.1494 127.695 57.7244 127.757 57.4079C127.804 57.17 127.785 57.1602 127.614 57.3334C127.319 57.6307 127.081 57.4422 127.112 56.935C127.129 56.6482 127.083 56.5022 126.981 56.5158C126.452 56.5852 126.347 56.5296 126.308 56.1579C126.286 55.9383 126.178 55.7486 126.058 55.7169C125.943 55.6863 125.832 55.5095 125.813 55.324C125.791 55.1132 125.703 54.9948 125.576 55.0079C125.447 55.0213 125.361 54.9006 125.337 54.6731C125.317 54.4775 125.191 54.2206 125.058 54.1022C124.925 53.984 124.789 53.714 124.756 53.5025C124.723 53.291 124.601 53.0253 124.484 52.9122C124.3 52.7338 124.3 52.6735 124.487 52.4556C124.691 52.2176 124.699 52.2223 124.646 52.5468C124.603 52.8088 124.618 52.8388 124.711 52.6748C124.801 52.5153 124.837 52.5053 124.852 52.6359C124.877 52.8568 125.434 52.732 125.487 52.4934C125.512 52.38 125.45 52.3592 125.304 52.4324C125.159 52.5051 124.996 52.4532 124.834 52.2828C124.685 52.1262 124.407 52.0274 124.137 52.0355C123.741 52.0476 123.694 52.0119 123.735 51.7313C123.785 51.3894 123.533 51.1141 123.201 51.1485C122.983 51.171 122.948 50.696 123.156 50.5367C123.305 50.4232 123.108 50.0287 122.748 49.7175C122.329 49.3552 122.221 48.924 122.465 48.5947C122.671 48.3174 122.666 48.3101 122.305 48.3474C122.008 48.3781 121.946 48.3376 121.998 48.1477C122.034 48.0168 122.026 47.9546 121.981 48.0096C121.816 48.2093 121.308 47.1935 121.19 46.4304C121.124 46.0005 121.038 45.652 121 45.656C120.962 45.6598 120.876 45.2931 120.809 44.841C120.743 44.3889 120.632 43.9916 120.563 43.9581C120.377 43.8676 120.171 42.891 120.281 42.6247C120.338 42.4885 120.3 42.1988 120.189 41.9173C120.015 41.4761 120.028 41.4101 120.362 41.0312C120.672 40.6794 120.759 40.6424 120.979 40.769ZM123.128 47.8056C123.131 47.8344 123.224 47.8486 123.336 47.8371C123.447 47.8256 123.532 47.7581 123.525 47.6871C123.517 47.6163 123.424 47.6021 123.317 47.6557C123.21 47.7094 123.125 47.7769 123.128 47.8056ZM124.722 50.0233C124.727 50.0827 124.788 50.088 124.857 50.035C124.927 49.9821 124.972 49.8375 124.958 49.7138C124.936 49.52 124.918 49.5183 124.823 49.7021C124.762 49.8194 124.717 49.9639 124.722 50.0233ZM124.421 51.0896C124.429 51.1628 124.496 51.2165 124.57 51.2088C124.644 51.2011 124.699 51.1349 124.691 51.0617C124.684 50.9884 124.617 50.9348 124.543 50.9424C124.468 50.9501 124.414 51.0163 124.421 51.0896ZM129.233 56.1102C129.195 56.1882 129.262 56.2418 129.381 56.2294C129.501 56.217 129.556 56.1508 129.503 56.0823C129.449 56.0138 129.382 55.9602 129.354 55.9631C129.326 55.966 129.271 56.0322 129.233 56.1102ZM127.852 56.5895C127.863 56.6994 127.971 56.7791 128.091 56.7667C128.27 56.7481 128.276 56.7111 128.121 56.5616C128.018 56.4613 127.91 56.3816 127.882 56.3845C127.854 56.3874 127.84 56.4797 127.852 56.5895ZM128.709 56.972C128.716 57.0452 128.787 57.0985 128.865 57.0904C128.944 57.0822 128.964 57.0195 128.911 56.951C128.858 56.8825 128.787 56.8293 128.755 56.8326C128.722 56.836 128.701 56.8987 128.709 56.972ZM129.489 57.0923C129.543 57.1974 129.644 57.24 129.714 57.1869C129.792 57.1275 129.765 57.0537 129.646 56.9949C129.384 56.8667 129.376 56.8716 129.489 57.0923ZM129.19 57.6704C129.202 57.7845 129.268 57.8347 129.338 57.7818C129.407 57.7288 129.458 57.6292 129.451 57.5602C129.444 57.4912 129.377 57.4412 129.303 57.4489C129.229 57.4565 129.178 57.5563 129.19 57.6704ZM215.699 49.2791C215.832 49.2992 215.948 49.3812 215.956 49.4612C215.964 49.5413 216.004 49.5671 216.044 49.5185C216.165 49.3715 215.924 49.1619 215.683 49.2036C215.479 49.2388 215.48 49.2462 215.699 49.2791ZM217.867 49.9715C217.921 50.077 217.983 50.1614 218.004 50.1592C218.025 50.1571 218.068 50.0618 218.099 49.9475C218.134 49.8221 218.08 49.7477 217.963 49.7597C217.846 49.7718 217.808 49.8558 217.867 49.9715ZM208.613 50.9286C208.491 51.1094 208.512 51.141 208.738 51.1176C208.887 51.1021 209.035 50.996 209.067 50.8817C209.1 50.7604 209.048 50.6817 208.942 50.6927C208.842 50.703 208.694 50.8092 208.613 50.9286ZM129.294 59.3341C129.255 59.4132 129.362 59.4607 129.535 59.4417C129.786 59.4141 129.804 59.3863 129.631 59.2993C129.363 59.1651 129.377 59.1637 129.294 59.3341ZM208.149 51.887C208.275 51.9881 208.312 51.965 208.294 51.796C208.281 51.6715 208.335 51.563 208.414 51.5549C208.492 51.5468 208.513 51.4837 208.459 51.4146C208.398 51.3374 208.288 51.378 208.171 51.5204C208.029 51.693 208.023 51.786 208.149 51.887ZM220.449 50.3914C220.499 50.431 220.616 50.4237 220.709 50.3752C220.812 50.3216 220.777 50.2933 220.619 50.3032C220.476 50.3122 220.4 50.3518 220.449 50.3914ZM225.96 50.0094C225.967 50.0826 226.034 50.1363 226.108 50.1286C226.182 50.1209 226.237 50.0547 226.229 49.9815C226.222 49.9083 226.155 49.8546 226.081 49.8623C226.007 49.8699 225.952 49.9361 225.96 50.0094ZM209.334 52.0738C209.616 52.2998 209.627 52.2 209.357 51.858C209.25 51.7213 209.148 51.6716 209.13 51.7474C209.113 51.8233 209.205 51.9701 209.334 52.0738ZM209.087 52.4527C209.141 52.5544 209.169 52.5196 209.16 52.3637C209.151 52.2228 209.111 52.1475 209.071 52.1963C209.031 52.2452 209.038 52.3606 209.087 52.4527ZM213.355 51.9781C213.362 52.047 213.311 52.1467 213.241 52.1996C213.172 52.2526 213.105 52.2024 213.094 52.0882C213.082 51.9741 213.133 51.8744 213.207 51.8667C213.281 51.859 213.348 51.9091 213.355 51.9781ZM219.847 51.5085C219.85 51.5409 219.917 51.598 219.996 51.6356C220.075 51.6732 220.133 51.6404 220.125 51.5629C220.117 51.4854 220.05 51.4282 219.975 51.4359C219.901 51.4435 219.843 51.4762 219.847 51.5085ZM211.533 52.4603C211.451 52.5608 211.347 52.6129 211.301 52.5762C211.255 52.5395 211.322 52.4573 211.45 52.3935C211.635 52.3014 211.652 52.315 211.533 52.4603ZM204.664 60.8258C204.625 60.9038 204.655 60.9613 204.729 60.9537C204.803 60.946 204.895 60.8759 204.933 60.7979C204.971 60.72 204.942 60.6624 204.868 60.6701C204.794 60.6778 204.702 60.7478 204.664 60.8258ZM148.47 69.7586C148.524 69.8603 148.552 69.8254 148.543 69.6696C148.534 69.5287 148.494 69.4534 148.454 69.5022C148.414 69.5511 148.421 69.6665 148.47 69.7586ZM152.555 69.7959C152.604 69.8354 152.721 69.8282 152.814 69.7797C152.918 69.7261 152.882 69.6978 152.725 69.7077C152.582 69.7166 152.506 69.7563 152.555 69.7959ZM151.303 69.9034C151.317 70.0439 151.582 70.0763 151.646 69.9453C151.685 69.866 151.623 69.811 151.507 69.823C151.391 69.8349 151.3 69.8711 151.303 69.9034ZM166.022 69.2624C165.982 69.3427 166.039 69.3595 166.154 69.3016C166.378 69.1889 166.411 69.089 166.217 69.1091C166.147 69.1163 166.06 69.1853 166.022 69.2624ZM220.303 65.1383C220.318 65.2891 220.385 65.3711 220.452 65.3205C220.518 65.2699 220.529 65.144 220.476 65.0408C220.341 64.7766 220.269 64.8167 220.303 65.1383ZM164.945 70.7212C164.907 70.7991 164.97 70.8532 165.086 70.8412C165.201 70.8293 165.29 70.7595 165.282 70.6863C165.275 70.6131 165.212 70.559 165.142 70.5663C165.072 70.5735 164.984 70.6432 164.945 70.7212ZM219.741 65.6964C219.837 65.7788 220.194 65.5037 220.118 65.4059C220.071 65.3453 219.958 65.3784 219.868 65.4796C219.777 65.5807 219.72 65.6783 219.741 65.6964ZM219.603 66.2795C219.611 66.3527 219.553 66.4193 219.474 66.4274C219.396 66.4355 219.363 66.3784 219.401 66.3004C219.439 66.2224 219.497 66.1559 219.53 66.1525C219.563 66.1491 219.595 66.2063 219.603 66.2795ZM175.72 71.4767C175.727 71.5421 175.823 71.6198 175.935 71.6494C176.071 71.6855 176.107 71.6419 176.043 71.5181C175.94 71.3159 175.7 71.2852 175.72 71.4767ZM178.459 71.6116C178.467 71.6848 178.533 71.7385 178.608 71.7308C178.682 71.7231 178.736 71.6569 178.729 71.5837C178.721 71.5104 178.654 71.4568 178.58 71.4645C178.506 71.4721 178.451 71.5383 178.459 71.6116ZM220.565 67.6749C220.585 67.8664 220.813 67.7874 220.873 67.5682C220.91 67.434 220.866 67.3987 220.74 67.4618C220.637 67.5136 220.558 67.6095 220.565 67.6749ZM220.518 68.2956C220.425 68.3442 220.308 68.3514 220.259 68.3118C220.21 68.2723 220.286 68.2326 220.429 68.2236C220.586 68.2138 220.622 68.242 220.518 68.2956Z" fill="#F1ECEA"/>
</svg>
