<svg width="209" height="113" viewBox="0 0 209 113" fill="none" xmlns="http://www.w3.org/2000/svg">
<path d="M15.6777 18.7598C16.5215 18.4902 16.8789 18.8184 16.75 19.7441C12.9766 22.6387 11.1543 24.2617 11.2832 24.6133C10.9434 25.2461 11.1074 25.6328 11.7754 25.7734C13.0176 25.6094 14.5 25.1055 16.2227 24.2617C17.957 23.4062 18.748 23.2012 18.5957 23.6465C18.1855 24.5137 16.7559 25.4395 14.3066 26.4238C11.8691 27.3965 10.457 27.6484 10.0703 27.1797C9.68359 26.7109 9.5957 25.6973 9.80664 24.1387L3.56641 27.0566C2.79297 27.2676 2.13672 27.291 1.59766 27.127C1.07031 26.9512 0.876953 26.4414 1.01758 25.5977C3.44336 21.8945 5.16016 19.873 6.16797 19.5332C7.17578 19.1816 7.41602 19.4102 6.88867 20.2188C3.77148 23.4062 2.30664 25.2285 2.49414 25.6855C2.69336 26.1426 4.29297 25.5742 7.29297 23.9805C10.293 22.375 13.0879 20.6348 15.6777 18.7598ZM34.3105 18.7598C34.9668 18.6309 35.1953 18.8945 34.9961 19.5508L32.2188 22.3633H32.5703C35.3125 21.0273 37.5156 20.3594 39.1797 20.3594C39.6133 20.4648 39.7246 20.7285 39.5137 21.1504C33.959 22.8613 31.1816 24.3262 31.1816 25.5449C31.2637 25.8848 31.5273 26.0605 31.9727 26.0723C34.75 25.9902 37.8438 25.416 41.2539 24.3496C41.875 24.3027 41.9922 24.5723 41.6055 25.1582C39.707 26.4004 36.3496 27.1973 31.5332 27.5488C30.373 27.3848 29.793 26.5879 29.793 25.1582L27.0156 26.3535C26.7461 26.2012 26.6289 25.9316 26.6641 25.5449L34.3105 18.7598ZM50.8516 18.6543C51.9648 18.5488 52.7266 19.1758 53.1367 20.5352C52.832 21.4023 52.2988 22.1523 51.5371 22.7852H51.8359C53.1719 21.7656 53.9512 21.6191 54.1738 22.3457C51.5605 23.8105 50.1777 24.9355 50.0254 25.7207C49.873 26.4941 50.2891 26.7227 51.2734 26.4062L55.7207 24.6133C56.1543 24.7422 56.2539 24.9883 56.0195 25.3516C53.3477 26.8164 51.3555 27.5488 50.043 27.5488C48.8242 27.4082 48.625 26.5527 49.4453 24.9824C45.6367 26.6934 43.1465 27.5488 41.9746 27.5488C41.166 27.2559 40.8672 26.5234 41.0781 25.3516C43.7734 20.957 47.0312 18.7246 50.8516 18.6543ZM44.5938 22.8906C42.7188 24.6602 41.9395 25.7617 42.2559 26.1953C42.5723 26.6289 43.8672 26.3535 46.1406 25.3691C48.4258 24.373 50.0195 23.084 50.9219 21.502C51.7656 20.459 51.4844 19.9082 50.0781 19.8496C48.2969 20.0957 46.4688 21.1094 44.5938 22.8906ZM63.3848 18.7598C64.041 18.6309 64.2695 18.8945 64.0703 19.5508L61.293 22.3633H61.6445C64.3867 21.0273 66.5898 20.3594 68.2539 20.3594C68.6875 20.4648 68.7988 20.7285 68.5879 21.1504C63.0332 22.8613 60.2559 24.3262 60.2559 25.5449C60.3379 25.8848 60.6016 26.0605 61.0469 26.0723C63.8242 25.9902 66.918 25.416 70.3281 24.3496C70.9492 24.3027 71.0664 24.5723 70.6797 25.1582C68.7812 26.4004 65.4238 27.1973 60.6074 27.5488C59.4473 27.3848 58.8672 26.5879 58.8672 25.1582L56.0898 26.3535C55.8203 26.2012 55.7031 25.9316 55.7383 25.5449L63.3848 18.7598ZM86.377 18.8125C88.5449 18.3203 90.0156 18.1738 90.7891 18.373C91.5742 18.5605 91.9902 18.8828 92.0371 19.3398C92.084 19.7852 91.7676 20.4824 91.0879 21.4316C89.2246 22.9668 87.6895 23.5293 86.4824 23.1191L85.7793 22.7676C85.334 22.2168 85.5156 21.3086 86.3242 20.043C85.5039 20.3711 84.6426 20.7695 83.7402 21.2383C81.4551 22.4453 80.2363 23.459 80.084 24.2793C79.416 25.6152 79.8086 26.2539 81.2617 26.1953C89.3945 24.625 93.4141 24.1855 93.3203 24.877C86.043 26.6582 81.7363 27.5137 80.4004 27.4434C79.0645 27.373 78.3906 27.0273 78.3789 26.4062C77.9453 24.8945 78.625 23.377 80.418 21.8535C82.2227 20.3184 84.209 19.3047 86.377 18.8125ZM86.3066 20.1133C87.1973 20.1133 87.8125 20.418 88.1523 21.0273C85.6211 22.2344 85.6504 22.6152 88.2402 22.1699C89.3535 21.5605 90.0918 20.9746 90.4551 20.4121C90.8184 19.8379 90.5957 19.5391 89.7871 19.5156C88.9902 19.4805 87.8301 19.6797 86.3066 20.1133ZM105.994 18.9707C107.764 17.9512 108.361 17.9922 107.787 19.0938C107.096 19.75 105.004 21.2969 101.512 23.7344C101.113 24.4961 100.914 25.082 100.914 25.4922C100.914 25.8906 101.441 25.8906 102.496 25.4922C103.562 25.082 104.928 24.2383 106.592 22.9609C106.943 23.0078 107.078 23.2773 106.996 23.7695C106.926 24.25 106.17 24.8594 104.729 25.5977C103.299 26.3242 102.139 26.7402 101.248 26.8457C100.369 26.9395 99.8887 26.8516 99.8066 26.582C99.7363 26.3008 99.8066 25.6035 100.018 24.4902L94.041 27.5488C93.3965 27.6895 93.0977 27.4375 93.1445 26.793C93.9883 24.5547 94.5859 23.4062 94.9375 23.3477C95.6289 23.3008 95.8281 23.6816 95.5352 24.4902C94.4688 25.8848 94.4688 26.2656 95.5352 25.6328C99.9414 23.5234 103.428 21.3027 105.994 18.9707ZM115.943 19.1465C116.939 18.7129 117.918 18.5781 118.879 18.7422C119.84 18.8945 120.326 19.5391 120.338 20.6758C120.338 22.2812 117.209 23.4238 110.951 24.1035C109.639 24.4785 108.994 24.9355 109.018 25.4746C109.053 26.0137 109.293 26.3418 109.738 26.459C110.195 26.5645 110.676 26.6406 111.18 26.6875C111.695 26.7227 113.623 26.4121 116.963 25.7559C120.303 25.0879 121.949 24.8594 121.902 25.0703C121.867 25.2695 120.285 25.7734 117.156 26.582C114.039 27.3789 111.484 27.7012 109.492 27.5488C108.156 27.1738 107.623 26.418 107.893 25.2812L108.033 24.4902H106.855C106.762 24.209 106.961 23.9512 107.453 23.7168C107.957 23.4707 110.787 21.9473 115.943 19.1465ZM113.887 21.4316C110.242 22.9902 110.418 23.3887 114.414 22.627C117.637 21.8301 119.248 21.1445 119.248 20.5703C119.248 19.9961 118.545 19.7852 117.139 19.9375L113.887 21.4316ZM128.441 5.48828L130.023 5.57617L131.359 5.73438L132.713 5.92773C133.486 6.06836 134.471 6.29102 135.666 6.5957C138.209 7.42773 139.996 8.62305 141.027 10.1816C142.07 11.7285 142.58 12.8418 142.557 13.5215C142.557 18.0801 137.986 22.0762 128.846 25.5098C126.045 26.752 123.971 27.373 122.623 27.373C121.779 27.291 121.533 26.7461 121.885 25.7383C125.459 20.8516 128.963 18.4082 132.396 18.4082C133.615 18.4082 134.225 19.3574 134.225 21.2559H134.945C139.059 19.1113 141.115 16.8027 141.115 14.3301C141.467 13.7559 140.951 12.4902 139.568 10.5332C138.197 8.56445 135.133 7.41016 130.375 7.07031C125.629 6.71875 121.176 6.73633 117.016 7.12305C111.344 8.33008 108.508 9.64844 108.508 11.0781C107.758 11.7578 107.389 11.6172 107.4 10.6562C108.982 7.39844 113.939 5.6875 122.271 5.52344L125.787 5.40039L128.441 5.48828ZM125.242 23.3125C122.711 25.7617 123.391 26.3242 127.281 25C131.184 23.6641 133.135 22.2812 133.135 20.8516V20.4473C132.736 19.5801 132.01 19.3047 130.955 19.6211C129.689 19.6211 127.785 20.8516 125.242 23.3125ZM143.646 18.8125C145.814 18.3203 147.285 18.1738 148.059 18.373C148.844 18.5605 149.26 18.8828 149.307 19.3398C149.354 19.7852 149.037 20.4824 148.357 21.4316C146.494 22.9668 144.959 23.5293 143.752 23.1191L143.049 22.7676C142.604 22.2168 142.785 21.3086 143.594 20.043C142.773 20.3711 141.912 20.7695 141.01 21.2383C138.725 22.4453 137.506 23.459 137.354 24.2793C136.686 25.6152 137.078 26.2539 138.531 26.1953C146.664 24.625 150.684 24.1855 150.59 24.877C143.312 26.6582 139.006 27.5137 137.67 27.4434C136.334 27.373 135.66 27.0273 135.648 26.4062C135.215 24.8945 135.895 23.377 137.688 21.8535C139.492 20.3184 141.479 19.3047 143.646 18.8125ZM143.576 20.1133C144.467 20.1133 145.082 20.418 145.422 21.0273C142.891 22.2344 142.92 22.6152 145.51 22.1699C146.623 21.5605 147.361 20.9746 147.725 20.4121C148.088 19.8379 147.865 19.5391 147.057 19.5156C146.26 19.4805 145.1 19.6797 143.576 20.1133ZM151.082 18.7598L167.992 19.0938C168.449 19.4102 168.408 19.7383 167.869 20.0781C167.33 20.418 165.344 20.541 161.91 20.4473L158.975 20.377C158.225 20.4238 156.273 20.2246 153.121 19.7793C154.023 20.752 154.475 22.3281 154.475 24.5078C157.041 22.4805 158.84 21.4668 159.871 21.4668C160.293 21.502 160.41 21.7246 160.223 22.1348L152.787 27.5488C152.318 27.5371 152.09 27.3145 152.102 26.8809L153.121 25.5273C153.121 22.375 152.219 20.2305 150.414 19.0938C150.379 18.8008 150.602 18.6895 151.082 18.7598ZM189.684 5.54102C190.914 4.91992 191.605 5.27148 191.758 6.5957V7.63281C190.328 10.8203 185.195 14.3125 176.359 18.1094V18.4609C178.516 18.4609 179.594 19.2754 179.594 20.9043C179.113 22.3809 175.27 24.5957 168.062 27.5488C166.621 27.7363 165.795 27.7422 165.584 27.5664C165.373 27.3906 165.309 27.0332 165.391 26.4941C166.926 24.1738 167.969 22.9434 168.52 22.8027L168.643 22.3105L166.287 24.4023L165.971 24.0508V23.6992C166.123 22.4688 169.393 20.1426 175.779 16.7207C182.189 11.002 186.824 7.27539 189.684 5.54102ZM179.014 15.3145H179.33C186.818 11.6582 190.562 8.98047 190.562 7.28125C190.867 6.40234 190.369 6.36719 189.068 7.17578C187.779 7.97266 184.428 10.6855 179.014 15.3145ZM167.166 25.8086C166.639 26.3711 166.938 26.4883 168.062 26.1602C172.633 24.5195 175.99 22.8848 178.135 21.2559C178.697 20.1543 178.105 19.5742 176.359 19.5156C173.875 19.5156 170.811 21.6133 167.166 25.8086ZM190.545 18.7598C191.389 18.4902 191.746 18.8184 191.617 19.7441C187.844 22.6387 186.021 24.2617 186.15 24.6133C185.811 25.2461 185.975 25.6328 186.643 25.7734C187.885 25.6094 189.367 25.1055 191.09 24.2617C192.824 23.4062 193.615 23.2012 193.463 23.6465C193.053 24.5137 191.623 25.4395 189.174 26.4238C186.736 27.3965 185.324 27.6484 184.938 27.1797C184.551 26.7109 184.463 25.6973 184.674 24.1387L178.434 27.0566C177.66 27.2676 177.004 27.291 176.465 27.127C175.938 26.9512 175.744 26.4414 175.885 25.5977C178.311 21.8945 180.027 19.873 181.035 19.5332C182.043 19.1816 182.283 19.4102 181.756 20.2188C178.639 23.4062 177.174 25.2285 177.361 25.6855C177.561 26.1426 179.16 25.5742 182.16 23.9805C185.16 22.375 187.955 20.6348 190.545 18.7598ZM202.393 19.1465C203.389 18.7129 204.367 18.5781 205.328 18.7422C206.289 18.8945 206.775 19.5391 206.787 20.6758C206.787 22.2812 203.658 23.4238 197.4 24.1035C196.088 24.4785 195.443 24.9355 195.467 25.4746C195.502 26.0137 195.742 26.3418 196.188 26.459C196.645 26.5645 197.125 26.6406 197.629 26.6875C198.145 26.7227 200.072 26.4121 203.412 25.7559C206.752 25.0879 208.398 24.8594 208.352 25.0703C208.316 25.2695 206.734 25.7734 203.605 26.582C200.488 27.3789 197.934 27.7012 195.941 27.5488C194.605 27.1738 194.072 26.418 194.342 25.2812L194.482 24.4902H193.305C193.211 24.209 193.41 23.9512 193.902 23.7168C194.406 23.4707 197.236 21.9473 202.393 19.1465ZM200.336 21.4316C196.691 22.9902 196.867 23.3887 200.863 22.627C204.086 21.8301 205.697 21.1445 205.697 20.5703C205.697 19.9961 204.994 19.7852 203.588 19.9375L200.336 21.4316Z" fill="#F1ECEA"/>
<path opacity="0.5" fill-rule="evenodd" clip-rule="evenodd" d="M136.939 41.5643C136.95 41.6952 136.91 41.7751 136.821 41.7975C136.724 41.8222 136.752 41.8752 136.923 41.9888C137.052 42.0753 137.207 42.1141 137.265 42.0751C137.434 41.9625 137.632 42.154 137.67 42.4685C137.69 42.6275 137.757 42.7919 137.82 42.8339C137.962 42.9279 138.051 42.8151 137.954 42.6646C137.914 42.6038 137.952 42.6196 138.037 42.6996C138.147 42.8026 138.2 42.807 138.218 42.7146C138.232 42.6427 138.283 42.6106 138.332 42.6432C138.381 42.6757 138.394 42.7441 138.361 42.7952C138.321 42.857 138.351 42.8682 138.45 42.8285C138.578 42.7773 138.603 42.8016 138.628 42.9999C138.644 43.1269 138.641 43.3306 138.621 43.4524C138.601 43.5784 138.638 43.6778 138.708 43.6829C138.793 43.689 138.81 43.6507 138.764 43.5559C138.713 43.4525 138.737 43.4426 138.865 43.5146C138.958 43.5666 139.079 43.6339 139.134 43.664C139.19 43.6942 139.278 43.7123 139.33 43.704C139.57 43.6666 139.56 43.8095 139.303 44.0856C139.003 44.4078 139.004 44.4492 139.31 44.4014C139.49 44.3734 139.511 44.3861 139.487 44.5119C139.472 44.5902 139.522 44.6702 139.6 44.6899C139.678 44.7097 139.711 44.7701 139.675 44.8262C139.625 44.904 139.644 44.9136 139.761 44.8683C139.89 44.8182 139.9 44.8285 139.828 44.9394C139.775 45.0208 139.805 45.1102 139.91 45.1797C140.001 45.2406 140.097 45.3762 140.123 45.481C140.149 45.5858 140.294 45.7541 140.445 45.8548C140.597 45.9556 140.7 46.0687 140.676 46.1063C140.615 46.1973 140.953 46.7355 141.076 46.7443C141.13 46.7482 141.153 46.7825 141.127 46.8207C141.072 46.9039 141.631 47.8116 141.811 47.9317C141.881 47.9782 141.917 48.1001 141.89 48.2024C141.864 48.3048 141.893 48.4024 141.957 48.4192C142.087 48.4539 142.421 49.0483 142.447 49.291C142.461 49.4272 142.495 49.4465 142.672 49.4188C142.934 49.3778 143.108 49.4863 142.95 49.5918C142.754 49.7223 142.762 49.9452 142.969 50.0826C143.09 50.1629 143.22 50.4297 143.314 50.7921C143.421 51.1991 143.519 51.3894 143.642 51.428C143.773 51.4691 143.786 51.5041 143.693 51.5663C143.568 51.6495 143.626 51.7314 143.925 51.8921C144.007 51.9365 144.062 52.039 144.046 52.12C144.029 52.2066 144.113 52.3308 144.25 52.4218C144.394 52.5175 144.457 52.615 144.415 52.6778C144.378 52.7336 144.372 52.8497 144.402 52.9358C144.433 53.0268 144.38 53.1799 144.276 53.3009C144.125 53.4747 144.123 53.5164 144.265 53.5524C144.358 53.5761 144.393 53.6021 144.341 53.6101C144.238 53.6263 144.293 54.0433 144.408 54.1204C144.495 54.1781 144.587 54.5093 144.537 54.5844C144.5 54.6395 144.59 54.9495 144.832 55.608C144.913 55.8288 144.961 56.0379 144.937 56.0728C144.877 56.1638 145.044 56.8259 145.169 56.9924C145.227 57.0697 145.244 57.1802 145.205 57.2379C145.167 57.2955 145.177 57.3979 145.228 57.4653C145.278 57.5327 145.275 57.6551 145.22 57.7374C145.166 57.8196 145.166 57.9172 145.222 57.9542C145.278 57.9913 145.324 58.1235 145.326 58.2482C145.328 58.4152 145.366 58.4688 145.473 58.4522C145.552 58.4398 145.655 58.4559 145.7 58.4879C145.746 58.52 145.697 58.538 145.593 58.5278C145.312 58.5006 145.292 58.5945 145.444 59.2127C145.52 59.5204 145.552 59.7771 145.514 59.7829C145.477 59.7888 145.432 59.8659 145.415 59.9545C145.391 60.0772 145.42 60.1099 145.535 60.092C145.783 60.0532 145.834 60.1507 145.62 60.2554C145.458 60.3351 145.434 60.3856 145.493 60.5276C145.533 60.6236 145.54 60.7399 145.51 60.786C145.479 60.8322 145.49 60.894 145.534 60.9234C145.578 60.9528 145.582 61.0266 145.541 61.0873C145.5 61.1486 145.539 61.2452 145.628 61.3046C145.719 61.365 145.756 61.4606 145.714 61.5245C145.672 61.5867 145.642 61.7492 145.647 61.8856C145.651 62.0221 145.604 62.2279 145.542 62.3431C145.475 62.4655 145.476 62.6099 145.544 62.6905C145.608 62.7664 145.62 62.8454 145.569 62.8661C145.519 62.8868 145.485 63.0148 145.494 63.1507C145.503 63.2866 145.471 63.4566 145.423 63.5286C145.376 63.6006 145.387 63.693 145.448 63.7339C145.596 63.832 145.544 64.0699 145.335 64.2514C145.239 64.3354 145.203 64.4207 145.251 64.4525C145.346 64.5158 145.314 65.0864 145.206 65.2485C145.145 65.3408 145.164 65.3548 145.335 65.3443C145.519 65.3331 145.517 65.3398 145.31 65.4246C145.125 65.5008 145.097 65.5402 145.151 65.6483C145.188 65.7205 145.169 65.875 145.11 65.9917C145.051 66.1083 145.021 66.2983 145.043 66.4137C145.064 66.5291 145.017 66.7477 144.938 66.8994C144.858 67.051 144.813 67.277 144.837 67.4017C144.861 67.5263 144.834 67.659 144.778 67.6966C144.721 67.7343 144.698 67.8101 144.726 67.8651C144.753 67.9201 144.696 68.138 144.599 68.3494C144.502 68.5608 144.438 68.8239 144.458 68.9341C144.477 69.0442 144.446 69.1906 144.388 69.2592C144.203 69.4778 144.176 69.5787 144.281 69.6488C144.351 69.6955 144.312 69.8118 144.157 70.0165C144.032 70.1812 143.934 70.4179 143.938 70.5424C143.942 70.6669 143.905 70.8575 143.854 70.9658C143.804 71.0742 143.79 71.2393 143.824 71.3327C143.861 71.4365 143.848 71.4793 143.79 71.4427C143.697 71.3845 143.637 71.5388 143.509 72.1619C143.487 72.2647 143.375 72.4972 143.258 72.6787C143.116 72.9001 143.074 73.0584 143.131 73.1601C143.198 73.2808 143.181 73.3203 143.047 73.3543C142.923 73.3857 142.874 73.4541 142.858 73.6183C142.847 73.7402 142.785 73.9721 142.72 74.1336C142.656 74.2953 142.603 74.4751 142.603 74.5334C142.602 74.6723 142.56 74.7629 142.132 75.5479C141.934 75.9123 141.791 76.2531 141.816 76.3053C141.841 76.3575 141.732 76.5956 141.574 76.8343C141.415 77.0731 141.143 77.6276 140.969 78.0666C140.795 78.5056 140.463 79.1452 140.232 79.488C140.001 79.8308 139.719 80.3363 139.605 80.6114C139.412 81.0809 138.92 81.7975 138.741 81.8714C138.696 81.8896 138.661 81.9671 138.661 82.0436C138.661 82.12 138.553 82.2822 138.421 82.4039C138.288 82.5256 138.18 82.669 138.18 82.7227C138.181 82.7764 138.098 82.9603 137.997 83.1314C137.896 83.3025 137.846 83.4825 137.886 83.5314C137.936 83.5924 137.905 83.6485 137.787 83.7107C137.692 83.7605 137.54 83.8408 137.449 83.8892C137.356 83.9385 137.235 84.1109 137.174 84.2819C137.106 84.4709 137.013 84.5945 136.93 84.6075C136.838 84.6219 136.804 84.6817 136.822 84.7999C136.84 84.9233 136.813 84.9689 136.725 84.9626C136.653 84.9574 136.473 85.1577 136.287 85.4508C136.114 85.7241 135.864 86.0571 135.731 86.1905C135.546 86.3768 135.501 86.4883 135.536 86.6716C135.562 86.8028 135.544 86.8844 135.496 86.8528C135.449 86.8214 135.417 86.7399 135.424 86.6719C135.431 86.6038 135.373 86.6788 135.294 86.8384C135.215 86.9981 135.093 87.1376 135.023 87.1485C134.953 87.1595 134.805 87.265 134.693 87.3831C134.581 87.5012 134.396 87.6588 134.28 87.7334C133.979 87.9282 133.684 88.3123 133.672 88.5271C133.665 88.6364 133.631 88.6918 133.587 88.6627C133.526 88.6224 133.095 88.9984 132.861 89.2953C132.831 89.3336 132.762 89.3831 132.707 89.4052C132.652 89.4273 132.502 89.6254 132.374 89.8455C132.221 90.1063 132.122 90.2101 132.088 90.1434C132.056 90.0795 132.014 90.112 131.976 90.2299C131.943 90.3338 131.87 90.4154 131.814 90.4114C131.758 90.4074 131.712 90.4454 131.713 90.496C131.713 90.5466 131.667 90.5846 131.61 90.5806C131.554 90.5765 131.311 90.8127 131.071 91.1056C130.832 91.3985 130.571 91.6557 130.491 91.6771C130.344 91.717 130.16 91.8997 129.848 92.3138C129.752 92.442 129.631 92.5439 129.581 92.5402C129.53 92.5366 129.417 92.641 129.329 92.7723C129.242 92.9035 129.098 93.0222 129.01 93.036C128.882 93.0559 128.864 93.0913 128.923 93.2101C128.964 93.2922 128.957 93.3336 128.909 93.3023C128.764 93.2088 128.439 93.445 128.41 93.6643C128.382 93.8792 127.829 94.2851 127.69 94.1929C127.647 94.1643 127.569 94.2536 127.514 94.3943C127.458 94.5382 127.346 94.6647 127.253 94.6881C127.128 94.7198 127.11 94.753 127.172 94.8319C127.227 94.9016 127.14 94.949 126.899 94.9793C126.635 95.0126 126.543 95.067 126.539 95.193C126.533 95.347 126.446 95.4353 125.949 95.7958C125.886 95.8415 125.769 95.9551 125.689 96.0481C125.61 96.1413 125.444 96.3137 125.322 96.4315C125.15 96.596 125.116 96.6879 125.175 96.8287C125.244 96.9966 125.233 97.0061 125.033 96.9434C124.791 96.8676 124.636 96.8864 124.322 97.0299C124.144 97.1111 124.125 97.1464 124.204 97.2508C124.325 97.4123 124.246 97.5305 124.087 97.4247C123.988 97.3589 123.961 97.3836 123.951 97.5498C123.941 97.7146 123.876 97.7779 123.633 97.8594C123.465 97.9157 123.251 98.077 123.157 98.2179C123.028 98.4121 122.942 98.4575 122.801 98.4057C122.606 98.3341 122.443 98.4552 122.596 98.5575C122.645 98.5901 122.634 98.651 122.571 98.6929C122.508 98.7348 122.489 98.814 122.528 98.8687C122.568 98.9235 122.531 98.9261 122.447 98.8745C122.325 98.8003 122.271 98.83 122.185 99.0167C122.107 99.1883 122.056 99.2232 121.996 99.1446C121.942 99.0722 121.905 99.0866 121.886 99.1882C121.866 99.2913 121.812 99.3105 121.719 99.2483C121.629 99.1888 121.572 99.2062 121.554 99.2979C121.539 99.3756 121.493 99.4169 121.452 99.3898C121.412 99.3626 121.277 99.4409 121.153 99.5637C121.03 99.6866 120.889 99.7841 120.84 99.7807C120.791 99.7772 120.635 99.8954 120.491 100.043C120.348 100.191 120.118 100.334 119.981 100.36C119.843 100.387 119.679 100.485 119.617 100.579C119.555 100.672 119.468 100.725 119.424 100.695C119.379 100.666 119.31 100.692 119.27 100.752C119.229 100.813 119.229 100.885 119.27 100.912C119.31 100.938 119.236 101.032 119.106 101.12C118.975 101.209 118.833 101.252 118.791 101.217C118.594 101.056 118.504 101.05 118.476 101.197C118.455 101.303 118.426 101.316 118.387 101.238C118.35 101.165 118.293 101.175 118.233 101.266C118.18 101.345 118.074 101.394 117.997 101.374C117.92 101.355 117.693 101.494 117.494 101.684C117.233 101.932 117.08 102.012 116.945 101.97C116.747 101.908 116.222 102.125 116.223 102.268C116.224 102.364 115.786 102.418 115.663 102.336C115.619 102.306 115.489 102.336 115.375 102.401C115.252 102.472 115.133 102.475 115.082 102.407C114.961 102.246 114.657 102.287 114.526 102.484C114.465 102.576 114.348 102.634 114.267 102.613C114.112 102.574 113.905 102.868 113.972 103.03C113.993 103.08 113.955 103.118 113.888 103.113C113.821 103.108 113.789 103.069 113.817 103.026C113.846 102.983 113.811 102.91 113.74 102.862C113.656 102.806 113.655 102.748 113.737 102.693C113.806 102.647 113.867 102.53 113.872 102.432C113.878 102.332 113.942 102.231 114.02 102.199C114.098 102.167 114.162 102.066 114.168 101.965C114.174 101.857 114.253 101.737 114.369 101.659C114.598 101.506 114.639 101.191 114.42 101.276C114.341 101.307 114.401 101.177 114.568 100.953C114.723 100.747 114.896 100.592 114.953 100.609C115.01 100.626 115.088 100.594 115.126 100.536C115.164 100.479 115.25 100.468 115.316 100.512C115.409 100.574 115.499 100.498 115.706 100.187C115.93 99.851 115.952 99.7662 115.836 99.6876C115.757 99.6342 115.746 99.5927 115.812 99.5923C115.876 99.592 116.035 99.5653 116.166 99.5331C116.381 99.4802 116.406 99.4462 116.425 99.1846C116.443 98.9257 116.468 98.89 116.66 98.8503C116.835 98.8138 116.892 98.7455 116.976 98.466C117.125 97.9716 117.234 97.8455 117.447 97.9234C117.592 97.9766 117.647 97.9474 117.684 97.7989C117.71 97.6923 117.774 97.5496 117.826 97.4819C117.878 97.4144 117.869 97.3244 117.805 97.2821C117.656 97.183 117.704 97.1171 117.965 97.063C118.08 97.0391 118.236 96.9461 118.312 96.8564C118.388 96.7667 118.504 96.6712 118.57 96.6443C118.648 96.6121 118.633 96.5579 118.526 96.4869C118.414 96.4127 118.401 96.3536 118.482 96.2992C118.548 96.2555 118.622 96.2596 118.646 96.3084C118.671 96.3571 118.791 96.247 118.913 96.0638C119.084 95.8061 119.11 95.6888 119.026 95.5451C118.898 95.326 118.989 95.1438 119.199 95.1972C119.295 95.2215 119.32 95.2819 119.27 95.3657C119.227 95.4377 119.234 95.4705 119.284 95.4387C119.335 95.4069 119.418 95.2023 119.468 94.9839C119.519 94.7656 119.596 94.5721 119.641 94.5538C119.685 94.5356 119.669 94.4861 119.606 94.4438C119.542 94.4016 119.478 94.2826 119.462 94.1795C119.439 94.0246 119.408 93.9993 119.284 94.0343C119.201 94.0577 118.959 94.0501 118.745 94.0176C118.347 93.957 118.123 94.0309 118.124 94.2225C118.124 94.2905 118.175 94.3108 118.26 94.2769C118.37 94.233 118.382 94.2438 118.323 94.3349C118.283 94.3965 118.15 94.4402 118.028 94.432C117.906 94.4238 117.771 94.4705 117.728 94.5359C117.665 94.6295 117.684 94.6525 117.818 94.644C117.93 94.6368 117.98 94.6656 117.965 94.728C117.921 94.9107 117.395 95.5225 117.324 95.4746C117.284 95.4481 117.286 95.3743 117.328 95.3107C117.397 95.2068 117.385 95.1981 117.207 95.2259C117.044 95.2513 117.009 95.2953 117.011 95.469C117.013 95.6454 116.973 95.6896 116.774 95.7309C116.545 95.7784 116.539 95.7876 116.629 95.9486C116.707 96.0885 116.693 96.1242 116.543 96.1621C116.445 96.1872 116.364 96.2563 116.364 96.3158C116.365 96.3753 116.246 96.4842 116.102 96.5579C115.902 96.6591 115.817 96.7647 115.751 96.9908C115.643 97.3614 115.66 97.3416 115.528 97.2544C115.405 97.1722 114.857 97.7266 114.807 97.9838C114.786 98.0942 114.752 98.1035 114.686 98.0164C114.62 97.9294 114.543 97.9501 114.415 98.0893C114.284 98.2305 114.271 98.2928 114.365 98.3168C114.452 98.3388 114.453 98.4137 114.367 98.5418C114.297 98.6474 114.201 98.7082 114.155 98.6771C114.108 98.646 114.07 98.6755 114.07 98.7427C114.071 98.8273 114.012 98.8084 113.878 98.6809L113.684 98.4971L113.435 98.9286C113.212 99.3141 113.204 99.3779 113.355 99.5262C113.636 99.8006 113.51 99.9477 113.181 99.7292C112.861 99.516 112.816 99.5455 112.74 100.017C112.694 100.3 112.676 100.328 112.599 100.226C112.538 100.144 112.502 100.155 112.482 100.261C112.464 100.35 112.411 100.385 112.353 100.346C112.209 100.25 111.93 100.88 111.987 101.174C112.014 101.31 111.994 101.382 111.94 101.346C111.889 101.312 111.874 101.245 111.906 101.196C111.949 101.132 111.926 101.114 111.823 101.13C111.461 101.187 110.577 103.436 110.751 103.858C110.771 103.907 110.762 104.001 110.731 104.069C110.653 104.241 110.76 104.847 110.931 105.199C111.01 105.361 111.083 105.564 111.093 105.648C111.107 105.767 111.231 105.862 111.631 106.06C112.099 106.291 112.162 106.299 112.266 106.142C112.381 105.969 112.608 106.019 113.048 106.317C113.125 106.369 113.269 106.371 113.368 106.323C113.468 106.274 113.568 106.271 113.591 106.317C113.614 106.362 113.71 106.38 113.805 106.356C113.9 106.332 114.027 106.346 114.088 106.386C114.149 106.427 114.226 106.418 114.261 106.366C114.299 106.309 114.443 106.346 114.631 106.462C115.133 106.77 115.256 106.806 115.626 106.752C115.869 106.716 116.022 106.748 116.121 106.855C116.201 106.94 116.39 107.015 116.543 107.023C116.695 107.03 116.905 107.092 117.008 107.161C117.112 107.23 117.299 107.284 117.424 107.282C117.55 107.279 117.752 107.342 117.875 107.422C118.017 107.514 118.123 107.527 118.171 107.456C118.211 107.395 118.294 107.379 118.356 107.42C118.417 107.461 118.524 107.457 118.593 107.411C118.676 107.356 118.762 107.379 118.847 107.48C118.937 107.587 119.082 107.617 119.324 107.579C119.519 107.548 119.783 107.587 119.924 107.667C120.062 107.745 120.255 107.784 120.351 107.753C120.448 107.722 120.62 107.758 120.732 107.833C120.861 107.918 121.067 107.937 121.287 107.883C121.479 107.836 121.693 107.835 121.762 107.88C121.831 107.926 121.921 107.914 121.962 107.854C122.002 107.792 122.106 107.791 122.196 107.85C122.284 107.909 122.375 107.928 122.399 107.893C122.482 107.768 123.174 108.186 123.239 108.4C123.293 108.58 123.329 108.602 123.589 108.614C123.917 108.629 123.931 108.691 123.617 108.74C123.265 108.795 123.415 108.9 123.866 108.913C124.101 108.921 124.325 108.948 124.365 108.974C124.404 109.001 124.442 108.933 124.448 108.825C124.455 108.716 124.518 108.559 124.59 108.475C124.698 108.348 124.674 108.278 124.446 108.051C124.266 107.873 124.123 107.787 124.032 107.801C123.933 107.817 123.946 107.837 124.077 107.871C124.221 107.908 124.233 107.943 124.134 108.035C124.065 108.1 123.972 108.117 123.927 108.074C123.882 108.03 123.836 108.049 123.823 108.115C123.809 108.188 123.735 108.192 123.635 108.125C123.517 108.046 123.504 107.978 123.589 107.884C123.682 107.782 123.643 107.671 123.41 107.373C123.119 107.002 123.106 106.994 122.9 107.065C122.783 107.106 122.663 107.09 122.634 107.031C122.604 106.973 122.548 106.972 122.509 107.031C122.47 107.089 122.35 107.105 122.243 107.065C122.135 107.026 122.047 107.045 122.048 107.107C122.048 107.17 122.01 107.196 121.963 107.164C121.917 107.133 121.898 107.079 121.922 107.043C121.945 107.007 121.904 106.912 121.83 106.832C121.755 106.752 121.675 106.717 121.65 106.754C121.626 106.79 121.534 106.772 121.445 106.714C121.357 106.655 121.261 106.642 121.233 106.685C121.204 106.728 121.158 106.718 121.131 106.664C121.103 106.609 121.057 106.6 121.029 106.643C121 106.686 120.895 106.666 120.794 106.599C120.694 106.532 120.51 106.475 120.386 106.472C120.263 106.469 119.934 106.397 119.655 106.313C119.377 106.228 119.129 106.19 119.104 106.227C119.079 106.264 118.952 106.223 118.82 106.136C118.543 105.951 117.351 105.747 117.187 105.856C117.039 105.954 116.861 105.83 116.895 105.652C116.937 105.436 116.675 105.314 116.17 105.316C115.918 105.316 115.579 105.262 115.416 105.195C115.254 105.127 115.099 105.105 115.073 105.145C115.046 105.185 114.967 105.15 114.898 105.068C114.696 104.829 114.154 104.629 113.78 104.655C113.416 104.681 113.183 104.503 113.316 104.303C113.358 104.24 113.378 104.103 113.36 103.998C113.342 103.894 113.403 103.645 113.496 103.443C113.615 103.184 113.667 103.125 113.672 103.242C113.679 103.388 113.698 103.401 113.837 103.352C113.977 103.303 113.985 103.308 113.908 103.399C113.738 103.599 113.72 103.699 113.839 103.778C113.905 103.822 113.939 103.889 113.913 103.927C113.849 104.024 114.498 104.316 114.671 104.268C114.749 104.247 114.983 104.291 115.191 104.368C115.546 104.498 116.108 104.459 116.217 104.297C116.243 104.256 116.311 104.253 116.367 104.288C116.487 104.364 116.875 104.251 117.112 104.07C117.207 103.997 117.344 103.985 117.429 104.042C117.514 104.098 117.651 104.086 117.746 104.014C117.979 103.836 118.37 103.719 118.486 103.792C118.597 103.862 118.901 103.672 119.119 103.396C119.169 103.332 119.22 103.318 119.231 103.364C119.243 103.41 119.425 103.411 119.636 103.366C120.054 103.276 120.254 103.098 120.008 103.035C119.881 103.003 119.889 102.981 120.06 102.896C120.172 102.84 120.296 102.792 120.336 102.79C120.61 102.772 121.109 102.516 121.232 102.331C121.372 102.12 121.646 101.925 122.305 101.562C122.487 101.462 122.707 101.23 122.877 100.96C123.158 100.514 123.29 100.463 123.292 100.799C123.292 100.961 123.306 100.96 123.397 100.789C123.516 100.564 123.904 100.384 124.054 100.483C124.109 100.52 124.178 100.516 124.206 100.474C124.241 100.422 124.192 100.389 124.05 100.371C123.772 100.334 123.66 100.249 123.737 100.133C123.773 100.08 123.974 100.108 124.189 100.195C124.649 100.382 124.841 100.257 124.749 99.8275C124.687 99.5376 124.687 99.5373 124.83 99.6906C124.938 99.8078 124.995 99.8106 125.067 99.7025C125.118 99.6246 125.257 99.5318 125.374 99.4963C125.648 99.4133 125.695 99.3443 125.545 99.2446C125.479 99.2005 125.447 99.1313 125.474 99.0908C125.5 99.0503 125.577 99.0533 125.643 99.0974C125.709 99.1415 125.797 99.1278 125.837 99.0671C125.877 99.0063 125.947 98.9807 125.991 99.0101C126.035 99.0395 126.104 99.0138 126.145 98.9531C126.185 98.8923 126.182 98.8184 126.137 98.7888C126.089 98.7568 126.138 98.7003 126.258 98.6504C126.428 98.5791 126.448 98.5363 126.383 98.3767C126.341 98.2726 126.32 98.1663 126.338 98.1404C126.355 98.1145 126.432 98.1353 126.51 98.1867C126.61 98.2534 126.7 98.2169 126.824 98.0583C126.919 97.9365 127.058 97.8411 127.133 97.8465C127.207 97.8518 127.343 97.7356 127.435 97.5881C127.534 97.4282 127.64 97.3455 127.696 97.3831C127.877 97.5034 128.265 97.3435 128.339 97.1178C128.383 96.9857 128.445 96.9254 128.5 96.9617C128.549 96.9942 128.639 96.9473 128.702 96.8571C128.764 96.767 128.921 96.6449 129.052 96.5857C129.374 96.4393 129.568 96.1324 129.504 95.8709C129.454 95.667 129.459 95.664 129.59 95.8195C129.71 95.9624 129.76 95.9539 129.959 95.7557C130.086 95.6299 130.181 95.491 130.17 95.4471C130.159 95.4031 130.272 95.3442 130.42 95.3163C130.605 95.2815 130.769 95.1555 130.945 94.9142C131.085 94.7209 131.243 94.5634 131.296 94.5641C131.381 94.5652 131.867 94.0355 132.088 93.7004C132.133 93.6321 132.248 93.5712 132.344 93.5652C132.439 93.5591 132.589 93.4463 132.677 93.3145C132.764 93.1827 132.97 92.9918 133.133 92.8902C133.296 92.7887 133.624 92.4871 133.861 92.2198C134.098 91.9526 134.428 91.6094 134.594 91.4572C134.761 91.305 134.948 91.059 135.011 90.9106C135.085 90.7338 135.211 90.6078 135.375 90.5456C135.512 90.4934 135.72 90.309 135.836 90.1359C135.952 89.9628 136.189 89.7195 136.363 89.595C136.679 89.369 136.84 89.1312 136.889 88.8156C136.904 88.7233 136.872 88.6446 136.818 88.6408C136.764 88.637 136.776 88.5967 136.844 88.5513C136.912 88.506 136.996 88.488 137.032 88.5114C137.126 88.574 137.574 88.2448 137.828 87.9263C137.95 87.7737 138.299 87.3242 138.602 86.9274C139.151 86.2101 139.153 86.2053 138.973 86.0787C138.795 85.9535 138.795 85.9522 139.003 86.0013C139.276 86.0659 139.475 85.9297 139.491 85.6688C139.497 85.5552 139.586 85.3904 139.687 85.3026C139.91 85.1097 140.646 84.0208 140.621 83.9208C140.611 83.8816 140.681 83.8117 140.775 83.7655C140.89 83.7091 140.92 83.6635 140.866 83.6274C140.819 83.5958 140.866 83.4945 140.981 83.3835C141.153 83.2167 141.155 83.1876 140.992 83.1455C140.815 83.0998 140.817 83.0959 141.033 83.0611C141.158 83.041 141.315 82.942 141.382 82.841C141.449 82.74 141.584 82.6181 141.682 82.5702C141.815 82.5051 141.834 82.4657 141.757 82.4143C141.678 82.3616 141.828 82.0753 142.396 81.1966C142.804 80.5635 143.142 79.9574 143.149 79.8464C143.155 79.7355 143.217 79.5599 143.286 79.456C143.373 79.3256 143.369 79.2377 143.272 79.1725C143.153 79.0918 143.157 79.0793 143.299 79.088C143.43 79.096 143.559 78.9528 143.891 78.4301C144.125 78.0625 144.322 77.6641 144.329 77.5446C144.336 77.4251 144.451 77.1599 144.585 76.9552C144.747 76.7069 144.799 76.5451 144.742 76.4689C144.694 76.4061 144.698 76.3371 144.75 76.3157C144.802 76.2942 144.897 76.1491 144.96 75.9932C145.049 75.7745 145.037 75.698 144.91 75.6585C144.78 75.6179 144.779 75.6076 144.907 75.6088C145.097 75.6105 145.403 75.0467 145.636 74.2676C145.716 73.9995 145.842 73.642 145.916 73.473C145.99 73.304 146.026 73.0951 145.996 73.0087C145.966 72.9225 145.991 72.7772 146.052 72.686C146.113 72.5948 146.201 72.3478 146.248 72.137C146.295 71.9263 146.386 71.7187 146.451 71.6756C146.587 71.5851 146.802 70.6888 146.704 70.6233C146.668 70.5992 146.716 70.5113 146.812 70.4281C146.909 70.3433 146.974 70.2028 146.96 70.1084C146.946 70.0158 146.982 69.8846 147.039 69.8168C147.218 69.604 147.215 69.5525 147.024 69.5646C146.861 69.5749 146.865 69.5588 147.053 69.4325C147.23 69.3141 147.258 69.2417 147.212 69.0217C147.181 68.8748 147.217 68.6146 147.293 68.4435C147.368 68.2722 147.402 68.1139 147.368 68.0915C147.335 68.0692 147.338 68.0112 147.375 67.9628C147.412 67.9143 147.506 67.7138 147.585 67.5172C147.685 67.2675 147.688 67.1622 147.593 67.1682C147.497 67.1743 147.517 67.0824 147.663 66.8513C147.776 66.6722 147.865 66.4022 147.86 66.2512C147.855 66.1002 147.885 65.9242 147.928 65.86C148.056 65.6676 148.058 65.1515 147.931 65.067C147.866 65.0237 147.844 64.9413 147.882 64.8839C147.92 64.8265 147.917 64.7329 147.876 64.6757C147.815 64.5926 147.821 64.5839 147.904 64.6327C148.026 64.704 148.193 64.4981 148.077 64.4204C148.033 64.3916 148.029 64.273 148.068 64.1567C148.106 64.0405 148.103 63.8988 148.06 63.8418C148.017 63.7848 148.044 63.596 148.121 63.4222C148.197 63.2483 148.221 63.0134 148.173 62.9C148.125 62.7866 148.134 62.6617 148.193 62.6224C148.258 62.579 148.243 62.5097 148.155 62.4459C148.075 62.3882 148.063 62.3535 148.129 62.3689C148.277 62.4036 148.338 62.151 148.203 62.0613C148.149 62.0254 148.117 61.885 148.133 61.7494C148.149 61.6138 148.176 61.3827 148.194 61.2358C148.212 61.089 148.21 60.8771 148.189 60.765C148.045 59.9957 148.025 59.8111 148.07 59.6366C148.11 59.483 148.073 59.4218 147.899 59.356C147.674 59.2711 147.664 59.1036 147.888 59.1701C147.983 59.1981 148.013 59.1464 148.026 58.934C148.038 58.7376 147.979 58.62 147.815 58.5108C147.644 58.397 147.611 58.3243 147.682 58.2175C147.734 58.1394 147.755 57.9898 147.729 57.8849C147.704 57.7801 147.697 57.6729 147.714 57.6467C147.732 57.6205 147.647 57.1993 147.526 56.7106C147.405 56.222 147.326 55.7911 147.352 55.7531C147.377 55.7151 147.368 55.664 147.331 55.6396C147.294 55.6152 147.271 55.4802 147.279 55.3397C147.287 55.1991 147.248 55.0537 147.192 55.0165C147.137 54.9794 147.113 54.8641 147.14 54.7602C147.178 54.6117 147.139 54.5527 146.957 54.4839C146.689 54.3826 146.566 54.1232 146.734 54.0115C146.799 53.9688 146.813 53.7864 146.768 53.6022C146.723 53.4195 146.707 53.2389 146.732 53.2009C146.757 53.163 146.707 53.1021 146.619 53.0656C146.532 53.029 146.441 52.9119 146.416 52.8053C146.362 52.5729 146.128 52.3716 146.043 52.4844C146.009 52.5286 145.999 52.4685 146.019 52.3508C146.04 52.2331 146.001 52.1 145.934 52.0549C145.861 52.0067 145.763 52.0397 145.695 52.1354C145.583 52.2936 145.581 52.2916 145.615 52.0552C145.634 51.9219 145.687 51.7737 145.733 51.7258C145.856 51.5979 145.688 51.2531 145.469 51.1814C145.304 51.1275 145.304 51.1133 145.465 51.0725C145.741 51.0025 145.692 50.8001 145.362 50.6448C145.175 50.5569 145.096 50.4807 145.135 50.4259C145.336 50.1416 145.332 50.0617 145.108 49.9125C144.976 49.8244 144.887 49.6972 144.903 49.6167C144.918 49.5391 144.839 49.4147 144.727 49.3403C144.6 49.2557 144.551 49.1636 144.597 49.0946C144.644 49.024 144.593 48.9327 144.456 48.8414C144.338 48.7629 144.213 48.6022 144.177 48.4844C144.142 48.3666 144.011 48.1955 143.887 48.1042C143.762 48.013 143.631 47.8512 143.594 47.7446C143.535 47.5766 143.497 47.5562 143.303 47.5906C143.092 47.6281 143.092 47.6346 143.314 47.7142C143.493 47.7785 143.507 47.7977 143.376 47.7954C143.248 47.7933 143.231 47.8109 143.309 47.8643C143.441 47.9545 143.196 48.2356 143.029 48.185C142.95 48.161 142.955 48.1174 143.045 48.0576C143.135 47.9982 143.15 47.8857 143.09 47.7335C143.035 47.5935 143.056 47.3979 143.141 47.244C143.267 47.0178 143.258 46.9782 143.068 46.9064C142.836 46.819 142.737 46.5784 142.857 46.3972C142.937 46.278 142.646 46.0956 142.483 46.1623C142.367 46.2099 142.175 45.961 142.085 45.6457C141.98 45.2785 141.739 45.0682 141.458 45.098C141.22 45.1231 141.217 45.1178 141.348 44.9205C141.456 44.7585 141.449 44.7084 141.313 44.6738C141.22 44.6501 141.182 44.6243 141.231 44.6168C141.406 44.5894 140.914 43.9472 140.465 43.6183C140.212 43.4332 140.017 43.2646 140.031 43.2437C140.044 43.2228 139.838 43.0478 139.571 42.8547C139.304 42.6618 139.085 42.4617 139.084 42.4102C139.082 42.2713 138.525 41.8182 138.323 41.7917C138.22 41.7781 138.047 41.6573 137.902 41.4967C137.674 41.2451 137.628 41.23 137.289 41.295C136.973 41.3553 136.924 41.3933 136.939 41.5643ZM140.76 45.2142C140.777 45.2258 140.758 45.2849 140.718 45.3457C140.678 45.4064 140.61 45.4328 140.567 45.4044C140.524 45.3759 140.543 45.3168 140.609 45.2729C140.674 45.2291 140.743 45.2027 140.76 45.2142ZM141.691 46.8976C141.727 46.9207 141.713 46.958 141.658 46.9803C141.604 47.0026 141.499 46.9797 141.425 46.9294C141.308 46.8505 141.313 46.8391 141.458 46.8467C141.55 46.8515 141.655 46.8744 141.691 46.8976ZM142.457 47.0865C142.501 47.1159 142.515 47.1731 142.488 47.2136C142.461 47.2541 142.403 47.2632 142.359 47.2338C142.315 47.2044 142.3 47.1472 142.327 47.1067C142.354 47.0662 142.413 47.0572 142.457 47.0865ZM144.207 51.5967C144.268 51.601 144.282 51.6582 144.238 51.7238C144.195 51.7893 144.137 51.7984 144.109 51.7439C144.082 51.6895 144.068 51.6323 144.078 51.6169C144.088 51.6014 144.146 51.5923 144.207 51.5967ZM144.922 50.9572C144.989 51.0013 145.007 51.0911 144.963 51.1568C144.898 51.2546 144.873 51.2452 144.824 51.1044C144.792 51.0099 144.773 50.9201 144.783 50.9049C144.793 50.8895 144.856 50.9131 144.922 50.9572ZM144.909 51.586C144.954 51.6154 144.966 51.6745 144.938 51.7174C144.909 51.7602 144.864 51.7508 144.836 51.6964C144.808 51.642 144.796 51.5829 144.808 51.565C144.819 51.5471 144.865 51.5566 144.909 51.586ZM144.753 52.0808C144.804 52.148 144.801 52.2211 144.747 52.2436C144.686 52.2686 144.647 52.2281 144.645 52.1384C144.642 51.9427 144.647 51.9398 144.753 52.0808ZM145.209 52.1039C145.278 52.1497 145.29 52.2055 145.236 52.2278C145.181 52.2502 145.103 52.2458 145.061 52.2181C145.02 52.1905 145.008 52.1347 145.035 52.0942C145.062 52.0537 145.14 52.0581 145.209 52.1039ZM114.132 99.5383C114.105 99.6226 114.122 99.7179 114.171 99.75C114.219 99.7821 114.224 99.8139 114.181 99.8205C114.052 99.8407 113.99 99.6295 114.089 99.5033C114.172 99.3966 114.176 99.4001 114.132 99.5383ZM113.925 101.035C113.976 101.103 114.011 101.167 114.004 101.179C113.996 101.19 113.923 101.183 113.841 101.162C113.751 101.139 113.72 101.082 113.763 101.019C113.805 100.955 113.87 100.961 113.925 101.035ZM117.287 95.9816C117.438 95.972 117.452 95.9949 117.37 96.1185C117.316 96.2001 117.204 96.2498 117.123 96.2291C117.036 96.207 117.001 96.15 117.04 96.0922C117.076 96.0377 117.187 95.9879 117.287 95.9816ZM146.233 52.7319C146.295 52.7363 146.293 52.8146 146.229 52.909C146.137 53.0451 146.114 53.0465 146.11 52.916C146.105 52.7147 146.1 52.7224 146.233 52.7319ZM118.033 96.0385C118.06 96.1462 118.034 96.1598 117.932 96.092C117.857 96.042 117.772 96.0363 117.744 96.0791C117.715 96.122 117.669 96.1123 117.641 96.0573C117.61 95.996 117.669 95.9455 117.794 95.926C117.946 95.9022 118.007 95.9309 118.033 96.0385ZM113.423 102.68C113.433 102.722 113.394 102.787 113.335 102.825C113.27 102.867 113.263 102.837 113.316 102.748C113.364 102.668 113.412 102.638 113.423 102.68ZM111.54 105.753C111.584 105.783 111.598 105.84 111.571 105.88C111.544 105.921 111.486 105.93 111.442 105.9C111.398 105.871 111.384 105.814 111.41 105.773C111.437 105.733 111.496 105.724 111.54 105.753ZM117.799 96.7913C117.858 97.0321 117.792 97.0043 117.655 96.7311C117.6 96.6219 117.599 96.5456 117.652 96.5615C117.706 96.5774 117.771 96.6807 117.799 96.7913ZM118.113 96.7767C118.161 96.8428 118.13 96.8476 118.034 96.7889C117.948 96.7357 117.912 96.6868 117.955 96.6801C117.998 96.6734 118.069 96.7169 118.113 96.7767ZM116.541 99.0963C116.582 99.1239 116.661 99.1283 116.715 99.1059C116.769 99.0836 116.757 99.0278 116.688 98.982C116.62 98.9362 116.541 98.9319 116.514 98.9723C116.487 99.0128 116.499 99.0686 116.541 99.0963ZM114.31 102.711C114.33 102.724 114.346 102.782 114.346 102.841C114.347 102.899 114.309 102.922 114.262 102.891C114.215 102.86 114.199 102.801 114.226 102.761C114.253 102.72 114.291 102.698 114.31 102.711ZM117.389 98.2018C117.477 98.1883 117.541 98.1453 117.532 98.1063C117.522 98.0671 117.45 98.0781 117.371 98.1306C117.258 98.2066 117.261 98.2211 117.389 98.2018ZM124.738 97.0614C124.799 97.0658 124.826 97.1025 124.8 97.143C124.773 97.1835 124.701 97.213 124.64 97.2086C124.579 97.2043 124.551 97.1676 124.578 97.1271C124.605 97.0866 124.677 97.057 124.738 97.0614ZM147.132 67.437C147.181 67.5031 147.15 67.5079 147.054 67.4492C146.967 67.396 146.932 67.3471 146.975 67.3404C147.017 67.3337 147.089 67.3772 147.132 67.437ZM145.94 69.825C145.95 69.8672 145.911 69.9327 145.852 69.9703C145.787 70.012 145.78 69.9819 145.833 69.8936C145.881 69.8137 145.929 69.7828 145.94 69.825ZM146.381 69.1337C146.465 69.1901 146.407 69.3551 146.305 69.3478C146.243 69.3433 146.227 69.288 146.269 69.2249C146.311 69.1618 146.361 69.1207 146.381 69.1337ZM141.592 77.4727C141.654 77.4772 141.648 77.5157 141.577 77.563C141.439 77.655 141.366 77.64 141.436 77.5341C141.462 77.496 141.532 77.4684 141.592 77.4727ZM122.816 107.625C122.906 107.686 122.939 107.753 122.887 107.774C122.835 107.795 122.752 107.759 122.702 107.693C122.575 107.524 122.622 107.496 122.816 107.625ZM142.837 77.3445C142.898 77.3489 142.913 77.4041 142.871 77.4672C142.829 77.5303 142.759 77.558 142.715 77.5286C142.67 77.4992 142.655 77.444 142.68 77.4059C142.706 77.3677 142.776 77.3401 142.837 77.3445ZM123.336 107.489C123.36 107.573 123.079 107.687 123.04 107.609C123.016 107.561 123.07 107.507 123.161 107.489C123.252 107.471 123.331 107.471 123.336 107.489ZM123.747 107.608C123.791 107.637 123.851 107.626 123.879 107.583C123.908 107.54 123.882 107.502 123.821 107.497C123.76 107.493 123.7 107.504 123.689 107.522C123.677 107.54 123.703 107.578 123.747 107.608ZM140.108 83.8667C140.147 83.8929 140.168 83.9757 140.153 84.0508C140.136 84.142 140.098 84.148 140.038 84.0688C139.941 83.9396 139.993 83.7898 140.108 83.8667ZM139.378 85.5052C139.422 85.5346 139.436 85.5918 139.409 85.6323C139.382 85.6728 139.324 85.6819 139.28 85.6525C139.236 85.6231 139.222 85.5659 139.249 85.5254C139.276 85.4849 139.334 85.4758 139.378 85.5052ZM124.346 108.643C124.461 108.72 124.343 108.826 124.186 108.786C124.09 108.761 124.081 108.724 124.158 108.672C124.222 108.63 124.306 108.617 124.346 108.643ZM124.753 108.828C124.811 108.79 124.851 108.725 124.84 108.682C124.83 108.64 124.782 108.671 124.734 108.751C124.681 108.839 124.688 108.869 124.753 108.828Z" fill="#F1ECEA"/>
</svg>
