<svg width="657" height="422" viewBox="0 0 657 422" fill="none" xmlns="http://www.w3.org/2000/svg">
<g clip-path="url(#clip0)">
<path d="M649.021 176.337C642.264 153.954 630.913 133.208 616.589 114.92C602.805 97.4503 587.94 81.8915 569.562 69.8811C579.021 69.3352 594.156 64.4219 600.913 70.973C604.697 74.5215 610.373 68.7893 606.589 65.2408C598.481 57.3249 589.291 58.9626 579.021 61.1463C571.724 62.5111 564.697 61.4193 557.4 62.7841C555.778 61.9652 554.427 61.1463 552.805 60.3274C556.319 57.0519 560.643 54.0493 565.237 51.5926C569.832 49.136 599.832 38.2175 600.102 33.8501C599.832 39.0364 607.94 39.0364 608.21 33.8501C608.21 33.5771 608.21 33.3042 608.21 32.7582C608.21 31.3934 607.4 30.0286 606.319 29.2097C596.319 23.2046 578.481 36.3068 569.562 40.4012C560.913 44.4956 553.346 48.863 546.859 54.5952C549.562 48.3171 553.346 42.5849 558.481 37.3986C569.021 27.026 584.427 19.929 597.94 14.4698C602.805 12.559 600.643 4.6431 595.778 6.55384C581.454 12.2861 567.94 19.3831 555.508 29.2097C547.129 35.7608 541.724 44.4956 537.94 54.3223C536.589 53.7763 535.237 53.2304 533.886 52.6845C533.886 48.5901 533.886 44.2227 533.886 39.8553C534.156 29.7557 533.075 12.832 543.616 7.37273C548.21 4.91607 544.156 -2.18096 539.562 0.275703C531.724 4.37014 528.21 11.7401 527.129 20.4749C525.778 30.0286 525.508 39.8553 525.508 49.6819C487.94 37.3986 447.129 35.7608 408.481 41.2201C395.778 41.766 383.075 43.6767 370.643 46.1334C355.508 49.136 339.832 53.5034 324.967 60.3274C310.373 66.8785 297.94 77.2511 286.318 88.1696C275.237 98.8151 264.697 110.007 255.237 122.29C237.67 145.219 225.237 171.969 219.832 200.903C217.67 212.095 216.859 223.559 217.4 235.023C216.048 251.674 216.859 268.598 219.832 284.976C224.697 311.453 236.048 336.292 253.075 356.765C271.724 379.148 297.129 394.979 323.886 405.352C360.913 419.819 402.264 423.367 442.535 420.092C444.156 420.365 445.778 420.365 447.4 420.638C478.21 423.641 509.562 420.638 538.481 409.173C564.967 398.528 588.751 381.058 607.4 359.221C616.589 348.303 624.156 336.565 630.102 323.736C632.805 319.096 635.508 314.456 637.94 309.815C658.751 268.598 661.994 220.556 649.021 176.337ZM548.751 64.6948C549.291 64.9678 549.832 65.2408 550.102 65.5137C548.751 66.3326 547.67 67.1515 546.319 67.9704C547.129 66.8785 547.94 65.7867 548.751 64.6948ZM536.589 59.5086C536.048 61.1463 535.508 62.7841 534.967 64.6948C534.967 62.7841 534.697 60.8734 534.697 58.9626C535.508 58.9626 536.048 59.2356 536.589 59.5086ZM526.589 55.6871C526.589 58.1437 526.859 60.6004 526.859 63.0571C516.048 58.9626 504.967 55.96 493.616 53.5034C491.183 52.6845 488.751 51.8656 486.318 51.3197C474.967 48.0441 463.616 45.5875 451.994 43.6767C477.4 43.9497 502.805 47.7712 526.589 55.6871ZM303.346 80.2537C316.859 69.3352 332.535 61.9652 349.291 57.0519H349.562C342.805 59.7815 336.318 62.7841 329.832 66.0597C317.129 72.6108 305.508 80.7996 293.886 88.9885C292.805 89.8074 291.454 90.6263 290.373 91.7181C294.697 87.8967 299.021 84.0752 303.346 80.2537ZM250.102 145.765C265.237 116.012 291.994 95.8126 319.562 78.6159C342.264 64.1489 368.21 55.1412 394.427 49.6819C399.021 48.863 403.616 47.7712 408.21 47.2252C416.589 46.9523 424.967 46.9523 433.346 47.4982C436.859 47.7712 440.373 48.0441 444.156 48.5901C435.508 48.5901 426.859 48.863 418.481 49.409C392.805 51.5927 367.4 57.5978 343.886 67.9704C316.589 79.9807 288.21 97.1774 269.562 121.198C259.832 134.027 252.535 148.494 245.778 163.234C239.832 176.064 234.697 189.166 231.454 203.087C227.129 220.829 225.237 239.118 226.318 257.406C224.967 250.309 223.886 242.939 223.616 235.569C226.048 204.179 235.778 173.334 250.102 145.765ZM374.697 412.449C315.237 403.987 257.94 372.597 234.156 314.456C228.21 300.261 224.697 285.249 223.346 270.236C224.697 275.149 226.589 280.062 228.481 284.703C229.562 286.886 230.373 289.343 231.454 291.527C246.859 345.846 293.346 382.15 345.778 398.801C357.67 402.622 370.102 405.352 382.535 406.99C392.535 410.265 403.075 412.995 413.346 415.179C400.373 415.179 387.4 414.36 374.697 412.449ZM251.994 324.009C260.102 334.382 269.562 343.935 279.562 352.67C298.481 368.775 319.562 381.331 341.994 391.431C337.4 389.793 332.805 388.155 328.481 386.518C300.102 374.78 273.886 355.946 256.048 330.56C254.697 328.377 253.346 326.193 251.994 324.009ZM555.237 394.979C530.643 408.901 503.346 415.179 475.508 415.998C484.427 414.633 493.075 412.722 501.454 410.811C530.373 403.987 558.751 392.523 583.075 374.78C585.237 373.142 587.4 371.505 589.291 369.867C579.021 379.694 567.67 388.155 555.237 394.979ZM625.508 320.188C608.751 347.484 584.427 370.14 555.778 385.153C528.21 399.62 497.67 407.263 467.4 411.63C458.481 412.995 449.562 413.814 440.643 414.633C432.535 413.541 424.156 412.176 416.048 410.538C422.264 410.811 428.481 411.084 434.697 411.084C465.237 411.084 496.318 407.263 525.508 397.709C577.129 380.785 618.481 341.479 636.589 290.162C633.886 299.989 630.102 310.361 625.508 320.188ZM635.508 273.784C628.21 303.264 612.264 330.287 590.913 351.578C569.021 373.415 541.183 387.336 511.724 395.525C481.454 403.987 449.562 405.898 418.21 404.806C406.589 404.26 394.967 403.441 383.616 401.531C378.21 399.893 372.805 397.982 367.67 396.071C339.021 385.426 311.724 371.505 287.67 352.397C266.589 335.474 249.021 314.728 237.129 290.435C233.346 277.606 231.454 264.23 231.183 250.582C230.373 220.829 238.21 192.714 250.373 165.964C257.4 150.405 264.967 135.392 275.508 122.017C286.048 108.915 299.562 98.8152 313.886 90.0804C337.67 75.3404 362.535 64.6948 389.832 58.9626C416.859 53.2304 444.967 52.6845 472.535 55.96C479.291 56.7789 486.048 57.8708 493.075 59.2356C499.021 61.1463 505.237 63.33 510.913 65.7867C516.589 67.9704 522.535 70.7 528.21 73.4296C529.021 75.0674 530.913 75.6133 532.535 75.6133C534.427 76.7052 536.319 77.5241 538.21 78.6159C539.021 79.7078 540.102 80.5267 541.724 80.5267C568.21 95.2666 591.994 114.92 609.562 139.214C625.237 161.324 635.237 188.347 639.562 215.643C641.454 234.75 640.102 254.677 635.508 273.784ZM645.508 274.33C646.589 268.052 647.4 261.501 647.67 254.95C648.481 242.393 647.4 229.837 645.508 217.554C644.156 202.268 640.643 186.982 635.508 172.788C623.075 139.214 600.373 107.277 571.724 86.5318C565.508 82.1645 559.291 78.343 552.805 74.7945C555.508 73.4296 557.94 72.0648 560.913 71.2459C561.183 71.2459 561.183 71.5189 561.454 71.5189C590.102 88.4426 612.805 114.647 629.291 143.581C645.508 172.242 652.805 205.544 651.454 238.299C650.643 250.309 648.751 262.593 645.508 274.33Z" fill="#917171"/>
<path d="M379.832 167.872C379.021 162.413 376.589 158.045 372.264 154.77C370.372 153.405 366.859 154.77 366.318 157.226C365.508 161.867 364.697 169.783 366.859 175.242C367.129 176.334 367.129 177.426 367.4 178.517C368.481 182.885 373.886 187.798 377.94 183.158C381.454 179.336 380.643 172.785 379.832 167.872Z" fill="#917171"/>
<path d="M493.616 170.329C494.426 164.87 493.345 159.41 490.372 154.497C490.372 154.497 490.372 154.224 490.102 154.224C489.291 152.586 488.48 151.221 487.399 149.857C486.048 147.946 483.345 147.4 481.453 148.765C480.102 149.311 479.021 150.403 479.291 152.586C479.291 153.132 479.291 153.405 479.291 153.951C477.94 161.867 479.291 174.15 487.67 176.334C489.832 176.88 491.994 175.515 492.535 173.604C492.535 173.331 492.535 173.331 492.805 173.058C493.075 172.512 493.345 171.967 493.345 171.148C493.616 170.602 493.616 170.329 493.616 170.329Z" fill="#917171"/>
<path d="M370.372 216.732C367.94 216.459 365.237 216.459 362.805 216.732C362.264 216.186 361.454 215.913 360.372 215.913C351.994 215.094 343.886 216.459 335.778 219.189C331.994 220.554 331.724 225.74 335.778 227.105C344.156 229.834 352.535 229.562 361.183 229.289C366.318 229.016 371.183 227.651 373.886 223.01C375.237 220.008 373.345 217.005 370.372 216.732Z" fill="#917171"/>
<path d="M511.994 199.536C511.183 198.444 509.832 197.625 507.94 197.898C500.372 199.263 493.345 200.901 487.129 205.541C484.697 207.452 484.156 212.365 488.21 212.911C502.264 215.641 516.048 214.003 529.021 207.998C530.102 207.452 531.183 205.814 530.913 204.449C530.102 196.26 520.372 197.079 511.994 199.536Z" fill="#917171"/>
<path d="M529.021 299.44C508.751 263.682 489.832 215.095 440.372 223.01C394.156 230.38 371.453 273.781 364.967 316.91C364.156 322.096 371.994 324.28 372.805 319.093C378.48 281.697 396.048 242.937 435.237 232.564C455.237 227.105 475.778 233.11 489.562 248.669C503.345 263.955 512.264 286.065 522.264 303.807C524.697 308.175 531.724 304.08 529.021 299.44Z" fill="#917171"/>
</g>
<path d="M15.3672 77.1289C17.2266 77.0013 18.4479 77.2565 19.0312 77.8945C19.6328 78.5143 19.9336 79.0703 19.9336 79.5625C19.9518 80.0547 19.8516 80.4831 19.6328 80.8477C19.4141 81.194 17.2721 82.7982 13.207 85.6602C11.9674 86.8268 11.5208 87.5651 11.8672 87.875C12.2135 88.1667 12.9701 88.2214 14.1367 88.0391C17.4909 86.7448 23.5339 85.3138 32.2656 83.7461C33.651 83.7461 34.3438 83.9375 34.3438 84.3203C34.3438 84.7031 29.513 85.9062 19.8516 87.9297C13.4349 90.2083 9.87109 91.1016 9.16016 90.6094C8.46745 90.099 8.30339 89.3333 8.66797 88.3125C8.90495 87.3464 10.8372 85.569 14.4648 82.9805L16.5977 80.9023C17.2904 79.681 17.2083 79.0612 16.3516 79.043C15.4948 79.0247 14.2643 79.3255 12.6602 79.9453C11.056 80.5469 10.0807 81.3216 9.73438 82.2695C9.38802 83.1992 8.84115 83.6367 8.09375 83.582C7.34635 83.5091 6.98177 82.8073 7 81.4766C10.737 78.6875 13.526 77.2383 15.3672 77.1289ZM40.6602 77.1562C44.707 76.5182 46.8307 77.2656 47.0312 79.3984C47.5781 81.2396 44.6159 83.7096 38.1445 86.8086C31.6732 89.9076 27.7904 91.4479 26.4961 91.4297C25.2018 91.4115 24.3633 91.1836 23.9805 90.7461C23.6159 90.2904 23.5339 89.4701 23.7344 88.2852C23.9349 87.1003 25.7943 85.1133 29.3125 82.3242C32.8307 79.5169 36.6133 77.7943 40.6602 77.1562ZM26.9883 86.7539C25.4023 88.668 25.849 89.4154 28.3281 88.9961C30.8255 88.5768 35.9023 86.0794 43.5586 81.5039L44.1328 80.9844C44.8802 79.8177 44.2878 79.1068 42.3555 78.8516C40.4232 78.5964 37.7708 79.3711 34.3984 81.1758C31.0443 82.9622 28.5742 84.8216 26.9883 86.7539ZM90.0703 42.0469C91.1458 41.3724 92.3854 41.9831 93.7891 43.8789C94.1901 44.8451 93.9805 45.2552 93.1602 45.1094L90.6992 43.8789L67.7578 67.832L56.6016 79.5078C59.901 79.5078 61.5781 80 61.6328 80.9844C61.8333 81.6042 61.6237 82.2695 61.0039 82.9805C60.3841 83.6914 59.7461 84.3385 59.0898 84.9219C58.4336 85.5052 58.0143 85.9518 57.832 86.2617C64.7227 83.819 67.4115 83.4089 65.8984 85.0312C59.5365 87.8021 55.8997 89.3333 54.9883 89.625C54.0951 89.9167 53.2474 90.0807 52.4453 90.1172C51.6615 90.1536 51.388 89.6888 51.625 88.7227C57.8594 83.8555 59.7188 81.6042 57.2031 81.9688C52.9922 81.9688 48.9453 84.0833 45.0625 88.3125C41.1797 92.5417 38.6094 95.2122 37.3516 96.3242C36.0938 97.418 31.8464 100.59 24.6094 105.84C21.401 107.973 18.1289 109.568 14.793 110.625C11.4388 111.701 9.00521 112.357 7.49219 112.594C5.96094 112.849 4.57552 112.885 3.33594 112.703C2.07812 112.539 1.1849 111.892 0.65625 110.762C0.127604 109.632 0.291667 108.255 1.14844 106.633C1.98698 105.01 3.31771 103.543 5.14062 102.23C13.763 95.8685 23.6797 90.3451 34.8906 85.6602L37.625 84.6758C48.599 82.1419 55.0794 79.0885 57.0664 75.5156L57.668 74.7773C65.0143 67.6315 73.4453 59 82.9609 48.8828L90.0703 42.0469ZM4.45703 109.914C4.69401 110.388 5.76953 110.507 7.68359 110.27L13.8633 108.438C20.8086 106.286 27.8451 101.948 34.9727 95.4219C42.082 88.8958 45.5091 85.5143 45.2539 85.2773C44.9987 85.0221 44.6432 84.9401 44.1875 85.0312C36.9141 85.888 27.4076 90.1901 15.668 97.9375C10.1081 100.945 6.38932 104.172 4.51172 107.617C4.22005 108.674 4.20182 109.44 4.45703 109.914ZM79.8164 77.8945C81.3659 77.2201 82.888 77.0104 84.3828 77.2656C85.8776 77.5026 86.6341 78.5052 86.6523 80.2734C86.6523 82.7708 81.7852 84.5482 72.0508 85.6055C70.0091 86.1888 69.0065 86.8997 69.043 87.7383C69.0977 88.5768 69.4714 89.0872 70.1641 89.2695C70.875 89.4336 71.6224 89.5521 72.4062 89.625C73.2083 89.6797 76.207 89.1966 81.4023 88.1758C86.5977 87.1367 89.1589 86.7812 89.0859 87.1094C89.0312 87.4193 86.5703 88.2031 81.7031 89.4609C76.8542 90.7005 72.8802 91.2018 69.7812 90.9648C67.7031 90.3815 66.8737 89.2057 67.293 87.4375L67.5117 86.207H65.6797C65.5339 85.7695 65.8438 85.3685 66.6094 85.0039C67.3932 84.6211 71.7956 82.2513 79.8164 77.8945ZM76.6172 81.4492C70.9479 83.8737 71.2214 84.4935 77.4375 83.3086C82.4505 82.069 84.957 81.0026 84.957 80.1094C84.957 79.2161 83.8633 78.888 81.6758 79.125L76.6172 81.4492ZM124.441 77.293C125.754 76.8737 126.31 77.3841 126.109 78.8242C120.24 83.3268 117.405 85.8516 117.605 86.3984C117.077 87.3828 117.332 87.9844 118.371 88.2031C120.303 87.9479 122.609 87.1641 125.289 85.8516C127.987 84.5208 129.217 84.2018 128.98 84.8945C128.342 86.2435 126.118 87.6836 122.309 89.2148C118.517 90.7279 116.32 91.1198 115.719 90.3906C115.117 89.6615 114.98 88.0846 115.309 85.6602L105.602 90.1992C104.398 90.5273 103.378 90.5638 102.539 90.3086C101.719 90.0352 101.418 89.2422 101.637 87.9297C105.41 82.1693 108.081 79.0247 109.648 78.4961C111.216 77.9492 111.59 78.3047 110.77 79.5625C105.921 84.5208 103.642 87.3555 103.934 88.0664C104.243 88.7773 106.732 87.8932 111.398 85.4141C116.065 82.9167 120.413 80.2096 124.441 77.293ZM153.809 77.293C154.611 77.0195 155.121 77.4935 155.34 78.7148C159.332 77.5664 161.811 77.1289 162.777 77.4023C163.743 77.6758 164.29 78.1315 164.418 78.7695C164.564 79.4076 163.652 80.6654 161.684 82.543C159.733 84.4206 157.792 85.8516 155.859 86.8359C153.927 87.8203 152.897 88.5677 152.77 89.0781L164.117 84.8398C164.701 84.6211 164.874 84.776 164.637 85.3047C164.236 86.3255 161.957 87.556 157.801 88.9961C153.663 90.4362 151.302 91.0924 150.719 90.9648C149.479 90.6732 149.133 89.9896 149.68 88.9141C157.591 83.7734 161.547 80.8385 161.547 80.1094C161.93 79.4167 161.747 79.1068 161 79.1797C160.253 79.2344 158.676 79.6263 156.27 80.3555C153.863 81.0664 148.395 84.1289 139.863 89.543C138.387 89.8346 137.53 89.5247 137.293 88.6133C144.712 84.6211 150.217 80.8477 153.809 77.293ZM178.691 77.8945C180.241 77.2201 181.763 77.0104 183.258 77.2656C184.753 77.5026 185.509 78.5052 185.527 80.2734C185.527 82.7708 180.66 84.5482 170.926 85.6055C168.884 86.1888 167.882 86.8997 167.918 87.7383C167.973 88.5768 168.346 89.0872 169.039 89.2695C169.75 89.4336 170.497 89.5521 171.281 89.625C172.083 89.6797 175.082 89.1966 180.277 88.1758C185.473 87.1367 188.034 86.7812 187.961 87.1094C187.906 87.4193 185.445 88.2031 180.578 89.4609C175.729 90.7005 171.755 91.2018 168.656 90.9648C166.578 90.3815 165.749 89.2057 166.168 87.4375L166.387 86.207H164.555C164.409 85.7695 164.719 85.3685 165.484 85.0039C166.268 84.6211 170.671 82.2513 178.691 77.8945ZM175.492 81.4492C169.823 83.8737 170.096 84.4935 176.312 83.3086C181.326 82.069 183.832 81.0026 183.832 80.1094C183.832 79.2161 182.738 78.888 180.551 79.125L175.492 81.4492ZM195.152 76.9102C195.882 76.6549 196.31 76.7917 196.438 77.3203C196.565 78.2865 196.757 78.8607 197.012 79.043C197.285 79.207 199.536 78.6237 203.766 77.293C204.367 77.3659 204.495 77.7122 204.148 78.332C203.529 79.2982 201.359 80.9388 197.641 83.2539L194.195 86.7539L193.102 88.1484C192.646 88.8411 192.819 89.1419 193.621 89.0508C194.441 88.9596 195.289 88.8685 196.164 88.7773C197.057 88.668 198.251 88.4401 199.746 88.0938L203.848 87.3828C206.309 86.7266 207.43 86.6354 207.211 87.1094C206.664 88.1484 203.091 89.2422 196.492 90.3906C195.526 90.7005 193.867 90.8919 191.516 90.9648C190.732 90.8555 190.34 90.5182 190.34 89.9531C190.358 89.388 190.668 88.5951 191.27 87.5742C191.889 86.5534 193.794 84.3841 196.984 81.0664L195.59 81.5039C194.678 81.8503 194.232 81.6497 194.25 80.9023V79.8906L191.188 82.5156L188.836 84.293C187.906 84.4388 187.523 84.0924 187.688 83.2539C191.935 79.2799 194.423 77.1654 195.152 76.9102ZM220.719 77.1289C222.451 76.9648 223.635 77.9401 224.273 80.0547C223.799 81.4036 222.97 82.5703 221.785 83.5547H222.25C224.328 81.9688 225.54 81.7409 225.887 82.8711C221.822 85.1497 219.671 86.8997 219.434 88.1211C219.197 89.3242 219.844 89.6797 221.375 89.1875L228.293 86.3984C228.967 86.599 229.122 86.9818 228.758 87.5469C224.602 89.8255 221.503 90.9648 219.461 90.9648C217.565 90.7461 217.255 89.4154 218.531 86.9727C212.607 89.6341 208.733 90.9648 206.91 90.9648C205.652 90.5091 205.188 89.3698 205.516 87.5469C209.708 80.7109 214.776 77.2383 220.719 77.1289ZM210.984 83.7188C208.068 86.4714 206.855 88.1849 207.348 88.8594C207.84 89.5339 209.854 89.1055 213.391 87.5742C216.945 86.0247 219.424 84.0195 220.828 81.5586C222.141 79.9362 221.703 79.0794 219.516 78.9883C216.745 79.3711 213.901 80.9479 210.984 83.7188ZM248.309 77.6211C251.061 76.0352 251.991 76.099 251.098 77.8125C250.022 78.8333 246.768 81.2396 241.336 85.0312C240.716 86.2161 240.406 87.1276 240.406 87.7656C240.406 88.3854 241.227 88.3854 242.867 87.7656C244.526 87.1276 246.65 85.8151 249.238 83.8281C249.785 83.901 249.995 84.3203 249.867 85.0859C249.758 85.8333 248.582 86.7812 246.34 87.9297C244.116 89.0599 242.311 89.707 240.926 89.8711C239.559 90.0169 238.811 89.8802 238.684 89.4609C238.574 89.0234 238.684 87.9388 239.012 86.207L229.715 90.9648C228.712 91.1836 228.247 90.7917 228.32 89.7891C229.633 86.3073 230.562 84.5208 231.109 84.4297C232.185 84.3568 232.495 84.9492 232.039 86.207C230.38 88.3763 230.38 88.9688 232.039 87.9844C238.893 84.7031 244.316 81.2487 248.309 77.6211ZM262.227 76.6914C263.083 76.5456 263.43 76.819 263.266 77.5117C259.638 79.8451 257.451 81.5677 256.703 82.6797C261.115 82.8073 263.32 84.3841 263.32 87.4102C263.32 89.0326 260.285 90.2174 254.215 90.9648C251.9 90.9284 250.533 90.6458 250.113 90.1172C249.712 89.5703 249.585 88.9414 249.73 88.2305C249.876 87.5195 250.697 86.4076 252.191 84.8945C251.608 84.694 251.435 84.3568 251.672 83.8828C256.594 79.4896 260.112 77.0924 262.227 76.6914ZM257.852 84.4023C255.901 84.2018 254.452 84.6029 253.504 85.6055C252.574 86.6081 252.018 87.3464 251.836 87.8203C251.672 88.2943 251.727 88.668 252 88.9414C252.292 89.2148 252.784 89.3607 253.477 89.3789C254.188 89.3789 255.318 89.2604 256.867 89.0234C258.435 88.7865 259.665 88.4674 260.559 88.0664C261.452 87.6471 261.707 86.9818 261.324 86.0703C260.96 85.1406 259.802 84.5846 257.852 84.4023Z" fill="#7B6C64"/>
<defs>
<clipPath id="clip0">
<rect width="440" height="422" fill="white" transform="translate(216.859)"/>
</clipPath>
</defs>
</svg>
