<svg width="549" height="468" viewBox="0 0 549 468" fill="none" xmlns="http://www.w3.org/2000/svg">
<g clip-path="url(#clip0)">
<path d="M439.712 256.16C438.56 239.37 436.256 222.02 429.345 206.349C427.617 202.711 425.89 199.073 423.874 195.435C417.251 176.406 407.46 158.496 394.502 141.985C387.591 133.03 380.104 124.355 371.466 116.8C373.193 117.359 374.921 117.639 375.785 117.919C386.727 120.717 396.518 127.154 404.581 134.71C408.612 138.347 414.659 132.471 410.628 128.833C399.11 118.199 385.864 111.203 370.314 108.125C367.146 107.565 362.539 106.725 357.932 106.446C357.644 106.166 357.356 106.166 357.356 105.886C380.68 100.009 406.021 116.24 423.01 132.191C427.042 135.829 433.089 129.952 429.057 126.314C407.46 105.886 375.785 88.5358 347.565 100.289C347.277 100.009 346.989 100.009 346.701 99.7294C365.131 82.9389 398.534 76.5026 418.403 89.6551C423.01 92.7334 427.329 85.4575 422.722 82.3793C398.822 66.4283 359.083 74.8236 338.35 95.5318C338.062 95.5318 338.062 95.2519 337.775 95.2519C347.277 72.8647 374.921 62.2307 397.67 54.1153C402.853 52.4363 400.549 44.3209 395.366 46C369.45 54.9549 340.942 66.988 330 91.614C325.68 89.6551 321.073 87.9761 316.754 86.0172C301.492 79.8607 285.366 75.6631 268.953 74.2639C257.722 73.1445 246.492 73.7042 235.261 74.5437C201.858 69.7864 167.303 72.305 134.476 80.9801C107.12 88.8156 81.7798 101.968 61.0468 121.557C40.3138 141.426 23.6122 166.891 13.2457 193.476C-2.87993 234.053 -4.60768 281.346 9.79023 323.042C10.0782 324.162 10.3661 325.281 10.6541 326.4C27.0677 382.648 71.4133 432.46 129.005 450.93C149.738 457.366 171.335 460.164 192.932 460.164C213.089 465.202 233.534 468.56 254.555 468C280.471 467.44 306.099 460.724 329.136 449.251C360.523 433.58 386.151 408.394 405.157 379.57C430.209 342.351 442.303 300.375 439.712 256.16ZM362.827 117.08C372.905 124.915 381.256 134.989 389.031 145.064C391.911 148.702 394.502 152.339 397.094 156.257C385.288 141.985 371.178 130.232 355.34 120.717C352.748 119.038 349.869 117.359 347.277 115.68C350.157 114.561 354.764 114.561 359.659 115.121C360.811 115.4 361.963 116.24 362.827 117.08ZM330 113.162C330.863 114.001 331.727 114.561 332.879 114.561C333.455 115.4 334.607 115.96 335.471 115.96C336.047 116.24 336.623 116.52 337.199 116.8C338.062 118.199 339.79 119.038 341.518 119.038C342.958 119.878 344.398 120.438 345.837 121.277C347.565 122.117 349.293 123.236 350.733 124.076C355.34 127.154 359.659 130.512 363.979 133.59C380.392 145.903 391.623 162.134 401.125 180.044C416.963 210.546 423.01 242.728 420.706 276.869C418.691 302.894 412.068 328.359 399.973 351.866C375.497 399.159 329.424 429.102 276.151 437.777C223.455 446.172 164.136 446.732 114.607 424.904C100.785 417.908 87.8269 409.793 75.7326 400.558C36.5703 367.257 15.5494 313.528 17.2771 263.436C18.429 234.613 26.4918 204.11 42.0415 179.204C59.0311 152.06 86.3871 131.911 114.895 117.359C146.57 101.129 181.413 93.2931 216.832 92.7334C245.916 92.1737 276.439 92.7334 304.659 101.408C312.146 104.767 319.633 108.125 326.832 111.763C327.408 112.602 328.56 113.162 329.712 113.162H330ZM328.272 97.4907C327.696 99.4496 327.12 101.408 326.832 103.647C320.209 100.569 313.298 97.7705 306.387 95.8116C291.701 89.6551 276.727 84.0583 261.178 80.1405C284.79 80.7002 306.675 88.2559 328.272 97.4907ZM235.261 80.9801C239.581 81.5397 243.9 82.3793 248.22 83.2188C255.994 84.618 263.481 86.5769 270.968 88.8156C264.345 87.9761 258.01 87.6962 251.387 87.4164C217.696 85.7374 184.869 86.8567 152.617 96.0915C152.905 96.0915 152.905 95.8116 153.193 95.8116C171.047 90.2148 189.476 87.1366 207.905 84.3382C217.12 82.9389 226.047 81.8196 235.261 80.9801ZM60.7588 130.512C81.2038 108.684 107.408 95.2519 136.492 87.1366C158.953 80.9801 182.565 78.1817 206.178 78.7413C176.518 82.9389 147.722 89.6551 120.366 102.528C91.5703 116.24 65.9421 135.829 44.9211 159.335C31.963 173.607 21.8845 189.558 14.6855 206.629C23.9002 178.365 40.3138 152.06 60.7588 130.512ZM14.6855 318.005C14.3976 316.886 14.1096 315.487 13.8216 314.367C6.62269 284.704 7.48656 251.683 15.5494 222.3C18.141 212.785 21.8845 203.83 26.7798 195.155C11.518 229.016 7.48656 268.194 14.3976 304.013C18.141 323.602 25.34 342.631 35.1305 359.981C26.2038 347.109 19.5808 332.837 14.6855 318.005ZM134.476 446.452C97.6174 436.098 66.518 412.032 44.6332 381.529C54.4237 392.163 65.3661 401.398 77.1724 409.793C88.6908 418.748 101.361 426.304 115.183 431.9C132.172 440.016 149.738 447.012 167.303 452.609C156.073 451.489 145.131 449.251 134.476 446.452ZM192.068 454.008C181.989 451.489 171.911 448.411 161.832 445.053C176.806 447.572 192.068 448.691 207.042 448.971C224.319 449.251 241.884 448.691 259.45 446.452C249.083 448.691 238.717 450.37 228.35 451.489C216.544 453.168 204.45 454.008 192.068 454.008ZM360.811 421.267C320.497 455.407 267.801 467.72 215.968 459.045C248.507 456.247 281.047 448.131 310.706 438.337C349.869 425.184 382.984 401.118 405.157 368.656C393.638 388.245 378.665 406.435 360.811 421.267ZM423.01 314.927C416.963 337.594 406.596 358.302 392.199 376.212C397.958 368.377 403.141 359.981 407.46 351.306C419.267 327.8 425.026 301.775 427.042 275.749C429.345 243.568 423.298 212.785 409.764 183.682C412.932 188.439 415.811 193.196 418.691 198.233C423.01 210.267 425.89 222.58 427.617 235.452C430.785 262.037 429.921 289.182 423.01 314.927Z" fill="#917171"/>
<path d="M162.983 175.007C154.056 181.163 144.266 184.801 133.611 185.641C128.14 185.92 128.14 194.316 133.611 194.036C139.37 193.476 145.13 192.637 150.313 190.678C149.161 196.275 149.161 204.11 150.889 209.707C151.465 214.184 153.192 218.382 156.936 220.901C159.239 222.58 162.407 220.901 163.271 218.382C163.559 217.263 164.135 215.863 164.423 214.744V214.464C166.15 207.468 166.438 200.472 165.287 193.476C164.999 191.517 163.847 188.159 162.407 185.641C164.135 184.801 165.863 183.682 167.59 182.562C171.91 178.924 167.59 171.649 162.983 175.007Z" fill="#917171"/>
<path d="M309.266 181.723C302.355 180.883 295.732 179.484 289.397 177.245C289.397 177.245 289.397 177.245 289.109 177.245H288.821C285.366 176.126 281.91 174.727 278.743 173.327C273.848 171.089 269.24 178.365 274.424 180.603C277.303 182.003 280.471 183.122 283.35 184.241C281.91 194.595 280.183 209.427 290.837 215.024C292.853 216.143 295.157 215.583 296.308 213.904C297.46 213.345 298.324 212.505 298.9 211.386C301.492 205.229 299.476 197.953 298.324 191.517C298.036 190.398 297.748 189.278 297.46 188.439C301.204 189.278 305.235 189.838 309.266 190.398C314.738 190.957 314.738 182.562 309.266 181.723Z" fill="#917171"/>
<path d="M321.937 356.064C311.57 314.647 278.455 282.186 235.837 271.832C214.24 266.515 192.356 269.593 175.942 284.424C157.801 300.935 146.57 326.96 138.507 349.347C136.78 354.385 145.13 356.623 146.858 351.586C154.345 330.878 164.424 310.45 179.11 293.379C194.947 274.63 219.712 275.469 241.596 281.906C277.591 292.26 304.947 323.322 313.586 358.023C315.026 363.619 323.377 361.381 321.937 356.064Z" fill="#917171"/>
<path d="M156.072 237.411C155.784 235.172 154.056 234.333 152.329 234.333C150.889 234.053 149.737 234.333 148.585 235.172C148.297 235.452 147.721 235.732 147.433 236.012C141.674 241.888 128.716 258.679 138.219 266.235C143.114 269.872 148.873 267.074 151.753 262.597C152.905 260.918 153.48 258.959 153.768 256.72C154.344 256.16 154.92 255.601 154.92 254.481C155.496 250.004 155.784 245.526 155.784 241.049C156.36 239.93 156.36 238.81 156.072 237.411Z" fill="#917171"/>
<path d="M314.449 246.646C313.586 239.09 310.13 232.374 304.659 227.057C303.795 226.218 302.931 225.938 302.067 225.938C299.764 224.259 295.156 225.378 294.868 229.296C294.004 237.971 291.701 266.794 308.114 263.157C314.737 261.198 315.025 251.683 314.449 246.646Z" fill="#917171"/>
</g>
<path d="M455.871 28.1562C459.918 27.5182 462.042 28.2656 462.242 30.3984C462.789 32.2396 459.827 34.7096 453.355 37.8086C446.884 40.9076 443.001 42.4479 441.707 42.4297C440.413 42.4115 439.574 42.1836 439.191 41.7461C438.827 41.2904 438.745 40.4701 438.945 39.2852C439.146 38.1003 441.005 36.1133 444.523 33.3242C448.042 30.5169 451.824 28.7943 455.871 28.1562ZM442.199 37.7539C440.613 39.668 441.06 40.4154 443.539 39.9961C446.036 39.5768 451.113 37.0794 458.77 32.5039L459.344 31.9844C460.091 30.8177 459.499 30.1068 457.566 29.8516C455.634 29.5964 452.982 30.3711 449.609 32.1758C446.255 33.9622 443.785 35.8216 442.199 37.7539ZM495.492 9.26172C496.677 9.89974 497.033 10.3464 496.559 10.6016C496.085 10.8568 495.31 11.0664 494.234 11.2305C493.195 11.3763 492.047 11.5677 490.789 11.8047L488.52 12.2422C487.28 12.4792 486.159 12.7344 485.156 13.0078C484.154 13.2812 483.115 13.5638 482.039 13.8555C480.964 14.1289 479.678 14.6029 478.184 15.2773C476.707 15.9518 475.85 16.6901 475.613 17.4922C475.395 18.276 475.723 19.5065 476.598 21.1836L478.129 23.1797C478.967 24.2734 479.487 25.4492 479.688 26.707C479.779 27.5273 479.232 29.0312 478.047 31.2188C476.88 33.388 475.914 34.7461 475.148 35.293C471.812 38.6654 468.65 40.6706 465.66 41.3086C462.671 41.9466 460.829 42.0833 460.137 41.7188C459.462 41.3542 459.107 40.7982 459.07 40.0508C460.747 31.3372 466.116 26.6979 475.176 26.1328C476.361 25.8958 476.753 25.513 476.352 24.9844C475.951 24.4557 475.276 23.4076 474.328 21.8398C473.453 19.8164 473.125 18.4036 473.344 17.6016C473.581 16.7995 474.137 15.9974 475.012 15.1953L475.586 14.7852L476.133 14.3203L477.363 13.6094C479.861 12.5885 481.857 11.8958 483.352 11.5312L486.77 10.5469C488.355 10.1276 490.543 9.72656 493.332 9.34375L495.492 9.26172ZM461.422 38.1367C460.966 39.5221 461.586 40.1602 463.281 40.0508C465.997 39.431 468.568 38.2734 470.992 36.5781C473.654 34.4453 475.212 32.0755 475.668 29.4688C474.811 28.4661 473.854 28.0833 472.797 28.3203L470.445 28.7305L468.805 29.2773L466.398 30.6719C463.464 33.3333 461.805 35.8216 461.422 38.1367ZM497.16 28.293C498.473 27.8737 499.029 28.3841 498.828 29.8242C492.958 34.3268 490.124 36.8516 490.324 37.3984C489.796 38.3828 490.051 38.9844 491.09 39.2031C493.022 38.9479 495.328 38.1641 498.008 36.8516C500.706 35.5208 501.936 35.2018 501.699 35.8945C501.061 37.2435 498.837 38.6836 495.027 40.2148C491.236 41.7279 489.039 42.1198 488.438 41.3906C487.836 40.6615 487.699 39.0846 488.027 36.6602L478.32 41.1992C477.117 41.5273 476.096 41.5638 475.258 41.3086C474.438 41.0352 474.137 40.2422 474.355 38.9297C478.129 33.1693 480.799 30.0247 482.367 29.4961C483.935 28.9492 484.309 29.3047 483.488 30.5625C478.639 35.5208 476.361 38.3555 476.652 39.0664C476.962 39.7773 479.451 38.8932 484.117 36.4141C488.784 33.9167 493.132 31.2096 497.16 28.293ZM511.898 7.64844L514.359 7.78516L516.438 8.03125L518.543 8.33203C519.746 8.55078 521.277 8.89714 523.137 9.37109C527.092 10.6654 529.872 12.5247 531.477 14.9492C533.099 17.3555 533.892 19.0872 533.855 20.1445C533.855 27.2357 526.746 33.4518 512.527 38.793C508.171 40.7253 504.944 41.6914 502.848 41.6914C501.535 41.5638 501.152 40.7161 501.699 39.1484C507.259 31.5469 512.71 27.7461 518.051 27.7461C519.947 27.7461 520.895 29.2227 520.895 32.1758H522.016C528.414 28.8398 531.613 25.2487 531.613 21.4023C532.16 20.5091 531.358 18.5404 529.207 15.4961C527.074 12.4336 522.307 10.638 514.906 10.1094C507.523 9.5625 500.596 9.58984 494.125 10.1914C485.302 12.069 480.891 14.1198 480.891 16.3438C479.724 17.401 479.15 17.1823 479.168 15.6875C481.629 10.6198 489.34 7.95833 502.301 7.70312L507.77 7.51172L511.898 7.64844ZM506.922 35.375C502.984 39.1849 504.042 40.0599 510.094 38C516.164 35.9219 519.199 33.7708 519.199 31.5469V30.918C518.579 29.569 517.449 29.1406 515.809 29.6328C513.84 29.6328 510.878 31.5469 506.922 35.375ZM536.645 28.1562C537.647 27.8099 538.212 28.1107 538.34 29.0586C535.587 31.0456 534.12 32.3398 533.938 32.9414L533.855 33.1055L535.77 32.2852C540.053 30.8086 543.772 30.1797 546.926 30.3984C547.564 30.4167 547.801 30.8542 547.637 31.7109C545.85 33.388 544.355 34.6549 543.152 35.5117C537.556 38.7565 535.314 40.3607 536.426 40.3242L539.16 39.9688L546.133 38.793C548.266 38.556 548.794 38.7656 547.719 39.4219C546.643 40.0599 544.948 40.5794 542.633 40.9805C540.336 41.3633 538.185 41.6914 536.18 41.9648C534.812 42.0742 534.02 41.974 533.801 41.6641C533.582 41.3542 533.655 40.8893 534.02 40.2695C534.384 39.6315 536.28 38.0365 539.707 35.4844C541.147 34.6458 542.141 34.0443 542.688 33.6797C543.234 33.2969 543.973 32.7409 544.902 32.0117L543.344 32.2031C535.669 33.4062 531.859 34.9557 531.914 36.8516C532.224 39.6589 530.064 41.181 525.434 41.418C524.139 41.3268 523.392 41.026 523.191 40.5156C522.991 40.0052 523.055 39.4766 523.383 38.9297C527.357 35.0833 531.777 31.4922 536.645 28.1562ZM525.871 38.3281C525.051 39.1484 524.741 39.6771 524.941 39.9141C525.16 40.1328 525.862 40.1328 527.047 39.9141C529.745 39.5495 530.811 38.2734 530.246 36.0859C529.882 35.6667 529.262 35.7305 528.387 36.2773C527.53 36.8242 526.691 37.5078 525.871 38.3281Z" fill="#7B6C64"/>
<defs>
<clipPath id="clip0">
<rect width="440" height="422" fill="white" transform="translate(0 46)"/>
</clipPath>
</defs>
</svg>
