<svg width="90" height="97" fill="none" xmlns="http://www.w3.org/2000/svg"><path fill-rule="evenodd" clip-rule="evenodd" d="M42 75a6 6 0 1 1-12 0 6 6 0 0 1 12 0zm24 6a6 6 0 1 0 0-12 6 6 0 0 0 0 12z" fill="#163666"/><path d="M18.534 10.78a6.003 6.003 0 0 0-1.98-2.947l-.518-.417a6 6 0 0 0-3.685-1.329L6 6a3 3 0 0 0 0 6h4.5c.296 0 .567.027.814.073a3.424 3.424 0 0 1 1.556.709c.098.08.184.16.257.235.284.292.43.68.541 1.072L16.5 24l9.305 34.56A6 6 0 0 0 31.598 63h38.804a6 6 0 0 0 5.793-4.44L85.5 24h-6l-1.829 6-7.27 27H31.599L24.33 30l-1.83-6-3.966-13.22z" fill="#163666"/><path d="M66 94.354A27.86 27.86 0 0 0 51 90a27.86 27.86 0 0 0-15 4.354" stroke="#163666" stroke-width="5" stroke-linecap="round"/></svg>