<svg width="90" height="97" viewBox="0 0 90 97" fill="none" xmlns="http://www.w3.org/2000/svg">
<path fill-rule="evenodd" clip-rule="evenodd" d="M42 75C42 78.3137 39.3137 81 36 81C32.6863 81 30 78.3137 30 75C30 71.6863 32.6863 69 36 69C39.3137 69 42 71.6863 42 75ZM66 81C69.3137 81 72 78.3137 72 75C72 71.6863 69.3137 69 66 69C62.6863 69 60 71.6863 60 75C60 78.3137 62.6863 81 66 81Z" fill="#163666"/>
<path d="M18.534 10.7799C18.3857 10.2856 18.1751 9.81538 17.9094 9.37966C17.5517 8.7933 17.0941 8.26942 16.5535 7.83348L16.0358 7.41597C14.9909 6.57332 13.6937 6.10539 12.3515 6.08701L6 6C4.34315 6 3 7.34315 3 9C3 10.6294 4.29896 11.9554 5.91782 11.9989C5.94513 11.9996 5.97252 12 6 12H10.5C10.7965 12 11.0673 12.0268 11.314 12.0734C12.0155 12.2056 12.5224 12.4967 12.8703 12.7817C12.9682 12.8619 13.0535 12.9415 13.127 13.0171C13.4109 13.3087 13.5563 13.6972 13.6682 14.0886L16.5 24L25.8046 58.5598C26.5099 61.1795 28.8853 63 31.5983 63H70.4017C73.1147 63 75.4901 61.1795 76.1954 58.5598L85.5 24H79.5L77.671 30L70.4017 57H31.5983L24.329 30L22.5 24L18.534 10.7799Z" fill="#163666"/>
<path d="M66 94.3542C61.6643 91.5971 56.5187 90 51 90C45.4813 90 40.3357 91.5971 36 94.3542" stroke="#163666" stroke-width="5" stroke-linecap="round"/>
</svg>
