<svg width="90" height="90" fill="none" xmlns="http://www.w3.org/2000/svg"><path fill-rule="evenodd" clip-rule="evenodd" d="M1.177 66.416C.516 64.683 1.94 63 3.794 63h28.412c1.855 0 3.278 1.683 2.617 3.416C32.238 73.19 25.681 78 18 78c-7.68 0-14.238-4.81-16.823-11.584zm54 0C54.516 64.683 55.94 63 57.794 63h28.412c1.855 0 3.278 1.683 2.617 3.416C86.238 73.19 79.681 78 72 78c-7.68 0-14.238-4.81-16.823-11.584zM45 21V9a6.002 6.002 0 0 0-5.59 3.819c-4.023 1.227-7.017 3.624-9.617 5.705l-.167.133C25.838 21.688 22.837 24 18 24h-6a3 3 0 0 0 0 6h1.13L4.766 52.974C4.055 54.93 5.504 57 7.587 57a3 3 0 0 0 2.818-1.974l7.57-20.799 7.57 20.8A3 3 0 0 0 28.366 57c2.082 0 3.531-2.07 2.819-4.026l-8.562-23.525c4.517-1.116 7.78-3.728 10.585-5.973l.167-.133c2.427-1.942 4.53-3.588 7-4.521A5.988 5.988 0 0 0 45 21zm0 0V9a6.002 6.002 0 0 1 5.591 3.819c4.022 1.227 7.017 3.624 9.616 5.705l.167.133C64.163 21.688 67.164 24 72 24h6a3 3 0 1 1 0 6h-1.129l8.362 22.974C85.945 54.93 84.496 57 82.414 57a3 3 0 0 1-2.819-1.974l-7.57-20.799-7.57 20.8A3 3 0 0 1 61.635 57c-2.082 0-3.53-2.07-2.819-4.026l8.563-23.525c-4.518-1.116-7.782-3.728-10.586-5.973l-.167-.133c-2.427-1.942-4.53-3.588-7-4.521A5.988 5.988 0 0 1 45 21z" fill="#163666"/></svg>