<svg width="90" height="90" viewBox="0 0 90 90" fill="none" xmlns="http://www.w3.org/2000/svg">
<path fill-rule="evenodd" clip-rule="evenodd" d="M1.1774 66.4162C0.515974 64.683 1.9392 63 3.79433 63H32.2061C34.0612 63 35.4845 64.683 34.823 66.4162C32.2383 73.1891 25.6811 78 18.0002 78C10.3193 78 3.7621 73.1891 1.1774 66.4162Z" fill="#163666"/>
<path fill-rule="evenodd" clip-rule="evenodd" d="M55.1774 66.4162C54.516 64.683 55.9392 63 57.7943 63H86.2061C88.0612 63 89.4845 64.683 88.823 66.4162C86.2383 73.1891 79.6811 78 72.0002 78C64.3193 78 57.7621 73.1891 55.1774 66.4162Z" fill="#163666"/>
<path fill-rule="evenodd" clip-rule="evenodd" d="M45.0002 21V9C42.4561 9 40.2818 10.5835 39.4091 12.8186C35.3873 14.0464 32.3928 16.4431 29.7933 18.5236L29.6261 18.6574C25.8376 21.6882 22.837 24 18.0002 24H12.0002C10.3434 24 9.00022 25.3431 9.00022 27C9.00022 28.6569 10.3434 30 12.0002 30H13.1291L4.76729 52.9739C4.05511 54.9306 5.5041 57 7.58637 57C8.84756 57 9.97409 56.2112 10.4054 55.0261L17.9757 34.2271L25.5459 55.0261C25.9772 56.2112 27.1037 57 28.3649 57C30.4472 57 31.8962 54.9306 31.184 52.9739L22.6217 29.449C27.139 28.3331 30.4029 25.7207 33.2071 23.4764L33.3743 23.3426C35.8012 21.4011 37.9047 19.7547 40.3748 18.8219C41.4753 20.1523 43.1388 21 45.0002 21Z" fill="#163666"/>
<path fill-rule="evenodd" clip-rule="evenodd" d="M45.0002 21V9C47.5444 9 49.7187 10.5835 50.5914 12.8186C54.6131 14.0464 57.6077 16.4431 60.2071 18.5236L60.3743 18.6574C64.1628 21.6882 67.1635 24 72.0002 24H78.0002C79.6571 24 81.0002 25.3431 81.0002 27C81.0002 28.6569 79.6571 30 78.0002 30H76.8713L85.2331 52.9739C85.9453 54.9306 84.4963 57 82.4141 57C81.1529 57 80.0263 56.2112 79.595 55.0261L72.0248 34.2271L64.4546 55.0261C64.0232 56.2112 62.8967 57 61.6355 57C59.5532 57 58.1042 54.9306 58.8164 52.9739L67.3788 29.449C62.8614 28.3331 59.5975 25.7207 56.7933 23.4764L56.6261 23.3426C54.1993 21.4011 52.0957 19.7547 49.6257 18.8219C48.5251 20.1523 46.8617 21 45.0002 21Z" fill="#163666"/>
</svg>
