<svg width="90" height="90" viewBox="0 0 90 90" fill="none" xmlns="http://www.w3.org/2000/svg">
<path fill-rule="evenodd" clip-rule="evenodd" d="M77.0897 50.7303C85.8764 41.9435 85.8765 27.6972 77.0897 18.9104C68.3033 10.1241 54.058 10.1236 45.2711 18.9092C45.2707 18.9096 45.2716 18.9087 45.2711 18.9092L44.9996 19.1807L44.7292 18.9104C35.9424 10.1236 21.6962 10.1236 12.9094 18.9104C4.12263 27.6972 4.12264 41.9434 12.9094 50.7302L13.1756 51.0047L42.8823 80.7037C44.0539 81.875 45.9532 81.8749 47.1247 80.7034L76.8235 51.0046L77.0897 50.7303ZM72.5487 46.7941L72.8149 46.5197L72.847 46.4876C79.2907 40.044 79.2907 29.5967 72.847 23.1531C66.4034 16.7094 55.9562 16.7094 49.5125 23.1531L44.9996 27.666L40.4866 23.153C34.0429 16.7094 23.5957 16.7094 17.1521 23.1531C10.7084 29.5967 10.7084 40.0439 17.1521 46.4876L17.1843 46.5198L17.4502 46.794L45.0031 74.3397L72.5487 46.7941Z" fill="#163666"/>
</svg>
