<svg width="90" height="90" fill="none" xmlns="http://www.w3.org/2000/svg"><path fill-rule="evenodd" clip-rule="evenodd" d="M77.09 50.73c8.786-8.786 8.786-23.033 0-31.82-8.787-8.786-23.032-8.786-31.819 0 0 0 0-.001 0 0l-.271.27-.27-.27c-8.788-8.786-23.034-8.786-31.82 0-8.787 8.787-8.787 23.033 0 31.82l.266.275 29.706 29.699a3 3 0 0 0 4.243 0l29.698-29.7.267-.274zm-4.541-3.936l.266-.274.032-.032c6.444-6.444 6.444-16.891 0-23.335-6.444-6.444-16.89-6.444-23.334 0L45 27.666l-4.513-4.513c-6.444-6.444-16.891-6.444-23.335 0-6.444 6.444-6.444 16.89 0 23.335l.032.032.266.274L45.003 74.34 72.55 46.794z" fill="#163666"/></svg>