<svg width="890" height="500" viewBox="0 0 890 500" fill="none" xmlns="http://www.w3.org/2000/svg">
<g clip-path="url(#clip0)">
<path fill-rule="evenodd" clip-rule="evenodd" d="M188.165 334.771L172.353 456.65H159.251L147.957 436.904V430.095L133.048 415.57L105.49 413.754L87.4188 426.918L84.7081 424.421L88.5482 419.882L86.2893 412.619L97.5838 399.909L96.9061 393.327L92.3883 388.334L79.2868 386.064L75.8985 374.262L65.5076 373.808L69.1218 367L68.6701 357.921L65.5076 354.29V347.481L61.4416 334.544L50.8249 329.097V322.061L54.4391 318.429L61.8934 321.834H67.9924L72.5102 328.189L77.0279 327.281L80.868 330.232L83.1269 329.097L69.7995 313.89L74.0914 309.805H79.5127L84.0305 300.272L90.1294 301.634L93.2919 299.365L126.046 315.025L131.467 314.344L134.178 316.841L136.888 315.025H145.02V320.699L138.47 322.969L140.503 326.6H151.119L152.249 324.33L148.183 318.656V312.982L150.442 310.94L146.376 306.854L138.47 312.301H132.371L129.434 308.67H126.046L123.109 299.591L129.925 288.486H143.282L145.357 286.575L148.641 288.486H156.911L158.718 285.081H164.437L172.969 292.315L178.198 285.462L199.03 302.376L203.135 303.261L206.477 331L188.165 334.771ZM248.856 322.273L211.391 329.988L207.887 300.897L207.885 300.878L205.623 280.862L189.587 273.648L184.114 268.339V258.984L180.442 254.426L181.289 249.831L189.929 233.958L185.244 229.512V212.335L189.867 205.831L178.415 200.078L174.9 201.962L169.432 199.825V194.186L174.076 189.52L164.653 182.046L166.939 175.004H181.057L190.703 162.082L187.064 150.197L189.227 146.936L187.022 134.971L192.119 129.812L209.173 147.753L219.563 142.306L221.822 137.54H226.792L229.954 133.227L242.83 134.816L246.896 140.944H252.995L257.287 134.816L273.325 138.902V146.845L279.424 153.881H288.008L295.914 159.555L302.239 148.434L306.53 150.25L307.886 153.881H326.409L333.185 149.569L336.165 137.782H342.883V150.85L349.07 145.325L352.029 149.326L349.886 151.479V158.448L357.114 166.846V174.869L360.729 176.912V181.422L354.353 184.825L343.884 198.39L348.531 201.891V205.284L345.27 212.11L358.571 224.541L360.536 221.311L358.785 224.828L377.27 234.981L382.64 243.574V249.512L386.217 254.905L355.748 276.193L351.272 272.145V268.893L335.2 251.006H319.924L309.081 271.887H293.64V279.15H290.341L265.719 304.569H257.293L248.856 322.273ZM431.843 26.1008H427.832L413.602 30.867V39.2646L394.627 36.995L364.132 45.3926H343.35L340.865 42.4421H334.541L331.378 46.5275L334.541 51.2937L329.571 56.9678L343.35 60.3722L331.378 64.4576V68.089L339.51 69.6777L352.386 75.8057L348.772 80.345H340.865L331.378 77.6214L321.439 88.5157L328.216 98.2751L323.924 104.63L316.018 106.9L307.208 112.801L313.533 118.021V124.603H323.246L324.376 129.369H331.152L334.396 132.758H347.883V139.663L349.829 137.926L358.616 149.812L354.886 153.56V156.577L362.114 164.975V171.931L365.729 173.974V184.442L357.647 188.756L350.949 197.434L353.531 199.38V206.427L351.37 210.95L357.495 216.675L359.777 212.923L367.555 218.439L365.413 222.743L380.812 231.201L386.522 240.339H387.459L388.188 234.662L396.817 225.765L398.403 216.735H406.789L408.494 220.16L419.08 221.963L422.528 217.415H428.343L436.175 209.162V201.514L452.902 187.275L458.616 174.874L469.381 167.736V166.379H455.986L445.595 156.62H435.152L429.504 148.903H417.427V129.992L411.865 124.67L428.947 101.31V78.3988L433.943 74.6804L430.969 71.0517L434.474 67.7251L429.578 64.3712L435.817 58.1026L428.89 51.1421L435.576 45.4424L430.204 42.6356L435.004 37.8118L434.112 36.8152L431.931 26.5879L431.843 26.1008ZM438.721 34.4513L436.94 26.1008H438.449L466.459 15.6605H473.462V10.4403L490.178 0L511.863 8.85157L517.51 3.17749L522.254 1.81571L526.772 10.4403V19.7458L532.645 25.1929L531.063 35.4063L528.127 38.3568L532.645 44.2578L537.84 39.9455L540.325 43.8039L550.716 34.4984L557.041 39.9455V46.9814H560.429L562.236 39.9455H568.109L571.949 44.9387H578.048L581.211 41.3073L585.954 45.8466L584.373 49.478H578.726L574.585 56.2664H574.193V66.4183L578.335 67.997L574.746 70.9766L578.574 76.9598L582.326 77.6061H579.252L581.699 82.6729L569.686 81.1866L565.553 73.6151L549.429 77.3181L540.489 66.0901L531.648 67.2906L527.287 64.4423H518.757L516.375 67.5838L512.744 62.8252L509.619 61.6044V57.5101L504.813 54.9098H498.263L495.08 57.7523L493.555 56.4985H486.956L475.346 67.0522L481.353 79.1223V84.576L464.245 98.1676L456.648 93.489L451.832 100.989L447.409 99.6216H433.947V80.9294L441.149 75.5693L437.798 71.4812L442.424 67.0911L437.381 63.6361L442.888 58.1026L436.263 51.4452L444.485 44.4351L438.563 41.3408L441.894 37.9939L438.721 34.4513ZM697.97 100.024L662.079 53.7903L638.586 40.6264L633.843 32.2288H640.168L642.878 29.5052V22.4694L635.198 27.2356H629.777L622.548 36.0872H617.353L611.706 44.9387L598.83 51.9746L596.119 59.0104L587.987 55.379L579.855 60.3722H579.193V62.9508L588.152 66.3652L581.351 72.0102L581.589 72.382L590.487 73.9148V82.6299H587.236L593.198 94.9742V109.382L590.943 113.349L596.278 121.04L589.289 130.223L600.562 143.248L595.367 147.721L597.011 151.142H608.04L623.015 159.184V167.067L622.692 167.893L625.654 164.174L634.109 159.54H644.034L650.373 155.981L655.191 143.879H663.812L679.07 148.618L676.833 155.078L680.263 159.975L681.274 160.991L691.031 159.72L695.527 151.951L693.063 143.192L681.716 132.256V123.836L695.732 108.829L697.97 100.024ZM701.858 105.032L700.258 111.325L686.716 125.824V130.113L697.505 140.512L700.915 152.634L694.116 164.384L679.478 166.29L678.236 165.043L669.323 172.945V180.524L670.707 183.306L677.56 190.765L672.033 196.04V199.789L680.596 211.096L673.261 220.529L671.734 220.968L672.436 223.388L682.513 233.766L677.455 240.72V257.052L673.388 258.641V260.813L676.751 263.922L685.938 257.482L690.07 259.191L704.411 253.015L716.388 259.146L724.322 255.764L730.655 262.127H734.89L745.507 254.189L755.136 262.127H772.929L780.159 259.014L785.293 263.141L790.016 277.375L802.301 286.29L803.404 290.725H807.866L812.52 238.311L822.234 241.716H834.431L846.629 238.311L850.695 243.078H854.987L861.086 233.999L867.411 232.864L869.896 222.424L862.442 203.586V186.791L880.964 175.896V167.499L877.576 162.506L882.094 156.151H887.967L890 153.881V150.704H882.094L873.51 144.576V138.221H870.574L862.442 148.888H841.886L831.269 135.951L817.038 133.681L807.551 118.702L797.386 113.482H789.706L785.64 118.702H779.541L774.797 125.738H765.987L761.695 129.596H754.015L752.434 123.922H747.464L744.98 117.113L735.718 114.843L730.523 118.702L732.556 125.738L723.746 133.227L701.858 105.032ZM662.094 413.043L664.563 408.307H682.86L695.058 403.314L701.835 407.172L704.32 404.222H725.102L730.523 401.498L734.589 405.129L747.464 403.314L754.015 410.35H766.213L773.442 414.889L777.282 413.3V408.307L773.442 405.129V398.32L780.218 394.235L777.282 389.923L780.218 386.518H786.543V382.206L782.477 379.71L784.51 375.397L770.053 355.197L766.213 343.395L769.15 332.047H755.371L757.178 323.423L792.868 306.173L796.482 310.486L802.355 311.394L807.099 307.308L815.231 311.394L816.135 299.365H807.099L807.42 295.748H799.5L797.893 289.289L785.782 280.5L781.017 266.137L779.375 264.817L773.955 267.151H753.347L745.357 260.564L736.547 267.151H728.584L723.171 261.712L716.196 264.685L704.229 258.56L691.516 264.034L689.694 265.865L690.782 267.08V285.462L650.124 286.664L634.842 289.223L611.289 313.741L617.814 341.659L630.47 354.143V359.275L648.435 367.744L652.905 387.6L662.094 402.603V413.043ZM657.094 404.025V413.073H647.17L626.162 402.406L612.157 409.442L608.543 426.01L610.802 431.457L607.188 433.273L602.896 429.187H595.216L590.472 424.875H582.114L575.112 421.244H564.947L552.749 424.875V429.187L548.005 434.181V441.292L530.853 427.094V418.699L523.855 407.611H517.351L513.266 402.522L518.655 383.464V359.908L504.791 327.024L503.967 322.172L507.014 322.074L606.593 315.626L613.278 344.224L625.47 356.251V362.468L644.098 371.248L648.212 389.522L657.094 404.025ZM542.81 446.664L545.833 446.003L525.853 429.465V420.157L521.105 412.634H514.959L507.749 403.651L513.655 382.764V360.928L499.96 328.446L498.923 322.336L460.001 323.597L457.14 340.653L464.668 349.996V373.133L477.134 384.24L475.254 388.774L473.929 391.056V399.267L467.972 406.079L473.234 414.732L458.097 424.871L449.803 427.799L426.277 445.44L425.799 453.699H437.094L443.419 482.524L471.655 479.8L479.109 487.517L475.721 492.51L483.627 500H490.855V489.106L505.086 472.084H507.797L514.574 464.594L523.835 462.324L534.226 449.841L540.325 452.565L542.81 446.664ZM426.655 438.888L447.425 423.313L455.847 420.34L466.461 413.23L461.785 405.542L468.929 397.374V389.698L470.767 386.532L471.145 385.619L459.668 375.392V351.774L451.835 342.053L455.196 322.013L450.515 317.31H443.844L441.585 319.126H416.542L404.34 308.987L368.733 291.897L361.473 284.173H357.067L353.867 281.25L346.272 274.382V270.825L332.978 256.03H322.955L312.112 276.91H298.64V284.173H292.452L267.83 309.593H260.443L253.984 323.146L307.886 367V374.035L327.312 400.136L356.452 394.916L362.777 398.32L388.076 400.136L398.015 393.554L407.277 404.902L412.924 407.626L419.475 423.967L427.832 418.52L426.655 438.888ZM132.603 283.462H141.337L144.684 280.379L149.984 283.462H153.911L155.718 280.057H166.264L172.189 285.08L177.351 278.315L201.245 297.715L202.527 297.991L200.977 284.276L186.744 277.873L179.114 270.472V260.762L175.106 255.787L176.518 248.126L183.691 234.948L180.244 231.677V210.725L182.397 207.696L178.489 205.732L175.227 207.48L164.432 203.262V192.105L166.564 189.962L161.667 186.078L156.895 189.53H146.921L145.721 188.323L142.576 192.445L141.613 196.317L130.444 206.388L114.823 190.21H106.479L99.2502 197.019H83.6707L72.0758 204.941L65.8372 203.316L60.4172 206.287L41.2085 193.577L9.44191 191.946L7.6802 193.827V201.089L11.7462 204.494L16.264 200.409L19.6523 204.948H26.6548L31.8503 210.622V216.75L36.1421 222.197L36.8198 232.864L42.467 243.532L39.9822 245.801H36.1421L30.0431 240.808L26.8807 245.347L40.6599 258.057L49.0178 253.064L58.2792 254.88L91.2589 241.716L112.492 257.149L120.624 251.929L131.467 258.965L133.726 269.405V280.98L132.603 283.462ZM11.2944 187.011L42.8223 188.629L60.6592 200.431L65.1784 197.955L71.1377 199.507L82.1317 191.996H97.273L104.501 185.187H116.939L130.684 199.422L137.134 193.606L137.977 190.215L145.223 180.719L148.993 184.506H155.283L159.613 181.373L163.31 169.98H178.557L185.175 161.114L181.587 149.395L183.941 145.846L181.628 133.299L182.18 132.741L180.485 131.639V125.738L170.546 118.702V111.666L163.995 108.035L150.893 106.9L147.505 96.4594H139.599L134.178 101.226H126.949L123.335 92.374L115.203 90.7853L102.102 103.041H95.5508L91.033 106.446L88.0965 104.63H80.1904V114.163H73.6396L67.9924 118.248L62.3452 115.524V130.05L64.8299 132.547V138.902L53.0838 141.398L48.3401 136.859V130.05L39.7563 116.432L32.0761 121.879L29.3655 130.504H21.0076L14.9086 147.98L19.2005 153.2L16.264 160.009H11.2944L0 175.216L11.2944 184.521V187.011ZM432.712 104.645L418.5 124.082L422.427 127.839V143.879H432.034L437.681 151.596H447.568L457.959 161.356H470.868L476.835 155.541V151.596H486.915L494.889 162.354L504.941 163.093L506.269 170.434H507.559L511.209 169.023L516.856 172.477H523.477L525.175 170.771V164.22L543.54 150.007H551.33L552.685 160.448H554.519L559.993 153.891L564.316 151.822L566.603 145.695H573.486L577.49 139.132L587.147 135.403L586.848 135.058H579.314L590.088 120.903L585.032 113.615L588.198 108.048V96.1288L584.299 88.0563L566.533 85.8583L562.985 79.3582L547.485 82.918L538.354 71.4496L530.479 72.5188L525.805 69.466H521.233L516.387 75.857L509.627 66.9978L504.619 65.0411V60.5108L503.553 59.9336H500.164L495.215 64.3539L491.77 61.5223H488.882L481.517 68.2179L486.353 77.9363V87.0082L464.608 104.284L458.2 100.338L453.981 106.909L446.657 104.645H432.712ZM590.638 139.437L580.866 143.21L576.286 150.719H570.068L568.289 155.486L563.125 157.957L556.852 165.471H548.295L546.94 155.031H545.242L530.175 166.692V172.852L525.548 177.501H515.454L510.71 174.599L508.487 175.458H502.096L500.714 167.819L492.244 167.197L484.405 156.62H481.835V157.668L474.381 164.931V170.439L462.557 178.281L456.976 190.392L441.175 203.842V211.174L430.484 222.439H425.005L421.225 227.424L405.156 224.688L403.699 221.758H402.598L401.473 228.162L392.934 236.967L391.856 245.363H387.64V247.991L393.097 256.217L360.274 279.15H363.628L371.729 287.767L407.051 304.721L418.341 314.102H439.831L442.09 312.286H452.586L458.878 318.607L506.773 317.055L607.417 310.538L632.392 284.54L649.638 281.652L685.782 280.584V269.007L682.871 265.758L676.32 270.35L668.388 263.018V255.204L672.455 253.615V239.08L675.98 234.232L667.986 225.999L665.526 217.525L670.323 216.148L674.283 211.056L667.033 201.482V193.883L670.542 190.533L666.552 186.19L664.323 181.71V170.678L675.009 161.203L671.268 155.862L672.646 151.881L663.057 148.903H658.576L654.358 159.498L645.337 164.564H635.384L628.93 168.101L623.072 175.458H614.362L618.015 166.115V162.196L606.788 156.166H593.873L589.191 146.423L593.484 142.726L590.638 139.437Z" fill="#66A3FF"/>
<rect width="890" height="250" fill="url(#paint0_linear)"/>
<rect y="250" width="890" height="250" fill="url(#paint1_linear)"/>
<rect x="400" width="500" height="400" transform="rotate(90 400 0)" fill="url(#paint2_linear)"/>
<rect width="500" height="400" transform="matrix(4.37114e-08 1 1 -4.37114e-08 490 0)" fill="url(#paint3_linear)"/>
<path fill-rule="evenodd" clip-rule="evenodd" d="M188.165 334.771L172.353 456.65H159.251L147.957 436.904V430.095L133.048 415.57L105.49 413.754L87.4188 426.918L84.7081 424.421L88.5482 419.882L86.2893 412.619L97.5838 399.909L96.9061 393.327L92.3883 388.334L79.2868 386.064L75.8985 374.262L65.5076 373.808L69.1218 367L68.6701 357.921L65.5076 354.29V347.481L61.4416 334.544L50.8249 329.097V322.061L54.4391 318.429L61.8934 321.834H67.9924L72.5102 328.189L77.0279 327.281L80.868 330.232L83.1269 329.097L69.7995 313.89L74.0914 309.805H79.5127L84.0305 300.272L90.1294 301.634L93.2919 299.365L126.046 315.025L131.467 314.344L134.178 316.841L136.888 315.025H145.02V320.699L138.47 322.969L140.503 326.6H151.119L152.249 324.33L148.183 318.656V312.982L150.442 310.94L146.376 306.854L138.47 312.301H132.371L129.434 308.67H126.046L123.109 299.591L129.925 288.486H143.282L145.357 286.575L148.641 288.486H156.911L158.718 285.081H164.437L172.969 292.315L178.198 285.462L199.03 302.376L203.135 303.261L206.477 331L188.165 334.771ZM248.856 322.273L211.391 329.988L207.887 300.897L207.885 300.878L205.623 280.862L189.587 273.648L184.114 268.339V258.984L180.442 254.426L181.289 249.831L189.929 233.958L185.244 229.512V212.335L189.867 205.831L178.415 200.078L174.9 201.962L169.432 199.825V194.186L174.076 189.52L164.653 182.046L166.939 175.004H181.057L190.703 162.082L187.064 150.197L189.227 146.936L187.022 134.971L192.119 129.812L209.173 147.753L219.563 142.306L221.822 137.54H226.792L229.954 133.227L242.83 134.816L246.896 140.944H252.995L257.287 134.816L273.325 138.902V146.845L279.424 153.881H288.008L295.914 159.555L302.239 148.434L306.53 150.25L307.886 153.881H326.409L333.185 149.569L336.165 137.782H342.883V150.85L349.07 145.325L352.029 149.326L349.886 151.479V158.448L357.114 166.846V174.869L360.729 176.912V181.422L354.353 184.825L343.884 198.39L348.531 201.891V205.284L345.27 212.11L358.571 224.541L360.536 221.311L358.785 224.828L377.27 234.981L382.64 243.574V249.512L386.217 254.905L355.748 276.193L351.272 272.145V268.893L335.2 251.006H319.924L309.081 271.887H293.64V279.15H290.341L265.719 304.569H257.293L248.856 322.273ZM431.843 26.1008H427.832L413.602 30.867V39.2646L394.627 36.995L364.132 45.3926H343.35L340.865 42.4421H334.541L331.378 46.5275L334.541 51.2937L329.571 56.9678L343.35 60.3722L331.378 64.4576V68.089L339.51 69.6777L352.386 75.8057L348.772 80.345H340.865L331.378 77.6214L321.439 88.5157L328.216 98.2751L323.924 104.63L316.018 106.9L307.208 112.801L313.533 118.021V124.603H323.246L324.376 129.369H331.152L334.396 132.758H347.883V139.663L349.829 137.926L358.616 149.812L354.886 153.56V156.577L362.114 164.975V171.931L365.729 173.974V184.442L357.647 188.756L350.949 197.434L353.531 199.38V206.427L351.37 210.95L357.495 216.675L359.777 212.923L367.555 218.439L365.413 222.743L380.812 231.201L386.522 240.339H387.459L388.188 234.662L396.817 225.765L398.403 216.735H406.789L408.494 220.16L419.08 221.963L422.528 217.415H428.343L436.175 209.162V201.514L452.902 187.275L458.616 174.874L469.381 167.736V166.379H455.986L445.595 156.62H435.152L429.504 148.903H417.427V129.992L411.865 124.67L428.947 101.31V78.3988L433.943 74.6804L430.969 71.0517L434.474 67.7251L429.578 64.3712L435.817 58.1026L428.89 51.1421L435.576 45.4424L430.204 42.6356L435.004 37.8118L434.112 36.8152L431.931 26.5879L431.843 26.1008ZM438.721 34.4513L436.94 26.1008H438.449L466.459 15.6605H473.462V10.4403L490.178 0L511.863 8.85157L517.51 3.17749L522.254 1.81571L526.772 10.4403V19.7458L532.645 25.1929L531.063 35.4063L528.127 38.3568L532.645 44.2578L537.84 39.9455L540.325 43.8039L550.716 34.4984L557.041 39.9455V46.9814H560.429L562.236 39.9455H568.109L571.949 44.9387H578.048L581.211 41.3073L585.954 45.8466L584.373 49.478H578.726L574.585 56.2664H574.193V66.4183L578.335 67.997L574.746 70.9766L578.574 76.9598L582.326 77.6061H579.252L581.699 82.6729L569.686 81.1866L565.553 73.6151L549.429 77.3181L540.489 66.0901L531.648 67.2906L527.287 64.4423H518.757L516.375 67.5838L512.744 62.8252L509.619 61.6044V57.5101L504.813 54.9098H498.263L495.08 57.7523L493.555 56.4985H486.956L475.346 67.0522L481.353 79.1223V84.576L464.245 98.1676L456.648 93.489L451.832 100.989L447.409 99.6216H433.947V80.9294L441.149 75.5693L437.798 71.4812L442.424 67.0911L437.381 63.6361L442.888 58.1026L436.263 51.4452L444.485 44.4351L438.563 41.3408L441.894 37.9939L438.721 34.4513ZM697.97 100.024L662.079 53.7903L638.586 40.6264L633.843 32.2288H640.168L642.878 29.5052V22.4694L635.198 27.2356H629.777L622.548 36.0872H617.353L611.706 44.9387L598.83 51.9746L596.119 59.0104L587.987 55.379L579.855 60.3722H579.193V62.9508L588.152 66.3652L581.351 72.0102L581.589 72.382L590.487 73.9148V82.6299H587.236L593.198 94.9742V109.382L590.943 113.349L596.278 121.04L589.289 130.223L600.562 143.248L595.367 147.721L597.011 151.142H608.04L623.015 159.184V167.067L622.692 167.893L625.654 164.174L634.109 159.54H644.034L650.373 155.981L655.191 143.879H663.812L679.07 148.618L676.833 155.078L680.263 159.975L681.274 160.991L691.031 159.72L695.527 151.951L693.063 143.192L681.716 132.256V123.836L695.732 108.829L697.97 100.024ZM701.858 105.032L700.258 111.325L686.716 125.824V130.113L697.505 140.512L700.915 152.634L694.116 164.384L679.478 166.29L678.236 165.043L669.323 172.945V180.524L670.707 183.306L677.56 190.765L672.033 196.04V199.789L680.596 211.096L673.261 220.529L671.734 220.968L672.436 223.388L682.513 233.766L677.455 240.72V257.052L673.388 258.641V260.813L676.751 263.922L685.938 257.482L690.07 259.191L704.411 253.015L716.388 259.146L724.322 255.764L730.655 262.127H734.89L745.507 254.189L755.136 262.127H772.929L780.159 259.014L785.293 263.141L790.016 277.375L802.301 286.29L803.404 290.725H807.866L812.52 238.311L822.234 241.716H834.431L846.629 238.311L850.695 243.078H854.987L861.086 233.999L867.411 232.864L869.896 222.424L862.442 203.586V186.791L880.964 175.896V167.499L877.576 162.506L882.094 156.151H887.967L890 153.881V150.704H882.094L873.51 144.576V138.221H870.574L862.442 148.888H841.886L831.269 135.951L817.038 133.681L807.551 118.702L797.386 113.482H789.706L785.64 118.702H779.541L774.797 125.738H765.987L761.695 129.596H754.015L752.434 123.922H747.464L744.98 117.113L735.718 114.843L730.523 118.702L732.556 125.738L723.746 133.227L701.858 105.032ZM662.094 413.043L664.563 408.307H682.86L695.058 403.314L701.835 407.172L704.32 404.222H725.102L730.523 401.498L734.589 405.129L747.464 403.314L754.015 410.35H766.213L773.442 414.889L777.282 413.3V408.307L773.442 405.129V398.32L780.218 394.235L777.282 389.923L780.218 386.518H786.543V382.206L782.477 379.71L784.51 375.397L770.053 355.197L766.213 343.395L769.15 332.047H755.371L757.178 323.423L792.868 306.173L796.482 310.486L802.355 311.394L807.099 307.308L815.231 311.394L816.135 299.365H807.099L807.42 295.748H799.5L797.893 289.289L785.782 280.5L781.017 266.137L779.375 264.817L773.955 267.151H753.347L745.357 260.564L736.547 267.151H728.584L723.171 261.712L716.196 264.685L704.229 258.56L691.516 264.034L689.694 265.865L690.782 267.08V285.462L650.124 286.664L634.842 289.223L611.289 313.741L617.814 341.659L630.47 354.143V359.275L648.435 367.744L652.905 387.6L662.094 402.603V413.043ZM657.094 404.025V413.073H647.17L626.162 402.406L612.157 409.442L608.543 426.01L610.802 431.457L607.188 433.273L602.896 429.187H595.216L590.472 424.875H582.114L575.112 421.244H564.947L552.749 424.875V429.187L548.005 434.181V441.292L530.853 427.094V418.699L523.855 407.611H517.351L513.266 402.522L518.655 383.464V359.908L504.791 327.024L503.967 322.172L507.014 322.074L606.593 315.626L613.278 344.224L625.47 356.251V362.468L644.098 371.248L648.212 389.522L657.094 404.025ZM542.81 446.664L545.833 446.003L525.853 429.465V420.157L521.105 412.634H514.959L507.749 403.651L513.655 382.764V360.928L499.96 328.446L498.923 322.336L460.001 323.597L457.14 340.653L464.668 349.996V373.133L477.134 384.24L475.254 388.774L473.929 391.056V399.267L467.972 406.079L473.234 414.732L458.097 424.871L449.803 427.799L426.277 445.44L425.799 453.699H437.094L443.419 482.524L471.655 479.8L479.109 487.517L475.721 492.51L483.627 500H490.855V489.106L505.086 472.084H507.797L514.574 464.594L523.835 462.324L534.226 449.841L540.325 452.565L542.81 446.664ZM426.655 438.888L447.425 423.313L455.847 420.34L466.461 413.23L461.785 405.542L468.929 397.374V389.698L470.767 386.532L471.145 385.619L459.668 375.392V351.774L451.835 342.053L455.196 322.013L450.515 317.31H443.844L441.585 319.126H416.542L404.34 308.987L368.733 291.897L361.473 284.173H357.067L353.867 281.25L346.272 274.382V270.825L332.978 256.03H322.955L312.112 276.91H298.64V284.173H292.452L267.83 309.593H260.443L253.984 323.146L307.886 367V374.035L327.312 400.136L356.452 394.916L362.777 398.32L388.076 400.136L398.015 393.554L407.277 404.902L412.924 407.626L419.475 423.967L427.832 418.52L426.655 438.888ZM132.603 283.462H141.337L144.684 280.379L149.984 283.462H153.911L155.718 280.057H166.264L172.189 285.08L177.351 278.315L201.245 297.715L202.527 297.991L200.977 284.276L186.744 277.873L179.114 270.472V260.762L175.106 255.787L176.518 248.126L183.691 234.948L180.244 231.677V210.725L182.397 207.696L178.489 205.732L175.227 207.48L164.432 203.262V192.105L166.564 189.962L161.667 186.078L156.895 189.53H146.921L145.721 188.323L142.576 192.445L141.613 196.317L130.444 206.388L114.823 190.21H106.479L99.2502 197.019H83.6707L72.0758 204.941L65.8372 203.316L60.4172 206.287L41.2085 193.577L9.44191 191.946L7.6802 193.827V201.089L11.7462 204.494L16.264 200.409L19.6523 204.948H26.6548L31.8503 210.622V216.75L36.1421 222.197L36.8198 232.864L42.467 243.532L39.9822 245.801H36.1421L30.0431 240.808L26.8807 245.347L40.6599 258.057L49.0178 253.064L58.2792 254.88L91.2589 241.716L112.492 257.149L120.624 251.929L131.467 258.965L133.726 269.405V280.98L132.603 283.462ZM11.2944 187.011L42.8223 188.629L60.6592 200.431L65.1784 197.955L71.1377 199.507L82.1317 191.996H97.273L104.501 185.187H116.939L130.684 199.422L137.134 193.606L137.977 190.215L145.223 180.719L148.993 184.506H155.283L159.613 181.373L163.31 169.98H178.557L185.175 161.114L181.587 149.395L183.941 145.846L181.628 133.299L182.18 132.741L180.485 131.639V125.738L170.546 118.702V111.666L163.995 108.035L150.893 106.9L147.505 96.4594H139.599L134.178 101.226H126.949L123.335 92.374L115.203 90.7853L102.102 103.041H95.5508L91.033 106.446L88.0965 104.63H80.1904V114.163H73.6396L67.9924 118.248L62.3452 115.524V130.05L64.8299 132.547V138.902L53.0838 141.398L48.3401 136.859V130.05L39.7563 116.432L32.0761 121.879L29.3655 130.504H21.0076L14.9086 147.98L19.2005 153.2L16.264 160.009H11.2944L0 175.216L11.2944 184.521V187.011ZM432.712 104.645L418.5 124.082L422.427 127.839V143.879H432.034L437.681 151.596H447.568L457.959 161.356H470.868L476.835 155.541V151.596H486.915L494.889 162.354L504.941 163.093L506.269 170.434H507.559L511.209 169.023L516.856 172.477H523.477L525.175 170.771V164.22L543.54 150.007H551.33L552.685 160.448H554.519L559.993 153.891L564.316 151.822L566.603 145.695H573.486L577.49 139.132L587.147 135.403L586.848 135.058H579.314L590.088 120.903L585.032 113.615L588.198 108.048V96.1288L584.299 88.0563L566.533 85.8583L562.985 79.3582L547.485 82.918L538.354 71.4496L530.479 72.5188L525.805 69.466H521.233L516.387 75.857L509.627 66.9978L504.619 65.0411V60.5108L503.553 59.9336H500.164L495.215 64.3539L491.77 61.5223H488.882L481.517 68.2179L486.353 77.9363V87.0082L464.608 104.284L458.2 100.338L453.981 106.909L446.657 104.645H432.712ZM590.638 139.437L580.866 143.21L576.286 150.719H570.068L568.289 155.486L563.125 157.957L556.852 165.471H548.295L546.94 155.031H545.242L530.175 166.692V172.852L525.548 177.501H515.454L510.71 174.599L508.487 175.458H502.096L500.714 167.819L492.244 167.197L484.405 156.62H481.835V157.668L474.381 164.931V170.439L462.557 178.281L456.976 190.392L441.175 203.842V211.174L430.484 222.439H425.005L421.225 227.424L405.156 224.688L403.699 221.758H402.598L401.473 228.162L392.934 236.967L391.856 245.363H387.64V247.991L393.097 256.217L360.274 279.15H363.628L371.729 287.767L407.051 304.721L418.341 314.102H439.831L442.09 312.286H452.586L458.878 318.607L506.773 317.055L607.417 310.538L632.392 284.54L649.638 281.652L685.782 280.584V269.007L682.871 265.758L676.32 270.35L668.388 263.018V255.204L672.455 253.615V239.08L675.98 234.232L667.986 225.999L665.526 217.525L670.323 216.148L674.283 211.056L667.033 201.482V193.883L670.542 190.533L666.552 186.19L664.323 181.71V170.678L675.009 161.203L671.268 155.862L672.646 151.881L663.057 148.903H658.576L654.358 159.498L645.337 164.564H635.384L628.93 168.101L623.072 175.458H614.362L618.015 166.115V162.196L606.788 156.166H593.873L589.191 146.423L593.484 142.726L590.638 139.437Z" fill="#66A3FF"/>
</g>
<defs>
<linearGradient id="paint0_linear" x1="445" y1="0" x2="445" y2="250" gradientUnits="userSpaceOnUse">
<stop stop-color="white"/>
<stop offset="1" stop-color="white" stop-opacity="0"/>
</linearGradient>
<linearGradient id="paint1_linear" x1="445" y1="250" x2="445" y2="500" gradientUnits="userSpaceOnUse">
<stop stop-color="white" stop-opacity="0"/>
<stop offset="1" stop-color="white"/>
</linearGradient>
<linearGradient id="paint2_linear" x1="650" y1="0" x2="650" y2="400" gradientUnits="userSpaceOnUse">
<stop stop-color="white" stop-opacity="0"/>
<stop offset="1" stop-color="white"/>
</linearGradient>
<linearGradient id="paint3_linear" x1="250" y1="0" x2="250" y2="400" gradientUnits="userSpaceOnUse">
<stop stop-color="white" stop-opacity="0"/>
<stop offset="1" stop-color="white"/>
</linearGradient>
<clipPath id="clip0">
<rect width="890" height="500" fill="white"/>
</clipPath>
</defs>
</svg>
