<svg width="890" height="500" fill="none" xmlns="http://www.w3.org/2000/svg"><g clip-path="url(#clip0)"><path fill-rule="evenodd" clip-rule="evenodd" d="M188.165 334.771L172.353 456.65h-13.102l-11.294-19.746v-6.809l-14.909-14.525-27.558-1.816-18.071 13.164-2.71-2.497 3.84-4.539-2.26-7.263 11.295-12.71-.678-6.582-4.518-4.993-13.101-2.27-3.389-11.802-10.39-.454L69.122 367l-.452-9.079-3.162-3.631v-6.809l-4.066-12.937-10.617-5.447v-7.036l3.614-3.632 7.454 3.405h6.1l4.517 6.355 4.518-.908 3.84 2.951 2.259-1.135-13.328-15.207 4.292-4.085h5.422l4.517-9.533 6.1 1.362 3.162-2.269 32.754 15.66 5.421-.681 2.711 2.497 2.71-1.816h8.132v5.674l-6.55 2.27 2.033 3.631h10.616l1.13-2.27-4.066-5.674v-5.674l2.259-2.042-4.066-4.086-7.906 5.447h-6.099l-2.937-3.631h-3.388l-2.937-9.079 6.816-11.105h13.357l2.075-1.911 3.284 1.911h8.27l1.807-3.405h5.719l8.532 7.234 5.229-6.853 20.832 16.914 4.105.885L206.477 331l-18.312 3.771zm60.691-12.498l-37.465 7.715-3.504-29.091-.002-.019-2.262-20.016-16.036-7.214-5.473-5.309v-9.355l-3.672-4.558.847-4.595 8.64-15.873-4.685-4.446v-17.177l4.623-6.504-11.452-5.753-3.515 1.884-5.468-2.137v-5.639l4.644-4.666-9.423-7.474 2.286-7.042h14.118l9.646-12.922-3.639-11.885 2.163-3.261-2.205-11.965 5.097-5.159 17.054 17.941 10.39-5.447 2.259-4.766h4.97l3.162-4.313 12.876 1.589 4.066 6.128h6.099l4.292-6.128 16.038 4.086v7.943l6.099 7.036h8.584l7.906 5.674 6.325-11.121 4.291 1.816 1.356 3.631h18.523l6.776-4.312 2.98-11.787h6.718v13.068l6.187-5.525 2.959 4.001-2.143 2.153v6.969l7.228 8.398v8.023l3.615 2.043v4.51l-6.376 3.403-10.469 13.565 4.647 3.501v3.393l-3.261 6.826 13.301 12.431 1.965-3.23-1.751 3.517 18.485 10.153 5.37 8.593v5.938l3.577 5.393-30.469 21.288-4.476-4.048v-3.252L335.2 251.006h-15.276l-10.843 20.881H293.64v7.263h-3.299l-24.622 25.419h-8.426l-8.437 17.704zM431.843 26.101h-4.011l-14.23 4.766v8.398l-18.975-2.27-30.495 8.398H343.35l-2.485-2.95h-6.324l-3.163 4.085 3.163 4.766-4.97 5.674 13.779 3.404-11.972 4.086v3.631l8.132 1.589 12.876 6.128-3.614 4.539h-7.907l-9.487-2.724-9.939 10.895 6.777 9.76-4.292 6.354-7.906 2.27-8.81 5.901 6.325 5.22v6.582h9.713l1.13 4.766h6.776l3.244 3.389h13.487v6.905l1.946-1.737 8.787 11.886-3.73 3.748v3.017l7.228 8.398v6.956l3.615 2.043v10.468l-8.082 4.314-6.698 8.678 2.582 1.946v7.047l-2.161 4.523 6.125 5.725 2.282-3.752 7.778 5.516-2.142 4.304 15.399 8.458 5.71 9.138h.937l.729-5.677 8.629-8.897 1.586-9.03h8.386l1.705 3.425 10.586 1.803 3.448-4.548h5.815l7.832-8.253v-7.648l16.727-14.239 5.714-12.401 10.765-7.138v-1.357h-13.395l-10.391-9.759h-10.443l-5.648-7.717h-12.077v-18.911l-5.562-5.322 17.082-23.36V78.399l4.996-3.719-2.974-3.628 3.505-3.327-4.896-3.354 6.239-6.268-6.927-6.96 6.686-5.7-5.372-2.807 4.8-4.824-.892-.997-2.181-10.227-.088-.487zm6.878 8.35l-1.781-8.35h1.509l28.01-10.44h7.003v-5.22L490.178 0l21.685 8.852 5.647-5.675 4.744-1.361 4.518 8.624v9.306l5.873 5.447-1.582 10.213-2.936 2.95 4.518 5.902 5.195-4.313 2.485 3.859 10.391-9.306 6.325 5.448v7.035h3.388l1.807-7.035h5.873l3.84 4.993h6.099l3.163-3.632 4.743 4.54-1.581 3.631h-5.647l-4.141 6.788h-.392v10.152l4.142 1.579-3.589 2.98 3.828 5.983 3.752.646h-3.074l2.447 5.067-12.013-1.486-4.133-7.572-16.124 3.703-8.94-11.228-8.841 1.2-4.361-2.848h-8.53l-2.382 3.142-3.631-4.759-3.125-1.22V57.51l-4.806-2.6h-6.55l-3.183 2.842-1.525-1.254h-6.599l-11.61 10.554 6.007 12.07v5.454l-17.108 13.592-7.597-4.679-4.816 7.5-4.423-1.367h-13.462V80.929l7.202-5.36-3.351-4.088 4.626-4.39-5.043-3.455 5.507-5.533-6.625-6.658 8.222-7.01-5.922-3.094 3.331-3.347-3.173-3.543zm259.249 65.573L662.079 53.79l-23.493-13.164-4.743-8.397h6.325l2.71-2.724V22.47l-7.68 4.767h-5.421l-7.229 8.851h-5.195l-5.647 8.852-12.876 7.036-2.711 7.035-8.132-3.631-8.132 4.993h-.662v2.579l8.959 3.414-6.801 5.645.238.372 8.898 1.533v8.715h-3.251l5.962 12.344v14.408l-2.255 3.967 5.335 7.691-6.989 9.183 11.273 13.025-5.195 4.473 1.644 3.421h11.029l14.975 8.042v7.883l-.323.826 2.962-3.719 8.455-4.634h9.925l6.339-3.559 4.818-12.102h8.621l15.258 4.739-2.237 6.46 3.43 4.897 1.011 1.016 9.757-1.271 4.496-7.769-2.464-8.759-11.347-10.936v-8.42l14.016-15.007 2.238-8.805zm3.888 5.008l-1.6 6.293-13.542 14.499v4.289l10.789 10.399 3.41 12.122-6.799 11.75-14.638 1.906-1.242-1.247-8.913 7.902v7.579l1.384 2.782 6.853 7.459-5.527 5.275v3.749l8.563 11.307-7.335 9.433-1.527.439.702 2.42 10.077 10.378-5.058 6.954v16.332l-4.067 1.589v2.172l3.363 3.109 9.187-6.44 4.132 1.709 14.341-6.176 11.977 6.131 7.934-3.382 6.333 6.363h4.235l10.617-7.938 9.629 7.938h17.793l7.23-3.113 5.134 4.127 4.723 14.234 12.285 8.915 1.103 4.435h4.462l4.654-52.414 9.714 3.405h12.197l12.198-3.405 4.066 4.767h4.292l6.099-9.079 6.325-1.135 2.485-10.44-7.454-18.838v-16.795l18.522-10.895v-8.397l-3.388-4.993 4.518-6.355h5.873l2.033-2.27v-3.177h-7.906l-8.584-6.128v-6.355h-2.936l-8.132 10.667h-20.556l-10.617-12.937-14.231-2.27-9.487-14.979-10.165-5.22h-7.68l-4.066 5.22h-6.099l-4.744 7.036h-8.81l-4.292 3.858h-7.68l-1.581-5.674h-4.97l-2.484-6.809-9.262-2.27-5.195 3.859 2.033 7.036-8.81 7.489-21.888-28.195zm-39.764 308.011l2.469-4.736h18.297l12.198-4.993 6.777 3.858 2.485-2.95h20.782l5.421-2.724 4.066 3.631 12.875-1.815 6.551 7.036h12.198l7.229 4.539 3.84-1.589v-4.993l-3.84-3.178v-6.809l6.776-4.085-2.936-4.312 2.936-3.405h6.325v-4.312l-4.066-2.496 2.033-4.313-14.457-20.2-3.84-11.802 2.937-11.348h-13.779l1.807-8.624 35.69-17.25 3.614 4.313 5.873.908 4.744-4.086 8.132 4.086.904-12.029h-9.036l.321-3.617h-7.92l-1.607-6.459-12.111-8.789-4.765-14.363-1.642-1.32-5.42 2.334h-20.608l-7.99-6.587-8.81 6.587h-7.963l-5.413-5.439-6.975 2.973-11.967-6.125-12.713 5.474-1.822 1.831 1.088 1.215v18.382l-40.658 1.202-15.282 2.559-23.553 24.518 6.525 27.918 12.656 12.484v5.132l17.965 8.469 4.47 19.856 9.189 15.003v10.44zm-5-9.018v9.048h-9.924l-21.008-10.667-14.005 7.036-3.614 16.568 2.259 5.447-3.614 1.816-4.292-4.086h-7.68l-4.744-4.312h-8.358l-7.002-3.631h-10.165l-12.198 3.631v4.312l-4.744 4.994v7.111l-17.152-14.198v-8.395l-6.998-11.088h-6.504l-4.085-5.089 5.389-19.058v-23.556l-13.864-32.884-.824-4.852 3.047-.098 99.579-6.448 6.685 28.598 12.192 12.027v6.217l18.628 8.78 4.114 18.274 8.882 14.503zM542.81 446.664l3.023-.661-19.98-16.538v-9.308l-4.748-7.523h-6.146l-7.21-8.983 5.906-20.887v-21.836l-13.695-32.482-1.037-6.11-38.922 1.261-2.861 17.056 7.528 9.343v23.137l12.466 11.107-1.88 4.534-1.325 2.282v8.211l-5.957 6.812 5.262 8.653-15.137 10.139-8.294 2.928-23.526 17.641-.478 8.259h11.295l6.325 28.825 28.236-2.724 7.454 7.717-3.388 4.993 7.906 7.49h7.228v-10.894l14.231-17.022h2.711l6.777-7.49 9.261-2.27 10.391-12.483 6.099 2.724 2.485-5.901zm-116.155-7.776l20.77-15.575 8.422-2.973 10.614-7.11-4.676-7.688 7.144-8.168v-7.676l1.838-3.166.378-.913-11.477-10.227v-23.618l-7.833-9.721 3.361-20.04-4.681-4.703h-6.671l-2.259 1.816h-25.043l-12.202-10.139-35.607-17.09-7.26-7.724h-4.406l-3.2-2.923-7.595-6.868v-3.557l-13.294-14.795h-10.023l-10.843 20.88H298.64v7.263h-6.188l-24.622 25.42h-7.387l-6.459 13.553L307.886 367v7.035l19.426 26.101 29.14-5.22 6.325 3.404 25.299 1.816 9.939-6.582 9.262 11.348 5.647 2.724 6.551 16.341 8.357-5.447-1.177 20.368zM132.603 283.462h8.734l3.347-3.083 5.3 3.083h3.927l1.807-3.405h10.546l5.925 5.023 5.162-6.765 23.894 19.4 1.282.276-1.55-13.715-14.233-6.403-7.63-7.401v-9.71l-4.008-4.975 1.412-7.661 7.173-13.178-3.447-3.271v-20.952l2.153-3.029-3.908-1.964-3.262 1.748-10.795-4.218v-11.157l2.132-2.143-4.897-3.884-4.772 3.452h-9.974l-1.2-1.207-3.145 4.122-.963 3.872-11.169 10.071-15.621-16.178h-8.344l-7.229 6.809H83.67l-11.594 7.922-6.239-1.625-5.42 2.971-19.209-12.71-31.766-1.631-1.762 1.881v7.262l4.066 3.405 4.518-4.085 3.388 4.539h7.003l5.195 5.674v6.128l4.292 5.447.678 10.667 5.647 10.668-2.485 2.269h-3.84l-6.099-4.993-3.162 4.539 13.779 12.71 8.358-4.993 9.261 1.816 32.98-13.164 21.233 15.433 8.132-5.22 10.843 7.036 2.259 10.44v11.575l-1.123 2.482zM11.294 187.011l31.528 1.618 17.837 11.802 4.52-2.476 5.959 1.552 10.994-7.511h15.141l7.228-6.809h12.438l13.745 14.235 6.45-5.816.843-3.391 7.246-9.496 3.77 3.787h6.29l4.33-3.133 3.697-11.393h15.247l6.618-8.866-3.588-11.719 2.354-3.549-2.313-12.547.552-.558-1.695-1.102v-5.901l-9.939-7.036v-7.036l-6.551-3.631-13.102-1.135-3.388-10.44h-7.906l-5.421 4.766h-7.229l-3.614-8.852-8.132-1.589-13.101 12.256h-6.551l-4.518 3.405-2.936-1.816H80.19v9.533h-6.55l-5.648 4.085-5.647-2.724v14.526l2.485 2.497v6.355l-11.746 2.496-4.744-4.539v-6.809l-8.584-13.618-7.68 5.447-2.71 8.625h-8.358l-6.1 17.476 4.293 5.22-2.937 6.809h-4.97L0 175.216l11.294 9.305v2.49zm421.418-82.366L418.5 124.082l3.927 3.757v16.04h9.607l5.647 7.717h9.887l10.391 9.76h12.909l5.967-5.815v-3.945h10.08l7.974 10.758 10.052.739 1.328 7.341h1.29l3.65-1.411 5.647 3.454h6.621l1.698-1.706v-6.551l18.365-14.213h7.79l1.355 10.441h1.834l5.474-6.557 4.323-2.069 2.287-6.127h6.883l4.004-6.563 9.657-3.729-.299-.345h-7.534l10.774-14.155-5.056-7.288 3.166-5.567v-11.92l-3.899-8.072-17.766-2.198-3.548-6.5-15.5 3.56-9.131-11.468-7.875 1.069-4.674-3.053h-4.572l-4.846 6.391-6.76-8.86-5.008-1.956v-4.53l-1.066-.577h-3.389l-4.949 4.42-3.445-2.832h-2.888l-7.365 6.696 4.836 9.718v9.072l-21.745 17.276-6.408-3.946-4.219 6.571-7.324-2.264h-13.945zm157.926 34.792l-9.772 3.773-4.58 7.509h-6.218l-1.779 4.767-5.164 2.471-6.273 7.514h-8.557l-1.355-10.44h-1.698l-15.067 11.661v6.16l-4.627 4.649h-10.094l-4.744-2.902-2.223.859h-6.391l-1.382-7.639-8.47-.622-7.839-10.577h-2.57v1.048l-7.454 7.263v5.508l-11.824 7.842-5.581 12.111-15.801 13.45v7.332l-10.691 11.265h-5.479l-3.78 4.985-16.069-2.736-1.457-2.93h-1.101l-1.125 6.404-8.539 8.805-1.078 8.396h-4.216v2.628l5.457 8.226-32.823 22.933h3.354l8.101 8.617 35.322 16.954 11.29 9.381h21.49l2.259-1.816h10.496l6.292 6.321 47.895-1.552 100.644-6.517 24.975-25.998 17.246-2.888 36.144-1.068v-11.577l-2.911-3.249-6.551 4.592-7.932-7.332v-7.814l4.067-1.589V239.08l3.525-4.848-7.994-8.233-2.46-8.474 4.797-1.377 3.96-5.092-7.25-9.574v-7.599l3.509-3.35-3.99-4.343-2.229-4.48v-11.032l10.686-9.475-3.741-5.341 1.378-3.981-9.589-2.978h-4.481l-4.218 10.595-9.021 5.066h-9.953l-6.454 3.537-5.858 7.357h-8.71l3.653-9.343v-3.919l-11.227-6.03h-12.915l-4.682-9.743 4.293-3.697-2.846-3.289z" fill="#66A3FF"/><path fill="url(#paint0_linear)" d="M0 0h890v250H0z"/><path fill="url(#paint1_linear)" d="M0 250h890v250H0z"/><path transform="rotate(90 400 0)" fill="url(#paint2_linear)" d="M400 0h500v400H400z"/><path transform="matrix(0 1 1 0 490 0)" fill="url(#paint3_linear)" d="M0 0h500v400H0z"/><path fill-rule="evenodd" clip-rule="evenodd" d="M188.165 334.771L172.353 456.65h-13.102l-11.294-19.746v-6.809l-14.909-14.525-27.558-1.816-18.071 13.164-2.71-2.497 3.84-4.539-2.26-7.263 11.295-12.71-.678-6.582-4.518-4.993-13.101-2.27-3.389-11.802-10.39-.454L69.122 367l-.452-9.079-3.162-3.631v-6.809l-4.066-12.937-10.617-5.447v-7.036l3.614-3.632 7.454 3.405h6.1l4.517 6.355 4.518-.908 3.84 2.951 2.259-1.135-13.328-15.207 4.292-4.085h5.422l4.517-9.533 6.1 1.362 3.162-2.269 32.754 15.66 5.421-.681 2.711 2.497 2.71-1.816h8.132v5.674l-6.55 2.27 2.033 3.631h10.616l1.13-2.27-4.066-5.674v-5.674l2.259-2.042-4.066-4.086-7.906 5.447h-6.099l-2.937-3.631h-3.388l-2.937-9.079 6.816-11.105h13.357l2.075-1.911 3.284 1.911h8.27l1.807-3.405h5.719l8.532 7.234 5.229-6.853 20.832 16.914 4.105.885L206.477 331l-18.312 3.771zm60.691-12.498l-37.465 7.715-3.504-29.091-.002-.019-2.262-20.016-16.036-7.214-5.473-5.309v-9.355l-3.672-4.558.847-4.595 8.64-15.873-4.685-4.446v-17.177l4.623-6.504-11.452-5.753-3.515 1.884-5.468-2.137v-5.639l4.644-4.666-9.423-7.474 2.286-7.042h14.118l9.646-12.922-3.639-11.885 2.163-3.261-2.205-11.965 5.097-5.159 17.054 17.941 10.39-5.447 2.259-4.766h4.97l3.162-4.313 12.876 1.589 4.066 6.128h6.099l4.292-6.128 16.038 4.086v7.943l6.099 7.036h8.584l7.906 5.674 6.325-11.121 4.291 1.816 1.356 3.631h18.523l6.776-4.312 2.98-11.787h6.718v13.068l6.187-5.525 2.959 4.001-2.143 2.153v6.969l7.228 8.398v8.023l3.615 2.043v4.51l-6.376 3.403-10.469 13.565 4.647 3.501v3.393l-3.261 6.826 13.301 12.431 1.965-3.23-1.751 3.517 18.485 10.153 5.37 8.593v5.938l3.577 5.393-30.469 21.288-4.476-4.048v-3.252L335.2 251.006h-15.276l-10.843 20.881H293.64v7.263h-3.299l-24.622 25.419h-8.426l-8.437 17.704zM431.843 26.101h-4.011l-14.23 4.766v8.398l-18.975-2.27-30.495 8.398H343.35l-2.485-2.95h-6.324l-3.163 4.085 3.163 4.766-4.97 5.674 13.779 3.404-11.972 4.086v3.631l8.132 1.589 12.876 6.128-3.614 4.539h-7.907l-9.487-2.724-9.939 10.895 6.777 9.76-4.292 6.354-7.906 2.27-8.81 5.901 6.325 5.22v6.582h9.713l1.13 4.766h6.776l3.244 3.389h13.487v6.905l1.946-1.737 8.787 11.886-3.73 3.748v3.017l7.228 8.398v6.956l3.615 2.043v10.468l-8.082 4.314-6.698 8.678 2.582 1.946v7.047l-2.161 4.523 6.125 5.725 2.282-3.752 7.778 5.516-2.142 4.304 15.399 8.458 5.71 9.138h.937l.729-5.677 8.629-8.897 1.586-9.03h8.386l1.705 3.425 10.586 1.803 3.448-4.548h5.815l7.832-8.253v-7.648l16.727-14.239 5.714-12.401 10.765-7.138v-1.357h-13.395l-10.391-9.759h-10.443l-5.648-7.717h-12.077v-18.911l-5.562-5.322 17.082-23.36V78.399l4.996-3.719-2.974-3.628 3.505-3.327-4.896-3.354 6.239-6.268-6.927-6.96 6.686-5.7-5.372-2.807 4.8-4.824-.892-.997-2.181-10.227-.088-.487zm6.878 8.35l-1.781-8.35h1.509l28.01-10.44h7.003v-5.22L490.178 0l21.685 8.852 5.647-5.675 4.744-1.361 4.518 8.624v9.306l5.873 5.447-1.582 10.213-2.936 2.95 4.518 5.902 5.195-4.313 2.485 3.859 10.391-9.306 6.325 5.448v7.035h3.388l1.807-7.035h5.873l3.84 4.993h6.099l3.163-3.632 4.743 4.54-1.581 3.631h-5.647l-4.141 6.788h-.392v10.152l4.142 1.579-3.589 2.98 3.828 5.983 3.752.646h-3.074l2.447 5.067-12.013-1.486-4.133-7.572-16.124 3.703-8.94-11.228-8.841 1.2-4.361-2.848h-8.53l-2.382 3.142-3.631-4.759-3.125-1.22V57.51l-4.806-2.6h-6.55l-3.183 2.842-1.525-1.254h-6.599l-11.61 10.554 6.007 12.07v5.454l-17.108 13.592-7.597-4.679-4.816 7.5-4.423-1.367h-13.462V80.929l7.202-5.36-3.351-4.088 4.626-4.39-5.043-3.455 5.507-5.533-6.625-6.658 8.222-7.01-5.922-3.094 3.331-3.347-3.173-3.543zm259.249 65.573L662.079 53.79l-23.493-13.164-4.743-8.397h6.325l2.71-2.724V22.47l-7.68 4.767h-5.421l-7.229 8.851h-5.195l-5.647 8.852-12.876 7.036-2.711 7.035-8.132-3.631-8.132 4.993h-.662v2.579l8.959 3.414-6.801 5.645.238.372 8.898 1.533v8.715h-3.251l5.962 12.344v14.408l-2.255 3.967 5.335 7.691-6.989 9.183 11.273 13.025-5.195 4.473 1.644 3.421h11.029l14.975 8.042v7.883l-.323.826 2.962-3.719 8.455-4.634h9.925l6.339-3.559 4.818-12.102h8.621l15.258 4.739-2.237 6.46 3.43 4.897 1.011 1.016 9.757-1.271 4.496-7.769-2.464-8.759-11.347-10.936v-8.42l14.016-15.007 2.238-8.805zm3.888 5.008l-1.6 6.293-13.542 14.499v4.289l10.789 10.399 3.41 12.122-6.799 11.75-14.638 1.906-1.242-1.247-8.913 7.902v7.579l1.384 2.782 6.853 7.459-5.527 5.275v3.749l8.563 11.307-7.335 9.433-1.527.439.702 2.42 10.077 10.378-5.058 6.954v16.332l-4.067 1.589v2.172l3.363 3.109 9.187-6.44 4.132 1.709 14.341-6.176 11.977 6.131 7.934-3.382 6.333 6.363h4.235l10.617-7.938 9.629 7.938h17.793l7.23-3.113 5.134 4.127 4.723 14.234 12.285 8.915 1.103 4.435h4.462l4.654-52.414 9.714 3.405h12.197l12.198-3.405 4.066 4.767h4.292l6.099-9.079 6.325-1.135 2.485-10.44-7.454-18.838v-16.795l18.522-10.895v-8.397l-3.388-4.993 4.518-6.355h5.873l2.033-2.27v-3.177h-7.906l-8.584-6.128v-6.355h-2.936l-8.132 10.667h-20.556l-10.617-12.937-14.231-2.27-9.487-14.979-10.165-5.22h-7.68l-4.066 5.22h-6.099l-4.744 7.036h-8.81l-4.292 3.858h-7.68l-1.581-5.674h-4.97l-2.484-6.809-9.262-2.27-5.195 3.859 2.033 7.036-8.81 7.489-21.888-28.195zm-39.764 308.011l2.469-4.736h18.297l12.198-4.993 6.777 3.858 2.485-2.95h20.782l5.421-2.724 4.066 3.631 12.875-1.815 6.551 7.036h12.198l7.229 4.539 3.84-1.589v-4.993l-3.84-3.178v-6.809l6.776-4.085-2.936-4.312 2.936-3.405h6.325v-4.312l-4.066-2.496 2.033-4.313-14.457-20.2-3.84-11.802 2.937-11.348h-13.779l1.807-8.624 35.69-17.25 3.614 4.313 5.873.908 4.744-4.086 8.132 4.086.904-12.029h-9.036l.321-3.617h-7.92l-1.607-6.459-12.111-8.789-4.765-14.363-1.642-1.32-5.42 2.334h-20.608l-7.99-6.587-8.81 6.587h-7.963l-5.413-5.439-6.975 2.973-11.967-6.125-12.713 5.474-1.822 1.831 1.088 1.215v18.382l-40.658 1.202-15.282 2.559-23.553 24.518 6.525 27.918 12.656 12.484v5.132l17.965 8.469 4.47 19.856 9.189 15.003v10.44zm-5-9.018v9.048h-9.924l-21.008-10.667-14.005 7.036-3.614 16.568 2.259 5.447-3.614 1.816-4.292-4.086h-7.68l-4.744-4.312h-8.358l-7.002-3.631h-10.165l-12.198 3.631v4.312l-4.744 4.994v7.111l-17.152-14.198v-8.395l-6.998-11.088h-6.504l-4.085-5.089 5.389-19.058v-23.556l-13.864-32.884-.824-4.852 3.047-.098 99.579-6.448 6.685 28.598 12.192 12.027v6.217l18.628 8.78 4.114 18.274 8.882 14.503zM542.81 446.664l3.023-.661-19.98-16.538v-9.308l-4.748-7.523h-6.146l-7.21-8.983 5.906-20.887v-21.836l-13.695-32.482-1.037-6.11-38.922 1.261-2.861 17.056 7.528 9.343v23.137l12.466 11.107-1.88 4.534-1.325 2.282v8.211l-5.957 6.812 5.262 8.653-15.137 10.139-8.294 2.928-23.526 17.641-.478 8.259h11.295l6.325 28.825 28.236-2.724 7.454 7.717-3.388 4.993 7.906 7.49h7.228v-10.894l14.231-17.022h2.711l6.777-7.49 9.261-2.27 10.391-12.483 6.099 2.724 2.485-5.901zm-116.155-7.776l20.77-15.575 8.422-2.973 10.614-7.11-4.676-7.688 7.144-8.168v-7.676l1.838-3.166.378-.913-11.477-10.227v-23.618l-7.833-9.721 3.361-20.04-4.681-4.703h-6.671l-2.259 1.816h-25.043l-12.202-10.139-35.607-17.09-7.26-7.724h-4.406l-3.2-2.923-7.595-6.868v-3.557l-13.294-14.795h-10.023l-10.843 20.88H298.64v7.263h-6.188l-24.622 25.42h-7.387l-6.459 13.553L307.886 367v7.035l19.426 26.101 29.14-5.22 6.325 3.404 25.299 1.816 9.939-6.582 9.262 11.348 5.647 2.724 6.551 16.341 8.357-5.447-1.177 20.368zM132.603 283.462h8.734l3.347-3.083 5.3 3.083h3.927l1.807-3.405h10.546l5.925 5.023 5.162-6.765 23.894 19.4 1.282.276-1.55-13.715-14.233-6.403-7.63-7.401v-9.71l-4.008-4.975 1.412-7.661 7.173-13.178-3.447-3.271v-20.952l2.153-3.029-3.908-1.964-3.262 1.748-10.795-4.218v-11.157l2.132-2.143-4.897-3.884-4.772 3.452h-9.974l-1.2-1.207-3.145 4.122-.963 3.872-11.169 10.071-15.621-16.178h-8.344l-7.229 6.809H83.67l-11.594 7.922-6.239-1.625-5.42 2.971-19.209-12.71-31.766-1.631-1.762 1.881v7.262l4.066 3.405 4.518-4.085 3.388 4.539h7.003l5.195 5.674v6.128l4.292 5.447.678 10.667 5.647 10.668-2.485 2.269h-3.84l-6.099-4.993-3.162 4.539 13.779 12.71 8.358-4.993 9.261 1.816 32.98-13.164 21.233 15.433 8.132-5.22 10.843 7.036 2.259 10.44v11.575l-1.123 2.482zM11.294 187.011l31.528 1.618 17.837 11.802 4.52-2.476 5.959 1.552 10.994-7.511h15.141l7.228-6.809h12.438l13.745 14.235 6.45-5.816.843-3.391 7.246-9.496 3.77 3.787h6.29l4.33-3.133 3.697-11.393h15.247l6.618-8.866-3.588-11.719 2.354-3.549-2.313-12.547.552-.558-1.695-1.102v-5.901l-9.939-7.036v-7.036l-6.551-3.631-13.102-1.135-3.388-10.44h-7.906l-5.421 4.766h-7.229l-3.614-8.852-8.132-1.589-13.101 12.256h-6.551l-4.518 3.405-2.936-1.816H80.19v9.533h-6.55l-5.648 4.085-5.647-2.724v14.526l2.485 2.497v6.355l-11.746 2.496-4.744-4.539v-6.809l-8.584-13.618-7.68 5.447-2.71 8.625h-8.358l-6.1 17.476 4.293 5.22-2.937 6.809h-4.97L0 175.216l11.294 9.305v2.49zm421.418-82.366L418.5 124.082l3.927 3.757v16.04h9.607l5.647 7.717h9.887l10.391 9.76h12.909l5.967-5.815v-3.945h10.08l7.974 10.758 10.052.739 1.328 7.341h1.29l3.65-1.411 5.647 3.454h6.621l1.698-1.706v-6.551l18.365-14.213h7.79l1.355 10.441h1.834l5.474-6.557 4.323-2.069 2.287-6.127h6.883l4.004-6.563 9.657-3.729-.299-.345h-7.534l10.774-14.155-5.056-7.288 3.166-5.567v-11.92l-3.899-8.072-17.766-2.198-3.548-6.5-15.5 3.56-9.131-11.468-7.875 1.069-4.674-3.053h-4.572l-4.846 6.391-6.76-8.86-5.008-1.956v-4.53l-1.066-.577h-3.389l-4.949 4.42-3.445-2.832h-2.888l-7.365 6.696 4.836 9.718v9.072l-21.745 17.276-6.408-3.946-4.219 6.571-7.324-2.264h-13.945zm157.926 34.792l-9.772 3.773-4.58 7.509h-6.218l-1.779 4.767-5.164 2.471-6.273 7.514h-8.557l-1.355-10.44h-1.698l-15.067 11.661v6.16l-4.627 4.649h-10.094l-4.744-2.902-2.223.859h-6.391l-1.382-7.639-8.47-.622-7.839-10.577h-2.57v1.048l-7.454 7.263v5.508l-11.824 7.842-5.581 12.111-15.801 13.45v7.332l-10.691 11.265h-5.479l-3.78 4.985-16.069-2.736-1.457-2.93h-1.101l-1.125 6.404-8.539 8.805-1.078 8.396h-4.216v2.628l5.457 8.226-32.823 22.933h3.354l8.101 8.617 35.322 16.954 11.29 9.381h21.49l2.259-1.816h10.496l6.292 6.321 47.895-1.552 100.644-6.517 24.975-25.998 17.246-2.888 36.144-1.068v-11.577l-2.911-3.249-6.551 4.592-7.932-7.332v-7.814l4.067-1.589V239.08l3.525-4.848-7.994-8.233-2.46-8.474 4.797-1.377 3.96-5.092-7.25-9.574v-7.599l3.509-3.35-3.99-4.343-2.229-4.48v-11.032l10.686-9.475-3.741-5.341 1.378-3.981-9.589-2.978h-4.481l-4.218 10.595-9.021 5.066h-9.953l-6.454 3.537-5.858 7.357h-8.71l3.653-9.343v-3.919l-11.227-6.03h-12.915l-4.682-9.743 4.293-3.697-2.846-3.289z" fill="#66A3FF"/></g><defs><linearGradient id="paint0_linear" x1="445" y1="0" x2="445" y2="250" gradientUnits="userSpaceOnUse"><stop stop-color="#fff"/><stop offset="1" stop-color="#fff" stop-opacity="0"/></linearGradient><linearGradient id="paint1_linear" x1="445" y1="250" x2="445" y2="500" gradientUnits="userSpaceOnUse"><stop stop-color="#fff" stop-opacity="0"/><stop offset="1" stop-color="#fff"/></linearGradient><linearGradient id="paint2_linear" x1="650" y1="0" x2="650" y2="400" gradientUnits="userSpaceOnUse"><stop stop-color="#fff" stop-opacity="0"/><stop offset="1" stop-color="#fff"/></linearGradient><linearGradient id="paint3_linear" x1="250" y1="0" x2="250" y2="400" gradientUnits="userSpaceOnUse"><stop stop-color="#fff" stop-opacity="0"/><stop offset="1" stop-color="#fff"/></linearGradient><clipPath id="clip0"><path fill="#fff" d="M0 0h890v500H0z"/></clipPath></defs></svg>