<svg width="30" height="31" fill="none" xmlns="http://www.w3.org/2000/svg"><path d="M8.306 22.961c.423.285.865.543 1.324.773a10.027 10.027 0 0 1 3.884 5.178A1.566 1.566 0 0 0 15 30c.7 0 1.283-.464 1.485-1.088a10.026 10.026 0 0 1 3.885-5.178c.46-.23.901-.488 1.324-.773 0 0 0 0 0 0A11.99 11.99 0 0 0 27 13c0-6.627-5.373-12-12-12S3 6.373 3 13a11.99 11.99 0 0 0 5.306 9.961zM17 13a2 2 0 1 1-4 0 2 2 0 0 1 4 0z" fill="#fff" stroke="#fff" stroke-width="2" stroke-linejoin="round"/><g clip-path="url(#clip0)" fill-rule="evenodd" clip-rule="evenodd" fill="#7F3896"><path d="M8.865 22.131a11 11 0 0 1 1.27.738 10.995 10.995 0 0 1-1.27-.738zm11 .738c.405-.273.83-.52 1.27-.738-.405.273-.83.52-1.27.738zM14.586 29a11.02 11.02 0 0 0-4.45-6.131A10.955 10.955 0 0 0 15 24a10.96 10.96 0 0 0 4.865-1.131A11.02 11.02 0 0 0 15.415 29h-.83z"/><path d="M21.135 22.131A10.989 10.989 0 0 0 26 13c0-6.075-4.925-11-11-11S4 6.925 4 13a10.989 10.989 0 0 0 6.135 9.869A10.955 10.955 0 0 0 15 24a10.955 10.955 0 0 0 6.135-1.869zM15 16a3 3 0 1 0 0-6 3 3 0 0 0 0 6z"/></g><defs><clipPath id="clip0"><path fill="#fff" d="M0 0h30v30H0z"/></clipPath></defs></svg>