<svg width="30" height="31" viewBox="0 0 30 31" fill="none" xmlns="http://www.w3.org/2000/svg">
<path d="M8.30627 22.961C8.72899 23.2456 9.17092 23.504 9.62974 23.734C11.4416 24.9706 12.8251 26.7865 13.5145 28.9122C13.7168 29.536 14.2994 30 15 30C15.7006 30 16.2832 29.536 16.4855 28.9122C17.1749 26.7865 18.5584 24.9706 20.3703 23.734C20.8291 23.504 21.271 23.2456 21.6937 22.961C21.694 22.9608 21.6943 22.9606 21.6946 22.9604C24.8928 20.8069 27 17.1497 27 13C27 6.37258 21.6274 1 15 1C8.37258 1 3 6.37258 3 13C3 17.1501 5.10762 20.8076 8.30627 22.961ZM17 13C17 14.1046 16.1046 15 15 15C13.8954 15 13 14.1046 13 13C13 11.8954 13.8954 11 15 11C16.1046 11 17 11.8954 17 13Z" fill="white" stroke="white" stroke-width="2" stroke-linejoin="round"/>
<g clip-path="url(#clip0)">
<path fill-rule="evenodd" clip-rule="evenodd" d="M8.86473 22.1314C9.30576 22.3493 9.73009 22.5958 10.1353 22.8686C9.69424 22.6507 9.26991 22.4042 8.86473 22.1314Z" fill="#7F3896"/>
<path fill-rule="evenodd" clip-rule="evenodd" d="M19.8647 22.8686C20.2699 22.5958 20.6942 22.3493 21.1353 22.1314C20.7301 22.4042 20.3058 22.6507 19.8647 22.8686Z" fill="#7F3896"/>
<path fill-rule="evenodd" clip-rule="evenodd" d="M14.5859 29C13.8692 26.4661 12.2673 24.3038 10.1353 22.8686C11.602 23.593 13.2535 24 15 24C16.7465 24 18.398 23.593 19.8647 22.8686C17.7327 24.3038 16.1308 26.4661 15.4141 29H14.5859Z" fill="#7F3896"/>
<path fill-rule="evenodd" clip-rule="evenodd" d="M21.1353 22.1314C24.0697 20.156 26 16.8034 26 13C26 6.92487 21.0751 2 15 2C8.92487 2 4 6.92487 4 13C4 16.8034 5.93032 20.156 8.86473 22.1314C9.26991 22.4042 9.69424 22.6507 10.1353 22.8686C11.602 23.593 13.2535 24 15 24C16.7465 24 18.398 23.593 19.8647 22.8686C20.3058 22.6507 20.7301 22.4042 21.1353 22.1314ZM15 16C16.6569 16 18 14.6569 18 13C18 11.3431 16.6569 10 15 10C13.3431 10 12 11.3431 12 13C12 14.6569 13.3431 16 15 16Z" fill="#7F3896"/>
</g>
<defs>
<clipPath id="clip0">
<rect width="30" height="30" fill="white"/>
</clipPath>
</defs>
</svg>
