<svg width="28" height="28" viewBox="0 0 28 28" fill="none" xmlns="http://www.w3.org/2000/svg">
<path d="M0 4C0 1.79086 1.79086 0 4 0H24C26.2091 0 28 1.79086 28 4V24C28 26.2091 26.2091 28 24 28H4C1.79086 28 0 26.2091 0 24V4Z" fill="#4867AA"/>
<path d="M20.9918 8.81896H23V5.16196C22.6535 5.11212 21.462 5 20.0742 5C17.1787 5 15.1952 6.90421 15.1952 10.404V13.625H12V17.7132H15.1952V28H19.1127V17.7142H22.1787L22.6654 13.626H19.1118V10.8094C19.1127 9.62779 19.417 8.81896 20.9918 8.81896Z" fill="white"/>
</svg>
