<svg width="565" height="471" viewBox="0 0 565 471" fill="none" xmlns="http://www.w3.org/2000/svg">
<path d="M257.632 15.14C259.578 15.14 260.978 14.048 260.978 12.368C260.978 10.842 259.97 10.044 257.786 9.568C255.63 9.106 255.126 8.588 255.126 7.664C255.126 6.754 255.938 6.054 257.212 6.054C258.22 6.054 259.13 6.376 260.04 7.118L260.684 6.264C259.69 5.466 258.668 5.06 257.24 5.06C255.378 5.06 254.02 6.194 254.02 7.734C254.02 9.372 255.056 10.1 257.31 10.59C259.368 11.024 259.858 11.542 259.858 12.452C259.858 13.446 258.99 14.146 257.674 14.146C256.316 14.146 255.336 13.684 254.314 12.76L253.628 13.572C254.804 14.622 256.078 15.14 257.632 15.14ZM263.227 15H270.381V13.992H264.333V10.562H269.681V9.554H264.333V6.208H270.311V5.2H263.227V15ZM277.156 15.168C280.138 15.168 282.168 12.802 282.168 10.1C282.168 7.37 280.166 5.032 277.184 5.032C274.202 5.032 272.172 7.398 272.172 10.1C272.172 12.83 274.174 15.168 277.156 15.168ZM277.184 14.146C274.944 14.146 273.32 12.326 273.32 10.1C273.32 7.846 274.916 6.054 277.156 6.054C279.396 6.054 281.02 7.874 281.02 10.1C281.02 12.354 279.424 14.146 277.184 14.146Z" fill="#2F3139"/>
<path d="M375.386 34H376.492V31.368L378.578 29.254L382.344 34H383.73L379.348 28.484L383.548 24.2H382.12L376.492 30.052V24.2H375.386V34ZM388.571 34.168C390.755 34.168 392.365 32.432 392.365 30.388C392.365 28.316 390.769 26.608 388.599 26.608C386.415 26.608 384.819 28.344 384.819 30.388C384.819 32.46 386.401 34.168 388.571 34.168ZM388.599 33.202C387.073 33.202 385.925 31.942 385.925 30.388C385.925 28.834 387.003 27.56 388.571 27.56C390.097 27.56 391.258 28.834 391.258 30.388C391.258 31.942 390.167 33.202 388.599 33.202ZM394.317 34H395.395V30.836H399.567V34H400.645V26.762H399.567V29.884H395.395V26.762H394.317V34ZM404.804 34H405.896V27.714H408.486V26.762H402.214V27.714H404.804V34ZM413.218 34.168C414.59 34.168 415.472 33.622 416.2 32.81L415.528 32.208C414.94 32.824 414.24 33.23 413.246 33.23C411.972 33.23 410.852 32.348 410.698 30.822H416.438C416.452 30.654 416.452 30.542 416.452 30.444C416.452 28.316 415.22 26.608 413.078 26.608C411.076 26.608 409.606 28.288 409.606 30.388C409.606 32.642 411.23 34.168 413.218 34.168ZM410.698 29.954C410.852 28.554 411.804 27.518 413.05 27.518C414.478 27.518 415.234 28.638 415.36 29.954H410.698ZM418.339 34H419.417V32.25L420.943 30.682L423.519 34H424.793L421.685 29.898L424.709 26.762H423.379L419.417 30.934V26.762H418.339V34ZM429.544 34.168C430.902 34.168 431.77 33.58 432.498 32.768L431.784 32.11C431.21 32.726 430.524 33.202 429.6 33.202C428.088 33.202 426.94 31.956 426.94 30.388C426.94 28.806 428.06 27.56 429.53 27.56C430.51 27.56 431.182 28.022 431.756 28.624L432.442 27.896C431.77 27.182 430.916 26.608 429.544 26.608C427.43 26.608 425.834 28.344 425.834 30.388C425.834 32.446 427.43 34.168 429.544 34.168ZM436.03 34H437.122V27.714H439.712V26.762H433.44V27.714H436.03V34ZM441.28 34H442.358V30.836H446.53V34H447.608V26.762H446.53V29.884H442.358V26.762H441.28V34ZM452.173 34.154C453.447 34.154 454.273 33.566 454.777 32.922V34H455.841V29.576C455.841 28.652 455.589 27.952 455.085 27.448C454.567 26.93 453.769 26.65 452.747 26.65C451.683 26.65 450.913 26.902 450.115 27.266L450.437 28.148C451.109 27.84 451.781 27.63 452.635 27.63C453.993 27.63 454.777 28.302 454.777 29.59V29.814C454.133 29.632 453.489 29.506 452.565 29.506C450.731 29.506 449.471 30.318 449.471 31.872C449.471 33.384 450.815 34.154 452.173 34.154ZM452.383 33.286C451.403 33.286 450.562 32.754 450.562 31.844C450.562 30.948 451.333 30.36 452.677 30.36C453.559 30.36 454.259 30.514 454.791 30.668V31.34C454.791 32.488 453.713 33.286 452.383 33.286ZM457.48 34H458.81C459.482 33.132 460.14 32.25 460.812 31.368H462.814V34H463.892V26.762H460.49C458.768 26.762 457.76 27.686 457.76 29.016C457.76 30.192 458.614 30.948 459.692 31.2L457.48 34ZM460.574 30.458C459.566 30.458 458.838 29.94 458.838 29.058C458.838 28.232 459.468 27.714 460.546 27.714H462.814V30.458H460.574ZM470.497 36.24H471.575V32.614C472.135 33.426 473.003 34.154 474.347 34.154C476.097 34.154 477.805 32.754 477.805 30.388C477.805 27.98 476.083 26.608 474.347 26.608C473.017 26.608 472.163 27.35 471.575 28.218V26.762H470.497V36.24ZM474.151 33.188C472.807 33.188 471.533 32.068 471.533 30.388C471.533 28.708 472.807 27.574 474.151 27.574C475.523 27.574 476.699 28.666 476.699 30.374C476.699 32.152 475.551 33.188 474.151 33.188ZM482.958 34.168C484.33 34.168 485.212 33.622 485.94 32.81L485.268 32.208C484.68 32.824 483.98 33.23 482.986 33.23C481.712 33.23 480.592 32.348 480.438 30.822H486.178C486.192 30.654 486.192 30.542 486.192 30.444C486.192 28.316 484.96 26.608 482.818 26.608C480.816 26.608 479.346 28.288 479.346 30.388C479.346 32.642 480.97 34.168 482.958 34.168ZM480.438 29.954C480.592 28.554 481.544 27.518 482.79 27.518C484.218 27.518 484.974 28.638 485.1 29.954H480.438ZM488.079 34H489.157V32.25L490.683 30.682L493.259 34H494.533L491.425 29.898L494.449 26.762H493.119L489.157 30.934V26.762H488.079V34ZM495.672 34.112C497.044 34.112 498.066 33.524 498.066 27.882V27.714H501.09V34H502.168V26.762H497.044V27.364C497.044 32.796 496.316 33.174 495.448 33.174C495.322 33.174 495.07 33.118 494.93 33.076L494.804 34C495.028 34.056 495.434 34.112 495.672 34.112ZM506.737 34.154C508.011 34.154 508.837 33.566 509.341 32.922V34H510.405V29.576C510.405 28.652 510.153 27.952 509.649 27.448C509.131 26.93 508.333 26.65 507.311 26.65C506.247 26.65 505.477 26.902 504.679 27.266L505.001 28.148C505.673 27.84 506.345 27.63 507.199 27.63C508.557 27.63 509.341 28.302 509.341 29.59V29.814C508.697 29.632 508.053 29.506 507.129 29.506C505.295 29.506 504.035 30.318 504.035 31.872C504.035 33.384 505.379 34.154 506.737 34.154ZM506.947 33.286C505.967 33.286 505.127 32.754 505.127 31.844C505.127 30.948 505.897 30.36 507.241 30.36C508.123 30.36 508.823 30.514 509.355 30.668V31.34C509.355 32.488 508.277 33.286 506.947 33.286ZM512.688 34H513.738V28.484L516.384 32.152L519.058 28.484V34H520.15V26.762H519.114L516.412 30.57L513.71 26.762H512.688V34ZM524.715 34.154C525.989 34.154 526.815 33.566 527.319 32.922V34H528.383V29.576C528.383 28.652 528.131 27.952 527.627 27.448C527.109 26.93 526.311 26.65 525.289 26.65C524.225 26.65 523.455 26.902 522.657 27.266L522.979 28.148C523.651 27.84 524.323 27.63 525.177 27.63C526.535 27.63 527.319 28.302 527.319 29.59V29.814C526.675 29.632 526.031 29.506 525.107 29.506C523.273 29.506 522.013 30.318 522.013 31.872C522.013 33.384 523.357 34.154 524.715 34.154ZM524.925 33.286C523.945 33.286 523.105 32.754 523.105 31.844C523.105 30.948 523.875 30.36 525.219 30.36C526.101 30.36 526.801 30.514 527.333 30.668V31.34C527.333 32.488 526.255 33.286 524.925 33.286Z" fill="#2F3139"/>
<path d="M454.546 130H455.68L456.842 127.41H462.176L463.324 130H464.514L460.048 120.13H459.012L454.546 130ZM457.276 126.416L459.516 121.418L461.742 126.416H457.276ZM466.265 130H469.891C471.487 130 472.523 129.244 472.523 128.026C472.523 127.004 471.795 126.472 470.927 126.234C471.529 125.982 472.131 125.52 472.131 124.568C472.131 123.476 471.207 122.762 469.765 122.762H466.265V130ZM467.343 129.076V126.738H469.611C470.787 126.738 471.417 127.158 471.417 127.858C471.417 128.614 470.787 129.076 469.751 129.076H467.343ZM467.343 125.87V123.686H469.597C470.535 123.686 471.039 124.106 471.039 124.708C471.039 125.464 470.437 125.87 469.569 125.87H467.343ZM476.218 130H477.31V123.714H479.9V122.762H473.628V123.714H476.218V130ZM484.772 130.168C486.956 130.168 488.566 128.432 488.566 126.388C488.566 124.316 486.97 122.608 484.8 122.608C482.616 122.608 481.02 124.344 481.02 126.388C481.02 128.46 482.602 130.168 484.772 130.168ZM484.8 129.202C483.274 129.202 482.126 127.942 482.126 126.388C482.126 124.834 483.204 123.56 484.772 123.56C486.298 123.56 487.46 124.834 487.46 126.388C487.46 127.942 486.368 129.202 484.8 129.202ZM490.518 130H491.568V124.484L494.214 128.152L496.888 124.484V130H497.98V122.762H496.944L494.242 126.57L491.54 122.762H490.518V130ZM502.546 130.154C503.82 130.154 504.646 129.566 505.15 128.922V130H506.214V125.576C506.214 124.652 505.962 123.952 505.458 123.448C504.94 122.93 504.142 122.65 503.12 122.65C502.056 122.65 501.286 122.902 500.488 123.266L500.81 124.148C501.482 123.84 502.154 123.63 503.008 123.63C504.366 123.63 505.15 124.302 505.15 125.59V125.814C504.506 125.632 503.862 125.506 502.938 125.506C501.104 125.506 499.844 126.318 499.844 127.872C499.844 129.384 501.188 130.154 502.546 130.154ZM502.756 129.286C501.776 129.286 500.936 128.754 500.936 127.844C500.936 126.948 501.706 126.36 503.05 126.36C503.932 126.36 504.632 126.514 505.164 126.668V127.34C505.164 128.488 504.086 129.286 502.756 129.286ZM510.247 130H511.339V123.714H513.929V122.762H507.657V123.714H510.247V130ZM515.497 130H516.533L520.845 124.274V130H521.923V122.762H520.873L516.575 128.488V122.762H515.497V130ZM526.625 130.168C528.417 130.168 529.495 129.146 529.495 127.984C529.495 127.032 528.949 126.486 528.151 126.206C528.767 125.954 529.313 125.436 529.313 124.54C529.313 123.42 528.319 122.608 526.695 122.608C525.631 122.608 524.651 122.93 523.895 123.518L524.427 124.274C525.057 123.77 525.911 123.546 526.625 123.546C527.521 123.546 528.193 123.952 528.193 124.624C528.193 125.38 527.535 125.87 526.583 125.87H525.603V126.752H526.569C527.745 126.752 528.389 127.214 528.389 127.942C528.389 128.782 527.535 129.23 526.597 129.23C525.729 129.23 524.903 128.908 524.175 128.292L523.629 129.09C524.511 129.804 525.477 130.168 526.625 130.168ZM533.649 130.154C534.923 130.154 535.749 129.566 536.253 128.922V130H537.317V125.576C537.317 124.652 537.065 123.952 536.561 123.448C536.043 122.93 535.245 122.65 534.223 122.65C533.159 122.65 532.389 122.902 531.591 123.266L531.913 124.148C532.585 123.84 533.257 123.63 534.111 123.63C535.469 123.63 536.253 124.302 536.253 125.59V125.814C535.609 125.632 534.965 125.506 534.041 125.506C532.207 125.506 530.947 126.318 530.947 127.872C530.947 129.384 532.291 130.154 533.649 130.154ZM533.859 129.286C532.879 129.286 532.039 128.754 532.039 127.844C532.039 126.948 532.809 126.36 534.153 126.36C535.035 126.36 535.735 126.514 536.267 126.668V127.34C536.267 128.488 535.189 129.286 533.859 129.286ZM545.844 131.806H546.74L546.908 129.048H545.816V122.762H544.738V129.048H540.678V122.762H539.6V130H545.844V131.806ZM548.392 130H549.428L553.74 124.274V130H554.818V122.762H553.768L549.47 128.488V122.762H548.392V130ZM556.58 130H557.91C558.582 129.132 559.24 128.25 559.912 127.368H561.914V130H562.992V122.762H559.59C557.868 122.762 556.86 123.686 556.86 125.016C556.86 126.192 557.714 126.948 558.792 127.2L556.58 130ZM559.674 126.458C558.666 126.458 557.938 125.94 557.938 125.058C557.938 124.232 558.568 123.714 559.646 123.714H561.914V126.458H559.674Z" fill="#2F3139"/>
<path d="M4.75139 130H5.87139V121.208H9.16139V120.2H1.46139V121.208H4.75139V130ZM14.2215 130.168C15.5935 130.168 16.4755 129.622 17.2035 128.81L16.5315 128.208C15.9435 128.824 15.2435 129.23 14.2495 129.23C12.9755 129.23 11.8555 128.348 11.7015 126.822H17.4415C17.4555 126.654 17.4555 126.542 17.4555 126.444C17.4555 124.316 16.2235 122.608 14.0815 122.608C12.0795 122.608 10.6095 124.288 10.6095 126.388C10.6095 128.642 12.2335 130.168 14.2215 130.168ZM11.7015 125.954C11.8555 124.554 12.8075 123.518 14.0535 123.518C15.4815 123.518 16.2375 124.638 16.3635 125.954H11.7015ZM18.9927 130.112C20.3647 130.112 21.3867 129.524 21.3867 123.882V123.714H24.4107V130H25.4887V122.762H20.3647V123.364C20.3647 128.796 19.6367 129.174 18.7687 129.174C18.6427 129.174 18.3907 129.118 18.2507 129.076L18.1247 130C18.3487 130.056 18.7547 130.112 18.9927 130.112ZM31.0653 130.168C32.4373 130.168 33.3193 129.622 34.0473 128.81L33.3753 128.208C32.7873 128.824 32.0873 129.23 31.0933 129.23C29.8193 129.23 28.6993 128.348 28.5453 126.822H34.2853C34.2993 126.654 34.2993 126.542 34.2993 126.444C34.2993 124.316 33.0673 122.608 30.9253 122.608C28.9233 122.608 27.4533 124.288 27.4533 126.388C27.4533 128.642 29.0773 130.168 31.0653 130.168ZM28.5453 125.954C28.6993 124.554 29.6513 123.518 30.8973 123.518C32.3253 123.518 33.0813 124.638 33.2073 125.954H28.5453ZM40.5404 132.24H41.6324V129.412C42.0944 129.804 42.5564 130.154 43.4384 130.154C45.1744 130.154 46.3924 128.74 46.3924 126.388C46.3924 124.008 45.1744 122.608 43.4384 122.608C42.6124 122.608 42.0944 122.972 41.6324 123.392V120.2H40.5404V123.392C40.0784 122.972 39.5604 122.608 38.7344 122.608C36.9984 122.608 35.7944 124.008 35.7944 126.36C35.7944 128.74 36.9984 130.154 38.7344 130.154C39.5464 130.154 40.0784 129.804 40.5404 129.412V132.24ZM38.9584 129.202C37.5444 129.202 36.9144 128.152 36.9144 126.416C36.9144 124.68 37.5864 123.574 38.9584 123.574C39.6024 123.574 40.1064 123.826 40.5404 124.288V128.488C40.1064 128.95 39.6024 129.202 38.9584 129.202ZM43.2284 129.202C42.5844 129.202 42.0804 128.95 41.6324 128.488V124.288C42.0804 123.826 42.5844 123.574 43.2284 123.574C44.6004 123.574 45.2724 124.68 45.2724 126.388C45.2724 128.152 44.6424 129.202 43.2284 129.202ZM51.7131 130.168C53.8971 130.168 55.5071 128.432 55.5071 126.388C55.5071 124.316 53.9111 122.608 51.7411 122.608C49.5571 122.608 47.9611 124.344 47.9611 126.388C47.9611 128.46 49.5431 130.168 51.7131 130.168ZM51.7411 129.202C50.2151 129.202 49.0671 127.942 49.0671 126.388C49.0671 124.834 50.1451 123.56 51.7131 123.56C53.2391 123.56 54.4011 124.834 54.4011 126.388C54.4011 127.942 53.3091 129.202 51.7411 129.202ZM57.4599 130H58.5379V126.836H62.7099V130H63.7879V122.762H62.7099V125.884H58.5379V122.762H57.4599V130ZM66.1962 130H67.2322L71.5442 124.274V130H72.6222V122.762H71.5722L67.2742 128.488V122.762H66.1962V130ZM74.3842 130H75.7142C76.3862 129.132 77.0442 128.25 77.7162 127.368H79.7182V130H80.7962V122.762H77.3942C75.6722 122.762 74.6642 123.686 74.6642 125.016C74.6642 126.192 75.5182 126.948 76.5962 127.2L74.3842 130ZM77.4782 126.458C76.4702 126.458 75.7422 125.94 75.7422 125.058C75.7422 124.232 76.3722 123.714 77.4502 123.714H79.7182V126.458H77.4782Z" fill="#2F3139"/>
<path d="M487.14 247.184H488.078L488.274 245H496.226V247.184H497.15L497.318 243.992H496.044V235.2H489.632V236.908C489.632 240.086 489.086 242.494 488.148 243.992H487.14V247.184ZM489.394 243.992C490.206 242.648 490.696 240.016 490.696 237.482V236.208H494.938V243.992H489.394ZM498.759 245H499.795L504.107 239.274V245H505.185V237.762H504.135L499.837 243.488V237.762H498.759V245ZM509.887 245.168C511.679 245.168 512.757 244.146 512.757 242.984C512.757 242.032 512.211 241.486 511.413 241.206C512.029 240.954 512.575 240.436 512.575 239.54C512.575 238.42 511.581 237.608 509.957 237.608C508.893 237.608 507.913 237.93 507.157 238.518L507.689 239.274C508.319 238.77 509.173 238.546 509.887 238.546C510.783 238.546 511.455 238.952 511.455 239.624C511.455 240.38 510.797 240.87 509.845 240.87H508.865V241.752H509.831C511.007 241.752 511.651 242.214 511.651 242.942C511.651 243.782 510.797 244.23 509.859 244.23C508.991 244.23 508.165 243.908 507.437 243.292L506.891 244.09C507.773 244.804 508.739 245.168 509.887 245.168ZM516.911 245.154C518.185 245.154 519.011 244.566 519.515 243.922V245H520.579V240.576C520.579 239.652 520.327 238.952 519.823 238.448C519.305 237.93 518.507 237.65 517.485 237.65C516.421 237.65 515.651 237.902 514.853 238.266L515.175 239.148C515.847 238.84 516.519 238.63 517.373 238.63C518.731 238.63 519.515 239.302 519.515 240.59V240.814C518.871 240.632 518.227 240.506 517.303 240.506C515.469 240.506 514.209 241.318 514.209 242.872C514.209 244.384 515.553 245.154 516.911 245.154ZM517.121 244.286C516.141 244.286 515.301 243.754 515.301 242.844C515.301 241.948 516.071 241.36 517.415 241.36C518.297 241.36 518.997 241.514 519.529 241.668V242.34C519.529 243.488 518.451 244.286 517.121 244.286ZM522.862 245H523.898L528.21 239.274V245H529.288V237.762H528.238L523.94 243.488V237.762H522.862V245ZM526.04 236.726C527.09 236.726 527.846 236.012 528.014 235.018L527.272 234.864C527.104 235.466 526.726 235.844 526.04 235.844C525.354 235.844 524.976 235.466 524.808 234.864L524.066 235.018C524.234 236.012 524.99 236.726 526.04 236.726ZM531.694 245H532.772V241.836H536.944V245H538.022V237.762H536.944V240.884H532.772V237.762H531.694V245Z" fill="#2F3139"/>
<path d="M456.506 361H457.598V351.13H456.786L454.392 351.956L454.658 352.852L456.506 352.278V361ZM464.884 361.168C466.662 361.168 467.782 360.538 468.804 359.502L468.076 358.732C467.138 359.628 466.256 360.146 464.912 360.146C462.756 360.146 461.118 358.368 461.118 356.1C461.118 353.818 462.742 352.054 464.912 352.054C466.242 352.054 467.166 352.614 467.992 353.398L468.72 352.614C467.74 351.69 466.704 351.032 464.926 351.032C462.042 351.032 459.97 353.328 459.97 356.1C459.97 358.942 462.056 361.168 464.884 361.168Z" fill="#2F3139"/>
<path d="M102.652 50H107.006C109.148 50 110.562 49.006 110.562 47.326C110.562 45.954 109.624 45.282 108.462 44.932C109.232 44.596 110.016 43.938 110.016 42.664C110.016 42.006 109.792 41.488 109.386 41.068C108.84 40.508 107.944 40.2 106.824 40.2H102.652V50ZM103.744 49.006V45.548H106.838C108.546 45.548 109.442 46.164 109.442 47.228C109.442 48.348 108.518 49.006 107.034 49.006H103.744ZM103.744 44.568V41.194H106.726C108.126 41.194 108.896 41.824 108.896 42.79C108.896 43.966 107.972 44.568 106.642 44.568H103.744ZM115.737 50.168C117.109 50.168 117.991 49.622 118.719 48.81L118.047 48.208C117.459 48.824 116.759 49.23 115.765 49.23C114.491 49.23 113.371 48.348 113.217 46.822H118.957C118.971 46.654 118.971 46.542 118.971 46.444C118.971 44.316 117.739 42.608 115.597 42.608C113.595 42.608 112.125 44.288 112.125 46.388C112.125 48.642 113.749 50.168 115.737 50.168ZM113.217 45.954C113.371 44.554 114.323 43.518 115.569 43.518C116.997 43.518 117.753 44.638 117.879 45.954H113.217ZM120.858 52.24H121.936V48.614C122.496 49.426 123.364 50.154 124.708 50.154C126.458 50.154 128.166 48.754 128.166 46.388C128.166 43.98 126.444 42.608 124.708 42.608C123.378 42.608 122.524 43.35 121.936 44.218V42.762H120.858V52.24ZM124.512 49.188C123.168 49.188 121.894 48.068 121.894 46.388C121.894 44.708 123.168 43.574 124.512 43.574C125.884 43.574 127.06 44.666 127.06 46.374C127.06 48.152 125.912 49.188 124.512 49.188ZM133.417 50.168C134.775 50.168 135.643 49.58 136.371 48.768L135.657 48.11C135.083 48.726 134.397 49.202 133.473 49.202C131.961 49.202 130.813 47.956 130.813 46.388C130.813 44.806 131.933 43.56 133.403 43.56C134.383 43.56 135.055 44.022 135.629 44.624L136.315 43.896C135.643 43.182 134.789 42.608 133.417 42.608C131.303 42.608 129.707 44.344 129.707 46.388C129.707 48.446 131.303 50.168 133.417 50.168ZM139.903 50H140.995V43.714H143.585V42.762H137.313V43.714H139.903V50ZM145.153 50H146.231V48.25L147.757 46.682L150.333 50H151.607L148.499 45.898L151.523 42.762H150.193L146.231 46.934V42.762H145.153V50ZM155.253 50.154C156.527 50.154 157.353 49.566 157.857 48.922V50H158.921V45.576C158.921 44.652 158.669 43.952 158.165 43.448C157.647 42.93 156.849 42.65 155.827 42.65C154.763 42.65 153.993 42.902 153.195 43.266L153.517 44.148C154.189 43.84 154.861 43.63 155.715 43.63C157.073 43.63 157.857 44.302 157.857 45.59V45.814C157.213 45.632 156.569 45.506 155.645 45.506C153.811 45.506 152.551 46.318 152.551 47.872C152.551 49.384 153.895 50.154 155.253 50.154ZM155.463 49.286C154.483 49.286 153.643 48.754 153.643 47.844C153.643 46.948 154.413 46.36 155.757 46.36C156.639 46.36 157.339 46.514 157.871 46.668V47.34C157.871 48.488 156.793 49.286 155.463 49.286Z" fill="#2F3139"/>
<path d="M376.386 440H377.492V435.59H383.148V440H384.254V430.2H383.148V434.554H377.492V430.2H376.386V440ZM388.997 440.154C390.271 440.154 391.097 439.566 391.601 438.922V440H392.665V435.576C392.665 434.652 392.413 433.952 391.909 433.448C391.391 432.93 390.593 432.65 389.571 432.65C388.507 432.65 387.737 432.902 386.939 433.266L387.261 434.148C387.933 433.84 388.605 433.63 389.459 433.63C390.817 433.63 391.601 434.302 391.601 435.59V435.814C390.957 435.632 390.313 435.506 389.389 435.506C387.555 435.506 386.295 436.318 386.295 437.872C386.295 439.384 387.639 440.154 388.997 440.154ZM389.207 439.286C388.227 439.286 387.387 438.754 387.387 437.844C387.387 436.948 388.157 436.36 389.501 436.36C390.383 436.36 391.083 436.514 391.615 436.668V437.34C391.615 438.488 390.537 439.286 389.207 439.286ZM394.948 440H396.026V433.714H400.142V440H401.22V432.762H394.948V440ZM403.63 440H404.666L408.978 434.274V440H410.056V432.762H409.006L404.708 438.488V432.762H403.63V440ZM415.724 440.168C417.082 440.168 417.95 439.58 418.678 438.768L417.964 438.11C417.39 438.726 416.704 439.202 415.78 439.202C414.268 439.202 413.12 437.956 413.12 436.388C413.12 434.806 414.24 433.56 415.71 433.56C416.69 433.56 417.362 434.022 417.936 434.624L418.622 433.896C417.95 433.182 417.096 432.608 415.724 432.608C413.61 432.608 412.014 434.344 412.014 436.388C412.014 438.446 413.61 440.168 415.724 440.168ZM422.616 440.154C423.89 440.154 424.716 439.566 425.22 438.922V440H426.284V435.576C426.284 434.652 426.032 433.952 425.528 433.448C425.01 432.93 424.212 432.65 423.19 432.65C422.126 432.65 421.356 432.902 420.558 433.266L420.88 434.148C421.552 433.84 422.224 433.63 423.078 433.63C424.436 433.63 425.22 434.302 425.22 435.59V435.814C424.576 435.632 423.932 435.506 423.008 435.506C421.174 435.506 419.914 436.318 419.914 437.872C419.914 439.384 421.258 440.154 422.616 440.154ZM422.826 439.286C421.846 439.286 421.006 438.754 421.006 437.844C421.006 436.948 421.776 436.36 423.12 436.36C424.002 436.36 424.702 436.514 425.234 436.668V437.34C425.234 438.488 424.156 439.286 422.826 439.286ZM428.567 440H429.645V436.836H433.817V440H434.895V432.762H433.817V435.884H429.645V432.762H428.567V440ZM437.304 440H438.34L442.652 434.274V440H443.73V432.762H442.68L438.382 438.488V432.762H437.304V440ZM449.3 440.168C450.672 440.168 451.554 439.622 452.282 438.81L451.61 438.208C451.022 438.824 450.322 439.23 449.328 439.23C448.054 439.23 446.934 438.348 446.78 436.822H452.52C452.534 436.654 452.534 436.542 452.534 436.444C452.534 434.316 451.302 432.608 449.16 432.608C447.158 432.608 445.688 434.288 445.688 436.388C445.688 438.642 447.312 440.168 449.3 440.168ZM446.78 435.954C446.934 434.554 447.886 433.518 449.132 433.518C450.56 433.518 451.316 434.638 451.442 435.954H446.78ZM461.39 440H462.51V431.208H465.8V430.2H458.1V431.208H461.39V440ZM471.126 440.168C473.17 440.168 474.556 438.936 474.556 437.382C474.556 436.08 473.66 435.324 472.498 434.974C473.394 434.652 474.29 433.98 474.29 432.664C474.29 431.152 472.932 430.046 470.986 430.046C469.432 430.046 468.41 430.508 467.43 431.348L468.074 432.118C468.928 431.348 469.852 431.012 470.958 431.012C472.246 431.012 473.17 431.754 473.17 432.762C473.17 433.924 472.176 434.61 470.776 434.61H469.698V435.52H470.776C472.274 435.52 473.422 436.052 473.422 437.326C473.422 438.488 472.344 439.216 471.14 439.216C469.726 439.216 468.69 438.754 467.696 437.816L467.038 438.586C468.186 439.636 469.432 440.168 471.126 440.168Z" fill="#2F3139"/>
<path opacity="0.15" fill-rule="evenodd" clip-rule="evenodd" d="M59.5 238L59.5001 237.759C59.5044 238.032 59.7264 238.251 59.9998 238.252L79.0002 238.263C79.0467 272.425 88.1568 304.463 104.055 332.101L87.749 341.568C87.5102 341.706 87.4289 342.012 87.5676 342.251C87.7062 342.49 88.0122 342.571 88.251 342.432L104.556 332.967C121.045 361.286 144.684 384.929 172.999 401.425L163.567 417.75C163.429 417.989 163.511 418.295 163.75 418.433C163.989 418.571 164.295 418.489 164.433 418.25L173.865 401.926C201.447 417.799 233.413 426.911 267.5 426.999V446C267.5 446.276 267.724 446.5 268 446.5C152.849 446.5 59.5 353.151 59.5 238ZM268 446.5C268.276 446.5 268.5 446.276 268.5 446V426.999C302.59 426.911 334.559 417.797 362.143 401.921L371.567 418.25C371.705 418.489 372.011 418.571 372.25 418.433C372.489 418.295 372.571 417.989 372.433 417.75L363.008 401.42C391.309 384.932 414.937 361.302 431.425 333.001L447.75 342.433C447.989 342.571 448.295 342.489 448.433 342.25C448.571 342.011 448.489 341.705 448.25 341.567L431.926 332.135C447.801 304.55 456.913 272.58 456.999 238.489L476 238.5C476.275 238.5 476.498 238.278 476.5 238.004C476.498 353.153 383.15 446.5 268 446.5ZM174.365 401.06C201.8 416.848 233.595 425.911 267.5 425.999V406.999C237.059 406.911 208.511 398.775 183.872 384.605L174.365 401.06ZM184.372 383.739C208.864 397.823 237.241 405.911 267.5 405.999V386.999C240.704 386.911 215.574 379.75 193.879 367.285L184.372 383.739ZM193.014 366.784L183.507 383.238C158.361 368.578 137.368 347.575 122.72 322.421L139.154 312.88C152.136 335.17 170.736 353.784 193.014 366.784ZM194.38 366.419C215.928 378.799 240.887 385.911 267.5 385.999V366.999C244.35 366.911 222.638 360.726 203.887 349.965L194.38 366.419ZM203.021 349.464L193.514 365.918C171.387 353.006 152.913 334.517 140.019 312.378L156.454 302.837C167.681 322.112 183.762 338.212 203.021 349.464ZM204.387 349.099C222.991 359.774 244.533 365.911 267.5 365.999V346.999C247.996 346.911 229.702 341.701 213.894 332.645L204.387 349.099ZM213.029 332.143L203.522 348.598C184.413 337.434 168.459 321.459 157.319 302.335L173.753 292.794C183.227 309.054 196.788 322.64 213.029 332.143ZM214.394 331.779C230.055 340.75 248.178 345.911 267.5 345.999V326.999C251.642 326.911 236.766 322.677 223.901 315.324L214.394 331.779ZM223.036 314.823L213.529 331.277C197.439 321.861 184.004 308.401 174.618 292.292L191.052 282.751C198.772 295.996 209.814 307.068 223.036 314.823ZM224.402 314.458C237.119 321.725 251.824 325.911 267.5 325.999V306.998C255.288 306.912 243.83 303.652 233.909 298.004L224.402 314.458ZM233.043 297.503L223.536 313.957C210.465 306.289 199.549 295.343 191.917 282.249L208.351 272.707C214.317 282.938 222.84 291.495 233.043 297.503ZM234.409 297.138C244.183 302.701 255.47 305.912 267.5 305.998V286.997C258.933 286.912 250.893 284.628 243.916 280.683L234.409 297.138ZM243.051 280.182L233.544 296.636C223.491 290.717 215.095 282.285 209.216 272.205L225.651 262.664C229.863 269.88 235.866 275.923 243.051 280.182ZM244.417 279.817C251.246 283.677 259.116 285.912 267.5 285.997V239.865L244.417 279.817ZM267.063 238.622L243.551 279.316C236.517 275.144 230.64 269.227 226.516 262.162L267.063 238.622ZM269.806 235.873L309.042 213.095C304.944 206.358 299.235 200.709 292.449 196.684L269.806 235.873ZM291.583 196.183L268.5 236.135V190.003C276.884 190.088 284.754 192.323 291.583 196.183ZM292.949 195.818C299.886 199.93 305.722 205.705 309.907 212.593L326.343 203.05C320.489 193.299 312.26 185.137 302.456 179.364L292.949 195.818ZM301.591 178.862L292.084 195.317C285.107 191.372 277.067 189.088 268.5 189.003V170.002C280.53 170.088 291.817 173.299 301.591 178.862ZM302.957 178.497C312.912 184.359 321.267 192.647 327.208 202.548L343.644 193.006C336.035 180.241 325.286 169.565 312.464 162.043L302.957 178.497ZM311.598 161.542L302.091 177.996C292.17 172.348 280.712 169.088 268.5 169.002V150.001C284.176 150.089 298.881 154.275 311.598 161.542ZM312.964 161.177C325.937 168.787 336.812 179.589 344.509 192.504L360.944 182.963C351.58 167.184 338.312 153.993 322.471 144.723L312.964 161.177ZM321.606 144.221L312.099 160.676C299.234 153.323 284.358 149.089 268.5 149.001V130.001C287.822 130.089 305.945 135.25 321.606 144.221ZM322.971 143.857C338.963 153.215 352.357 166.531 361.809 182.461L378.244 172.919C367.125 154.126 351.338 138.421 332.478 127.402L322.971 143.857ZM331.613 126.901L322.106 143.355C306.298 134.299 288.004 129.089 268.5 129.001V110.001C291.467 110.089 313.009 116.226 331.613 126.901ZM332.979 126.536C351.989 137.642 367.902 153.473 379.109 172.417L395.543 162.876C382.67 141.068 364.364 122.849 342.486 110.082L332.979 126.536ZM341.62 109.581L332.113 126.035C313.362 115.274 291.65 109.089 268.5 109.001V90.0008C295.113 90.0888 320.072 97.2012 341.62 109.581ZM342.986 109.216C365.015 122.07 383.448 140.415 396.408 162.374L412.843 152.832C398.216 128.01 377.389 107.277 352.493 92.7617L342.986 109.216ZM351.628 92.2606L342.121 108.715C320.426 96.25 295.296 89.0888 268.5 89.0008V70.0007C298.759 70.0889 327.136 78.1767 351.628 92.2606ZM352.993 91.8957C378.041 106.498 398.993 127.357 413.708 152.33L430.142 142.789C413.761 114.952 390.415 91.7044 362.5 75.4414L352.993 91.8957ZM361.635 74.9403L352.128 91.3946C327.489 77.2255 298.941 69.0889 268.5 69.0007V50.0007C302.405 50.0889 334.2 59.1523 361.635 74.9403ZM363.001 74.5754L372.433 58.2501C372.571 58.011 372.489 57.7052 372.25 57.5671C372.011 57.4289 371.705 57.5108 371.567 57.7499L362.135 74.0743C334.553 58.2011 302.587 49.0889 268.5 49.0006V30C268.5 29.7239 268.276 29.5 268 29.5C344.663 29.5 411.662 70.8751 447.885 132.513C447.866 132.518 447.848 132.523 447.829 132.53C447.802 132.54 447.775 132.552 447.749 132.568L431.007 142.287C414.538 114.299 391.067 90.9258 363.001 74.5754ZM268 29.5C267.724 29.5 267.5 29.7239 267.5 30V49.0006C233.478 49.0887 201.569 58.1662 174.023 73.9833L164.599 57.6544C164.461 57.4153 164.155 57.3333 163.916 57.4713C163.676 57.6094 163.595 57.9151 163.733 58.1543L173.157 74.4836C144.783 90.9765 121.095 114.643 104.575 142.999L88.2501 133.567C88.011 133.429 87.7052 133.511 87.5671 133.75C87.4289 133.989 87.5107 134.295 87.7498 134.433L104.074 143.865C88.2379 171.383 79.1312 203.265 79.0014 237.263L60.0004 237.252C59.7272 237.251 59.505 237.47 59.5002 237.742C59.6392 122.709 152.934 29.5 268 29.5ZM183.007 384.104L173.5 400.559C145.336 384.15 121.823 360.633 105.421 332.465L121.855 322.923C136.591 348.228 157.71 369.357 183.007 384.104ZM430.559 332.5C414.159 360.65 390.657 384.153 362.508 400.554L353.009 384.095C378.275 369.362 399.373 348.261 414.104 322.993L430.559 332.5ZM361.643 401.055L352.143 384.596C327.501 398.771 298.948 406.911 268.5 406.999V425.999C302.408 425.911 334.206 416.846 361.643 401.055ZM413.238 322.493C398.595 347.609 377.623 368.583 352.509 383.229L343.009 366.77C365.242 353.792 383.81 335.221 396.784 312.986L413.238 322.493ZM351.643 383.73L342.144 367.272C320.444 379.745 295.305 386.911 268.5 386.999V405.999C298.766 405.911 327.148 397.82 351.643 383.73ZM395.918 312.486C383.031 334.569 364.59 353.014 342.509 365.904L333.01 349.445C352.208 338.222 368.246 322.18 379.464 302.979L395.918 312.486ZM341.644 366.405L332.145 349.947C313.386 360.719 291.663 366.911 268.5 366.999V385.999C295.123 385.911 320.091 378.794 341.644 366.405ZM378.598 302.478C367.468 321.528 351.557 337.444 332.51 348.579L323.011 332.12C339.175 322.653 352.682 309.14 362.143 292.971L378.598 302.478ZM331.645 349.081L322.146 332.622C306.328 341.692 288.02 346.911 268.5 346.999V365.999C291.481 365.911 313.033 359.767 331.645 349.081ZM361.277 292.471C351.904 308.488 338.523 321.874 322.511 331.254L313.011 314.795C326.141 307.083 337.118 296.099 344.823 282.964L361.277 292.471ZM321.646 331.756L312.146 315.297C299.271 322.666 284.378 326.911 268.5 326.999V345.999C287.838 345.911 305.976 340.741 321.646 331.756ZM343.957 282.464C336.34 295.447 325.49 306.304 312.511 313.929L303.012 297.47C313.108 291.513 321.555 283.059 327.503 272.957L343.957 282.464ZM311.646 314.431L302.147 297.972C292.213 303.64 280.735 306.911 268.5 306.998V325.999C284.195 325.911 298.918 321.715 311.646 314.431ZM326.636 272.456C320.777 282.407 312.456 290.735 302.512 296.604L293.012 280.144C300.074 275.944 305.991 270.018 310.182 262.949L326.636 272.456ZM301.647 297.106L292.147 280.647C285.156 284.614 277.093 286.912 268.5 286.997V305.998C280.553 305.911 291.86 302.689 301.647 297.106ZM309.316 262.449C305.213 269.366 299.423 275.165 292.512 279.278L269.532 239.462L309.316 262.449ZM291.647 279.78L268.5 239.675L268.5 285.997C276.911 285.912 284.803 283.663 291.647 279.78ZM267.5 190.003V235.942L244.519 196.125C251.325 192.301 259.158 190.088 267.5 190.003ZM266.799 236.729L243.653 196.624C236.669 200.743 230.819 206.579 226.684 213.551L266.799 236.729ZM267.5 189.003C258.975 189.088 250.972 191.35 244.019 195.259L234.519 178.8C244.268 173.275 255.515 170.088 267.5 170.002V189.003ZM243.153 195.758L233.653 179.299C223.636 185.173 215.256 193.538 209.364 203.544L225.818 213.051C230.041 205.927 236.017 199.964 243.153 195.758ZM267.5 169.002C255.333 169.088 243.915 172.324 234.019 177.934L224.52 161.474C237.21 154.249 251.873 150.088 267.5 150.001V169.002ZM233.153 178.433L223.654 161.974C210.602 169.604 199.692 180.498 192.043 193.536L208.497 203.043C214.478 192.886 222.984 184.395 233.153 178.433ZM267.5 149.001C251.691 149.088 236.857 153.297 224.02 160.608L214.52 144.149C230.152 135.222 248.23 130.088 267.5 130.001V149.001ZM223.154 161.108L213.654 144.649C197.569 154.034 184.128 167.457 174.723 183.529L191.177 193.036C198.914 179.846 209.951 168.825 223.154 161.108ZM267.5 129.001C248.048 129.088 229.8 134.271 214.02 143.283L204.521 126.824C223.095 116.196 244.588 110.089 267.5 110.001V129.001ZM213.154 143.783L203.655 127.324C184.535 138.464 168.564 154.417 157.402 173.522L173.857 183.029C183.35 166.805 196.917 153.255 213.154 143.783ZM267.5 109.001C244.406 109.089 222.742 115.245 204.021 125.958L194.522 109.499C216.037 97.17 240.945 90.0886 267.5 90.0008V109.001ZM203.155 126.458L193.656 110C171.502 122.895 153.001 141.376 140.082 163.514L156.536 173.021C167.786 153.765 183.884 137.686 203.155 126.458ZM267.5 89.0008C240.763 89.0886 215.684 96.2187 194.022 108.633L184.522 92.1745C208.98 78.1438 237.303 70.0887 267.5 70.0007V89.0008ZM193.156 109.133L183.656 92.6747C158.469 107.325 137.437 128.336 122.762 153.507L139.216 163.014C152.223 140.724 170.85 122.116 193.156 109.133ZM267.5 69.0007C237.12 69.0887 208.627 77.1925 184.022 91.3082L174.523 74.8496C201.922 59.1175 233.66 50.0887 267.5 50.0007V69.0007ZM183.157 91.8084L173.657 75.3498C145.435 91.755 121.873 115.295 105.441 143.5L121.896 153.007C136.659 127.684 157.817 106.546 183.157 91.8084ZM431.06 331.635C446.85 304.197 455.913 272.397 455.999 238.488L436.999 238.477C436.915 268.927 428.778 297.483 414.605 322.128L431.06 331.635ZM413.739 321.628C427.827 297.13 435.915 268.744 435.999 238.476L416.999 238.465C416.917 265.274 409.755 290.416 397.285 312.121L413.739 321.628ZM396.419 311.62C408.804 290.063 415.918 265.091 415.999 238.464L396.999 238.453C396.92 261.62 390.733 283.349 379.965 302.113L396.419 311.62ZM379.099 301.613C389.782 282.996 395.92 261.438 395.999 238.452L376.999 238.441C376.922 257.967 371.71 276.282 362.645 292.106L379.099 301.613ZM361.779 291.606C370.759 275.929 375.922 257.784 375.999 238.44L356.999 238.429C356.924 254.314 352.688 269.215 345.324 282.099L361.779 291.606ZM344.458 281.598C351.737 268.862 355.924 254.131 355.999 238.428L336.999 238.417C336.926 250.66 333.665 262.148 328.004 272.091L344.458 281.598ZM327.138 271.591C332.714 261.795 335.926 250.478 335.999 238.416L316.998 238.405C316.929 247.007 314.642 255.081 310.683 262.084L327.138 271.591ZM309.817 261.583C313.691 254.728 315.929 246.825 315.998 238.404L269.652 238.377L309.817 261.583ZM226.183 214.417L265.918 237.375L220.004 237.347C220.115 229.02 222.347 221.205 226.183 214.417ZM208.862 204.409L225.317 213.916C221.396 220.851 219.115 228.837 219.004 237.347L200.003 237.335C200.118 225.367 203.324 214.138 208.862 204.409ZM191.542 194.402L207.996 203.909C202.373 213.785 199.118 225.184 199.003 237.335L180.003 237.323C180.12 221.714 184.302 207.071 191.542 194.402ZM174.221 184.394L190.676 193.901C183.351 206.718 179.12 221.531 179.003 237.323L160.002 237.311C160.122 218.06 165.279 200.004 174.221 184.394ZM156.901 174.387L173.355 183.894C164.328 199.651 159.122 217.878 159.002 237.311L140.002 237.299C140.125 214.407 146.257 192.937 156.901 174.387ZM139.581 164.38L156.035 173.887C145.306 192.584 139.125 214.224 139.002 237.299L120.002 237.287C120.127 210.754 127.234 185.87 139.581 164.38ZM122.261 154.372L138.715 163.879C126.283 185.517 119.127 210.571 119.002 237.287L100.002 237.275C100.129 207.101 108.212 178.803 122.261 154.372ZM104.94 144.365L121.395 153.872C107.26 178.45 99.129 206.918 99.0015 237.275L80.0014 237.264C80.1311 203.447 89.189 171.736 104.94 144.365ZM104.92 331.599C89.1077 304.109 80.0468 272.242 80.0002 238.264L99.0002 238.275C99.0488 268.772 107.175 297.375 121.354 322.058L104.92 331.599ZM122.219 321.556C108.126 297.02 100.049 268.589 100 238.275L119 238.287C119.051 265.119 126.194 290.286 138.654 312.014L122.219 321.556ZM139.519 311.512C127.145 289.932 120.051 264.936 120 238.287L139 238.299C139.053 261.465 145.212 283.198 155.954 301.971L139.519 311.512ZM156.819 301.469C146.163 282.843 140.053 261.283 140 238.299L159 238.311C159.055 257.812 164.231 276.109 173.253 291.928L156.819 301.469ZM174.118 291.425C165.181 275.755 160.055 257.629 160 238.311L179.001 238.323C179.057 254.159 183.249 269.021 190.553 281.884L174.118 291.425ZM191.418 281.382C184.2 268.666 180.057 253.976 180.001 238.323L199.001 238.335C199.059 250.506 202.268 261.932 207.854 271.84L191.418 281.382ZM208.719 271.338C203.219 261.578 200.059 250.323 200.001 238.335L219.001 238.347C219.06 246.853 221.286 254.844 225.156 261.795L208.719 271.338ZM226.021 261.293C222.237 254.49 220.06 246.67 220.001 238.347L265.498 238.374L226.021 261.293ZM269.209 237.377L315.996 237.404C315.893 228.866 313.56 220.865 309.552 213.955L269.209 237.377ZM316.996 237.405L335.998 237.416C335.895 225.213 332.578 213.776 326.852 203.912L310.417 213.453C314.51 220.51 316.893 228.684 316.996 237.405ZM336.998 237.417L355.998 237.428C355.897 221.56 351.596 206.688 344.151 193.868L327.717 203.409C333.529 213.422 336.895 225.03 336.998 237.417ZM356.998 237.429L375.999 237.44C375.899 217.907 370.615 199.599 361.45 183.825L345.016 193.366C352.547 206.333 356.897 221.377 356.998 237.429ZM376.999 237.441L395.999 237.452C395.902 214.253 389.633 192.511 378.749 173.782L362.315 183.323C371.565 199.245 376.9 217.724 376.999 237.441ZM396.999 237.453L415.999 237.464C415.904 210.6 408.651 185.422 396.049 163.739L379.614 173.28C390.584 192.156 396.902 214.071 396.999 237.453ZM416.999 237.465L435.999 237.476C435.906 206.947 427.67 178.334 413.348 153.696L396.914 163.237C409.602 185.068 416.904 210.417 416.999 237.465ZM436.999 237.477L455.999 237.488C455.908 203.294 446.688 171.245 430.647 143.652L414.213 153.193C428.621 177.979 436.906 206.764 436.999 237.477ZM476 237.5L456.999 237.489C456.908 203.111 447.639 170.891 431.512 143.15L448.251 133.432C448.296 133.407 448.335 133.375 448.368 133.339C466.255 164.098 476.499 199.851 476.5 237.997C476.498 237.722 476.275 237.5 476 237.5ZM268 28.5C152.296 28.5 58.5 122.296 58.5 238C58.5 353.704 152.296 447.5 268 447.5C383.704 447.5 477.5 353.704 477.5 238C477.5 122.296 383.704 28.5 268 28.5Z" fill="#2F3139"/>
<circle cx="268" cy="29" r="3" fill="#FEE500"/>
<circle cx="268" cy="447" r="3" fill="#FEE500"/>
<circle cx="164" cy="57" r="3" fill="#FEE500"/>
<circle cx="164" cy="419" r="3" fill="#FEE500"/>
<circle cx="373" cy="57" r="3" fill="#FEE500"/>
<circle cx="373" cy="419" r="3" fill="#FEE500"/>
<circle cx="449" cy="133" r="3" fill="#FEE500"/>
<circle cx="477" cy="238" r="3" fill="#FEE500"/>
<circle cx="59" cy="238" r="3" fill="#FEE500"/>
<circle cx="449" cy="343" r="3" fill="#FEE500"/>
<circle cx="87" cy="133" r="3" fill="#FEE500"/>
<circle cx="87" cy="343" r="3" fill="#FEE500"/>
<path d="M29.6321 245H30.7381V240.59H36.3941V245H37.5001V235.2H36.3941V239.554H30.7381V235.2H29.6321V245ZM40.2688 245H41.3748V241.192H44.1748L47.0168 245H48.3748L45.3648 240.996C46.9048 240.716 48.0248 239.764 48.0248 238.14C48.0248 237.342 47.7448 236.656 47.2688 236.18C46.6528 235.564 45.6868 235.2 44.4828 235.2H40.2688V245ZM41.3748 240.198V236.222H44.3988C45.9808 236.222 46.9048 236.95 46.9048 238.154C46.9048 239.442 45.8548 240.198 44.3848 240.198H41.3748Z" fill="#2F3139"/>
<path d="M55.2586 361.168C57.0366 361.168 58.1566 360.538 59.1786 359.502L58.4506 358.732C57.5126 359.628 56.6306 360.146 55.2866 360.146C53.1306 360.146 51.4926 358.368 51.4926 356.1C51.4926 353.818 53.1166 352.054 55.2866 352.054C56.6166 352.054 57.5406 352.614 58.3666 353.398L59.0946 352.614C58.1146 351.69 57.0786 351.032 55.3006 351.032C52.4166 351.032 50.3446 353.328 50.3446 356.1C50.3446 358.942 52.4306 361.168 55.2586 361.168ZM61.1145 361H62.2205V357.192H65.0205L67.8625 361H69.2205L66.2105 356.996C67.7505 356.716 68.8705 355.764 68.8705 354.14C68.8705 353.342 68.5905 352.656 68.1145 352.18C67.4985 351.564 66.5325 351.2 65.3285 351.2H61.1145V361ZM62.2205 356.198V352.222H65.2445C66.8265 352.222 67.7505 352.95 67.7505 354.154C67.7505 355.442 66.7005 356.198 65.2305 356.198H62.2205ZM71.2317 361H72.3097V353.076L75.8797 358.312H75.9357L79.5057 353.062V361H80.6117V351.2H79.4917L75.9217 356.548L72.3517 351.2H71.2317V361Z" fill="#2F3139"/>
<path d="M20.5676 440H21.6736V431.208H27.1896V440H28.2956V430.2H20.5676V440ZM30.8856 442.24H31.9636V438.614C32.5236 439.426 33.3916 440.154 34.7356 440.154C36.4856 440.154 38.1936 438.754 38.1936 436.388C38.1936 433.98 36.4716 432.608 34.7356 432.608C33.4056 432.608 32.5516 433.35 31.9636 434.218V432.762H30.8856V442.24ZM34.5396 439.188C33.1956 439.188 31.9216 438.068 31.9216 436.388C31.9216 434.708 33.1956 433.574 34.5396 433.574C35.9116 433.574 37.0876 434.666 37.0876 436.374C37.0876 438.152 35.9396 439.188 34.5396 439.188ZM43.4865 440.168C45.6705 440.168 47.2805 438.432 47.2805 436.388C47.2805 434.316 45.6845 432.608 43.5145 432.608C41.3305 432.608 39.7345 434.344 39.7345 436.388C39.7345 438.46 41.3165 440.168 43.4865 440.168ZM43.5145 439.202C41.9885 439.202 40.8405 437.942 40.8405 436.388C40.8405 434.834 41.9185 433.56 43.4865 433.56C45.0125 433.56 46.1745 434.834 46.1745 436.388C46.1745 437.942 45.0825 439.202 43.5145 439.202ZM49.2333 440H50.3113V433.714H54.1473V432.762H49.2333V440ZM55.7138 442.24H56.7918V438.614C57.3518 439.426 58.2198 440.154 59.5638 440.154C61.3138 440.154 63.0218 438.754 63.0218 436.388C63.0218 433.98 61.2998 432.608 59.5638 432.608C58.2338 432.608 57.3798 433.35 56.7918 434.218V432.762H55.7138V442.24ZM59.3678 439.188C58.0238 439.188 56.7498 438.068 56.7498 436.388C56.7498 434.708 58.0238 433.574 59.3678 433.574C60.7398 433.574 61.9158 434.666 61.9158 436.374C61.9158 438.152 60.7678 439.188 59.3678 439.188ZM67.1666 440.154C68.4406 440.154 69.2666 439.566 69.7706 438.922V440H70.8346V435.576C70.8346 434.652 70.5826 433.952 70.0786 433.448C69.5606 432.93 68.7626 432.65 67.7406 432.65C66.6766 432.65 65.9066 432.902 65.1086 433.266L65.4306 434.148C66.1026 433.84 66.7746 433.63 67.6286 433.63C68.9866 433.63 69.7706 434.302 69.7706 435.59V435.814C69.1266 435.632 68.4826 435.506 67.5586 435.506C65.7246 435.506 64.4646 436.318 64.4646 437.872C64.4646 439.384 65.8086 440.154 67.1666 440.154ZM67.3766 439.286C66.3966 439.286 65.5566 438.754 65.5566 437.844C65.5566 436.948 66.3266 436.36 67.6706 436.36C68.5526 436.36 69.2526 436.514 69.7846 436.668V437.34C69.7846 438.488 68.7066 439.286 67.3766 439.286ZM73.1181 440H74.1681V434.484L76.8141 438.152L79.4881 434.484V440H80.5801V432.762H79.5441L76.8421 436.57L74.1401 432.762H73.1181V440ZM82.9892 440H84.0392V434.484L86.6852 438.152L89.3592 434.484V440H90.4512V432.762H89.4152L86.7132 436.57L84.0112 432.762H82.9892V440ZM92.8603 440H93.8963L98.2083 434.274V440H99.2863V432.762H98.2363L93.9383 438.488V432.762H92.8603V440ZM101.692 442.24H102.77V438.614C103.33 439.426 104.198 440.154 105.542 440.154C107.292 440.154 109 438.754 109 436.388C109 433.98 107.278 432.608 105.542 432.608C104.212 432.608 103.358 433.35 102.77 434.218V432.762H101.692V442.24ZM105.346 439.188C104.002 439.188 102.728 438.068 102.728 436.388C102.728 434.708 104.002 433.574 105.346 433.574C106.718 433.574 107.894 434.666 107.894 436.374C107.894 438.152 106.746 439.188 105.346 439.188ZM114.293 440.168C116.477 440.168 118.087 438.432 118.087 436.388C118.087 434.316 116.491 432.608 114.321 432.608C112.137 432.608 110.541 434.344 110.541 436.388C110.541 438.46 112.123 440.168 114.293 440.168ZM114.321 439.202C112.795 439.202 111.647 437.942 111.647 436.388C111.647 434.834 112.725 433.56 114.293 433.56C115.819 433.56 116.981 434.834 116.981 436.388C116.981 437.942 115.889 439.202 114.321 439.202ZM120.04 440H123.666C125.262 440 126.298 439.244 126.298 438.026C126.298 437.004 125.57 436.472 124.702 436.234C125.304 435.982 125.906 435.52 125.906 434.568C125.906 433.476 124.982 432.762 123.54 432.762H120.04V440ZM121.118 439.076V436.738H123.386C124.562 436.738 125.192 437.158 125.192 437.858C125.192 438.614 124.562 439.076 123.526 439.076H121.118ZM121.118 435.87V433.686H123.372C124.31 433.686 124.814 434.106 124.814 434.708C124.814 435.464 124.212 435.87 123.344 435.87H121.118ZM130.399 440.154C131.673 440.154 132.499 439.566 133.003 438.922V440H134.067V435.576C134.067 434.652 133.815 433.952 133.311 433.448C132.793 432.93 131.995 432.65 130.973 432.65C129.909 432.65 129.139 432.902 128.341 433.266L128.663 434.148C129.335 433.84 130.007 433.63 130.861 433.63C132.219 433.63 133.003 434.302 133.003 435.59V435.814C132.359 435.632 131.715 435.506 130.791 435.506C128.957 435.506 127.697 436.318 127.697 437.872C127.697 439.384 129.041 440.154 130.399 440.154ZM130.609 439.286C129.629 439.286 128.789 438.754 128.789 437.844C128.789 436.948 129.559 436.36 130.903 436.36C131.785 436.36 132.485 436.514 133.017 436.668V437.34C133.017 438.488 131.939 439.286 130.609 439.286ZM136.35 440H137.428V436.836H141.6V440H142.678V432.762H141.6V435.884H137.428V432.762H136.35V440ZM145.087 440H146.123L150.435 434.274V440H151.513V432.762H150.463L146.165 438.488V432.762H145.087V440ZM157.083 440.168C158.455 440.168 159.337 439.622 160.065 438.81L159.393 438.208C158.805 438.824 158.105 439.23 157.111 439.23C155.837 439.23 154.717 438.348 154.563 436.822H160.303C160.317 436.654 160.317 436.542 160.317 436.444C160.317 434.316 159.085 432.608 156.943 432.608C154.941 432.608 153.471 434.288 153.471 436.388C153.471 438.642 155.095 440.168 157.083 440.168ZM154.563 435.954C154.717 434.554 155.669 433.518 156.915 433.518C158.343 433.518 159.099 434.638 159.225 435.954H154.563Z" fill="#2F3139"/>
<path d="M196.155 465H197.261V462.368L199.347 460.254L203.113 465H204.499L200.117 459.484L204.317 455.2H202.889L197.261 461.052V455.2H196.155V465ZM209.339 465.168C211.523 465.168 213.133 463.432 213.133 461.388C213.133 459.316 211.537 457.608 209.367 457.608C207.183 457.608 205.587 459.344 205.587 461.388C205.587 463.46 207.169 465.168 209.339 465.168ZM209.367 464.202C207.841 464.202 206.693 462.942 206.693 461.388C206.693 459.834 207.771 458.56 209.339 458.56C210.865 458.56 212.027 459.834 212.027 461.388C212.027 462.942 210.935 464.202 209.367 464.202ZM215.086 465H216.164V461.836H220.336V465H221.414V457.762H220.336V460.884H216.164V457.762H215.086V465ZM225.572 465H226.664V458.714H229.254V457.762H222.982V458.714H225.572V465ZM233.986 465.168C235.358 465.168 236.24 464.622 236.968 463.81L236.296 463.208C235.708 463.824 235.008 464.23 234.014 464.23C232.74 464.23 231.62 463.348 231.466 461.822H237.206C237.22 461.654 237.22 461.542 237.22 461.444C237.22 459.316 235.988 457.608 233.846 457.608C231.844 457.608 230.374 459.288 230.374 461.388C230.374 463.642 231.998 465.168 233.986 465.168ZM231.466 460.954C231.62 459.554 232.572 458.518 233.818 458.518C235.246 458.518 236.002 459.638 236.128 460.954H231.466ZM239.107 465H240.185V463.25L241.711 461.682L244.287 465H245.561L242.453 460.898L245.477 457.762H244.147L240.185 461.934V457.762H239.107V465ZM250.313 465.168C251.671 465.168 252.539 464.58 253.267 463.768L252.553 463.11C251.979 463.726 251.293 464.202 250.369 464.202C248.857 464.202 247.709 462.956 247.709 461.388C247.709 459.806 248.829 458.56 250.299 458.56C251.279 458.56 251.951 459.022 252.525 459.624L253.211 458.896C252.539 458.182 251.685 457.608 250.313 457.608C248.199 457.608 246.603 459.344 246.603 461.388C246.603 463.446 248.199 465.168 250.313 465.168ZM256.799 465H257.891V458.714H260.481V457.762H254.209V458.714H256.799V465ZM262.049 465H263.127V461.836H267.299V465H268.377V457.762H267.299V460.884H263.127V457.762H262.049V465ZM272.941 465.154C274.215 465.154 275.041 464.566 275.545 463.922V465H276.609V460.576C276.609 459.652 276.357 458.952 275.853 458.448C275.335 457.93 274.537 457.65 273.515 457.65C272.451 457.65 271.681 457.902 270.883 458.266L271.205 459.148C271.877 458.84 272.549 458.63 273.403 458.63C274.761 458.63 275.545 459.302 275.545 460.59V460.814C274.901 460.632 274.257 460.506 273.333 460.506C271.499 460.506 270.239 461.318 270.239 462.872C270.239 464.384 271.583 465.154 272.941 465.154ZM273.151 464.286C272.171 464.286 271.331 463.754 271.331 462.844C271.331 461.948 272.101 461.36 273.445 461.36C274.327 461.36 275.027 461.514 275.559 461.668V462.34C275.559 463.488 274.481 464.286 273.151 464.286ZM278.248 465H279.578C280.25 464.132 280.908 463.25 281.58 462.368H283.582V465H284.66V457.762H281.258C279.536 457.762 278.528 458.686 278.528 460.016C278.528 461.192 279.382 461.948 280.46 462.2L278.248 465ZM281.342 461.458C280.334 461.458 279.606 460.94 279.606 460.058C279.606 459.232 280.236 458.714 281.314 458.714H283.582V461.458H281.342ZM291.266 467.24H292.344V463.614C292.904 464.426 293.772 465.154 295.116 465.154C296.866 465.154 298.574 463.754 298.574 461.388C298.574 458.98 296.852 457.608 295.116 457.608C293.786 457.608 292.932 458.35 292.344 459.218V457.762H291.266V467.24ZM294.92 464.188C293.576 464.188 292.302 463.068 292.302 461.388C292.302 459.708 293.576 458.574 294.92 458.574C296.292 458.574 297.468 459.666 297.468 461.374C297.468 463.152 296.32 464.188 294.92 464.188ZM303.726 465.168C305.098 465.168 305.98 464.622 306.708 463.81L306.036 463.208C305.448 463.824 304.748 464.23 303.754 464.23C302.48 464.23 301.36 463.348 301.206 461.822H306.946C306.96 461.654 306.96 461.542 306.96 461.444C306.96 459.316 305.728 457.608 303.586 457.608C301.584 457.608 300.114 459.288 300.114 461.388C300.114 463.642 301.738 465.168 303.726 465.168ZM301.206 460.954C301.36 459.554 302.312 458.518 303.558 458.518C304.986 458.518 305.742 459.638 305.868 460.954H301.206ZM308.848 465H309.926V463.25L311.452 461.682L314.028 465H315.302L312.194 460.898L315.218 457.762H313.888L309.926 461.934V457.762H308.848V465ZM316.441 465.112C317.813 465.112 318.835 464.524 318.835 458.882V458.714H321.859V465H322.937V457.762H317.813V458.364C317.813 463.796 317.085 464.174 316.217 464.174C316.091 464.174 315.839 464.118 315.699 464.076L315.573 465C315.797 465.056 316.203 465.112 316.441 465.112ZM327.506 465.154C328.78 465.154 329.606 464.566 330.11 463.922V465H331.174V460.576C331.174 459.652 330.922 458.952 330.418 458.448C329.9 457.93 329.102 457.65 328.08 457.65C327.016 457.65 326.246 457.902 325.448 458.266L325.77 459.148C326.442 458.84 327.114 458.63 327.968 458.63C329.326 458.63 330.11 459.302 330.11 460.59V460.814C329.466 460.632 328.822 460.506 327.898 460.506C326.064 460.506 324.804 461.318 324.804 462.872C324.804 464.384 326.148 465.154 327.506 465.154ZM327.716 464.286C326.736 464.286 325.896 463.754 325.896 462.844C325.896 461.948 326.666 461.36 328.01 461.36C328.892 461.36 329.592 461.514 330.124 461.668V462.34C330.124 463.488 329.046 464.286 327.716 464.286ZM333.457 465H334.507V459.484L337.153 463.152L339.827 459.484V465H340.919V457.762H339.883L337.181 461.57L334.479 457.762H333.457V465ZM345.484 465.154C346.758 465.154 347.584 464.566 348.088 463.922V465H349.152V460.576C349.152 459.652 348.9 458.952 348.396 458.448C347.878 457.93 347.08 457.65 346.058 457.65C344.994 457.65 344.224 457.902 343.426 458.266L343.748 459.148C344.42 458.84 345.092 458.63 345.946 458.63C347.304 458.63 348.088 459.302 348.088 460.59V460.814C347.444 460.632 346.8 460.506 345.876 460.506C344.042 460.506 342.782 461.318 342.782 462.872C342.782 464.384 344.126 465.154 345.484 465.154ZM345.694 464.286C344.714 464.286 343.874 463.754 343.874 462.844C343.874 461.948 344.644 461.36 345.988 461.36C346.87 461.36 347.57 461.514 348.102 461.668V462.34C348.102 463.488 347.024 464.286 345.694 464.286Z" fill="#2F3139"/>
<path d="M352.694 91.6931L352.671 91.6782L352.646 91.6659L268.678 49.6576C268.256 49.4464 267.759 49.4463 267.337 49.6572L183.901 91.3355C183.651 91.4602 183.441 91.6521 183.295 91.8895L139.057 163.565L79.615 237.028L79.615 237.028C79.3136 237.401 79.2083 237.895 79.3315 238.358L104.187 331.746C104.31 332.209 104.647 332.585 105.094 332.758L193.533 367.087L267.452 406.857C267.789 407.038 268.182 407.084 268.551 406.985L352.304 384.541C352.559 384.473 352.791 384.338 352.978 384.151L413.563 323.342C414.071 322.832 414.145 322.032 413.738 321.437L356.742 238.075C356.619 237.894 356.627 237.654 356.763 237.482L430.804 144.118C431.355 143.424 431.187 142.406 430.443 141.926L352.694 91.6931Z" fill="#FEE600" fill-opacity="0.8" stroke="#FEE500"/>
</svg>
