<svg width="28" height="28" viewBox="0 0 28 28" fill="none" xmlns="http://www.w3.org/2000/svg">
<path d="M0 4C0 1.79086 1.79086 0 4 0H24C26.2091 0 28 1.79086 28 4V24C28 26.2091 26.2091 28 24 28H4C1.79086 28 0 26.2091 0 24V4Z" fill="url(#paint0_linear)"/>
<path fill-rule="evenodd" clip-rule="evenodd" d="M22.9543 10.2931C22.9121 9.33648 22.7574 8.67883 22.5358 8.10897C22.3072 7.50407 21.9555 6.96251 21.4947 6.51231C21.0445 6.0551 20.4994 5.69983 19.9015 5.47479C19.3283 5.2532 18.6741 5.0985 17.7175 5.05633C16.7538 5.01058 16.4478 5 14.0035 5C11.5592 5 11.2533 5.01058 10.2931 5.05275C9.33651 5.09493 8.67886 5.24976 8.10913 5.47122C7.5041 5.69983 6.96254 6.05153 6.51234 6.51231C6.05513 6.96251 5.69999 7.50764 5.47482 8.10553C5.25323 8.67883 5.09853 9.33291 5.05636 10.2895C5.01061 11.2532 5.00003 11.5592 5.00003 14.0035C5.00003 16.4478 5.01061 16.7538 5.05279 17.7139C5.09496 18.6705 5.24979 19.3282 5.47139 19.898C5.69999 20.5029 6.05513 21.0445 6.51234 21.4947C6.96254 21.9519 7.50767 22.3072 8.10556 22.5322C8.67886 22.7538 9.33294 22.9085 10.2897 22.9507C11.2497 22.993 11.5558 23.0034 14.0001 23.0034C16.4444 23.0034 16.7504 22.993 17.7105 22.9507C18.6671 22.9085 19.3248 22.7538 19.8945 22.5322C21.1044 22.0644 22.061 21.1078 22.5288 19.898C22.7503 19.3247 22.9051 18.6705 22.9473 17.7139C22.9895 16.7538 23 16.4478 23 14.0035C23 11.5592 22.9965 11.2532 22.9543 10.2931ZM21.333 17.6436C21.2943 18.5228 21.1466 18.9976 21.0235 19.3142C20.721 20.0985 20.0985 20.721 19.3142 21.0235C18.9977 21.1466 18.5194 21.2943 17.6436 21.3329C16.694 21.3752 16.4092 21.3856 14.0071 21.3856C11.605 21.3856 11.3166 21.3752 10.3705 21.3329C9.4912 21.2943 9.01641 21.1466 8.69988 21.0235C8.30958 20.8792 7.9543 20.6506 7.66594 20.3517C7.36699 20.0597 7.13839 19.708 6.99414 19.3177C6.87104 19.0012 6.72336 18.5228 6.68475 17.6472C6.64244 16.6976 6.632 16.4126 6.632 14.0105C6.632 11.6084 6.64244 11.32 6.68475 10.374C6.72336 9.49475 6.87104 9.01995 6.99414 8.70342C7.13839 8.31298 7.36699 7.95785 7.66951 7.66934C7.96131 7.3704 8.31301 7.14179 8.70345 6.99768C9.01998 6.87459 9.49835 6.7269 10.374 6.68816C11.3236 6.64598 11.6085 6.6354 14.0105 6.6354C16.4162 6.6354 16.701 6.64598 17.6472 6.68816C18.5264 6.7269 19.0012 6.87459 19.3178 6.99768C19.7081 7.14179 20.0633 7.3704 20.3517 7.66934C20.6507 7.96128 20.8793 8.31298 21.0235 8.70342C21.1466 9.01995 21.2943 9.49818 21.333 10.374C21.3752 11.3236 21.3858 11.6084 21.3858 14.0105C21.3858 16.4126 21.3752 16.694 21.333 17.6436ZM14.0032 9.3788C11.45 9.3788 9.37838 11.4503 9.37838 14.0036C9.37838 16.557 11.45 18.6285 14.0032 18.6285C16.5566 18.6285 18.6281 16.557 18.6281 14.0036C18.6281 11.4503 16.5566 9.3788 14.0032 9.3788ZM14.0032 17.0037C12.3468 17.0037 11.0032 15.6602 11.0032 14.0036C11.0032 12.3471 12.3468 11.0036 14.0032 11.0036C15.6598 11.0036 17.0033 12.3471 17.0033 14.0036C17.0033 15.6602 15.6598 17.0037 14.0032 17.0037ZM18.8109 10.2757C19.4073 10.2757 19.8907 9.79227 19.8907 9.19603C19.8907 8.59965 19.4073 8.11634 18.8109 8.11634C18.2146 8.11634 17.7312 8.59965 17.7312 9.19603C17.7312 9.79227 18.2146 10.2757 18.8109 10.2757Z" fill="white"/>
<defs>
<linearGradient id="paint0_linear" x1="16" y1="1" x2="7" y2="28" gradientUnits="userSpaceOnUse">
<stop stop-color="#9532BE"/>
<stop offset="0.262847" stop-color="#D13F83"/>
<stop offset="0.579399" stop-color="#F4533C"/>
<stop offset="1" stop-color="#F7C84E"/>
</linearGradient>
</defs>
</svg>
