<svg width="28" height="28" viewBox="0 0 28 28" fill="none" xmlns="http://www.w3.org/2000/svg">
<path d="M0 4C0 1.79086 1.79086 0 4 0H24C26.2091 0 28 1.79086 28 4V24C28 26.2091 26.2091 28 24 28H4C1.79086 28 0 26.2091 0 24V4Z" fill="#ECA00C"/>
<path d="M22.5858 8.84059L17.511 13.8827L22.5858 18.9249C22.6775 18.7331 22.7332 18.5212 22.7332 18.2948V9.47067C22.7332 9.24428 22.6775 9.03234 22.5858 8.84059Z" fill="white"/>
<path d="M21.2625 8H7.47068C7.24429 8 7.03235 8.05566 6.84061 8.1474L13.3268 14.6009C13.9003 15.1744 14.8329 15.1744 15.4064 14.6009L21.8926 8.1474C21.7008 8.05566 21.4889 8 21.2625 8Z" fill="white"/>
<path d="M6.1474 8.84059C6.05566 9.03234 6 9.24428 6 9.47067V18.2948C6 18.5212 6.05566 18.7332 6.1474 18.9249L11.2222 13.8827L6.1474 8.84059Z" fill="white"/>
<path d="M16.8177 14.5761L16.0996 15.2942C15.144 16.2498 13.5891 16.2498 12.6335 15.2942L11.9154 14.5761L6.84061 19.6182C7.03235 19.71 7.24429 19.7656 7.47068 19.7656H21.2625C21.4889 19.7656 21.7008 19.71 21.8926 19.6182L16.8177 14.5761Z" fill="white"/>
</svg>
