<svg width="28" height="28" viewBox="0 0 28 28" fill="none" xmlns="http://www.w3.org/2000/svg">
<path d="M0 4C0 1.79086 1.79086 0 4 0H24C26.2091 0 28 1.79086 28 4V24C28 26.2091 26.2091 28 24 28H4C1.79086 28 0 26.2091 0 24V4Z" fill="#EE8208"/>
<path d="M13.0163 17.6785C11.4671 17.533 10.0702 17.1893 8.87425 16.3468C8.72586 16.242 8.57265 16.141 8.43723 16.0239C7.91378 15.5711 7.86103 15.0525 8.27524 14.518C8.62958 14.0607 9.22441 13.9383 9.84268 14.2009C9.9624 14.2518 10.0765 14.3154 10.1857 14.3836C12.4146 15.763 15.4764 15.8011 17.7136 14.4456C17.9353 14.2926 18.1722 14.1678 18.4468 14.104C18.9807 13.9806 19.4786 14.1572 19.7652 14.578C20.0925 15.0585 20.0883 15.5275 19.685 15.9006C19.0663 16.4726 18.3223 16.8863 17.4955 17.1752C16.7138 17.4481 15.8575 17.5856 15.0101 17.6768C15.138 17.8022 15.1982 17.8638 15.2782 17.9362C16.4289 18.9776 17.5847 20.0146 18.7316 21.0592C19.1224 21.4151 19.204 21.8564 18.9889 22.2704C18.7536 22.7228 18.227 23.0205 17.7107 22.9886C17.3835 22.9683 17.1284 22.8216 16.9017 22.6159C16.0334 21.8289 15.1486 21.0563 14.2978 20.2544C14.0502 20.0212 13.9311 20.0653 13.7126 20.2678C12.839 21.0778 11.9512 21.8754 11.0581 22.6685C10.6571 23.0246 10.1799 23.0887 9.7148 22.8853C9.22043 22.6695 8.90586 22.2149 8.93013 21.7582C8.94688 21.4492 9.11557 21.2132 9.35104 21.0015C10.4898 19.9773 11.6255 18.9504 12.7616 17.9245C12.8367 17.8563 12.9068 17.7839 13.0163 17.6785Z" fill="white"/>
<path d="M13.96 14.1108C11.1962 14.1023 8.92993 12.0386 8.94604 9.54533C8.96195 7.02449 11.2297 4.99304 14.0207 5.00002C16.8174 5.0068 19.0621 7.06748 19.0481 9.61452C19.0339 12.1027 16.7519 14.1195 13.96 14.1108ZM16.4718 9.55137C16.467 8.31338 15.3724 7.32782 14.0006 7.32669C12.6174 7.32537 11.5129 8.32884 11.5236 9.57814C11.5338 10.8114 12.6379 11.79 14.0134 11.7855C15.3847 11.7811 16.4764 10.7892 16.4718 9.55137Z" fill="white"/>
</svg>
