<svg width="28" height="28" viewBox="0 0 28 28" fill="none" xmlns="http://www.w3.org/2000/svg">
<path d="M0 4C0 1.79086 1.79086 0 4 0H24C26.2091 0 28 1.79086 28 4V24C28 26.2091 26.2091 28 24 28H4C1.79086 28 0 26.2091 0 24V4Z" fill="#FFED00"/>
<path fill-rule="evenodd" clip-rule="evenodd" d="M13.9997 15.9327L8.03464 21.9997L5.6678 19.5954L11.6337 13.5259L10.3892 12.259V9.75779L9.52494 8.87766V11.059L8.77233 11.8246L5.74813 8.74702L5 9.50775C5.00538 8.93356 5.11797 7.27295 6.50284 5.88819C7.99731 4.42567 9.61125 5.08462 10.1632 5.64667L13.1862 8.72271L12.415 9.50623L14 11.1191L15.5847 9.50593L14.8138 8.72271L17.8362 5.64636C18.3882 5.08432 20.0021 4.42506 21.4966 5.88789C22.8817 7.27264 22.9943 8.93356 23 9.50745L22.2516 8.74702L19.2268 11.8246L18.4748 11.059V8.87766L17.6099 9.75779V12.259L16.3654 13.5259L22.3316 19.5954L19.9651 22L13.9997 15.9327Z" fill="black"/>
</svg>
