<svg width="28" height="28" viewBox="0 0 28 28" fill="none" xmlns="http://www.w3.org/2000/svg">
<path d="M0 4C0 1.79086 1.79086 0 4 0H24C26.2091 0 28 1.79086 28 4V24C28 26.2091 26.2091 28 24 28H4C1.79086 28 0 26.2091 0 24V4Z" fill="#00AFF0"/>
<path d="M23.4255 16.3354C23.5693 15.6185 23.6455 14.8775 23.6455 14.1151C23.6455 8.40222 19.3752 3.76987 14.1062 3.76987C13.5505 3.76987 13.0055 3.82212 12.4754 3.92111C11.623 3.3382 10.6141 3 9.53283 3C6.47641 3 4 5.68631 4 9.00091C4 10.1076 4.27813 11.1442 4.76004 12.0358C4.63316 12.7073 4.56691 13.403 4.56691 14.1151C4.56691 19.8301 8.8372 24.2899 14.1056 24.2899C14.7025 24.2899 15.2863 24.2301 15.852 24.1167C16.6314 24.5704 17.5215 25 18.4678 25C21.5236 25 24 22.3144 24 18.9998C24 18.0436 23.7931 17.1383 23.4255 16.3354Z" fill="white"/>
<path d="M18.4123 17.8599C18.0201 18.3719 17.4461 18.7745 16.6904 19.0638C15.9346 19.3556 15.0398 19.5 14.0044 19.5C12.7627 19.5 11.7386 19.3018 10.9309 18.9048C10.3596 18.6197 9.8942 18.238 9.53597 17.762C9.17905 17.286 9 16.8224 9 16.3715C9 16.1109 9.10722 15.887 9.32159 15.7016C9.53597 15.5137 9.80965 15.4214 10.1406 15.4214C10.4096 15.4214 10.638 15.493 10.8231 15.6392C11.0095 15.7842 11.1687 15.9989 11.2991 16.2846C11.4596 16.6241 11.6321 16.9074 11.8192 17.1343C12.0043 17.3612 12.2666 17.5496 12.6035 17.6971C12.9418 17.8433 13.3859 17.9179 13.9345 17.9179C14.6896 17.9179 15.3035 17.7698 15.7762 17.4719C16.2476 17.1752 16.4847 16.8027 16.4847 16.3579C16.4847 16.0055 16.3568 15.7173 16.1024 15.499C15.8474 15.2787 15.5185 15.1105 15.115 14.9949C14.7121 14.878 14.1728 14.7545 13.4963 14.6242C12.5928 14.4462 11.8357 14.2357 11.2272 13.9971C10.6179 13.7567 10.1332 13.4307 9.7763 13.0177C9.41807 12.603 9.2396 12.0891 9.2396 11.4755C9.2396 10.8895 9.42801 10.3701 9.80622 9.9156C10.1838 9.46046 10.7291 9.11117 11.4455 8.86643C12.1606 8.62176 13.0023 8.5 13.9684 8.5C14.7407 8.5 15.4092 8.58138 15.9732 8.74225C16.5372 8.905 17.0039 9.12031 17.3754 9.3889C17.7476 9.65749 18.0199 9.93885 18.1911 10.2343C18.3629 10.528 18.4487 10.8179 18.4487 11.0969C18.4487 11.3532 18.3422 11.5857 18.1278 11.7906C17.9134 11.9962 17.6457 12.0995 17.3255 12.0995C17.0331 12.0995 16.8114 12.0371 16.6596 11.9142C16.5078 11.7906 16.3434 11.5888 16.1669 11.3079C15.9371 10.9066 15.6635 10.5934 15.3426 10.3689C15.0216 10.1438 14.5076 10.0312 13.7978 10.0312C13.1406 10.0312 12.6093 10.1524 12.2058 10.3977C11.8023 10.6411 11.5999 10.936 11.5999 11.2792C11.5999 11.4909 11.6698 11.6756 11.8063 11.8303C11.9428 11.9863 12.1319 12.1179 12.3736 12.2286C12.6126 12.34 12.8563 12.4269 13.102 12.491C13.3476 12.5541 13.7545 12.6452 14.3218 12.7663C15.0302 12.9065 15.6727 13.0618 16.2481 13.2307C16.8227 13.4002 17.3127 13.6063 17.7163 13.8467C18.1191 14.0889 18.4347 14.396 18.6604 14.7668C18.8861 15.1363 19 15.5895 19 16.1267C19.0002 16.7691 18.8032 17.3472 18.4123 17.8599Z" fill="#00AFF0"/>
</svg>
