<svg width="28" height="28" viewBox="0 0 28 28" fill="none" xmlns="http://www.w3.org/2000/svg">
<path d="M0 4C0 1.79086 1.79086 0 4 0H24C26.2091 0 28 1.79086 28 4V24C28 26.2091 26.2091 28 24 28H4C1.79086 28 0 26.2091 0 24V4Z" fill="#41B4E6"/>
<path d="M12.1131 16.3243L11.823 20.4043C12.238 20.4043 12.4178 20.226 12.6333 20.0119L14.579 18.1524L18.6107 21.1049C19.3501 21.517 19.8711 21.3 20.0705 20.4247L22.7169 8.02419L22.7177 8.02346C22.9522 6.93042 22.3224 6.50299 21.602 6.77113L6.04652 12.7266C4.98489 13.1387 5.00097 13.7305 5.86605 13.9987L9.84296 15.2357L19.0805 9.45553C19.5153 9.16765 19.9105 9.32693 19.5854 9.61481L12.1131 16.3243Z" fill="white"/>
</svg>
