<svg width="28" height="28" viewBox="0 0 28 28" fill="none" xmlns="http://www.w3.org/2000/svg">
<path d="M0 4C0 1.79086 1.79086 0 4 0H24C26.2091 0 28 1.79086 28 4V24C28 26.2091 26.2091 28 24 28H4C1.79086 28 0 26.2091 0 24V4Z" fill="#2F3139"/>
<path d="M21.276 9.76966C20.3074 9.76966 19.4136 9.44875 18.6958 8.90738C17.8727 8.28678 17.2813 7.37643 17.0724 6.32718C17.0207 6.06793 16.9928 5.8004 16.9902 5.52623H14.223V13.0875L14.2197 17.2291C14.2197 18.3364 13.4986 19.2753 12.4991 19.6055C12.209 19.7013 11.8957 19.7467 11.5695 19.7288C11.1531 19.7059 10.7629 19.5803 10.4238 19.3774C9.70209 18.9458 9.21276 18.1627 9.1995 17.2669C9.17862 15.8669 10.3104 14.7255 11.7094 14.7255C11.9856 14.7255 12.2508 14.7706 12.4991 14.8525V12.7858V12.0429C12.2372 12.0041 11.9707 11.9839 11.7011 11.9839C10.1699 11.9839 8.7377 12.6204 7.71397 13.7671C6.94021 14.6337 6.47608 15.7393 6.40447 16.8986C6.31065 18.4216 6.86794 19.8694 7.94869 20.9375C8.10748 21.0943 8.27424 21.2399 8.44862 21.3741C9.37521 22.0872 10.508 22.4738 11.7011 22.4738C11.9707 22.4738 12.2372 22.4539 12.4991 22.4151C13.6137 22.25 14.642 21.7398 15.4536 20.9375C16.4508 19.9519 17.0018 18.6434 17.0078 17.2507L16.9935 11.0659C17.4692 11.4329 17.9894 11.7366 18.5477 11.9723C19.4159 12.3386 20.3365 12.5242 21.284 12.5239V10.5146V9.769C21.2847 9.76966 21.2767 9.76966 21.276 9.76966Z" fill="#01F6F7"/>
<path d="M22.5001 11.0315C21.5314 11.0315 20.6376 10.7106 19.9199 10.1692C19.0967 9.54864 18.5053 8.63829 18.2965 7.58903C18.2447 7.32979 18.2169 7.06225 18.2142 6.78809H15.4471V14.3494L15.4437 18.491C15.4437 19.5983 14.7227 20.5371 13.7232 20.8673C13.4331 20.9631 13.1198 21.0086 12.7936 20.9907C12.3772 20.9678 11.987 20.8421 11.6479 20.6392C10.9261 20.2076 10.4368 19.4246 10.4236 18.5288C10.4027 17.1288 11.5345 15.9874 12.9335 15.9874C13.2096 15.9874 13.4749 16.0325 13.7232 16.1144V14.0477V13.3047C13.4613 13.2659 13.1947 13.2457 12.9252 13.2457C11.3939 13.2457 9.96176 13.8822 8.93803 15.029C8.16427 15.8956 7.70014 17.0012 7.62853 18.1605C7.53471 19.6835 8.092 21.1312 9.17275 22.1994C9.33154 22.3562 9.4983 22.5017 9.67268 22.636C10.5993 23.3491 11.7321 23.7356 12.9252 23.7356C13.1947 23.7356 13.4613 23.7157 13.7232 23.6769C14.8377 23.5118 15.8661 23.0016 16.6777 22.1994C17.6749 21.2138 18.2258 19.9053 18.2318 18.5126L18.2176 12.3278C18.6933 12.6947 19.2134 12.9984 19.7717 13.2341C20.64 13.6005 21.5606 13.7861 22.5081 13.7858V11.7764V11.0309C22.5087 11.0315 22.5008 11.0315 22.5001 11.0315Z" fill="#E71C4F"/>
<path d="M21.8818 10.2434C20.9131 10.2434 20.0193 9.92252 19.3016 9.38115C18.4784 8.76055 17.887 7.8502 17.6781 6.80095C17.6264 6.5417 17.5985 6.27417 17.5959 6H14.8287V13.5613L14.8254 17.7029C14.8254 18.8102 14.1043 19.749 13.1048 20.0792C12.8147 20.175 12.5015 20.2205 12.1752 20.2026C11.7589 20.1797 11.3687 20.054 11.0295 19.8512C10.3078 19.4195 9.81848 18.6365 9.80522 17.7407C9.78433 16.3407 10.9161 15.1993 12.3151 15.1993C12.5913 15.1993 12.8565 15.2444 13.1048 15.3263V13.2596V12.5167C12.8429 12.4779 12.5764 12.4576 12.3069 12.4576C10.7756 12.4576 9.34341 13.0942 8.31968 14.2409C7.54592 15.1075 7.0818 16.2131 7.01019 17.3724C6.91637 18.8954 7.47365 20.3431 8.5544 21.4113C8.7132 21.5681 8.87995 21.7136 9.05433 21.8479C9.98092 22.561 11.1137 22.9475 12.3069 22.9475C12.5764 22.9475 12.8429 22.9276 13.1048 22.8889C14.2194 22.7238 15.2478 22.2136 16.0593 21.4113C17.0565 20.4257 17.6075 19.1172 17.6135 17.7245L17.5992 11.5397C18.0749 11.9067 18.5951 12.2103 19.1534 12.446C20.0216 12.8124 20.9422 12.998 21.8897 12.9977V10.9884V10.2428C21.8904 10.2434 21.8824 10.2434 21.8818 10.2434Z" fill="white"/>
</svg>
