<svg width="28" height="28" viewBox="0 0 28 28" fill="none" xmlns="http://www.w3.org/2000/svg">
<path d="M0 4C0 1.79086 1.79086 0 4 0H24C26.2091 0 28 1.79086 28 4V24C28 26.2091 26.2091 28 24 28H4C1.79086 28 0 26.2091 0 24V4Z" fill="#2787F5"/>
<path d="M20.8464 13.5293C21.1166 13.18 21.3311 12.8998 21.4895 12.6883C22.6304 11.1715 23.1249 10.2025 22.9733 9.7801L22.9139 9.68116C22.8744 9.62174 22.7719 9.56717 22.6072 9.51777C22.4423 9.46841 22.2313 9.46052 21.9742 9.49311L19.1252 9.5132C19.0592 9.50663 18.9933 9.50817 18.9273 9.51777C18.8613 9.5278 18.8185 9.53786 18.7986 9.54746C18.7787 9.55753 18.7624 9.5656 18.7493 9.57216L18.7098 9.60186C18.6768 9.62152 18.6405 9.65625 18.601 9.70586C18.5614 9.75544 18.5282 9.8129 18.502 9.87908C18.1921 10.677 17.8393 11.419 17.4436 12.1049C17.1995 12.5138 16.9752 12.8686 16.771 13.1682C16.5665 13.4686 16.395 13.6894 16.2565 13.831C16.1181 13.9727 15.9927 14.0867 15.8807 14.1722C15.7684 14.2582 15.6827 14.2943 15.6236 14.2812C15.5641 14.2681 15.508 14.255 15.4553 14.2414C15.363 14.1822 15.2887 14.1016 15.2328 13.9992C15.1767 13.8972 15.1389 13.7685 15.119 13.6134C15.0993 13.4586 15.0875 13.3249 15.0844 13.2126C15.0809 13.1006 15.0827 12.9424 15.0895 12.7377C15.096 12.5333 15.0993 12.395 15.0993 12.3223C15.0993 12.0719 15.1043 11.7998 15.1142 11.5062C15.124 11.2129 15.1323 10.9802 15.1389 10.8087C15.1454 10.6375 15.1487 10.456 15.1487 10.2646C15.1487 10.0737 15.1371 9.9234 15.1139 9.81444C15.0908 9.70586 15.056 9.60036 15.0102 9.49792C14.9639 9.39592 14.8963 9.31661 14.8072 9.26072C14.7181 9.20457 14.6078 9.16024 14.4759 9.12702C14.1262 9.04771 13.681 9.00534 13.1404 8.99838C11.9137 8.98571 11.1256 9.06477 10.7761 9.23602C10.6376 9.30876 10.5122 9.40748 10.4002 9.53287C10.2813 9.67813 10.265 9.7574 10.3508 9.77007C10.7466 9.8295 11.0267 9.97148 11.1916 10.1956L11.251 10.3142C11.2971 10.4002 11.3432 10.5519 11.3895 10.7694C11.4356 10.987 11.4653 11.2277 11.4786 11.4916C11.5116 11.973 11.5116 12.385 11.4786 12.7281C11.4456 13.0713 11.4144 13.3382 11.3847 13.5291C11.3549 13.7205 11.3104 13.8753 11.2512 13.9939C11.1918 14.113 11.1523 14.1855 11.1324 14.2119C11.1125 14.2381 11.0961 14.2547 11.083 14.2613C10.9972 14.2941 10.9083 14.3107 10.8159 14.3107C10.7235 14.3107 10.6114 14.2643 10.4795 14.1719C10.3476 14.08 10.2106 13.9529 10.069 13.7912C9.92707 13.6298 9.76738 13.4037 9.58914 13.1134C9.41111 12.8236 9.2263 12.4804 9.03517 12.0848L8.87702 11.7978C8.77808 11.6134 8.64284 11.3445 8.47138 10.9918C8.29992 10.639 8.14809 10.2978 8.01638 9.96777C7.96352 9.8295 7.88443 9.72399 7.77896 9.65126L7.7296 9.62156C7.69662 9.59533 7.64376 9.56717 7.57124 9.53765C7.4985 9.50795 7.42294 9.48654 7.34363 9.47322L4.6331 9.49289C4.35613 9.49289 4.16829 9.55582 4.06935 9.68116L4.0298 9.74038C4.00982 9.77357 4 9.82643 4 9.89874C4 9.97148 4.01988 10.0604 4.05943 10.1657C4.45521 11.0958 4.88555 11.9927 5.35036 12.8563C5.81542 13.7205 6.21931 14.4164 6.56223 14.9439C6.90516 15.4719 7.25465 15.9694 7.61093 16.4377C7.9672 16.9061 8.20287 17.2059 8.31819 17.3377C8.43351 17.4698 8.52417 17.5688 8.59016 17.6345L8.83744 17.8722C8.99558 18.0303 9.22822 18.2199 9.53492 18.441C9.84159 18.662 10.181 18.8796 10.5539 19.0937C10.9264 19.3082 11.3602 19.4827 11.8547 19.6181C12.3492 19.7535 12.8306 19.8079 13.2989 19.7813H14.4366C14.6675 19.7616 14.8421 19.6893 14.9608 19.5637L15.0003 19.5143C15.0265 19.475 15.0514 19.4139 15.0746 19.3315C15.0975 19.2491 15.1094 19.1583 15.1094 19.0595C15.1025 18.776 15.1242 18.52 15.1736 18.2929C15.2229 18.0652 15.279 17.894 15.3418 17.7783C15.4045 17.6631 15.4752 17.5657 15.5545 17.4864C15.6336 17.4071 15.6895 17.3597 15.7227 17.3431C15.7557 17.3269 15.7821 17.3154 15.8018 17.3084C15.9599 17.2557 16.1462 17.3068 16.3607 17.4617C16.575 17.617 16.7762 17.8079 16.9643 18.0355C17.1521 18.2631 17.378 18.5185 17.6419 18.8022C17.9055 19.0857 18.1364 19.2967 18.3343 19.4352L18.5322 19.5543C18.6641 19.6331 18.8354 19.7056 19.0466 19.7718C19.2576 19.8376 19.4424 19.8542 19.6005 19.8212L22.133 19.7814C22.3836 19.7814 22.5782 19.7404 22.7167 19.6578C22.8552 19.5759 22.9376 19.4846 22.964 19.3859C22.9902 19.2869 22.9919 19.1753 22.969 19.0497C22.9459 18.9245 22.9227 18.8372 22.8998 18.7878C22.8767 18.7384 22.8552 18.6969 22.8353 18.6642C22.5055 18.0707 21.8757 17.3417 20.9459 16.4779L20.926 16.4582L20.9162 16.4482L20.9064 16.4385H20.8964C20.4742 16.0362 20.2073 15.7657 20.0952 15.627C19.8908 15.3636 19.8445 15.0965 19.9567 14.8261C20.0354 14.621 20.332 14.189 20.8464 13.5293Z" fill="white"/>
</svg>
