<svg width="28" height="28" viewBox="0 0 28 28" fill="none" xmlns="http://www.w3.org/2000/svg">
<path d="M0 4C0 1.79086 1.79086 0 4 0H24C26.2091 0 28 1.79086 28 4V24C28 26.2091 26.2091 28 24 28H4C1.79086 28 0 26.2091 0 24V4Z" fill="#036CB5"/>
<path fill-rule="evenodd" clip-rule="evenodd" d="M15.5269 20.1338L17.387 18.4187L18.9961 20.2581C18.677 20.5054 18.3274 20.7405 17.9437 20.9573C16.7804 21.6212 15.4319 22 14.0006 22C9.59467 22 6 18.4065 6 14.0006C6 9.59345 9.59467 6 14.0006 6C15.2553 6 16.4466 6.29235 17.5076 6.81127C17.6745 6.89044 17.8389 6.97815 18.0034 7.07316L17.2676 7.73216L16.164 6.58835L14.2966 8.25474L13.1906 7.04393L9.70795 10.1794L11.9396 12.6388L11.0613 13.4086L13.26 15.8704L12.3866 16.6391L15.5269 20.1338ZM17.8187 8.65853L18.7687 7.80222L19.625 8.75228L18.675 9.60859L17.8187 8.65853ZM16.098 8.03803L14.6703 9.32316L15.9555 10.7508L17.3831 9.4657L16.098 8.03803ZM20.2561 14.3195L21.2062 13.4632L22.0625 14.4133L21.1124 15.2696L20.2561 14.3195ZM18.6337 13.9168L17.2074 15.2054L18.4952 16.6308L19.9215 15.3422L18.6337 13.9168ZM15.7914 15.0762L13.8894 16.7884L15.6023 18.6913L17.5044 16.9792L15.7914 15.0762ZM19.0417 11.4808L19.9898 10.6241L20.8473 11.5732L19.8992 12.4298L19.0417 11.4808ZM14.4414 11.7796L12.5376 13.4933L14.2505 15.3963L16.1544 13.6825L14.4414 11.7796ZM11.1789 10.2498L13.0819 8.5368L14.7949 10.4398L12.8919 12.1527L11.1789 10.2498ZM17.4094 10.909L15.9853 12.1944L17.2731 13.6213L18.6973 12.3358L17.4094 10.909ZM19.8905 16.801L18.4634 18.0869L19.7501 19.5149L21.1772 18.229L19.8905 16.801Z" fill="white"/>
</svg>
