<svg width="28" height="28" viewBox="0 0 28 28" fill="none" xmlns="http://www.w3.org/2000/svg">
<path d="M0 4C0 1.79086 1.79086 0 4 0H24C26.2091 0 28 1.79086 28 4V24C28 26.2091 26.2091 28 24 28H4C1.79086 28 0 26.2091 0 24V4Z" fill="#8B3FFD"/>
<path fill-rule="evenodd" clip-rule="evenodd" d="M24.2252 14.1867C24.2252 18.1557 21.0077 21.3733 17.0386 21.3733C13.0695 21.3733 9.85192 18.1557 9.85192 14.1867C9.85192 10.2176 13.0695 7 17.0386 7C21.0077 7 24.2252 10.2176 24.2252 14.1867ZM19.4341 14.1867C19.4341 15.5097 18.3616 16.5822 17.0386 16.5822C15.7156 16.5822 14.643 15.5097 14.643 14.1867C14.643 12.8636 15.7156 11.7911 17.0386 11.7911C18.3616 11.7911 19.4341 12.8636 19.4341 14.1867Z" fill="white"/>
<path d="M5.00074 9.156H8.37282C8.92511 9.156 9.37282 9.60371 9.37282 10.156V18.4569C9.37282 19.0092 8.92511 19.4569 8.37282 19.4569H7.70335C7.27035 19.4569 6.88653 19.1782 6.75248 18.7665L4.04987 10.4656C3.83947 9.81935 4.32112 9.156 5.00074 9.156Z" fill="white"/>
</svg>
