<svg width="900" height="494" viewBox="0 0 900 494" fill="none" xmlns="http://www.w3.org/2000/svg">
<g opacity="0.5" clip-path="url(#clip0)">
<path d="M431.312 113.436L434.866 113.652L436.74 117.582L440.033 116.117L444.235 115.469L444.394 118.967H451.468L453.706 120.171L456.147 120.478L457.555 119.671L462.222 121.329L461.973 113.732L466.878 113.595L468.173 115.208L471.318 116.48L473.646 118.615L474.248 118.956L475.531 117.684L474.964 116.889L475.634 115.719L476.508 116.389L479.267 113.38L479.018 112.301L477.666 111.756L477.178 109.28L480.392 109.348L481.255 107.429L482.197 106.883L484.627 107.213L485.184 105.418L485.797 105.316L486.217 103.204L487.796 102.25L488.716 102.159L489.09 100.807L489.851 100.864L490.828 99.8648L491.43 100.069L493.315 99.1266L491.441 96.9915L492.656 97.2414L491.611 93.6185L495.007 90.484L493.712 88.6896L494.496 88.4397L494.575 86.8952L494.189 85.6346L492.656 85.5096L492.94 82.8976L490.476 82.7045L489.783 81.2621L488.568 80.8533L488.466 79.604L486.876 77.2986L487.546 76.2651L488.477 76.1742L489.113 75.913L489.158 74.9817L490.283 74.13L490.862 74.8L491.543 73.4486L490.464 73.5167L490.396 71.6428L493.644 71.7337L494.144 71.1431L493.553 70.473L493.735 69.8598L493.008 68.7127L494.711 68.8376L494.904 67.9177L497.073 68.0767L497.176 69.1897L500.287 68.9626L500.219 67.0659L502.388 67.2363L502.456 68.8149L503.841 69.0875L504.103 70.0415L505.022 70.28L505.42 71.5633L505.477 73.2896L506.998 73.7211L507.714 72.063L506.487 71.8018L506.113 70.0528L507.044 69.962L507.453 68.1108L508.679 68.372L509.201 67.3158L510.28 67.2477L511.109 66.3618L515.901 66.4413L516.117 68.1903L517.332 68.6105L517.582 72.3924L517.048 73.5962L517.798 73.971L518.297 73.2328L521.034 73.9256L522.613 73.2782L522.806 75.3225L521.852 75.8676L522.102 76.8329L521.17 76.9124L521.261 78.0027L520.603 78.5819L524.918 78.4683L525.258 77.8778L526.031 77.9346L526.144 78.5705L528.393 81.4098L528.722 83.1588L530.868 82.8748L530.459 80.1946L532.458 79.8993L532.992 76.8216L542.315 76.5604L542.224 77.6506L542.519 77.6734L542.19 79.8312L545.756 80.4672L545.994 81.1259L547.947 81.1486L548.776 80.2854L549.39 80.1832L549.912 79.4564L551.286 79.2633L552.024 77.7756L554.273 77.8323L554.136 79.2292L558.713 84.2036L557.827 85.5324L557.111 88.1217L557.816 90.0638L556.407 90.6998L556.43 91.949L557.498 93.1529L557.793 94.5839L564.232 95.3902L569.455 94.9927L570.489 92.2898L574.747 91.3471L575.69 92.233L577.745 91.2108L580.13 91.1881L580.845 90.166L581.595 90.0979L582.06 91.2676L582.072 93.9592L583.003 95.0154L583.616 101.546L586.443 100.342L590.668 102.488L593.666 102.42L593.938 103.874L595.585 103.794L597.163 106.827L605.703 107.463L605.771 108.099L606.929 108.269L607.44 130.937L607.906 131.926L606.555 132.187L603.454 134.628L602.762 135.446L602.648 142.135L606.691 140.148L607.815 142.749L610.416 142.987L612.573 144.225L612.028 145.054L610.847 145.179L609.984 146.258L607.736 145.622L602.819 148.836L602.489 151.357L600.105 154.174L596.323 153.049L594.892 155.253L594.256 153.367L593.654 153.583L594.006 154.231L592.201 154.742L591.599 153.754L590.532 154.208L590.168 155.968L591.133 156.4L592.496 159.432L592.269 160.148L593.064 160.704L594.245 158.171L595.38 158.33L598.254 159.625L594.972 162.76L589.112 164.656L589.896 166.553L588.669 167.132L586.773 167.325L585.876 168.847L582.31 167.337L581.015 169.699L580.141 169.892L579.925 170.46L580.561 171.13L579.074 172.867L575.883 173.06L575.746 174.23L574.94 173.833L573.816 174.878L574.44 175.695L572.839 177.115L575.235 178.739L573.407 179.693L570.875 178.058L570 179.42L568.365 179.965L568.853 183.259L567.377 183.668L567.684 184.735L564.924 182.634L560.291 183.123L559.746 184.236L558.372 183.781L560.393 180.931L559.996 179.273L560.666 178.319L560.461 177.558L559.791 177.183L561.302 175.15L558.803 172.936L557.214 173.049L556.918 171.834L555.419 172.402L555.101 171.334L554.079 171.516L554.125 172.402L550.82 173.81L550.196 177.126L548.617 177.104L547.902 178.5L545.926 178.285L544.2 179.716L544.666 180.783L541.747 182.827L540.18 182.805L539.839 183.35L538.386 183.645L538.102 190.914L536.512 188.131L531.754 190.266L533.128 193.753L532.424 195.138L529.982 195.468L526.814 197.489L525.031 198.33L523.669 197.626L523.759 195.161L525.724 192.299L525.258 191.243L524.225 191.584L523.555 189.63L516.685 191.618L515.697 191.527L514.947 191.902L513.971 191.663L512.665 191.981L513.199 189.131L511.915 189.017L511.268 188.233L510.439 186.257L509.86 186.359L509.19 187.461L508.781 185.53L505.783 187.166L506.567 189.71L504.75 190.857L503.762 190.777L503.115 189.994L502.888 190.993L503.535 191.777L503.262 193.344L502.683 193.435L501.741 192.64L498.902 194.139L496.04 192.31L494.757 192.208L494.393 191.311L492.622 191.89L491.861 190.527L493.44 188.767L494.359 184.474L495.336 182.952L494.848 179.988L495.915 179.341L496.222 171.607L489.374 171.8L488.693 173.06L486.001 174.026L481.209 177.626L479.131 176.002L476.008 176.661L474.702 176.422L476.179 178.421L476.338 180.34L473.715 182.339L464.096 183.588L458.895 186.893L455.761 182.044L458.214 180.59L456.772 177.001L454.875 176.309L449.413 177.899L443.531 175.809L441.782 174.548L439.045 175.275L437.898 170.664L436.206 171.459L435.48 170.834L434.412 171.357L434.458 170.04L433.685 170.732L433.742 169.267L433.492 167.927L429.359 165.497L427.985 169.983L423.59 170.482L422.75 168.677L424.203 161.817L419.502 157.263L420.751 156.139L418.855 153.663L422 150.858L420.955 150.051L422.818 144.634L420.808 140.466L418.048 140.318L416.936 136.491L420.774 136.866L426.565 133.89L427.474 129.881L428.45 124.191L431.153 121.931L431.312 113.436Z" fill="#1E5EDA"/>
<path opacity="0.4" d="M276.317 329.593L274.432 330.593L272.127 331.081L271.037 331.808L270.06 333.148L268.97 335.454L268.119 337.884L267.994 340.065L267.028 340.553L266.302 341.768L266.245 342.711L257.251 345.255L225.409 355.328L222.241 331.967L220.254 326.459L218.437 322.904L218.846 321.564L216.245 318.202L215.973 314L203.016 310.139L198.53 308.276L191.91 301.61L190.536 296.272L187.243 292.115L188.98 278.816L189.82 273.649L188.321 271.094L187.833 264.95L184.392 261.1L185.187 258.079L183.961 252.809L183.121 251.378L183.847 246.108L184.495 245.597L184.392 240.271L180.429 239.93L180.418 238.522L178.76 237.318L178.033 238.545L176.591 238.17L176.659 240.135L176.114 243.031L173.707 242.792L172.378 242.122L167.12 241.566L168.006 239.317L167.063 237.17L167.699 235.24L166.166 227.46L165.008 227.188L164.009 229.754L162.657 229.084L162.987 228.187L160.307 226.972L158.558 225.359L158.354 222.213L159.807 217.25L159.035 215.479L160.409 216.16L161.306 213.866L163.009 212.333L165.167 212.344L165.564 210.697L168.29 210.641L170.175 210.981L172.344 209.698L171.833 208.755L173.366 206.825L173.831 205.609H176.273L174.978 204.031L177.102 200.294L177.022 199.284L178.01 197.285L177.726 195.559L176.239 194.854L176.171 193.98L175.126 193.662L175.047 190.743L175.455 188.347L173.797 186.041L176.148 183.543L175.773 182.555L178.555 179.239L178.215 178.75L178.896 179.205L179.305 179.057L180.588 177.047L181.383 176.604L181.815 175.877L181.451 174.321L180.565 172.288L180.202 169.767L180.872 168.347L181.326 166.848L181.985 167.087L182.519 167.019L183.279 167.439L183.643 167.427L183.927 167.223L184.12 167.405L184.233 168.063L184.744 168.222L185.108 168.79L185.573 168.608L185.539 167.938L186.05 167.814L186.187 167.507L186.55 167.541L186.732 167.28L187.288 167.234L187.572 167.371L188.106 166.689L187.992 165.996L188.935 165.531L189.65 165.951L190.059 166.439L190.172 167.257L190.025 167.655L189.309 168.552L189.139 168.995L189.309 169.426L189.934 169.994L190.99 170.664L195.612 174.991L196.009 175.15L196.691 174.503L198.485 174.605L198.939 175.673L200.359 176.411L202.63 178.171L203.05 178.182L203.527 177.785L203.97 176.751L205.741 175.718L206.831 175.4L209.239 174.117L210.397 173.038L211.646 172.129L212.475 171.811L212.759 171.505L212.873 171.13L212.736 170.017L212.793 168.87L213.656 166.008L214.008 165.508L214.462 165.349L216.302 166.292L217.653 166.303L218.278 165.747L218.517 164.213L218.834 164.054L219.856 164.27L220.254 163.998L220.379 163.452L220.05 161.976L220.038 160.92L220.776 160.079L220.89 160.045L221.446 160.749L221.639 161.465L222.809 162.101L223.854 163.521L224.898 163.577L225.943 164.145L226.216 163.918L226.386 162.975L225.943 161.76L225.739 160.522L225.875 160.42L227.158 160.386L227.601 160.227L228.146 160.295L229.282 161.204L229.736 161.295L230.928 160.534L231.349 160.738L231.826 161.238L232.359 161.351L234.596 160.511L235.902 159.83L236.322 160.307L236.708 161.647L237.424 162.215L238.276 162.567L238.843 163.521L238.889 164.736L239.57 165.622L241.569 166.984L243.09 167.427L243.465 167.291L243.533 167.041L243.227 166.292L243.318 166.019L245.146 165.145L246.27 165.156L246.872 166.269L247.803 165.86L248.144 164.622L248.291 160.204L248.473 158.626L249.007 158.353L249.881 158.285L250.392 159.08L251.074 159.58L251.426 159.523L251.698 159.171L252.266 159.035L252.675 159.852L253.64 159.83L253.924 160.25L255.003 159.239L255.321 159.205L255.854 158.751L256.104 159.137L256.013 159.886L256.218 160.397L257.876 160.784L258.001 160.67L257.864 160.295L257.967 159.989L258.546 159.852L258.773 159.546L258.614 158.535L259.148 158.285L259.522 157.899L259.704 158.001L259.897 157.797L260.079 157.91L260.329 157.535L261.078 157.842L261.759 159.989L262.077 160.42L262.645 160.522L263.928 160.227L265.03 160.352L265.916 160.534L266.347 161.033L267.199 162.805L267.153 163.282L266.699 163.895L266.37 165.224L266.529 167.507L267.085 169.199L267.596 169.506L268.278 169.574L270.208 168.847L271.06 168.915L271.321 169.29L271.06 170.403L271.23 171.141L272.752 171.868L273.206 173.094L273.91 173.64L275.137 173.81L276.09 173.537L276.613 173.571L278.191 174.139L280.724 174.423L281.303 174.662L281.677 175.264L282.098 175.389L282.62 174.946L284.516 175.4L286.015 174.991L286.447 175.002L287.844 176.922V177.194L287.367 177.41L287.31 177.615L287.344 179.704L287.378 179.977L287.628 180.034L289.365 179.148L293.238 178.16L294.271 177.615L295.713 175.207L298.041 169.12L298.7 168.166L299.472 167.848L300.971 168.063L301.959 168.574L302.175 168.892L302.231 170.482L304.923 173.844L305.774 174.321L308.443 174.65L310.839 174.832L313.133 174.707L314.496 174.98L316.199 174.957L318.391 174.173L320.162 174.083L329.394 170.323L329.917 169.88L330.258 168.961L330.916 164.634L332.915 154.549L334.766 153.924L336.231 154.639L337.855 153.924L338.842 152.198L340.387 154.583L340.58 156.82L341.67 160.488L343.464 161.192L344.634 159.557L345.224 159.125L348.495 161.09V162.453L347.757 162.578L347.019 165.133L350.993 169.006L348.495 170.744L348.938 172.697L348.926 174.787L352.015 173.821L354.037 184.111L356.955 188.756L357.398 190.527L362.201 197.705L362.633 199.477L361.565 203.225L358.068 200.351L354.548 203.474L354.23 207.109L350.743 209.232L351.459 213.15L352.174 214.173L349.574 213.275L347.7 215.717L348.847 217.023L352.878 223.849L352.151 224.405L351.72 223.974L348.415 224.507L347.848 226.086L350.709 225.825L352.288 231.288L358.443 237.375L363.212 234.774L365.506 236.818L365.642 238.09L364.177 240.044L365.018 242.894L372.217 245.336L373.5 246.778L377.1 248.141L380.677 250.64L385.435 259.725L389.478 266.801L391.488 267.698L386.594 273.093L360.566 291.286L358.908 291.82L357.943 290.435L351.595 289.447L352.549 287.243L346.462 279.498L343.703 279.918L341.886 276.454L338.116 270.776L324.705 273.865L317.108 294.182L307.875 293.421L307.239 300.417L300.471 300.974L291.58 309.23L289.717 312.138L287.174 314.92L282.325 322.2L276.317 329.593Z" fill="#1E5EDA"/>
<path d="M704.941 289.662L707.576 291.377L708.677 292.672L711.459 292.922L712.538 295.693L722.361 294.591L729.288 304.301L739.792 300.633L744.505 302.587L744.414 304.858L751.966 308.174L758.382 311.763L765.24 311.933L766.478 313.819L767.523 313.785L768.761 312.978L769.408 314.602L770.123 315.431L771.111 314.034L771.759 314.046L770.93 315.34L771.668 315.499L772.44 315.533L773.212 316.113L773.928 314.795L774.45 314.773L774.041 315.886L772.928 316.715L773.235 317.055L774.2 316.862L773.417 317.896L780.73 326.47L782.456 333L786.033 336.896L785.352 341.666L785.624 343.46L786.43 344.164L788.713 343.347L789.088 343.858L791.029 345.028L791.847 345.754L795.663 346.572L795.969 347.004L796.56 349.252L795.719 353.261L793.38 356.714L792.21 355.896L789.417 353.409L788.236 353.114L786.453 353.488L785.181 353.999L783.069 355.453L781.661 355.59L781.014 355.215L780.628 354.068L780.412 353.954L779.231 354.261L778.663 354.09L778.515 352.83L778.266 352.341L777.993 350.91L777.175 350.286L776.755 349.548L775.824 349.037L775.608 349.377L775.154 349.604L774.427 349.434L773.371 350.274L773.053 350.899L772.236 351.092L771.906 351.546L771.316 351.898L770.226 352.08L769.885 351.478L769.749 351.501L768.693 352.5L768 352.341L767.761 352.137L767.091 352.773L765.99 352.955L765.558 352.818L765.399 353.046L764.57 353.307L764.253 353.909L764.014 353.965L762.958 353.647L762.913 354.022L762.583 354.374L762.526 354.772L762.288 355.033L761.834 355.01L760.971 355.306L759.563 355.26L758.223 356.407L757.416 356.487L756.599 355.964L755.157 355.555L754.657 355.056L754.498 355.124L754.373 355.794L753.941 356.191L751.954 357.032L750.909 356.896L749.91 357.043L749.467 356.691L748.956 356.805L748.411 357.27L748.014 358.361L746.992 359.076H746.129L745.686 358.486L745.39 358.395L744.766 358.633L743.937 359.326L743.415 359.496L742.449 359.553L741.904 359.053L741.143 359.121L740.405 358.928L740.224 359.235L740.496 359.86L740.428 360.144L740.099 359.962L739.769 360.03L738.498 361.427L736.26 362.847L735.908 363.244L735.341 363.414L735.091 363.812L735.341 364.084L735.931 363.664L736.419 363.653L737.146 364.141L737.725 364.221L738.373 366.14L739.27 366.628L741.053 366.356L741.757 365.72L743.415 365.958L744.198 365.368L744.755 365.436L745.095 365.822L744.97 366.208L745.163 366.31L746.106 366.038L746.628 367.071L748.445 367.98L749.229 368.741L749.342 369.559L747.457 370.195L746.56 371.103L747.503 372.557L747.219 373.193L746.628 375.657L746.151 376.498L746.606 377.985L747.037 381.461L747.48 382.767V385.197L747.798 387.287L748.457 388.934L748.309 389.569L748.343 389.876L748.661 390.285L748.604 391.148L749.763 393.703L749.694 394.635L750.058 396.304L750.467 396.599L751.602 399.132L754.396 406.173L754.736 406.628L755.032 407.695L754.77 408.615L754.804 409.206L754.248 409.774L753.158 412.113L753.203 412.329L753.465 412.658L755.009 412.556L755.316 412.692L755.361 413.533L755.815 414.441L755.838 415.202L756.224 416.122L755.724 417.053L755.032 417.11L754.521 417.542L753.953 417.201L753.34 417.087L751.67 417.564L749.66 419.223L747.628 419.802L747.162 420.335L747.151 421.278L747.503 421.937L748.229 422.652L749.24 423.311L751.125 423.799L751.614 424.651L751.557 424.787L751.318 424.742L750.694 425.083L750.444 424.822L750.353 425.083L749.967 425.23L749.604 425.071L749.456 425.389L747.843 426.071L747.855 426.366L747.366 426.695L747.026 426.57L746.435 426.809L746.424 426.559L745.811 426.798L745.697 426.468L745.493 426.457L744.289 426.661L744.221 427.57L743.857 428.478L743.415 430.364L742.631 431.125L742.29 432.397L742.518 433.589L743.222 435.054L743.88 435.667L744.482 435.724L744.721 435.997L744.3 436.485L743.369 436.951L743.233 437.621L743.199 438.62L743.664 439.268L743.63 440.88L744.664 441.618L744.403 442.516L744.936 443.254L744.743 444.344L744.016 444.764L743.608 444.787L743.21 444.469L742.949 444.458L742.313 444.98L741.972 444.912L741.382 445.321L741.212 445.219L741.064 444.708L741.246 443.231L740.837 442.607L740.473 441.573L739.962 441.244L739.099 441.028L738.214 440.176L737.85 439.131L737.532 438.563L737.271 438.393L735.954 438.302L735.749 438.745L735.454 438.825L735.284 438.609V438.2L735.125 438.143L734.148 438.064L733.796 437.837L733.263 437.916L732.967 437.439L731.196 437.155L730.128 437.905L729.186 437.746L727.789 437.768L727.233 436.837L725.257 435.247L724.723 434.077L724.45 433.816L723.156 432.817L722.111 432.533L721.702 431.999L721.373 431.874L720.465 430.284L720.237 429.046L720.34 428.49L720.601 428.126L720.465 428.001L719.931 428.013L718.75 428.399L718.398 429.16L718.171 429.307L717.501 428.433L717.103 428.206L716.24 428.308L715.604 428.07L714.98 428.251L714.378 427.842L713.22 427.615L712.652 427.309L712.073 427.365L711.414 426.798L710.744 426.832L710.426 426.593L709.608 426.888L708.984 426.048L706.724 425.526L706.224 424.731L705.373 424.413L703.454 425.208L702.749 424.946L702.375 425.685L701.83 425.855L698.457 425.083L698.003 425.787L696.901 425.594L696.368 425.764L695.834 426.366L695.402 425.741L695.005 425.503L694.664 425.514L693.835 426.025L693.131 425.264L692.438 425.48L691.621 425.083L690.86 425.128L690.463 424.958L689.804 424.208L687.998 424.322L686.647 424.027L685.33 424.004L684.171 423.572L683.104 423.697L682.423 423.447L680.083 424.061L678.232 424.117L677.426 423.868L676.779 422.97L676.381 422.732L674.417 422.527L673.452 422.686L670.942 422.028L669.114 422.05L668.148 422.993L667.115 423.141L666.752 424.083L666.4 424.367L663.856 424.14L662.947 424.231L661.801 423.958L661.165 424.856L660.268 424.946L658.121 425.56L657.588 425.537L657.417 425.389L657.077 424.356L656.384 423.947L653.431 423.822L651.251 424.231L650.978 424.106L650.626 423.618L649.604 423.504L648.866 422.891L648.174 423.232L647.435 423.016L646.368 423.561L646.198 423.584L645.971 422.516L644.824 423.016L643.597 422.243L641.462 422.482L641.212 421.994L642.484 421.607L643.075 420.404L638.919 418.439L636.784 417.996L636.261 415.838L635.41 415.463L635.716 414.157L634.876 413.658L635.126 411.091L638.056 407.536L637.261 406.196L633.956 406.605L634.285 405.549L633.036 405.39L632.287 405.901L628.562 404.595L628.551 402.641L633.377 398.053L634.217 397.656L634.74 396.236L634.229 394.044L635.205 392.92L635.705 391.602L635.603 387.809L633.309 386.242L632.06 384.55L630.686 384.357L628.573 382.415L628.199 382.369L623.27 381.835L619.057 377.804L618.342 376.679L619.353 372.954L617.24 369.309L610.154 364.346L609.723 362.994L608.86 361.961L608.678 358.168L602.489 358.009L602.092 352.205L608.758 352.693L607.554 349.525L606.6 337.941L608.701 334.397L610.472 330.525L612.403 327.333L614.935 324.483L619.625 319.667L625.632 314.239L638.249 306.982L643.506 308.038L650.252 306.789L657.781 308.117L657.758 309.049L659.03 309.389L660.54 307.606L661.153 309.458L661.835 308.628L663.845 309.355L664.537 307.72L665.968 307.947L668.001 308.549L671.351 310.037L668.966 307.629L670.499 307.345L672.827 308.538L675.019 308.231L677.222 309.401L677.948 311.263L679.606 311.013L679.572 308.992L686.261 308.242L685.307 291.57L685.909 290.457L691.609 291.729L694.846 288.095L697.662 291.059L701.216 286.528L704.941 289.662Z" fill="#1E5EDA"/>
<path d="M73.6615 322.598L73.5025 322.734L73.1619 322.654L72.4805 321.235L72.2534 321.11L72.4351 320.894L71.8219 319.531L71.7083 318.623L71.1973 318.066L71.1178 317.805L71.2427 317.623L71.5834 317.498L72.7871 317.975L73.8773 319.202L74.252 320.61L73.6615 322.598ZM158.557 225.359L160.295 226.983L162.975 228.187L162.646 229.096L163.986 229.766L164.985 227.199L166.143 227.472L167.676 235.251L167.04 237.182L167.971 239.328L167.097 241.577L172.343 242.133L173.672 242.804L176.079 243.042L176.624 240.146L176.568 238.181L178.01 238.556L178.725 237.329L180.395 238.533V239.942L184.358 240.282L184.46 245.609L183.813 246.108L183.086 251.378L183.926 252.809L185.153 258.079L184.358 261.1L187.799 264.95L188.287 271.094L189.786 273.649L188.946 278.828L187.208 292.115L190.501 296.283L191.875 301.621L198.496 308.276L202.981 310.139L215.938 314L216.211 318.202L218.811 321.553L218.402 322.893L220.208 326.448L218.232 325.266L216.506 325.391L215.473 324.426L213.951 325.21L211.612 324.505L211.033 322.734L210.056 322.302L208.932 323.075L207.796 322.404L206.15 321.927L205.786 320.917L206.138 319.168L205.377 316.885L204.299 316.737L203.663 317.078L203.322 317.646L202.675 317.85L201.244 316.964L198.575 313.183L193.374 318.339L190.933 317.998L182.212 318.907L177.987 320.553L174.649 320.633L172.605 321.45L171.174 321.791L169.822 321.723L168.255 322.086L167.812 322.813L164.406 322.393L164.712 323.801L163.52 326.084L158.501 329.821L160.817 331.183L159.386 332.558L157.149 333.909L154.481 335.056L152.902 335.272L151.426 336.249L148.019 335.794L147.315 337.555L144.34 337.396L139.287 336.146L139.253 335.862L140.082 335.999L140.479 335.828L139.639 335.533L139.502 335.249L139.582 334.488L140.048 334.284L139.979 333.761L140.195 333.58L141.898 333.409L141.001 332.887L140.854 332.41L141.149 332.103L142.046 331.865L141.558 331.32L141.251 330.536L140.717 330.104L140.593 329.707L140.786 329.503L141.751 329.491L142.069 328.901L140.842 327.822L140.4 327.651L139.73 326.856L140.195 326.243L140.967 326.254L140.184 325.868L140.093 325.425L139.786 325.323L140.025 324.937L139.979 324.494L140.604 324.017L141.569 324.142L141.217 323.551L141.558 323.324L141.092 323.165L141.024 322.859L141.796 322.439L142.341 321.53L142.784 322.041L142.716 321.587L142.864 321.155L142.727 321.008L142.421 321.11L142.205 320.746L142.5 320.269L142.568 319.633L143.068 318.918L143.148 318.055L144.51 316.59L145.124 316.385L144.544 316.169L144.488 315.976L145.192 315.874L145.317 315.704L144.851 315.443L144.408 314.727L143.466 313.887L143.784 312.16L143.522 311.002L144.351 310.196L143.477 309.866L143.784 309.117L143.352 307.538L143.125 307.47L142.818 307.629L142.489 307.47L141.989 307.811L141.694 307.674L141.955 307.163L142.353 307.039L141.637 306.312L141.399 306.403L141.217 306.278L141.399 305.494L141.819 305.176L141.546 304.608L141.092 304.426L140.956 304.506L140.422 305.38L139.332 306.028L138.73 306.982L138.708 307.799L138.333 307.765L137.947 307.493L137.992 306.925L137.799 306.584L137.89 306.209L138.185 305.914L138.049 305.426L137.651 305.165L137.231 305.335L136.947 305.698L136.72 305.63L136.766 304.778L136.947 304.495L136.55 304.358L136.47 304.04L135.562 303.677L135.437 303.472L135.539 303.279L135.948 303.393L136.425 302.859L136.232 302.587L136.346 302.041L136.096 301.61L135.585 301.258L132.314 301.894L131.463 302.825L130.951 303.075L130.679 303.029L130.282 302.144L129.782 302.053L129.18 304.79L128.919 305.096L128.26 305.369H127.295L125.66 304.472L123.479 304.074L121.867 303.177L120.709 303.302L120.209 303.041L120.186 302.791L119.914 302.905L119.789 302.632L118.369 302.132L116.779 301.894L115.973 301.939L115.133 301.337L115.269 302.564L115.78 303.064L116.348 303.347L116.655 303.87L116.575 305.176L116.28 305.778L116.132 305.676L116.257 306.039L116.109 306.05L115.723 305.006L115.916 304.063L115.451 303.575L115.053 303.518L114.94 303.075L114.497 302.677L113.963 300.679L113.782 300.69L113.747 301.065L113.509 301.087L113.225 301.496L112.669 301.599L111.919 302.371L111.681 302.484L111.544 302.291L112.135 301.678L112.691 301.36L112.919 300.451L113.123 300.44L113.18 300.258L112.998 299.952L113.373 299.645L113.452 299.032L112.442 299.566L111.624 300.565L112.112 299.611L112.101 299.259L110.84 297.805L107.956 296.954L107.07 297.09L106.775 296.851L106.185 297.112L105.094 296.749L104.595 296.988L104.152 296.965L102.596 298.305L102.244 298.328L101.926 298.566L101.756 299.395L101.392 299.304L101.04 299.509L99.9615 299.475L99.4505 299.225L98.9054 299.214L97.679 298.612L96.6343 298.861L96.1801 299.157L95.7031 299.827L95.5214 299.918L95.317 299.702L94.9763 299.77L93.9657 301.655L93.3752 302.223L92.9323 302.246L92.7393 302.03L92.955 301.156L92.8642 300.747L92.5803 300.599L92.2623 300.747L91.5355 301.281L90.9678 302.03L90.8088 303.211L90.2069 304.801L89.9344 305.074L89.5483 304.983L89.3098 304.642L89.5937 303.643L89.4461 303.427L88.7079 304.029L88.3786 304.018L88.1742 302.689L87.6291 301.86L86.539 303.7L86.3119 304.358L85.9144 304.778L85.7554 304.835L85.4829 304.495L85.6646 303.484L85.4034 303.472L84.7788 303.847L84.4495 304.29L84.6539 304.563L83.9044 305.176L83.3367 306.357L83.0755 307.356L82.678 307.97L82.3828 307.629L82.2919 305.301L80.8043 306.879L80.1457 307.345L78.5559 309.719L78.2833 310.695L76.773 310.287L75.9781 310.661L75.1037 312.047L75.2173 313.126L74.9107 313.569L74.3315 313.853L73.9681 314.375L73.0142 314.057L72.4124 313.569L72.6963 314.443L72.5259 315.136L73.5934 315.999L73.3663 316.101L72.6963 315.783L72.5373 315.965L73.4571 316.715L73.8091 317.305L73.7069 317.555L73.1051 317.385L71.6856 316.556L71.2087 316.499L70.6295 317.441L70.2434 317.385L69.9368 317.055L69.687 317.123L69.4826 318.043L69.7778 318.589L69.369 319.02L69.0965 318.85L68.7217 318.043L68.1426 317.351L67.9496 317.362L68.0631 318.236L68.4492 318.85L68.4719 319.19L69.1306 319.86L69.2668 320.451L69.1192 320.621L67.6202 319.747L66.8821 319.156L66.7685 318.895L66.2462 318.884L65.3264 318.202L65.0765 318.214L64.8721 318.6L64.2362 317.282L63.9637 317.135L64.0318 316.681L63.8842 316.374L64.1227 315.976L64.8267 316.181L63.9296 315.181L63.9864 314.773L63.8615 314.534L62.7145 314.125L62.2149 314.193L62.0445 314.33L62.442 314.795H62.8622L63.0779 315.022L63.1801 315.386L63.0552 315.84L63.3277 316.874L64.486 318.146L64.6109 318.6L64.452 319.066L64.9289 319.361L65.0652 319.622V319.94L64.8835 320.144L64.4974 320.167L64.2816 320.565H64.0659L63.3845 320.042L63.4527 319.758L63.0779 318.464L63.1801 317.987L62.8849 317.873L63.0098 317.555L62.3625 315.965L61.6471 315.295L60.6932 314.75L60.6591 314.511L60.3979 314.307L59.9664 314.227L60.1368 314.489L60.0346 314.625L59.4668 314.205L59.3986 314.318L59.9096 315.409L60.4774 315.658L60.5569 315.238L60.8181 315.431L60.9544 315.908L61.2951 316.283L61.1929 316.635L61.3632 317.146L61.0793 317.101L60.6137 316.465L59.921 316.033L59.8302 316.238L60.1481 316.476L60.4093 317.146L59.8869 317.351L59.9324 316.624L59.4441 316.192L59.0807 315.556L59.1375 315.306L59.3532 315.181L58.899 314.761L58.5015 314.75L58.3993 314.897L58.6719 315.499L58.3425 315.704L58.8081 316.147L58.8649 316.59L59.3078 317.169L59.9096 317.691L59.8415 317.953L58.6264 317.294L56.4348 316.681L56.0487 316.067L55.1743 315.533L54.5497 315.409L53.4141 314.841L52.4943 313.955L51.7221 314.023L50.9386 312.921L50.6433 312.104L49.8825 311.695L49.5077 311.706L49.0762 311.366L48.3722 311.263L47.6227 309.775L47.1571 310.071L45.8625 309.798L45.5219 309.435L45.6354 308.844L45.5446 308.617L44.7951 308.526L44.1592 308.22L44.1705 307.55L44.8292 305.801L46.3622 304.495L48.0315 304.585L48.7242 305.119L48.8605 306.05L50.1096 307.266L51.1998 307.391L53.698 307.095L54.6178 306.334L55.708 304.722L54.9472 302.541L50.7682 296.885L49.7121 294.444L48.1223 290.491L47.7249 289.117L46.9413 283.836L43.9775 283.779L41.9448 283.212L39.6736 279.577L38.697 277.249L37.5614 275.262L34.6998 272.491L33.5756 272.354L32.6785 272.638L28.897 273.013L26.6485 273.058L23.696 272.127L20.505 270.764L20.5505 271.662L20.312 273.456L19.8123 275.307L15.8378 272.945L14.566 271.65L14.0549 270.764L14.9975 270.276L15.0883 270.072L13.0784 266.471L11.9087 264.722L14.5887 263.405L15.0315 262.724L15.8378 262.803L16.0876 262.144L13.6461 261.27L13.6007 260.668L14.1231 259.589L14.0663 258.635L13.8505 258.056L13.6461 257.772L12.3289 257.181L11.8633 256.421L15.2019 257.534L17.791 257.397L29.0219 259.158L48.4857 261.327L54.5951 263.042L65.4058 267.323L65.2355 263.916L72.1058 264.291L73.3095 263.314L77.0228 263.405L81.497 258.817L93.625 250.674L95.0104 250.64L97.0772 248.675L97.9856 249.129L100.018 247.88L101.245 244.03L105.81 243.712L108.433 242.508L117.767 244.121L118.358 245.325L117.597 245.859L117.427 248.584L124.501 250.197L125.285 248.811L126.25 248.675L131.099 251.423L133.472 251.367L135.028 250.424L134.529 248.789L136.062 242.281L138.73 242.168L138.39 234.047L140.343 234.91L141.66 231.844L143.023 232.503L150.688 232.514L154.106 231.435L153.527 230.084L157.797 226.461L158.557 225.359Z" fill="#1E5EDA"/>
<path d="M600.105 154.174L607.713 156.934L607.804 159.5L608.769 160.988L607.793 163.986L607.304 166.61L607.429 170.051L606.248 170.323L605.646 171.573L606.6 173.049L604.965 174.594L608.213 178.171L611.472 177.319L614.651 177.058L616.434 175.559L616.73 176.49L620.341 177.194L621.556 178.716L620.284 179.704L621.749 183.463L623.293 179.591L626.382 182.884L627.654 182.941L629.357 185.871L628.585 186.325L629.187 188.04L631.731 189.051L632.094 190.425L631.344 190.743L631.674 191.379L630.481 191.765L630.254 191.436L627.245 192.708L627.279 193.446L625.871 194.389L626.632 196.99L628.051 196.921L628.471 197.864L630.686 197.205L635.251 193.878L636.318 192.447L642.791 192.663L643.575 192.22L643.881 191.107L644.937 190.698L645.914 191.743L653.67 189.607L656.532 191.288L657.576 191.038L658.598 188.29L659.109 188.676L660.847 187.677L663.334 187.404L665.809 188.881L666.638 187.427L666.502 184.031L667.876 178.557L670.147 176.343L674.406 175.241L678.312 179.375L682.923 179.557L686.556 181.885L687.862 186.53L686.102 188.949L688.646 190.766L688.146 192.708L684.898 195.411L683.161 197.83L680.038 199.261L679.062 199.942L677.052 199.999L676.438 202.623L677.108 203.622L676.597 205.689L677.177 207.245L676.722 209.028L674.758 212.117L669.012 214.229L663.799 216.739L663.47 218.681L665.242 220.714L665.185 221.85L667.047 222.463L670.363 225.2L670.42 227.335L672.203 228.369L674.338 230.595L672.225 231.492L671.771 230.845L669.931 231.799L670.125 233.105L669.613 235.285L671.169 238.386L680.208 236.898L681.117 239.601L680.186 243.235L680.208 244.643L676.143 248.823L674.451 248.243L673.327 248.334L672.18 249.391L672.43 251.117L670.681 251.651L671.499 253.331L673.406 254.217L673.713 255.671L677.165 255.58L678.21 255.898L677.733 257.068L675.791 257.147L675.212 258.851L678.051 261.44L680.277 261.27L681.844 262.519L677.733 264.018L679.05 265.915L677.54 265.926L677.335 268.652L676.245 268.606L675.155 273.251L673.827 276.193L674.281 277.499L674.78 277.726L675.939 282.723L676.177 284.404L674.167 283.518L672.078 283.848L672.191 286.335L671.249 288.629L669.511 289.288L671.487 290.31L672.634 292.263L674.78 293.853L678.062 295.08L679.13 292.138L680.504 291.286L683.104 292.558L685.307 291.57L686.261 308.242L679.573 308.992L679.607 311.013L677.949 311.263L677.222 309.401L675.019 308.231L672.827 308.538L670.499 307.345L668.966 307.629L671.351 310.037L668.001 308.549L665.968 307.947L664.538 307.72L663.845 309.355L661.835 308.628L661.153 309.457L660.54 307.606L659.03 309.389L657.758 309.049L657.781 308.117L650.252 306.789L643.507 308.038L638.249 306.982L625.633 314.239L619.625 319.667L614.935 324.483L612.403 327.333L610.473 330.525L573.998 330.104L552.865 330.888L548.958 330.604L531.266 331.058L500.003 331.127L458.259 330.468L457.907 327.401L456.84 327.083L448.085 327.572L419.275 319.747L415.198 317.476L411.178 312.933L406.579 312.535L395.485 306.561L393.213 306.493L382.142 302.166L381.176 301.19L379.041 302.507L372.501 298.839L369.571 299.066L366.243 296.829L363.609 294.341L354.49 296.034L360.566 291.286L386.593 273.092L391.487 267.698L389.477 266.801L385.435 259.725L391.669 254.058L390.443 250.106L398.676 248.289L396.984 246.12L397.744 244.893L396.915 242.883L401.594 243.065L402.73 234.513L419.752 237.329L421.387 236.41L422.988 236.625L425.498 235.739L426.963 232.139L433.833 231.889L440.465 224.576L443.826 224.178L445.257 219.147L448.153 219.442L449.334 216.512L452.707 213.434L457.362 210.709L464.71 202.282L469.615 195.979L468.582 193.889L469.206 193.208L468.434 191.709L469.218 190.743L472.897 190.266L476.951 188.529L478.496 187.188L479.2 185.496L480.46 184.133L480.085 183.225L477.701 181.885L477.598 181.158L476.338 180.34L476.179 178.421L474.703 176.422L476.009 176.661L479.131 176.002L481.21 177.626L486.002 174.026L488.693 173.06L489.374 171.8L496.222 171.607L495.915 179.341L494.848 179.988L495.336 182.952L494.36 184.474L493.44 188.767L491.861 190.527L492.622 191.89L494.394 191.311L494.757 192.208L496.04 192.31L498.902 194.139L501.741 192.64L502.683 193.435L503.262 193.344L503.535 191.777L502.888 190.993L503.115 189.994L503.762 190.777L504.75 190.857L506.567 189.71L505.783 187.166L508.781 185.53L509.19 187.461L509.86 186.359L510.439 186.257L511.268 188.233L511.916 189.017L513.199 189.131L512.665 191.981L513.971 191.663L514.948 191.902L515.697 191.527L516.685 191.618L523.555 189.63L524.225 191.584L525.259 191.243L525.724 192.299L523.76 195.161L523.669 197.626L525.032 198.33L526.814 197.489L529.983 195.468L532.424 195.138L533.128 193.753L531.754 190.266L536.512 188.131L538.102 190.914L538.386 183.645L539.839 183.35L540.18 182.805L541.747 182.827L544.666 180.783L544.2 179.716L545.926 178.285L547.902 178.5L548.618 177.103L550.196 177.126L550.821 173.81L554.125 172.402L554.08 171.516L555.102 171.334L555.42 172.402L556.919 171.834L557.214 173.049L558.804 172.935L561.302 175.15L559.792 177.183L560.462 177.558L560.666 178.319L559.996 179.273L560.393 180.931L558.372 183.781L559.746 184.236L560.291 183.123L564.924 182.634L567.684 184.735L567.377 183.668L568.854 183.259L568.365 179.965L570 179.42L570.875 178.057L573.407 179.693L575.236 178.739L572.839 177.115L574.441 175.695L573.816 174.878L574.94 173.833L575.747 174.23L575.883 173.06L579.074 172.867L580.561 171.13L579.925 170.46L580.141 169.892L581.016 169.699L582.31 167.336L585.876 168.847L586.773 167.325L588.669 167.132L589.896 166.553L589.112 164.656L594.972 162.76L598.254 159.625L595.381 158.33L594.245 158.171L593.064 160.704L592.269 160.148L592.496 159.432L591.134 156.4L590.168 155.968L590.532 154.208L591.599 153.754L592.201 154.742L594.007 154.231L593.655 153.583L594.256 153.367L594.892 155.253L596.323 153.049L600.105 154.174Z" fill="#1E5EDA"/>
<path opacity="0.7" d="M429.779 31.5754L430.585 31.4959L432.323 30.8826L433.458 35.1869L433.924 35.8683L433.288 36.7769L435.797 43.6819L431.562 45.1924L435.729 47.8045L437.274 47.9521L438.477 51.1434L437.853 51.7454L435.854 51.9384L430.086 54.9821L432.391 62.3868L435.218 61.7736L435.264 67.7473L433.47 69.5076L432.482 70.8478L433.447 73.7324L437.172 74.1299L437.399 83.9651L440.726 86.0434L440.169 88.4965L436.933 87.8151L435.491 88.9621L433.163 88.8031L432.186 89.9842L432.981 93.5958L434.071 93.6639L434.253 97.071L433.788 97.0369L433.935 101.205L431.584 101.818L431.312 113.436L431.153 121.931L428.45 124.191L427.474 129.881L426.565 133.89L420.774 136.866L416.936 136.491L418.048 140.318L420.808 140.466L422.818 144.634L420.955 150.051L422 150.858L418.855 153.663L420.751 156.139L419.502 157.263L424.203 161.817L422.75 168.677L423.59 170.482L427.985 169.983L429.359 165.497L433.492 167.927L433.742 169.267L433.685 170.732L434.458 170.039L434.412 171.357L435.48 170.834L436.206 171.459L437.898 170.664L439.045 175.275L441.782 174.548L443.531 175.809L449.413 177.898L454.875 176.308L456.772 177.001L458.214 180.59L455.761 182.044L458.895 186.893L464.096 183.588L473.715 182.339L476.338 180.34L477.598 181.158L477.7 181.885L480.085 183.225L480.46 184.133L479.199 185.496L478.495 187.188L476.951 188.529L472.897 190.266L469.218 190.743L468.434 191.709L469.206 193.208L468.582 193.889L469.615 195.979L464.709 202.282L457.362 210.709L452.706 213.434L449.334 216.512L448.153 219.442L445.257 219.147L443.826 224.178L440.465 224.576L433.833 231.889L426.963 232.139L425.498 235.739L422.988 236.625L421.387 236.41L419.752 237.329L402.729 234.513L401.594 243.065L396.915 242.883L397.744 244.893L396.983 246.12L398.675 248.289L390.442 250.106L391.669 254.058L385.435 259.725L380.676 250.64L377.099 248.141L373.5 246.778L372.216 245.336L365.017 242.894L364.176 240.044L365.641 238.09L365.505 236.818L363.211 234.774L358.442 237.375L352.287 231.288L350.709 225.825L347.847 226.086L348.415 224.507L351.719 223.974L352.151 224.405L352.877 223.849L348.846 217.023L347.699 215.717L349.573 213.275L352.173 214.173L351.458 213.15L350.743 209.232L354.229 207.109L354.547 203.474L358.067 200.351L361.565 203.224L362.632 199.477L362.201 197.705L357.397 190.527L356.954 188.756L354.036 184.111L352.014 173.821L348.926 174.787L348.937 172.697L348.494 170.744L350.992 169.006L347.018 165.133L347.756 162.578L348.494 162.453V161.09L345.224 159.125L344.633 159.557L343.464 161.192L341.669 160.488L340.579 156.82L340.386 154.583L338.842 152.198L337.854 153.924L336.23 154.639L334.765 153.924L334.89 153.89L332.857 152.05L332.164 151.232L331.233 148.643L330.631 148.155L329.927 147.962L328.406 149.097L327.724 149.143L326.35 148.779L323.977 147.132L322.944 147.076L322.648 147.257L322.137 146.792L320.048 146.837L319.821 145.838L319.173 145.736L318.912 144.782L318.424 144.066L318.083 142.919L318.344 141.954L318.208 141.692L316.425 141.499L311.508 141.568L309.828 141.147L308.783 140.704L306.818 139.058L306.557 138.592L309.192 135.957L309.464 135.617L309.396 135.026L308.442 134.731L306.852 134.504L301.935 131.29L301.765 131.517L301.981 132.028L301.992 132.664L301.311 132.72L301.061 132.607L300.198 132.062L299.278 130.744L299.142 130.29L299.119 129.518L299.403 128.189L300.868 127.905L303.003 127.837L303.934 127.428L305.115 126.44L306.217 124.93L309.033 122.295L309.873 121.841L312.224 122.238L312.621 122.011L313.348 122.034L313.859 121.818L314.904 120.875L315.471 119.569L316.471 119.49L319.196 118.059L319.923 117.059L321.388 116.048L321.57 115.753L320.445 113.028L319.526 111.438V110.018L319.412 109.779L317.652 109.62L316.664 109.28L316.539 108.95L316.482 105.611L316.198 105.305L314.438 104.941L314.347 104.555L313.7 104.339L313.745 101.159L314.018 100.796L316.153 100.399L316.777 100.012L317.243 99.4673L317.697 98.377L320.354 96.4804L321.615 94.9472L321.354 94.3907L320.718 93.7548L320.536 92.4828L321.479 92.4146L322.546 92.8348L322.841 92.1421L325.203 90.5862L325.964 90.8019L327.1 92.0739L328.167 92.2329L328.849 91.8127L330.109 90.4726L331.052 90.7565L331.301 91.0291L331.79 91.0632L332.448 91.4834L334.118 93.096L334.583 93.1642L335.742 91.8468L336.309 91.9944L336.73 91.79L337.933 91.7559L338.229 91.9149L339.307 91.3471L339.659 91.3584L341.147 93.1983L342.192 93.5163L343.339 92.8689L345.042 91.5401L345.087 89.371L344.451 87.4744L343.747 87.3381L342.737 86.8611L340.386 86.9746L337.593 85.8617L336.718 84.9985L335.969 83.454L334.685 82.5227L334.118 82.7044L333.97 83.6016L333.686 83.8174L331.392 83.9196L330.189 83.5562L329.507 82.6136L328.69 81.9662L327.736 81.7277L326.646 81.8413L325.328 81.7391L324.011 80.8987L323.693 80.1264L323.455 77.5711L323.829 77.0146L325.169 75.6858L325.396 73.7211L325.658 73.2554L326.623 73.1078L327.213 73.6416L328.304 73.6302L328.565 74.005L328.69 74.6183L329.212 74.9022L329.78 74.9363L330.586 74.8113L331.415 74.3911L331.983 73.7665L332.744 73.369L332.948 72.4605L332.233 70.6093L331.063 69.996L329.121 70.0868L328.701 70.6888L327.815 71.1885L326.521 70.95L323.443 70.8251L322.682 69.9051L322.262 69.7121L321.581 69.678L320.741 69.2351L318.129 69.0647L317.992 68.8376L318.015 67.7587L318.197 67.2022L319.968 67.1L320.207 67.418L320.4 68.1562L320.627 68.2925L320.877 68.1562L321.024 66.0324L321.252 65.7939L322.421 65.3737L323.341 63.7042L324.431 62.8979L324.795 62.3755V61.66L324.545 61.0467L323.205 59.9564L322.989 59.241L322.126 58.9797L321.286 59.1955L320.627 58.6731L319.764 58.6277L319.616 58.0371L319.968 57.3557L320.797 56.5039L322.194 56.538L323.455 56.2314L324.102 57.6396L324.715 57.9463L325.635 57.8781L325.737 57.6283L325.544 56.9014L326.089 55.5613L325.385 54.3007L325.635 53.517L326.589 52.5176L326.736 52.0406L327.281 51.8021L328.145 51.8476L328.678 51.4501L330.143 51.6432L330.45 52.0974L330.904 54.0622L331.415 54.5165L332.21 54.6187L332.8 54.9594L333.141 56.1973L333.493 56.5039L334.106 54.914L334.492 54.3461L335.458 54.0963L336.241 53.6874L336.514 54.4256L337.434 55.3796L337.876 55.0389L338.104 54.4142L338.058 53.9373L338.808 53.5738L338.933 53.7896L338.592 54.2439L338.728 54.437L339.375 54.119L339.989 54.4824L339.285 55.7203L339.251 56.061L340.511 56.4017L340.908 56.8219L341.624 56.8106L342.623 56.7197L342.952 56.4699V55.8907L342.294 54.5278L342.089 53.7215L342.419 53.3013L342.907 53.3126L343.634 52.7107H344.292L345.053 53.3126L346.552 53.5625L346.972 53.2899L347.268 53.4375L349.414 53.4943L350.254 53.0514L350.89 53.006L351.288 52.688L351.662 52.7334L352.798 53.8123L352.401 54.3347L351.129 54.9594L351.083 55.2774L351.753 57.1626L352.026 57.5601L353.002 57.969L353.729 58.5141L354.149 58.5368L354.411 58.0258L354.115 57.2762L354.32 56.7651L354.751 56.2768L355.103 55.3569L356 54.9935L356.296 54.5392L356.33 54.1985L357.329 53.4375L357.67 53.358L358.147 52.4949L358.941 52.1996L359.214 51.8589L359.634 51.7567L360.043 51.1548L359.895 50.7119L359.998 50.4507L360.77 50.587L362.496 50.3939L363.404 50.746H364.46L365.414 51.0299L366.72 50.7573L367.299 50.4507L367.617 50.0418L367.788 48.997L367.436 48.2133L367.583 47.7591L367.765 47.5774L368.537 47.4297L368.798 47.1685L369.4 47.1344L369.525 47.4184L369.82 47.5546L370.831 47.1685L373.125 47.5319L373.522 47.3161L374.715 47.1117L374.908 46.8164L375.43 47.089L375.657 46.6802L376.009 46.8505L378.178 45.976L378.428 45.7035L379.336 45.5217L380.279 44.9766L381.744 44.6359L381.926 44.3406L382.652 44.4656L383.447 44.0567L384.049 44.5905L384.378 44.3633L384.696 44.3974L384.855 44.2157L385.219 44.4656L385.537 44.3406L385.628 43.6592L386.002 43.1141L386.184 43.3526L386.502 43.2731L386.309 43.9772L386.377 44.1589L386.763 44.2271L387.41 43.6706L387.831 42.8642L388.387 43.1027L388.773 42.9437L389.216 43.2731L389.807 43.1595L390.159 43.2504L390.897 42.6371L391.805 42.7393L392.532 42.3759L393.361 42.4099L393.861 42.2282L395.655 42.444L396.166 42.1828L396.404 41.7512L396.382 41.3537L396.563 41.1607L396.961 41.0812L397.267 41.331L397.733 41.4105L398.153 41.1039L398.585 41.0585L399.232 40.7064L399.323 40.2975L399.788 39.9228L400.356 39.8433L400.629 40.0363L402.446 39.5821L402.604 39.8319L402.491 40.0023V41.2629L402.718 41.3424L403.922 41.013L404.978 40.4225L406.341 39.3776L407.249 38.9574L407.624 39.0142L408.691 39.7978L409.588 40.661L410.576 42.0238L413.018 41.9557L413.392 41.4673L413.404 40.979L412.802 38.5826L412.291 37.8104L412.734 36.3908L412.541 35.0506L412.825 34.6872L414.483 33.5288L415.993 32.9155H416.663L418.253 33.3584L418.73 33.2222L418.786 32.6202L418.014 31.564L418.094 30.9394L418.423 30.5306L419.161 30.2466L421.024 30.7577L422.046 30.735L422.897 31.0984L424.192 31.9843L424.76 32.0524L425.237 31.8025L425.804 31.0757L426.145 30.1444L426.213 29.4517L426.622 28.6339L427.973 27.998L428.95 27.9071L429.279 27.9866L429.518 28.3727L429.075 29.9968L429.098 31.0076L429.779 31.5754Z" fill="#1E5EDA"/>
<path opacity="0.7" d="M277.453 342.847L278.225 342.279L278.589 341.45L278.997 340.939L279.77 341.348L280.178 341.813L280.894 342.075H281.927L282.393 342.949L282.132 343.983L282.336 345.732L282.234 346.867L281.666 347.583L282.336 348.968L282.802 350.774L283.631 351.285L284.301 351.955L284.664 352.932L284.698 353.806L273.751 345.879L273.865 344.755L274.33 344.448V343.369L274.591 342.858H275.307L275.92 343.165L276.84 343.199L277.453 342.847ZM295.406 342.029H293.056L293.215 338.043L295.089 337.577L298.768 337.339L301.584 337.657L302.129 338.827L304.241 339.213L306.512 339.292L306.83 339.837H300.959L297.825 341.564L295.406 342.029ZM341.863 276.454L343.68 279.918L346.428 279.498L352.515 287.243L351.561 289.447L357.909 290.446L358.874 291.832L360.543 291.298L354.468 296.056L363.587 294.353L366.21 296.851L369.537 299.089L372.478 298.861L379.019 302.518L381.154 301.201L382.119 302.178L393.191 306.516L395.462 306.573L406.557 312.547L411.156 312.944L415.176 317.487L419.253 319.747L448.074 327.572L456.818 327.084L457.885 327.402L458.237 330.468L457.931 333.091L461.417 335.783L462.087 337.929L461.451 339.338L460.111 341.234L459.418 343.562L459.214 346.822L457.806 351.978L461.996 355.453L465.505 356.952L465.641 378.644L465.21 379.257L464.949 381.165L467.299 383.471L468.639 383.039L471.171 384.459L471.228 385.481L473.761 388.559L479.813 392.886L478.257 394.43L477.406 393.738L476.066 394.283L474.93 395.486L475.396 396.145L476.043 397.826L475.782 401.097L474.839 401.551L472.659 399.654L472.67 404.447L470.57 406.594L470.751 407.604L470.297 410.092L468.06 410.728L468.719 413.646L469.661 413.067L469.309 411.17L470.524 410.478L470.286 411.852L471.569 411.795L471.183 413.408L472.035 415.452L473.602 415.032L473.511 416.031L471.353 417.417L464.04 421.074L458.146 423.254L452.627 427.411L446.416 433.68L443.316 431.772L434.401 441.028L432.482 440.562L432.312 422.641L426.316 425.458L423.148 415.259L422.432 412.363L417.243 407.752L414.563 405.06L411.837 399.041L411.361 398.496L410.6 398.065L409.282 398.087L408.306 398.337L397.87 403.3L397.37 403.391L384.107 402.551L375.51 401.676L372.41 401.176L362.667 402.891L342.613 406.832L342.215 406.798L341.443 406.06L326.044 387.048L323.149 384.13L322.093 380.768L311.759 373.306L312.86 372.33L313.53 371.966L314.303 369.752L314.609 367.537L314.098 365.175L313.167 362.142L312.293 361.064L310.953 360.961L310.487 359.519L309.51 358.69L308.943 356.782V355.442L309.51 354.159L309.454 349.99L308.943 348.139L307.909 347.367L308.17 346.231L308.999 344.323L309.102 342.472L308.273 339.179L307.194 337.998L307.035 335.783L308.17 335.011L308.784 331.774L309.249 331.161L309.51 330.059L312.645 329.287L313.417 328.208L313.78 326.822L315.836 324.914L318.152 324.505L319.742 323.063L321.797 322.291L323.955 321.008L325.34 318.645L325.704 314.886L325.636 312.978L324.784 312.853L323.569 313.83L320.173 313.228L317.141 313.353L314.961 310.684L315.086 306.925L315.449 305.346L313.871 304.858L312.781 303.893L309.749 304.018L309.624 305.108L310.839 305.71L311.929 305.835L313.383 306.925V308.379L312.531 308.867L311.679 309.844L310.464 310.446L309.011 309.719L307.307 309.23V312.751L306.49 313.33L306.183 312.263L306.331 309.23L305.729 308.015L304.661 306.948H303.14L298.132 310.287L297.223 311.502L297.087 313.773L297.746 314.591L298.518 316.294L299.029 317.067L300.573 317.737H301.811L302.845 317.226L304.128 316.862L306.853 316.658L307.466 317.839L308.443 318.611L309.783 319.077L311.486 317.896L312.315 316.862L313.292 316.658L313.496 318.668L315.245 321.598L315.2 323.858L314.734 325.505L312.372 326.993H311.134L308.204 327.56L306.819 327.095L305.536 325.709L304.355 325.039L300.857 324.324L299.108 324.119L298.132 324.687L296.122 326.538L294.578 326.641L293.862 326.232L294.271 324.074L293.805 323.302L293.646 321.916L293.703 320.213L292.829 319.134L291.489 318.872H287.787L287.071 319.031L287.128 320.269L289.547 324.131L290.115 325.414L289.706 326.902L290.217 330.809L289.956 332.353L289.342 333.387L288.627 333.75L287.855 333.341L286.924 336.067L286.106 336.737L285.129 336.374L283.892 336.476L282.654 336.941H281.473L281.314 336.112L281.371 335.033L281.632 333.795L282.915 331.842L283.846 330.809L284.255 329.877L283.324 329.207L282.245 328.639L281.269 329.207L280.088 330.388L278.702 330.491L277.362 330.286L276.749 329.775L276.306 329.605L282.325 322.2L287.174 314.92L289.706 312.138L291.568 309.23L300.46 300.974L307.228 300.417L307.864 293.421L317.107 294.182L324.693 273.865L338.104 270.764L341.863 276.454Z" fill="#1E5EDA"/>
<path d="M90.6951 366.31L90.7859 366.435L91.331 366.106L91.6603 366.254L90.5588 366.958L90.1841 367.423L90.2863 367.844L90.1159 367.889L89.9342 367.389L90.1841 366.492L89.9797 365.209L90.0932 365.073L90.5588 365.697L90.6951 366.31ZM92.2054 362.529L92.5234 362.619L92.8413 362.438L93.1366 362.165L93.3183 361.563L93.5113 362.358L93.8066 362.12L93.8974 362.313L93.7384 363.721L93.8633 364.187L94.8626 364.698L93.693 364.448L93.534 364.755L92.83 364.914L92.8072 364.664L93.3183 364.221L92.7164 363.994L93.0571 363.403L92.9889 363.051L92.2395 363.006L91.3083 361.893L91.2742 361.643L91.842 361.12L91.9329 361.257L91.5922 361.711L92.2054 362.529ZM78.5557 358.747L79.3733 358.951L79.8162 359.36L78.6579 359.519L78.1129 360.246L78.0561 361.109L78.374 361.904L78.4876 362.881L78.7601 363.301L79.0213 363.335L79.1576 362.994L79.2598 363.108L78.9872 363.96L79.5323 364.743L80.8496 365.402L82.0306 364.948L82.2123 364.993L82.2804 365.163L81.8489 366.095L81.7126 366.117L81.3947 365.743L79.8049 365.515L79.0895 365.095L78.2264 363.721L77.4883 361.234L77.9766 359.723L78.0106 358.985L78.5557 358.747ZM84.4607 358.292L85.3465 358.44L85.6417 359.235L85.4714 360.075L85.6645 360.689L85.0853 361.711L85.0626 362.267L84.8468 362.722L84.3472 363.074L84.0179 363.108L83.5636 363.608L83.416 363.948L83.5977 364.425L83.4387 364.55L83.1775 364.334L83.0299 363.698L83.1435 363.392L82.9845 362.722L83.2911 362.063L83.257 361.541L83.1321 361.234L82.6097 360.791L82.7119 360.178L82.3713 359.485L82.8596 358.894L83.6431 358.951L84.4607 358.292ZM135.528 344.267L135.687 344.289L135.857 343.971L136.096 343.903L136.357 344.096L136.959 345.709L136.981 346.402L137.254 347.038L137.129 347.469L137.254 348.151L137.208 348.298L136.448 348.366L136.754 348.821L136.697 348.946L135.562 348.491L135.323 347.799L134.744 346.924L133.983 346.186L133.677 345.652L133.915 345.3L134.96 344.482L135.017 344.346L134.653 344.005L134.619 343.71L135.176 343.937L135.528 344.267ZM139.332 336.146L144.385 337.396L147.36 337.555L148.065 335.794L151.471 336.249L152.948 335.272L154.526 335.056L157.195 333.909L159.432 332.558L160.863 331.183L158.546 329.821L163.565 326.084L164.758 323.801L164.451 322.393L167.858 322.813L168.301 322.086L169.868 321.723L171.219 321.791L172.65 321.45L174.694 320.633L178.032 320.553L182.257 318.907L190.978 317.998L193.42 318.339L198.621 313.183L201.289 316.964L202.72 317.85L203.367 317.646L203.708 317.078L204.344 316.737L205.423 316.885L206.184 319.168L205.831 320.917L206.195 321.927L207.841 322.404L208.977 323.075L210.101 322.302L211.078 322.734L211.657 324.505L213.996 325.21L215.518 324.426L216.551 325.391L218.277 325.266L220.253 326.448L222.252 331.956L225.409 355.317L209.783 360.45L209.84 471.328L206.91 471.215L205.616 472.509L204.98 472.021L204.662 471.953L202.527 472.35L201.698 472.771L201.471 473.395L201.21 473.611L200.892 473.361L200.721 472.839L200.324 472.339L200.097 472.441L200.085 473.055L199.665 473.35L199.211 473.236L198.098 472.578L196.804 471.396L195.327 469.511L194.067 468.489L193.068 467.126L191.035 463.776L189.388 459.892L188.355 458.37L187.128 457.166L186.788 456.621L186.697 456.019L186.901 453.986L185.902 452.544L184.21 450.659L175.784 444.696L172.116 442.277L171.037 441.63L169.959 441.21L164.769 441.369L156.672 442.663L153.016 443.663L146.656 446.468L144.476 447.217L142.864 448.274L135.573 454.815L131.451 458.234L131.485 457.643L132.428 455.417L132.553 454.032L132.518 453.078L132.223 451.942L131.326 450.738L131.496 449.455L130.963 448.887L131.292 446.57L131.701 445.752L133.268 443.844L134.256 442.13L136.243 437.11L136.72 434.748L136.47 433.396L135.925 432.34L134.063 430.216L133.938 429.83L134.358 429.194L134.267 429.762L134.528 430.341L135.698 431.272L136.527 432.385L137.208 434.236L137.765 433.635L138.049 432.862L138.174 431.284L137.969 429.739L137.526 429.376L136.55 429.364L136.073 428.944L135.312 429.262L135.641 428.717L135.164 427.422L132.121 426.525L131.213 426.377L129.452 426.639L128.669 427.206L128.203 427.933L128.067 427.922L126.852 425.935L126.205 425.48L125.739 425.367L124.956 425.401L124.592 425.264L123.332 425.458L121.594 425.98L120.254 426.65L119.8 426.639L119.403 426.264L117.972 423.947L117.813 423.368L116.995 422.096L116.632 420.756L114.088 418.348L114.361 418.053L114.417 417.508L113.963 416.088L112.85 415.986L110.738 416.417L110.466 416.713L109.228 416.656L106.241 417.144L105.628 416.962L105.537 416.486L105.696 415.168L106.582 411.454L106.661 409.035L106.491 407.377L106.128 406.741L105.98 405.685L105.537 404.595L104.515 403.629L104.345 403.096L103.641 402.641L103.379 402.551L103.209 402.755L103.084 402.653L102.233 401.21L101.142 398.666L100.177 397.485L99.3482 393.011L98.2807 391.443L97.9969 391.171L97.0997 390.955L96.6682 390.433L96.8386 388.411L96.5206 386.969L95.8165 385.197L94.681 384.084L92.3076 383.017L90.6383 382.596L86.5275 382.278L85.1648 381.711L83.5863 380.62L82.9277 379.564L82.8255 379.132L82.7687 374.715L82.4735 373.409L82.4962 373.295L83.064 374.226L83.0867 374.658L83.3592 374.601L84.438 371.467L85.2784 371.603L85.7099 371.501L85.9597 371.75L86.6411 371.694L87.629 372.091L88.8668 371.989L89.8888 372.159L90.6156 371.785L91.4218 372.432L93.7157 372.625L94.7377 372.443L95.1465 371.762L95.4418 371.694L95.9074 372.012L97.4631 372.466L98.0877 373.431L98.3035 373.465L98.5306 373.965L99.0416 374.204L99.6321 374.09L99.3595 374.612L99.6207 375.248L101.597 376.611L103.947 376.657L104.64 376.1L105.14 375.396L105.651 375.112L105.832 374.601L107.74 374.101L108.001 374.09L108.104 374.306L107.797 374.794L107.831 375.01L108.069 374.919L108.683 375.6L109.171 375.487L109.409 375.26L109.432 374.896L110.613 375.419L111.34 375.158L111.499 374.908L111.283 374.408L110.443 373.738L109.137 373.159L106.389 373.181L105.526 373.42L105.548 373.034L105.923 372.659L105.844 372.239L105.276 372.625L105.174 372.511L105.219 371.455L104.583 370.16L103.379 368.411L102.653 368.15L101.472 367.037L100.393 366.481L100.359 366.288L99.6889 365.72L99.2801 365.561L99.2233 365.947L98.7236 366.208L97.8265 366.117L96.918 366.265L96.1345 365.811L96.0777 365.504L96.9067 365.788L96.6796 365.447L96.8045 364.891L97.1225 364.425L96.7477 364.141L96.7364 363.63L98.5306 361.143L98.8258 360.95L99.7684 360.518L100.109 360.484L100.688 360.757L100.915 360.666L102.721 358.804L103.482 358.406L103.879 358.44L104.64 358.872H105.06L105.219 357.997L104.958 355.555L105.185 354.431L105.344 354.056L105.662 353.806L105.923 352.682L106.65 351.456L107.184 351.047L107.479 350.456L107.933 350.343L108.694 349.264L109.046 349.037L109.5 349.673L109.761 349.797L111.635 349.695L112.373 349.502L112.623 349.116L113.407 348.9L114.94 347.969L115.144 347.469L115.905 346.504L116.348 346.538L116.495 346.833L116.95 347.094L117.234 346.879L117.938 347.356L119.153 347.492L119.97 348.105L120.39 348.185L121.526 348.071L122.718 347.594L123.559 347.571L124.683 347.935L126.33 347.696L127.794 347.719L128.453 347.594L129.441 347.129L130.088 347.151L131.394 346.811L132.371 347.185L134.313 347.276L134.608 347.583L134.971 348.446L135.857 349.116L136.868 349.23L137.186 349.173L137.174 348.878L138.582 349.559L139.377 349.604L139.389 349.298L137.878 348.605L138.185 348.491L138.276 348.173L138.015 347.765L137.981 347.185L137.526 346.606L137.401 346.163L137.39 345.334L137.595 345.039L138.764 345.539L139.843 346.356L140.99 346.538L141.91 347.628L142.977 348.378L143.125 348.196L142.114 347.276L141.035 345.618L140.706 345.482L139.877 345.573L139.434 344.88L138.049 344.221L138.185 343.858L138.696 343.551L138.48 343.199L138.866 342.949L139.707 342.608L140.365 342.518L141.149 342.699L141.274 342.563L140.797 341.677V341.166L140.411 341.28L139.945 342.075L138.9 342.563L138.412 342.961L138.242 342.858L138.367 342.495L138.117 342.325L138.219 341.757L137.538 341.666L138.117 341.507L137.719 341.302L137.708 341.109L138.423 340.485L138.889 340.394L138.844 339.928L139.627 339.849L139.877 340.314L140.661 340.791L140.842 340.746L139.604 339.065L138.526 338.213L139.071 338.066L139.525 337.623L139.468 337.35L139.082 337.339L139.093 337.055L139.695 336.907L139.775 337.089L140.036 336.975L140.059 337.134L140.274 337.169L140.649 336.987L140.876 336.657L140.309 336.771L139.332 336.146Z" fill="#1E5EDA"/>
<path d="M667.74 40.9108L668.739 40.8654L669.216 41.1266L669.466 41.5355L669.67 43.1709L668.966 44.2498L669.125 45.4991L669.034 45.9874L668.126 47.0209L667.161 47.5547L666.968 48.7812L666.286 49.0424L664.89 50.0646L664.469 49.8601L663.879 48.7699L663.129 49.0651L662.618 49.0084L661.699 48.4632L660.54 48.3269L660.075 48.3383L659.87 48.4859L659.791 49.1106L659.972 49.8601L661.437 51.8362L661.63 53.4035L662.528 55.073L667.263 59.6725L685.069 74.0845L691.428 80.1832L692.586 81.546L696.572 88.1444L700.047 93.4141L704.169 100.898L704.328 100.739L706.826 105.577L706.645 105.702L713.788 118.331L715.093 121.375L717.047 124.396L717.319 125.157L718.205 126.372L719.704 129.347L719.897 129.234L720.113 129.654L719.942 129.79L721.691 133.47L722.123 133.902L722.1 134.208L724.303 138.808L722.645 139.001L722.055 142.465L718.671 143.328L719.261 145.259L716.411 148.052L715.797 147.314L711.38 147.962L711.482 150.074L712.618 149.881L712.277 151.3L712.482 152.981L711.335 152.584L706.815 155.457L704.022 156.332L703.522 155.185L702.171 155.786L701.887 157.058L699.502 158.33L698.991 157.922L697.106 159.75L699.752 163.577L700.354 167.098L702.034 167.609L703.056 169.154L704.851 170.562L706.327 171.323L710.892 174.355L710.097 182.089L712.186 182.68L712.822 187.177L711.312 188.744L707.519 195.638L704.476 197.035L700.899 196.149L691.417 192.197L690.111 189.903L688.646 190.766L686.102 188.949L687.862 186.53L686.556 181.885L682.923 179.557L678.312 179.375L674.406 175.241L670.147 176.343L667.876 178.557L666.502 184.031L666.638 187.427L665.809 188.881L663.334 187.404L660.847 187.677L659.109 188.676L658.598 188.29L657.576 191.038L656.532 191.288L653.67 189.608L645.914 191.743L644.937 190.698L643.881 191.107L643.575 192.22L642.791 192.663L636.318 192.447L635.251 193.878L630.686 197.205L628.472 197.864L628.051 196.921L626.632 196.99L625.871 194.389L627.279 193.446L627.245 192.708L630.254 191.436L630.482 191.765L631.674 191.379L631.344 190.743L632.094 190.425L631.731 189.051L629.187 188.04L628.585 186.325L629.357 185.871L627.654 182.941L626.382 182.884L623.293 179.591L621.749 183.463L620.284 179.704L621.556 178.716L620.341 177.194L616.73 176.49L616.434 175.559L614.652 177.058L611.472 177.319L608.213 178.171L604.965 174.594L606.6 173.049L605.646 171.573L606.248 170.323L607.429 170.051L607.304 166.61L607.793 163.986L608.769 160.988L607.804 159.5L607.713 156.934L600.105 154.174L602.489 151.357L602.819 148.836L607.736 145.622L609.984 146.258L610.847 145.179L612.028 145.054L612.573 144.225L610.416 142.987L607.815 142.749L606.691 140.148L602.648 142.135L602.762 135.446L603.455 134.628L606.555 132.187L607.906 131.926L607.441 130.937L606.93 108.269L605.771 108.099L605.703 107.463L605.578 106.032L601.456 105.725L600.332 102.749L600.786 101.398L601.808 102.806L603.421 103.045L604.363 105.066L605.453 104.601L605.147 101.103L606.555 100.535L606.339 98.6156L607.463 98.0136L606.225 94.6633L604.045 95.4243L603.035 95.1063L601.706 98.6951L598.719 98.7405L598.163 95.8217L599.73 93.9819L599.003 92.4487L596.562 94.1636L596.028 93.6071L597.345 92.5282L598.186 90.4272L599.446 88.5419L599.298 87.2359L600.57 86.6226L600.502 85.8163L601.638 85.203L600.604 83.5903L599.457 84.3626L599.105 83.5108L597.845 83.9764L597.765 84.7714L594.609 87.5312L594.063 84.249L594.574 80.7624L596.437 81.671L597.277 80.8078L595.46 77.9345L594.313 75.3679L597.175 72.5627L597.55 70.9046L598.685 71.1885L599.242 68.7808L600.786 68.9625L602.739 70.1891L604.272 67.8836L608.042 68.7354L607.815 71.3021L609.746 71.4838L610.155 69.5645L611.744 69.9052L611.517 70.6661L612.312 70.9841L612.301 72.4491L612.698 72.6876L612.766 72.9488L612.619 73.8006L615.31 74.8114L617.093 70.4162L616.139 69.8597L616.798 66.5776L620.534 67.1909L621.522 63.8633L622.771 64.0677L623.407 63.7497L623.77 63.1137L624.099 61.66L624.293 61.501L625.042 61.7736L628.029 61.7509L628.335 61.9326L628.812 62.8298L629.312 62.5913L631.935 60.513L633.23 59.2864L634.218 58.8435L636.897 56.7652L638.442 55.9361L639.078 55.1638L639.066 54.3916L637.193 51.7113L640.123 50.2008L641.678 50.8595L641.928 50.8141L655.476 44.4996L655.566 44.1703L654.999 43.4662V43.2504L655.623 41.4106L655.816 41.3538L658.121 42.3873L660.506 42.5803L661.574 42.5235L662.766 41.7399L664.833 41.7853L666.082 40.502L666.672 39.1051L667.842 39.0029L669.386 38.0716L670.59 37.5719L670.988 37.6287L671.135 38.6054L671.044 38.7757L667.706 40.5929L667.74 40.9108Z" fill="#1E5EDA"/>
<path opacity="0.3" d="M499.776 2.54702L500.333 3.87579L500.617 4.02343L502.048 3.64865L503.524 2.96723L504.466 2.83095L505.205 2.95587L507.021 3.79629L507.657 3.53508L509.304 3.43286L510.962 3.72815L513.233 4.86384L514.562 5.29541L515.232 5.73833L515.72 6.3516L516.504 8.64571L516.992 9.11134L518.116 9.54291L519.411 9.71326L521.216 11.5985L521.591 11.7689L523.079 11.8143L523.453 11.6212L524.589 10.3379L527.008 9.29306L527.337 8.89556L528.109 6.71503L528.654 6.13582L529.517 6.14718L530.948 6.97624L532.118 6.99895L532.549 6.81724L533.231 6.04497L533.742 5.81783L535.945 5.38626L536.353 5.46576L536.569 7.03302L537.092 8.08922L537.886 9.66784L538.795 10.4969L539.09 11.8597L539.874 12.6547L540.635 14.1311L540.794 15.0851L540.612 17.6972L540.759 19.0714L540.283 20.2298L540.203 21.1951L540.294 21.5699L541.339 23.0577L541.418 24.9089L541.6 25.5789L542.338 27.0213L543.326 28.0775L545.518 28.6453L546.858 29.7015L546.96 30.0082L546.982 31.53L545.256 32.0638L544.859 32.3818L544.689 32.7452L544.461 34.4601L544.586 36.0501L544.893 38.117L545.427 39.9682L545.234 41.49L544.779 42.6484L544.586 42.8074L544.234 42.7847L542.315 42.41L540.964 41.6945L540.782 41.7285L540.646 42.0011L540.657 43.4434L540.816 43.7841L541.214 44.1021L542.361 44.3861L542.588 44.7608L542.724 45.6013L541.918 46.6915L541.838 47.0209L542.088 47.407L542.747 47.8045L543.087 48.2134L543.405 48.9288L543.542 50.1895L543.882 50.4847L544.689 50.7232L544.95 50.6324L546.608 49.1901L547.119 48.1111L548.107 47.9067L551.354 48.9288L551.57 49.4286L551.423 50.303L551.65 50.7119L553.194 50.4166L554.75 50.939L555.261 50.5529L556.192 50.2917L556.76 49.5989L556.737 48.8948L556.294 47.5887L556.692 46.2259L557.214 45.465L560.087 45.8284L562.858 46.4417L563.641 47.089L563.698 47.8272L564.482 48.2701L564.414 48.9856L565.958 49.8601L566.128 49.8033L566.48 49.2355L566.628 47.8499L565.901 47.0777L564.186 46.1691L564.504 45.0334L565.152 43.9431L564.595 43.0459L563.562 42.2396L563.187 41.3878L563.289 41.2175L563.766 41.1039L565.379 41.1266L566.242 41.3197L568.138 42.7734L568.581 44.1362L568.422 45.181L569.444 45.8284L568.922 47.4524L569.138 47.7023L571.102 48.9856L573.192 49.5648L573.26 50.6324L571.908 50.3371L571.545 50.8027L570.478 50.8595L570.341 51.4728L570.762 52.0974L570.739 52.5176L571.568 53.165L571.59 53.3467L570.659 56.538L571.806 57.7759L572.93 58.1621L573.214 58.0144L574.111 55.8452L574.554 55.1752L578.256 56.6743L578.018 55.0616L576.996 53.0514L575.928 52.8356L574.986 52.8924L574.577 53.1877L573.816 53.0401L574.339 50.6892L575.315 50.2008L575.588 49.7693L579.585 50.1213L580.323 50.2463L580.88 50.8027L583.957 51.1094L583.889 52.7789L585.32 53.006L585.91 54.9367L586.239 55.1411L588.806 55.6862L590.543 56.2654L590.748 56.538L593.223 56.4472L593.394 56.1632L593.246 55.4023L593.405 55.1638L594.109 55.425L595.006 56.1859L595.994 56.6743L596.176 56.5834L596.221 56.2882L595.642 54.948L595.653 54.5619L597.357 53.994L598.288 53.2104L598.515 52.688L598.208 52.1088L598.333 51.9952L599.639 52.1315L599.685 52.5404L600.911 52.7561L600.332 56.6516L599.605 59.9337L594.62 59.1842L593.882 60.5584L594.427 61.7509L593.677 62.1029L592.054 62.4323L592.315 63.5112L591.633 66.4186L590.089 66.6684L590.112 67.8382L590.589 67.929L590.611 68.0653L589.816 70.6888L592.156 71.5292L592.394 71.9608L593.201 72.2106L593.212 72.8466L592.735 74.2321L593.121 74.6978L594.313 75.3678L595.46 77.9345L597.277 80.8078L596.437 81.671L594.575 80.7624L594.064 84.249L594.609 87.5312L597.766 84.7714L597.845 83.9764L599.106 83.5108L599.458 84.3626L600.605 83.5903L601.638 85.203L600.502 85.8163L600.57 86.6226L599.299 87.2359L599.446 88.5419L598.186 90.4272L597.345 92.5282L596.028 93.6071L596.562 94.1636L599.003 92.4487L599.73 93.9819L598.163 95.8217L598.719 98.7405L601.706 98.695L603.035 95.1062L604.045 95.4242L606.226 94.6633L607.463 98.0136L606.339 98.6155L606.555 100.535L605.147 101.103L605.453 104.601L604.363 105.066L603.421 103.045L601.808 102.806L600.786 101.398L600.332 102.749L601.456 105.725L605.578 106.032L605.703 107.463L597.164 106.827L595.585 103.794L593.939 103.874L593.666 102.42L590.668 102.488L586.444 100.342L583.616 101.546L583.003 95.0154L582.072 93.9592L582.061 91.2676L581.595 90.0978L580.845 90.166L580.13 91.1881L577.745 91.2108L575.69 92.2329L574.747 91.3471L570.489 92.2897L569.456 94.9927L564.232 95.3902L557.793 94.5838L557.498 93.1528L556.431 91.949L556.408 90.6997L557.816 90.0638L557.112 88.1217L557.827 85.5323L558.713 84.2036L554.137 79.2292L554.273 77.8323L552.024 77.7755L551.286 79.2633L549.912 79.4564L549.39 80.1832L548.777 80.2854L547.948 81.1485L545.995 81.1258L545.756 80.4671L542.19 79.8311L542.52 77.6733L542.224 77.6506L542.315 76.5603L532.992 76.8215L532.458 79.8993L530.46 80.1946L530.869 82.8748L528.722 83.1587L528.393 81.4098L526.145 78.5705L526.031 77.9345L525.259 77.8777L524.918 78.4683L520.603 78.5819L521.262 78.0027L521.171 76.9124L522.102 76.8329L521.852 75.8676L522.806 75.3224L522.613 73.2782L521.034 73.9255L518.298 73.2327L517.798 73.9709L517.049 73.5962L517.582 72.3923L517.332 68.6105L516.117 68.1902L515.902 66.4413L511.11 66.3618L510.281 67.2476L509.202 67.3158L508.679 68.372L507.453 68.1107L507.044 69.9619L506.113 70.0528L506.488 71.8018L507.714 72.063L506.999 73.7211L505.477 73.2895L505.42 71.5633L505.023 70.2799L504.103 70.0414L503.842 69.0874L502.456 68.8149L502.388 67.2363L500.219 67.0659L500.287 68.9625L497.176 69.1897L497.074 68.0767L494.905 67.9177L494.712 68.8376L493.008 68.7127L493.735 69.8597L493.553 70.473L494.144 71.1431L493.644 71.7336L490.397 71.6428L490.465 73.5167L491.543 73.4485L490.862 74.8L490.283 74.1299L489.159 74.9817L489.113 75.913L488.477 76.1742L487.546 76.265L486.876 77.2985L488.466 79.604L488.568 80.8533L489.783 81.2621L490.476 82.7045L492.94 82.8975L492.656 85.5096L494.189 85.6345L494.576 86.8952L494.496 88.4397L493.712 88.6896L495.007 90.484L491.612 93.6185L492.656 97.2414L491.441 96.9915L493.315 99.1266L491.43 100.069L490.828 99.8648L489.851 100.864L489.091 100.807L488.716 102.159L487.796 102.25L486.218 103.204L485.797 105.316L485.184 105.418L484.628 107.213L482.198 106.883L481.255 107.429L480.392 109.348L477.178 109.28L477.667 111.756L479.018 112.301L479.268 113.38L476.508 116.389L475.634 115.719L474.964 116.889L475.532 117.684L474.249 118.956L473.647 118.615L471.319 116.48L468.173 115.208L466.879 113.595L461.973 113.732L462.223 121.329L457.556 119.671L456.147 120.478L453.706 120.171L451.469 118.967H444.394L444.235 115.469L440.034 116.117L436.74 117.582L434.867 113.652L431.312 113.436L431.585 101.818L433.936 101.205L433.788 97.0369L434.254 97.071L434.072 93.6639L432.982 93.5958L432.187 89.9843L433.163 88.8031L435.491 88.9621L436.933 87.8151L440.17 88.4965L440.726 86.0434L437.399 83.9651L437.172 74.1299L433.447 73.7325L432.482 70.8478L433.47 69.5077L435.264 67.7473L435.219 61.7736L432.391 62.3868L430.086 54.9821L435.855 51.9384L437.853 51.7454L438.478 51.1435L437.274 47.9521L435.73 47.8045L431.562 45.1924L435.798 43.6819L433.288 36.7769L433.924 35.8683L433.459 35.1869L432.323 30.8826L437.74 28.8043L444.621 27.1121L446.347 27.4301L447.369 26.0786L447.721 25.8856L451.117 25.3859L453.252 25.5562L454.149 24.6022L455.727 24.4205L458.362 23.7845L458.612 23.5233L458.827 22.3195L459.1 22.0242L459.588 22.081L460.565 22.6488L462.893 22.5693L464.358 23.1145L464.937 22.9328L465.402 22.5693L466.231 22.558L468.991 21.4109L469.332 20.7409L469.661 19.1395L470.002 18.6398L470.728 18.0379L471.296 17.8108L472.205 17.8562L474.726 19.1055L476.406 18.6739L478.655 18.5376L478.984 18.1969L478.746 17.4019L479.041 16.0618L479.643 15.1419L480.551 14.2788L479.927 13.7223L479.654 13.1885L478.689 12.0642L478.507 11.7007L478.677 10.8262L478.11 9.92905L478.132 9.73598L479.813 9.70191L480.631 9.33848L480.949 9.41798L481.777 10.0994L482.061 9.98583L482.391 9.5202L482.765 9.38391L484.844 9.62241L486.967 9.16813L487.433 9.63376L487.819 9.66784L488.182 8.99778L488.477 7.28287L488.693 6.91945L489.318 6.62417L489.727 6.16989L489.908 5.30676L490.249 4.7957L490.181 3.83036L490.68 3.25115L491.089 3.11487L492.145 3.34201L495.666 5.6929L496.131 5.84054L496.381 5.6134L496.563 5.09098L496.233 3.78493L495.609 3.0808L495.257 3.01266L494.712 3.27387L494.507 3.12623L494.405 1.5249L494.587 0.786694L495.143 0.286987L495.95 0.309701L497.483 0.775337L499.322 1.93375L499.776 2.54702Z" fill="#1E5EDA"/>
<path opacity="0.4" d="M728.686 148.041L729.129 148.745L730.639 152.323L734.08 159.171L734.284 159.875L737.055 165.451L737.453 166.61L737.623 166.167L737.907 166.962L739.406 169.585L740.337 171.618L740.03 169.426L740.133 168.404H740.473L740.632 169.029L742.847 169.017L742.801 167.075L743.006 166.439L743.857 166.337L744.13 165.712L745.697 165.667L745.754 165.44L746.06 165.36L746.901 165.394L748.07 164.066L748.933 164.054L748.854 163.384L749.149 162.067L749.138 160.341L749.058 159.625L748.207 158.728L748.309 155.957L749.013 155.798L752.317 155.923L752.499 155.378L752.51 153.844L752.851 152.89L753.396 152.368L755.895 153.106L756.678 153.424L757.325 153.935L758.518 154.185L758.381 154.594L758.643 154.923L760.63 155.662L761.766 156.525L762.311 156.161L762.878 155.253L763.378 155.434L763.821 156.105L763.832 157.456L763.355 159.659L762.322 161.306L762.197 162.476L761.879 163.305L761.981 164.577L764.116 164.645L767.739 163.271L769.249 163.293L769.34 163.759L769.533 163.782L769.612 163.964L769.646 164.872L769.998 165.02L770.203 165.974L769.726 166.621L770.01 167.189L770.509 167.28L771.157 168.972L771.191 169.404L770.544 170.744L770.532 171.425L771.191 171.584L774.268 171.72L777.448 171.107L777.595 171.005L777.698 169.631L777.823 169.528L778.141 169.699L778.107 170.278L779.628 169.392L782.388 169.79L782.83 169.983L784.625 171.55L785.772 171.902L786.998 171.777L787.43 171.539L788.1 170.71L788.429 170.619L789.451 170.721L790.496 170.539L791.415 170.8H792.324L793.618 171.289L794.334 171.323L794.743 171.198L796.98 169.767L797.922 168.802L798.138 168.302L798.161 166.61L798.501 165.099L799.387 164.849L801.34 165.644L802.612 165.951L803.805 166.03L804.384 165.678L804.759 165.042L806.36 163.475L806.598 162.862L806.451 162.021L806.746 161.851L807.336 161.931L807.586 162.203L807.995 162.317L808.302 163.055L808.438 163.18L808.631 163.123L808.881 163.543L809.88 162.782L811.163 162.657L813.116 163.123L813.73 162.646L813.287 163.259L813.446 163.646L815.058 164.35L815.853 164.247L817.057 164.531L818.329 165.122L819.884 166.473L821.531 166.655L822.156 166.882L822.587 167.178L825.494 170.471L825.846 172.606L826.073 173.015L827.504 174.571L828.186 175.866H828.356L829.389 176.82L830.525 178.432L831.547 179.409L831.865 180L831.99 180.477L831.388 181.51L831.354 182.157L832.399 185.417L832.364 185.917L831.899 186.939L831.91 187.336L832.512 188.46L833.875 190.016L834.136 190.175L835.771 190.107L836.861 189.165L837.247 189.131L839.053 190.777L839.78 191.118L841.426 191.459L842.017 191.845L842.937 192.776L843.368 192.981L844.674 193.105L845.003 193.571L845.106 194.4L846.707 194.434L847.263 194.605L848.717 195.797L849.33 196.774L849.512 197.614L849.251 197.932L848.74 197.591L848.501 197.864L848.569 198.364L848.263 199.113L848.342 200.419L848.671 201.078L849.114 201.396L851.068 201.987L851.363 202.748V203.508L853.089 206.654L853.282 207.324L853.35 208.153L853.043 209.46L853.146 209.891L853.441 210.413L854.372 210.822L854.894 211.674L855.939 211.572L856.552 211.981L856.791 212.446L857.54 212.208L858.029 212.56L858.46 212.208L858.744 211.629L859.596 211.265L860.913 211.208L862.298 211.685L863.116 212.639L863.627 212.787L865.364 212.321L866.08 212.503L866.977 213.082L869.021 212.878L869.282 212.935L869.543 213.275L869.248 214.525L869.362 214.809L870.35 215.183L871.542 214.275L872.167 214.104L873.12 214.15L874.336 215.99L874.529 216.024L875.301 215.342L875.062 214.252L875.982 213.06L875.914 212.106L876.05 211.901L878.719 210.947L880.195 210.016L881.512 208.188L882.739 207.358L883.193 206.632L883.693 206.518L884.204 206.041L884.533 205.451L884.192 204.871L884.317 204.417L888.496 204.428L888.553 204.735L887.713 206.473L887.735 207.029L888.053 207.563L887.406 208.119L886.191 208.801L885.532 208.596L884.488 209.925L884.454 210.868L884.771 211.947L885.271 212.458L886.429 212.265L888.462 213.219L888.519 213.378L888.087 213.809L888.939 214.513L888.587 215.66L888.712 216.421L890.813 217.614L890.983 219.011L890.688 219.42L890.665 219.76L891.312 220.533L891.551 221.35L892.085 221.6L892.845 221.543L893.652 222.929L897.002 223.224L898.739 224.28L899.023 224.712L899.716 227.642V228.198L899.364 228.142L898.762 227.676L897.717 227.71L897.047 227.04L895.798 226.484L892.141 228.176L891.131 228.198L890.313 227.699H890.007L889.416 228.312L889.064 229.857L887.395 230.913L886.884 231.549L886.725 231.855L886.668 232.809L886.963 234.399L888.655 236.546L888.667 237.284L887.52 238.147L887.361 238.42L887.247 239.113L887.747 240.067L887.61 241.066L886.248 242.61L885.896 243.599L885.589 243.837L884.76 244.064L884.488 245.064L884.067 245.563L883.761 246.778L882.727 246.994L880.343 248.391L879.378 247.88L878.866 248.107L877.799 248.175L876.868 249.391L875.517 250.345L874.426 250.333L871.122 249.89L870.043 250.504L868.942 250.22L868.033 250.594L867.261 250.674L864.865 252.639L864.229 253.854L864.127 255.114L862.946 258.113L862.208 259.544L862.117 260.668L862.242 261.963L861.81 263.064L861.719 263.825L860.833 265.574L860.697 266.687L861.821 272.899L862.446 277.533L862.06 280.395L862.866 282.53L864.149 284.359L864.342 285.085L863.979 286.732L864.252 287.709L864.115 289.765L863.979 290.173L863.695 290.389L861.935 290.56L861.469 291.071L861.151 292.842L860.504 294.239L860.436 295.307L858.585 295.125L857.2 295.5L856.564 295.261L855.871 295.716L855.19 295.216L853.679 295.488L852.953 296.999L850.761 298.509L850.307 299.373L849.693 299.668L848.819 299.679L848.229 299.974L847.933 301.349L846.945 301.905L845.923 301.882L844.492 302.791L844.311 302.768L844.038 302.382L842.221 302.552L842.051 302.371L842.13 302.189L842.971 301.735L843.391 300.735L844.05 300.168L843.732 299.872L843.686 299.35L843.118 299.1L842.925 298.282L842.255 297.34L841.847 297.067H841.358L840.688 297.34L839.155 297.317L837.906 297.93L836.907 297.624L836.532 297.022L836.191 296.885L834.942 297.306L834.136 297.09L831.467 297.226L830.729 297.385L829.571 297.953L828.015 298.362L827.572 298.339L826.221 297.362L824.733 297.34L823.462 296.749L821.463 296.261L820.157 296.249L817.488 295.341L816.932 295.011L816.148 294.126L814.786 292.967L813.707 293.274L812.435 291.604L810.084 291.468L808.54 290.003L806.371 289.946L805.86 290.049L805.383 290.378L804.566 295.409L804.157 296.374L803.294 296.817L802.851 299.214L802.283 301.19L800.455 305.267L800.069 306.652L799.512 310.355L798.592 313.66L795.413 320.201L794.811 321.791L794.13 324.335L793.777 329.65L793.085 331.24L791.892 333.353L791.097 335.817L789.451 339.485L789.031 340.712L788.656 342.654L788.713 343.347L786.43 344.164L785.624 343.46L785.351 341.666L786.033 336.896L782.456 333.001L780.73 326.47L773.417 317.896L774.2 316.862L773.235 317.055L772.928 316.715L774.041 315.886L774.45 314.773L773.928 314.795L773.212 316.113L772.44 315.533L771.668 315.499L770.93 315.34L771.759 314.046L771.111 314.034L770.123 315.431L769.408 314.602L768.761 312.978L767.523 313.785L766.478 313.819L765.24 311.933L758.381 311.763L751.965 308.174L744.414 304.858L744.505 302.587L739.792 300.633L729.288 304.301L722.361 294.591L712.538 295.693L711.459 292.922L708.677 292.672L707.576 291.377L704.941 289.662L701.216 286.528L697.662 291.059L694.846 288.095L691.609 291.729L685.909 290.457L685.307 291.57L683.104 292.558L680.503 291.286L679.129 292.138L678.062 295.08L674.78 293.853L672.634 292.263L671.487 290.31L669.511 289.288L671.248 288.629L672.191 286.335L672.077 283.848L674.167 283.518L676.177 284.404L675.938 282.723L674.78 277.726L674.28 277.499L673.826 276.193L675.155 273.252L676.245 268.607L677.335 268.652L677.54 265.926L679.05 265.915L677.733 264.018L681.843 262.519L680.276 261.27L678.051 261.44L675.212 258.851L675.791 257.147L677.733 257.068L678.21 255.898L677.165 255.58L673.713 255.671L673.406 254.217L671.498 253.331L670.681 251.651L672.429 251.117L672.18 249.391L673.327 248.334L674.451 248.244L676.143 248.823L680.208 244.643L680.185 243.235L681.117 239.601L680.208 236.898L671.169 238.386L669.613 235.285L670.124 233.105L669.931 231.799L671.771 230.845L672.225 231.492L674.337 230.595L672.202 228.369L670.419 227.335L670.363 225.2L667.047 222.463L665.184 221.85L665.241 220.714L663.47 218.681L663.799 216.739L669.011 214.229L674.757 212.117L676.722 209.028L677.176 207.245L676.597 205.689L677.108 203.622L676.438 202.623L677.051 199.999L679.061 199.942L680.038 199.261L683.161 197.83L684.898 195.411L688.146 192.708L688.646 190.766L690.11 189.903L691.416 192.197L700.898 196.149L704.475 197.035L707.519 195.638L711.312 188.744L712.822 187.177L712.186 182.68L710.097 182.089L710.892 174.355L706.326 171.323L704.85 170.562L703.056 169.154L702.034 167.609L700.353 167.098L699.752 163.577L697.106 159.75L698.991 157.922L699.502 158.33L701.886 157.058L702.17 155.787L703.522 155.185L704.021 156.332L706.815 155.457L711.334 152.584L712.481 152.981L712.277 151.301L712.618 149.881L711.482 150.074L711.38 147.962L715.797 147.314L716.41 148.052L719.261 145.259L718.67 143.328L722.054 142.465L722.645 139.001L724.303 138.808L728.686 148.041Z" fill="#1E5EDA"/>
<path opacity="0.4" d="M458.26 330.468L500.004 331.127L504.001 337.657L505.965 344.13L508.997 351.853L511.723 363.653L512.983 365.447L514.675 374.749L516.663 388.218L515.834 388.775L515.436 391.398L513.903 393.794L513.54 397.304L510.769 404.22L510.826 404.856L507.851 409.115L510.167 409.933L509.554 410.887L510.508 413.839L511.7 413.317L512.2 413.351L511.95 414.453L513.483 414.214L515.822 415.918L516.504 414.237L517.003 414.282L517.435 416.065L519.422 416.247L519.967 417.042L520.751 416.735L521.296 417.417L520.898 418.746L522.023 419.836L522.84 419.291L523.408 419.722L522.613 421.131L523.306 421.687L524.021 422.005L523.453 422.573L524.203 423.629L523.908 426.082L523.976 427.559L524.407 428.092L523.862 429.523L526.179 430.954L527.803 430.863L528.052 431.863L529.358 432.351L529.483 433.328L530.199 433.521L530.471 434.271L531.107 435.168L532.311 435.395L533.81 438.018L535.57 437.553L535.967 438.268L535.57 439.392L536.524 439.438L536.535 440.131L537.773 441.255L537.489 441.823L537.466 442.561L537.671 443.061L537.569 443.492L537.853 443.731L538.977 443.64L538.091 444.753L536.762 445.559L536.433 445.571L535.808 445.094L535.082 445.775L534.684 446.434L533.197 448.069L533.129 448.671L532.095 451.272L531.539 451.385L530.96 450.852L530.596 450.749L530.573 449.682L530.312 449.25L529.109 448.58L527.825 447.456L527.326 447.445L527.144 447.66L526.894 448.853L526.281 449.591L525.384 450.284L525.566 452.021L524.385 452.782L523.567 453.044L522.636 454.088L521.795 455.894L519.638 457.109L519.138 458.279H518.809L518.57 457.552L518.059 457.62L517.151 459.665L515.754 460.233L515.186 459.744L514.596 459.585L513.801 460.085L512.302 460.244L511.484 460.959L509.929 461.38L508.134 463.163L507.589 464.298L506.318 464.673L505.523 465.355L505.171 465.968L505.364 466.388L505.92 466.751L505.761 467.24L505.568 467.331L504.512 467.16L503.24 467.467L502.275 467.103L500.867 467.274L500.322 467.603L499.799 468.739L498.743 469.341L498.198 470.704L497.88 470.919L497.222 470.556L496.972 470.635L496.029 472.101L495.938 473.395L495.177 474.122L495.03 474.985H494.519L494.201 475.201L493.213 476.269L491.123 479.301L490.771 480.096L490.624 480.97L489.988 481.55L489.114 481.89L488.432 482.458L488.182 481.686L489.034 481.107L488.409 480.823L488.023 481.004L487.705 480.879L487.467 480.153L486.343 480.857L486.195 480.573L483.844 480.425L483.856 481.038L485.582 481.152L486.002 481.811L485.593 482.242L486.059 483.446L485.65 486.99L487.217 489.159L487.751 490.726L488.898 491.339L489.307 492.339L487.251 493.156L486.104 493.077L485.718 493.611L483.39 492.929L483.651 492.384L482.743 491.634L481.846 491.873L479.893 490.204L478.087 489.568L476.372 487.648L473.624 486.024L472.455 485.706L471.773 484.752L472.125 483.662L474.067 483.594L474.022 481.107L474.726 480.402L474.067 478.756L474.737 478.052L475.918 477.802L475.543 477.575L475.259 477.7L474.601 477.086L473.147 478.029L472.75 477.461L472.046 478.086L470.467 476.609L469.491 475.428L469.071 475.315L468.401 474.701L461.053 474.474L459.861 474.769L459.441 474.713L459.032 474.44L443.497 473.282L441.839 454.361L430.336 452.964L430.438 444.015L430.881 443.492L430.926 440.346L432.471 441.017L432.505 440.574L434.424 441.039L443.338 431.795L446.438 433.703L452.65 427.434L458.169 423.288L464.063 421.108L471.387 417.451L473.545 416.065L473.636 415.066L472.068 415.486L471.217 413.442L471.603 411.829L470.32 411.886L470.558 410.523L469.354 411.205L469.706 413.112L468.764 413.692L468.105 410.773L470.342 410.126L470.797 407.638L470.615 406.628L472.716 404.47L472.704 399.677L474.885 401.574L475.827 401.12L476.077 397.849L475.43 396.168L474.964 395.509L476.1 394.305L477.44 393.76L478.291 394.442L479.847 392.897L473.783 388.57L471.251 385.492L471.194 384.459L468.662 383.039L467.322 383.471L464.971 381.177L465.232 379.269L465.675 378.644L465.539 356.952L462.03 355.453L457.84 351.978L459.236 346.822L459.452 343.562L460.134 341.234L461.474 339.338L462.109 337.929L461.439 335.783L457.953 333.091L458.26 330.468Z" fill="#1E5EDA"/>
<path opacity="0.9" d="M97.2246 139.217L99.8023 139.296L100.154 139.046L101.017 139.671L102.255 139.376L102.414 139.535L102.925 139.421L103.05 139.58L103.504 139.546L103.527 139.308L105.537 138.899L106.071 139.342L106.162 139.841L107.558 140.182L107.717 141.579L107.683 142.896L107.411 143.271L105.526 143.373L105.105 143.441L104.992 143.635L105.083 144.112L105.571 144.441L105.741 144.782L105.73 145.599L106.57 145.951L108.24 145.883L109.114 146.224L111.101 145.225L111.658 144.441L111.646 143.623L112.135 143.453L112.578 144.407L113.202 144.282L113.486 144.395L113.895 145.088L113.282 146.303L113.497 146.656L113.963 146.712L115.337 145.997L115.973 145.372L117.074 144.952L117.177 144.793L116.359 142.84L116.325 142.397L116.745 141.397L118.551 139.126L120.595 139.262L122.298 140.227L123.15 139.966L124.07 140.08L124.808 139.66L125.239 139.024L125.523 137.843L126.261 137.695L127.454 137.911L128.385 137.241L128.339 136.457L128.919 136.184L129.498 136.412L129.679 136.627L130.134 140.057L131.428 141.772L132.041 143.226L132.802 143.941L133.018 145.293L133.904 145.895L133.915 146.247L133.722 146.394L133.824 146.86L134.267 147.03L134.301 146.871L134.971 146.497L134.937 147.11L135.641 147.167L135.414 146.656L135.618 146.542L135.891 146.826L136.061 146.78L136.13 145.917L136.334 145.883L136.572 146.792L136.97 147.042L136.811 146.338L137.878 146.008L138.264 146.133L138.151 145.361L138.673 145.645V145.054L138.855 144.702L139.014 144.963L138.968 145.304L139.196 145.134L139.366 145.429L139.673 145.27L139.729 145.667L140.286 145.429L140.888 145.724L141.478 145.497L141.455 145.713L140.831 146.088L140.944 146.485H141.137L141.421 146.179L141.705 146.36L141.864 145.667L142.216 145.679L142.171 146.122L142.466 146.372L142.784 147.019L142.954 146.883L142.818 146.44L143.42 146.678L143.329 146.133L143.954 146.428L145.067 145.951L145.464 145.565L145.714 145.543L145.907 145.849L146.327 146.008L147.349 145.906L147.36 145.565L146.917 145.077L146.997 144.702L147.587 144.861L148.019 144.327L148.201 144.452L147.94 144.997L148.064 145.156L148.553 145.327L149.28 145.179L149.575 145.315L149.938 146.065L150.222 146.076L150.472 145.52L151.028 145.202L151.732 144.986L152.073 145.111L152.493 145.747L153.072 145.872L153.572 146.349L153.583 146.849L154.583 147.337L154.696 147.734L155.48 148.064L156.468 148.121L156.593 148.643L157.058 149.177L157.706 149.517L157.83 149.938L157.649 150.176L157.013 150.267L157.615 151.028L157.467 151.732L157.206 151.88L157.126 152.425L157.274 152.902L158.137 153.708L158.33 154.265L158.251 154.719L158.648 155.219L159.125 155.071L160.09 155.548L160.249 156.036L160.579 155.809L161.021 155.877L161.555 155.684L162.202 156.4L162.464 156.457L163.247 156.309L163.474 156.082L164.996 156.82L165.268 157.172L166.495 157.467L166.915 157.876L166.836 158.24L167.063 158.433L168.403 158.864L168.846 159.296L169.141 160.057L168.811 160.908L168.88 161.317L168.982 161.351L169.152 160.92L169.334 160.84L169.958 161.76L169.992 162.078L169.606 162.192L169.413 162.453L169.777 162.782L169.754 163.282L170.31 163.498L170.197 164.088L171.003 164.724L171.787 166.462L172.309 167.178L172.707 167.393L175.523 167.62L177.056 168.45L177.124 169.086L176.068 170.869L175.727 172.334L175.988 173.594L175.148 175.264L175.08 176.252L176.954 179.148L177.635 179.102L178.214 178.75L178.555 179.239L175.773 182.555L176.147 183.543L173.797 186.041L175.455 188.347L175.046 190.743L175.125 193.662L176.17 193.98L176.238 194.854L177.726 195.559L178.01 197.285L177.022 199.284L177.101 200.294L174.978 204.031L176.272 205.609H173.831L173.365 206.825L171.832 208.755L172.343 209.698L170.174 210.981L168.289 210.641L165.564 210.697L165.166 212.344L163.009 212.333L161.305 213.866L160.408 216.16L159.034 215.479L159.806 217.25L158.353 222.213L158.557 225.359L157.83 226.461L153.561 230.084L154.14 231.435L150.722 232.514L143.057 232.503L141.694 231.844L140.388 234.91L138.423 234.059L138.764 242.168L136.107 242.281L134.562 248.777L135.062 250.413L133.506 251.355L131.133 251.412L126.284 248.664L125.319 248.789L124.535 250.174L117.461 248.562L117.631 245.836L118.392 245.302L117.801 244.098L108.467 242.486L105.844 243.689L101.279 244.007L100.041 247.857L98.0081 249.107L97.0996 248.652L95.0442 250.617L93.6588 250.651L81.5308 258.794L77.0567 263.382L73.3433 263.291L72.1396 264.28L65.2693 263.905L65.4397 267.312L54.6403 263.03L48.5195 261.315L29.0557 259.146L17.8248 257.386L15.2357 257.522L11.8971 256.409L9.9212 254.07L10.0234 253.695L9.87578 253.581L8.80834 253.604L7.25259 253.252L4.43636 251.9L0.99555 250.594L0.336914 250.095L2.74434 243.337L4.24331 239.828L5.34482 236.557L6.65074 233.604L10.1597 231.424L11.6132 229.516L12.3854 227.54L12.692 226.007L12.5217 225.257L12.0107 224.53L8.54715 221.43L6.74158 220.362L6.6848 219.919L7.1731 217.001L7.5592 212.787L8.43359 211.049L8.76291 208.63L8.75156 206.37L9.17172 203.19L9.48968 202.452L9.72816 202.191L10.9432 202.168L13.9298 201.021L15.0994 200.238L16.4735 198.863L17.3933 197.455L18.8696 194.491L19.0058 194.105L18.7219 193.185L17.2798 190.891L18.7333 189.403L18.6425 188.994L18.1996 188.801L18.1882 187.041L18.5743 186.325L20.2777 186.2L20.5162 186.053L20.5389 184.747L20.959 184.486L21.3111 183.429L22.7533 182.044L23.6844 181.817L25.2742 182.657L26.1146 183.736L27.9315 184.701L27.7384 185.087L28.4652 186.053L28.681 186.235L29.5213 186.348L29.6008 186.916L30.2708 187.87L31.4404 188.972L32.3716 190.221L32.6555 191.152L33.246 191.64L33.3482 192.606L34.1431 193.287L34.4951 193.935L35.4377 194.23L35.6875 194.582L36.4143 197.909L36.8344 198.33L36.9026 198.898L37.1524 199.318L37.7429 199.749L38.3448 200.806L38.5151 201.6L38.3675 202.043L38.6287 202.236L39.5712 202.418L40.0481 202.112L40.4342 202.202L40.7295 202.782L41.0588 202.918L41.2291 203.554L41.8764 203.259L42.2398 203.622L42.2625 204.02L42.9211 204.292L43.1028 204.133L43.1142 203.236L49.7573 200.215L52.5736 197.455L52.9029 196.91L52.4032 195.468L52.3351 194.775L50.9497 194.502L50.3478 194.218L50.2002 193.923L50.257 193.31L50.5068 192.992L50.6771 192.265L50.7339 191.538L50.416 190.664L49.3599 188.937L48.9965 187.768L48.6672 184.792L47.577 179.068L47.895 178.012L47.5657 177.126L46.1348 176.331L45.885 175.854L45.8623 175.389L46.3052 174.855L46.7821 174.719L47.5089 174.889L48.9965 176.263L50.6999 176.399L51.4493 177.035L51.7332 177.058L52.6871 175.934L54.2429 175.037L55.2195 173.594L57.6496 170.71L58.7625 170.085L60.6362 169.665L61.6241 168.813L62.9641 168.699L64.6561 168.097L64.8832 167.427L64.6788 166.78L63.7477 164.622L63.3729 164.009L62.7484 163.521L62.7256 163.237L63.9407 161.204L63.7817 159.773L64.0656 159.489L64.747 159.319L64.8605 158.626L65.7122 158.819L66.7002 159.375L67.1658 159.353L68.6874 158.807L70.9132 159.216L71.8103 159.148L74.0587 157.138L74.7174 156.275L76.1823 154.957L81.0653 153.118L82.4847 152.856L85.7325 151.232L85.8347 151.096L85.4259 150.801L84.983 149.699L85.8347 148.825L85.812 148.473L85.335 147.962L87.7765 147.746L87.8447 146.497H88.9008L88.9575 145.974L88.4352 144.782L88.6509 143.021L88.9575 142.022L89.2868 141.942L89.5026 142.17L89.6957 142.011L90.1385 140.568L91.365 140.58L91.8646 140.841L93.4204 141.068L93.4431 141.738L92.3643 142.794L92.2961 143.078L94.2607 142.851L94.4424 142.488L94.749 142.351L95.101 139.898L94.2948 139.455L93.8859 138.978L93.7383 137.615L93.9995 136.23L94.6241 136.173L96.634 137.127L97.2246 139.217Z" fill="#1E5EDA"/>
<path opacity="0.7" d="M610.473 330.525L608.702 334.397L606.601 337.941L607.555 349.525L608.758 352.693L602.093 352.205L602.49 358.009L608.679 358.168L608.861 361.961L609.724 362.994L610.155 364.346L617.241 369.309L619.353 372.954L618.343 376.679L619.058 377.804L623.271 381.835L628.2 382.369L628.574 382.415L630.686 384.357L632.06 384.55L633.31 386.242L635.603 387.809L635.706 391.602L635.206 392.92L634.229 394.044L634.74 396.236L634.218 397.656L633.378 398.053L628.552 402.641L628.563 404.595L632.288 405.901L633.037 405.39L634.286 405.549L633.957 406.605L637.261 406.196L638.056 407.536L635.127 411.091L634.877 413.658L635.717 414.157L635.41 415.463L636.262 415.838L636.785 417.996L638.919 418.439L643.076 420.404L642.485 421.607L641.213 421.994L641.463 422.482L643.598 422.243L644.824 423.016L645.971 422.516L646.198 423.584L646.369 423.561L645.824 424.515L645.426 426.423L645.154 426.9L644.223 427.604L641.963 426.888L639.249 426.764L638.386 426.934L637.863 426.854L635.535 425.832L634.491 425.98L633.559 426.389L632.889 426.275L632.696 426.071L631.902 426.025L631.277 425.162L630.289 424.742L630.175 424.447L629.187 423.958L628.552 423.334L627.643 423.22L626.984 422.72L626.791 422.834L626.701 422.289L626.496 422.039L624.861 421.346L624.429 421.687H622.726L621.977 420.676L621.704 419.722L621.079 419.166L620.194 418.723L619.91 417.86L619.433 417.633L618.524 416.815L618.172 416.906L617.729 416.622L617.525 416.747L617.105 415.986L616.037 415.884L615.72 415.497L615.356 415.702L614.913 415.463L613.948 415.35L613.766 415.123L613.198 415.02L612.892 414.362L610.689 414.509L610.144 414.373L609.837 414.555L610.314 415.543L610.235 415.781L609.894 415.963L609.519 415.974L608.599 416.485L607.555 416.769L606.476 416.44L606.033 415.929L605.397 415.747L604.318 417.508L604 418.598L602.433 418.155L601.525 418.257L598.436 419.881L596.96 420.494L596.676 420.835L596.585 421.028L596.801 421.426L596.744 421.789L596.301 422.743L595.711 423.504L595.393 424.31L595.472 428.024L594.552 429.773L593.712 432.703L593.667 434.373L594.041 436.167L595.699 438.302L595.631 438.961L595.2 439.177L594.848 439.222L594.325 438.859L591.997 438.643L591.202 437.984L591.214 436.576L590.941 436.292L589.669 436.224L586.728 435.418L585.15 435.577L584.525 435.418L583.832 435.656L583.31 435.463L582.413 435.429L581.72 434.906L580.834 434.759L580.278 434.452L578.745 432.328L577.042 431.795L575.713 431.056L575.293 430.988L574.453 431.193L573.34 430.954L568.559 428.74L567.457 428.706L566.549 429.001L566.004 428.876L565.538 429.319L564.993 429.421L564.3 429.183L563.596 428.444L562.007 427.99L561.325 427.559L560.996 427.093L559.338 426.536L558.339 426.582L557.067 427.286L555.193 427.82L554.137 428.569L552.888 428.274L552.581 427.842L551.718 427.241L551.321 427.229L550.662 427.536L548.913 427.604L548.38 428.206L546.415 428.104L546.245 428.331L546.267 428.853L545.325 430.716L544.155 431.34L544.212 432.476L543.951 433.214L541.214 433.532L540.521 434.146L540.465 434.418L540.873 435.043L542.327 436.11L542.35 436.678L541.998 437.428L541.612 437.553L541.112 437.405L540.192 436.621L539.829 436.928L539.363 437.666L539.227 438.654L538.875 439.631L538.432 440.312L538.103 440.494L537.773 441.255L536.535 440.131L536.524 439.438L535.57 439.392L535.968 438.268L535.57 437.553L533.81 438.018L532.311 435.395L531.107 435.168L530.471 434.27L530.199 433.521L529.484 433.328L529.359 432.351L528.053 431.863L527.803 430.863L526.179 430.954L523.862 429.523L524.408 428.092L523.976 427.559L523.908 426.082L524.203 423.629L523.454 422.573L524.021 422.005L523.306 421.687L522.613 421.13L523.408 419.722L522.84 419.291L522.023 419.836L520.899 418.746L521.296 417.417L520.751 416.735L519.967 417.042L519.422 416.247L517.435 416.065L517.004 414.282L516.504 414.237L515.823 415.918L513.483 414.214L511.95 414.453L512.2 413.351L511.7 413.317L510.508 413.839L509.554 410.887L510.167 409.933L507.851 409.115L510.826 404.856L510.769 404.22L513.54 397.304L513.903 393.794L515.436 391.398L515.834 388.775L516.663 388.218L514.676 374.749L512.984 365.447L511.723 363.653L508.998 351.853L505.966 344.13L504.001 337.657L500.004 331.127L531.266 331.058L548.959 330.604L552.865 330.888L573.998 330.104L610.473 330.525Z" fill="#1E5EDA"/>
</g>
<defs>
<clipPath id="clip0">
<rect width="900" height="493.939" fill="white"/>
</clipPath>
</defs>
</svg>
