<svg width="133" height="168" viewBox="0 0 133 168" fill="none" xmlns="http://www.w3.org/2000/svg">
<path d="M75.6765 3.33895L76.6755 3.29352L77.1525 3.55473L77.4025 3.96358L77.6065 5.59898L76.9025 6.67789L77.0615 7.92716L76.9705 8.41551L76.0625 9.449L75.0975 9.9828L74.9045 11.2093L74.2225 11.4705L72.8265 12.4927L72.4055 12.2882L71.8155 11.198L71.0655 11.4932L70.5545 11.4365L69.6355 10.8913L68.4765 10.755L68.0115 10.7664L67.8065 10.914L67.7275 11.5387L67.9085 12.2882L69.3735 14.2643L69.5665 15.8316L70.4645 17.5011L75.1995 22.1006L93.0055 36.5126L99.3645 42.6113L100.522 43.9741L104.509 50.5725L107.983 55.8422L112.106 63.3264L112.265 63.1674L114.763 68.0055L114.582 68.1304L121.724 80.7593L123.03 83.803L124.983 86.824L125.256 87.5849L126.142 88.8001L127.64 91.7756L127.834 91.662L128.05 92.0822L127.879 92.2185L129.627 95.8982L130.06 96.3297L130.036 96.6364L132.24 101.236L130.582 101.429L129.991 104.893L126.608 105.756L127.198 107.687L124.347 110.48L123.733 109.742L119.317 110.39L119.418 112.502L120.554 112.309L120.213 113.728L120.418 115.409L119.272 115.012L114.752 117.885L111.959 118.76L111.459 117.613L110.108 118.214L109.823 119.486L107.438 120.758L106.927 120.35L105.043 122.178L107.688 126.005L108.291 129.526L109.97 130.037L110.993 131.582L112.787 132.99L114.263 133.751L118.828 136.783L118.034 144.517L120.123 145.108L120.759 149.605L119.248 151.172L115.455 158.066L112.412 159.463L108.836 158.577L99.3535 154.625L98.0475 152.331L96.5825 153.194L94.0385 151.377L95.7985 148.958L94.4925 144.313L90.8595 141.985L86.2485 141.803L82.3425 137.669L78.0835 138.771L75.8125 140.985L74.4385 146.459L74.5745 149.855L73.7455 151.309L71.2705 149.832L68.7835 150.105L67.0455 151.104L66.5345 150.718L65.5125 153.466L64.4685 153.716L61.6065 152.036L53.8505 154.171L52.8735 153.126L51.8175 153.535L51.5115 154.648L50.7275 155.091L44.2545 154.875L43.1875 156.306L38.6225 159.633L36.4085 160.292L35.9875 159.349L34.5685 159.418L33.8075 156.817L35.2155 155.874L35.1815 155.136L38.1905 153.864L38.4185 154.193L39.6105 153.807L39.2805 153.171L40.0305 152.853L39.6675 151.479L37.1235 150.468L36.5215 148.753L37.2935 148.299L35.5905 145.369L34.3185 145.312L31.2298 142.019L29.6854 145.891L28.2205 142.132L29.4923 141.144L28.2772 139.622L24.6661 138.918L24.3708 137.987L22.588 139.486L19.4084 139.747L16.1492 140.599L12.9015 137.022L14.5367 135.477L13.5828 134.001L14.1847 132.751L15.3657 132.479L15.2408 129.038L15.7291 126.414L16.7057 123.416L15.7405 121.928L15.6496 119.362L8.0413 116.602L10.426 113.785L10.7552 111.264L15.6723 108.05L17.9207 108.686L18.7838 107.607L19.9648 107.482L20.5099 106.653L18.3523 105.415L15.7518 105.177L14.6276 102.576L10.585 104.563L10.6985 97.8743L11.3912 97.0566L14.4913 94.6148L15.8427 94.3536L15.3771 93.3656L14.866 70.6971L13.7078 70.5267L13.6397 69.8907L13.5147 68.4597L9.3925 68.1531L8.2683 65.1776L8.7226 63.8261L9.7446 65.2344L11.3571 65.4729L12.2997 67.4944L13.3898 67.0288L13.0832 63.5308L14.4913 62.963L14.2756 61.0437L15.3998 60.4417L14.162 57.0914L11.9817 57.8524L10.971 57.5344L9.6424 61.1232L6.6558 61.1686L6.0994 58.2498L7.6665 56.41L6.9397 54.8768L4.4982 56.5917L3.9645 56.0352L5.2817 54.9563L6.1221 52.8553L7.3826 50.97L7.235 49.664L8.5068 49.0507L8.4387 48.2444L9.5743 47.6311L8.5409 46.0184L7.394 46.7907L7.042 45.9389L5.7814 46.4045L5.7019 47.1995L2.545 49.9593L2 46.6771L2.5109 43.1905L4.3733 44.0991L5.2136 43.2359L3.3967 40.3626L2.2498 37.796L5.1115 34.9908L5.4862 33.3327L6.6218 33.6166L7.1782 31.2089L8.7226 31.3906L10.6757 32.6172L12.2088 30.3117L15.979 31.1635L15.7518 33.7302L17.6823 33.9119L18.0911 31.9926L19.6809 32.3333L19.4538 33.0942L20.2487 33.4122L20.2374 34.8772L20.6348 35.1157L20.7029 35.3769L20.5553 36.2287L23.2466 37.2395L25.0295 32.8443L24.0756 32.2878L24.7342 29.0057L28.4703 29.619L29.4583 26.2914L30.7074 26.4958L31.3433 26.1778L31.7067 25.5418L32.036 24.0881L32.2291 23.9291L32.9785 24.2017L35.9655 24.179L36.2715 24.3607L36.7485 25.2579L37.2485 25.0194L39.8715 22.9411L41.1665 21.7145L42.1545 21.2716L44.8335 19.1933L46.3785 18.3642L47.0145 17.5919L47.0025 16.8197L45.1295 14.1394L48.0595 12.6289L49.6145 13.2876L49.8645 13.2422L63.4125 6.92775L63.5025 6.59839L62.9355 5.89426V5.67848L63.5595 3.83865L63.7525 3.78187L66.0575 4.81535L68.4425 5.00842L69.5105 4.95163L70.7025 4.16801L72.7695 4.21343L74.0185 2.9301L74.6085 1.53319L75.7785 1.43098L77.3225 0.49971L78.5265 0L78.9245 0.05679L79.0715 1.03348L78.9805 1.20384L75.6425 3.02095L75.6765 3.33895Z" fill="#1E5EDA"/>
<path d="M75.6765 3.33895L76.6755 3.29352L77.1525 3.55473L77.4025 3.96358L77.6065 5.59898L76.9025 6.67789L77.0615 7.92716L76.9705 8.41551L76.0625 9.449L75.0975 9.9828L74.9045 11.2093L74.2225 11.4705L72.8265 12.4927L72.4055 12.2882L71.8155 11.198L71.0655 11.4932L70.5545 11.4365L69.6355 10.8913L68.4765 10.755L68.0115 10.7664L67.8065 10.914L67.7275 11.5387L67.9085 12.2882L69.3735 14.2643L69.5665 15.8316L70.4645 17.5011L75.1995 22.1006L93.0055 36.5126L99.3645 42.6113L100.522 43.9741L104.509 50.5725L107.983 55.8422L112.106 63.3264L112.265 63.1674L114.763 68.0055L114.582 68.1304L121.724 80.7593L123.03 83.803L124.983 86.824L125.256 87.5849L126.142 88.8001L127.64 91.7756L127.834 91.662L128.05 92.0822L127.879 92.2185L129.627 95.8982L130.06 96.3297L130.036 96.6364L132.24 101.236L130.582 101.429L129.991 104.893L126.608 105.756L127.198 107.687L124.347 110.48L123.733 109.742L119.317 110.39L119.418 112.502L120.554 112.309L120.213 113.728L120.418 115.409L119.272 115.012L114.752 117.885L111.959 118.76L111.459 117.613L110.108 118.214L109.823 119.486L107.438 120.758L106.927 120.35L105.043 122.178L107.688 126.005L108.291 129.526L109.97 130.037L110.993 131.582L112.787 132.99L114.263 133.751L118.828 136.783L118.034 144.517L120.123 145.108L120.759 149.605L119.248 151.172L115.455 158.066L112.412 159.463L108.836 158.577L99.3535 154.625L98.0475 152.331L96.5825 153.194L94.0385 151.377L95.7985 148.958L94.4925 144.313L90.8595 141.985L86.2485 141.803L82.3425 137.669L78.0835 138.771L75.8125 140.985L74.4385 146.459L74.5745 149.855L73.7455 151.309L71.2705 149.832L68.7835 150.105L67.0455 151.104L66.5345 150.718L65.5125 153.466L64.4685 153.716L61.6065 152.036L53.8505 154.171L52.8735 153.126L51.8175 153.535L51.5115 154.648L50.7275 155.091L44.2545 154.875L43.1875 156.306L38.6225 159.633L36.4085 160.292L35.9875 159.349L34.5685 159.418L33.8075 156.817L35.2155 155.874L35.1815 155.136L38.1905 153.864L38.4185 154.193L39.6105 153.807L39.2805 153.171L40.0305 152.853L39.6675 151.479L37.1235 150.468L36.5215 148.753L37.2935 148.299L35.5905 145.369L34.3185 145.312L31.2298 142.019L29.6854 145.891L28.2205 142.132L29.4923 141.144L28.2772 139.622L24.6661 138.918L24.3708 137.987L22.588 139.486L19.4084 139.747L16.1492 140.599L12.9015 137.022L14.5367 135.477L13.5828 134.001L14.1847 132.751L15.3657 132.479L15.2408 129.038L15.7291 126.414L16.7057 123.416L15.7405 121.928L15.6496 119.362L8.0413 116.602L10.426 113.785L10.7552 111.264L15.6723 108.05L17.9207 108.686L18.7838 107.607L19.9648 107.482L20.5099 106.653L18.3523 105.415L15.7518 105.177L14.6276 102.576L10.585 104.563L10.6985 97.8743L11.3912 97.0566L14.4913 94.6148L15.8427 94.3536L15.3771 93.3656L14.866 70.6971L13.7078 70.5267L13.6397 69.8907L13.5147 68.4597L9.3925 68.1531L8.2683 65.1776L8.7226 63.8261L9.7446 65.2344L11.3571 65.4729L12.2997 67.4944L13.3898 67.0288L13.0832 63.5308L14.4913 62.963L14.2756 61.0437L15.3998 60.4417L14.162 57.0914L11.9817 57.8524L10.971 57.5344L9.6424 61.1232L6.6558 61.1686L6.0994 58.2498L7.6665 56.41L6.9397 54.8768L4.4982 56.5917L3.9645 56.0352L5.2817 54.9563L6.1221 52.8553L7.3826 50.97L7.235 49.664L8.5068 49.0507L8.4387 48.2444L9.5743 47.6311L8.5409 46.0184L7.394 46.7907L7.042 45.9389L5.7814 46.4045L5.7019 47.1995L2.545 49.9593L2 46.6771L2.5109 43.1905L4.3733 44.0991L5.2136 43.2359L3.3967 40.3626L2.2498 37.796L5.1115 34.9908L5.4862 33.3327L6.6218 33.6166L7.1782 31.2089L8.7226 31.3906L10.6757 32.6172L12.2088 30.3117L15.979 31.1635L15.7518 33.7302L17.6823 33.9119L18.0911 31.9926L19.6809 32.3333L19.4538 33.0942L20.2487 33.4122L20.2374 34.8772L20.6348 35.1157L20.7029 35.3769L20.5553 36.2287L23.2466 37.2395L25.0295 32.8443L24.0756 32.2878L24.7342 29.0057L28.4703 29.619L29.4583 26.2914L30.7074 26.4958L31.3433 26.1778L31.7067 25.5418L32.036 24.0881L32.2291 23.9291L32.9785 24.2017L35.9655 24.179L36.2715 24.3607L36.7485 25.2579L37.2485 25.0194L39.8715 22.9411L41.1665 21.7145L42.1545 21.2716L44.8335 19.1933L46.3785 18.3642L47.0145 17.5919L47.0025 16.8197L45.1295 14.1394L48.0595 12.6289L49.6145 13.2876L49.8645 13.2422L63.4125 6.92775L63.5025 6.59839L62.9355 5.89426V5.67848L63.5595 3.83865L63.7525 3.78187L66.0575 4.81535L68.4425 5.00842L69.5105 4.95163L70.7025 4.16801L72.7695 4.21343L74.0185 2.9301L74.6085 1.53319L75.7785 1.43098L77.3225 0.49971L78.5265 0L78.9245 0.05679L79.0715 1.03348L78.9805 1.20384L75.6425 3.02095L75.6765 3.33895Z" fill="url(#paint0_linear)" fill-opacity="0.1"/>
<defs>
<linearGradient id="paint0_linear" x1="67.1195" y1="0" x2="67.1195" y2="160.292" gradientUnits="userSpaceOnUse">
<stop stop-color="white"/>
<stop offset="1" stop-color="white" stop-opacity="0"/>
</linearGradient>
</defs>
</svg>
