<svg width="366" height="294" viewBox="0 0 366 294" fill="none" xmlns="http://www.w3.org/2000/svg">
<g filter="url(#filter0_ddddddd)">
<path d="M140.662 97.5975L140.503 97.7338L140.162 97.6543L139.481 96.2347L139.253 96.1098L139.435 95.894L138.822 94.5312L138.708 93.6226L138.197 93.0661L138.118 92.8049L138.243 92.6232L138.583 92.4983L139.787 92.9752L140.877 94.2018L141.252 95.61L140.662 97.5975V97.5975ZM225.557 0.359253L227.295 1.98331L229.975 3.18714L229.646 4.0957L230.985 4.76576L231.985 2.19907L233.143 2.47165L234.676 10.2512L234.04 12.1818L234.971 14.3283L234.097 16.577L239.343 17.1335L240.672 17.8035L243.079 18.042L243.625 15.146L243.568 13.1813L245.01 13.556L245.725 12.3295L247.395 13.5333V14.9416L251.358 15.2823L251.46 20.6087L250.813 21.1084L250.086 26.378L250.926 27.809L252.153 33.0786L251.358 36.0996L254.799 39.9496L255.287 46.0937L256.786 48.649L255.946 53.8278L254.208 67.1154L257.501 71.2835L258.875 76.6212L265.496 83.2764L269.981 85.1389L282.938 89.0003L283.211 93.2024L285.811 96.5527L285.402 97.8928L287.208 101.448L285.232 100.266L283.506 100.391L282.473 99.426L280.951 100.21L278.612 99.5055L278.033 97.7338L277.056 97.3023L275.932 98.0745L274.796 97.4045L273.15 96.9275L272.786 95.9167L273.138 94.1677L272.377 91.885L271.299 91.7373L270.663 92.078L270.322 92.6459L269.675 92.8503L268.244 91.9645L265.575 88.1826L260.374 93.3387L257.933 92.998L249.212 93.9065L244.987 95.5533L241.649 95.6328L239.605 96.4505L238.174 96.7912L236.822 96.723L235.255 97.0865L234.812 97.8133L231.406 97.3931L231.712 98.8013L230.52 101.084L225.501 104.821L227.817 106.183L226.386 107.558L224.149 108.909L221.481 110.056L219.902 110.272L218.426 111.249L215.019 110.794L214.315 112.555L211.34 112.396L206.287 111.146L206.253 110.862L207.082 110.999L207.479 110.828L206.639 110.533L206.502 110.249L206.582 109.488L207.047 109.284L206.979 108.761L207.195 108.58L208.898 108.409L208.001 107.887L207.854 107.41L208.149 107.103L209.046 106.865L208.558 106.32L208.251 105.536L207.717 105.104L207.593 104.707L207.786 104.503L208.751 104.491L209.069 103.901L207.842 102.822L207.4 102.651L206.73 101.856L207.195 101.243L207.967 101.254L207.184 100.868L207.093 100.425L206.786 100.323L207.025 99.937L206.979 99.4941L207.604 99.0171L208.569 99.1421L208.217 98.5515L208.558 98.3244L208.092 98.1654L208.024 97.8587L208.796 97.4385L209.341 96.53L209.784 97.041L209.716 96.5868L209.864 96.1552L209.727 96.0075L209.421 96.1098L209.205 95.7463L209.5 95.2694L209.568 94.6334L210.068 93.9179L210.148 93.0547L211.51 91.5897L212.124 91.3853L211.544 91.1695L211.488 90.9764L212.192 90.8742L212.317 90.7038L211.851 90.4426L211.408 89.7272L210.466 88.8867L210.784 87.1605L210.522 86.0021L211.351 85.1957L210.477 84.8664L210.784 84.1168L210.352 82.5382L210.125 82.47L209.818 82.6291L209.489 82.47L208.989 82.8108L208.694 82.6745L208.955 82.1634L209.353 82.0385L208.637 81.3116L208.399 81.4025L208.217 81.2776L208.399 80.4939L208.819 80.1759L208.546 79.6081L208.092 79.4264L207.956 79.5059L207.422 80.3804L206.332 81.0277L205.73 81.9817L205.708 82.7994L205.333 82.7653L204.947 82.4928L204.992 81.9249L204.799 81.5842L204.89 81.2094L205.185 80.9141L205.049 80.4258L204.651 80.1646L204.231 80.335L203.947 80.6984L203.72 80.6302L203.766 79.7784L203.947 79.4945L203.55 79.3582L203.47 79.0402L202.562 78.6768L202.437 78.4724L202.539 78.2794L202.948 78.3929L203.425 77.8591L203.232 77.5866L203.346 77.0414L203.096 76.6099L202.585 76.2578L199.314 76.8938L198.463 77.825L197.952 78.0749L197.679 78.0295L197.282 77.1437L196.782 77.0528L196.18 79.7898L195.919 80.0964L195.26 80.369H194.295L192.66 79.4718L190.479 79.0743L188.867 78.1771L187.709 78.3021L187.209 78.0408L187.186 77.791L186.914 77.9046L186.789 77.632L185.369 77.1323L183.779 76.8938L182.973 76.9392L182.133 76.3373L182.269 77.5639L182.78 78.0636L183.348 78.3475L183.655 78.8699L183.575 80.1759L183.28 80.7779L183.132 80.6757L183.257 81.0391L183.109 81.0504L182.723 80.0056L182.916 79.063L182.451 78.5746L182.053 78.5178L181.94 78.0749L181.497 77.6774L180.963 75.6786L180.782 75.6899L180.747 76.0647L180.509 76.0874L180.225 76.4963L179.669 76.5985L178.919 77.3708L178.681 77.4844L178.544 77.2913L179.135 76.678L179.691 76.36L179.919 75.4514L180.123 75.4401L180.18 75.2584L179.998 74.9517L180.373 74.6451L180.452 74.0318L179.442 74.5656L178.624 75.565L179.112 74.611L179.101 74.259L177.84 72.8053L174.956 71.9535L174.07 72.0898L173.775 71.8513L173.185 72.1125L172.094 71.7491L171.595 71.9876L171.152 71.9649L169.596 73.305L169.244 73.3277L168.926 73.5662L168.756 74.3953L168.392 74.3044L168.04 74.5088L166.962 74.4748L166.451 74.2249L165.905 74.2135L164.679 73.6116L163.634 73.8615L163.18 74.1568L162.703 74.8268L162.521 74.9177L162.317 74.7019L161.976 74.77L160.966 76.6553L160.375 77.2231L159.932 77.2459L159.739 77.0301L159.955 76.1556L159.864 75.7467L159.58 75.5991L159.262 75.7467L158.536 76.2805L157.968 77.0301L157.809 78.2112L157.207 79.8012L156.934 80.0737L156.548 79.9829L156.31 79.6422L156.594 78.6427L156.446 78.427L155.708 79.0289L155.379 79.0175L155.174 77.6888L154.629 76.8597L153.539 78.6996L153.312 79.3582L152.914 79.7784L152.755 79.8353L152.483 79.4945L152.665 78.4838L152.403 78.4724L151.779 78.8472L151.45 79.2901L151.654 79.5627L150.904 80.1759L150.337 81.3571L150.075 82.3565L149.678 82.9697L149.383 82.6291L149.292 80.3009L147.804 81.8795L147.146 82.3451L145.556 84.7187L145.283 85.6954L143.773 85.2866L142.978 85.6614L142.104 87.0469L142.217 88.1258L141.911 88.5688L141.332 88.8527L140.968 89.3751L140.014 89.0571L139.412 88.5688L139.696 89.4432L139.526 90.136L140.593 90.9991L140.366 91.1013L139.696 90.7833L139.537 90.9651L140.457 91.7146L140.809 92.3052L140.707 92.555L140.105 92.3847L138.686 91.5556L138.209 91.4988L137.63 92.4414L137.243 92.3847L136.937 92.0553L136.687 92.1235L136.483 93.0434L136.778 93.5885L136.369 94.0201L136.096 93.8497L135.722 93.0434L135.143 92.3506L134.95 92.362L135.063 93.2364L135.449 93.8497L135.472 94.1904L136.131 94.8605L136.267 95.4511L136.119 95.6214L134.62 94.7469L133.882 94.1564L133.769 93.8952L133.246 93.8838L132.326 93.2024L132.077 93.2137L131.872 93.5999L131.236 92.2825L130.964 92.1348L131.032 91.6805L130.884 91.3739L131.123 90.9764L131.827 91.1808L130.93 90.1814L130.986 89.7726L130.861 89.5341L129.715 89.1252L129.215 89.1934L129.045 89.3296L129.442 89.7953H129.862L130.078 90.0224L130.18 90.3858L130.055 90.8401L130.328 91.8736L131.486 93.1456L131.611 93.5999L131.452 94.0655L131.929 94.3608L132.065 94.622V94.94L131.883 95.1444L131.497 95.1671L131.282 95.5646H131.066L130.385 95.0422L130.453 94.7583L130.078 93.4636L130.18 92.9866L129.885 92.873L130.01 92.555L129.362 90.9651L128.647 90.295L127.693 89.7499L127.659 89.5114L127.398 89.3069L126.966 89.2274L127.137 89.4887L127.035 89.6249L126.467 89.2047L126.399 89.3183L126.91 90.4086L127.477 90.6584L127.557 90.2382L127.818 90.4313L127.954 90.9083L128.295 91.283L128.193 91.6351L128.363 92.1462L128.079 92.1007L127.614 91.4648L126.921 91.0332L126.83 91.2376L127.148 91.4761L127.409 92.1462L126.887 92.3506L126.932 91.6238L126.444 91.1922L126.081 90.5562L126.137 90.3064L126.353 90.1814L125.899 89.7612L125.502 89.7499L125.399 89.8975L125.672 90.4994L125.343 90.7038L125.808 91.1468L125.865 91.5897L126.308 92.1689L126.91 92.6913L126.842 92.9525L125.626 92.2938L123.435 91.6805L123.049 91.0673L122.174 90.5335L121.55 90.4086L120.414 89.8407L119.494 88.9549L118.722 89.023L117.939 87.9214L117.643 87.1037L116.882 86.6948L116.508 86.7062L116.076 86.3655L115.372 86.2633L114.623 84.7755L114.157 85.0708L112.863 84.7982L112.522 84.4348L112.635 83.8443L112.545 83.6171L111.795 83.5263L111.159 83.2196L111.171 82.5495L111.829 80.8006L113.362 79.4945L115.031 79.5854L115.724 80.1192L115.86 81.0504L117.11 82.2656L118.2 82.3906L120.698 82.0953L121.618 81.3343L122.708 79.7217L121.947 77.5411L117.768 71.8854L116.712 69.4436L115.122 65.4914L114.725 64.1172L113.941 58.8362L110.977 58.7794L108.945 58.2116L106.674 54.5774L105.697 52.2492L104.561 50.2617L101.7 47.4906L100.576 47.3543L99.6785 47.6383L95.897 48.0131L93.6485 48.0585L90.696 47.1272L87.505 45.7644L87.5505 46.6616L87.312 48.456L86.8123 50.3071L82.8378 47.9449L81.566 46.6502L81.0549 45.7644L81.9975 45.276L82.0883 45.0716L80.0784 41.4714L78.9087 39.7225L81.5887 38.4051L82.0315 37.7236L82.8378 37.8031L83.0876 37.1444L80.6461 36.2699L80.6007 35.668L81.1231 34.5891L81.0663 33.6351L80.8505 33.0559L80.6461 32.772L79.3289 32.1815L78.8633 31.4205L82.2019 32.5335L84.791 32.3972L96.0219 34.1576L115.486 36.3267L121.595 38.0416L132.406 42.3232L132.236 38.9161L139.106 39.2909L140.309 38.3142L144.023 38.4051L148.497 33.8169L160.625 25.6739L162.01 25.6398L164.077 23.6751L164.986 24.1294L167.018 22.8801L168.245 19.0301L172.81 18.7121L175.433 17.5083L184.767 19.121L185.358 20.3248L184.597 20.8586L184.427 23.5842L191.501 25.1969L192.285 23.8114L193.25 23.6751L198.099 26.4235L200.472 26.3667L202.028 25.4241L201.529 23.7887L203.062 17.2811L205.73 17.1676L205.39 9.04732L207.343 9.91046L208.66 6.84408L210.023 7.50279L217.688 7.51414L221.106 6.43523L220.527 5.08375L224.797 1.46088L225.557 0.359253V0.359253Z" fill="#A1BFF8"/>
<path d="M140.662 97.5975L140.503 97.7338L140.162 97.6543L139.481 96.2347L139.253 96.1098L139.435 95.894L138.822 94.5312L138.708 93.6226L138.197 93.0661L138.118 92.8049L138.243 92.6232L138.583 92.4983L139.787 92.9752L140.877 94.2018L141.252 95.61L140.662 97.5975V97.5975ZM225.557 0.359253L227.295 1.98331L229.975 3.18714L229.646 4.0957L230.985 4.76576L231.985 2.19907L233.143 2.47165L234.676 10.2512L234.04 12.1818L234.971 14.3283L234.097 16.577L239.343 17.1335L240.672 17.8035L243.079 18.042L243.625 15.146L243.568 13.1813L245.01 13.556L245.725 12.3295L247.395 13.5333V14.9416L251.358 15.2823L251.46 20.6087L250.813 21.1084L250.086 26.378L250.926 27.809L252.153 33.0786L251.358 36.0996L254.799 39.9496L255.287 46.0937L256.786 48.649L255.946 53.8278L254.208 67.1154L257.501 71.2835L258.875 76.6212L265.496 83.2764L269.981 85.1389L282.938 89.0003L283.211 93.2024L285.811 96.5527L285.402 97.8928L287.208 101.448L285.232 100.266L283.506 100.391L282.473 99.426L280.951 100.21L278.612 99.5055L278.033 97.7338L277.056 97.3023L275.932 98.0745L274.796 97.4045L273.15 96.9275L272.786 95.9167L273.138 94.1677L272.377 91.885L271.299 91.7373L270.663 92.078L270.322 92.6459L269.675 92.8503L268.244 91.9645L265.575 88.1826L260.374 93.3387L257.933 92.998L249.212 93.9065L244.987 95.5533L241.649 95.6328L239.605 96.4505L238.174 96.7912L236.822 96.723L235.255 97.0865L234.812 97.8133L231.406 97.3931L231.712 98.8013L230.52 101.084L225.501 104.821L227.817 106.183L226.386 107.558L224.149 108.909L221.481 110.056L219.902 110.272L218.426 111.249L215.019 110.794L214.315 112.555L211.34 112.396L206.287 111.146L206.253 110.862L207.082 110.999L207.479 110.828L206.639 110.533L206.502 110.249L206.582 109.488L207.047 109.284L206.979 108.761L207.195 108.58L208.898 108.409L208.001 107.887L207.854 107.41L208.149 107.103L209.046 106.865L208.558 106.32L208.251 105.536L207.717 105.104L207.593 104.707L207.786 104.503L208.751 104.491L209.069 103.901L207.842 102.822L207.4 102.651L206.73 101.856L207.195 101.243L207.967 101.254L207.184 100.868L207.093 100.425L206.786 100.323L207.025 99.937L206.979 99.4941L207.604 99.0171L208.569 99.1421L208.217 98.5515L208.558 98.3244L208.092 98.1654L208.024 97.8587L208.796 97.4385L209.341 96.53L209.784 97.041L209.716 96.5868L209.864 96.1552L209.727 96.0075L209.421 96.1098L209.205 95.7463L209.5 95.2694L209.568 94.6334L210.068 93.9179L210.148 93.0547L211.51 91.5897L212.124 91.3853L211.544 91.1695L211.488 90.9764L212.192 90.8742L212.317 90.7038L211.851 90.4426L211.408 89.7272L210.466 88.8867L210.784 87.1605L210.522 86.0021L211.351 85.1957L210.477 84.8664L210.784 84.1168L210.352 82.5382L210.125 82.47L209.818 82.6291L209.489 82.47L208.989 82.8108L208.694 82.6745L208.955 82.1634L209.353 82.0385L208.637 81.3116L208.399 81.4025L208.217 81.2776L208.399 80.4939L208.819 80.1759L208.546 79.6081L208.092 79.4264L207.956 79.5059L207.422 80.3804L206.332 81.0277L205.73 81.9817L205.708 82.7994L205.333 82.7653L204.947 82.4928L204.992 81.9249L204.799 81.5842L204.89 81.2094L205.185 80.9141L205.049 80.4258L204.651 80.1646L204.231 80.335L203.947 80.6984L203.72 80.6302L203.766 79.7784L203.947 79.4945L203.55 79.3582L203.47 79.0402L202.562 78.6768L202.437 78.4724L202.539 78.2794L202.948 78.3929L203.425 77.8591L203.232 77.5866L203.346 77.0414L203.096 76.6099L202.585 76.2578L199.314 76.8938L198.463 77.825L197.952 78.0749L197.679 78.0295L197.282 77.1437L196.782 77.0528L196.18 79.7898L195.919 80.0964L195.26 80.369H194.295L192.66 79.4718L190.479 79.0743L188.867 78.1771L187.709 78.3021L187.209 78.0408L187.186 77.791L186.914 77.9046L186.789 77.632L185.369 77.1323L183.779 76.8938L182.973 76.9392L182.133 76.3373L182.269 77.5639L182.78 78.0636L183.348 78.3475L183.655 78.8699L183.575 80.1759L183.28 80.7779L183.132 80.6757L183.257 81.0391L183.109 81.0504L182.723 80.0056L182.916 79.063L182.451 78.5746L182.053 78.5178L181.94 78.0749L181.497 77.6774L180.963 75.6786L180.782 75.6899L180.747 76.0647L180.509 76.0874L180.225 76.4963L179.669 76.5985L178.919 77.3708L178.681 77.4844L178.544 77.2913L179.135 76.678L179.691 76.36L179.919 75.4514L180.123 75.4401L180.18 75.2584L179.998 74.9517L180.373 74.6451L180.452 74.0318L179.442 74.5656L178.624 75.565L179.112 74.611L179.101 74.259L177.84 72.8053L174.956 71.9535L174.07 72.0898L173.775 71.8513L173.185 72.1125L172.094 71.7491L171.595 71.9876L171.152 71.9649L169.596 73.305L169.244 73.3277L168.926 73.5662L168.756 74.3953L168.392 74.3044L168.04 74.5088L166.962 74.4748L166.451 74.2249L165.905 74.2135L164.679 73.6116L163.634 73.8615L163.18 74.1568L162.703 74.8268L162.521 74.9177L162.317 74.7019L161.976 74.77L160.966 76.6553L160.375 77.2231L159.932 77.2459L159.739 77.0301L159.955 76.1556L159.864 75.7467L159.58 75.5991L159.262 75.7467L158.536 76.2805L157.968 77.0301L157.809 78.2112L157.207 79.8012L156.934 80.0737L156.548 79.9829L156.31 79.6422L156.594 78.6427L156.446 78.427L155.708 79.0289L155.379 79.0175L155.174 77.6888L154.629 76.8597L153.539 78.6996L153.312 79.3582L152.914 79.7784L152.755 79.8353L152.483 79.4945L152.665 78.4838L152.403 78.4724L151.779 78.8472L151.45 79.2901L151.654 79.5627L150.904 80.1759L150.337 81.3571L150.075 82.3565L149.678 82.9697L149.383 82.6291L149.292 80.3009L147.804 81.8795L147.146 82.3451L145.556 84.7187L145.283 85.6954L143.773 85.2866L142.978 85.6614L142.104 87.0469L142.217 88.1258L141.911 88.5688L141.332 88.8527L140.968 89.3751L140.014 89.0571L139.412 88.5688L139.696 89.4432L139.526 90.136L140.593 90.9991L140.366 91.1013L139.696 90.7833L139.537 90.9651L140.457 91.7146L140.809 92.3052L140.707 92.555L140.105 92.3847L138.686 91.5556L138.209 91.4988L137.63 92.4414L137.243 92.3847L136.937 92.0553L136.687 92.1235L136.483 93.0434L136.778 93.5885L136.369 94.0201L136.096 93.8497L135.722 93.0434L135.143 92.3506L134.95 92.362L135.063 93.2364L135.449 93.8497L135.472 94.1904L136.131 94.8605L136.267 95.4511L136.119 95.6214L134.62 94.7469L133.882 94.1564L133.769 93.8952L133.246 93.8838L132.326 93.2024L132.077 93.2137L131.872 93.5999L131.236 92.2825L130.964 92.1348L131.032 91.6805L130.884 91.3739L131.123 90.9764L131.827 91.1808L130.93 90.1814L130.986 89.7726L130.861 89.5341L129.715 89.1252L129.215 89.1934L129.045 89.3296L129.442 89.7953H129.862L130.078 90.0224L130.18 90.3858L130.055 90.8401L130.328 91.8736L131.486 93.1456L131.611 93.5999L131.452 94.0655L131.929 94.3608L132.065 94.622V94.94L131.883 95.1444L131.497 95.1671L131.282 95.5646H131.066L130.385 95.0422L130.453 94.7583L130.078 93.4636L130.18 92.9866L129.885 92.873L130.01 92.555L129.362 90.9651L128.647 90.295L127.693 89.7499L127.659 89.5114L127.398 89.3069L126.966 89.2274L127.137 89.4887L127.035 89.6249L126.467 89.2047L126.399 89.3183L126.91 90.4086L127.477 90.6584L127.557 90.2382L127.818 90.4313L127.954 90.9083L128.295 91.283L128.193 91.6351L128.363 92.1462L128.079 92.1007L127.614 91.4648L126.921 91.0332L126.83 91.2376L127.148 91.4761L127.409 92.1462L126.887 92.3506L126.932 91.6238L126.444 91.1922L126.081 90.5562L126.137 90.3064L126.353 90.1814L125.899 89.7612L125.502 89.7499L125.399 89.8975L125.672 90.4994L125.343 90.7038L125.808 91.1468L125.865 91.5897L126.308 92.1689L126.91 92.6913L126.842 92.9525L125.626 92.2938L123.435 91.6805L123.049 91.0673L122.174 90.5335L121.55 90.4086L120.414 89.8407L119.494 88.9549L118.722 89.023L117.939 87.9214L117.643 87.1037L116.882 86.6948L116.508 86.7062L116.076 86.3655L115.372 86.2633L114.623 84.7755L114.157 85.0708L112.863 84.7982L112.522 84.4348L112.635 83.8443L112.545 83.6171L111.795 83.5263L111.159 83.2196L111.171 82.5495L111.829 80.8006L113.362 79.4945L115.031 79.5854L115.724 80.1192L115.86 81.0504L117.11 82.2656L118.2 82.3906L120.698 82.0953L121.618 81.3343L122.708 79.7217L121.947 77.5411L117.768 71.8854L116.712 69.4436L115.122 65.4914L114.725 64.1172L113.941 58.8362L110.977 58.7794L108.945 58.2116L106.674 54.5774L105.697 52.2492L104.561 50.2617L101.7 47.4906L100.576 47.3543L99.6785 47.6383L95.897 48.0131L93.6485 48.0585L90.696 47.1272L87.505 45.7644L87.5505 46.6616L87.312 48.456L86.8123 50.3071L82.8378 47.9449L81.566 46.6502L81.0549 45.7644L81.9975 45.276L82.0883 45.0716L80.0784 41.4714L78.9087 39.7225L81.5887 38.4051L82.0315 37.7236L82.8378 37.8031L83.0876 37.1444L80.6461 36.2699L80.6007 35.668L81.1231 34.5891L81.0663 33.6351L80.8505 33.0559L80.6461 32.772L79.3289 32.1815L78.8633 31.4205L82.2019 32.5335L84.791 32.3972L96.0219 34.1576L115.486 36.3267L121.595 38.0416L132.406 42.3232L132.236 38.9161L139.106 39.2909L140.309 38.3142L144.023 38.4051L148.497 33.8169L160.625 25.6739L162.01 25.6398L164.077 23.6751L164.986 24.1294L167.018 22.8801L168.245 19.0301L172.81 18.7121L175.433 17.5083L184.767 19.121L185.358 20.3248L184.597 20.8586L184.427 23.5842L191.501 25.1969L192.285 23.8114L193.25 23.6751L198.099 26.4235L200.472 26.3667L202.028 25.4241L201.529 23.7887L203.062 17.2811L205.73 17.1676L205.39 9.04732L207.343 9.91046L208.66 6.84408L210.023 7.50279L217.688 7.51414L221.106 6.43523L220.527 5.08375L224.797 1.46088L225.557 0.359253V0.359253Z" fill="url(#paint0_linear)" fill-opacity="0.1"/>
</g>
<defs>
<filter id="filter0_ddddddd" x="0.863281" y="0.359253" width="364.345" height="293.195" filterUnits="userSpaceOnUse" color-interpolation-filters="sRGB">
<feFlood flood-opacity="0" result="BackgroundImageFix"/>
<feColorMatrix in="SourceAlpha" type="matrix" values="0 0 0 0 0 0 0 0 0 0 0 0 0 0 0 0 0 0 127 0" result="hardAlpha"/>
<feOffset dy="4.00914"/>
<feGaussianBlur stdDeviation="0.903716"/>
<feColorMatrix type="matrix" values="0 0 0 0 0.027451 0 0 0 0 0.282353 0 0 0 0 0.772549 0 0 0 0.71 0"/>
<feBlend mode="normal" in2="BackgroundImageFix" result="effect1_dropShadow"/>
<feColorMatrix in="SourceAlpha" type="matrix" values="0 0 0 0 0 0 0 0 0 0 0 0 0 0 0 0 0 0 127 0" result="hardAlpha"/>
<feOffset dy="8.47487"/>
<feGaussianBlur stdDeviation="2.10121"/>
<feColorMatrix type="matrix" values="0 0 0 0 0.027451 0 0 0 0 0.282353 0 0 0 0 0.772549 0 0 0 0.52659 0"/>
<feBlend mode="normal" in2="effect1_dropShadow" result="effect2_dropShadow"/>
<feColorMatrix in="SourceAlpha" type="matrix" values="0 0 0 0 0 0 0 0 0 0 0 0 0 0 0 0 0 0 127 0" result="hardAlpha"/>
<feOffset dy="13.8321"/>
<feGaussianBlur stdDeviation="3.77329"/>
<feColorMatrix type="matrix" values="0 0 0 0 0.027451 0 0 0 0 0.282353 0 0 0 0 0.772549 0 0 0 0.445014 0"/>
<feBlend mode="normal" in2="effect2_dropShadow" result="effect3_dropShadow"/>
<feColorMatrix in="SourceAlpha" type="matrix" values="0 0 0 0 0 0 0 0 0 0 0 0 0 0 0 0 0 0 127 0" result="hardAlpha"/>
<feOffset dy="20.9162"/>
<feGaussianBlur stdDeviation="6.26226"/>
<feColorMatrix type="matrix" values="0 0 0 0 0.027451 0 0 0 0 0.282353 0 0 0 0 0.772549 0 0 0 0.383363 0"/>
<feBlend mode="normal" in2="effect3_dropShadow" result="effect4_dropShadow"/>
<feColorMatrix in="SourceAlpha" type="matrix" values="0 0 0 0 0 0 0 0 0 0 0 0 0 0 0 0 0 0 127 0" result="hardAlpha"/>
<feOffset dy="31.5589"/>
<feGaussianBlur stdDeviation="10.3169"/>
<feColorMatrix type="matrix" values="0 0 0 0 0.027451 0 0 0 0 0.282353 0 0 0 0 0.772549 0 0 0 0.326637 0"/>
<feBlend mode="normal" in2="effect4_dropShadow" result="effect5_dropShadow"/>
<feColorMatrix in="SourceAlpha" type="matrix" values="0 0 0 0 0 0 0 0 0 0 0 0 0 0 0 0 0 0 127 0" result="hardAlpha"/>
<feOffset dy="50.83"/>
<feGaussianBlur stdDeviation="18.0309"/>
<feColorMatrix type="matrix" values="0 0 0 0 0.027451 0 0 0 0 0.282353 0 0 0 0 0.772549 0 0 0 0.264986 0"/>
<feBlend mode="normal" in2="effect5_dropShadow" result="effect6_dropShadow"/>
<feColorMatrix in="SourceAlpha" type="matrix" values="0 0 0 0 0 0 0 0 0 0 0 0 0 0 0 0 0 0 127 0" result="hardAlpha"/>
<feOffset dy="103"/>
<feGaussianBlur stdDeviation="39"/>
<feColorMatrix type="matrix" values="0 0 0 0 0.027451 0 0 0 0 0.282353 0 0 0 0 0.772549 0 0 0 0.18341 0"/>
<feBlend mode="normal" in2="effect6_dropShadow" result="effect7_dropShadow"/>
<feBlend mode="normal" in="SourceGraphic" in2="effect7_dropShadow" result="shape"/>
</filter>
<linearGradient id="paint0_linear" x1="183.036" y1="0.359253" x2="183.036" y2="112.555" gradientUnits="userSpaceOnUse">
<stop stop-color="white"/>
<stop offset="1" stop-color="white" stop-opacity="0"/>
</linearGradient>
</defs>
</svg>
