<svg width="198" height="165" viewBox="0 0 198 165" fill="none" xmlns="http://www.w3.org/2000/svg">
<g clip-path="url(#clip0)">
<path d="M104.849 2.13452L107.484 3.84943L108.585 5.1441L111.367 5.39396L112.446 8.16507L122.269 7.06343L129.196 16.7737L139.7 13.1054L144.413 15.0588L144.322 17.3302L151.874 20.6464L158.29 24.2352L165.148 24.4056L166.386 26.2908L167.431 26.2567L168.669 25.4504L169.316 27.0744L170.031 27.9035L171.019 26.5066L171.667 26.5179L170.838 27.8126L171.576 27.9716L172.348 28.0057L173.12 28.5849L173.836 27.2675L174.358 27.2448L173.949 28.3578L172.836 29.1868L173.143 29.5275L174.108 29.3345L173.325 30.368L180.638 38.9424L182.364 45.4727L185.941 49.3681L185.26 54.1381L185.532 55.9324L186.338 56.6366L188.621 55.8189L188.996 56.3299L190.937 57.4997L191.755 58.2266L195.571 59.0443L195.877 59.4758L196.468 61.7245L195.627 65.7335L193.288 69.186L192.118 68.3683L189.325 65.8812L188.144 65.5859L186.361 65.9607L185.089 66.4717L182.977 67.9254L181.569 68.0617L180.922 67.6869L180.536 66.5398L180.32 66.4263L179.139 66.7329L178.571 66.5626L178.423 65.3019L178.174 64.8136L177.901 63.3826L177.083 62.758L176.663 62.0198L175.732 61.5087L175.516 61.8494L175.062 62.0766L174.335 61.9062L173.279 62.7466L172.961 63.3713L172.144 63.5643L171.814 64.0186L171.224 64.3707L170.134 64.5524L169.793 63.9505L169.657 63.9732L168.601 64.9726L167.908 64.8136L167.669 64.6092L166.999 65.2452L165.898 65.4269L165.466 65.2906L165.307 65.5177L164.478 65.7789L164.161 66.3809L163.922 66.4376L162.866 66.1196L162.821 66.4944L162.491 66.8465L162.434 67.244L162.196 67.5052L161.742 67.4825L160.879 67.7778L159.471 67.7323L158.131 68.8794L157.324 68.9589L156.507 68.4365L155.065 68.0276L154.565 67.5279L154.406 67.5961L154.281 68.2661L153.849 68.6636L151.862 69.504L150.817 69.3677L149.818 69.5154L149.375 69.1633L148.864 69.2769L148.319 69.7425L147.922 70.8328L146.9 71.5483H146.037L145.594 70.9577L145.298 70.8669L144.674 71.1054L143.845 71.7981L143.323 71.9685L142.357 72.0253L141.812 71.5256L141.051 71.5937L140.313 71.4007L140.132 71.7073L140.404 72.3319L140.336 72.6158L140.007 72.4341L139.677 72.5022L138.406 73.8992L136.168 75.3188L135.816 75.7163L135.249 75.8866L134.999 76.2841L135.249 76.5567L135.839 76.1365L136.327 76.1251L137.054 76.6135L137.633 76.693L138.281 78.6123L139.178 79.1007L140.961 78.8281L141.665 78.1921L143.323 78.4306L144.106 77.84L144.663 77.9082L145.003 78.2943L144.878 78.6804L145.071 78.7827L146.014 78.5101L146.536 79.5436L148.353 80.4521L149.137 81.213L149.25 82.0307L147.365 82.6667L146.468 83.5753L147.411 85.029L147.127 85.665L146.536 88.1294L146.059 88.9698L146.514 90.4576L146.945 93.9328L147.388 95.2389V97.6692L147.706 99.7592L148.365 101.406L148.217 102.041L148.251 102.348L148.569 102.757L148.512 103.62L149.671 106.175L149.602 107.107L149.966 108.776L150.375 109.071L151.51 111.604L154.304 118.645L154.644 119.1L154.94 120.167L154.678 121.087L154.712 121.678L154.156 122.246L153.066 124.585L153.111 124.801L153.373 125.13L154.917 125.028L155.224 125.164L155.269 126.005L155.723 126.913L155.746 127.674L156.132 128.594L155.632 129.525L154.94 129.582L154.429 130.014L153.861 129.673L153.248 129.559L151.578 130.036L149.568 131.695L147.536 132.274L147.07 132.807L147.059 133.75L147.411 134.409L148.137 135.124L149.148 135.783L151.033 136.271L151.522 137.123L151.465 137.259L151.226 137.214L150.602 137.555L150.352 137.294L150.261 137.555L149.875 137.702L149.512 137.543L149.364 137.861L147.751 138.543L147.763 138.838L147.274 139.167L146.934 139.042L146.343 139.281L146.332 139.031L145.719 139.27L145.605 138.94L145.401 138.929L144.197 139.133L144.129 140.042L143.765 140.95L143.323 142.836L142.539 143.597L142.198 144.869L142.426 146.061L143.13 147.526L143.788 148.139L144.39 148.196L144.629 148.469L144.208 148.957L143.277 149.423L143.141 150.093L143.107 151.092L143.572 151.74L143.538 153.352L144.572 154.09L144.311 154.988L144.844 155.726L144.651 156.816L143.924 157.236L143.516 157.259L143.118 156.941L142.857 156.93L142.221 157.452L141.88 157.384L141.29 157.793L141.12 157.691L140.972 157.18L141.154 155.703L140.745 155.079L140.381 154.045L139.87 153.716L139.007 153.5L138.122 152.648L137.758 151.603L137.44 151.035L137.179 150.865L135.862 150.774L135.657 151.217L135.362 151.297L135.192 151.081V150.672L135.033 150.615L134.056 150.536L133.704 150.309L133.171 150.388L132.875 149.911L131.104 149.627L130.036 150.377L129.094 150.218L127.697 150.24L127.141 149.309L125.165 147.719L124.631 146.549L124.358 146.288L123.064 145.289L122.019 145.005L121.61 144.471L121.281 144.346L120.373 142.756L120.145 141.518L120.248 140.962L120.509 140.598L120.373 140.473L119.839 140.485L118.658 140.871L118.306 141.632L118.079 141.779L117.409 140.905L117.011 140.678L116.148 140.78L115.512 140.542L114.888 140.723L114.286 140.314L113.128 140.087L112.56 139.781L111.981 139.837L111.322 139.27L110.652 139.304L110.334 139.065L109.516 139.36L108.892 138.52L106.632 137.998L106.132 137.203L105.281 136.885L103.362 137.68L102.657 137.418L102.283 138.157L101.738 138.327L98.3652 137.555L97.9112 138.259L96.8092 138.066L96.2762 138.236L95.7422 138.838L95.3102 138.213L94.9132 137.975L94.5722 137.986L93.7432 138.497L93.0392 137.736L92.3462 137.952L91.5292 137.555L90.7682 137.6L90.3712 137.43L89.7122 136.68L87.9062 136.794L86.5552 136.499L85.2382 136.476L84.0792 136.044L83.0122 136.169L82.3312 135.919L79.9912 136.533L78.1402 136.589L77.3342 136.34L76.6872 135.442L76.2892 135.204L74.3252 134.999L73.3602 135.158L70.8502 134.5L69.0222 134.522L68.0562 135.465L67.0232 135.613L66.6602 136.555L66.3082 136.839L63.7642 136.612L62.8552 136.703L61.7092 136.43L61.0732 137.328L60.1762 137.418L58.0292 138.032L57.4962 138.009L57.3252 137.861L56.9852 136.828L56.2922 136.419L53.3392 136.294L51.1592 136.703L50.8862 136.578L50.5342 136.09L49.5122 135.976L48.7742 135.363L48.0822 135.704L47.3432 135.488L46.2762 136.033L46.1062 136.056L45.8792 134.988L44.7322 135.488L43.5052 134.715L41.3702 134.954L41.1202 134.466L42.3922 134.079L42.9832 132.876L38.8272 130.911L36.6922 130.468L36.1692 128.31L35.3182 127.935L35.6242 126.629L34.7842 126.13L35.0342 123.563L37.9642 120.008L37.1692 118.668L33.8642 119.077L34.1932 118.021L32.9442 117.862L32.195 118.373L28.4703 117.067L28.459 115.113L33.2852 110.525L34.1252 110.128L34.6482 108.708L34.1372 106.516L35.1132 105.392L35.6132 104.074L35.5112 100.281L33.2172 98.7142L31.9679 97.0219L30.5939 96.8289L28.4816 94.8868L28.107 94.8414L23.1785 94.3076L18.9655 90.2759L18.2501 89.1515L19.2607 85.4265L17.1486 81.7809L10.0626 76.8179L9.6311 75.4664L8.76801 74.4329L8.5863 70.6397L2.3974 70.4807L2 64.6773L8.6658 65.1657L7.4621 61.9971L6.5082 50.413L8.609 46.8696L10.3805 42.9969L12.311 39.8056L14.8434 36.955L19.5333 32.1396L25.5405 26.711L38.1572 19.4539L43.4142 20.5101L50.1602 19.2609L57.6892 20.5896L57.6662 21.5209L58.9382 21.8616L60.4482 20.0786L61.0612 21.9297L61.7432 21.1007L63.7532 21.8275L64.4452 20.1921L65.8762 20.4193L67.9092 21.0212L71.2592 22.5089L68.8742 20.1013L70.4072 19.8173L72.7352 21.0098L74.9272 20.7032L77.1302 21.8729L77.8562 23.7355L79.5142 23.4856L79.4802 21.4641L86.1692 20.7145L85.2152 4.04248L85.8172 2.92952L91.5172 4.20149L94.7542 0.56727L97.5702 3.53143L101.124 -1L104.849 2.13452Z" fill="#1E5EDA"/>
<path d="M104.849 2.13452L107.484 3.84943L108.585 5.1441L111.367 5.39396L112.446 8.16507L122.269 7.06343L129.196 16.7737L139.7 13.1054L144.413 15.0588L144.322 17.3302L151.874 20.6464L158.29 24.2352L165.148 24.4056L166.386 26.2908L167.431 26.2567L168.669 25.4504L169.316 27.0744L170.031 27.9035L171.019 26.5066L171.667 26.5179L170.838 27.8126L171.576 27.9716L172.348 28.0057L173.12 28.5849L173.836 27.2675L174.358 27.2448L173.949 28.3578L172.836 29.1868L173.143 29.5275L174.108 29.3345L173.325 30.368L180.638 38.9424L182.364 45.4727L185.941 49.3681L185.26 54.1381L185.532 55.9324L186.338 56.6366L188.621 55.8189L188.996 56.3299L190.937 57.4997L191.755 58.2266L195.571 59.0443L195.877 59.4758L196.468 61.7245L195.627 65.7335L193.288 69.186L192.118 68.3683L189.325 65.8812L188.144 65.5859L186.361 65.9607L185.089 66.4717L182.977 67.9254L181.569 68.0617L180.922 67.6869L180.536 66.5398L180.32 66.4263L179.139 66.7329L178.571 66.5626L178.423 65.3019L178.174 64.8136L177.901 63.3826L177.083 62.758L176.663 62.0198L175.732 61.5087L175.516 61.8494L175.062 62.0766L174.335 61.9062L173.279 62.7466L172.961 63.3713L172.144 63.5643L171.814 64.0186L171.224 64.3707L170.134 64.5524L169.793 63.9505L169.657 63.9732L168.601 64.9726L167.908 64.8136L167.669 64.6092L166.999 65.2452L165.898 65.4269L165.466 65.2906L165.307 65.5177L164.478 65.7789L164.161 66.3809L163.922 66.4376L162.866 66.1196L162.821 66.4944L162.491 66.8465L162.434 67.244L162.196 67.5052L161.742 67.4825L160.879 67.7778L159.471 67.7323L158.131 68.8794L157.324 68.9589L156.507 68.4365L155.065 68.0276L154.565 67.5279L154.406 67.5961L154.281 68.2661L153.849 68.6636L151.862 69.504L150.817 69.3677L149.818 69.5154L149.375 69.1633L148.864 69.2769L148.319 69.7425L147.922 70.8328L146.9 71.5483H146.037L145.594 70.9577L145.298 70.8669L144.674 71.1054L143.845 71.7981L143.323 71.9685L142.357 72.0253L141.812 71.5256L141.051 71.5937L140.313 71.4007L140.132 71.7073L140.404 72.3319L140.336 72.6158L140.007 72.4341L139.677 72.5022L138.406 73.8992L136.168 75.3188L135.816 75.7163L135.249 75.8866L134.999 76.2841L135.249 76.5567L135.839 76.1365L136.327 76.1251L137.054 76.6135L137.633 76.693L138.281 78.6123L139.178 79.1007L140.961 78.8281L141.665 78.1921L143.323 78.4306L144.106 77.84L144.663 77.9082L145.003 78.2943L144.878 78.6804L145.071 78.7827L146.014 78.5101L146.536 79.5436L148.353 80.4521L149.137 81.213L149.25 82.0307L147.365 82.6667L146.468 83.5753L147.411 85.029L147.127 85.665L146.536 88.1294L146.059 88.9698L146.514 90.4576L146.945 93.9328L147.388 95.2389V97.6692L147.706 99.7592L148.365 101.406L148.217 102.041L148.251 102.348L148.569 102.757L148.512 103.62L149.671 106.175L149.602 107.107L149.966 108.776L150.375 109.071L151.51 111.604L154.304 118.645L154.644 119.1L154.94 120.167L154.678 121.087L154.712 121.678L154.156 122.246L153.066 124.585L153.111 124.801L153.373 125.13L154.917 125.028L155.224 125.164L155.269 126.005L155.723 126.913L155.746 127.674L156.132 128.594L155.632 129.525L154.94 129.582L154.429 130.014L153.861 129.673L153.248 129.559L151.578 130.036L149.568 131.695L147.536 132.274L147.07 132.807L147.059 133.75L147.411 134.409L148.137 135.124L149.148 135.783L151.033 136.271L151.522 137.123L151.465 137.259L151.226 137.214L150.602 137.555L150.352 137.294L150.261 137.555L149.875 137.702L149.512 137.543L149.364 137.861L147.751 138.543L147.763 138.838L147.274 139.167L146.934 139.042L146.343 139.281L146.332 139.031L145.719 139.27L145.605 138.94L145.401 138.929L144.197 139.133L144.129 140.042L143.765 140.95L143.323 142.836L142.539 143.597L142.198 144.869L142.426 146.061L143.13 147.526L143.788 148.139L144.39 148.196L144.629 148.469L144.208 148.957L143.277 149.423L143.141 150.093L143.107 151.092L143.572 151.74L143.538 153.352L144.572 154.09L144.311 154.988L144.844 155.726L144.651 156.816L143.924 157.236L143.516 157.259L143.118 156.941L142.857 156.93L142.221 157.452L141.88 157.384L141.29 157.793L141.12 157.691L140.972 157.18L141.154 155.703L140.745 155.079L140.381 154.045L139.87 153.716L139.007 153.5L138.122 152.648L137.758 151.603L137.44 151.035L137.179 150.865L135.862 150.774L135.657 151.217L135.362 151.297L135.192 151.081V150.672L135.033 150.615L134.056 150.536L133.704 150.309L133.171 150.388L132.875 149.911L131.104 149.627L130.036 150.377L129.094 150.218L127.697 150.24L127.141 149.309L125.165 147.719L124.631 146.549L124.358 146.288L123.064 145.289L122.019 145.005L121.61 144.471L121.281 144.346L120.373 142.756L120.145 141.518L120.248 140.962L120.509 140.598L120.373 140.473L119.839 140.485L118.658 140.871L118.306 141.632L118.079 141.779L117.409 140.905L117.011 140.678L116.148 140.78L115.512 140.542L114.888 140.723L114.286 140.314L113.128 140.087L112.56 139.781L111.981 139.837L111.322 139.27L110.652 139.304L110.334 139.065L109.516 139.36L108.892 138.52L106.632 137.998L106.132 137.203L105.281 136.885L103.362 137.68L102.657 137.418L102.283 138.157L101.738 138.327L98.3652 137.555L97.9112 138.259L96.8092 138.066L96.2762 138.236L95.7422 138.838L95.3102 138.213L94.9132 137.975L94.5722 137.986L93.7432 138.497L93.0392 137.736L92.3462 137.952L91.5292 137.555L90.7682 137.6L90.3712 137.43L89.7122 136.68L87.9062 136.794L86.5552 136.499L85.2382 136.476L84.0792 136.044L83.0122 136.169L82.3312 135.919L79.9912 136.533L78.1402 136.589L77.3342 136.34L76.6872 135.442L76.2892 135.204L74.3252 134.999L73.3602 135.158L70.8502 134.5L69.0222 134.522L68.0562 135.465L67.0232 135.613L66.6602 136.555L66.3082 136.839L63.7642 136.612L62.8552 136.703L61.7092 136.43L61.0732 137.328L60.1762 137.418L58.0292 138.032L57.4962 138.009L57.3252 137.861L56.9852 136.828L56.2922 136.419L53.3392 136.294L51.1592 136.703L50.8862 136.578L50.5342 136.09L49.5122 135.976L48.7742 135.363L48.0822 135.704L47.3432 135.488L46.2762 136.033L46.1062 136.056L45.8792 134.988L44.7322 135.488L43.5052 134.715L41.3702 134.954L41.1202 134.466L42.3922 134.079L42.9832 132.876L38.8272 130.911L36.6922 130.468L36.1692 128.31L35.3182 127.935L35.6242 126.629L34.7842 126.13L35.0342 123.563L37.9642 120.008L37.1692 118.668L33.8642 119.077L34.1932 118.021L32.9442 117.862L32.195 118.373L28.4703 117.067L28.459 115.113L33.2852 110.525L34.1252 110.128L34.6482 108.708L34.1372 106.516L35.1132 105.392L35.6132 104.074L35.5112 100.281L33.2172 98.7142L31.9679 97.0219L30.5939 96.8289L28.4816 94.8868L28.107 94.8414L23.1785 94.3076L18.9655 90.2759L18.2501 89.1515L19.2607 85.4265L17.1486 81.7809L10.0626 76.8179L9.6311 75.4664L8.76801 74.4329L8.5863 70.6397L2.3974 70.4807L2 64.6773L8.6658 65.1657L7.4621 61.9971L6.5082 50.413L8.609 46.8696L10.3805 42.9969L12.311 39.8056L14.8434 36.955L19.5333 32.1396L25.5405 26.711L38.1572 19.4539L43.4142 20.5101L50.1602 19.2609L57.6892 20.5896L57.6662 21.5209L58.9382 21.8616L60.4482 20.0786L61.0612 21.9297L61.7432 21.1007L63.7532 21.8275L64.4452 20.1921L65.8762 20.4193L67.9092 21.0212L71.2592 22.5089L68.8742 20.1013L70.4072 19.8173L72.7352 21.0098L74.9272 20.7032L77.1302 21.8729L77.8562 23.7355L79.5142 23.4856L79.4802 21.4641L86.1692 20.7145L85.2152 4.04248L85.8172 2.92952L91.5172 4.20149L94.7542 0.56727L97.5702 3.53143L101.124 -1L104.849 2.13452Z" fill="url(#paint0_linear)" fill-opacity="0.1"/>
</g>
<defs>
<linearGradient id="paint0_linear" x1="99.2342" y1="-1" x2="99.2342" y2="157.793" gradientUnits="userSpaceOnUse">
<stop stop-color="white"/>
<stop offset="1" stop-color="white" stop-opacity="0"/>
</linearGradient>
<clipPath id="clip0">
<rect width="198" height="165" fill="white"/>
</clipPath>
</defs>
</svg>
