<svg width="196" height="134" viewBox="0 0 196 134" fill="none" xmlns="http://www.w3.org/2000/svg">
<path d="M14.3765 48.0746L17.9308 48.2904L19.8046 52.2199L23.0977 50.7548L27.2994 50.1075L27.4584 53.6054H34.5325L36.7705 54.8093L39.2115 55.1159L40.6195 54.3096L45.2865 55.9677L45.0375 48.3699L49.9425 48.2336L51.2375 49.8463L54.3825 51.1183L56.7105 53.2534L57.3125 53.5941L58.5955 52.3221L58.0285 51.5271L58.6985 50.3574L59.5725 51.0274L62.3315 48.0178L62.0825 46.9389L60.7305 46.3938L60.2425 43.918L63.4565 43.9861L64.3195 42.0668L65.2615 41.5216L67.6915 41.851L68.2485 40.0566L68.8615 39.9544L69.2815 37.842L70.8605 36.888L71.7805 36.7972L72.1545 35.4457L72.9155 35.5025L73.8925 34.503L74.4945 34.7075L76.3795 33.7648L74.5055 31.6297L75.7205 31.8796L74.6755 28.2567L78.0715 25.1222L76.7765 23.3278L77.5605 23.0779L77.6395 21.5334L77.2535 20.2728L75.7205 20.1478L76.0045 17.5358L73.5405 17.3427L72.8475 15.9003L71.6325 15.4915L71.5305 14.2422L69.9405 11.9368L70.6105 10.9033L71.5415 10.8124L72.1775 10.5512L72.2225 9.61993L73.3475 8.76816L73.9265 9.43821L74.6075 8.08674L73.5285 8.15488L73.4605 6.28098L76.7085 6.37184L77.2085 5.78128L76.6175 5.11121L76.7995 4.49794L76.0725 3.35089L77.7755 3.47581L77.9685 2.5559L80.1375 2.7149L80.2405 3.82788L83.3515 3.60074L83.2835 1.70413L85.4525 1.87448L85.5205 3.4531L86.9055 3.72566L87.1675 4.67965L88.0865 4.91815L88.4845 6.20148L88.5415 7.92774L90.0625 8.35931L90.7785 6.70119L89.5515 6.43998L89.1775 4.69101L90.1085 4.60015L90.5175 2.74897L91.7435 3.01018L92.2655 1.95398L93.3445 1.88584L94.1735 1L98.9655 1.07949L99.1815 2.82847L100.396 3.24867L100.646 7.03054L100.113 8.23438L100.863 8.60916L101.361 7.87096L104.098 8.56373L105.678 7.91638L105.87 9.96068L104.917 10.5058L105.167 11.4711L104.234 11.5506L104.326 12.6409L103.667 13.2201L107.982 13.1065L108.322 12.516L109.096 12.5728L109.208 13.2087L111.458 16.048L111.786 17.797L113.932 17.513L113.523 14.8328L115.522 14.5375L116.057 11.4598L125.38 11.1986L125.288 12.2888L125.583 12.3116L125.255 14.4694L128.82 15.1054L129.059 15.7641L131.012 15.7868L131.84 14.9236L132.454 14.8214L132.977 14.0946L134.35 13.9015L135.089 12.4138L137.337 12.4705L137.201 13.8674L141.777 18.8418L140.891 20.1706L140.175 22.7599L140.88 24.702L139.471 25.338L139.494 26.5872L140.562 27.7911L140.857 29.2221L147.296 30.0284L152.52 29.6309L153.553 26.928L157.811 25.9853L158.755 26.8712L160.809 25.849L163.195 25.8263L163.91 24.8042L164.66 24.7361L165.124 25.9058L165.137 28.5974L166.068 29.6536L166.68 36.1839L169.507 34.98L173.732 37.1265L176.73 37.0584L177.003 38.5121L178.65 38.4326L180.227 41.4649L188.768 42.1009L188.835 42.7368L189.993 42.9072L190.505 65.5757L190.971 66.5637L189.619 66.8249L186.519 69.2667L185.826 70.0844L185.712 76.7737L189.756 74.7862L190.88 77.3869L193.48 77.6254L195.637 78.8633L195.093 79.6924L193.911 79.8173L193.049 80.8962L190.8 80.2602L185.883 83.4743L185.553 85.9955L183.169 88.812L179.387 87.6877L177.956 89.8909L177.32 88.0057L176.719 88.2215L177.07 88.8688L175.266 89.3799L174.663 88.3918L173.596 88.8461L173.232 90.6064L174.197 91.038L175.561 94.0703L175.333 94.7858L176.128 95.3423L177.309 92.8097L178.445 92.9687L181.318 94.2634L178.036 97.3979L172.176 99.2945L172.96 101.191L171.734 101.77L169.837 101.963L168.941 103.485L165.374 101.975L164.079 104.337L163.206 104.53L162.99 105.098L163.626 105.768L162.139 107.505L158.947 107.698L158.811 108.868L158.005 108.471L156.88 109.516L157.505 110.333L155.904 111.753L158.299 113.377L156.471 114.331L153.939 112.696L153.064 114.058L151.43 114.603L151.917 117.897L150.441 118.306L150.749 119.373L147.988 117.272L143.355 117.761L142.811 118.874L141.436 118.419L143.458 115.569L143.061 113.911L143.73 112.957L143.525 112.196L142.855 111.821L144.367 109.788L141.867 107.574L140.279 107.687L139.982 106.472L138.484 107.04L138.165 105.972L137.143 106.154L137.189 107.04L133.885 108.448L133.26 111.764L131.682 111.742L130.966 113.138L128.99 112.923L127.264 114.354L127.73 115.421L124.811 117.465L123.244 117.443L122.904 117.988L121.451 118.283L121.167 125.552L119.576 122.769L114.818 124.904L116.193 128.391L115.488 129.776L113.046 130.106L109.878 132.127L108.096 132.968L106.734 132.264L106.824 129.799L108.788 126.937L108.322 125.881L107.29 126.222L106.619 124.268L99.7495 126.256L98.7615 126.165L98.0115 126.54L97.0355 126.301L95.7295 126.619L96.2635 123.769L94.9795 123.655L94.3325 122.871L93.5035 120.895L92.9245 120.997L92.2545 122.099L91.8455 120.168L88.8475 121.804L89.6315 124.348L87.8145 125.495L86.8265 125.415L86.1795 124.632L85.9525 125.631L86.5995 126.415L86.3265 127.982L85.7475 128.073L84.8055 127.278L81.9665 128.777L79.1045 126.948L77.8215 126.846L77.4575 125.949L75.6865 126.528L74.9255 125.165L76.5045 123.405L77.4235 119.112L78.4005 117.59L77.9125 114.626L78.9795 113.979L79.2865 106.245L72.4385 106.438L71.7575 107.698L69.0655 108.664L64.2735 112.264L62.1955 110.64L59.0725 111.299L57.7665 111.06L59.2435 113.059L59.4025 114.978L56.7795 116.977L47.1605 118.226L41.9595 121.531L38.8255 116.682L41.2785 115.228L39.8365 111.639L37.9395 110.947L32.4775 112.537L26.5953 110.447L24.8465 109.186L22.1098 109.913L20.9628 105.302L19.2708 106.097L18.544 105.472L17.4766 105.995L17.522 104.678L16.7498 105.37L16.8066 103.905L16.5568 102.565L12.4233 100.135L11.0492 104.621L6.6545 105.12L5.8142 103.315L7.2677 96.4553L2.5664 91.9011L3.8156 90.7768L1.9192 88.301L5.0647 85.4958L4.02 84.6895L5.8823 79.2722L3.8723 75.1042L1.1129 74.9565L0 71.1292L3.8383 71.504L9.6297 68.5285L10.5382 64.5195L11.5148 58.8296L14.2175 56.5696L14.3765 48.0746Z" fill="#1E5EDA"/>
<path d="M14.3765 48.0746L17.9308 48.2904L19.8046 52.2199L23.0977 50.7548L27.2994 50.1075L27.4584 53.6054H34.5325L36.7705 54.8093L39.2115 55.1159L40.6195 54.3096L45.2865 55.9677L45.0375 48.3699L49.9425 48.2336L51.2375 49.8463L54.3825 51.1183L56.7105 53.2534L57.3125 53.5941L58.5955 52.3221L58.0285 51.5271L58.6985 50.3574L59.5725 51.0274L62.3315 48.0178L62.0825 46.9389L60.7305 46.3938L60.2425 43.918L63.4565 43.9861L64.3195 42.0668L65.2615 41.5216L67.6915 41.851L68.2485 40.0566L68.8615 39.9544L69.2815 37.842L70.8605 36.888L71.7805 36.7972L72.1545 35.4457L72.9155 35.5025L73.8925 34.503L74.4945 34.7075L76.3795 33.7648L74.5055 31.6297L75.7205 31.8796L74.6755 28.2567L78.0715 25.1222L76.7765 23.3278L77.5605 23.0779L77.6395 21.5334L77.2535 20.2728L75.7205 20.1478L76.0045 17.5358L73.5405 17.3427L72.8475 15.9003L71.6325 15.4915L71.5305 14.2422L69.9405 11.9368L70.6105 10.9033L71.5415 10.8124L72.1775 10.5512L72.2225 9.61993L73.3475 8.76816L73.9265 9.43821L74.6075 8.08674L73.5285 8.15488L73.4605 6.28098L76.7085 6.37184L77.2085 5.78128L76.6175 5.11121L76.7995 4.49794L76.0725 3.35089L77.7755 3.47581L77.9685 2.5559L80.1375 2.7149L80.2405 3.82788L83.3515 3.60074L83.2835 1.70413L85.4525 1.87448L85.5205 3.4531L86.9055 3.72566L87.1675 4.67965L88.0865 4.91815L88.4845 6.20148L88.5415 7.92774L90.0625 8.35931L90.7785 6.70119L89.5515 6.43998L89.1775 4.69101L90.1085 4.60015L90.5175 2.74897L91.7435 3.01018L92.2655 1.95398L93.3445 1.88584L94.1735 1L98.9655 1.07949L99.1815 2.82847L100.396 3.24867L100.646 7.03054L100.113 8.23438L100.863 8.60916L101.361 7.87096L104.098 8.56373L105.678 7.91638L105.87 9.96068L104.917 10.5058L105.167 11.4711L104.234 11.5506L104.326 12.6409L103.667 13.2201L107.982 13.1065L108.322 12.516L109.096 12.5728L109.208 13.2087L111.458 16.048L111.786 17.797L113.932 17.513L113.523 14.8328L115.522 14.5375L116.057 11.4598L125.38 11.1986L125.288 12.2888L125.583 12.3116L125.255 14.4694L128.82 15.1054L129.059 15.7641L131.012 15.7868L131.84 14.9236L132.454 14.8214L132.977 14.0946L134.35 13.9015L135.089 12.4138L137.337 12.4705L137.201 13.8674L141.777 18.8418L140.891 20.1706L140.175 22.7599L140.88 24.702L139.471 25.338L139.494 26.5872L140.562 27.7911L140.857 29.2221L147.296 30.0284L152.52 29.6309L153.553 26.928L157.811 25.9853L158.755 26.8712L160.809 25.849L163.195 25.8263L163.91 24.8042L164.66 24.7361L165.124 25.9058L165.137 28.5974L166.068 29.6536L166.68 36.1839L169.507 34.98L173.732 37.1265L176.73 37.0584L177.003 38.5121L178.65 38.4326L180.227 41.4649L188.768 42.1009L188.835 42.7368L189.993 42.9072L190.505 65.5757L190.971 66.5637L189.619 66.8249L186.519 69.2667L185.826 70.0844L185.712 76.7737L189.756 74.7862L190.88 77.3869L193.48 77.6254L195.637 78.8633L195.093 79.6924L193.911 79.8173L193.049 80.8962L190.8 80.2602L185.883 83.4743L185.553 85.9955L183.169 88.812L179.387 87.6877L177.956 89.8909L177.32 88.0057L176.719 88.2215L177.07 88.8688L175.266 89.3799L174.663 88.3918L173.596 88.8461L173.232 90.6064L174.197 91.038L175.561 94.0703L175.333 94.7858L176.128 95.3423L177.309 92.8097L178.445 92.9687L181.318 94.2634L178.036 97.3979L172.176 99.2945L172.96 101.191L171.734 101.77L169.837 101.963L168.941 103.485L165.374 101.975L164.079 104.337L163.206 104.53L162.99 105.098L163.626 105.768L162.139 107.505L158.947 107.698L158.811 108.868L158.005 108.471L156.88 109.516L157.505 110.333L155.904 111.753L158.299 113.377L156.471 114.331L153.939 112.696L153.064 114.058L151.43 114.603L151.917 117.897L150.441 118.306L150.749 119.373L147.988 117.272L143.355 117.761L142.811 118.874L141.436 118.419L143.458 115.569L143.061 113.911L143.73 112.957L143.525 112.196L142.855 111.821L144.367 109.788L141.867 107.574L140.279 107.687L139.982 106.472L138.484 107.04L138.165 105.972L137.143 106.154L137.189 107.04L133.885 108.448L133.26 111.764L131.682 111.742L130.966 113.138L128.99 112.923L127.264 114.354L127.73 115.421L124.811 117.465L123.244 117.443L122.904 117.988L121.451 118.283L121.167 125.552L119.576 122.769L114.818 124.904L116.193 128.391L115.488 129.776L113.046 130.106L109.878 132.127L108.096 132.968L106.734 132.264L106.824 129.799L108.788 126.937L108.322 125.881L107.29 126.222L106.619 124.268L99.7495 126.256L98.7615 126.165L98.0115 126.54L97.0355 126.301L95.7295 126.619L96.2635 123.769L94.9795 123.655L94.3325 122.871L93.5035 120.895L92.9245 120.997L92.2545 122.099L91.8455 120.168L88.8475 121.804L89.6315 124.348L87.8145 125.495L86.8265 125.415L86.1795 124.632L85.9525 125.631L86.5995 126.415L86.3265 127.982L85.7475 128.073L84.8055 127.278L81.9665 128.777L79.1045 126.948L77.8215 126.846L77.4575 125.949L75.6865 126.528L74.9255 125.165L76.5045 123.405L77.4235 119.112L78.4005 117.59L77.9125 114.626L78.9795 113.979L79.2865 106.245L72.4385 106.438L71.7575 107.698L69.0655 108.664L64.2735 112.264L62.1955 110.64L59.0725 111.299L57.7665 111.06L59.2435 113.059L59.4025 114.978L56.7795 116.977L47.1605 118.226L41.9595 121.531L38.8255 116.682L41.2785 115.228L39.8365 111.639L37.9395 110.947L32.4775 112.537L26.5953 110.447L24.8465 109.186L22.1098 109.913L20.9628 105.302L19.2708 106.097L18.544 105.472L17.4766 105.995L17.522 104.678L16.7498 105.37L16.8066 103.905L16.5568 102.565L12.4233 100.135L11.0492 104.621L6.6545 105.12L5.8142 103.315L7.2677 96.4553L2.5664 91.9011L3.8156 90.7768L1.9192 88.301L5.0647 85.4958L4.02 84.6895L5.8823 79.2722L3.8723 75.1042L1.1129 74.9565L0 71.1292L3.8383 71.504L9.6297 68.5285L10.5382 64.5195L11.5148 58.8296L14.2175 56.5696L14.3765 48.0746Z" fill="url(#paint0_linear)" fill-opacity="0.1"/>
<defs>
<linearGradient id="paint0_linear" x1="97.8185" y1="1" x2="97.8185" y2="132.968" gradientUnits="userSpaceOnUse">
<stop stop-color="white"/>
<stop offset="1" stop-color="white" stop-opacity="0"/>
</linearGradient>
</defs>
</svg>
