<svg width="351" height="341" viewBox="0 0 351 341" fill="none" xmlns="http://www.w3.org/2000/svg">
<g filter="url(#filter0_ddddddd)">
<path d="M180.941 3.66235L183.576 5.37726L184.677 6.67193L187.459 6.92179L188.538 9.69289L198.361 8.59126L205.288 18.3015L215.792 14.6332L220.505 16.5866L220.414 18.858L227.966 22.1742L234.382 25.763L241.24 25.9334L242.478 27.8186L243.523 27.7845L244.761 26.9782L245.408 28.6022L246.123 29.4313L247.111 28.0344L247.759 28.0457L246.93 29.3404L247.668 29.4994L248.44 29.5335L249.212 30.1127L249.928 28.7953L250.45 28.7726L250.041 29.8856L248.928 30.7146L249.235 31.0553L250.2 30.8623L249.417 31.8958L256.73 40.4702L258.456 47.0005L262.033 50.8959L261.352 55.6659L261.624 57.4602L262.43 58.1644L264.713 57.3467L265.088 57.8577L267.029 59.0275L267.847 59.7544L271.663 60.5721L271.969 61.0036L272.56 63.2523L271.719 67.2613L269.38 70.7138L268.21 69.8961L265.417 67.409L264.236 67.1137L262.453 67.4885L261.181 67.9995L259.069 69.4532L257.661 69.5895L257.014 69.2147L256.628 68.0676L256.412 67.9541L255.231 68.2607L254.663 68.0904L254.515 66.8297L254.266 66.3414L253.993 64.9104L253.175 64.2858L252.755 63.5476L251.824 63.0365L251.608 63.3772L251.154 63.6044L250.427 63.434L249.371 64.2744L249.053 64.8991L248.236 65.0921L247.906 65.5464L247.316 65.8985L246.226 66.0802L245.885 65.4783L245.749 65.501L244.693 66.5004L244 66.3414L243.761 66.137L243.091 66.773L241.99 66.9547L241.558 66.8184L241.399 67.0455L240.57 67.3067L240.253 67.9087L240.014 67.9654L238.958 67.6474L238.913 68.0222L238.583 68.3743L238.526 68.7718L238.288 69.033L237.834 69.0103L236.971 69.3056L235.563 69.2601L234.223 70.4072L233.416 70.4867L232.599 69.9643L231.157 69.5554L230.657 69.0557L230.498 69.1239L230.373 69.7939L229.941 70.1914L227.954 71.0318L226.909 70.8955L225.91 71.0432L225.467 70.6911L224.956 70.8047L224.411 71.2703L224.014 72.3606L222.992 73.0761H222.129L221.686 72.4855L221.39 72.3947L220.766 72.6332L219.937 73.3259L219.415 73.4963L218.449 73.5531L217.904 73.0534L217.143 73.1215L216.405 72.9284L216.224 73.2351L216.496 73.8597L216.428 74.1436L216.099 73.9619L215.769 74.03L214.498 75.427L212.26 76.8466L211.908 77.2441L211.341 77.4144L211.091 77.8119L211.341 78.0845L211.931 77.6643L212.419 77.6529L213.146 78.1413L213.725 78.2208L214.373 80.1401L215.27 80.6285L217.053 80.3559L217.757 79.7199L219.415 79.9584L220.198 79.3678L220.755 79.436L221.095 79.8221L220.97 80.2082L221.163 80.3105L222.106 80.0379L222.628 81.0714L224.445 81.9799L225.229 82.7408L225.342 83.5585L223.457 84.1945L222.56 85.1031L223.503 86.5568L223.219 87.1928L222.628 89.6572L222.151 90.4976L222.606 91.9854L223.037 95.4606L223.48 96.7667V99.1971L223.798 101.287L224.457 102.934L224.309 103.569L224.343 103.876L224.661 104.285L224.604 105.148L225.763 107.703L225.694 108.635L226.058 110.304L226.467 110.599L227.602 113.132L230.396 120.173L230.736 120.628L231.032 121.695L230.77 122.615L230.804 123.206L230.248 123.774L229.158 126.113L229.203 126.329L229.465 126.658L231.009 126.556L231.316 126.692L231.361 127.533L231.815 128.441L231.838 129.202L232.224 130.122L231.724 131.053L231.032 131.11L230.521 131.542L229.953 131.201L229.34 131.087L227.67 131.564L225.66 133.223L223.628 133.802L223.162 134.335L223.151 135.278L223.503 135.937L224.229 136.652L225.24 137.311L227.125 137.799L227.614 138.651L227.557 138.787L227.318 138.742L226.694 139.083L226.444 138.822L226.353 139.083L225.967 139.23L225.604 139.071L225.456 139.389L223.843 140.071L223.855 140.366L223.366 140.695L223.026 140.57L222.435 140.809L222.424 140.559L221.811 140.798L221.697 140.468L221.493 140.457L220.289 140.661L220.221 141.57L219.857 142.478L219.415 144.364L218.631 145.125L218.29 146.397L218.518 147.589L219.222 149.054L219.88 149.667L220.482 149.724L220.721 149.997L220.3 150.485L219.369 150.951L219.233 151.621L219.199 152.62L219.664 153.268L219.63 154.88L220.664 155.618L220.403 156.516L220.936 157.254L220.743 158.344L220.016 158.764L219.608 158.787L219.21 158.469L218.949 158.458L218.313 158.98L217.972 158.912L217.382 159.321L217.212 159.219L217.064 158.708L217.246 157.231L216.837 156.607L216.473 155.573L215.962 155.244L215.099 155.028L214.214 154.176L213.85 153.131L213.532 152.563L213.271 152.393L211.954 152.302L211.749 152.745L211.454 152.825L211.284 152.609V152.2L211.125 152.143L210.148 152.064L209.796 151.837L209.263 151.916L208.967 151.439L207.196 151.155L206.128 151.905L205.186 151.746L203.789 151.768L203.233 150.837L201.257 149.247L200.723 148.077L200.45 147.816L199.156 146.817L198.111 146.533L197.702 145.999L197.373 145.874L196.465 144.284L196.237 143.046L196.34 142.49L196.601 142.126L196.465 142.001L195.931 142.013L194.75 142.399L194.398 143.16L194.171 143.307L193.501 142.433L193.103 142.206L192.24 142.308L191.604 142.07L190.98 142.251L190.378 141.842L189.22 141.615L188.652 141.309L188.073 141.365L187.414 140.798L186.744 140.832L186.426 140.593L185.608 140.888L184.984 140.048L182.724 139.526L182.224 138.731L181.373 138.413L179.454 139.208L178.749 138.946L178.375 139.685L177.83 139.855L174.457 139.083L174.003 139.787L172.901 139.594L172.368 139.764L171.834 140.366L171.402 139.741L171.005 139.503L170.664 139.514L169.835 140.025L169.131 139.264L168.438 139.48L167.621 139.083L166.86 139.128L166.463 138.958L165.804 138.208L163.998 138.322L162.647 138.027L161.33 138.004L160.171 137.572L159.104 137.697L158.423 137.447L156.083 138.061L154.232 138.117L153.426 137.868L152.779 136.97L152.381 136.732L150.417 136.527L149.452 136.686L146.942 136.028L145.114 136.05L144.148 136.993L143.115 137.141L142.752 138.083L142.4 138.367L139.856 138.14L138.947 138.231L137.801 137.958L137.165 138.856L136.268 138.946L134.121 139.56L133.588 139.537L133.417 139.389L133.077 138.356L132.384 137.947L129.431 137.822L127.251 138.231L126.978 138.106L126.626 137.618L125.604 137.504L124.866 136.891L124.174 137.232L123.435 137.016L122.368 137.561L122.198 137.584L121.971 136.516L120.824 137.016L119.597 136.243L117.462 136.482L117.212 135.994L118.484 135.607L119.075 134.404L114.919 132.439L112.784 131.996L112.261 129.838L111.41 129.463L111.716 128.157L110.876 127.658L111.126 125.091L114.056 121.536L113.261 120.196L109.956 120.605L110.285 119.549L109.036 119.39L108.287 119.901L104.562 118.595L104.551 116.641L109.377 112.053L110.217 111.656L110.74 110.236L110.229 108.044L111.205 106.92L111.705 105.602L111.603 101.809L109.309 100.242L108.06 98.5497L106.686 98.3567L104.573 96.4146L104.199 96.3692L99.2703 95.8354L95.0573 91.8037L94.3419 90.6793L95.3525 86.9543L93.2404 83.3087L86.1544 78.3457L85.7229 76.9942L84.8598 75.9607L84.6781 72.1675L78.4892 72.0085L78.0918 66.2051L84.7576 66.6935L83.5539 63.5249L82.6 51.9408L84.7008 48.3974L86.4723 44.5247L88.4028 41.3334L90.9352 38.4828L95.6251 33.6674L101.632 28.2388L114.249 20.9817L119.506 22.0379L126.252 20.7887L133.781 22.1174L133.758 23.0487L135.03 23.3894L136.54 21.6064L137.153 23.4575L137.835 22.6285L139.845 23.3553L140.537 21.7199L141.968 21.9471L144.001 22.549L147.351 24.0367L144.966 21.6291L146.499 21.3451L148.827 22.5376L151.019 22.231L153.222 23.4007L153.948 25.2633L155.606 25.0134L155.572 22.9919L162.261 22.2423L161.307 5.57031L161.909 4.45735L167.609 5.72932L170.846 2.0951L173.662 5.05926L177.216 0.527832L180.941 3.66235Z" fill="#8DB0F3"/>
<path d="M180.941 3.66235L183.576 5.37726L184.677 6.67193L187.459 6.92179L188.538 9.69289L198.361 8.59126L205.288 18.3015L215.792 14.6332L220.505 16.5866L220.414 18.858L227.966 22.1742L234.382 25.763L241.24 25.9334L242.478 27.8186L243.523 27.7845L244.761 26.9782L245.408 28.6022L246.123 29.4313L247.111 28.0344L247.759 28.0457L246.93 29.3404L247.668 29.4994L248.44 29.5335L249.212 30.1127L249.928 28.7953L250.45 28.7726L250.041 29.8856L248.928 30.7146L249.235 31.0553L250.2 30.8623L249.417 31.8958L256.73 40.4702L258.456 47.0005L262.033 50.8959L261.352 55.6659L261.624 57.4602L262.43 58.1644L264.713 57.3467L265.088 57.8577L267.029 59.0275L267.847 59.7544L271.663 60.5721L271.969 61.0036L272.56 63.2523L271.719 67.2613L269.38 70.7138L268.21 69.8961L265.417 67.409L264.236 67.1137L262.453 67.4885L261.181 67.9995L259.069 69.4532L257.661 69.5895L257.014 69.2147L256.628 68.0676L256.412 67.9541L255.231 68.2607L254.663 68.0904L254.515 66.8297L254.266 66.3414L253.993 64.9104L253.175 64.2858L252.755 63.5476L251.824 63.0365L251.608 63.3772L251.154 63.6044L250.427 63.434L249.371 64.2744L249.053 64.8991L248.236 65.0921L247.906 65.5464L247.316 65.8985L246.226 66.0802L245.885 65.4783L245.749 65.501L244.693 66.5004L244 66.3414L243.761 66.137L243.091 66.773L241.99 66.9547L241.558 66.8184L241.399 67.0455L240.57 67.3067L240.253 67.9087L240.014 67.9654L238.958 67.6474L238.913 68.0222L238.583 68.3743L238.526 68.7718L238.288 69.033L237.834 69.0103L236.971 69.3056L235.563 69.2601L234.223 70.4072L233.416 70.4867L232.599 69.9643L231.157 69.5554L230.657 69.0557L230.498 69.1239L230.373 69.7939L229.941 70.1914L227.954 71.0318L226.909 70.8955L225.91 71.0432L225.467 70.6911L224.956 70.8047L224.411 71.2703L224.014 72.3606L222.992 73.0761H222.129L221.686 72.4855L221.39 72.3947L220.766 72.6332L219.937 73.3259L219.415 73.4963L218.449 73.5531L217.904 73.0534L217.143 73.1215L216.405 72.9284L216.224 73.2351L216.496 73.8597L216.428 74.1436L216.099 73.9619L215.769 74.03L214.498 75.427L212.26 76.8466L211.908 77.2441L211.341 77.4144L211.091 77.8119L211.341 78.0845L211.931 77.6643L212.419 77.6529L213.146 78.1413L213.725 78.2208L214.373 80.1401L215.27 80.6285L217.053 80.3559L217.757 79.7199L219.415 79.9584L220.198 79.3678L220.755 79.436L221.095 79.8221L220.97 80.2082L221.163 80.3105L222.106 80.0379L222.628 81.0714L224.445 81.9799L225.229 82.7408L225.342 83.5585L223.457 84.1945L222.56 85.1031L223.503 86.5568L223.219 87.1928L222.628 89.6572L222.151 90.4976L222.606 91.9854L223.037 95.4606L223.48 96.7667V99.1971L223.798 101.287L224.457 102.934L224.309 103.569L224.343 103.876L224.661 104.285L224.604 105.148L225.763 107.703L225.694 108.635L226.058 110.304L226.467 110.599L227.602 113.132L230.396 120.173L230.736 120.628L231.032 121.695L230.77 122.615L230.804 123.206L230.248 123.774L229.158 126.113L229.203 126.329L229.465 126.658L231.009 126.556L231.316 126.692L231.361 127.533L231.815 128.441L231.838 129.202L232.224 130.122L231.724 131.053L231.032 131.11L230.521 131.542L229.953 131.201L229.34 131.087L227.67 131.564L225.66 133.223L223.628 133.802L223.162 134.335L223.151 135.278L223.503 135.937L224.229 136.652L225.24 137.311L227.125 137.799L227.614 138.651L227.557 138.787L227.318 138.742L226.694 139.083L226.444 138.822L226.353 139.083L225.967 139.23L225.604 139.071L225.456 139.389L223.843 140.071L223.855 140.366L223.366 140.695L223.026 140.57L222.435 140.809L222.424 140.559L221.811 140.798L221.697 140.468L221.493 140.457L220.289 140.661L220.221 141.57L219.857 142.478L219.415 144.364L218.631 145.125L218.29 146.397L218.518 147.589L219.222 149.054L219.88 149.667L220.482 149.724L220.721 149.997L220.3 150.485L219.369 150.951L219.233 151.621L219.199 152.62L219.664 153.268L219.63 154.88L220.664 155.618L220.403 156.516L220.936 157.254L220.743 158.344L220.016 158.764L219.608 158.787L219.21 158.469L218.949 158.458L218.313 158.98L217.972 158.912L217.382 159.321L217.212 159.219L217.064 158.708L217.246 157.231L216.837 156.607L216.473 155.573L215.962 155.244L215.099 155.028L214.214 154.176L213.85 153.131L213.532 152.563L213.271 152.393L211.954 152.302L211.749 152.745L211.454 152.825L211.284 152.609V152.2L211.125 152.143L210.148 152.064L209.796 151.837L209.263 151.916L208.967 151.439L207.196 151.155L206.128 151.905L205.186 151.746L203.789 151.768L203.233 150.837L201.257 149.247L200.723 148.077L200.45 147.816L199.156 146.817L198.111 146.533L197.702 145.999L197.373 145.874L196.465 144.284L196.237 143.046L196.34 142.49L196.601 142.126L196.465 142.001L195.931 142.013L194.75 142.399L194.398 143.16L194.171 143.307L193.501 142.433L193.103 142.206L192.24 142.308L191.604 142.07L190.98 142.251L190.378 141.842L189.22 141.615L188.652 141.309L188.073 141.365L187.414 140.798L186.744 140.832L186.426 140.593L185.608 140.888L184.984 140.048L182.724 139.526L182.224 138.731L181.373 138.413L179.454 139.208L178.749 138.946L178.375 139.685L177.83 139.855L174.457 139.083L174.003 139.787L172.901 139.594L172.368 139.764L171.834 140.366L171.402 139.741L171.005 139.503L170.664 139.514L169.835 140.025L169.131 139.264L168.438 139.48L167.621 139.083L166.86 139.128L166.463 138.958L165.804 138.208L163.998 138.322L162.647 138.027L161.33 138.004L160.171 137.572L159.104 137.697L158.423 137.447L156.083 138.061L154.232 138.117L153.426 137.868L152.779 136.97L152.381 136.732L150.417 136.527L149.452 136.686L146.942 136.028L145.114 136.05L144.148 136.993L143.115 137.141L142.752 138.083L142.4 138.367L139.856 138.14L138.947 138.231L137.801 137.958L137.165 138.856L136.268 138.946L134.121 139.56L133.588 139.537L133.417 139.389L133.077 138.356L132.384 137.947L129.431 137.822L127.251 138.231L126.978 138.106L126.626 137.618L125.604 137.504L124.866 136.891L124.174 137.232L123.435 137.016L122.368 137.561L122.198 137.584L121.971 136.516L120.824 137.016L119.597 136.243L117.462 136.482L117.212 135.994L118.484 135.607L119.075 134.404L114.919 132.439L112.784 131.996L112.261 129.838L111.41 129.463L111.716 128.157L110.876 127.658L111.126 125.091L114.056 121.536L113.261 120.196L109.956 120.605L110.285 119.549L109.036 119.39L108.287 119.901L104.562 118.595L104.551 116.641L109.377 112.053L110.217 111.656L110.74 110.236L110.229 108.044L111.205 106.92L111.705 105.602L111.603 101.809L109.309 100.242L108.06 98.5497L106.686 98.3567L104.573 96.4146L104.199 96.3692L99.2703 95.8354L95.0573 91.8037L94.3419 90.6793L95.3525 86.9543L93.2404 83.3087L86.1544 78.3457L85.7229 76.9942L84.8598 75.9607L84.6781 72.1675L78.4892 72.0085L78.0918 66.2051L84.7576 66.6935L83.5539 63.5249L82.6 51.9408L84.7008 48.3974L86.4723 44.5247L88.4028 41.3334L90.9352 38.4828L95.6251 33.6674L101.632 28.2388L114.249 20.9817L119.506 22.0379L126.252 20.7887L133.781 22.1174L133.758 23.0487L135.03 23.3894L136.54 21.6064L137.153 23.4575L137.835 22.6285L139.845 23.3553L140.537 21.7199L141.968 21.9471L144.001 22.549L147.351 24.0367L144.966 21.6291L146.499 21.3451L148.827 22.5376L151.019 22.231L153.222 23.4007L153.948 25.2633L155.606 25.0134L155.572 22.9919L162.261 22.2423L161.307 5.57031L161.909 4.45735L167.609 5.72932L170.846 2.0951L173.662 5.05926L177.216 0.527832L180.941 3.66235Z" fill="url(#paint0_linear)" fill-opacity="0.1"/>
</g>
<defs>
<filter id="filter0_ddddddd" x="0.0917969" y="0.527832" width="350.468" height="339.793" filterUnits="userSpaceOnUse" color-interpolation-filters="sRGB">
<feFlood flood-opacity="0" result="BackgroundImageFix"/>
<feColorMatrix in="SourceAlpha" type="matrix" values="0 0 0 0 0 0 0 0 0 0 0 0 0 0 0 0 0 0 127 0" result="hardAlpha"/>
<feOffset dy="4.00914"/>
<feGaussianBlur stdDeviation="0.903716"/>
<feColorMatrix type="matrix" values="0 0 0 0 0.027451 0 0 0 0 0.282353 0 0 0 0 0.772549 0 0 0 0.71 0"/>
<feBlend mode="normal" in2="BackgroundImageFix" result="effect1_dropShadow"/>
<feColorMatrix in="SourceAlpha" type="matrix" values="0 0 0 0 0 0 0 0 0 0 0 0 0 0 0 0 0 0 127 0" result="hardAlpha"/>
<feOffset dy="8.47487"/>
<feGaussianBlur stdDeviation="2.10121"/>
<feColorMatrix type="matrix" values="0 0 0 0 0.027451 0 0 0 0 0.282353 0 0 0 0 0.772549 0 0 0 0.52659 0"/>
<feBlend mode="normal" in2="effect1_dropShadow" result="effect2_dropShadow"/>
<feColorMatrix in="SourceAlpha" type="matrix" values="0 0 0 0 0 0 0 0 0 0 0 0 0 0 0 0 0 0 127 0" result="hardAlpha"/>
<feOffset dy="13.8321"/>
<feGaussianBlur stdDeviation="3.77329"/>
<feColorMatrix type="matrix" values="0 0 0 0 0.027451 0 0 0 0 0.282353 0 0 0 0 0.772549 0 0 0 0.445014 0"/>
<feBlend mode="normal" in2="effect2_dropShadow" result="effect3_dropShadow"/>
<feColorMatrix in="SourceAlpha" type="matrix" values="0 0 0 0 0 0 0 0 0 0 0 0 0 0 0 0 0 0 127 0" result="hardAlpha"/>
<feOffset dy="20.9162"/>
<feGaussianBlur stdDeviation="6.26226"/>
<feColorMatrix type="matrix" values="0 0 0 0 0.027451 0 0 0 0 0.282353 0 0 0 0 0.772549 0 0 0 0.383363 0"/>
<feBlend mode="normal" in2="effect3_dropShadow" result="effect4_dropShadow"/>
<feColorMatrix in="SourceAlpha" type="matrix" values="0 0 0 0 0 0 0 0 0 0 0 0 0 0 0 0 0 0 127 0" result="hardAlpha"/>
<feOffset dy="31.5589"/>
<feGaussianBlur stdDeviation="10.3169"/>
<feColorMatrix type="matrix" values="0 0 0 0 0.027451 0 0 0 0 0.282353 0 0 0 0 0.772549 0 0 0 0.326637 0"/>
<feBlend mode="normal" in2="effect4_dropShadow" result="effect5_dropShadow"/>
<feColorMatrix in="SourceAlpha" type="matrix" values="0 0 0 0 0 0 0 0 0 0 0 0 0 0 0 0 0 0 127 0" result="hardAlpha"/>
<feOffset dy="50.83"/>
<feGaussianBlur stdDeviation="18.0309"/>
<feColorMatrix type="matrix" values="0 0 0 0 0.027451 0 0 0 0 0.282353 0 0 0 0 0.772549 0 0 0 0.264986 0"/>
<feBlend mode="normal" in2="effect5_dropShadow" result="effect6_dropShadow"/>
<feColorMatrix in="SourceAlpha" type="matrix" values="0 0 0 0 0 0 0 0 0 0 0 0 0 0 0 0 0 0 127 0" result="hardAlpha"/>
<feOffset dy="103"/>
<feGaussianBlur stdDeviation="39"/>
<feColorMatrix type="matrix" values="0 0 0 0 0.027451 0 0 0 0 0.282353 0 0 0 0 0.772549 0 0 0 0.18341 0"/>
<feBlend mode="normal" in2="effect6_dropShadow" result="effect7_dropShadow"/>
<feBlend mode="normal" in="SourceGraphic" in2="effect7_dropShadow" result="shape"/>
</filter>
<linearGradient id="paint0_linear" x1="175.326" y1="0.527832" x2="175.326" y2="159.321" gradientUnits="userSpaceOnUse">
<stop stop-color="white"/>
<stop offset="1" stop-color="white" stop-opacity="0"/>
</linearGradient>
</defs>
</svg>
