<svg width="287" height="342" viewBox="0 0 287 342" fill="none" xmlns="http://www.w3.org/2000/svg">
<g filter="url(#filter0_ddddddd)">
<path d="M151.74 3.91085L152.739 3.86542L153.216 4.12663L153.466 4.53548L153.67 6.17088L152.966 7.24979L153.125 8.49906L153.034 8.98741L152.126 10.0209L151.161 10.5547L150.968 11.7812L150.286 12.0424L148.89 13.0646L148.469 12.8601L147.879 11.7699L147.129 12.0651L146.618 12.0084L145.699 11.4632L144.54 11.3269L144.075 11.3383L143.87 11.4859L143.791 12.1106L143.972 12.8601L145.437 14.8362L145.63 16.4035L146.528 18.073L151.263 22.6725L169.069 37.0845L175.428 43.1832L176.586 44.546L180.572 51.1444L184.047 56.4141L188.169 63.8983L188.328 63.7393L190.826 68.5774L190.645 68.7023L197.788 81.3312L199.093 84.3749L201.047 87.3959L201.319 88.1568L202.205 89.372L203.704 92.3475L203.897 92.2339L204.113 92.6541L203.942 92.7904L205.691 96.4701L206.123 96.9016L206.1 97.2083L208.303 101.808L206.645 102.001L206.055 105.465L202.671 106.328L203.261 108.259L200.411 111.052L199.797 110.314L195.38 110.962L195.482 113.074L196.618 112.881L196.277 114.3L196.482 115.981L195.335 115.584L190.815 118.457L188.022 119.332L187.522 118.185L186.171 118.786L185.887 120.058L183.502 121.33L182.991 120.922L181.106 122.75L183.752 126.577L184.354 130.098L186.034 130.609L187.056 132.154L188.851 133.562L190.327 134.323L194.892 137.355L194.097 145.089L196.186 145.68L196.822 150.177L195.312 151.744L191.519 158.638L188.476 160.035L184.899 159.149L175.417 155.197L174.111 152.903L172.646 153.766L170.102 151.949L171.862 149.53L170.556 144.885L166.923 142.557L162.312 142.375L158.406 138.241L154.147 139.343L151.876 141.557L150.502 147.031L150.638 150.427L149.809 151.881L147.334 150.404L144.847 150.677L143.109 151.676L142.598 151.29L141.576 154.038L140.532 154.288L137.67 152.608L129.914 154.743L128.937 153.698L127.881 154.107L127.575 155.22L126.791 155.663L120.318 155.447L119.251 156.878L114.686 160.205L112.472 160.864L112.051 159.921L110.632 159.99L109.871 157.389L111.279 156.446L111.245 155.708L114.254 154.436L114.482 154.765L115.674 154.379L115.344 153.743L116.094 153.425L115.731 152.051L113.187 151.04L112.585 149.325L113.357 148.871L111.654 145.941L110.382 145.884L107.293 142.591L105.749 146.463L104.284 142.704L105.556 141.716L104.341 140.194L100.73 139.49L100.434 138.559L98.6515 140.058L95.4719 140.319L92.2127 141.171L88.965 137.594L90.6002 136.049L89.6463 134.573L90.2482 133.323L91.4292 133.051L91.3043 129.61L91.7926 126.986L92.7692 123.988L91.804 122.5L91.7131 119.934L84.1048 117.174L86.4895 114.357L86.8187 111.836L91.7358 108.622L93.9842 109.258L94.8473 108.179L96.0283 108.054L96.5734 107.225L94.4158 105.987L91.8153 105.749L90.6911 103.148L86.6485 105.135L86.762 98.4462L87.4547 97.6285L90.5548 95.1867L91.9062 94.9255L91.4406 93.9375L90.9295 71.269L89.7713 71.0986L89.7032 70.4626L89.5782 69.0316L85.456 68.725L84.3318 65.7495L84.7861 64.398L85.8081 65.8063L87.4206 66.0448L88.3632 68.0663L89.4533 67.6007L89.1467 64.1027L90.5548 63.5349L90.3391 61.6156L91.4633 61.0136L90.2255 57.6633L88.0452 58.4243L87.0345 58.1063L85.7059 61.6951L82.7193 61.7405L82.1629 58.8217L83.73 56.9819L83.0032 55.4487L80.5617 57.1636L80.028 56.6071L81.3452 55.5282L82.1856 53.4272L83.4461 51.5419L83.2985 50.2359L84.5703 49.6226L84.5022 48.8163L85.6378 48.203L84.6044 46.5903L83.4575 47.3626L83.1055 46.5108L81.8449 46.9764L81.7654 47.7714L78.6085 50.5312L78.0635 47.249L78.5744 43.7624L80.4368 44.671L81.2771 43.8078L79.4602 40.9345L78.3133 38.3679L81.175 35.5627L81.5497 33.9046L82.6853 34.1885L83.2417 31.7808L84.7861 31.9625L86.7392 33.1891L88.2723 30.8836L92.0425 31.7354L91.8153 34.3021L93.7458 34.4838L94.1546 32.5645L95.7444 32.9052L95.5173 33.6661L96.3122 33.9841L96.3009 35.4491L96.6983 35.6876L96.7664 35.9488L96.6188 36.8006L99.3101 37.8114L101.093 33.4162L100.139 32.8597L100.798 29.5776L104.534 30.1909L105.522 26.8633L106.771 27.0677L107.407 26.7497L107.77 26.1137L108.099 24.66L108.293 24.501L109.042 24.7736L112.029 24.7509L112.335 24.9326L112.812 25.8298L113.312 25.5913L115.935 23.513L117.23 22.2864L118.218 21.8435L120.897 19.7652L122.442 18.9361L123.078 18.1638L123.066 17.3916L121.193 14.7113L124.123 13.2008L125.678 13.8595L125.928 13.8141L139.476 7.49965L139.566 7.17029L138.999 6.46616V6.25038L139.623 4.41055L139.816 4.35377L142.121 5.38725L144.506 5.58032L145.574 5.52353L146.766 4.73991L148.833 4.78533L150.082 3.502L150.672 2.10509L151.842 2.00288L153.386 1.07161L154.59 0.571899L154.988 0.628688L155.135 1.60538L155.044 1.77574L151.706 3.59285L151.74 3.91085Z" fill="#B4CDFF"/>
<path d="M151.74 3.91085L152.739 3.86542L153.216 4.12663L153.466 4.53548L153.67 6.17088L152.966 7.24979L153.125 8.49906L153.034 8.98741L152.126 10.0209L151.161 10.5547L150.968 11.7812L150.286 12.0424L148.89 13.0646L148.469 12.8601L147.879 11.7699L147.129 12.0651L146.618 12.0084L145.699 11.4632L144.54 11.3269L144.075 11.3383L143.87 11.4859L143.791 12.1106L143.972 12.8601L145.437 14.8362L145.63 16.4035L146.528 18.073L151.263 22.6725L169.069 37.0845L175.428 43.1832L176.586 44.546L180.572 51.1444L184.047 56.4141L188.169 63.8983L188.328 63.7393L190.826 68.5774L190.645 68.7023L197.788 81.3312L199.093 84.3749L201.047 87.3959L201.319 88.1568L202.205 89.372L203.704 92.3475L203.897 92.2339L204.113 92.6541L203.942 92.7904L205.691 96.4701L206.123 96.9016L206.1 97.2083L208.303 101.808L206.645 102.001L206.055 105.465L202.671 106.328L203.261 108.259L200.411 111.052L199.797 110.314L195.38 110.962L195.482 113.074L196.618 112.881L196.277 114.3L196.482 115.981L195.335 115.584L190.815 118.457L188.022 119.332L187.522 118.185L186.171 118.786L185.887 120.058L183.502 121.33L182.991 120.922L181.106 122.75L183.752 126.577L184.354 130.098L186.034 130.609L187.056 132.154L188.851 133.562L190.327 134.323L194.892 137.355L194.097 145.089L196.186 145.68L196.822 150.177L195.312 151.744L191.519 158.638L188.476 160.035L184.899 159.149L175.417 155.197L174.111 152.903L172.646 153.766L170.102 151.949L171.862 149.53L170.556 144.885L166.923 142.557L162.312 142.375L158.406 138.241L154.147 139.343L151.876 141.557L150.502 147.031L150.638 150.427L149.809 151.881L147.334 150.404L144.847 150.677L143.109 151.676L142.598 151.29L141.576 154.038L140.532 154.288L137.67 152.608L129.914 154.743L128.937 153.698L127.881 154.107L127.575 155.22L126.791 155.663L120.318 155.447L119.251 156.878L114.686 160.205L112.472 160.864L112.051 159.921L110.632 159.99L109.871 157.389L111.279 156.446L111.245 155.708L114.254 154.436L114.482 154.765L115.674 154.379L115.344 153.743L116.094 153.425L115.731 152.051L113.187 151.04L112.585 149.325L113.357 148.871L111.654 145.941L110.382 145.884L107.293 142.591L105.749 146.463L104.284 142.704L105.556 141.716L104.341 140.194L100.73 139.49L100.434 138.559L98.6515 140.058L95.4719 140.319L92.2127 141.171L88.965 137.594L90.6002 136.049L89.6463 134.573L90.2482 133.323L91.4292 133.051L91.3043 129.61L91.7926 126.986L92.7692 123.988L91.804 122.5L91.7131 119.934L84.1048 117.174L86.4895 114.357L86.8187 111.836L91.7358 108.622L93.9842 109.258L94.8473 108.179L96.0283 108.054L96.5734 107.225L94.4158 105.987L91.8153 105.749L90.6911 103.148L86.6485 105.135L86.762 98.4462L87.4547 97.6285L90.5548 95.1867L91.9062 94.9255L91.4406 93.9375L90.9295 71.269L89.7713 71.0986L89.7032 70.4626L89.5782 69.0316L85.456 68.725L84.3318 65.7495L84.7861 64.398L85.8081 65.8063L87.4206 66.0448L88.3632 68.0663L89.4533 67.6007L89.1467 64.1027L90.5548 63.5349L90.3391 61.6156L91.4633 61.0136L90.2255 57.6633L88.0452 58.4243L87.0345 58.1063L85.7059 61.6951L82.7193 61.7405L82.1629 58.8217L83.73 56.9819L83.0032 55.4487L80.5617 57.1636L80.028 56.6071L81.3452 55.5282L82.1856 53.4272L83.4461 51.5419L83.2985 50.2359L84.5703 49.6226L84.5022 48.8163L85.6378 48.203L84.6044 46.5903L83.4575 47.3626L83.1055 46.5108L81.8449 46.9764L81.7654 47.7714L78.6085 50.5312L78.0635 47.249L78.5744 43.7624L80.4368 44.671L81.2771 43.8078L79.4602 40.9345L78.3133 38.3679L81.175 35.5627L81.5497 33.9046L82.6853 34.1885L83.2417 31.7808L84.7861 31.9625L86.7392 33.1891L88.2723 30.8836L92.0425 31.7354L91.8153 34.3021L93.7458 34.4838L94.1546 32.5645L95.7444 32.9052L95.5173 33.6661L96.3122 33.9841L96.3009 35.4491L96.6983 35.6876L96.7664 35.9488L96.6188 36.8006L99.3101 37.8114L101.093 33.4162L100.139 32.8597L100.798 29.5776L104.534 30.1909L105.522 26.8633L106.771 27.0677L107.407 26.7497L107.77 26.1137L108.099 24.66L108.293 24.501L109.042 24.7736L112.029 24.7509L112.335 24.9326L112.812 25.8298L113.312 25.5913L115.935 23.513L117.23 22.2864L118.218 21.8435L120.897 19.7652L122.442 18.9361L123.078 18.1638L123.066 17.3916L121.193 14.7113L124.123 13.2008L125.678 13.8595L125.928 13.8141L139.476 7.49965L139.566 7.17029L138.999 6.46616V6.25038L139.623 4.41055L139.816 4.35377L142.121 5.38725L144.506 5.58032L145.574 5.52353L146.766 4.73991L148.833 4.78533L150.082 3.502L150.672 2.10509L151.842 2.00288L153.386 1.07161L154.59 0.571899L154.988 0.628688L155.135 1.60538L155.044 1.77574L151.706 3.59285L151.74 3.91085Z" fill="url(#paint0_linear)" fill-opacity="0.1"/>
</g>
<defs>
<filter id="filter0_ddddddd" x="0.0634766" y="0.571899" width="286.24" height="341.292" filterUnits="userSpaceOnUse" color-interpolation-filters="sRGB">
<feFlood flood-opacity="0" result="BackgroundImageFix"/>
<feColorMatrix in="SourceAlpha" type="matrix" values="0 0 0 0 0 0 0 0 0 0 0 0 0 0 0 0 0 0 127 0" result="hardAlpha"/>
<feOffset dy="4.00914"/>
<feGaussianBlur stdDeviation="0.903716"/>
<feColorMatrix type="matrix" values="0 0 0 0 0.027451 0 0 0 0 0.282353 0 0 0 0 0.772549 0 0 0 0.71 0"/>
<feBlend mode="normal" in2="BackgroundImageFix" result="effect1_dropShadow"/>
<feColorMatrix in="SourceAlpha" type="matrix" values="0 0 0 0 0 0 0 0 0 0 0 0 0 0 0 0 0 0 127 0" result="hardAlpha"/>
<feOffset dy="8.47487"/>
<feGaussianBlur stdDeviation="2.10121"/>
<feColorMatrix type="matrix" values="0 0 0 0 0.027451 0 0 0 0 0.282353 0 0 0 0 0.772549 0 0 0 0.52659 0"/>
<feBlend mode="normal" in2="effect1_dropShadow" result="effect2_dropShadow"/>
<feColorMatrix in="SourceAlpha" type="matrix" values="0 0 0 0 0 0 0 0 0 0 0 0 0 0 0 0 0 0 127 0" result="hardAlpha"/>
<feOffset dy="13.8321"/>
<feGaussianBlur stdDeviation="3.77329"/>
<feColorMatrix type="matrix" values="0 0 0 0 0.027451 0 0 0 0 0.282353 0 0 0 0 0.772549 0 0 0 0.445014 0"/>
<feBlend mode="normal" in2="effect2_dropShadow" result="effect3_dropShadow"/>
<feColorMatrix in="SourceAlpha" type="matrix" values="0 0 0 0 0 0 0 0 0 0 0 0 0 0 0 0 0 0 127 0" result="hardAlpha"/>
<feOffset dy="20.9162"/>
<feGaussianBlur stdDeviation="6.26226"/>
<feColorMatrix type="matrix" values="0 0 0 0 0.027451 0 0 0 0 0.282353 0 0 0 0 0.772549 0 0 0 0.383363 0"/>
<feBlend mode="normal" in2="effect3_dropShadow" result="effect4_dropShadow"/>
<feColorMatrix in="SourceAlpha" type="matrix" values="0 0 0 0 0 0 0 0 0 0 0 0 0 0 0 0 0 0 127 0" result="hardAlpha"/>
<feOffset dy="31.5589"/>
<feGaussianBlur stdDeviation="10.3169"/>
<feColorMatrix type="matrix" values="0 0 0 0 0.027451 0 0 0 0 0.282353 0 0 0 0 0.772549 0 0 0 0.326637 0"/>
<feBlend mode="normal" in2="effect4_dropShadow" result="effect5_dropShadow"/>
<feColorMatrix in="SourceAlpha" type="matrix" values="0 0 0 0 0 0 0 0 0 0 0 0 0 0 0 0 0 0 127 0" result="hardAlpha"/>
<feOffset dy="50.83"/>
<feGaussianBlur stdDeviation="18.0309"/>
<feColorMatrix type="matrix" values="0 0 0 0 0.027451 0 0 0 0 0.282353 0 0 0 0 0.772549 0 0 0 0.264986 0"/>
<feBlend mode="normal" in2="effect5_dropShadow" result="effect6_dropShadow"/>
<feColorMatrix in="SourceAlpha" type="matrix" values="0 0 0 0 0 0 0 0 0 0 0 0 0 0 0 0 0 0 127 0" result="hardAlpha"/>
<feOffset dy="103"/>
<feGaussianBlur stdDeviation="39"/>
<feColorMatrix type="matrix" values="0 0 0 0 0.027451 0 0 0 0 0.282353 0 0 0 0 0.772549 0 0 0 0.18341 0"/>
<feBlend mode="normal" in2="effect6_dropShadow" result="effect7_dropShadow"/>
<feBlend mode="normal" in="SourceGraphic" in2="effect7_dropShadow" result="shape"/>
</filter>
<linearGradient id="paint0_linear" x1="143.183" y1="0.571899" x2="143.183" y2="160.864" gradientUnits="userSpaceOnUse">
<stop stop-color="white"/>
<stop offset="1" stop-color="white" stop-opacity="0"/>
</linearGradient>
</defs>
</svg>
