<svg width="353" height="314" viewBox="0 0 353 314" fill="none" xmlns="http://www.w3.org/2000/svg">
<g filter="url(#filter0_ddddddd)">
<path d="M93.312 47.4364L96.8663 47.6522L98.7401 51.5817L102.033 50.1166L106.235 49.4693L106.394 52.9672H113.468L115.706 54.1711L118.147 54.4777L119.555 53.6714L124.222 55.3295L123.973 47.7317L128.878 47.5954L130.173 49.2081L133.318 50.4801L135.646 52.6152L136.248 52.9559L137.531 51.6839L136.964 50.8889L137.634 49.7192L138.508 50.3892L141.267 47.3796L141.018 46.3007L139.666 45.7556L139.178 43.2798L142.392 43.3479L143.255 41.4286L144.197 40.8834L146.627 41.2128L147.184 39.4184L147.797 39.3162L148.217 37.2038L149.796 36.2498L150.716 36.159L151.09 34.8075L151.851 34.8643L152.828 33.8648L153.43 34.0693L155.315 33.1266L153.441 30.9915L154.656 31.2414L153.611 27.6185L157.007 24.484L155.712 22.6896L156.496 22.4397L156.575 20.8952L156.189 19.6346L154.656 19.5096L154.94 16.8976L152.476 16.7045L151.783 15.2621L150.568 14.8533L150.466 13.604L148.876 11.2986L149.546 10.2651L150.477 10.1742L151.113 9.91302L151.158 8.98175L152.283 8.12998L152.862 8.80003L153.543 7.44856L152.464 7.5167L152.396 5.6428L155.644 5.73366L156.144 5.1431L155.553 4.47303L155.735 3.85976L155.008 2.71271L156.711 2.83763L156.904 1.91772L159.073 2.07672L159.176 3.1897L162.287 2.96256L162.219 1.06595L164.388 1.2363L164.456 2.81492L165.841 3.08748L166.103 4.04147L167.022 4.27997L167.42 5.5633L167.477 7.28956L168.998 7.72113L169.714 6.06301L168.487 5.8018L168.113 4.05283L169.044 3.96197L169.453 2.11079L170.679 2.372L171.201 1.3158L172.28 1.24766L173.109 0.361816L177.901 0.441315L178.117 2.19029L179.332 2.61049L179.582 6.39236L179.048 7.5962L179.798 7.97098L180.297 7.23278L183.034 7.92555L184.613 7.2782L184.806 9.32246L183.852 9.86759L184.102 10.8329L183.17 10.9124L183.261 12.0027L182.603 12.5819L186.918 12.4683L187.258 11.8778L188.031 11.9346L188.144 12.5705L190.393 15.4098L190.722 17.1588L192.868 16.8748L192.459 14.1946L194.458 13.8993L194.992 10.8216L204.315 10.5604L204.224 11.6506L204.519 11.6734L204.19 13.8312L207.756 14.4672L207.994 15.1259L209.947 15.1486L210.776 14.2854L211.39 14.1832L211.912 13.4564L213.286 13.2633L214.024 11.7756L216.273 11.8323L216.136 13.2292L220.713 18.2036L219.827 19.5324L219.111 22.1218L219.816 24.0638L218.407 24.6998L218.43 25.949L219.498 27.1529L219.793 28.5839L226.232 29.3902L231.455 28.9927L232.489 26.2898L236.747 25.3471L237.69 26.233L239.745 25.2108L242.13 25.1881L242.845 24.166L243.595 24.0979L244.06 25.2676L244.072 27.9592L245.003 29.0154L245.616 35.5457L248.443 34.3418L252.668 36.4883L255.666 36.4202L255.938 37.8739L257.585 37.7944L259.163 40.8267L267.703 41.4627L267.771 42.0986L268.929 42.269L269.44 64.9375L269.906 65.9255L268.555 66.1867L265.454 68.6285L264.762 69.4462L264.648 76.1355L268.691 74.148L269.815 76.7487L272.416 76.9872L274.573 78.2251L274.028 79.0542L272.847 79.1791L271.984 80.258L269.736 79.622L264.819 82.836L264.489 85.3573L262.105 88.1738L258.323 87.0495L256.892 89.2527L256.256 87.3675L255.654 87.5833L256.006 88.2306L254.201 88.7417L253.599 87.7536L252.532 88.2079L252.168 89.9682L253.133 90.3998L254.496 93.4321L254.269 94.1476L255.064 94.7041L256.245 92.1715L257.38 92.3305L260.254 93.6252L256.972 96.7597L251.112 98.6563L251.896 100.553L250.669 101.132L248.773 101.325L247.876 102.847L244.31 101.337L243.015 103.699L242.141 103.892L241.925 104.46L242.561 105.13L241.074 106.867L237.883 107.06L237.746 108.23L236.94 107.833L235.816 108.878L236.44 109.695L234.839 111.115L237.235 112.739L235.407 113.693L232.875 112.058L232 113.42L230.365 113.965L230.853 117.259L229.377 117.668L229.684 118.735L226.924 116.634L222.291 117.123L221.746 118.236L220.372 117.781L222.393 114.931L221.996 113.273L222.666 112.319L222.461 111.558L221.791 111.183L223.302 109.15L220.803 106.936L219.214 107.049L218.918 105.834L217.419 106.402L217.101 105.334L216.079 105.516L216.125 106.402L212.82 107.81L212.196 111.126L210.617 111.104L209.902 112.5L207.926 112.285L206.2 113.716L206.666 114.783L203.747 116.827L202.18 116.805L201.839 117.35L200.386 117.645L200.102 124.914L198.512 122.131L193.754 124.266L195.128 127.753L194.424 129.138L191.982 129.468L188.814 131.489L187.031 132.33L185.669 131.626L185.759 129.161L187.724 126.299L187.258 125.243L186.225 125.584L185.555 123.63L178.685 125.618L177.697 125.527L176.947 125.902L175.971 125.663L174.665 125.981L175.199 123.131L173.915 123.017L173.268 122.233L172.439 120.257L171.86 120.359L171.19 121.461L170.781 119.53L167.783 121.166L168.567 123.71L166.75 124.857L165.762 124.777L165.115 123.994L164.888 124.993L165.535 125.777L165.262 127.344L164.683 127.435L163.741 126.64L160.902 128.139L158.04 126.31L156.757 126.208L156.393 125.311L154.622 125.89L153.861 124.527L155.44 122.767L156.359 118.474L157.336 116.952L156.848 113.988L157.915 113.341L158.222 105.607L151.374 105.8L150.693 107.06L148.001 108.026L143.209 111.626L141.131 110.002L138.008 110.661L136.702 110.422L138.179 112.421L138.338 114.34L135.715 116.339L126.096 117.588L120.895 120.893L117.761 116.044L120.214 114.59L118.772 111.001L116.875 110.309L111.413 111.899L105.531 109.809L103.782 108.548L101.045 109.275L99.8983 104.664L98.2063 105.459L97.4795 104.834L96.4121 105.357L96.4575 104.04L95.6853 104.732L95.7421 103.267L95.4923 101.927L91.3588 99.4967L89.9847 103.983L85.59 104.482L84.7497 102.677L86.2032 95.8171L81.5019 91.2629L82.7511 90.1386L80.8547 87.6628L84.0002 84.8576L82.9555 84.0513L84.8178 78.634L82.8078 74.466L80.0484 74.3183L78.9355 70.491L82.7738 70.8658L88.5652 67.8903L89.4737 63.8813L90.4503 58.1914L93.153 55.9314L93.312 47.4364Z" fill="#7CA8FB"/>
<path d="M93.312 47.4364L96.8663 47.6522L98.7401 51.5817L102.033 50.1166L106.235 49.4693L106.394 52.9672H113.468L115.706 54.1711L118.147 54.4777L119.555 53.6714L124.222 55.3295L123.973 47.7317L128.878 47.5954L130.173 49.2081L133.318 50.4801L135.646 52.6152L136.248 52.9559L137.531 51.6839L136.964 50.8889L137.634 49.7192L138.508 50.3892L141.267 47.3796L141.018 46.3007L139.666 45.7556L139.178 43.2798L142.392 43.3479L143.255 41.4286L144.197 40.8834L146.627 41.2128L147.184 39.4184L147.797 39.3162L148.217 37.2038L149.796 36.2498L150.716 36.159L151.09 34.8075L151.851 34.8643L152.828 33.8648L153.43 34.0693L155.315 33.1266L153.441 30.9915L154.656 31.2414L153.611 27.6185L157.007 24.484L155.712 22.6896L156.496 22.4397L156.575 20.8952L156.189 19.6346L154.656 19.5096L154.94 16.8976L152.476 16.7045L151.783 15.2621L150.568 14.8533L150.466 13.604L148.876 11.2986L149.546 10.2651L150.477 10.1742L151.113 9.91302L151.158 8.98175L152.283 8.12998L152.862 8.80003L153.543 7.44856L152.464 7.5167L152.396 5.6428L155.644 5.73366L156.144 5.1431L155.553 4.47303L155.735 3.85976L155.008 2.71271L156.711 2.83763L156.904 1.91772L159.073 2.07672L159.176 3.1897L162.287 2.96256L162.219 1.06595L164.388 1.2363L164.456 2.81492L165.841 3.08748L166.103 4.04147L167.022 4.27997L167.42 5.5633L167.477 7.28956L168.998 7.72113L169.714 6.06301L168.487 5.8018L168.113 4.05283L169.044 3.96197L169.453 2.11079L170.679 2.372L171.201 1.3158L172.28 1.24766L173.109 0.361816L177.901 0.441315L178.117 2.19029L179.332 2.61049L179.582 6.39236L179.048 7.5962L179.798 7.97098L180.297 7.23278L183.034 7.92555L184.613 7.2782L184.806 9.32246L183.852 9.86759L184.102 10.8329L183.17 10.9124L183.261 12.0027L182.603 12.5819L186.918 12.4683L187.258 11.8778L188.031 11.9346L188.144 12.5705L190.393 15.4098L190.722 17.1588L192.868 16.8748L192.459 14.1946L194.458 13.8993L194.992 10.8216L204.315 10.5604L204.224 11.6506L204.519 11.6734L204.19 13.8312L207.756 14.4672L207.994 15.1259L209.947 15.1486L210.776 14.2854L211.39 14.1832L211.912 13.4564L213.286 13.2633L214.024 11.7756L216.273 11.8323L216.136 13.2292L220.713 18.2036L219.827 19.5324L219.111 22.1218L219.816 24.0638L218.407 24.6998L218.43 25.949L219.498 27.1529L219.793 28.5839L226.232 29.3902L231.455 28.9927L232.489 26.2898L236.747 25.3471L237.69 26.233L239.745 25.2108L242.13 25.1881L242.845 24.166L243.595 24.0979L244.06 25.2676L244.072 27.9592L245.003 29.0154L245.616 35.5457L248.443 34.3418L252.668 36.4883L255.666 36.4202L255.938 37.8739L257.585 37.7944L259.163 40.8267L267.703 41.4627L267.771 42.0986L268.929 42.269L269.44 64.9375L269.906 65.9255L268.555 66.1867L265.454 68.6285L264.762 69.4462L264.648 76.1355L268.691 74.148L269.815 76.7487L272.416 76.9872L274.573 78.2251L274.028 79.0542L272.847 79.1791L271.984 80.258L269.736 79.622L264.819 82.836L264.489 85.3573L262.105 88.1738L258.323 87.0495L256.892 89.2527L256.256 87.3675L255.654 87.5833L256.006 88.2306L254.201 88.7417L253.599 87.7536L252.532 88.2079L252.168 89.9682L253.133 90.3998L254.496 93.4321L254.269 94.1476L255.064 94.7041L256.245 92.1715L257.38 92.3305L260.254 93.6252L256.972 96.7597L251.112 98.6563L251.896 100.553L250.669 101.132L248.773 101.325L247.876 102.847L244.31 101.337L243.015 103.699L242.141 103.892L241.925 104.46L242.561 105.13L241.074 106.867L237.883 107.06L237.746 108.23L236.94 107.833L235.816 108.878L236.44 109.695L234.839 111.115L237.235 112.739L235.407 113.693L232.875 112.058L232 113.42L230.365 113.965L230.853 117.259L229.377 117.668L229.684 118.735L226.924 116.634L222.291 117.123L221.746 118.236L220.372 117.781L222.393 114.931L221.996 113.273L222.666 112.319L222.461 111.558L221.791 111.183L223.302 109.15L220.803 106.936L219.214 107.049L218.918 105.834L217.419 106.402L217.101 105.334L216.079 105.516L216.125 106.402L212.82 107.81L212.196 111.126L210.617 111.104L209.902 112.5L207.926 112.285L206.2 113.716L206.666 114.783L203.747 116.827L202.18 116.805L201.839 117.35L200.386 117.645L200.102 124.914L198.512 122.131L193.754 124.266L195.128 127.753L194.424 129.138L191.982 129.468L188.814 131.489L187.031 132.33L185.669 131.626L185.759 129.161L187.724 126.299L187.258 125.243L186.225 125.584L185.555 123.63L178.685 125.618L177.697 125.527L176.947 125.902L175.971 125.663L174.665 125.981L175.199 123.131L173.915 123.017L173.268 122.233L172.439 120.257L171.86 120.359L171.19 121.461L170.781 119.53L167.783 121.166L168.567 123.71L166.75 124.857L165.762 124.777L165.115 123.994L164.888 124.993L165.535 125.777L165.262 127.344L164.683 127.435L163.741 126.64L160.902 128.139L158.04 126.31L156.757 126.208L156.393 125.311L154.622 125.89L153.861 124.527L155.44 122.767L156.359 118.474L157.336 116.952L156.848 113.988L157.915 113.341L158.222 105.607L151.374 105.8L150.693 107.06L148.001 108.026L143.209 111.626L141.131 110.002L138.008 110.661L136.702 110.422L138.179 112.421L138.338 114.34L135.715 116.339L126.096 117.588L120.895 120.893L117.761 116.044L120.214 114.59L118.772 111.001L116.875 110.309L111.413 111.899L105.531 109.809L103.782 108.548L101.045 109.275L99.8983 104.664L98.2063 105.459L97.4795 104.834L96.4121 105.357L96.4575 104.04L95.6853 104.732L95.7421 103.267L95.4923 101.927L91.3588 99.4967L89.9847 103.983L85.59 104.482L84.7497 102.677L86.2032 95.8171L81.5019 91.2629L82.7511 90.1386L80.8547 87.6628L84.0002 84.8576L82.9555 84.0513L84.8178 78.634L82.8078 74.466L80.0484 74.3183L78.9355 70.491L82.7738 70.8658L88.5652 67.8903L89.4737 63.8813L90.4503 58.1914L93.153 55.9314L93.312 47.4364Z" fill="url(#paint0_linear)" fill-opacity="0.1"/>
</g>
<defs>
<filter id="filter0_ddddddd" x="0.935547" y="0.361816" width="351.638" height="312.968" filterUnits="userSpaceOnUse" color-interpolation-filters="sRGB">
<feFlood flood-opacity="0" result="BackgroundImageFix"/>
<feColorMatrix in="SourceAlpha" type="matrix" values="0 0 0 0 0 0 0 0 0 0 0 0 0 0 0 0 0 0 127 0" result="hardAlpha"/>
<feOffset dy="4.00914"/>
<feGaussianBlur stdDeviation="0.903716"/>
<feColorMatrix type="matrix" values="0 0 0 0 0.027451 0 0 0 0 0.282353 0 0 0 0 0.772549 0 0 0 0.71 0"/>
<feBlend mode="normal" in2="BackgroundImageFix" result="effect1_dropShadow"/>
<feColorMatrix in="SourceAlpha" type="matrix" values="0 0 0 0 0 0 0 0 0 0 0 0 0 0 0 0 0 0 127 0" result="hardAlpha"/>
<feOffset dy="8.47487"/>
<feGaussianBlur stdDeviation="2.10121"/>
<feColorMatrix type="matrix" values="0 0 0 0 0.027451 0 0 0 0 0.282353 0 0 0 0 0.772549 0 0 0 0.52659 0"/>
<feBlend mode="normal" in2="effect1_dropShadow" result="effect2_dropShadow"/>
<feColorMatrix in="SourceAlpha" type="matrix" values="0 0 0 0 0 0 0 0 0 0 0 0 0 0 0 0 0 0 127 0" result="hardAlpha"/>
<feOffset dy="13.8321"/>
<feGaussianBlur stdDeviation="3.77329"/>
<feColorMatrix type="matrix" values="0 0 0 0 0.027451 0 0 0 0 0.282353 0 0 0 0 0.772549 0 0 0 0.445014 0"/>
<feBlend mode="normal" in2="effect2_dropShadow" result="effect3_dropShadow"/>
<feColorMatrix in="SourceAlpha" type="matrix" values="0 0 0 0 0 0 0 0 0 0 0 0 0 0 0 0 0 0 127 0" result="hardAlpha"/>
<feOffset dy="20.9162"/>
<feGaussianBlur stdDeviation="6.26226"/>
<feColorMatrix type="matrix" values="0 0 0 0 0.027451 0 0 0 0 0.282353 0 0 0 0 0.772549 0 0 0 0.383363 0"/>
<feBlend mode="normal" in2="effect3_dropShadow" result="effect4_dropShadow"/>
<feColorMatrix in="SourceAlpha" type="matrix" values="0 0 0 0 0 0 0 0 0 0 0 0 0 0 0 0 0 0 127 0" result="hardAlpha"/>
<feOffset dy="31.5589"/>
<feGaussianBlur stdDeviation="10.3169"/>
<feColorMatrix type="matrix" values="0 0 0 0 0.027451 0 0 0 0 0.282353 0 0 0 0 0.772549 0 0 0 0.326637 0"/>
<feBlend mode="normal" in2="effect4_dropShadow" result="effect5_dropShadow"/>
<feColorMatrix in="SourceAlpha" type="matrix" values="0 0 0 0 0 0 0 0 0 0 0 0 0 0 0 0 0 0 127 0" result="hardAlpha"/>
<feOffset dy="50.83"/>
<feGaussianBlur stdDeviation="18.0309"/>
<feColorMatrix type="matrix" values="0 0 0 0 0.027451 0 0 0 0 0.282353 0 0 0 0 0.772549 0 0 0 0.264986 0"/>
<feBlend mode="normal" in2="effect5_dropShadow" result="effect6_dropShadow"/>
<feColorMatrix in="SourceAlpha" type="matrix" values="0 0 0 0 0 0 0 0 0 0 0 0 0 0 0 0 0 0 127 0" result="hardAlpha"/>
<feOffset dy="103"/>
<feGaussianBlur stdDeviation="39"/>
<feColorMatrix type="matrix" values="0 0 0 0 0.027451 0 0 0 0 0.282353 0 0 0 0 0.772549 0 0 0 0.18341 0"/>
<feBlend mode="normal" in2="effect6_dropShadow" result="effect7_dropShadow"/>
<feBlend mode="normal" in="SourceGraphic" in2="effect7_dropShadow" result="shape"/>
</filter>
<linearGradient id="paint0_linear" x1="176.754" y1="0.361816" x2="176.754" y2="132.33" gradientUnits="userSpaceOnUse">
<stop stop-color="white"/>
<stop offset="1" stop-color="white" stop-opacity="0"/>
</linearGradient>
</defs>
</svg>
