<svg width="209" height="122" viewBox="0 0 209 122" fill="none" xmlns="http://www.w3.org/2000/svg">
<path d="M61.7987 97.2383L61.6397 97.3745L61.2987 97.295L60.6177 95.8755L60.3897 95.7505L60.5717 95.5347L59.9587 94.1719L59.8447 93.2633L59.3337 92.7068L59.2547 92.4456L59.3797 92.2639L59.7197 92.139L60.9237 92.6159L62.0137 93.8425L62.3887 95.2507L61.7987 97.2383ZM146.694 0L148.432 1.62406L151.112 2.82789L150.783 3.73645L152.123 4.40651L153.122 1.83982L154.28 2.1124L155.813 9.89195L155.177 11.8225L156.108 13.9691L155.234 16.2178L160.48 16.7743L161.809 17.4443L164.216 17.6828L164.761 14.7867L164.705 12.8221L166.147 13.1967L166.862 11.9703L168.532 13.1741V14.5823L172.495 14.9231L172.597 20.2495L171.95 20.7492L171.223 26.0188L172.063 27.4498L173.29 32.7194L172.495 35.7404L175.936 39.5904L176.424 45.7345L177.923 48.2897L177.083 53.4686L175.345 66.7561L178.638 70.9242L180.012 76.2619L186.633 82.9171L191.118 84.7796L204.075 88.641L204.348 92.8431L206.948 96.1934L206.539 97.5335L208.345 101.089L206.369 99.9067L204.643 100.032L203.61 99.0667L202.088 99.8507L199.749 99.1457L199.17 97.3745L198.193 96.943L197.069 97.7152L195.933 97.0452L194.287 96.5682L193.923 95.5574L194.275 93.8084L193.514 91.5257L192.436 91.378L191.8 91.7188L191.459 92.2866L190.812 92.4911L189.381 91.6052L186.712 87.8233L181.511 92.9794L179.07 92.6387L170.349 93.5472L166.124 95.194L162.786 95.2735L160.742 96.0912L159.311 96.4319L157.959 96.3637L156.392 96.7272L155.949 97.454L152.543 97.0338L152.849 98.442L151.657 100.725L146.638 104.462L148.954 105.824L147.523 107.199L145.286 108.55L142.618 109.697L141.039 109.913L139.563 110.89L136.156 110.435L135.452 112.196L132.477 112.037L127.424 110.787L127.39 110.503L128.219 110.64L128.616 110.469L127.776 110.174L127.639 109.89L127.719 109.129L128.185 108.925L128.116 108.402L128.332 108.221L130.035 108.05L129.138 107.528L128.991 107.051L129.286 106.744L130.183 106.506L129.695 105.961L129.388 105.177L128.854 104.745L128.73 104.348L128.923 104.144L129.888 104.132L130.206 103.542L128.979 102.463L128.537 102.292L127.867 101.497L128.332 100.884L129.104 100.895L128.321 100.509L128.23 100.066L127.923 99.9637L128.162 99.5777L128.116 99.1348L128.741 98.6577L129.706 98.7827L129.354 98.1922L129.695 97.9651L129.229 97.8061L129.161 97.4995L129.933 97.0792L130.478 96.1707L130.921 96.6817L130.853 96.2275L131.001 95.7959L130.864 95.6482L130.558 95.7505L130.342 95.387L130.637 94.91L130.705 94.2741L131.205 93.5586L131.285 92.6954L132.647 91.2304L133.261 91.026L132.681 90.8102L132.625 90.6171L133.329 90.5149L133.454 90.3445L132.988 90.0833L132.545 89.3678L131.603 88.5275L131.921 86.8012L131.659 85.6428L132.488 84.8364L131.614 84.5071L131.921 83.7575L131.489 82.1789L131.262 82.1107L130.955 82.2698L130.626 82.1107L130.126 82.4515L129.831 82.3152L130.092 81.8041L130.49 81.6792L129.774 80.9523L129.536 81.0432L129.354 80.9184L129.536 80.1346L129.956 79.8167L129.683 79.2488L129.229 79.0671L129.093 79.1466L128.559 80.0211L127.469 80.6684L126.867 81.6224L126.845 82.4401L126.47 82.406L126.084 82.1335L126.129 81.5656L125.936 81.2249L126.027 80.8501L126.322 80.5548L126.186 80.0665L125.788 79.8053L125.368 79.9757L125.084 80.3391L124.857 80.271L124.903 79.4191L125.084 79.1352L124.687 78.9989L124.607 78.681L123.699 78.3176L123.574 78.1131L123.676 77.9202L124.085 78.0336L124.562 77.4998L124.369 77.2273L124.483 76.6821L124.233 76.2506L123.722 75.8985L120.451 76.5345L119.6 77.4659L119.088 77.7156L118.816 77.6702L118.419 76.7844L117.919 76.6936L117.317 79.4305L117.056 79.7371L116.397 80.0098H115.432L113.797 79.1125L111.616 78.715L110.004 77.8178L108.846 77.9428L108.346 77.6815L108.323 77.4317L108.051 77.5453L107.926 77.2728L106.506 76.773L104.916 76.5345L104.11 76.5799L103.27 75.9781L103.406 77.2047L103.917 77.7043L104.485 77.9883L104.792 78.5107L104.712 79.8167L104.417 80.4186L104.269 80.3164L104.394 80.6798L104.246 80.6911L103.86 79.6463L104.053 78.7038L103.588 78.2153L103.19 78.1585L103.077 77.7156L102.634 77.3181L102.1 75.3193L101.919 75.3307L101.884 75.7054L101.646 75.7281L101.362 76.137L100.806 76.2393L100.056 77.0115L99.8177 77.1251L99.6807 76.932L100.272 76.3187L100.828 76.0007L101.056 75.0921L101.26 75.0808L101.317 74.8991L101.135 74.5924L101.51 74.2859L101.589 73.6725L100.579 74.2063L99.7607 75.2057L100.249 74.2517L100.238 73.8997L98.9767 72.446L96.0927 71.5942L95.2067 71.7305L94.9117 71.4921L94.3217 71.7533L93.2307 71.3898L92.7317 71.6283L92.2887 71.6056L90.7327 72.9457L90.3807 72.9684L90.0627 73.2069L89.8927 74.036L89.5287 73.9451L89.1767 74.1495L88.0987 74.1155L87.5877 73.8656L87.0417 73.8542L85.8157 73.2523L84.7707 73.5023L84.3167 73.7975L83.8397 74.4675L83.6577 74.5584L83.4537 74.3426L83.1127 74.4107L82.1027 76.296L81.5117 76.8638L81.0687 76.8867L80.8757 76.6708L81.0917 75.7963L81.0007 75.3874L80.7167 75.2398L80.3987 75.3874L79.6727 75.9212L79.1047 76.6708L78.9457 77.8519L78.3437 79.4419L78.0707 79.7144L77.6847 79.6236L77.4467 79.2829L77.7307 78.2834L77.5827 78.0677L76.8447 78.6696L76.5157 78.6582L76.3107 77.3295L75.7657 76.5005L74.6757 78.3403L74.4487 78.9989L74.0507 79.4191L73.8917 79.476L73.6197 79.1352L73.8017 78.1245L73.5397 78.1131L72.9157 78.4879L72.5867 78.9308L72.7907 79.2034L72.0407 79.8167L71.4737 80.9978L71.2117 81.9972L70.8147 82.6105L70.5197 82.2698L70.4287 79.9417L68.9407 81.5202L68.2827 81.9858L66.6927 84.3594L66.4197 85.3361L64.9097 84.9273L64.1147 85.3021L63.2407 86.6876L63.3537 87.7665L63.0477 88.2095L62.4687 88.4934L62.1047 89.0158L61.1507 88.6978L60.5487 88.2095L60.8327 89.0839L60.6627 89.7767L61.7297 90.6398L61.5027 90.7421L60.8327 90.424L60.6737 90.6059L61.5937 91.3553L61.9457 91.9459L61.8437 92.1957L61.2417 92.0254L59.8227 91.1964L59.3457 91.1395L58.7667 92.0821L58.3797 92.0254L58.0737 91.696L57.8237 91.7642L57.6197 92.6842L57.9147 93.2292L57.5057 93.6609L57.2327 93.4904L56.8587 92.6842L56.2797 91.9913L56.0867 92.0027L56.1997 92.8771L56.5857 93.4904L56.6087 93.8311L57.2677 94.5012L57.4037 95.0919L57.2557 95.2621L55.7567 94.3876L55.0187 93.7971L54.9057 93.5359L54.3827 93.5245L53.4627 92.8431L53.2137 92.8544L53.0087 93.2406L52.3727 91.9232L52.1007 91.7756L52.1687 91.3212L52.0207 91.0146L52.2597 90.6171L52.9637 90.8215L52.0667 89.8221L52.1227 89.4133L51.9977 89.1749L50.8517 88.7659L50.3517 88.8341L50.1817 88.9704L50.5787 89.4361H50.9987L51.2147 89.6631L51.3167 90.0266L51.1917 90.4809L51.4647 91.5143L52.6227 92.7863L52.7477 93.2406L52.5887 93.7062L53.0657 94.0015L53.2017 94.2627V94.5807L53.0197 94.7851L52.6337 94.8078L52.4187 95.2053H52.2027L51.5217 94.6829L51.5897 94.399L51.2147 93.1043L51.3167 92.6273L51.0217 92.5137L51.1467 92.1957L50.4987 90.6059L49.7837 89.9357L48.8297 89.3906L48.7957 89.1521L48.5347 88.9476L48.1027 88.8681L48.2737 89.1294L48.1717 89.2656L47.6037 88.8454L47.5357 88.959L48.0467 90.0493L48.6137 90.2991L48.6937 89.8789L48.9547 90.072L49.0907 90.549L49.4317 90.9238L49.3297 91.2758L49.4997 91.7869L49.2157 91.7414L48.7507 91.1055L48.0577 90.674L47.9667 90.8783L48.2847 91.1168L48.5457 91.7869L48.0237 91.9913L48.0687 91.2645L47.5807 90.8329L47.2177 90.1969L47.2737 89.9471L47.4897 89.8221L47.0357 89.4019L46.6387 89.3906L46.5357 89.5382L46.8087 90.1401L46.4797 90.3445L46.9447 90.7875L47.0017 91.2304L47.4447 91.8096L48.0467 92.332L47.9787 92.5932L46.7627 91.9345L44.5717 91.3212L44.1857 90.708L43.3107 90.1742L42.6867 90.0493L41.5507 89.4814L40.6307 88.5956L39.8587 88.6637L39.0757 87.5621L38.7797 86.7444L38.0187 86.3355L37.6447 86.3469L37.2127 86.0062L36.5087 85.904L35.7597 84.4162L35.2937 84.7115L33.9997 84.4389L33.6587 84.0755L33.7717 83.485L33.6817 83.2579L32.9317 83.167L32.2957 82.8603L32.3077 82.1902L32.9657 80.4413L34.4987 79.1352L36.1677 79.2262L36.8607 79.7599L36.9967 80.6911L38.2467 81.9063L39.3367 82.0313L41.8347 81.736L42.7547 80.975L43.8447 79.3624L43.0837 77.1818L38.9047 71.5261L37.8487 69.0844L36.2587 65.1321L35.8617 63.758L35.0777 58.477L32.1137 58.4202L30.0815 57.8524L27.8103 54.2182L26.8337 51.8899L25.6981 49.9025L22.8365 47.1314L21.7123 46.9951L20.8152 47.2791L17.0337 47.6539L14.7852 47.6992L11.8327 46.768L8.6417 45.4052L8.6872 46.3023L8.4487 48.0968L7.94901 49.9478L3.9745 47.5857L2.70271 46.291L2.1916 45.4052L3.1342 44.9168L3.22501 44.7124L1.2151 41.1122L0.0454025 39.3633L2.7254 38.0459L3.16821 37.3643L3.9745 37.4439L4.2243 36.7852L1.78281 35.9107L1.7374 35.3088L2.2598 34.2299L2.203 33.2759L1.98721 32.6967L1.78281 32.4128L0.465607 31.8223L0 31.0613L3.3386 32.1743L5.9277 32.038L17.1586 33.7984L36.6227 35.9674L42.7317 37.6824L53.5427 41.964L53.3727 38.5569L60.2427 38.9317L61.4457 37.955L65.1597 38.0459L69.6337 33.4576L81.7617 25.3147L83.1467 25.2806L85.2137 23.3159L86.1227 23.7702L88.1547 22.5209L89.3817 18.6709L93.9467 18.3528L96.5697 17.1491L105.904 18.7618L106.495 19.9656L105.734 20.4994L105.564 23.225L112.638 24.8377L113.422 23.4522L114.387 23.3159L119.236 26.0643L121.609 26.0075L123.165 25.0649L122.666 23.4295L124.199 16.9219L126.867 16.8084L126.527 8.68805L128.48 9.55125L129.797 6.48483L131.16 7.14354L138.825 7.15489L142.243 6.07598L141.664 4.7245L145.934 1.10163L146.694 0Z" fill="#1E5EDA"/>
<path d="M61.7987 97.2383L61.6397 97.3745L61.2987 97.295L60.6177 95.8755L60.3897 95.7505L60.5717 95.5347L59.9587 94.1719L59.8447 93.2633L59.3337 92.7068L59.2547 92.4456L59.3797 92.2639L59.7197 92.139L60.9237 92.6159L62.0137 93.8425L62.3887 95.2507L61.7987 97.2383ZM146.694 0L148.432 1.62406L151.112 2.82789L150.783 3.73645L152.123 4.40651L153.122 1.83982L154.28 2.1124L155.813 9.89195L155.177 11.8225L156.108 13.9691L155.234 16.2178L160.48 16.7743L161.809 17.4443L164.216 17.6828L164.761 14.7867L164.705 12.8221L166.147 13.1967L166.862 11.9703L168.532 13.1741V14.5823L172.495 14.9231L172.597 20.2495L171.95 20.7492L171.223 26.0188L172.063 27.4498L173.29 32.7194L172.495 35.7404L175.936 39.5904L176.424 45.7345L177.923 48.2897L177.083 53.4686L175.345 66.7561L178.638 70.9242L180.012 76.2619L186.633 82.9171L191.118 84.7796L204.075 88.641L204.348 92.8431L206.948 96.1934L206.539 97.5335L208.345 101.089L206.369 99.9067L204.643 100.032L203.61 99.0667L202.088 99.8507L199.749 99.1457L199.17 97.3745L198.193 96.943L197.069 97.7152L195.933 97.0452L194.287 96.5682L193.923 95.5574L194.275 93.8084L193.514 91.5257L192.436 91.378L191.8 91.7188L191.459 92.2866L190.812 92.4911L189.381 91.6052L186.712 87.8233L181.511 92.9794L179.07 92.6387L170.349 93.5472L166.124 95.194L162.786 95.2735L160.742 96.0912L159.311 96.4319L157.959 96.3637L156.392 96.7272L155.949 97.454L152.543 97.0338L152.849 98.442L151.657 100.725L146.638 104.462L148.954 105.824L147.523 107.199L145.286 108.55L142.618 109.697L141.039 109.913L139.563 110.89L136.156 110.435L135.452 112.196L132.477 112.037L127.424 110.787L127.39 110.503L128.219 110.64L128.616 110.469L127.776 110.174L127.639 109.89L127.719 109.129L128.185 108.925L128.116 108.402L128.332 108.221L130.035 108.05L129.138 107.528L128.991 107.051L129.286 106.744L130.183 106.506L129.695 105.961L129.388 105.177L128.854 104.745L128.73 104.348L128.923 104.144L129.888 104.132L130.206 103.542L128.979 102.463L128.537 102.292L127.867 101.497L128.332 100.884L129.104 100.895L128.321 100.509L128.23 100.066L127.923 99.9637L128.162 99.5777L128.116 99.1348L128.741 98.6577L129.706 98.7827L129.354 98.1922L129.695 97.9651L129.229 97.8061L129.161 97.4995L129.933 97.0792L130.478 96.1707L130.921 96.6817L130.853 96.2275L131.001 95.7959L130.864 95.6482L130.558 95.7505L130.342 95.387L130.637 94.91L130.705 94.2741L131.205 93.5586L131.285 92.6954L132.647 91.2304L133.261 91.026L132.681 90.8102L132.625 90.6171L133.329 90.5149L133.454 90.3445L132.988 90.0833L132.545 89.3678L131.603 88.5275L131.921 86.8012L131.659 85.6428L132.488 84.8364L131.614 84.5071L131.921 83.7575L131.489 82.1789L131.262 82.1107L130.955 82.2698L130.626 82.1107L130.126 82.4515L129.831 82.3152L130.092 81.8041L130.49 81.6792L129.774 80.9523L129.536 81.0432L129.354 80.9184L129.536 80.1346L129.956 79.8167L129.683 79.2488L129.229 79.0671L129.093 79.1466L128.559 80.0211L127.469 80.6684L126.867 81.6224L126.845 82.4401L126.47 82.406L126.084 82.1335L126.129 81.5656L125.936 81.2249L126.027 80.8501L126.322 80.5548L126.186 80.0665L125.788 79.8053L125.368 79.9757L125.084 80.3391L124.857 80.271L124.903 79.4191L125.084 79.1352L124.687 78.9989L124.607 78.681L123.699 78.3176L123.574 78.1131L123.676 77.9202L124.085 78.0336L124.562 77.4998L124.369 77.2273L124.483 76.6821L124.233 76.2506L123.722 75.8985L120.451 76.5345L119.6 77.4659L119.088 77.7156L118.816 77.6702L118.419 76.7844L117.919 76.6936L117.317 79.4305L117.056 79.7371L116.397 80.0098H115.432L113.797 79.1125L111.616 78.715L110.004 77.8178L108.846 77.9428L108.346 77.6815L108.323 77.4317L108.051 77.5453L107.926 77.2728L106.506 76.773L104.916 76.5345L104.11 76.5799L103.27 75.9781L103.406 77.2047L103.917 77.7043L104.485 77.9883L104.792 78.5107L104.712 79.8167L104.417 80.4186L104.269 80.3164L104.394 80.6798L104.246 80.6911L103.86 79.6463L104.053 78.7038L103.588 78.2153L103.19 78.1585L103.077 77.7156L102.634 77.3181L102.1 75.3193L101.919 75.3307L101.884 75.7054L101.646 75.7281L101.362 76.137L100.806 76.2393L100.056 77.0115L99.8177 77.1251L99.6807 76.932L100.272 76.3187L100.828 76.0007L101.056 75.0921L101.26 75.0808L101.317 74.8991L101.135 74.5924L101.51 74.2859L101.589 73.6725L100.579 74.2063L99.7607 75.2057L100.249 74.2517L100.238 73.8997L98.9767 72.446L96.0927 71.5942L95.2067 71.7305L94.9117 71.4921L94.3217 71.7533L93.2307 71.3898L92.7317 71.6283L92.2887 71.6056L90.7327 72.9457L90.3807 72.9684L90.0627 73.2069L89.8927 74.036L89.5287 73.9451L89.1767 74.1495L88.0987 74.1155L87.5877 73.8656L87.0417 73.8542L85.8157 73.2523L84.7707 73.5023L84.3167 73.7975L83.8397 74.4675L83.6577 74.5584L83.4537 74.3426L83.1127 74.4107L82.1027 76.296L81.5117 76.8638L81.0687 76.8867L80.8757 76.6708L81.0917 75.7963L81.0007 75.3874L80.7167 75.2398L80.3987 75.3874L79.6727 75.9212L79.1047 76.6708L78.9457 77.8519L78.3437 79.4419L78.0707 79.7144L77.6847 79.6236L77.4467 79.2829L77.7307 78.2834L77.5827 78.0677L76.8447 78.6696L76.5157 78.6582L76.3107 77.3295L75.7657 76.5005L74.6757 78.3403L74.4487 78.9989L74.0507 79.4191L73.8917 79.476L73.6197 79.1352L73.8017 78.1245L73.5397 78.1131L72.9157 78.4879L72.5867 78.9308L72.7907 79.2034L72.0407 79.8167L71.4737 80.9978L71.2117 81.9972L70.8147 82.6105L70.5197 82.2698L70.4287 79.9417L68.9407 81.5202L68.2827 81.9858L66.6927 84.3594L66.4197 85.3361L64.9097 84.9273L64.1147 85.3021L63.2407 86.6876L63.3537 87.7665L63.0477 88.2095L62.4687 88.4934L62.1047 89.0158L61.1507 88.6978L60.5487 88.2095L60.8327 89.0839L60.6627 89.7767L61.7297 90.6398L61.5027 90.7421L60.8327 90.424L60.6737 90.6059L61.5937 91.3553L61.9457 91.9459L61.8437 92.1957L61.2417 92.0254L59.8227 91.1964L59.3457 91.1395L58.7667 92.0821L58.3797 92.0254L58.0737 91.696L57.8237 91.7642L57.6197 92.6842L57.9147 93.2292L57.5057 93.6609L57.2327 93.4904L56.8587 92.6842L56.2797 91.9913L56.0867 92.0027L56.1997 92.8771L56.5857 93.4904L56.6087 93.8311L57.2677 94.5012L57.4037 95.0919L57.2557 95.2621L55.7567 94.3876L55.0187 93.7971L54.9057 93.5359L54.3827 93.5245L53.4627 92.8431L53.2137 92.8544L53.0087 93.2406L52.3727 91.9232L52.1007 91.7756L52.1687 91.3212L52.0207 91.0146L52.2597 90.6171L52.9637 90.8215L52.0667 89.8221L52.1227 89.4133L51.9977 89.1749L50.8517 88.7659L50.3517 88.8341L50.1817 88.9704L50.5787 89.4361H50.9987L51.2147 89.6631L51.3167 90.0266L51.1917 90.4809L51.4647 91.5143L52.6227 92.7863L52.7477 93.2406L52.5887 93.7062L53.0657 94.0015L53.2017 94.2627V94.5807L53.0197 94.7851L52.6337 94.8078L52.4187 95.2053H52.2027L51.5217 94.6829L51.5897 94.399L51.2147 93.1043L51.3167 92.6273L51.0217 92.5137L51.1467 92.1957L50.4987 90.6059L49.7837 89.9357L48.8297 89.3906L48.7957 89.1521L48.5347 88.9476L48.1027 88.8681L48.2737 89.1294L48.1717 89.2656L47.6037 88.8454L47.5357 88.959L48.0467 90.0493L48.6137 90.2991L48.6937 89.8789L48.9547 90.072L49.0907 90.549L49.4317 90.9238L49.3297 91.2758L49.4997 91.7869L49.2157 91.7414L48.7507 91.1055L48.0577 90.674L47.9667 90.8783L48.2847 91.1168L48.5457 91.7869L48.0237 91.9913L48.0687 91.2645L47.5807 90.8329L47.2177 90.1969L47.2737 89.9471L47.4897 89.8221L47.0357 89.4019L46.6387 89.3906L46.5357 89.5382L46.8087 90.1401L46.4797 90.3445L46.9447 90.7875L47.0017 91.2304L47.4447 91.8096L48.0467 92.332L47.9787 92.5932L46.7627 91.9345L44.5717 91.3212L44.1857 90.708L43.3107 90.1742L42.6867 90.0493L41.5507 89.4814L40.6307 88.5956L39.8587 88.6637L39.0757 87.5621L38.7797 86.7444L38.0187 86.3355L37.6447 86.3469L37.2127 86.0062L36.5087 85.904L35.7597 84.4162L35.2937 84.7115L33.9997 84.4389L33.6587 84.0755L33.7717 83.485L33.6817 83.2579L32.9317 83.167L32.2957 82.8603L32.3077 82.1902L32.9657 80.4413L34.4987 79.1352L36.1677 79.2262L36.8607 79.7599L36.9967 80.6911L38.2467 81.9063L39.3367 82.0313L41.8347 81.736L42.7547 80.975L43.8447 79.3624L43.0837 77.1818L38.9047 71.5261L37.8487 69.0844L36.2587 65.1321L35.8617 63.758L35.0777 58.477L32.1137 58.4202L30.0815 57.8524L27.8103 54.2182L26.8337 51.8899L25.6981 49.9025L22.8365 47.1314L21.7123 46.9951L20.8152 47.2791L17.0337 47.6539L14.7852 47.6992L11.8327 46.768L8.6417 45.4052L8.6872 46.3023L8.4487 48.0968L7.94901 49.9478L3.9745 47.5857L2.70271 46.291L2.1916 45.4052L3.1342 44.9168L3.22501 44.7124L1.2151 41.1122L0.0454025 39.3633L2.7254 38.0459L3.16821 37.3643L3.9745 37.4439L4.2243 36.7852L1.78281 35.9107L1.7374 35.3088L2.2598 34.2299L2.203 33.2759L1.98721 32.6967L1.78281 32.4128L0.465607 31.8223L0 31.0613L3.3386 32.1743L5.9277 32.038L17.1586 33.7984L36.6227 35.9674L42.7317 37.6824L53.5427 41.964L53.3727 38.5569L60.2427 38.9317L61.4457 37.955L65.1597 38.0459L69.6337 33.4576L81.7617 25.3147L83.1467 25.2806L85.2137 23.3159L86.1227 23.7702L88.1547 22.5209L89.3817 18.6709L93.9467 18.3528L96.5697 17.1491L105.904 18.7618L106.495 19.9656L105.734 20.4994L105.564 23.225L112.638 24.8377L113.422 23.4522L114.387 23.3159L119.236 26.0643L121.609 26.0075L123.165 25.0649L122.666 23.4295L124.199 16.9219L126.867 16.8084L126.527 8.68805L128.48 9.55125L129.797 6.48483L131.16 7.14354L138.825 7.15489L142.243 6.07598L141.664 4.7245L145.934 1.10163L146.694 0Z" fill="url(#paint0_linear)" fill-opacity="0.1"/>
<defs>
<linearGradient id="paint0_linear" x1="104.173" y1="0" x2="104.173" y2="112.196" gradientUnits="userSpaceOnUse">
<stop stop-color="white"/>
<stop offset="1" stop-color="white" stop-opacity="0"/>
</linearGradient>
</defs>
</svg>
