<svg xmlns="http://www.w3.org/2000/svg" viewBox="0 0 50 50">
  <path fill="black" fill-rule="nonzero" d="M30.8 39.71c0.46,0 0.85,0.38 0.85,0.84 0,0.47 -0.39,0.85 -0.85,0.85 -0.47,0 -0.85,-0.38 -0.85,-0.85 0,-0.46 0.38,-0.84 0.85,-0.84zm17.44 -27.34l-6.06 9.13c-0.59,0.88 -1.53,1.46 -2.56,1.61 -0.38,1.66 -1.36,3.17 -2.74,4.21l-1.24 0.94c-0.3,0.22 -0.41,0.6 -0.29,0.95l0.43 1.25c0.14,0.4 0.34,0.78 0.6,1.13l1.38 1.86c0.21,0.28 0.49,0.49 0.82,0.6l1.9 0.64c0.8,0.26 1.27,1.04 1.13,1.87 -0.14,0.84 -0.82,1.42 -1.67,1.42l-3.63 0c-1.06,0 -2.07,-0.5 -2.71,-1.34 0,0 -3.09,-4.03 -3.27,-4.4 -1.7,1.24 -3.15,2.6 -6.19,4.19 -0.13,0.3 -0.3,0.58 -0.5,0.84l-1.1 1.44 4.58 0.55c1.11,0.13 0.91,1.81 -0.21,1.68l-4.39 -0.53 -11.96 -0.89c-1.25,-0.09 -2.41,-0.58 -3.33,-1.38l0 1.15c0,1.33 0.58,2.57 1.59,3.42 1.6,1.35 3.63,2.09 5.72,2.09l5.19 0c3.67,0 7.36,-0.33 10.98,-1 0.88,-0.16 3.38,-0.56 6.32,0.23l1.11 0.29c0,0 -2.01,-1.42 -3.94,-2.07 -0.44,-0.15 -0.67,-0.65 -0.51,-1.09 0.13,-0.33 0.55,-0.68 1.09,-0.5 2.33,0.77 4.25,2.26 5.62,3.1 1.31,0.81 0.56,3 -1.14,2.6l-2.66 -0.69c-2.54,-0.69 -4.8,-0.34 -5.59,-0.2 -3.71,0.68 -7.51,1.03 -11.28,1.03l-5.19 0c-2.49,0 -4.9,-0.91 -6.82,-2.5 -0.74,-0.61 -2.18,-2.19 -2.18,-4.71l0 -2.72c0,-2.02 1,-4.16 3.09,-5.43l1.08 -0.64 1.77 -1.97c1.86,-2.14 4.81,-4.25 8.1,-5.37l7.18 -2.48c1.39,-0.48 2.67,-1.29 3.71,-2.33l1.17 -1.19c0.04,-0.85 0.35,-1.66 0.91,-2.31l1.86 -2.14c0.37,-0.43 0.92,-0.63 1.46,-0.58l2.61 -4.54c0.2,-0.34 0.24,-0.77 0.17,-1.21 -0.3,-1.68 0.93,-2.82 2.24,-2.87 0.95,-0.04 1.86,0.39 2.45,1.14 0.4,0.52 0.51,1.23 0.28,1.86l-2.58 7.02 4.82 -3.46c0.67,-0.48 1.56,-0.41 2.15,0.16 0.59,0.57 0.69,1.45 0.23,2.14zm-1.44 -0.89l-7.01 5.03c-0.3,0.22 -0.7,0.21 -1,-0.02 -0.3,-0.22 -0.41,-0.61 -0.28,-0.96l3.52 -9.61c0.03,-0.08 0.02,-0.17 -0.03,-0.23 -0.25,-0.32 -0.65,-0.51 -1.05,-0.49 -0.48,0.02 -0.73,0.48 -0.65,0.83 0.19,0.84 0.06,1.7 -0.35,2.4l-2.98 5.17c-0.35,0.56 -0.95,0.49 -1.28,0.22l-1.86 2.14c-0.35,0.42 -0.53,0.94 -0.49,1.49 0.01,0.25 -0.08,0.48 -0.25,0.65 0,0 0,0 0,0l-1.42 1.44c-1.72,1.73 -3.54,2.45 -4.35,2.74l-7.19 2.48c-2.83,0.98 -5.38,2.67 -7.39,4.9l-1.87 2.07c-0.05,0.06 -0.12,0.11 -0.19,0.16l-1.19 0.7c-0.84,0.5 -1.49,1.26 -1.88,2.14 -0.63,1.61 1.5,3.01 3.08,3.1l3.64 0.27c-0.52,-0.57 -0.82,-1.33 -0.82,-2.12 0,-0.42 0.07,-1.4 0.98,-2.28 0.34,-0.34 0.86,-0.31 1.19,0.02 0.31,0.31 0.34,0.85 -0.02,1.2 -0.6,0.59 -0.65,1.67 0.16,2.26 0.32,0.24 0.67,0.44 1.04,0.6l1.06 -1.39c0.28,-0.37 0.81,-0.44 1.18,-0.16 0.38,0.29 0.45,0.82 0.16,1.19l-0.62 0.82 1.95 0.23 1.7 -2.22c0.89,-1.16 0.74,-2.78 -0.33,-3.77 -0.79,-0.72 -1.94,-0.92 -2.92,-0.53 -0.44,0.18 -0.93,-0.03 -1.11,-0.47 -0.17,-0.43 0.04,-0.92 0.47,-1.1 1.59,-0.64 3.44,-0.3 4.7,0.86 0.82,0.74 1.39,1.86 1.45,3.03 1.46,-0.83 4.76,-3.37 5.22,-3.72 -0.04,-0.3 -0.04,-0.61 -0.01,-0.91l0.12 -1.4c0.04,-0.46 0.45,-0.8 0.92,-0.76 0.46,0.04 0.81,0.45 0.76,0.92l-0.12 1.39c-0.06,0.67 0.13,1.33 0.53,1.87l2.98 3.96c0.32,0.42 0.83,0.67 1.36,0.67l3.63 0 0 0 -1.9 -0.63c-0.66,-0.22 -1.23,-0.64 -1.64,-1.2l-1.38 -1.86c-0.36,-0.49 -0.65,-1.02 -0.84,-1.59l-0.43 -1.25c-0.37,-1.04 -0.01,-2.19 0.87,-2.86l1.25 -0.93c1.2,-0.91 2.01,-2.29 2.2,-3.79 0.06,-0.45 0.46,-0.77 0.9,-0.74 0.72,0.05 1.41,-0.28 1.8,-0.88l6.03 -9.08z"/>
</svg>
