<svg width="161" height="51" viewBox="0 0 161 51" fill="none" xmlns="http://www.w3.org/2000/svg">
<path d="M46.1198 31.8649C46.1198 42.0534 37.6726 50.3128 27.2526 50.3128C16.8325 50.3128 8.38538 42.0534 8.38538 31.8649C8.38538 21.6764 16.8325 13.417 27.2526 13.417C37.6726 13.417 46.1198 21.6764 46.1198 31.8649Z" fill="white"/>
<path d="M46.1199 31.4479C46.1199 41.6364 37.6727 49.8958 27.2527 49.8958C16.8326 49.8958 8.3855 41.6364 8.3855 31.4479C8.3855 21.2594 16.8326 13 27.2527 13C37.6727 13 46.1199 21.2594 46.1199 31.4479Z" fill="white"/>
<path fill-rule="evenodd" clip-rule="evenodd" d="M15.5362 17.6094H29.3556V29.1209H31.0261V36.0573H26.4702V32.5153H16.4473V36.0573H11.7396V29.1209H12.8027C13.7138 29.1209 15.5362 23.2175 15.5362 17.6094ZM24.1923 29.1209H17.966C18.7759 27.7434 20.3958 22.7748 20.3958 20.561H24.1923V29.1209Z" fill="black"/>
<path d="M2.51562 25.2619C2.51562 23.3509 4.01734 21.8018 5.86979 21.8018C6.79602 21.8018 7.54688 22.5763 7.54688 23.5318V33.4884C7.54688 34.4438 6.79602 35.2184 5.86979 35.2184C4.01734 35.2184 2.51562 33.6693 2.51562 31.7583V25.2619Z" fill="white"/>
<path d="M51.151 24.8294C51.151 23.1573 49.8996 21.8018 48.3559 21.8018C47.584 21.8018 46.9583 22.4795 46.9583 23.3156V33.7046C46.9583 34.5407 47.584 35.2184 48.3559 35.2184C49.8996 35.2184 51.151 33.8629 51.151 32.1908V24.8294Z" fill="white"/>
<path d="M53.6667 30.1873V28.5418V27.5873V26.026C53.6667 11.6522 41.653 0 26.8333 0C12.0137 0 0 11.6522 0 26.026L0 27.5873L0 28.5418L0 30.1873H1.4144V28.5418C1.4144 14.9257 12.7948 3.88766 26.8333 3.88766C40.8718 3.88766 52.2523 14.9257 52.2523 28.5418V30.1873H53.6667Z" fill="white"/>
<path d="M72.3273 33.7063V27.1804L69.1762 32.6525H67.8845L64.8117 27.1601V33.7063H62.0521V22.8028H65.2423L68.6087 29.1058L72.1903 22.8028H75.0477L75.0869 33.7063H72.3273Z" fill="white"/>
<path d="M88.6389 28.2951C88.6389 28.3356 88.6194 28.6194 88.5802 29.1463H80.6145C80.7581 29.8219 81.0973 30.3555 81.6323 30.7474C82.1672 31.1392 82.8327 31.3351 83.6286 31.3351C84.1766 31.3351 84.6594 31.254 85.0769 31.0919C85.5075 30.9163 85.9054 30.646 86.2708 30.2812L87.8952 32.1053C86.9036 33.2807 85.4553 33.8685 83.5503 33.8685C82.3629 33.8685 81.3126 33.632 80.3992 33.1591C79.4859 32.6727 78.7813 32.0039 78.2855 31.1527C77.7897 30.3015 77.5418 29.3354 77.5418 28.2545C77.5418 27.1872 77.7832 26.2279 78.2659 25.3767C78.7617 24.5119 79.4337 23.8431 80.2818 23.3702C81.143 22.8838 82.102 22.6406 83.1589 22.6406C84.1896 22.6406 85.1225 22.8703 85.9576 23.3297C86.7927 23.7891 87.4451 24.4511 87.9148 25.3159C88.3976 26.1671 88.6389 27.1601 88.6389 28.2951ZM83.1784 25.0321C82.4869 25.0321 81.9063 25.2348 81.4365 25.6401C80.9668 26.0455 80.6798 26.5994 80.5754 27.302H85.7619C85.6575 26.6129 85.3705 26.0657 84.9007 25.6604C84.431 25.2415 83.8569 25.0321 83.1784 25.0321Z" fill="white"/>
<path d="M96.3811 33.8685C95.259 33.8685 94.2478 33.632 93.3475 33.1591C92.4602 32.6727 91.7622 32.0039 91.2533 31.1527C90.7575 30.3015 90.5096 29.3354 90.5096 28.2545C90.5096 27.1736 90.7575 26.2076 91.2533 25.3564C91.7622 24.5052 92.4602 23.8431 93.3475 23.3702C94.2478 22.8838 95.259 22.6406 96.3811 22.6406C97.4901 22.6406 98.4557 22.8838 99.2777 23.3702C100.113 23.8431 100.719 24.5254 101.098 25.4172L98.7297 26.7345C98.1817 25.7347 97.3923 25.2348 96.3615 25.2348C95.5656 25.2348 94.9067 25.505 94.3848 26.0455C93.8629 26.5859 93.6019 27.3223 93.6019 28.2545C93.6019 29.1868 93.8629 29.9232 94.3848 30.4636C94.9067 31.0041 95.5656 31.2743 96.3615 31.2743C97.4053 31.2743 98.1947 30.7744 98.7297 29.7746L101.098 31.1122C100.719 31.9769 100.113 32.6525 99.2777 33.1389C98.4557 33.6253 97.4901 33.8685 96.3811 33.8685Z" fill="white"/>
<path d="M112.153 25.3969H108.591V33.7063H105.557V25.3969H101.995V22.8028H112.153V25.3969Z" fill="white"/>
<path d="M118.664 33.8685C117.555 33.8685 116.557 33.632 115.67 33.1591C114.796 32.6727 114.111 32.0039 113.615 31.1527C113.119 30.3015 112.871 29.3354 112.871 28.2545C112.871 27.1736 113.119 26.2076 113.615 25.3564C114.111 24.5052 114.796 23.8431 115.67 23.3702C116.557 22.8838 117.555 22.6406 118.664 22.6406C119.773 22.6406 120.765 22.8838 121.639 23.3702C122.513 23.8431 123.198 24.5052 123.694 25.3564C124.19 26.2076 124.438 27.1736 124.438 28.2545C124.438 29.3354 124.19 30.3015 123.694 31.1527C123.198 32.0039 122.513 32.6727 121.639 33.1591C120.765 33.632 119.773 33.8685 118.664 33.8685ZM118.664 31.2743C119.447 31.2743 120.086 31.0041 120.582 30.4636C121.091 29.9097 121.346 29.1733 121.346 28.2545C121.346 27.3358 121.091 26.6062 120.582 26.0657C120.086 25.5118 119.447 25.2348 118.664 25.2348C117.881 25.2348 117.236 25.5118 116.727 26.0657C116.218 26.6062 115.963 27.3358 115.963 28.2545C115.963 29.1733 116.218 29.9097 116.727 30.4636C117.236 31.0041 117.881 31.2743 118.664 31.2743Z" fill="white"/>
<path d="M144.665 31.1122V36.0573H141.827V33.7063H134.429V36.0573H131.591V31.1122H132.022C132.674 31.0987 133.125 30.7001 133.372 29.9164C133.62 29.1328 133.777 28.0181 133.842 26.5724L133.979 22.8028H143.158V31.1122H144.665ZM136.602 26.7953C136.563 27.9033 136.478 28.8085 136.347 29.5111C136.23 30.2137 136.002 30.7474 135.662 31.1122H140.105V25.3969H136.66L136.602 26.7953Z" fill="white"/>
<path d="M148.074 33.8685C147.539 33.8685 147.089 33.6793 146.724 33.301C146.358 32.9227 146.176 32.4498 146.176 31.8823C146.176 31.3013 146.358 30.8352 146.724 30.4839C147.089 30.1191 147.539 29.9367 148.074 29.9367C148.609 29.9367 149.059 30.1191 149.425 30.4839C149.79 30.8352 149.973 31.3013 149.973 31.8823C149.973 32.4498 149.79 32.9227 149.425 33.301C149.059 33.6793 148.609 33.8685 148.074 33.8685Z" fill="white"/>
<path d="M153.588 33.8685C153.053 33.8685 152.603 33.6793 152.237 33.301C151.872 32.9227 151.689 32.4498 151.689 31.8823C151.689 31.3013 151.872 30.8352 152.237 30.4839C152.603 30.1191 153.053 29.9367 153.588 29.9367C154.123 29.9367 154.573 30.1191 154.938 30.4839C155.304 30.8352 155.486 31.3013 155.486 31.8823C155.486 32.4498 155.304 32.9227 154.938 33.301C154.573 33.6793 154.123 33.8685 153.588 33.8685Z" fill="white"/>
<path d="M159.102 33.8685C158.567 33.8685 158.116 33.6793 157.751 33.301C157.386 32.9227 157.203 32.4498 157.203 31.8823C157.203 31.3013 157.386 30.8352 157.751 30.4839C158.116 30.1191 158.567 29.9367 159.102 29.9367C159.637 29.9367 160.087 30.1191 160.452 30.4839C160.817 30.8352 161 31.3013 161 31.8823C161 32.4498 160.817 32.9227 160.452 33.301C160.087 33.6793 159.637 33.8685 159.102 33.8685Z" fill="white"/>
<path d="M63.964 14.7205H62.4412V17.938H61.8979V14.7205H60.375V14.2827H63.964V14.7205Z" fill="white"/>
<path d="M68.083 16.2632H64.7158C64.7465 16.6431 64.9072 16.9512 65.198 17.1875C65.4888 17.4191 65.8561 17.5349 66.2999 17.5349C66.5499 17.5349 66.7795 17.4955 66.9887 17.4168C67.1978 17.3334 67.3789 17.2129 67.532 17.0554L67.8381 17.3751C67.6595 17.5697 67.435 17.7179 67.1647 17.8198C66.8994 17.9218 66.606 17.9727 66.2846 17.9727C65.8714 17.9727 65.5041 17.894 65.1827 17.7365C64.8663 17.5743 64.6189 17.3519 64.4404 17.0693C64.2618 16.7867 64.1725 16.4671 64.1725 16.1103C64.1725 15.7536 64.2567 15.4339 64.425 15.1513C64.5985 14.8687 64.8332 14.6487 65.1291 14.4912C65.4301 14.3336 65.7668 14.2549 66.1392 14.2549C66.5116 14.2549 66.8458 14.3336 67.1417 14.4912C67.4376 14.6487 67.6697 14.8687 67.8381 15.1513C68.0064 15.4293 68.0906 15.749 68.0906 16.1103L68.083 16.2632ZM66.1392 14.6788C65.7515 14.6788 65.425 14.7923 65.1597 15.0193C64.8995 15.2417 64.7516 15.5335 64.7158 15.8949H67.5702C67.5345 15.5335 67.384 15.2417 67.1187 15.0193C66.8586 14.7923 66.532 14.6788 66.1392 14.6788Z" fill="white"/>
<path d="M70.5663 14.2549C71.0918 14.2549 71.4948 14.3753 71.7754 14.6162C72.056 14.8525 72.1963 15.2046 72.1963 15.6725V17.938H71.676V17.3681C71.5535 17.5581 71.3724 17.7063 71.1326 17.8129C70.8979 17.9194 70.6174 17.9727 70.2908 17.9727C69.8419 17.9727 69.4848 17.8754 69.2195 17.6809C68.9542 17.4863 68.8216 17.2292 68.8216 16.9095C68.8216 16.5991 68.944 16.3489 69.1889 16.159C69.4389 15.969 69.8342 15.8741 70.375 15.8741H71.653V15.6517C71.653 15.3366 71.5561 15.0981 71.3622 14.9359C71.1683 14.7691 70.8852 14.6857 70.5128 14.6857C70.2577 14.6857 70.0128 14.7251 69.7781 14.8039C69.5434 14.878 69.3419 14.9822 69.1736 15.1166L68.9287 14.7483C69.1328 14.5908 69.3776 14.4703 69.6633 14.3869C69.949 14.2989 70.25 14.2549 70.5663 14.2549ZM70.375 17.5836C70.6811 17.5836 70.9439 17.521 71.1632 17.3959C71.3826 17.2662 71.5459 17.0809 71.653 16.84V16.2424H70.3903C69.7016 16.2424 69.3572 16.4601 69.3572 16.8956C69.3572 17.1087 69.4465 17.2778 69.6251 17.4029C69.8036 17.5233 70.0536 17.5836 70.375 17.5836Z" fill="white"/>
<path d="M76.4742 14.7205H74.9513V17.938H74.408V14.7205H72.8851V14.2827H76.4742V14.7205Z" fill="white"/>
<path d="M79.3336 14.2549C79.7111 14.2549 80.0529 14.3336 80.359 14.4912C80.6651 14.644 80.9049 14.8618 81.0784 15.1444C81.2518 15.427 81.3385 15.749 81.3385 16.1103C81.3385 16.4763 81.2518 16.8006 81.0784 17.0832C80.9049 17.3658 80.6651 17.5859 80.359 17.7434C80.058 17.8963 79.7162 17.9727 79.3336 17.9727C79.0071 17.9727 78.7112 17.9125 78.4459 17.792C78.1857 17.667 77.9714 17.4863 77.8031 17.25V19.2861H77.2597V14.2827H77.7801V15.0054C77.9434 14.7645 78.1576 14.5792 78.4229 14.4495C78.6933 14.3197 78.9969 14.2549 79.3336 14.2549ZM79.2953 17.5349C79.5759 17.5349 79.831 17.477 80.0606 17.3612C80.2901 17.2407 80.4687 17.0716 80.5962 16.8539C80.7289 16.6362 80.7952 16.3883 80.7952 16.1103C80.7952 15.8324 80.7289 15.5868 80.5962 15.3737C80.4687 15.156 80.2901 14.9869 80.0606 14.8664C79.831 14.746 79.5759 14.6857 79.2953 14.6857C79.0096 14.6857 78.752 14.746 78.5224 14.8664C78.2979 14.9869 78.1194 15.156 77.9867 15.3737C77.8592 15.5868 77.7954 15.8324 77.7954 16.1103C77.7954 16.3883 77.8592 16.6362 77.9867 16.8539C78.1194 17.0716 78.2979 17.2407 78.5224 17.3612C78.752 17.477 79.0096 17.5349 79.2953 17.5349Z" fill="white"/>
<path d="M63.7127 39.8472C64.2448 39.9816 64.5109 40.3283 64.5109 40.8873C64.5109 41.2582 64.3841 41.5431 64.1304 41.742C63.8768 41.9408 63.4988 42.0403 62.9965 42.0403H61.2135V37.7992H62.9443C63.3919 37.7992 63.7425 37.8933 63.9962 38.0814C64.2498 38.2695 64.3766 38.5383 64.3766 38.8877C64.3766 39.1188 64.317 39.3177 64.1976 39.4843C64.0832 39.6456 63.9216 39.7666 63.7127 39.8472ZM61.7283 39.6859H62.907C63.2104 39.6859 63.4416 39.6241 63.6008 39.5005C63.7649 39.3768 63.847 39.1968 63.847 38.9603C63.847 38.7237 63.7649 38.5464 63.6008 38.4281C63.4416 38.3099 63.2104 38.2507 62.907 38.2507H61.7283V39.6859ZM62.9741 41.5888C63.3123 41.5888 63.566 41.5296 63.7351 41.4114C63.9042 41.2931 63.9887 41.1077 63.9887 40.855C63.9887 40.6024 63.9116 40.417 63.7574 40.2987C63.6033 40.1751 63.3596 40.1133 63.0263 40.1133H61.7283V41.5888H62.9741Z" fill="white"/>
<path d="M70.4651 38.3072H68.9805V42.0403H68.4508V38.3072H66.9662V37.7992H70.4651V38.3072Z" fill="white"/>
<path d="M74.4805 40.0971H71.198C71.2278 40.5379 71.3845 40.8954 71.668 41.1695C71.9514 41.4383 72.3095 41.5726 72.7422 41.5726C72.9859 41.5726 73.2097 41.527 73.4136 41.4356C73.6176 41.3388 73.7941 41.1991 73.9433 41.0163L74.2417 41.3872C74.0677 41.613 73.8488 41.785 73.5852 41.9032C73.3266 42.0215 73.0406 42.0806 72.7273 42.0806C72.3245 42.0806 71.9664 41.9892 71.653 41.8065C71.3447 41.6183 71.1035 41.3603 70.9294 41.0324C70.7553 40.7045 70.6683 40.3336 70.6683 39.9197C70.6683 39.5059 70.7503 39.135 70.9145 38.8071C71.0836 38.4792 71.3124 38.2239 71.6008 38.0411C71.8942 37.8583 72.2225 37.767 72.5856 37.767C72.9486 37.767 73.2744 37.8583 73.5629 38.0411C73.8513 38.2239 74.0776 38.4792 74.2417 38.8071C74.4059 39.1296 74.4879 39.5005 74.4879 39.9197L74.4805 40.0971ZM72.5856 38.2588C72.2076 38.2588 71.8893 38.3905 71.6307 38.6539C71.377 38.9119 71.2328 39.2505 71.198 39.6698H73.9806C73.9458 39.2505 73.7991 38.9119 73.5405 38.6539C73.2868 38.3905 72.9685 38.2588 72.5856 38.2588Z" fill="white"/>
<path d="M78.7882 37.7992V42.0403H78.2585V38.3072H76.3785L76.3263 39.3553C76.2865 40.2369 76.192 40.9142 76.0428 41.3872C75.8936 41.8602 75.6275 42.0967 75.2446 42.0967C75.1401 42.0967 75.0133 42.0752 74.8641 42.0322L74.9014 41.5404C74.9909 41.5619 75.0531 41.5726 75.0879 41.5726C75.2918 41.5726 75.446 41.4705 75.5504 41.2663C75.6549 41.062 75.7245 40.8094 75.7593 40.5083C75.7941 40.2073 75.824 39.8096 75.8488 39.315L75.916 37.7992H78.7882Z" fill="white"/>
<path d="M83.7256 40.0971H80.4431C80.4729 40.5379 80.6296 40.8954 80.9131 41.1695C81.1966 41.4383 81.5547 41.5726 81.9874 41.5726C82.2311 41.5726 82.4549 41.527 82.6588 41.4356C82.8627 41.3388 83.0393 41.1991 83.1885 41.0163L83.4869 41.3872C83.3128 41.613 83.094 41.785 82.8304 41.9032C82.5718 42.0215 82.2858 42.0806 81.9725 42.0806C81.5696 42.0806 81.2115 41.9892 80.8982 41.8065C80.5898 41.6183 80.3486 41.3603 80.1745 41.0324C80.0005 40.7045 79.9134 40.3336 79.9134 39.9197C79.9134 39.5059 79.9955 39.135 80.1596 38.8071C80.3287 38.4792 80.5575 38.2239 80.846 38.0411C81.1394 37.8583 81.4676 37.767 81.8307 37.767C82.1938 37.767 82.5195 37.8583 82.808 38.0411C83.0965 38.2239 83.3228 38.4792 83.4869 38.8071C83.651 39.1296 83.7331 39.5005 83.7331 39.9197L83.7256 40.0971ZM81.8307 38.2588C81.4527 38.2588 81.1344 38.3905 80.8758 38.6539C80.6221 38.9119 80.4779 39.2505 80.4431 39.6698H83.2258C83.191 39.2505 83.0442 38.9119 82.7856 38.6539C82.532 38.3905 82.2137 38.2588 81.8307 38.2588Z" fill="white"/>
<path d="M89.6428 39.9117C89.6428 40.5728 89.4414 41.0916 89.0385 41.4678C88.6357 41.8441 88.0662 42.0484 87.3301 42.0806V43.6045H86.8154V42.0887C86.0843 42.0564 85.5173 41.8522 85.1144 41.4759C84.7165 41.0942 84.5176 40.5728 84.5176 39.9117C84.5176 39.2559 84.7165 38.7426 85.1144 38.3717C85.5173 38.0008 86.0843 37.7992 86.8154 37.767V36.0576H87.3301V37.767C88.0662 37.8046 88.6357 38.0088 89.0385 38.3797C89.4414 38.7506 89.6428 39.2613 89.6428 39.9117ZM85.0398 39.9117C85.0398 40.417 85.189 40.812 85.4874 41.0969C85.7908 41.3818 86.2335 41.5431 86.8154 41.5807V38.2749C86.2384 38.3072 85.7983 38.4657 85.4949 38.7506C85.1915 39.0301 85.0398 39.4172 85.0398 39.9117ZM87.3301 41.5807C87.912 41.5485 88.3547 41.3899 88.658 41.105C88.9664 40.8201 89.1206 40.4223 89.1206 39.9117C89.1206 39.4118 88.9664 39.0221 88.658 38.7426C88.3547 38.463 87.912 38.3072 87.3301 38.2749V41.5807Z" fill="white"/>
<path d="M92.3819 42.0806C92.0039 42.0806 91.6632 41.9892 91.3598 41.8065C91.0564 41.6183 90.8177 41.3603 90.6436 41.0324C90.4695 40.7045 90.3825 40.3336 90.3825 39.9197C90.3825 39.5059 90.4695 39.135 90.6436 38.8071C90.8177 38.4792 91.0564 38.2239 91.3598 38.0411C91.6632 37.8583 92.0039 37.767 92.3819 37.767C92.7598 37.767 93.1005 37.8583 93.4039 38.0411C93.7073 38.2239 93.9435 38.4792 94.1126 38.8071C94.2867 39.135 94.3737 39.5059 94.3737 39.9197C94.3737 40.3336 94.2867 40.7045 94.1126 41.0324C93.9435 41.3603 93.7073 41.6183 93.4039 41.8065C93.1005 41.9892 92.7598 42.0806 92.3819 42.0806ZM92.3819 41.5726C92.6604 41.5726 92.909 41.5055 93.1279 41.3711C93.3517 41.2313 93.5258 41.0351 93.6501 40.7825C93.7744 40.5298 93.8366 40.2423 93.8366 39.9197C93.8366 39.5972 93.7744 39.3097 93.6501 39.057C93.5258 38.8044 93.3517 38.6109 93.1279 38.4765C92.909 38.3367 92.6604 38.2669 92.3819 38.2669C92.1033 38.2669 91.8522 38.3367 91.6284 38.4765C91.4095 38.6109 91.2355 38.8044 91.1062 39.057C90.9818 39.3097 90.9197 39.5972 90.9197 39.9197C90.9197 40.2423 90.9818 40.5298 91.1062 40.7825C91.2355 41.0351 91.4095 41.2313 91.6284 41.3711C91.8522 41.5055 92.1033 41.5726 92.3819 41.5726Z" fill="white"/>
<path d="M95.5058 37.7992H96.0354V39.6779H98.5048V37.7992H99.0345V42.0403H98.5048V40.1697H96.0354V42.0403H95.5058V37.7992Z" fill="white"/>
<path d="M103.972 40.0971H100.689C100.719 40.5379 100.876 40.8954 101.159 41.1695C101.443 41.4383 101.801 41.5726 102.233 41.5726C102.477 41.5726 102.701 41.527 102.905 41.4356C103.109 41.3388 103.285 41.1991 103.435 41.0163L103.733 41.3872C103.559 41.613 103.34 41.785 103.076 41.9032C102.818 42.0215 102.532 42.0806 102.219 42.0806C101.816 42.0806 101.458 41.9892 101.144 41.8065C100.836 41.6183 100.595 41.3603 100.421 41.0324C100.247 40.7045 100.159 40.3336 100.159 39.9197C100.159 39.5059 100.242 39.135 100.406 38.8071C100.575 38.4792 100.804 38.2239 101.092 38.0411C101.385 37.8583 101.714 37.767 102.077 37.767C102.44 37.767 102.766 37.8583 103.054 38.0411C103.343 38.2239 103.569 38.4792 103.733 38.8071C103.897 39.1296 103.979 39.5005 103.979 39.9197L103.972 40.0971ZM102.077 38.2588C101.699 38.2588 101.38 38.3905 101.122 38.6539C100.868 38.9119 100.724 39.2505 100.689 39.6698H103.472C103.437 39.2505 103.29 38.9119 103.032 38.6539C102.778 38.3905 102.46 38.2588 102.077 38.2588Z" fill="white"/>
</svg>
