<svg viewBox="0 0 100 100" fill="none" xmlns="http://www.w3.org/2000/svg">
<path d="M89.9463 35.9855H64.9639V8.56973C64.9639 3.84434 61.1195 0 56.3941 0H8.81466C4.08927 0 0.244934 3.84434 0.244934 8.56973V28.2561C0.244934 29.0613 0.897668 29.7141 1.70294 29.7141C2.50822 29.7141 3.16095 29.0613 3.16095 28.2561V8.56973C3.16095 5.45234 5.69708 2.91602 8.81466 2.91602H56.3941C59.5117 2.91602 62.0479 5.45234 62.0479 8.56973V37.5732C62.0479 40.6906 59.5117 43.2268 56.3941 43.2268H23.5891C22.9715 43.2268 22.3721 43.4471 21.9016 43.8471L12.7008 51.6678V45.8322C12.7008 44.3955 11.5318 43.2268 10.0953 43.2268H8.81485C5.69728 43.2268 3.16114 40.6906 3.16114 37.5732V34.9621C3.16114 34.1568 2.50841 33.5041 1.70314 33.5041C0.897864 33.5041 0.245129 34.1568 0.245129 34.9621V37.5732C0.245129 42.2986 4.08966 46.143 8.81485 46.143H9.78478V52.3395C9.78478 53.367 10.3643 54.2732 11.2967 54.7045C11.6522 54.8688 12.0266 54.9494 12.3977 54.9492C13.0002 54.9492 13.5932 54.7365 14.0777 54.3246L23.7035 46.1428H31.0287V79.8508C31.0287 85.2594 35.4289 89.6596 40.8375 89.6596H72.5574L83.9313 99.3271C84.4531 99.7707 85.0914 99.9998 85.7402 99.9996C86.1397 99.9996 86.5432 99.9129 86.9256 99.7359C87.9297 99.2717 88.5535 98.2959 88.5535 97.1896V89.6596H89.9465C95.3551 89.6596 99.7555 85.2594 99.7555 79.8508V45.7941C99.7551 40.3857 95.3549 35.9855 89.9463 35.9855ZM96.8391 79.851C96.8391 83.6516 93.7471 86.7438 89.9463 86.7438H88.4428C86.8959 86.7438 85.6373 88.0023 85.6373 89.5492V96.9508L74.4146 87.4115C73.908 86.9809 73.2627 86.7438 72.5979 86.7438H40.8371C37.0365 86.7438 33.9445 83.6518 33.9445 79.851V46.143H56.3941C60.6678 46.143 64.2201 42.9984 64.8606 38.9018H89.9463C93.7471 38.9018 96.8391 41.9938 96.8391 45.7945V79.851Z" fill="white"/>
<path d="M40.1313 10.0536L28.8883 23.9532L24.3783 19.4866C22.1735 17.1731 18.4979 17.0751 16.1723 19.2719C13.8406 21.4747 13.7358 25.1639 15.9385 27.4958C15.9453 27.5028 15.9522 27.5098 15.959 27.5169L25.1961 36.9081C26.2895 38.059 27.8258 38.719 29.4137 38.719C29.5299 38.719 29.6469 38.7157 29.7619 38.7087C31.4762 38.6059 33.0463 37.7592 34.0738 36.3844L49.4326 17.0428C49.4428 17.0299 49.4529 17.0169 49.4627 17.0038C51.3715 14.4256 50.827 10.7752 48.249 8.86666C45.6801 6.96412 42.0455 7.49849 40.1313 10.0536ZM47.1322 15.2506L31.7762 34.5887C31.766 34.6016 31.7559 34.6145 31.7461 34.6278C31.2336 35.3198 30.4469 35.7461 29.586 35.7977C28.7311 35.8491 27.8903 35.5131 27.3051 34.894C27.2983 34.887 27.2914 34.8799 27.2846 34.8729L18.0492 25.4835C16.96 24.32 17.0153 22.4874 18.175 21.3917C19.3377 20.2932 21.1779 20.345 22.2766 21.5081C22.2877 21.5198 22.299 21.5313 22.3106 21.5426L27.9821 27.1596C28.2748 27.4497 28.6735 27.6012 29.0883 27.5795C29.4996 27.5569 29.8824 27.361 30.1416 27.0407L42.417 11.8649C42.4301 11.8487 42.4428 11.8323 42.4551 11.8155C43.4076 10.5295 45.2276 10.2583 46.5137 11.21C47.7934 12.1577 48.0684 13.9659 47.1322 15.2506Z" fill="#AF995C"/>
<path d="M80.433 56.6096H72.1086C72.8582 53.5913 73.158 50.7954 73.0006 48.2928C72.8557 45.9926 70.9387 44.1907 68.6359 44.1907H68.3441C66.0938 44.1907 64.2629 46.0215 64.2629 48.2721C64.2629 48.3176 64.265 48.3631 64.2693 48.4083C64.274 48.4592 64.6828 53.5469 59.1781 57.8413C58.4324 58.4229 57.7045 58.9469 57.0895 59.3727C56.649 58.8625 55.9994 58.5377 55.274 58.5377H48.3438C47.0205 58.5377 45.9442 59.6141 45.9442 60.9373V62.8227C45.9442 63.628 46.5969 64.2807 47.4022 64.2807C48.2074 64.2807 48.8602 63.628 48.8602 62.8227V61.454H54.751C54.7346 61.5415 54.7572 76.6106 54.7572 76.6106H48.8602V69.4913C48.8602 68.686 48.2074 68.0332 47.4022 68.0332C46.5969 68.0332 45.9442 68.686 45.9442 69.4913V77.127C45.9442 78.4502 47.0205 79.5266 48.3438 79.5266H55.2736C56.1143 79.5266 56.8539 79.0913 57.2826 78.4352L58.0734 78.9264C60.4565 80.4067 62.4006 81.4545 65.7332 81.4545H78.307C80.6225 81.4545 82.5063 79.5707 82.5063 77.2553C82.5063 76.6657 82.3828 76.1047 82.1625 75.595C83.6164 74.9342 84.632 73.4715 84.632 71.7731C84.632 70.7254 84.2437 69.7684 83.6068 69.0319C84.2437 68.2955 84.632 67.3385 84.632 66.2907C84.632 65.243 84.2437 64.286 83.6068 63.5497C84.2437 62.8133 84.632 61.8563 84.632 60.8086C84.6322 58.4934 82.7482 56.6096 80.433 56.6096ZM73.917 65.0079H80.433C81.1406 65.0079 81.7162 65.5834 81.7162 66.2909C81.7162 66.9983 81.1406 67.5739 80.433 67.5739H73.917C73.1117 67.5739 72.459 68.2266 72.459 69.0319C72.459 69.8372 73.1117 70.4899 73.917 70.4899H80.433C81.1406 70.4899 81.7162 71.0655 81.7162 71.7729C81.7162 72.4803 81.1406 73.0559 80.433 73.0559H73.917C73.1117 73.0559 72.459 73.7086 72.459 74.5139C72.459 75.3192 73.1117 75.9719 73.917 75.9719H78.3072C79.0149 75.9719 79.5904 76.5475 79.5904 77.2549C79.5904 77.9623 79.0149 78.5379 78.3072 78.5379H65.7334C63.2475 78.5379 61.8984 77.869 59.6123 76.4487L57.6734 75.2442V62.4961C58.4231 62.0045 59.6623 61.1612 60.9717 60.1397C67.3633 55.1536 67.233 49.0905 67.1795 48.2297C67.2016 47.6063 67.7154 47.1061 68.344 47.1061H68.6357C69.4029 47.1061 70.0418 47.7075 70.09 48.4754C70.1902 50.0655 70.1131 52.7153 69.1762 56.3086C68.974 57.0836 69.1391 57.8918 69.6291 58.526C70.1197 59.1608 70.8611 59.525 71.6631 59.525H80.433C81.1406 59.525 81.7162 60.1006 81.7162 60.8081C81.7162 61.5155 81.1406 62.0911 80.433 62.0911H73.917C73.1117 62.0911 72.459 62.7438 72.459 63.5491C72.459 64.3551 73.1115 65.0079 73.917 65.0079Z" fill="white"/>
</svg>
