<svg viewBox="0 0 22 40" fill="none" xmlns="http://www.w3.org/2000/svg">
<path d="M18.7658 19.9908L18.4122 20.3443L1.03006 37.7265C0.624365 38.1322 0.624365 38.7901 1.03006 39.1958C1.43592 39.6014 2.09362 39.6014 2.49933 39.1958L18.7658 19.9908ZM18.7658 19.9908L18.4122 19.6372L1.0334 2.25835C0.647262 1.85557 0.648124 1.21918 1.03613 0.817354C1.43392 0.405474 2.08966 0.393122 2.50267 0.789015L20.9697 19.2561C20.9697 19.2561 20.9697 19.2561 20.9698 19.2561C21.3753 19.6619 21.3753 20.3197 20.9698 20.7254C20.9697 20.7254 20.9697 20.7254 20.9697 20.7255L2.49939 39.1958L18.7658 19.9908Z" fill="#0C0C0C" stroke="white"/>
</svg>
