<svg viewBox="0 0 22 40" fill="none" xmlns="http://www.w3.org/2000/svg">
<path d="M3.2342 20.0092L3.58775 19.6557L20.9699 2.2735C21.3756 1.86775 21.3756 1.2099 20.9699 0.804151C20.5641 0.398586 19.9064 0.398643 19.5007 0.804177L3.2342 20.0092ZM3.2342 20.0092L3.58775 20.3628L20.9666 37.7416C21.3527 38.1444 21.3519 38.7808 20.9639 39.1826C20.5661 39.5945 19.9103 39.6069 19.4973 39.211L1.0303 20.7439C1.03028 20.7439 1.03027 20.7439 1.03025 20.7439C0.624681 20.3381 0.624681 19.6803 1.03025 19.2746C1.03027 19.2746 1.03028 19.2746 1.0303 19.2745L19.5006 0.80423L3.2342 20.0092Z" fill="#0C0C0C" stroke="white"/>
</svg>
