<svg viewBox="0 0 15 10" fill="none" xmlns="http://www.w3.org/2000/svg">
<path opacity="0.4" d="M7.02327 0.00330839C7.25692 0.00267041 7.48336 0.116415 7.66327 0.324798L13.6633 7.31372C13.8675 7.55098 13.9959 7.89192 14.0203 8.26153C14.0447 8.63114 13.963 8.99915 13.7933 9.2846C13.6235 9.57005 13.3796 9.74956 13.1152 9.78364C12.8508 9.81771 12.5875 9.70357 12.3833 9.46631L7.02327 3.20423L1.66326 9.24266C1.56097 9.35877 1.44327 9.44548 1.31693 9.4978C1.19059 9.55012 1.0581 9.56703 0.927073 9.54754C0.796043 9.52806 0.669061 9.47257 0.553424 9.38427C0.437787 9.29596 0.335775 9.17658 0.253252 9.033C0.161673 8.88927 0.0923129 8.72066 0.0495206 8.53773C0.00672731 8.3548 -0.00857534 8.16148 0.00456821 7.9699C0.0177108 7.77831 0.0590173 7.59259 0.1259 7.42435C0.192784 7.25612 0.283803 7.10901 0.393254 6.99223L6.39327 0.240932C6.57835 0.0654879 6.80017 -0.018177 7.02327 0.00330839Z" fill="#AF995C"/>
</svg>
