<svg viewBox="0 0 123 117" fill="none" xmlns="http://www.w3.org/2000/svg">
<path d="M112.5 88.5L111.302 87.5977L112.5 88.5ZM1.07019 103.323C0.420123 103.836 0.309427 104.78 0.822946 105.43L9.19122 116.023C9.70474 116.673 10.648 116.784 11.2981 116.271C11.9481 115.757 12.0588 114.814 11.5453 114.164L4.10686 104.747L13.5233 97.3088C14.1734 96.7953 14.2841 95.852 13.7705 95.2019C13.257 94.5518 12.3138 94.4412 11.6637 94.9547L1.07019 103.323ZM2 104.5C1.82517 105.99 1.82522 105.99 1.82528 105.99C1.82531 105.99 1.82538 105.99 1.82545 105.99C1.82558 105.99 1.82575 105.99 1.82597 105.99C1.82639 105.99 1.82698 105.99 1.82772 105.99C1.82922 105.99 1.83135 105.991 1.83412 105.991C1.83966 105.991 1.84775 105.992 1.85836 105.994C1.87958 105.996 1.91091 106 1.95213 106.004C2.03458 106.014 2.15664 106.028 2.31675 106.045C2.63696 106.08 3.1094 106.131 3.72156 106.194C4.94585 106.32 6.72926 106.493 8.97185 106.684L9.22639 103.695C7.00247 103.505 5.23632 103.334 4.02768 103.21C3.42338 103.148 2.9585 103.098 2.64552 103.063C2.48903 103.046 2.37053 103.033 2.29156 103.024C2.25207 103.019 2.22247 103.016 2.20295 103.013C2.19319 103.012 2.18595 103.012 2.18126 103.011C2.17891 103.011 2.1772 103.01 2.17613 103.01C2.17559 103.01 2.17521 103.01 2.175 103.01C2.17489 103.01 2.17482 103.01 2.17479 103.01C2.17478 103.01 2.17479 103.01 2.17478 103.01C2.1748 103.01 2.17483 103.01 2 104.5ZM23.3929 107.642C27.7886 107.855 32.6535 108.018 37.7873 108.071L37.8187 105.071C32.728 105.018 27.9013 104.857 23.5379 104.646L23.3929 107.642ZM52.221 107.904C57.0036 107.735 61.8576 107.44 66.6473 106.979L66.3598 103.993C61.6398 104.447 56.8472 104.739 52.115 104.906L52.221 107.904ZM81.0055 104.996C85.9988 104.063 90.7622 102.872 95.1059 101.363L94.1217 98.5291C89.9518 99.9773 85.3388 101.134 80.4541 102.048L81.0055 104.996ZM108.291 94.6988C110.389 93.1289 112.216 91.3709 113.698 89.4023L111.302 87.5977C110.016 89.3057 108.402 90.869 106.494 92.2968L108.291 94.6988ZM113.698 89.4023C115.02 87.6474 116.179 85.7988 117.185 83.8741L114.527 82.4839C113.593 84.2691 112.521 85.9785 111.302 87.5977L113.698 89.4023ZM121.456 71.6253C122.301 67.4605 122.652 63.1392 122.579 58.7809L119.579 58.8312C119.649 62.9977 119.313 67.1002 118.516 71.0285L121.456 71.6253ZM121.219 46.0126C120.406 41.7967 119.254 37.6428 117.823 33.6573L114.999 34.6712C116.38 38.516 117.49 42.5208 118.273 46.5803L121.219 46.0126ZM112.56 21.963C110.394 18.0365 107.95 14.4402 105.306 11.3264L103.019 13.2684C105.519 16.2118 107.852 19.6391 109.933 23.412L112.56 21.963ZM95.5119 2.73553C93.5308 1.54603 91.4861 0.633342 89.4012 0.0546416L88.5988 2.94536C90.3883 3.44204 92.185 4.23722 93.9676 5.30752L95.5119 2.73553Z" fill="#AF995C"/>
</svg>
