<svg viewBox="0 0 24 22" fill="none" xmlns="http://www.w3.org/2000/svg">
<path d="M3.22172 9.12972C2.74108 8.45498 1.80445 8.29763 1.12972 8.77828C0.454977 9.25892 0.297633 10.1955 0.778278 10.8703L3.22172 9.12972ZM9.47959 20.5L8.25787 21.3703C8.54301 21.7706 9.00616 22.0058 9.49758 21.9999C9.98901 21.994 10.4464 21.7477 10.7218 21.3407L9.47959 20.5ZM23.2422 2.84073C23.7066 2.15465 23.5268 1.22207 22.8407 0.757753C22.1547 0.293432 21.2221 0.473199 20.7578 1.15927L23.2422 2.84073ZM0.778278 10.8703L8.25787 21.3703L10.7013 19.6297L3.22172 9.12972L0.778278 10.8703ZM10.7218 21.3407L23.2422 2.84073L20.7578 1.15927L8.23734 19.6593L10.7218 21.3407Z" fill="#0C0C0C"/>
</svg>
