<svg xmlns="http://www.w3.org/2000/svg" viewBox="0 0 100 100">
   <path fill="white" fill-rule="nonzero" d="M13.28 0.5c-7.05,0 -12.78,5.73 -12.78,12.78l0 1.2c0,0.3 0.01,0.6 0.03,0.91l2.96 41.34c0.14,2.04 1.58,3.7 3.46,4.24l1.41 33.81c0.11,2.65 2.27,4.72 4.92,4.72 2.64,0 4.81,-2.07 4.92,-4.72l1.41 -33.81c1.88,-0.55 3.31,-2.2 3.46,-4.24l2.95 -41.35c0.02,-0.3 0.03,-0.6 0.03,-0.9l0 -1.2c0,-7.05 -5.73,-12.78 -12.77,-12.78zm0 95.81c-0.94,0 -1.7,-0.73 -1.73,-1.66l-1.4 -33.47 6.25 0 -1.39 33.47c-0.04,0.93 -0.8,1.66 -1.73,1.66zm5.01 -38.32l-10.02 0c-0.84,0 -1.54,-0.65 -1.6,-1.49l-0.35 -4.9 13.91 0 -0.35 4.9c-0.06,0.84 -0.76,1.49 -1.59,1.49zm4.57 -43.51c0,0.22 -0.01,0.45 -0.03,0.68l-2.37 33.25 -14.36 0 -2.38 -33.25c-0.02,-0.23 -0.02,-0.46 -0.02,-0.68l0 -1.2c0,-5.29 4.29,-9.58 9.58,-9.58 5.28,0 9.58,4.29 9.58,9.58l0 1.2z"/>
   <path fill="white" fill-rule="nonzero" d="M45.21 0.5c-7.04,0 -12.77,5.73 -12.77,12.78l0 1.2c0,0.3 0.01,0.6 0.03,0.91l2.95 41.34c0.18,2.5 2.28,4.45 4.78,4.45l0.22 0 0 13.55c-3.01,2.32 -4.79,5.9 -4.79,9.74 0,0.51 0.03,1.02 0.1,1.52l1.11 8.95c0.33,2.6 2.55,4.56 5.18,4.56l1.35 0 1.56 -9.34c0.04,-0.28 0.52,-0.28 0.57,0l1.55 9.34 1.36 0c2.62,0 4.85,-1.96 5.17,-4.56l1.12 -8.95c0.06,-0.5 0.09,-1.01 0.09,-1.52 0,-3.84 -1.77,-7.41 -4.79,-9.74l0 -13.55 0.22 0c2.5,0 4.6,-1.95 4.78,-4.45l2.96 -41.35c0.01,-0.3 0.03,-0.6 0.03,-0.9l0 -1.2c0,-7.05 -5.74,-12.78 -12.78,-12.78zm1.63 75.93l0.71 0.47c2.54,1.69 4.05,4.52 4.05,7.57 0,0.37 -0.02,0.75 -0.07,1.13l-1.12 8.94c-0.07,0.53 -0.34,1 -0.73,1.32l-1.03 -6.22c-0.29,-1.69 -1.73,-2.91 -3.44,-2.91 -1.71,0 -3.15,1.22 -3.43,2.91l-1.04 6.22c-0.39,-0.32 -0.66,-0.79 -0.73,-1.32l-1.11 -8.94c-0.05,-0.38 -0.08,-0.76 -0.08,-1.13 0,-3.05 1.52,-5.88 4.1,-7.6l0.69 -0.48 0 -15.21 3.2 0 0 14.37 0.03 0.88zm3.38 -18.44l-10.02 0c-0.83,0 -1.53,-0.65 -1.59,-1.49l-0.35 -4.9 13.9 0 -0.35 4.9c-0.05,0.84 -0.75,1.49 -1.59,1.49zm4.57 -43.51c0,0.22 -0.01,0.45 -0.02,0.68l-2.38 33.25 -14.36 0 -2.37 -33.25c-0.02,-0.23 -0.03,-0.46 -0.03,-0.68l0 -1.2c0,-5.29 4.3,-9.58 9.58,-9.58 5.29,0 9.58,4.29 9.58,9.58l0 1.2z"/>
   <path fill="white" fill-rule="nonzero" d="M94.71 0.5l-4.79 0 0 6.39 -3.19 0 0 -3.19c0,-1.76 -1.43,-3.2 -3.2,-3.2l-3.19 0c-1.76,0 -3.19,1.44 -3.19,3.2l0 3.19 -3.2 0c-1.76,0 -3.19,1.43 -3.19,3.19l0 3.2c0,1.76 1.43,3.19 3.19,3.19l3.2 0 0 6.39 -1.6 0 0 9.58 -1.6 0c-2.64,0 -4.79,2.15 -4.79,4.79l0 3.04 -1.48 7.4c-0.07,0.38 -0.11,0.77 -0.11,1.17 0,2.83 1.98,5.19 4.64,5.8l-2.98 29.78c-0.05,0.42 -0.07,0.85 -0.07,1.27l0 1.04c0,7.04 5.73,12.77 12.78,12.77 7.04,0 12.77,-5.73 12.77,-12.77l0 -1.04c0,-0.42 -0.02,-0.85 -0.06,-1.27l-2.98 -29.78c2.65,-0.61 4.64,-2.97 4.64,-5.8 0,-0.4 -0.04,-0.79 -0.12,-1.17l-1.48 -7.4 0 -3.04c0,-2.64 -2.15,-4.79 -4.79,-4.79l-1.6 0 0 -9.58 -1.59 0 0 -6.39 9.58 0c1.76,0 3.19,-1.43 3.19,-3.19l0 -7.99c0,-2.64 -2.15,-4.79 -4.79,-4.79zm-20.76 12.78l0 -3.2 3.2 0 0 3.2 -3.2 0zm17.57 73.45c0,5.28 -4.3,9.58 -9.58,9.58 -5.29,0 -9.58,-4.3 -9.58,-9.58l0 -1.04c0,-0.32 0.01,-0.64 0.05,-0.95l2.99 -29.95 13.08 0 2.99 29.95c0.03,0.31 0.05,0.63 0.05,0.95l0 1.04zm-1.16 -35.13l-16.84 0c-1.52,0 -2.76,-1.24 -2.76,-2.76 0,-0.18 0.02,-0.36 0.05,-0.54l1.26 -6.28 19.76 0 1.23 6.28c0.04,0.18 0.06,0.36 0.06,0.54 0,1.52 -1.24,2.76 -2.76,2.76zm1.16 -14.37l0 1.6 -19.18 0 0.02 -1.6c0,-0.88 0.71,-1.6 1.59,-1.6l15.97 0c0.88,0 1.6,0.72 1.6,1.6zm-12.78 -4.79l0 -6.39 6.39 0 0 6.39 -6.39 0zm1.6 -9.58l0 -19.16 3.19 0 0 19.16 -3.19 0zm6.39 -9.58l0 -3.2 3.19 0 0 3.2 -3.19 0zm9.58 0l-3.19 0 0 -9.58 1.59 0c0.88,0 1.6,0.71 1.6,1.59l0 7.99z"/>
   <path fill="#AF995C" fill-rule="nonzero" d="M13.28 6.89c-3.53,0 -6.39,2.86 -6.39,6.39 0,3.52 2.86,6.38 6.39,6.38 3.52,0 6.38,-2.86 6.38,-6.38 0,-3.53 -2.86,-6.39 -6.38,-6.39zm0 9.58c-1.76,0 -3.2,-1.43 -3.2,-3.19 0,-1.76 1.44,-3.2 3.2,-3.2 1.76,0 3.19,1.44 3.19,3.2 0,1.76 -1.43,3.19 -3.19,3.19z"/>
   <path fill="#AF995C" fill-rule="nonzero" d="M45.21 10.08c0.88,0 1.6,-0.71 1.6,-1.59 0,-0.88 -0.72,-1.6 -1.6,-1.6 -0.88,0 -1.6,0.72 -1.6,1.6 0,0.88 0.72,1.59 1.6,1.59z"/>
   <path fill="#AF995C" fill-rule="nonzero" d="M45.21 16.47c0.88,0 1.6,-0.71 1.6,-1.6 0,-0.88 -0.72,-1.59 -1.6,-1.59 -0.88,0 -1.6,0.71 -1.6,1.59 0,0.89 0.72,1.6 1.6,1.6z"/>
   <path fill="#AF995C" fill-rule="nonzero" d="M45.21 22.86c0.88,0 1.6,-0.72 1.6,-1.6 0,-0.88 -0.72,-1.6 -1.6,-1.6 -0.88,0 -1.6,0.72 -1.6,1.6 0,0.88 0.72,1.6 1.6,1.6z"/>
   <path fill="#AF995C" fill-rule="nonzero" d="M82.26 78.75c0.88,0 1.59,-0.72 1.59,-1.6 0,-0.88 -0.71,-1.6 -1.59,-1.6 -0.88,0 -1.6,0.72 -1.6,1.6 0,0.88 0.72,1.6 1.6,1.6z"/>
   <path fill="#AF995C" fill-rule="nonzero" d="M82.26 85.13c0.88,0 1.59,-0.71 1.59,-1.59 0,-0.89 -0.71,-1.6 -1.59,-1.6 -0.88,0 -1.6,0.71 -1.6,1.6 0,0.88 0.72,1.59 1.6,1.59z"/>
   <path fill="#AF995C" fill-rule="nonzero" d="M82.26 91.52c0.88,0 1.59,-0.71 1.59,-1.6 0,-0.88 -0.71,-1.59 -1.59,-1.59 -0.88,0 -1.6,0.71 -1.6,1.59 0,0.89 0.72,1.6 1.6,1.6z"/>
</svg>
