<svg viewBox="0 0 178 178" fill="none" xmlns="http://www.w3.org/2000/svg">
<path d="M89 0.111328C71.4194 0.111328 54.2337 5.32457 39.616 15.0918C24.9983 24.859 13.6052 38.7416 6.87739 54.9839C0.149598 71.2262 -1.6107 89.0988 1.8191 106.342C5.2489 123.584 13.7147 139.423 26.1461 151.854C38.5774 164.285 54.4159 172.751 71.6587 176.181C88.9014 179.611 106.774 177.851 123.016 171.123C139.259 164.395 153.141 153.002 162.908 138.384C172.676 123.767 177.889 106.581 177.889 89.0002C177.889 65.4254 168.524 42.8162 151.854 26.1463C135.184 9.47638 112.575 0.111328 89 0.111328ZM147.056 59.1669L74.0556 132.111L30.9445 89.0002C29.471 87.5268 28.6433 85.5284 28.6433 83.4446C28.6433 81.3609 29.471 79.3625 30.9445 77.8891C32.4179 76.4157 34.4163 75.5879 36.5 75.5879C38.5837 75.5879 40.5821 76.4157 42.0556 77.8891L74.1667 110L136.056 48.1669C136.785 47.4373 137.651 46.8586 138.604 46.4638C139.558 46.0689 140.579 45.8657 141.611 45.8657C142.643 45.8657 143.665 46.0689 144.618 46.4638C145.571 46.8586 146.437 47.4373 147.167 48.1669C147.896 48.8964 148.475 49.7626 148.87 50.7158C149.265 51.669 149.468 52.6907 149.468 53.7224C149.468 54.7542 149.265 55.7759 148.87 56.7291C148.475 57.6823 147.896 58.5484 147.167 59.278L147.056 59.1669Z" fill="#AF995C"/>
</svg>
