<svg xmlns="http://www.w3.org/2000/svg" viewBox="0 0 100 100">
  <path fill="white" fill-rule="nonzero" d="M96.1 80.06l-11.1 -11.09 1.81 -1.81c3.21,-3.21 3.21,-8.44 0,-11.66 -1.56,-1.56 -3.63,-2.41 -5.83,-2.41 -0.74,0 -1.45,0.09 -2.14,0.28 2.09,-6.27 2.59,-12.95 1.46,-19.54 -1.42,-8.2 -5.29,-15.66 -11.19,-21.56 -7.59,-7.59 -17.69,-11.77 -28.43,-11.77 -10.74,0 -20.83,4.18 -28.42,11.77 -15.68,15.67 -15.68,41.16 0,56.83 5.9,5.9 13.36,9.77 21.56,11.18 2.3,0.39 4.61,0.59 6.9,0.59 4.3,0 8.56,-0.69 12.65,-2.05 -0.18,0.69 -0.28,1.41 -0.28,2.14 0,2.2 0.86,4.27 2.42,5.83 1.55,1.56 3.62,2.41 5.83,2.41 2.2,0 4.27,-0.85 5.83,-2.41l1.81 -1.81 4.38 4.38c0.28,0.28 0.65,0.42 1.02,0.42 0.38,0 0.75,-0.14 1.03,-0.42 0.57,-0.57 0.57,-1.49 0,-2.05l-4.38 -4.38 11.92 -11.91 11.1 11.09c3.23,3.23 3.42,8.37 0.42,11.7 -1.57,1.73 -3.71,2.73 -6.05,2.79 -2.33,0.06 -4.53,-0.81 -6.18,-2.46l-2.78 -2.78c-0.56,-0.57 -1.48,-0.57 -2.05,0 -0.57,0.57 -0.57,1.48 0,2.05l2.78 2.78c2.14,2.14 4.98,3.31 8,3.31 0.1,0 0.21,0 0.31,0 3.14,-0.08 6.02,-1.42 8.13,-3.75 4.03,-4.48 3.79,-11.37 -0.53,-15.69zm-61.78 -2.64c-7.61,-1.31 -14.53,-4.9 -20.01,-10.38 -14.54,-14.53 -14.54,-38.18 0,-52.72 7.04,-7.04 16.41,-10.91 26.37,-10.91 9.97,0 19.33,3.87 26.38,10.91 5.48,5.48 9.07,12.39 10.38,20 1.26,7.35 0.33,14.81 -2.71,21.59l-18.82 18.81c-6.78,3.03 -14.24,3.97 -21.59,2.7zm30.8 7.32c-1.01,1.01 -2.35,1.56 -3.78,1.56 -1.43,0 -2.77,-0.55 -3.78,-1.56 -1.01,-1.01 -1.57,-2.35 -1.57,-3.78 0,-1.43 0.56,-2.77 1.57,-3.78l19.64 -19.63c1.01,-1.01 2.35,-1.56 3.78,-1.56 1.42,0 2.77,0.55 3.78,1.56 2.08,2.09 2.08,5.48 0,7.56l-19.64 19.63z"/>
   <path fill="white" fill-rule="nonzero" d="M62.64 62.61c12.01,-11.99 12.01,-31.52 0,-43.52 -12,-12 -31.54,-12 -43.54,0 -12,12 -12,31.53 0,43.52 6,6 13.89,9 21.77,9 7.89,0 15.77,-3 21.77,-9zm-41.49 -2.05c-10.87,-10.86 -10.87,-28.55 0,-39.41 5.44,-5.44 12.58,-8.16 19.72,-8.16 7.14,0 14.28,2.72 19.72,8.16 10.87,10.86 10.87,28.55 0,39.41 -10.87,10.87 -28.56,10.87 -39.44,0z"/>
   <path fill="#AF995C" fill-rule="nonzero" d="M58.2 23.55l-5.05 -2.51c-1.13,-0.56 -2.4,-0.64 -3.6,-0.24 -1.19,0.4 -2.16,1.24 -2.72,2.37l-8.81 17.78 -3.51 -5.85c-1.33,-2.23 -4.23,-2.96 -6.46,-1.63l-4.84 2.89c-2.23,1.34 -2.96,4.23 -1.63,6.46l9.6 16.05c0.85,1.42 2.39,2.29 4.04,2.29 0.06,0 0.12,0 0.18,0l6.81 -0.27c1.72,-0.07 3.27,-1.07 4.03,-2.62l7.92 -15.95c0.35,-0.72 0.06,-1.59 -0.66,-1.95 -0.72,-0.35 -1.59,-0.06 -1.94,0.66l-7.92 15.96c-0.29,0.59 -0.89,0.97 -1.55,1l-6.8 0.27c-0.67,0.02 -1.28,-0.32 -1.62,-0.88l-9.6 -16.05c-0.51,-0.85 -0.23,-1.97 0.63,-2.48l4.84 -2.89c0.85,-0.51 1.97,-0.23 2.48,0.62l4.87 8.15c0.27,0.45 0.78,0.72 1.3,0.7 0.53,-0.02 1.01,-0.33 1.24,-0.81l10.01 -20.16c0.21,-0.43 0.58,-0.76 1.04,-0.91 0.46,-0.16 0.95,-0.12 1.38,0.09l5.05 2.51c0.44,0.21 0.76,0.58 0.92,1.04 0.15,0.46 0.12,0.95 -0.1,1.38l-3.61 7.28c-0.35,0.71 -0.06,1.58 0.66,1.94 0.72,0.36 1.59,0.06 1.95,-0.65l3.6 -7.28c0.56,-1.13 0.65,-2.41 0.25,-3.6 -0.4,-1.19 -1.25,-2.15 -2.38,-2.71z"/>
</svg>
