<svg xmlns="http://www.w3.org/2000/svg" viewBox="0 0 100 100">
   <path fill="#AF995C" fill-rule="nonzero" d="M50 20.22c1.07,0 1.93,-0.87 1.93,-1.94l0 -9.85c0,-1.07 -0.86,-1.93 -1.93,-1.93 -1.07,0 -1.93,0.86 -1.93,1.93l0 9.85c0,1.07 0.86,1.94 1.93,1.94z"/>
   <path fill="#AF995C" fill-rule="nonzero" d="M35.46 23.39c0.37,0.59 1,0.9 1.64,0.9 0.35,0 0.71,-0.09 1.03,-0.29 0.9,-0.57 1.18,-1.77 0.61,-2.67l-5.16 -8.17c-0.57,-0.91 -1.76,-1.18 -2.66,-0.61 -0.91,0.57 -1.18,1.76 -0.61,2.67l5.15 8.17z"/>
   <path fill="#AF995C" fill-rule="nonzero" d="M61.88 24c0.32,0.2 0.68,0.29 1.03,0.29 0.64,0 1.27,-0.32 1.64,-0.9l5.14 -8.17c0.57,-0.91 0.3,-2.1 -0.6,-2.67 -0.91,-0.57 -2.1,-0.3 -2.67,0.61l-5.15 8.17c-0.57,0.9 -0.3,2.1 0.61,2.67z"/>
   <path fill="white" fill-rule="nonzero" d="M98.88 52.02l-3.36 -5.94c-0.53,-0.92 -1.71,-1.25 -2.64,-0.73 -0.92,0.53 -1.25,1.71 -0.73,2.64l3.36 5.93c0.17,0.3 0.13,0.59 0.09,0.73 -0.04,0.14 -0.15,0.4 -0.44,0.56l-5.17 2.87c-0.46,0.25 -1.06,0.09 -1.32,-0.35l-1.31 -2.33c-0.01,-0.01 -0.01,-0.02 -0.02,-0.03l-13.6 -24.05c-0.17,-0.3 -0.12,-0.58 -0.08,-0.73 0.04,-0.14 0.15,-0.39 0.43,-0.55l5.18 -2.87c0.47,-0.25 1.05,-0.1 1.31,0.35l3.03 5.36c0.53,0.93 1.71,1.26 2.63,0.73 0.93,-0.53 1.26,-1.71 0.74,-2.64l-3.03 -5.35c-1.3,-2.29 -4.23,-3.11 -6.55,-1.83l-5.18 2.87c-1.12,0.62 -1.93,1.64 -2.28,2.88 -0.33,1.17 -0.22,2.4 0.32,3.47l-2.85 0.83c-1.22,0.35 -1.96,0.54 -2.37,0.54 0,0 0,0 0,0 -0.28,0 -0.59,-0.11 -1.47,-0.44 -0.4,-0.15 -0.89,-0.34 -1.5,-0.55l-5.06 -1.77c-2.8,-0.98 -4.06,-0.93 -5.89,-0.76l-8.63 0.77c-3.93,0.35 -6.44,1.24 -7.82,2.78l-4.92 -1.43c0.53,-1.07 0.64,-2.28 0.32,-3.44 -0.35,-1.24 -1.16,-2.26 -2.28,-2.88l-5.18 -2.87c-2.32,-1.28 -5.26,-0.46 -6.55,1.83l-14.93 26.4c-0.64,1.12 -0.8,2.43 -0.44,3.68 0.35,1.25 1.16,2.27 2.27,2.89l5.19 2.87c0.74,0.41 1.54,0.6 2.34,0.6 1.68,0 3.32,-0.87 4.2,-2.43l0.55 -0.97c1.5,0.66 2.75,1.61 3.6,2.75 -0.83,0.97 -1.36,2.18 -1.5,3.48 -0.2,1.74 0.29,3.44 1.37,4.79 1.08,1.34 2.61,2.19 4.33,2.39 -0.18,1.72 0.31,3.4 1.39,4.74 1.11,1.39 2.68,2.2 4.32,2.39 -0.18,1.72 0.31,3.4 1.38,4.74 1.07,1.34 2.61,2.19 4.33,2.39 -0.18,1.72 0.31,3.4 1.38,4.74 1.28,1.6 3.17,2.44 5.08,2.44 1.43,0 2.86,-0.47 4.06,-1.42l4.05 -3.24c0.32,-0.26 0.62,-0.54 0.88,-0.85l2.31 1.85c1.2,0.95 2.63,1.42 4.05,1.42 1.91,0 3.81,-0.84 5.09,-2.44 0.68,-0.85 1.1,-1.81 1.3,-2.81 0.67,0.24 1.39,0.36 2.12,0.36 0.24,0 0.49,-0.02 0.73,-0.04 1.73,-0.2 3.28,-1.05 4.36,-2.4 1.08,-1.34 1.57,-3.02 1.39,-4.74 1.64,-0.19 3.21,-1 4.32,-2.39 1.11,-1.39 1.56,-3.1 1.38,-4.74 1.72,-0.2 3.26,-1.05 4.33,-2.39 1.08,-1.35 1.57,-3.04 1.38,-4.77 -0.15,-1.32 -0.67,-2.53 -1.51,-3.51 0.85,-1.13 2.1,-2.08 3.6,-2.74l0.55 0.97c0.88,1.56 2.52,2.43 4.21,2.43 0.79,0 1.6,-0.19 2.34,-0.6l5.18 -2.87c1.12,-0.62 1.93,-1.64 2.28,-2.88 0.35,-1.25 0.2,-2.56 -0.44,-3.69zm-87.55 5.71c-0.25,0.44 -0.85,0.6 -1.31,0.35l-5.18 -2.87c-0.28,-0.16 -0.39,-0.42 -0.43,-0.56 -0.04,-0.14 -0.09,-0.43 0.09,-0.73l14.93 -26.4c0.17,-0.3 0.49,-0.47 0.82,-0.47 0.17,0 0.33,0.04 0.48,0.12l5.18 2.87c0,0 0,0 0,0 0.29,0.16 0.4,0.41 0.43,0.55 0.05,0.15 0.09,0.43 -0.08,0.73l-14.93 26.41zm14.11 9.95c-0.55,0.43 -1.23,0.63 -1.94,0.55 -0.7,-0.08 -1.33,-0.42 -1.77,-0.96 -0.43,-0.55 -0.63,-1.24 -0.55,-1.94 0.08,-0.7 0.42,-1.33 0.97,-1.76l7.24 -5.79c1.13,-0.91 2.8,-0.72 3.71,0.41 0.43,0.55 0.63,1.24 0.55,1.94 -0.08,0.7 -0.42,1.32 -0.97,1.75 -0.01,0.01 -0.02,0.02 -0.03,0.03l-7.21 5.76c0,0.01 0,0.01 0,0.01zm2 6.71c-0.43,-0.54 -0.63,-1.23 -0.55,-1.93 0.08,-0.7 0.42,-1.33 0.96,-1.76l0.01 0c0,0 0,-0.01 0,-0.01 0,0 0,0 0,0l10.42 -8.33c1.14,-0.9 2.8,-0.72 3.71,0.42 0.44,0.54 0.63,1.23 0.56,1.93 -0.08,0.7 -0.43,1.33 -0.97,1.77l-10.43 8.32c-1.14,0.91 -2.8,0.73 -3.71,-0.41zm7.48 8.1c-0.71,-0.08 -1.33,-0.42 -1.77,-0.97 -0.43,-0.54 -0.63,-1.23 -0.55,-1.93 0.07,-0.7 0.42,-1.33 0.96,-1.76 0,-0.01 0,-0.01 0.01,-0.01l7.21 -5.76c0.01,-0.01 0.02,-0.01 0.03,-0.02 1.13,-0.91 2.79,-0.72 3.7,0.41 0.44,0.55 0.64,1.24 0.56,1.94 -0.08,0.7 -0.43,1.32 -0.97,1.76l-7.24 5.79c-0.55,0.43 -1.24,0.63 -1.94,0.55zm12.67 1.57c-0.08,0.7 -0.42,1.33 -0.97,1.77l-4.05 3.24c-1.14,0.9 -2.8,0.72 -3.71,-0.42 -0.44,-0.54 -0.63,-1.23 -0.56,-1.93 0.08,-0.7 0.43,-1.32 0.97,-1.76 0,0 0,0 0,0l4.05 -3.24c0,0 0,0 0.01,0 1.13,-0.91 2.8,-0.72 3.7,0.41 0.44,0.55 0.63,1.23 0.56,1.93zm30.68 -16.79c-0.44,0.54 -1.06,0.88 -1.77,0.96 -0.7,0.08 -1.39,-0.12 -1.94,-0.55 0,0 0,0 0,0 0,0 0,0 0,0l-5.17 -4.14c-0.84,-0.67 -2.05,-0.53 -2.72,0.3 -0.67,0.84 -0.53,2.06 0.3,2.72l5.18 4.13c1.13,0.91 1.32,2.57 0.42,3.7 -0.92,1.14 -2.58,1.32 -3.71,0.41l-5.62 -4.48c-0.83,-0.66 -2.05,-0.53 -2.71,0.31 -0.67,0.83 -0.53,2.05 0.3,2.72l5.61 4.47c0.55,0.44 0.89,1.07 0.97,1.77 0.08,0.7 -0.12,1.39 -0.56,1.94 -0.43,0.54 -1.06,0.88 -1.76,0.96 -0.71,0.08 -1.4,-0.12 -1.94,-0.55l-2.8 -2.24c0,0 -0.01,0 -0.01,-0.01l-2.36 -1.88 -0.44 -0.36c-0.83,-0.66 -2.05,-0.53 -2.72,0.31 -0.08,0.1 -0.15,0.21 -0.21,0.33 -0.28,0.54 -0.28,1.18 -0.01,1.72 0.12,0.25 0.29,0.48 0.52,0.66l2.81 2.25c1.13,0.91 1.31,2.56 0.41,3.69 -0.91,1.14 -2.57,1.32 -3.71,0.42l-3.18 -2.55c0.13,-1.65 -0.36,-3.27 -1.4,-4.56 -0.64,-0.81 -1.44,-1.42 -2.32,-1.83 0.64,-0.89 1.05,-1.94 1.18,-3.07 0.19,-1.73 -0.29,-3.43 -1.38,-4.79 -0.64,-0.8 -1.44,-1.41 -2.32,-1.82 0.65,-0.89 1.05,-1.94 1.18,-3.07 0.19,-1.73 -0.3,-3.43 -1.38,-4.78 -1.86,-2.32 -5.01,-3.03 -7.62,-1.92 -0.21,-0.96 -0.64,-1.87 -1.27,-2.66 -2.24,-2.8 -6.34,-3.26 -9.14,-1.02l-5.18 4.14c-1.17,-1.5 -2.77,-2.74 -4.65,-3.62l10.65 -18.84 5.67 1.65c0.03,0.3 0.08,0.62 0.16,0.96 1.37,5.64 6.57,8.27 13.56,6.86 5.89,-1.18 8.32,0.58 13.15,4.1 0.5,0.36 1.02,0.74 1.57,1.13 3.47,2.5 7.18,5.43 9.67,7.41l6.28 5.02c0.55,0.43 0.89,1.06 0.97,1.76 0.07,0.7 -0.12,1.39 -0.56,1.94zm-0.06 -8.37l-4.21 -3.37c-2.53,-2.01 -6.29,-4.98 -9.84,-7.53 -0.54,-0.38 -1.05,-0.76 -1.54,-1.12 -5.01,-3.64 -8.63,-6.28 -16.19,-4.76 -2.31,0.47 -7.83,1.01 -9.04,-3.99 -0.17,-0.7 0,-0.95 0.08,-1.05 0.25,-0.36 1.3,-1.24 5.37,-1.6l8.63 -0.77c1.41,-0.13 2.11,-0.19 4.26,0.56l5.06 1.77c0.56,0.19 1.01,0.36 1.41,0.51 2.44,0.93 3.08,0.93 6.28,0l3.73 -1.08 10.64 18.81c-1.88,0.88 -3.47,2.12 -4.64,3.62z"/>
  <path fill="#AF995C" fill-rule="nonzero" d="M85.3 45.19c1.07,0 1.93,-0.87 1.93,-1.94 0,-1.07 -0.86,-1.93 -1.93,-1.93 -1.07,0 -1.93,0.86 -1.93,1.93l0 0.01c0,1.07 0.86,1.93 1.93,1.93z"/>
</svg>
