<svg xmlns="http://www.w3.org/2000/svg" viewBox="0 0 100 100">
  <path fill="#AF995C" fill-rule="nonzero" d="M85.3 45.19c1.07,0 1.93,-0.87 1.93,-1.94 0,-1.07 -0.86,-1.93 -1.93,-1.93 -1.07,0 -1.93,0.86 -1.93,1.93l0 0.01c0,1.07 0.86,1.93 1.93,1.93z"/>
   <path fill="white" fill-rule="nonzero" d="M80.97 22.23l0.25 0.67c0.22,0.58 0.77,0.94 1.36,0.94 0.17,0 0.34,-0.03 0.51,-0.09 0.75,-0.28 1.13,-1.12 0.85,-1.87l-0.25 -0.66c-0.34,-0.9 -1.04,-1.61 -1.93,-1.95 -0.75,-0.28 -1.59,0.1 -1.87,0.84 -0.29,0.75 0.09,1.59 0.84,1.88 0.11,0.04 0.2,0.13 0.24,0.24z"/>
   <path fill="white" fill-rule="nonzero" d="M80.37 29.45c0.38,0 0.77,-0.15 1.05,-0.45 0.5,-0.52 1.03,-1.02 1.56,-1.48 0.61,-0.52 0.68,-1.43 0.16,-2.04 -0.52,-0.61 -1.44,-0.68 -2.04,-0.16 -0.61,0.52 -1.21,1.08 -1.78,1.68 -0.55,0.58 -0.53,1.5 0.05,2.05 0.28,0.27 0.64,0.4 1,0.4z"/>
   <path fill="white" fill-rule="nonzero" d="M56.23 83.83c-0.7,0.38 -1.4,0.8 -2.07,1.24 -0.67,0.43 -0.86,1.33 -0.43,2 0.28,0.43 0.75,0.66 1.22,0.66 0.27,0 0.55,-0.07 0.79,-0.23 0.61,-0.4 1.24,-0.78 1.88,-1.13 0.7,-0.38 0.96,-1.26 0.58,-1.96 -0.39,-0.71 -1.27,-0.97 -1.97,-0.58z"/>
   <path fill="white" fill-rule="nonzero" d="M77.17 70.63c-0.37,-0.71 -1.24,-0.99 -1.95,-0.63 -0.72,0.37 -1,1.24 -0.63,1.96 0.37,0.72 0.76,1.43 1.18,2.1 0.27,0.45 0.75,0.69 1.23,0.69 0.26,0 0.52,-0.07 0.76,-0.21 0.68,-0.42 0.9,-1.31 0.48,-1.99 -0.37,-0.62 -0.73,-1.26 -1.07,-1.92z"/>
   <path fill="white" fill-rule="nonzero" d="M44.25 84.09c-0.7,-0.4 -1.58,-0.15 -1.98,0.54 -0.4,0.7 -0.16,1.59 0.54,1.98 0.63,0.36 1.26,0.75 1.86,1.16 0.25,0.17 0.53,0.25 0.81,0.25 0.47,0 0.92,-0.23 1.2,-0.64 0.45,-0.67 0.28,-1.57 -0.39,-2.02 -0.66,-0.44 -1.35,-0.87 -2.04,-1.27z"/>
   <path fill="white" fill-rule="nonzero" d="M54.34 6.3l-2.3 0c-0.8,0 -1.45,0.65 -1.45,1.45 0,0.8 0.65,1.45 1.45,1.45l2.3 0c0.81,0 1.45,-0.65 1.45,-1.45 0,-0.8 -0.64,-1.45 -1.45,-1.45z"/>
   <path fill="white" fill-rule="nonzero" d="M50.34 88l-0.06 0.05c-0.1,0.09 -0.2,0.11 -0.28,0.11 -0.07,0 -0.14,-0.02 -0.2,-0.05 -0.7,-0.38 -1.58,-0.12 -1.96,0.58 -0.38,0.71 -0.12,1.59 0.58,1.97 0.49,0.26 1.03,0.4 1.58,0.4 0.83,0 1.62,-0.31 2.23,-0.86l0.04 -0.04c0.6,-0.53 0.65,-1.45 0.11,-2.05 -0.53,-0.59 -1.45,-0.64 -2.04,-0.11z"/>
   <path fill="white" fill-rule="nonzero" d="M45.14 9.23c0.08,0 0.16,-0.01 0.23,-0.02 0.03,0 0.05,-0.01 0.07,-0.01 0,0 0,0 0,0l2 0c0.8,0 1.45,-0.65 1.45,-1.45 0,-0.8 -0.65,-1.45 -1.45,-1.45l-2 0c-0.18,0 -0.35,0.02 -0.53,0.04 -0.79,0.13 -1.32,0.88 -1.2,1.67 0.12,0.71 0.73,1.22 1.43,1.22z"/>
   <path fill="white" fill-rule="nonzero" d="M57.24 13.69c0.29,0.39 0.73,0.6 1.18,0.6 0.3,0 0.59,-0.09 0.85,-0.28 0.65,-0.47 0.79,-1.37 0.32,-2.02 -0.4,-0.57 -0.78,-1.17 -1.11,-1.79 -0.38,-0.7 -1.26,-0.97 -1.97,-0.59 -0.7,0.38 -0.97,1.26 -0.59,1.97 0.39,0.73 0.84,1.44 1.32,2.11z"/>
   <path fill="white" fill-rule="nonzero" d="M43.28 10.08c-0.7,-0.4 -1.58,-0.16 -1.98,0.54 -0.35,0.6 -0.75,1.19 -1.17,1.75 -0.49,0.63 -0.37,1.54 0.26,2.03 0.27,0.2 0.58,0.3 0.89,0.3 0.43,0 0.86,-0.19 1.14,-0.56 0.51,-0.66 0.98,-1.36 1.39,-2.08 0.4,-0.69 0.16,-1.58 -0.53,-1.98z"/>
   <path fill="white" fill-rule="nonzero" d="M74.28 22.16c0.66,0.04 1.34,0.06 2.03,0.06 0.12,0 0.25,0 0.37,0 0.8,-0.01 1.45,-0.67 1.44,-1.47 -0.01,-0.8 -0.67,-1.45 -1.47,-1.43 -0.74,0 -1.48,-0.01 -2.2,-0.06 -0.8,-0.04 -1.48,0.57 -1.53,1.37 -0.05,0.8 0.56,1.48 1.36,1.53z"/>
   <path fill="white" fill-rule="nonzero" d="M71.09 44.1c-0.15,0.77 -0.28,1.56 -0.39,2.35 -0.11,0.79 0.44,1.52 1.24,1.63 0.07,0.01 0.13,0.02 0.2,0.02 0.71,0 1.33,-0.53 1.43,-1.25 0.11,-0.74 0.23,-1.48 0.37,-2.2 0.15,-0.78 -0.37,-1.54 -1.15,-1.7 -0.79,-0.15 -1.55,0.37 -1.7,1.15z"/>
   <path fill="white" fill-rule="nonzero" d="M74.53 83.12c0.72,0.09 1.45,0.21 2.16,0.35 0.1,0.02 0.19,0.03 0.29,0.03 0.67,0 1.28,-0.48 1.42,-1.17 0.16,-0.78 -0.35,-1.55 -1.14,-1.7 -0.78,-0.16 -1.58,-0.29 -2.38,-0.39 -0.79,-0.09 -1.52,0.47 -1.61,1.27 -0.1,0.79 0.47,1.51 1.26,1.61z"/>
   <path fill="white" fill-rule="nonzero" d="M82.05 81.62c-0.08,0.15 -0.25,0.24 -0.42,0.22 -0.79,-0.13 -1.53,0.41 -1.65,1.2 -0.13,0.79 0.41,1.54 1.2,1.66 0.17,0.03 0.34,0.04 0.51,0.04 1.23,0 2.35,-0.67 2.93,-1.76 0.37,-0.71 0.1,-1.58 -0.61,-1.96 -0.7,-0.38 -1.58,-0.11 -1.96,0.6z"/>
   <path fill="white" fill-rule="nonzero" d="M80.81 76.05c-0.53,-0.6 -1.45,-0.66 -2.05,-0.13 -0.6,0.53 -0.66,1.44 -0.13,2.05 0.54,0.62 1.11,1.21 1.7,1.75 0.28,0.26 0.63,0.39 0.99,0.39 0.38,0 0.77,-0.15 1.06,-0.46 0.54,-0.58 0.51,-1.5 -0.07,-2.05 -0.52,-0.48 -1.02,-1 -1.5,-1.55z"/>
   <path fill="white" fill-rule="nonzero" d="M73.2 41.3c0.15,0.05 0.3,0.07 0.44,0.07 0.62,0 1.19,-0.39 1.38,-1.01 0.23,-0.71 0.47,-1.41 0.73,-2.09 0.29,-0.75 -0.08,-1.59 -0.83,-1.87 -0.75,-0.29 -1.59,0.08 -1.87,0.83 -0.29,0.73 -0.55,1.49 -0.79,2.25 -0.24,0.77 0.18,1.58 0.94,1.82z"/>
   <path fill="white" fill-rule="nonzero" d="M72.7 67.56c0.21,0.59 0.77,0.96 1.36,0.96 0.16,0 0.33,-0.02 0.49,-0.08 0.75,-0.27 1.15,-1.1 0.88,-1.85 -0.24,-0.69 -0.47,-1.4 -0.68,-2.11 -0.22,-0.77 -1.02,-1.21 -1.79,-0.99 -0.77,0.22 -1.22,1.02 -0.99,1.79 0.22,0.77 0.46,1.54 0.73,2.28z"/>
   <path fill="white" fill-rule="nonzero" d="M72.58 61.83c0.79,-0.14 1.32,-0.89 1.19,-1.68 -0.12,-0.72 -0.23,-1.46 -0.31,-2.2 -0.1,-0.79 -0.82,-1.36 -1.61,-1.27 -0.8,0.09 -1.37,0.81 -1.28,1.61 0.1,0.79 0.21,1.58 0.34,2.35 0.12,0.71 0.73,1.21 1.43,1.21 0.08,0 0.16,-0.01 0.24,-0.02z"/>
   <path fill="white" fill-rule="nonzero" d="M70.14 18.66c-0.71,-0.16 -1.4,-0.36 -2.07,-0.59 -0.76,-0.25 -1.58,0.15 -1.84,0.91 -0.26,0.76 0.15,1.58 0.91,1.84 0.76,0.26 1.55,0.48 2.35,0.67 0.11,0.02 0.22,0.03 0.33,0.03 0.66,0 1.26,-0.45 1.41,-1.12 0.18,-0.78 -0.31,-1.56 -1.09,-1.74z"/>
   <path fill="white" fill-rule="nonzero" d="M71.79 49.78c-0.8,-0.03 -1.47,0.6 -1.5,1.4 -0.02,0.56 -0.03,1.12 -0.03,1.68 0,0.23 0,0.46 0.01,0.69 0.01,0.8 0.66,1.43 1.45,1.43 0,0 0.01,0 0.02,0 0.8,-0.01 1.44,-0.67 1.43,-1.47 0,-0.22 -0.01,-0.43 -0.01,-0.65 0,-0.52 0.01,-1.05 0.03,-1.58 0.03,-0.8 -0.6,-1.47 -1.4,-1.5z"/>
   <path fill="white" fill-rule="nonzero" d="M67.82 83.1c0.05,0 0.11,0 0.16,-0.01 0.72,-0.08 1.46,-0.14 2.18,-0.16 0.8,-0.03 1.43,-0.7 1.4,-1.5 -0.02,-0.8 -0.69,-1.43 -1.5,-1.4 -0.8,0.03 -1.61,0.09 -2.4,0.18 -0.8,0.09 -1.37,0.8 -1.28,1.6 0.08,0.74 0.71,1.29 1.44,1.29z"/>
   <path fill="white" fill-rule="nonzero" d="M77.6 34.28c0.36,-0.65 0.74,-1.28 1.13,-1.87 0.44,-0.67 0.26,-1.57 -0.41,-2.01 -0.67,-0.44 -1.57,-0.26 -2.01,0.41 -0.43,0.66 -0.85,1.36 -1.24,2.07 -0.39,0.7 -0.14,1.58 0.56,1.97 0.23,0.12 0.47,0.18 0.7,0.18 0.51,0 1.01,-0.27 1.27,-0.75z"/>
   <path fill="white" fill-rule="nonzero" d="M27.15 37.73c-0.28,-0.75 -1.11,-1.14 -1.86,-0.86 -0.76,0.28 -1.14,1.11 -0.86,1.86 0.25,0.69 0.48,1.39 0.7,2.1 0.19,0.63 0.76,1.03 1.38,1.03 0.14,0 0.28,-0.02 0.42,-0.06 0.77,-0.23 1.21,-1.04 0.97,-1.8 -0.23,-0.77 -0.48,-1.53 -0.75,-2.27z"/>
   <path fill="white" fill-rule="nonzero" d="M27.33 43.46c-0.79,0.14 -1.31,0.9 -1.17,1.68 0.13,0.73 0.24,1.47 0.34,2.2 0.09,0.73 0.71,1.27 1.43,1.27 0.06,0 0.12,0 0.19,-0.01 0.79,-0.1 1.35,-0.83 1.25,-1.62 -0.1,-0.79 -0.22,-1.58 -0.36,-2.35 -0.14,-0.79 -0.9,-1.31 -1.68,-1.17z"/>
   <path fill="white" fill-rule="nonzero" d="M32.34 20.99c0.77,-0.24 1.19,-1.05 0.95,-1.82 -0.24,-0.76 -1.05,-1.19 -1.82,-0.95 -0.67,0.21 -1.37,0.4 -2.09,0.54 -0.78,0.17 -1.28,0.94 -1.12,1.72 0.14,0.68 0.75,1.16 1.42,1.16 0.1,0 0.2,-0.02 0.3,-0.04 0.81,-0.17 1.6,-0.37 2.36,-0.61z"/>
   <path fill="white" fill-rule="nonzero" d="M28.24 55.5c0.01,0 0.02,0 0.04,0 0.78,0 1.42,-0.63 1.45,-1.42 0.01,-0.4 0.01,-0.81 0.01,-1.22 0,-0.38 0,-0.77 -0.01,-1.15 -0.02,-0.8 -0.68,-1.43 -1.49,-1.41 -0.8,0.02 -1.43,0.68 -1.41,1.48 0.01,0.36 0.01,0.72 0.01,1.08 0,0.38 -0.01,0.77 -0.01,1.15 -0.02,0.8 0.61,1.47 1.41,1.49z"/>
   <path fill="white" fill-rule="nonzero" d="M17.39 27.84c0.52,0.47 1.03,0.98 1.52,1.52 0.29,0.31 0.68,0.47 1.08,0.47 0.35,0 0.69,-0.12 0.97,-0.38 0.6,-0.54 0.64,-1.45 0.1,-2.04 -0.56,-0.62 -1.14,-1.2 -1.74,-1.73 -0.59,-0.53 -1.51,-0.48 -2.04,0.11 -0.54,0.6 -0.49,1.51 0.11,2.05z"/>
   <path fill="white" fill-rule="nonzero" d="M18.6 23.38l0.43 -1.15c0.04,-0.1 0.1,-0.16 0.15,-0.19 0.64,-0.48 0.77,-1.39 0.29,-2.03 -0.48,-0.64 -1.39,-0.77 -2.03,-0.29 -0.51,0.38 -0.9,0.9 -1.12,1.5l-0.43 1.15c-0.28,0.75 0.1,1.58 0.85,1.86 0.17,0.07 0.34,0.09 0.5,0.09 0.59,0 1.15,-0.36 1.36,-0.94z"/>
   <path fill="white" fill-rule="nonzero" d="M25.06 19.29c-0.72,0.03 -1.47,0.04 -2.2,0.02 -0.8,-0.02 -1.47,0.61 -1.49,1.41 -0.02,0.8 0.61,1.47 1.41,1.49 0.31,0 0.61,0.01 0.92,0.01 0.5,0 0.99,-0.01 1.48,-0.03 0.8,-0.04 1.42,-0.71 1.39,-1.51 -0.04,-0.8 -0.71,-1.43 -1.51,-1.39z"/>
   <path fill="white" fill-rule="nonzero" d="M23.53 83.4c0.09,0 0.18,-0.01 0.27,-0.03 0.71,-0.13 1.44,-0.23 2.16,-0.3 0.8,-0.09 1.38,-0.8 1.29,-1.6 -0.08,-0.79 -0.79,-1.37 -1.59,-1.29 -0.8,0.08 -1.6,0.2 -2.39,0.34 -0.78,0.15 -1.31,0.9 -1.16,1.69 0.13,0.7 0.74,1.19 1.42,1.19z"/>
   <path fill="white" fill-rule="nonzero" d="M29 61.17c0.14,-0.78 0.26,-1.57 0.36,-2.35 0.11,-0.8 -0.45,-1.52 -1.25,-1.63 -0.8,-0.1 -1.52,0.46 -1.62,1.26 -0.1,0.73 -0.21,1.47 -0.34,2.2 -0.15,0.78 0.38,1.54 1.16,1.68 0.09,0.02 0.18,0.03 0.27,0.03 0.68,0 1.29,-0.49 1.42,-1.19z"/>
   <path fill="white" fill-rule="nonzero" d="M22.63 34.71c0.26,0.49 0.77,0.77 1.29,0.77 0.23,0 0.46,-0.05 0.68,-0.17 0.7,-0.37 0.97,-1.25 0.6,-1.96 -0.38,-0.71 -0.79,-1.42 -1.21,-2.08 -0.43,-0.68 -1.33,-0.88 -2,-0.45 -0.68,0.43 -0.88,1.32 -0.45,2 0.38,0.6 0.75,1.24 1.09,1.89z"/>
   <path fill="white" fill-rule="nonzero" d="M26.92 63.99c-0.77,-0.23 -1.58,0.2 -1.81,0.97 -0.21,0.71 -0.45,1.41 -0.7,2.09 -0.28,0.75 0.1,1.59 0.85,1.87 0.17,0.06 0.34,0.09 0.51,0.09 0.58,0 1.14,-0.36 1.36,-0.95 0.27,-0.73 0.52,-1.5 0.76,-2.26 0.23,-0.77 -0.2,-1.58 -0.97,-1.81z"/>
   <path fill="white" fill-rule="nonzero" d="M64.22 16.27c-0.56,-0.35 -1.1,-0.73 -1.61,-1.14l-0.12 -0.09c-0.62,-0.51 -1.53,-0.41 -2.04,0.21 -0.5,0.62 -0.41,1.54 0.22,2.04 0.04,0.04 0.09,0.08 0.14,0.12 0.59,0.47 1.23,0.91 1.88,1.32 0.23,0.15 0.5,0.22 0.76,0.22 0.48,0 0.96,-0.25 1.23,-0.69 0.43,-0.68 0.22,-1.57 -0.46,-1.99z"/>
   <path fill="white" fill-rule="nonzero" d="M61.11 84.66c0.17,0 0.33,-0.02 0.5,-0.08 0.68,-0.25 1.38,-0.47 2.08,-0.66 0.77,-0.22 1.23,-1.01 1.01,-1.79 -0.21,-0.77 -1.01,-1.22 -1.78,-1.01 -0.77,0.21 -1.54,0.46 -2.3,0.73 -0.75,0.27 -1.14,1.1 -0.87,1.86 0.21,0.59 0.77,0.95 1.36,0.95z"/>
   <path fill="white" fill-rule="nonzero" d="M37.14 15.33c-0.56,0.43 -1.15,0.82 -1.76,1.18 -0.69,0.41 -0.92,1.29 -0.52,1.99 0.27,0.46 0.75,0.71 1.25,0.71 0.25,0 0.5,-0.06 0.73,-0.2 0.72,-0.41 1.41,-0.88 2.06,-1.37 0.64,-0.49 0.76,-1.4 0.27,-2.04 -0.48,-0.63 -1.39,-0.76 -2.03,-0.27z"/>
   <path fill="white" fill-rule="nonzero" d="M39.37 84.84c0.59,0 1.14,-0.35 1.36,-0.93 0.28,-0.75 -0.09,-1.59 -0.84,-1.87 -0.75,-0.29 -1.52,-0.55 -2.29,-0.77 -0.77,-0.23 -1.57,0.21 -1.8,0.98 -0.22,0.77 0.21,1.57 0.98,1.8 0.7,0.21 1.4,0.44 2.08,0.7 0.17,0.06 0.34,0.09 0.51,0.09z"/>
   <path fill="white" fill-rule="nonzero" d="M20.92 76.32c-0.59,-0.54 -1.51,-0.5 -2.05,0.09 -0.49,0.54 -1,1.05 -1.53,1.52 -0.6,0.53 -0.65,1.45 -0.12,2.04 0.29,0.33 0.69,0.49 1.09,0.49 0.34,0 0.68,-0.12 0.96,-0.37 0.6,-0.53 1.18,-1.11 1.74,-1.72 0.54,-0.59 0.5,-1.5 -0.09,-2.05z"/>
   <path fill="white" fill-rule="nonzero" d="M21.95 74.96c0.24,0.16 0.51,0.23 0.78,0.23 0.48,0 0.95,-0.24 1.22,-0.67 0.43,-0.67 0.83,-1.37 1.22,-2.08 0.37,-0.71 0.11,-1.59 -0.6,-1.97 -0.71,-0.37 -1.59,-0.11 -1.96,0.6 -0.35,0.65 -0.72,1.29 -1.11,1.89 -0.43,0.68 -0.23,1.57 0.45,2z"/>
   <path fill="white" fill-rule="nonzero" d="M18.61 81.76l-0.17 0.06c-0.15,0.05 -0.31,0.01 -0.42,-0.11 -0.56,-0.58 -1.48,-0.59 -2.05,-0.04 -0.58,0.56 -0.6,1.48 -0.04,2.05 0.62,0.65 1.49,1.02 2.38,1.02 0.38,0 0.75,-0.06 1.11,-0.19l0.15 -0.06c0.76,-0.26 1.16,-1.09 0.89,-1.85 -0.27,-0.75 -1.09,-1.15 -1.85,-0.88z"/>
   <path fill="white" fill-rule="nonzero" d="M30.33 82.95c0.72,0.04 1.46,0.1 2.18,0.2 0.06,0.01 0.12,0.01 0.19,0.01 0.71,0 1.34,-0.53 1.43,-1.26 0.11,-0.8 -0.45,-1.52 -1.25,-1.63 -0.79,-0.1 -1.6,-0.18 -2.4,-0.22 -0.8,-0.04 -1.48,0.58 -1.52,1.38 -0.04,0.8 0.57,1.48 1.37,1.52z"/>
   <path fill="white" fill-rule="nonzero" d="M34.04 86.34c-1.69,-0.35 -3.42,-0.53 -5.14,-0.53 -4.89,0 -9.63,1.4 -13.72,4.05 -0.2,0.13 -0.4,0.09 -0.5,0.06 -0.09,-0.04 -0.26,-0.13 -0.33,-0.36l-3.3 -10.54c-0.08,-0.27 0.06,-0.56 0.34,-0.67 6.42,-2.7 11.26,-11.02 12.33,-21.18 0.08,-0.8 -0.5,-1.51 -1.3,-1.6 -0.79,-0.08 -1.51,0.5 -1.59,1.29 -0.96,9.13 -5.11,16.52 -10.57,18.81 -1.66,0.7 -2.51,2.51 -1.98,4.21l3.3 10.55c0.32,1.04 1.09,1.85 2.12,2.22 0.38,0.13 0.78,0.2 1.18,0.2 0.66,0 1.31,-0.19 1.88,-0.56 3.61,-2.34 7.81,-3.58 12.14,-3.58 1.52,0 3.05,0.16 4.55,0.47 0.78,0.16 1.55,-0.34 1.71,-1.12 0.17,-0.79 -0.34,-1.56 -1.12,-1.72z"/>
   <path fill="white" fill-rule="nonzero" d="M10.31 30.07c5.76,2.46 10.04,10.64 10.65,20.36 0.05,0.77 0.69,1.36 1.45,1.36 0.03,0 0.06,0 0.09,0 0.8,-0.05 1.4,-0.74 1.35,-1.54 -0.33,-5.29 -1.66,-10.24 -3.85,-14.32 -2.23,-4.14 -5.19,-7.09 -8.55,-8.53 -0.26,-0.11 -0.38,-0.42 -0.28,-0.69l4.11 -11.02c0.1,-0.27 0.39,-0.41 0.67,-0.34 2.46,0.71 5.06,1.07 7.75,1.07 9.51,0 15.8,-4.68 16.82,-12.51 0.03,-0.29 0.26,-0.51 0.54,-0.51l17.88 0c0.28,0 0.51,0.22 0.55,0.51 1.02,7.83 7.31,12.51 16.82,12.51 2.68,0 5.29,-0.36 7.75,-1.07 0.27,-0.07 0.56,0.07 0.66,0.34l4.11 11.02c0.11,0.27 -0.02,0.58 -0.27,0.69 -2.35,1 -4.49,2.74 -6.37,5.15 -0.49,0.63 -0.37,1.55 0.26,2.04 0.63,0.49 1.54,0.37 2.03,-0.26 1.57,-2.02 3.32,-3.45 5.21,-4.26 1.69,-0.72 2.51,-2.64 1.86,-4.38l-4.11 -11.01c-0.63,-1.68 -2.46,-2.61 -4.18,-2.11 -2.2,0.63 -4.54,0.95 -6.95,0.95 -8.04,0 -13.12,-3.64 -13.95,-9.99 -0.22,-1.72 -1.69,-3.03 -3.42,-3.03l-17.88 0c-1.72,0 -3.19,1.31 -3.42,3.03 -0.83,6.35 -5.91,9.99 -13.94,9.99 -2.42,0 -4.75,-0.32 -6.95,-0.95 -1.72,-0.5 -3.56,0.43 -4.18,2.11l-4.12 11.02c-0.65,1.73 0.17,3.65 1.86,4.37z"/>
   <path fill="white" fill-rule="nonzero" d="M89.74 75.67c-2.96,-1.24 -5.66,-4.12 -7.61,-8.09 -2.07,-4.22 -3.17,-9.31 -3.17,-14.72 0,-4.66 0.84,-9.18 2.43,-13.06 0.3,-0.74 -0.06,-1.59 -0.8,-1.89 -0.74,-0.3 -1.58,0.05 -1.89,0.79 -1.72,4.23 -2.64,9.12 -2.64,14.16 0,5.85 1.2,11.38 3.47,16 2.25,4.6 5.48,7.97 9.09,9.49 0.27,0.11 0.41,0.4 0.33,0.67l-3.29 10.54c-0.07,0.23 -0.24,0.32 -0.34,0.36 -0.1,0.03 -0.29,0.07 -0.5,-0.06 -4.08,-2.65 -8.82,-4.05 -13.71,-4.05 -8.06,0 -15.7,3.9 -20.44,10.44 -0.16,0.22 -0.41,0.35 -0.67,0.35 -0.26,0 -0.51,-0.13 -0.67,-0.35 -2.26,-3.11 -5.24,-5.71 -8.64,-7.51 -0.7,-0.38 -1.58,-0.11 -1.96,0.6 -0.37,0.71 -0.1,1.59 0.6,1.96 3.01,1.6 5.65,3.9 7.66,6.65 0.7,0.97 1.83,1.55 3.01,1.55 1.19,0 2.31,-0.58 3.02,-1.55 4.2,-5.78 10.96,-9.24 18.09,-9.24 4.33,0 8.52,1.24 12.13,3.58 0.92,0.6 2.04,0.72 3.07,0.36 1.02,-0.37 1.79,-1.18 2.12,-2.22l3.29 -10.55c0.53,-1.7 -0.32,-3.51 -1.98,-4.21z"/>
   <path fill="#AF995C" fill-rule="nonzero" d="M50 45.71c5.64,0 10.23,-4.59 10.23,-10.23 0,-1.63 -0.39,-3.17 -1.07,-4.54l1.36 -1.36c0.56,-0.56 0.56,-1.48 0,-2.05 -0.57,-0.56 -1.49,-0.56 -2.05,0l-0.99 0.99c-1.87,-2.01 -4.53,-3.26 -7.48,-3.26 -5.64,0 -10.22,4.58 -10.22,10.22 0,5.64 4.58,10.23 10.22,10.23zm0 -17.55c2.15,0 4.09,0.93 5.43,2.41l-5.63 5.63 -1.62 -1.62c-0.56,-0.57 -1.48,-0.57 -2.05,0 -0.56,0.57 -0.56,1.48 0,2.05l2.65 2.64c0.27,0.27 0.64,0.43 1.02,0.43 0.39,0 0.76,-0.16 1.03,-0.43l6.11 -6.12c0.25,0.74 0.39,1.52 0.39,2.33 0,4.04 -3.29,7.32 -7.33,7.32 -4.04,0 -7.32,-3.28 -7.32,-7.32 0,-4.04 3.28,-7.32 7.32,-7.32z"/>
   <path fill="white" fill-rule="nonzero" d="M47.21 54.55c-0.8,0 -1.45,0.65 -1.45,1.45 0,0.8 0.65,1.45 1.45,1.45l5.58 0c0.8,0 1.45,-0.65 1.45,-1.45 0,-0.8 -0.65,-1.45 -1.45,-1.45l-5.58 0z"/>
   <path fill="white" fill-rule="nonzero" d="M39.06 61.61c0,0.8 0.65,1.45 1.45,1.45l18.98 0c0.8,0 1.45,-0.65 1.45,-1.45 0,-0.81 -0.65,-1.45 -1.45,-1.45l-18.98 0c-0.8,0 -1.45,0.64 -1.45,1.45z"/>
   <path fill="white" fill-rule="nonzero" d="M60.94 65.57c0,-0.8 -0.65,-1.45 -1.45,-1.45l-18.98 0c-0.8,0 -1.45,0.65 -1.45,1.45 0,0.8 0.65,1.45 1.45,1.45l18.98 0c0.8,0 1.45,-0.65 1.45,-1.45z"/>
</svg>
