<svg xmlns="http://www.w3.org/2000/svg" viewBox="0 0 100 74">
   <path fill="white" fill-rule="nonzero" d="M97.14 51.92l0 -12.83c0,-1.87 -0.82,-3.65 -2.24,-4.88l-1.57 -1.35c-0.6,-0.52 -1.02,-1.24 -1.17,-2.03l-3.5 -18.64c-0.57,-3.04 -3.24,-5.25 -6.34,-5.25l-15.02 0 0 -2.09c0,-2.39 -1.96,-4.35 -4.36,-4.35l-42.87 0c-0.8,0 -1.45,0.65 -1.45,1.45 0,0.8 0.65,1.45 1.45,1.45l42.87 0c0.8,0 1.46,0.65 1.46,1.45l0 46.59 -35.51 0c-2.29,-2.18 -5.39,-3.52 -8.79,-3.52 -2.58,0 -4.98,0.77 -7,2.09l0 -3.92c0,-2.4 -1.95,-4.35 -4.35,-4.35l-2.98 0 0 -36.89c0,-0.8 0.65,-1.45 1.45,-1.45l7.05 0c0.8,0 1.45,-0.65 1.45,-1.45 0,-0.8 -0.65,-1.45 -1.45,-1.45l-7.05 0c-2.4,0 -4.35,1.95 -4.35,4.35l0 47.07c-1.4,0.72 -2.37,2.18 -2.37,3.87l0 3.06c0,2.39 1.96,4.35 4.35,4.35l2.7 0c1.16,5.86 6.34,10.3 12.55,10.3 6.2,0 11.39,-4.44 12.55,-10.3l16.11 0c0.8,0 1.45,-0.65 1.45,-1.45 0,-0.8 -0.65,-1.45 -1.45,-1.45l-15.88 0c-0.07,-2.17 -0.68,-4.2 -1.7,-5.96l37.65 0c-1.02,1.76 -1.63,3.79 -1.7,5.96l-12.57 0c-0.8,0 -1.45,0.65 -1.45,1.45 0,0.8 0.65,1.45 1.45,1.45l12.8 0c1.16,5.86 6.34,10.3 12.55,10.3 6.2,0 11.39,-4.44 12.55,-10.3l2.69 0c2.4,0 4.35,-1.96 4.35,-4.35l0 -3.06c0,-1.69 -0.96,-3.15 -2.36,-3.87zm-2.91 -0.48l-4.43 0 0 -3.29c0,-0.8 0.65,-1.45 1.45,-1.45l2.98 0 0 4.74zm-4.84 -19.74l-14.31 0c-0.48,0 -0.87,-0.39 -0.87,-0.86l0 -11.43c0,-0.48 0.39,-0.87 0.87,-0.87l11.82 0c0,0 2.46,13.05 2.49,13.16zm-22.09 -21.86l15.02 0c1.71,0 3.17,1.21 3.49,2.89l0.55 2.92 -11.28 0c-2.08,0 -3.78,1.69 -3.78,3.76l0 11.43c0,2.07 1.7,3.76 3.78,3.76l15.89 0c0.15,0.16 2.03,1.81 2.03,1.81 0.79,0.67 1.23,1.65 1.23,2.68l0 4.71 -2.98 0c-2.39,0 -4.35,1.95 -4.35,4.35l0 1.86c-2.01,-1.32 -4.41,-2.09 -6.99,-2.09 -3.4,0 -6.5,1.34 -8.79,3.52l-3.82 0 0 -41.6 0 0zm-57.1 36.25l0 5.35 -4.43 0 0 -6.8 2.98 0c0.8,0 1.45,0.65 1.45,1.45zm-6.8 12.76l0 -3.06c0,-0.8 0.65,-1.45 1.45,-1.45l4.17 0c-1.03,1.76 -1.64,3.79 -1.71,5.96l-2.46 0c-0.8,0 -1.45,-0.65 -1.45,-1.45zm16.7 11.76c-5.46,0 -9.9,-4.44 -9.9,-9.89 0,-5.46 4.44,-9.9 9.9,-9.9 5.45,0 9.89,4.44 9.89,9.9 0,5.45 -4.44,9.89 -9.89,9.89zm59.81 0c-5.46,0 -9.89,-4.44 -9.89,-9.89 0,-5.46 4.43,-9.9 9.89,-9.9 5.45,0 9.89,4.44 9.89,9.9 0,5.45 -4.44,9.89 -9.89,9.89zm16.69 -11.76c0,0.8 -0.65,1.45 -1.45,1.45l-2.46 0c-0.07,-2.17 -0.68,-4.2 -1.7,-5.96l4.16 0c0.8,0 1.45,0.65 1.45,1.45l0 3.06z"/>
   <path fill="white" fill-rule="nonzero" d="M20.1 54.73c-3.3,0 -5.99,2.69 -5.99,5.99 0,3.3 2.69,5.98 5.99,5.98 3.3,0 5.98,-2.68 5.98,-5.98 0,-3.3 -2.68,-5.99 -5.98,-5.99zm0 9.07c-1.71,0 -3.09,-1.38 -3.09,-3.08 0,-1.71 1.38,-3.09 3.09,-3.09 1.7,0 3.08,1.38 3.08,3.09 0,1.7 -1.38,3.08 -3.08,3.08z"/>
   <path fill="white" fill-rule="nonzero" d="M79.91 54.73c-3.3,0 -5.99,2.69 -5.99,5.99 0,3.3 2.69,5.98 5.99,5.98 3.3,0 5.99,-2.68 5.99,-5.98 0,-3.3 -2.69,-5.99 -5.99,-5.99zm0 9.07c-1.7,0 -3.09,-1.38 -3.09,-3.08 0,-1.71 1.39,-3.09 3.09,-3.09 1.7,0 3.09,1.38 3.09,3.09 0,1.7 -1.39,3.08 -3.09,3.08z"/>
   <path fill="#AF995C" fill-rule="nonzero" d="M35.96 37.36l14.68 0c2.01,0 3.65,-1.63 3.65,-3.64l0 -8.71c0,-1.31 -0.59,-2.52 -1.62,-3.32l-6.8 -5.26c-1.51,-1.18 -3.63,-1.18 -5.14,0l-6.79 5.26c-0.78,0.6 -1.31,1.43 -1.52,2.36l-9.81 0c-0.8,0 -1.45,0.65 -1.45,1.45 0,0.8 0.65,1.45 1.45,1.45l9.7 0 0 3.29 -7.86 0c-0.8,0 -1.45,0.65 -1.45,1.45 0,0.8 0.65,1.45 1.45,1.45l7.86 0 0 0.58c0,2.01 1.64,3.64 3.65,3.64zm-0.75 -12.35c0,-0.4 0.18,-0.78 0.5,-1.03l6.79 -5.26c0.24,-0.19 0.52,-0.28 0.8,-0.28 0.28,0 0.56,0.09 0.8,0.28l6.79 5.26c0.32,0.25 0.5,0.62 0.5,1.03l0 8.71c0,0.41 -0.34,0.74 -0.75,0.74l-5.89 0 0 -4.8c0,-0.8 -0.65,-1.45 -1.45,-1.45 -0.8,0 -1.45,0.65 -1.45,1.45l0 4.8 -5.89 0c-0.41,0 -0.75,-0.33 -0.75,-0.74l0 -8.71z"/>
</svg>
