<svg xmlns="http://www.w3.org/2000/svg" viewBox="0 0 100 100">
   <path fill="white" fill-rule="nonzero" d="M8.75 99.5l56.1 0c4.56,0 8.25,-3.69 8.25,-8.25l0 -75.9c0,-4.55 -3.69,-8.24 -8.25,-8.25l-1.65 0 0 -4.95c0,-0.91 -0.74,-1.65 -1.65,-1.65 -0.91,0 -1.65,0.74 -1.65,1.65l0 4.95 -13.2 0 0 -4.95c0,-0.91 -0.74,-1.65 -1.65,-1.65 -0.91,0 -1.65,0.74 -1.65,1.65l0 4.95 -13.2 0 0 -4.95c0,-0.91 -0.74,-1.65 -1.65,-1.65 -0.91,0 -1.65,0.74 -1.65,1.65l0 4.95 -13.2 0 0 -4.95c0,-0.91 -0.74,-1.65 -1.65,-1.65 -0.91,0 -1.65,0.74 -1.65,1.65l0 4.95 -1.65 0c-4.55,0.01 -8.24,3.7 -8.25,8.25l0 75.9c0.01,4.56 3.7,8.25 8.25,8.25zm-4.95 -84.15c0,-2.73 2.22,-4.95 4.95,-4.95l1.65 0 0 1.96c-2.27,0.8 -3.63,3.12 -3.23,5.5 0.41,2.38 2.47,4.11 4.88,4.11 2.41,0 4.47,-1.73 4.88,-4.11 0.41,-2.38 -0.95,-4.7 -3.23,-5.5l0 -1.96 13.2 0 0 1.96c-2.27,0.8 -3.63,3.12 -3.23,5.5 0.41,2.38 2.47,4.11 4.88,4.11 2.41,0 4.47,-1.73 4.88,-4.11 0.41,-2.38 -0.95,-4.7 -3.23,-5.5l0 -1.96 13.2 0 0 1.96c-2.27,0.8 -3.63,3.12 -3.23,5.5 0.41,2.38 2.47,4.11 4.88,4.11 2.41,0 4.47,-1.73 4.88,-4.11 0.41,-2.38 -0.96,-4.7 -3.23,-5.5l0 -1.96 13.2 0 0 1.96c-2.27,0.8 -3.63,3.12 -3.23,5.5 0.41,2.38 2.47,4.11 4.88,4.11 2.41,0 4.47,-1.73 4.88,-4.11 0.41,-2.38 -0.96,-4.7 -3.23,-5.5l0 -1.96 1.65 0c2.74,0 4.95,2.22 4.95,4.95l0 75.9c0,2.74 -2.21,4.95 -4.95,4.95l-56.1 0c-2.73,0 -4.95,-2.21 -4.95,-4.95l0 -75.9zm8.25 0c0.91,0 1.65,0.74 1.65,1.65 0,0.92 -0.74,1.65 -1.65,1.65 -0.91,0 -1.65,-0.73 -1.65,-1.65 0,-0.91 0.74,-1.65 1.65,-1.65zm16.5 0c0.91,0 1.65,0.74 1.65,1.65 0,0.92 -0.74,1.65 -1.65,1.65 -0.91,0 -1.65,-0.73 -1.65,-1.65 0,-0.91 0.74,-1.65 1.65,-1.65zm16.5 0c0.91,0 1.65,0.74 1.65,1.65 0,0.92 -0.74,1.65 -1.65,1.65 -0.91,0 -1.65,-0.73 -1.65,-1.65 0,-0.91 0.74,-1.65 1.65,-1.65zm16.5 0c0.91,0 1.65,0.74 1.65,1.65 0,0.92 -0.74,1.65 -1.65,1.65 -0.91,0 -1.65,-0.73 -1.65,-1.65 0,-0.91 0.74,-1.65 1.65,-1.65z"/>
   <path fill="#AF995C" d="M7.1 28.55l1.65 0c0.91,0 1.65,-0.73 1.65,-1.65 0,-0.91 -0.74,-1.65 -1.65,-1.65l-1.65 0c-0.91,0 -1.65,0.74 -1.65,1.65 0,0.92 0.74,1.65 1.65,1.65z"/>
   <path fill="#AF995C" d="M15.35 28.55l1.65 0c0.91,0 1.65,-0.73 1.65,-1.65 0,-0.91 -0.74,-1.65 -1.65,-1.65l-1.65 0c-0.91,0 -1.65,0.74 -1.65,1.65 0,0.92 0.74,1.65 1.65,1.65z"/>
   <path fill="#AF995C" d="M23.6 28.55l1.65 0c0.91,0 1.65,-0.73 1.65,-1.65 0,-0.91 -0.74,-1.65 -1.65,-1.65l-1.65 0c-0.91,0 -1.65,0.74 -1.65,1.65 0,0.92 0.74,1.65 1.65,1.65z"/>
   <path fill="#AF995C" d="M31.85 28.55l1.65 0c0.91,0 1.65,-0.73 1.65,-1.65 0,-0.91 -0.74,-1.65 -1.65,-1.65l-1.65 0c-0.91,0 -1.65,0.74 -1.65,1.65 0,0.92 0.74,1.65 1.65,1.65z"/>
   <path fill="#AF995C" d="M40.1 28.55l1.65 0c0.91,0 1.65,-0.73 1.65,-1.65 0,-0.91 -0.74,-1.65 -1.65,-1.65l-1.65 0c-0.91,0 -1.65,0.74 -1.65,1.65 0,0.92 0.74,1.65 1.65,1.65z"/>
   <path fill="#AF995C" d="M48.35 28.55l1.65 0c0.91,0 1.65,-0.73 1.65,-1.65 0,-0.91 -0.74,-1.65 -1.65,-1.65l-1.65 0c-0.91,0 -1.65,0.74 -1.65,1.65 0,0.92 0.74,1.65 1.65,1.65z"/>
   <path fill="#AF995C" d="M56.6 28.55l1.65 0c0.91,0 1.65,-0.73 1.65,-1.65 0,-0.91 -0.74,-1.65 -1.65,-1.65l-1.65 0c-0.91,0 -1.65,0.74 -1.65,1.65 0,0.92 0.74,1.65 1.65,1.65z"/>
   <path fill="#AF995C" d="M64.85 28.55l1.65 0c0.91,0 1.65,-0.73 1.65,-1.65 0,-0.91 -0.74,-1.65 -1.65,-1.65l-1.65 0c-0.91,0 -1.65,0.74 -1.65,1.65 0,0.92 0.74,1.65 1.65,1.65z"/>
   <path fill="white" d="M8.75 36.8c0,0.92 0.74,1.65 1.65,1.65l9.9 0c0.91,0 1.65,-0.73 1.65,-1.65 0,-0.91 -0.74,-1.65 -1.65,-1.65l-9.9 0c-0.91,0 -1.65,0.74 -1.65,1.65z"/>
   <path fill="white" d="M25.25 36.8c0,0.92 0.74,1.65 1.65,1.65l36.3 0c0.91,0 1.65,-0.73 1.65,-1.65 0,-0.91 -0.74,-1.65 -1.65,-1.65l-36.3 0c-0.91,0 -1.65,0.74 -1.65,1.65z"/>
   <path fill="white" d="M63.2 45.05l-52.8 0c-0.91,0 -1.65,0.74 -1.65,1.65 0,0.92 0.74,1.65 1.65,1.65l52.8 0c0.91,0 1.65,-0.73 1.65,-1.65 0,-0.91 -0.74,-1.65 -1.65,-1.65z"/>
   <path fill="white" d="M10.4 58.25l18.15 0c0.91,0 1.65,-0.74 1.65,-1.65 0,-0.91 -0.74,-1.65 -1.65,-1.65l-18.15 0c-0.91,0 -1.65,0.74 -1.65,1.65 0,0.91 0.74,1.65 1.65,1.65z"/>
   <path fill="white" d="M43.4 64.85l-33 0c-0.91,0 -1.65,0.74 -1.65,1.65 0,0.92 0.74,1.65 1.65,1.65l33 0c0.91,0 1.65,-0.73 1.65,-1.65 0,-0.91 -0.74,-1.65 -1.65,-1.65z"/>
   <path fill="white" fill-rule="nonzero" d="M96.2 23.6l0 -3.3c0,-2.73 -2.21,-4.95 -4.95,-4.95l-6.6 0c-2.73,0 -4.95,2.22 -4.95,4.95l0 3.3c-1.82,0 -3.3,1.48 -3.3,3.3l0 6.6c0.01,1.18 0.63,2.26 1.65,2.85l0 46.65c0,0.25 0.06,0.5 0.17,0.72l6.78 13.96c0.56,1.12 1.71,1.83 2.96,1.82 1.25,0 2.4,-0.71 2.95,-1.84l6.78 -13.94c0.11,-0.22 0.16,-0.47 0.16,-0.72l0 -46.65c1.02,-0.59 1.65,-1.67 1.65,-2.85l0 -6.6c0,-1.82 -1.47,-3.3 -3.3,-3.3zm-13.2 -3.3c0,-0.91 0.74,-1.65 1.65,-1.65l6.6 0c0.91,0 1.65,0.74 1.65,1.65l0 3.3 -9.9 0 0 -3.3 0 0zm-3.3 6.6l16.5 0 0 6.6 -16.5 0 0 -6.6zm14.85 54.45l-4.95 0 0 -33c0,-0.91 -0.74,-1.65 -1.65,-1.65 -0.91,0 -1.65,0.74 -1.65,1.65l0 33 -4.95 0 0 -44.55 4.95 0 0 4.95c0,0.92 0.74,1.65 1.65,1.65 0.91,0 1.65,-0.73 1.65,-1.65l0 -4.95 4.95 0 0 44.55zm-12.21 3.3l11.22 0 -2.4 4.95 -6.42 0 -2.4 -4.95zm4.01 8.25l3.22 0 -1.61 3.32 -1.61 -3.32z"/>
</svg>
