<svg viewBox="0 0 115 115" fill="none" xmlns="http://www.w3.org/2000/svg">
<path d="M57.5 0.1875C25.8502 0.1875 0.1875 25.8502 0.1875 57.5C0.1875 89.1498 25.8502 114.812 57.5 114.812C89.1498 114.812 114.812 89.1498 114.812 57.5C114.812 25.8502 89.1498 0.1875 57.5 0.1875ZM75.9347 58.3827L47.9948 78.7107C47.8417 78.8208 47.6611 78.8865 47.473 78.9007C47.2849 78.9148 47.0966 78.8768 46.9287 78.7909C46.7608 78.7049 46.6198 78.5744 46.5213 78.4135C46.4227 78.2527 46.3704 78.0678 46.3701 77.8792V37.2487C46.3695 37.0597 46.4212 36.8743 46.5196 36.7129C46.6179 36.5515 46.759 36.4204 46.9273 36.3343C47.0955 36.2482 47.2843 36.2104 47.4727 36.225C47.6612 36.2396 47.8419 36.3062 47.9948 36.4172L75.9347 56.7324C76.0667 56.8258 76.1743 56.9494 76.2487 57.093C76.323 57.2366 76.3618 57.3959 76.3618 57.5576C76.3618 57.7192 76.323 57.8785 76.2487 58.0221C76.1743 58.1657 76.0667 58.2894 75.9347 58.3827Z" fill="#FF0000" fill-opacity="0.43"/>
</svg>
