<svg xmlns="http://www.w3.org/2000/svg" viewBox="0 0 35 72">
  <path fill="#fff" fill-rule="nonzero" fill-opacity="0.4" d="M20.2 1.02l-6.29 0c-3.49,0 -6.81,1.38 -9.36,3.87 -2.56,2.52 -3.97,5.82 -3.97,9.32l-0.05 13.72c0,0.56 0.46,1.02 1.03,1.03l0.01 0c0.57,0 1.03,-0.46 1.03,-1.03l0.03 -7.89 18.95 0c1.35,0.02 1.35,-2.07 0,-2.05l-3.54 0 0 -6.64c0,-0.56 -0.46,-1.02 -1.03,-1.02 -0.58,0 -1.04,0.46 -1.04,1.02l0 6.64 -13.33 0 0.01 -3.78c0,-6.04 5.16,-11.14 11.26,-11.14l2.06 0 0 3.38c0,0.57 0.46,1.03 1.04,1.03 0.57,0 1.03,-0.46 1.03,-1.03l0 -3.38 2.16 0c6.21,0 11.26,5 11.26,11.14l0 3.78 -4.93 0c-1.35,-0.02 -1.34,2.07 0,2.05l4.93 0 0 18.05c0,5.89 -4.67,10.72 -10.54,11.04l0 -3.6c0,-2.07 -1.7,-3.76 -3.8,-3.76 -2.09,0 -3.8,1.69 -3.8,3.76l0 3.61c-5.94,-0.32 -10.67,-5.16 -10.67,-11.05l0 -5.12c0,-0.57 -0.46,-1.03 -1.04,-1.03 -0.57,0 -1.03,0.46 -1.03,1.03l0 5.12c0,7.02 5.66,12.78 12.74,13.1l0 7.07 -3.46 -3.42c-1.48,-1.47 -3.9,-1.47 -5.38,0 -1.48,1.46 -1.48,3.85 0,5.31l9.89 9.78c1.41,1.46 3.96,1.46 5.37,0l3.85 -3.81c0.41,-0.4 0.41,-1.05 0,-1.45 -0.4,-0.4 -1.06,-0.4 -1.46,0l-3.85 3.81c-0.65,0.66 -1.81,0.66 -2.45,0l-9.88 -9.78c-0.67,-0.66 -0.67,-1.75 0,-2.41 0.64,-0.67 1.8,-0.67 2.44,0l5.22 5.16c0.63,0.65 1.8,0.16 1.79,-0.74l0 -15.18c0,-0.94 0.77,-1.71 1.72,-1.71 0.96,0 1.73,0.77 1.73,1.71l0 15.04c-0.02,0.9 1.16,1.39 1.79,0.74l5.07 -5.02c0.68,-0.67 1.78,-0.67 2.45,0 0.67,0.66 0.67,1.75 0,2.41l-2.61 2.58c-0.41,0.4 -0.41,1.05 0,1.45 0.4,0.41 1.06,0.41 1.47,0l2.6 -2.58c1.49,-1.46 1.49,-3.85 0,-5.31 -1.48,-1.47 -3.89,-1.47 -5.37,0l-3.33 3.28 0 -6.93c3.32,-0.15 6.4,-1.5 8.75,-3.83 2.49,-2.47 3.86,-5.76 3.86,-9.27l0 -23.88c0,-7.27 -5.98,-13.19 -13.33,-13.19l0 0z"/>
</svg>
