<svg xmlns="http://www.w3.org/2000/svg" viewBox="0 0 100 91">
   <path fill="white" fill-rule="nonzero" d="M85.21 29.16l-8.15 0c-0.81,0 -1.45,0.65 -1.45,1.45 0,0.8 0.64,1.44 1.45,1.44l8.15 0c0.8,0 1.45,-0.64 1.45,-1.44 0,-0.8 -0.65,-1.45 -1.45,-1.45z"/>
   <path fill="white" fill-rule="nonzero" d="M85.21 23.27l-8.15 0c-0.81,0 -1.45,0.65 -1.45,1.45 0,0.8 0.64,1.45 1.45,1.45l8.15 0c0.8,0 1.45,-0.65 1.45,-1.45 0,-0.8 -0.65,-1.45 -1.45,-1.45z"/>
   <path fill="white" fill-rule="nonzero" d="M19.36 67.72c-0.8,0 -1.45,0.65 -1.45,1.45l0 3.69c0,0.8 0.65,1.44 1.45,1.44 0.8,0 1.45,-0.64 1.45,-1.44l0 -3.69c0,-0.8 -0.65,-1.45 -1.45,-1.45z"/>
   <path fill="white" fill-rule="nonzero" d="M98 58.73l0.01 0c0.8,0 1.49,-0.65 1.49,-1.45l0 -43.49c0,-3.79 -3.09,-6.87 -6.89,-6.87l-3.67 0 0 -2.35c0,-1.96 -1.61,-3.57 -3.58,-3.57l-8.45 0c-1.98,0 -3.58,1.61 -3.58,3.57l0 2.35 -56.42 0c-5.03,0 -9.11,4.07 -9.11,9.08l0 22.37c0,3.05 2.14,5.6 5,6.26l0 2.16c0,1.98 1.62,3.59 3.6,3.59l1.51 0 0 3.46c0,0.8 0.65,1.44 1.45,1.44 0.8,0 1.45,-0.64 1.45,-1.44l0 -3.46 1.51 0c1.98,0 3.6,-1.61 3.6,-3.59l0 -2.17c1.98,-0.45 3.65,-1.82 4.47,-3.74l1.11 -2.61c0.69,-1.61 2.27,-2.66 4.03,-2.66l22.83 0c2.24,0 4.06,1.82 4.06,4.05l0 22.33c0,2.23 -1.82,4.05 -4.06,4.05l-1.29 0 0 -1.7c0,-2.83 -2.31,-5.12 -5.14,-5.12l-37.62 0c-2.59,0 -4.71,2.1 -4.71,4.69l0 2.13 -3.78 0c-2.93,0 -5.32,2.38 -5.32,5.31l0 10.11c0,5.22 4.24,9.54 9.57,9.54l80.15 0c5.07,0 9.27,-4.11 9.28,-9.17l0 -17.75c0,-0.79 -0.7,-1.44 -1.5,-1.44 0,0 0,0 0,0 -0.8,0 -1.45,0.64 -1.45,1.44l-0.02 17.74c0,3.47 -2.83,6.29 -6.31,6.29l-80.15 0c-3.72,0 -6.67,-3.02 -6.67,-6.65l0 -10.11c0,-1.33 1.09,-2.42 2.42,-2.42l3.78 0 0 9.18c0,2.59 2.12,4.7 4.71,4.7l30.68 0c2.59,0 4.71,-2.11 4.71,-4.7l0 -9.18 8.66 0c3.84,0 6.96,-3.11 6.96,-6.94l0 -22.33c0,-3.83 -3.12,-6.94 -6.96,-6.94l-21.38 0c0,-2.07 0,-6.1 0,-10.3 0,-0.8 -0.65,-1.44 -1.45,-1.44 -0.8,0 -1.45,0.64 -1.45,1.44l0 10.45c-2.32,0.47 -4.3,2.04 -5.25,4.27l-1.11 2.61c-0.56,1.3 -1.83,2.15 -3.25,2.15 -0.01,0 -0.01,0 -0.02,0l-10.21 0c-1.95,0 -3.54,-1.59 -3.54,-3.53l0 -22.37c0,-3.41 2.78,-6.19 6.21,-6.19l17.17 0 0 5.85c0,0.8 0.65,1.45 1.45,1.45 0.8,0 1.45,-0.65 1.45,-1.45l0 -5.85 55.63 0c2.2,0 3.99,1.78 3.99,3.98l-0.05 43.49c0,0.8 0.65,1.45 1.45,1.45zm-51.21 19.38c0,0.99 -0.81,1.8 -1.8,1.8l-24.18 0 0 -0.29c0,-0.79 -0.65,-1.44 -1.45,-1.44 -0.8,0 -1.45,0.65 -1.45,1.44l0 0.29 -3.6 0c-0.99,0 -1.8,-0.81 -1.8,-1.8l0 -14.2c0,-0.99 0.81,-1.8 1.8,-1.8l3.6 0 0 0.29c0,0.8 0.65,1.44 1.45,1.44 0.8,0 1.45,-0.64 1.45,-1.44l0 -0.29 26.5 0c-0.33,0.67 -0.52,1.43 -0.52,2.23l0 13.77zm2.91 -13.77c0,-1.23 1,-2.23 2.23,-2.23 1.23,0 2.24,1 2.24,2.23l0 1.7 -4.47 0 0 -1.7zm-27.38 -16.85l-5.92 0c-0.38,0 -0.7,-0.32 -0.7,-0.7l0 -2 7.32 0 0 2c0,0.38 -0.32,0.7 -0.7,0.7zm53.91 -42.92c0,-0.37 0.3,-0.67 0.68,-0.67l8.45 0c0.37,0 0.68,0.3 0.68,0.67l0 2.35 -9.81 0 0 -2.35 0 0z"/>
   <path fill="white" fill-rule="nonzero" d="M92.68 36.99l0 -18.65c0,-2.24 -1.82,-4.05 -4.06,-4.05l-14.98 0c-2.24,0 -4.06,1.81 -4.06,4.05l0 18.65c0,2.23 1.82,4.05 4.06,4.05l14.98 0c2.24,0 4.06,-1.82 4.06,-4.05zm-2.9 0c0,0.64 -0.52,1.16 -1.16,1.16l-14.98 0c-0.64,0 -1.16,-0.52 -1.16,-1.16l0 -18.65c0,-0.64 0.52,-1.16 1.16,-1.16l14.98 0c0.64,0 1.16,0.52 1.16,1.16l0 18.65z"/>
   <path fill="#AF995C" fill-rule="nonzero" d="M81.13 52.39c-4.57,0 -8.29,3.71 -8.29,8.27 0,4.56 3.72,8.27 8.29,8.27 4.58,0 8.3,-3.71 8.3,-8.27 0,-4.56 -3.72,-8.27 -8.3,-8.27zm0 13.65c-2.97,0 -5.39,-2.41 -5.39,-5.38 0,-2.96 2.42,-5.38 5.39,-5.38 2.98,0 5.4,2.42 5.4,5.38 0,2.97 -2.42,5.38 -5.4,5.38z"/>
</svg>
