<svg xmlns="http://www.w3.org/2000/svg" viewBox="0 0 25 26">
   <path fill="#00E676" fill-rule="nonzero" d="M6.32 22.03l0.39 0.2c1.63,1.01 3.45,1.48 5.29,1.48 5.74,0 10.44,-4.85 10.44,-10.77 0,-2.83 -1.12,-5.59 -3.08,-7.61 -1.95,-2.02 -4.56,-3.16 -7.36,-3.16 -5.74,0 -10.44,4.84 -10.38,10.83 0,2.03 0.59,3.98 1.56,5.66l0.27 0.4 -1.04 3.98 3.91 -1.01 0 0z"/>
   <path fill="white" fill-rule="nonzero" d="M20.54 4.12c-2.21,-2.35 -5.29,-3.64 -8.42,-3.64 -6.65,0 -12,5.59 -11.93,12.39 0,2.16 0.58,4.24 1.56,6.12l-1.7 6.4 6.33 -1.68c1.77,1.01 3.73,1.48 5.67,1.48 6.6,0 11.95,-5.59 11.95,-12.39 0,-3.29 -1.24,-6.39 -3.46,-8.68l0 0 0 0zm-8.42 18.98c-1.75,0 -3.52,-0.47 -5.02,-1.41l-0.39 -0.2 -3.79 1.01 0.98 -3.84 -0.26 -0.41c-2.87,-4.78 -1.49,-11.1 3.2,-14.06 4.7,-2.97 10.76,-1.55 13.64,3.29 2.87,4.85 1.49,11.11 -3.2,14.08 -1.5,1.01 -3.33,1.54 -5.16,1.54l0 0 0 0zm5.74 -7.47l-0.72 -0.33c0,0 -1.03,-0.47 -1.68,-0.82 -0.07,0 -0.14,-0.07 -0.21,-0.07 -0.19,0 -0.32,0.07 -0.45,0.15 0,0 -0.07,0.06 -0.98,1.14 -0.07,0.14 -0.2,0.2 -0.33,0.2l-0.06 0c-0.07,0 -0.19,-0.06 -0.26,-0.13l-0.33 -0.14c-0.72,-0.33 -1.37,-0.75 -1.89,-1.28 -0.14,-0.14 -0.33,-0.27 -0.46,-0.41 -0.45,-0.47 -0.91,-1.01 -1.24,-1.61l-0.06 -0.13c-0.06,-0.07 -0.06,-0.14 -0.13,-0.27 0,-0.14 0,-0.27 0.07,-0.34 0,0 0.26,-0.33 0.45,-0.54 0.13,-0.13 0.2,-0.33 0.32,-0.47 0.14,-0.2 0.2,-0.47 0.14,-0.67 -0.07,-0.34 -0.85,-2.16 -1.05,-2.56 -0.13,-0.21 -0.26,-0.27 -0.45,-0.34l-0.72 0c-0.14,0 -0.26,0.07 -0.39,0.07l-0.07 0.06c-0.13,0.07 -0.26,0.21 -0.39,0.27 -0.13,0.14 -0.2,0.27 -0.32,0.41 -0.46,0.61 -0.72,1.35 -0.72,2.09 0,0.54 0.12,1.08 0.33,1.55l0.06 0.2c0.59,1.28 1.37,2.42 2.41,3.43l0.26 0.28c0.2,0.2 0.4,0.33 0.52,0.53 1.37,1.21 2.94,2.09 4.71,2.56 0.19,0.06 0.45,0.06 0.65,0.13l0.64 0c0.33,0 0.72,-0.13 0.98,-0.27 0.2,-0.13 0.33,-0.13 0.46,-0.27l0.14 -0.13c0.12,-0.14 0.26,-0.2 0.38,-0.34 0.14,-0.13 0.27,-0.27 0.33,-0.4 0.13,-0.27 0.2,-0.61 0.26,-0.94l0 -0.47c0,0 -0.06,-0.07 -0.19,-0.14l-0.01 0z"/>
</svg>
