<svg width="18" height="18" viewBox="0 0 18 18" fill="none" xmlns="http://www.w3.org/2000/svg">
<path d="M12.2069 10.5895L9.69718 8.70719V4.87298C9.69718 4.48746 9.38556 4.17583 9.00003 4.17583C8.61451 4.17583 8.30288 4.48746 8.30288 4.87298V9.0558C8.30288 9.27539 8.40607 9.48246 8.58174 9.61352L11.3703 11.7049C11.4957 11.799 11.6422 11.8444 11.7879 11.8444C12.0005 11.8444 12.2096 11.7488 12.3463 11.5648C12.5778 11.2573 12.515 10.8202 12.2069 10.5895Z" fill="black"/>
<path d="M9 0C4.0371 0 0 4.0371 0 9C0 13.9629 4.0371 18 9 18C13.9629 18 18 13.9629 18 9C18 4.0371 13.9629 0 9 0ZM9 16.6057C4.80674 16.6057 1.39426 13.1933 1.39426 9C1.39426 4.80674 4.80674 1.39426 9 1.39426C13.194 1.39426 16.6057 4.80674 16.6057 9C16.6057 13.1933 13.1933 16.6057 9 16.6057Z" fill="black"/>
</svg>
