<svg width="18" height="18" viewBox="0 0 18 18" fill="none" xmlns="http://www.w3.org/2000/svg">
<path d="M16.5789 11.8516C15.4686 11.8516 14.3811 11.6782 13.3494 11.3372C12.8463 11.1638 12.276 11.2974 11.9444 11.6347L9.90097 13.1779C7.55716 11.9274 6.05653 10.4277 4.82119 8.09907L6.32276 6.10391C6.70076 5.72498 6.83625 5.17264 6.67425 4.65444C6.33222 3.618 6.15791 2.52948 6.15791 1.42105C6.15791 0.637565 5.52035 0 4.73686 0H1.42105C0.637565 0 0 0.637565 0 1.42105C0 10.5622 7.4378 18 16.5789 18C17.3624 18 18 17.3624 18 16.5789V13.2726C18 12.4892 17.3624 11.8516 16.5789 11.8516ZM17.0526 16.5789C17.0526 16.8404 16.8395 17.0526 16.5789 17.0526C7.95977 17.0526 0.947354 10.0402 0.947354 1.42105C0.947354 1.15958 1.16051 0.947354 1.42105 0.947354H4.73686C4.9974 0.947354 5.21056 1.15958 5.21056 1.42105C5.21056 2.63086 5.40005 3.81886 5.77139 4.94527C5.82632 5.12241 5.78182 5.30528 5.60846 5.48527L3.88423 7.76841C3.7753 7.91336 3.75824 8.10756 3.84066 8.26862C5.2456 11.0283 6.95184 12.7355 9.73142 14.1594C9.89151 14.2427 10.0876 14.2257 10.2326 14.1158L12.565 12.348C12.692 12.223 12.8786 12.1794 13.0472 12.2353C14.1803 12.6095 15.3683 12.7989 16.579 12.7989C16.8396 12.7989 17.0527 13.0112 17.0527 13.2726L17.0526 16.5789Z" fill="black"/>
</svg>
