<svg width="48" height="48" viewBox="0 0 48 48" fill="none" xmlns="http://www.w3.org/2000/svg">
<g clip-path="url(#clip0)">
<path d="M3 3.266C-0.772002 7.184 -2.02656e-06 11.346 -2.02656e-06 23.99C-2.02656e-06 34.49 -1.832 45.016 7.756 47.494C10.75 48.264 37.278 48.264 40.268 47.49C44.26 46.46 47.508 43.222 47.952 37.576C48.014 36.788 48.014 11.206 47.95 10.402C47.478 4.388 43.776 0.922001 38.898 0.220001C37.78 0.0580013 37.556 0.0100012 31.82 1.24425e-06C11.474 0.0100012 7.014 -0.895999 3 3.266Z" fill="url(#paint0_linear)"/>
<path d="M24.0004 8.01542C17.4468 8.01542 11.2235 7.4329 8.8465 13.5286C7.86464 16.0463 8.00722 19.3159 8.00722 23.9977C8.00722 28.106 7.87547 31.9673 8.8465 34.4651C11.2181 40.5644 17.4919 39.9801 23.9968 39.9801C30.2724 39.9801 36.743 40.6329 39.1489 34.4651C40.1325 31.9222 39.9882 28.7012 39.9882 23.9977C39.9882 17.7541 40.3329 13.7234 37.3025 10.6972C34.2341 7.63128 30.0847 8.01542 23.9932 8.01542H24.0004ZM22.5673 10.8956C36.2376 10.8739 37.9775 9.3554 37.0173 30.4506C36.6762 37.9115 30.9908 37.0927 24.0022 37.0927C11.2596 37.0927 10.8932 36.7284 10.8932 23.9905C10.8932 11.1048 11.904 10.9028 22.5673 10.892V10.8956ZM32.5375 13.5485C31.4781 13.5485 30.6189 14.4069 30.6189 15.4655C30.6189 16.5242 31.4781 17.3826 32.5375 17.3826C33.597 17.3826 34.4562 16.5242 34.4562 15.4655C34.4562 14.4069 33.597 13.5485 32.5375 13.5485ZM24.0004 15.7902C19.4647 15.7902 15.7881 19.4656 15.7881 23.9977C15.7881 28.5299 19.4647 32.2035 24.0004 32.2035C28.5361 32.2035 32.2109 28.5299 32.2109 23.9977C32.2109 19.4656 28.5361 15.7902 24.0004 15.7902ZM24.0004 18.6703C31.0485 18.6703 31.0575 29.3252 24.0004 29.3252C16.9541 29.3252 16.9433 18.6703 24.0004 18.6703Z" fill="white"/>
</g>
<defs>
<linearGradient id="paint0_linear" x1="3.09204" y1="44.9342" x2="47.703" y2="6.32396" gradientUnits="userSpaceOnUse">
<stop stop-color="#FFDD55"/>
<stop offset="0.5" stop-color="#FF543E"/>
<stop offset="1" stop-color="#C837AB"/>
</linearGradient>
<clipPath id="clip0">
<path d="M0 24C0 10.7452 10.7452 0 24 0C37.2548 0 48 10.7452 48 24C48 37.2548 37.2548 48 24 48C10.7452 48 0 37.2548 0 24Z" fill="white"/>
</clipPath>
</defs>
</svg>
