<svg width="18" height="18" viewBox="0 0 18 18" fill="none" xmlns="http://www.w3.org/2000/svg">
<path d="M17.6896 3.10345H0.310359C0.138972 3.10345 0 3.24239 0 3.41378V14.5862C0 14.7576 0.138972 14.8965 0.310359 14.8965H17.6896C17.861 14.8965 18 14.7576 18 14.5862V3.41378C18 3.24239 17.861 3.10345 17.6896 3.10345Z" fill="#82C3D2"/>
<path d="M2.0924 4.5157C2.06431 4.39676 2.05731 4.35292 2.11068 4.29959C2.1367 4.27357 2.1367 4.23142 2.11068 4.20541C2.08467 4.17939 2.04251 4.17939 2.0165 4.20541C1.9085 4.31344 1.93427 4.42555 1.96222 4.54428C1.87707 4.51647 1.78876 4.53711 1.74144 4.5968C1.71795 4.62658 1.67253 4.71011 1.75764 4.84349C1.77744 4.87446 1.81836 4.88357 1.84961 4.86395C1.88065 4.84416 1.88969 4.80292 1.8699 4.77198C1.83797 4.72175 1.83702 4.69077 1.84595 4.67945C1.8565 4.66606 1.8892 4.65899 1.92344 4.67112C1.94555 4.67878 1.99695 4.70533 1.99695 4.78548C1.99695 4.8495 1.96735 4.90818 1.91574 4.94629C1.86402 4.98454 1.79709 4.99533 1.73258 4.97529C1.65291 4.95096 1.59726 4.86705 1.59726 4.77118C1.59726 4.70259 1.61196 4.63326 1.63895 4.57251C1.64324 4.56354 1.74506 4.35264 1.77128 4.27403C1.82314 4.11854 1.77044 4.04035 1.73447 4.00769C1.68635 3.96385 1.616 3.95292 1.55546 3.97946C1.54625 3.98354 1.53865 3.98944 1.53067 3.99493C1.52269 3.98941 1.51506 3.98354 1.50589 3.97946C1.44539 3.95292 1.37507 3.96385 1.32687 4.00769C1.29091 4.04035 1.23821 4.11857 1.29007 4.27403C1.31629 4.35264 1.41807 4.56354 1.42144 4.57057C1.44932 4.63329 1.46405 4.70262 1.46405 4.77121C1.46405 4.86712 1.40844 4.951 1.32874 4.97533C1.26398 4.99533 1.19725 4.98468 1.14557 4.94632C1.09396 4.90818 1.06436 4.84954 1.06436 4.78552C1.06436 4.70536 1.11576 4.67886 1.13787 4.67116C1.17222 4.65906 1.20474 4.66606 1.21536 4.67949C1.22429 4.69081 1.22334 4.72178 1.19142 4.77202C1.17162 4.80299 1.18066 4.84423 1.2117 4.86399C1.24299 4.88378 1.28405 4.87453 1.30367 4.84353C1.38875 4.71014 1.34336 4.62665 1.31988 4.59684C1.27252 4.53714 1.18424 4.5165 1.0991 4.54431C1.12708 4.42566 1.15282 4.31348 1.04482 4.20544C1.0188 4.17943 0.976648 4.17943 0.950632 4.20544C0.924617 4.23146 0.924617 4.27361 0.950632 4.29963C1.00396 4.35296 0.997038 4.3968 0.968913 4.51573C0.952038 4.58699 0.931085 4.67587 0.931085 4.78541C0.931085 4.85829 0.956714 4.92801 0.999816 4.98528H0.997671C0.960863 4.98528 0.93105 5.01505 0.93105 5.0519C0.93105 5.08871 0.960827 5.11852 0.997671 5.11852H0.999816C0.956714 5.17579 0.931085 5.24547 0.931085 5.31835C0.931085 5.42789 0.952038 5.51677 0.968878 5.58806C0.996968 5.707 1.00396 5.75084 0.950597 5.80417C0.924581 5.83019 0.924581 5.87234 0.950597 5.89835C0.963605 5.91136 0.980656 5.91786 0.997706 5.91786C1.01472 5.91786 1.03181 5.91136 1.04482 5.89835C1.15282 5.79032 1.12705 5.67817 1.0991 5.55948C1.18424 5.58719 1.27256 5.56665 1.31988 5.50696C1.34336 5.47718 1.38878 5.39365 1.30367 5.26027C1.28395 5.2293 1.24278 5.22008 1.2117 5.23981C1.18066 5.2596 1.17162 5.30084 1.19142 5.33178C1.22334 5.38201 1.22429 5.41299 1.21536 5.42431C1.20478 5.43756 1.17222 5.44459 1.13787 5.43264C1.11576 5.42498 1.06436 5.39843 1.06436 5.31828C1.06436 5.25426 1.09396 5.19558 1.14557 5.15747C1.19729 5.11922 1.26415 5.10829 1.32874 5.12847C1.4084 5.1528 1.46405 5.23671 1.46405 5.33258C1.46405 5.40117 1.44936 5.4705 1.42144 5.53322L0.98512 6.51482C0.949261 6.59547 0.93105 6.68125 0.93105 6.76956C0.93105 6.88322 0.98273 6.987 1.06408 7.05035C0.982765 7.1137 0.93105 7.21748 0.93105 7.33114C0.93105 7.41949 0.949296 7.50524 0.98512 7.58588L1.42137 8.56741C1.44925 8.63013 1.46398 8.69946 1.46398 8.76805C1.46398 8.86395 1.40837 8.94783 1.32867 8.97216C1.26391 8.99234 1.19718 8.98151 1.1455 8.94316C1.09389 8.90501 1.06429 8.84637 1.06429 8.78235C1.06429 8.7022 1.11569 8.67569 1.1378 8.66799C1.17215 8.656 1.20467 8.66289 1.21529 8.67632C1.22422 8.68764 1.22327 8.71862 1.19135 8.76886C1.17155 8.79983 1.18059 8.84107 1.21163 8.86082C1.24292 8.88062 1.28398 8.87148 1.3036 8.84036C1.38868 8.70698 1.34329 8.62348 1.31981 8.59367C1.27245 8.53398 1.18417 8.51341 1.09903 8.54115C1.12701 8.4225 1.15274 8.31031 1.04475 8.20228C1.01873 8.17626 0.976577 8.17626 0.950562 8.20228C0.924546 8.22829 0.924546 8.27045 0.950562 8.29646C1.00389 8.34979 0.996968 8.39363 0.968843 8.51257C0.952003 8.58386 0.93105 8.67274 0.93105 8.78228C0.93105 8.85516 0.956679 8.92488 0.99978 8.98215H0.997636C0.960827 8.98215 0.931015 9.01192 0.931015 9.04877C0.931015 9.08561 0.960792 9.11539 0.997636 9.11539H0.99978C0.956644 9.17266 0.93105 9.24234 0.93105 9.31525C0.93105 9.4248 0.952003 9.51367 0.968843 9.58497C0.996933 9.7039 1.00393 9.74774 0.950562 9.80108C0.924546 9.82709 0.924546 9.86924 0.950562 9.89526C0.96357 9.90827 0.98062 9.91477 0.997671 9.91477C1.01469 9.91477 1.03177 9.90827 1.04478 9.89526C1.15278 9.78722 1.12701 9.67508 1.09906 9.55639C1.18421 9.58409 1.27252 9.56356 1.31984 9.50387C1.34333 9.47409 1.38875 9.39056 1.30364 9.25717C1.28391 9.2262 1.24274 9.21699 1.21167 9.23671C1.18062 9.25651 1.17159 9.29774 1.19138 9.32868C1.2233 9.37892 1.22425 9.40989 1.21532 9.42121C1.20474 9.43461 1.17219 9.44167 1.13784 9.42954C1.11573 9.42188 1.06433 9.39534 1.06433 9.31518C1.06433 9.25116 1.09393 9.19249 1.14554 9.15438C1.19725 9.11613 1.26412 9.10519 1.3287 9.12537C1.40837 9.1497 1.46402 9.23362 1.46402 9.32949C1.46402 9.39808 1.44932 9.46741 1.42141 9.53013L0.98512 10.5118C0.949261 10.5925 0.93105 10.6783 0.93105 10.7666C0.93105 10.8802 0.98273 10.984 1.06408 11.0474C0.982765 11.1107 0.93105 11.2145 0.93105 11.3282C0.93105 11.4165 0.949296 11.5022 0.98512 11.5829L1.42137 12.5644C1.44925 12.6271 1.46398 12.6965 1.46398 12.7651C1.46398 12.861 1.40837 12.9448 1.32867 12.9692C1.26391 12.9894 1.19718 12.9784 1.1455 12.9402C1.09389 12.902 1.06429 12.8434 1.06429 12.7794C1.06429 12.6992 1.11569 12.6727 1.1378 12.665C1.17215 12.653 1.20467 12.6599 1.21529 12.6733C1.22422 12.6847 1.22327 12.7156 1.19135 12.7659C1.17155 12.7968 1.18059 12.838 1.21163 12.8578C1.24292 12.8776 1.28398 12.8685 1.3036 12.8374C1.38868 12.704 1.34329 12.6205 1.31981 12.5907C1.27245 12.5308 1.18417 12.5104 1.09903 12.5382C1.12701 12.4195 1.15274 12.3073 1.04475 12.1993C1.01873 12.1733 0.976577 12.1733 0.950562 12.1993C0.924546 12.2253 0.924546 12.2675 0.950562 12.2935C1.00389 12.3468 0.996968 12.3906 0.968843 12.5096C0.952003 12.5809 0.93105 12.6697 0.93105 12.7793C0.93105 12.8837 0.981077 12.9831 1.06471 13.0457C0.981077 13.1084 0.93105 13.2078 0.93105 13.3122C0.93105 13.4218 0.952003 13.5107 0.968843 13.5819C0.996933 13.7008 1.00393 13.7447 0.950562 13.7981C0.924546 13.8241 0.924546 13.8662 0.950562 13.8922C0.96357 13.9052 0.98062 13.9117 0.997671 13.9117C1.01469 13.9117 1.03177 13.9052 1.04478 13.8922C1.15278 13.7842 1.12701 13.6721 1.09906 13.5534C1.18421 13.5811 1.27252 13.5605 1.31984 13.5008C1.34333 13.4711 1.38875 13.3875 1.30364 13.2542C1.28391 13.2232 1.24274 13.2141 1.21167 13.2337C1.18062 13.2535 1.17159 13.2947 1.19138 13.3257C1.2233 13.3759 1.22425 13.4069 1.21532 13.4182C1.20474 13.4316 1.17219 13.4385 1.13784 13.4265C1.11573 13.4189 1.06433 13.3923 1.06433 13.3122C1.06433 13.2481 1.09393 13.1895 1.14554 13.1514C1.19725 13.1131 1.26412 13.1023 1.3287 13.1224C1.40837 13.1467 1.46402 13.2306 1.46402 13.3265C1.46402 13.3951 1.44932 13.4644 1.42232 13.5251C1.41803 13.5341 1.31622 13.745 1.28999 13.8236C1.23814 13.9791 1.29084 14.0573 1.3268 14.09C1.35756 14.1179 1.39719 14.1326 1.43769 14.1326C1.46064 14.1326 1.48392 14.1278 1.50585 14.1182C1.51506 14.1141 1.52266 14.1082 1.53064 14.1028C1.53862 14.1083 1.54625 14.1141 1.55542 14.1182C1.57733 14.1279 1.60063 14.1326 1.62359 14.1326C1.66399 14.1326 1.70368 14.1179 1.73447 14.09C1.77044 14.0573 1.82314 13.9791 1.77128 13.8236C1.74506 13.745 1.64328 13.5341 1.6399 13.5271C1.61203 13.4643 1.59729 13.395 1.59729 13.3264C1.59729 13.2305 1.65291 13.1466 1.73261 13.1223C1.7974 13.1023 1.8641 13.1131 1.91577 13.1513C1.96738 13.1895 1.99699 13.2481 1.99699 13.3121C1.99699 13.3923 1.94559 13.4188 1.92347 13.4265C1.88927 13.4385 1.8565 13.4316 1.84599 13.4182C1.83706 13.4068 1.83801 13.3759 1.86993 13.3256C1.88972 13.2947 1.88069 13.2534 1.84965 13.2337C1.81853 13.2141 1.77751 13.2232 1.75768 13.2541C1.6726 13.3875 1.71799 13.471 1.74147 13.5008C1.78883 13.5605 1.8771 13.5811 1.96225 13.5533C1.93427 13.672 1.90853 13.7842 2.01653 13.8922C2.02954 13.9052 2.04659 13.9117 2.06364 13.9117C2.08069 13.9117 2.09774 13.9052 2.11075 13.8922C2.13677 13.8662 2.13677 13.824 2.11075 13.798C2.05742 13.7447 2.06434 13.7008 2.09247 13.5819C2.10931 13.5106 2.13026 13.4217 2.13026 13.3122C2.13026 13.2078 2.08024 13.1084 1.9966 13.0457C2.08024 12.9831 2.13026 12.8837 2.13026 12.7792C2.13026 12.6697 2.10931 12.5808 2.09247 12.5095C2.06438 12.3906 2.05738 12.3467 2.11075 12.2934C2.13677 12.2674 2.13677 12.2252 2.11075 12.1992C2.08474 12.1732 2.04258 12.1732 2.01657 12.1992C1.90857 12.3073 1.93434 12.4194 1.96229 12.5381C1.87714 12.5103 1.78883 12.5307 1.74151 12.5906C1.71802 12.6204 1.6726 12.7039 1.75771 12.8373C1.77751 12.8683 1.81843 12.8774 1.84968 12.8578C1.88072 12.838 1.88976 12.7967 1.86997 12.7658C1.83804 12.7156 1.8371 12.6846 1.84602 12.6733C1.85657 12.6599 1.88927 12.653 1.92351 12.6649C1.94562 12.6726 1.99702 12.6991 1.99702 12.7793C1.99702 12.8433 1.96742 12.902 1.91581 12.9401C1.8641 12.9784 1.79716 12.9893 1.73265 12.9691C1.65298 12.9448 1.59733 12.8609 1.59733 12.765C1.59733 12.6964 1.61203 12.6271 1.63994 12.5644L2.07619 11.5828C2.11205 11.5022 2.13026 11.4164 2.13026 11.3281C2.13026 11.2144 2.07858 11.1106 1.99723 11.0473C2.07855 10.9839 2.13026 10.8802 2.13026 10.7665C2.13026 10.6782 2.11202 10.5924 2.07619 10.5118L1.63997 9.5303C1.6121 9.46758 1.59737 9.39826 1.59737 9.32967C1.59737 9.23376 1.65298 9.14988 1.73268 9.12555C1.79747 9.10551 1.86417 9.1163 1.91585 9.15455C1.96745 9.1927 1.99706 9.25134 1.99706 9.31536C1.99706 9.39551 1.94566 9.42202 1.92354 9.42972C1.88934 9.44181 1.85657 9.43482 1.84606 9.42139C1.83713 9.41007 1.83808 9.3791 1.87 9.32886C1.88979 9.29789 1.88076 9.25668 1.84972 9.23689C1.8186 9.21738 1.77758 9.22648 1.75775 9.25735C1.67267 9.39073 1.71806 9.47423 1.74154 9.50404C1.7889 9.56374 1.87717 9.5843 1.96232 9.55656C1.93434 9.67522 1.9086 9.7874 2.0166 9.89544C2.02961 9.90844 2.04666 9.91495 2.06371 9.91495C2.08076 9.91495 2.09781 9.90844 2.11082 9.89544C2.13684 9.86942 2.13684 9.82727 2.11082 9.80125C2.05749 9.74792 2.06442 9.70408 2.09254 9.58515C2.10938 9.51385 2.13033 9.42497 2.13033 9.31543C2.13033 9.24255 2.1047 9.17283 2.0616 9.11557H2.06375C2.10056 9.11557 2.13037 9.08579 2.13037 9.04894C2.13037 9.01214 2.10059 8.98232 2.06375 8.98232H2.0616C2.10474 8.92505 2.13033 8.85541 2.13033 8.78246C2.13033 8.67291 2.10938 8.58404 2.09254 8.51274C2.06445 8.39381 2.05745 8.34997 2.11082 8.29664C2.13684 8.27062 2.13684 8.22847 2.11082 8.20245C2.08481 8.17644 2.04265 8.17644 2.01664 8.20245C1.90864 8.31049 1.93441 8.42264 1.96236 8.54132C1.87721 8.51362 1.7889 8.53415 1.74158 8.59385C1.71809 8.62362 1.67267 8.70716 1.75778 8.84054C1.77758 8.87151 1.8185 8.88051 1.84975 8.861C1.88079 8.84121 1.88983 8.79997 1.87004 8.76903C1.83811 8.71879 1.83717 8.68782 1.8461 8.6765C1.85664 8.66311 1.88934 8.65621 1.92358 8.66817C1.94569 8.67583 1.99709 8.70237 1.99709 8.78253C1.99709 8.84655 1.96749 8.90523 1.91588 8.94334C1.86417 8.98159 1.79723 8.99238 1.73272 8.97234C1.65305 8.94801 1.5974 8.86409 1.5974 8.76822C1.5974 8.69963 1.6121 8.6303 1.64001 8.56759L2.07626 7.58606C2.11212 7.50541 2.13033 7.41963 2.13033 7.33132C2.13033 7.21766 2.07865 7.11388 1.9973 7.05053C2.07862 6.98717 2.13033 6.88339 2.13033 6.76973C2.13033 6.68139 2.11209 6.59564 2.07626 6.51499L1.64001 5.53347C1.61213 5.47075 1.5974 5.40142 1.5974 5.33283C1.5974 5.23692 1.65302 5.15304 1.73272 5.12871C1.79751 5.10867 1.8642 5.11947 1.91588 5.15772C1.96749 5.19586 1.99709 5.2545 1.99709 5.31852C1.99709 5.39868 1.94569 5.42519 1.92358 5.43288C1.88937 5.44487 1.85661 5.43781 1.8461 5.42455C1.83717 5.41323 1.83811 5.38226 1.87004 5.33202C1.88983 5.30105 1.88079 5.25981 1.84975 5.24005C1.81864 5.22054 1.77761 5.22951 1.75778 5.26048C1.6727 5.39386 1.71809 5.47736 1.74158 5.50717C1.78893 5.56687 1.87721 5.58743 1.96236 5.55969C1.93437 5.67835 1.90864 5.79053 2.01664 5.89856C2.02965 5.91157 2.0467 5.91808 2.06375 5.91808C2.0808 5.91808 2.09785 5.91157 2.11086 5.89856C2.13687 5.87255 2.13687 5.8304 2.11086 5.80438C2.05752 5.75105 2.06445 5.70721 2.09258 5.58828C2.10942 5.51698 2.13037 5.4281 2.13037 5.31856C2.13037 5.24568 2.10474 5.17596 2.06164 5.11869H2.06378C2.10059 5.11869 2.1304 5.08892 2.1304 5.05207C2.1304 5.01526 2.10063 4.98545 2.06378 4.98545H2.06164C2.10477 4.92818 2.13037 4.85854 2.13037 4.78559C2.13016 4.67587 2.1092 4.58699 2.0924 4.5157ZM1.41635 4.23181C1.39269 4.16079 1.40095 4.12033 1.41656 4.10613C1.42675 4.09649 1.44222 4.09688 1.45203 4.10131C1.46405 4.10665 1.46405 4.11513 1.46405 4.11927C1.46405 4.15608 1.49383 4.1859 1.53067 4.1859C1.56748 4.1859 1.59729 4.15612 1.59729 4.11927C1.59729 4.11513 1.59729 4.10665 1.60932 4.10131C1.61895 4.09688 1.63431 4.09649 1.64479 4.10613C1.6604 4.12033 1.66866 4.16079 1.645 4.23181C1.62778 4.28331 1.56544 4.4174 1.53071 4.49017C1.49668 4.41909 1.43368 4.28366 1.41635 4.23181ZM1.53064 6.9805C1.54976 7.00648 1.57138 7.03066 1.59768 7.05035C1.57138 7.07007 1.54976 7.09423 1.53064 7.12021C1.51151 7.09423 1.48989 7.07004 1.4636 7.05035C1.48989 7.03063 1.51151 7.00651 1.53064 6.9805ZM1.53064 10.9775C1.54976 11.0035 1.57138 11.0276 1.59768 11.0473C1.57138 11.067 1.54976 11.0912 1.53064 11.1172C1.51151 11.0912 1.48989 11.067 1.4636 11.0473C1.48989 11.0276 1.51151 11.0035 1.53064 10.9775ZM1.6449 13.8659C1.66856 13.9369 1.66029 13.9774 1.64469 13.9916C1.63421 14.0011 1.61885 14.0007 1.60921 13.9964C1.59719 13.9911 1.59719 13.9826 1.59719 13.9784C1.59719 13.9416 1.56741 13.9118 1.53057 13.9118C1.49372 13.9118 1.46395 13.9416 1.46395 13.9784C1.46395 13.9826 1.46395 13.9911 1.45192 13.9964C1.44215 14.0007 1.42668 14.0011 1.41645 13.9916C1.40084 13.9774 1.39258 13.9369 1.41624 13.8659C1.43347 13.8144 1.4958 13.6803 1.53053 13.6075C1.56456 13.6786 1.62756 13.814 1.6449 13.8659ZM1.59705 13.0458C1.57184 13.0654 1.54948 13.0889 1.53064 13.1155C1.51183 13.0889 1.48944 13.0655 1.46423 13.0458C1.48944 13.0262 1.5118 13.0027 1.53064 12.9762C1.54945 13.0027 1.57181 13.0262 1.59705 13.0458ZM1.95431 11.5287L1.5306 12.482L1.1069 11.5287C1.07902 11.466 1.06429 11.3967 1.06429 11.3281C1.06429 11.2322 1.11991 11.1483 1.19961 11.124C1.26437 11.1039 1.33116 11.1147 1.38277 11.153C1.43438 11.1911 1.46398 11.2498 1.46398 11.3138C1.46398 11.3939 1.41258 11.4204 1.39047 11.4281C1.35612 11.4401 1.32346 11.4332 1.31299 11.4198C1.30406 11.4085 1.30501 11.3775 1.33693 11.3273C1.35672 11.2963 1.34769 11.2551 1.31664 11.2353C1.28553 11.2158 1.2445 11.2249 1.22467 11.2558C1.1396 11.3892 1.18498 11.4726 1.20847 11.5025C1.2567 11.5634 1.34744 11.5843 1.43421 11.554C1.44408 11.5506 1.4541 11.5463 1.46398 11.5413V11.7097C1.46398 11.7097 1.46388 11.7096 1.46388 11.7096C1.46187 11.6745 1.43283 11.6469 1.3974 11.6469C1.36059 11.6469 1.33078 11.6767 1.33078 11.7135C1.33078 11.757 1.36115 11.8323 1.46398 11.8557V11.98C1.46398 12.0168 1.49376 12.0466 1.5306 12.0466C1.56745 12.0466 1.59722 12.0168 1.59722 11.98V11.8557C1.70006 11.8323 1.73043 11.757 1.73043 11.7135C1.73043 11.6767 1.70072 11.6447 1.66395 11.6447C1.62714 11.6447 1.59747 11.6723 1.59747 11.7091C1.59744 11.7092 1.59722 11.7094 1.59719 11.7095V11.5413C1.60707 11.5464 1.61709 11.5506 1.62697 11.554C1.71373 11.5843 1.80444 11.5634 1.8527 11.5025C1.87619 11.4728 1.92161 11.3892 1.8365 11.2558C1.8167 11.2249 1.77561 11.2158 1.74453 11.2354C1.71349 11.2552 1.70445 11.2964 1.72424 11.3273C1.75617 11.3776 1.75711 11.4086 1.74819 11.4199C1.73764 11.4333 1.70498 11.4402 1.6707 11.4282C1.64859 11.4205 1.59719 11.394 1.59719 11.3138C1.59719 11.2498 1.62679 11.1912 1.6784 11.153C1.73011 11.1148 1.79705 11.1039 1.86156 11.124C1.94123 11.1484 1.99688 11.2323 1.99688 11.3282C1.99695 11.3967 1.98226 11.466 1.95431 11.5287ZM1.95431 10.5659C1.98218 10.6287 1.99692 10.698 1.99692 10.7666C1.99692 10.8625 1.9413 10.9464 1.8616 10.9707C1.79695 10.9909 1.73004 10.9799 1.67844 10.9417C1.62683 10.9035 1.59722 10.8449 1.59722 10.7809C1.59722 10.7007 1.64862 10.6742 1.67074 10.6665C1.70501 10.6545 1.73771 10.6614 1.74822 10.6748C1.75715 10.6862 1.7562 10.7171 1.72428 10.7674C1.70449 10.7984 1.71352 10.8396 1.74456 10.8593C1.77585 10.8791 1.81692 10.87 1.83653 10.8389C1.92161 10.7055 1.87622 10.622 1.85274 10.5922C1.80447 10.5313 1.71377 10.5106 1.627 10.5407C1.61712 10.5441 1.6071 10.5484 1.59722 10.5534V10.3849L1.59733 10.3851C1.59933 10.4201 1.62837 10.4478 1.66381 10.4478C1.70062 10.4478 1.73043 10.418 1.73043 10.3812C1.73043 10.3377 1.70006 10.2624 1.59722 10.239V10.1147C1.59722 10.0779 1.56745 10.0481 1.5306 10.0481C1.49376 10.0481 1.46398 10.0779 1.46398 10.1147V10.239C1.36115 10.2624 1.33078 10.3377 1.33078 10.3812C1.33078 10.418 1.36048 10.45 1.39726 10.45C1.43406 10.45 1.46374 10.4224 1.46374 10.3856C1.46377 10.3855 1.46398 10.3853 1.46398 10.3853L1.46402 10.5533C1.45414 10.5483 1.44412 10.5441 1.43424 10.5407C1.34748 10.5106 1.25674 10.5313 1.2085 10.5922C1.18502 10.6219 1.1396 10.7055 1.22471 10.8389C1.2445 10.8698 1.2856 10.8788 1.31668 10.8593C1.34772 10.8395 1.35676 10.7983 1.33696 10.7673C1.30504 10.7171 1.30409 10.6861 1.31302 10.6748C1.3235 10.6614 1.35616 10.6545 1.39051 10.6665C1.41262 10.6741 1.46402 10.7007 1.46402 10.7808C1.46402 10.8449 1.43442 10.9035 1.38281 10.9416C1.33109 10.9799 1.2643 10.9908 1.19964 10.9707C1.11998 10.9463 1.06433 10.8624 1.06433 10.7665C1.06433 10.6979 1.07902 10.6286 1.10694 10.5659L1.53064 9.6126L1.95431 10.5659ZM1.59705 9.04887C1.57184 9.06849 1.54948 9.09198 1.53064 9.11852C1.51183 9.09198 1.48944 9.06853 1.46423 9.04887C1.48944 9.02926 1.5118 9.00577 1.53064 8.97923C1.54945 9.00574 1.57181 9.02922 1.59705 9.04887ZM1.95431 7.53178L1.5306 8.48507L1.1069 7.53178C1.07902 7.46906 1.06429 7.39973 1.06429 7.33114C1.06429 7.23524 1.11991 7.15135 1.19961 7.12703C1.26437 7.10699 1.33116 7.11778 1.38277 7.15603C1.43438 7.19417 1.46398 7.25282 1.46398 7.31683C1.46398 7.39699 1.41258 7.4235 1.39047 7.4312C1.35612 7.44329 1.32346 7.4363 1.31299 7.42287C1.30406 7.41155 1.30501 7.38057 1.33693 7.33033C1.35672 7.29936 1.34769 7.25812 1.31664 7.23837C1.28553 7.21875 1.2445 7.22782 1.22467 7.25883C1.1396 7.39221 1.18498 7.47571 1.20847 7.50552C1.2567 7.56641 1.34744 7.58722 1.43421 7.55702C1.44408 7.55361 1.4541 7.54936 1.46398 7.54433V7.7128L1.46388 7.71259C1.46187 7.67761 1.43283 7.64987 1.3974 7.64987C1.36059 7.64987 1.33078 7.67965 1.33078 7.71649C1.33078 7.75994 1.36115 7.83532 1.46398 7.85866V7.98294C1.46398 8.01975 1.49376 8.04956 1.5306 8.04956C1.56745 8.04956 1.59722 8.01978 1.59722 7.98294V7.85866C1.70006 7.83532 1.73043 7.75994 1.73043 7.71649C1.73043 7.67968 1.70072 7.64765 1.66395 7.64765C1.62714 7.64765 1.59747 7.67525 1.59747 7.71206C1.59744 7.71217 1.59722 7.71234 1.59722 7.71234L1.59719 7.54429C1.60707 7.54932 1.61709 7.55358 1.62697 7.55699C1.71373 7.58715 1.80444 7.56634 1.8527 7.50548C1.87619 7.47571 1.92161 7.39217 1.8365 7.25879C1.8167 7.22768 1.77561 7.21861 1.74453 7.23833C1.71349 7.25812 1.70445 7.29936 1.72424 7.3303C1.75617 7.38054 1.75711 7.41151 1.74819 7.42283C1.73764 7.43623 1.70498 7.44329 1.6707 7.43116C1.64859 7.4235 1.59719 7.39696 1.59719 7.3168C1.59719 7.25278 1.62679 7.1941 1.6784 7.15599C1.73011 7.11775 1.79705 7.10695 1.86156 7.12699C1.94123 7.15132 1.99688 7.23524 1.99688 7.33111C1.99695 7.39973 1.98226 7.46906 1.95431 7.53178ZM1.95431 6.56896C1.98218 6.63168 1.99692 6.701 1.99692 6.76959C1.99692 6.8655 1.9413 6.94938 1.8616 6.97371C1.79695 6.99389 1.73004 6.98296 1.67844 6.94471C1.62683 6.90656 1.59722 6.84792 1.59722 6.7839C1.59722 6.70375 1.64862 6.67724 1.67074 6.66954C1.70501 6.65755 1.73771 6.66444 1.74822 6.67787C1.75715 6.68919 1.7562 6.72016 1.72428 6.7704C1.70449 6.80137 1.71352 6.84258 1.74456 6.86237C1.77585 6.88199 1.81692 6.87302 1.83653 6.84191C1.92161 6.70853 1.87622 6.62503 1.85274 6.59522C1.80447 6.53433 1.71377 6.51352 1.627 6.54371C1.61712 6.54713 1.6071 6.55138 1.59722 6.55641V6.38794C1.59722 6.38797 1.59733 6.38804 1.59733 6.38804C1.59933 6.42313 1.62837 6.4508 1.66381 6.4508C1.70062 6.4508 1.73043 6.42102 1.73043 6.38418C1.73043 6.34072 1.70006 6.26535 1.59722 6.242V6.11773C1.59722 6.08092 1.56745 6.05111 1.5306 6.05111C1.49376 6.05111 1.46398 6.08088 1.46398 6.11773V6.242C1.36115 6.26535 1.33078 6.34072 1.33078 6.38418C1.33078 6.42098 1.36048 6.45301 1.39726 6.45301C1.43406 6.45301 1.46374 6.42541 1.46374 6.38861C1.46377 6.3885 1.46398 6.38832 1.46402 6.38822V6.55637C1.45414 6.55134 1.44412 6.54709 1.43424 6.54368C1.34748 6.51352 1.25674 6.53433 1.2085 6.59518C1.18502 6.62496 1.1396 6.70849 1.22471 6.84187C1.2445 6.87285 1.2856 6.88185 1.31668 6.86234C1.34772 6.84254 1.35676 6.8013 1.33696 6.77037C1.30504 6.72013 1.30409 6.68916 1.31302 6.67784C1.3235 6.66444 1.35616 6.65755 1.39051 6.6695C1.41262 6.67717 1.46402 6.70371 1.46402 6.78387C1.46402 6.84789 1.43442 6.90656 1.38281 6.94467C1.33109 6.98292 1.2643 6.99385 1.19964 6.97368C1.11998 6.94935 1.06433 6.86543 1.06433 6.76956C1.06433 6.70097 1.07902 6.63164 1.10694 6.56892L1.53064 5.61563L1.95431 6.56896ZM1.46419 5.0519C1.4894 5.03228 1.51176 5.0088 1.5306 4.98225C1.54941 5.0088 1.57181 5.03225 1.59701 5.0519C1.57181 5.07151 1.54945 5.095 1.5306 5.12154C1.5118 5.095 1.48944 5.07151 1.46419 5.0519Z" fill="#FFE15A"/>
<path d="M9.51828 9.86606C10.4038 9.86606 11.1216 9.14822 11.1216 8.26273C11.1216 7.37724 10.4038 6.65941 9.51828 6.65941C8.63278 6.65941 7.91495 7.37724 7.91495 8.26273C7.91495 9.14822 8.63278 9.86606 9.51828 9.86606Z" fill="#FFE15A"/>
<path d="M9.63873 6.21853C9.63873 6.28494 9.58487 6.3388 9.51846 6.3388C9.45205 6.3388 9.39819 6.28494 9.39819 6.21853C9.39819 6.15212 9.51846 5.85776 9.51846 5.85776C9.51846 5.85776 9.63873 6.15212 9.63873 6.21853Z" fill="#FFE15A"/>
<path d="M9.39822 10.3073C9.39822 10.2409 9.45208 10.187 9.51849 10.187C9.5849 10.187 9.63876 10.2409 9.63876 10.3073C9.63876 10.3737 9.51849 10.6681 9.51849 10.6681C9.51849 10.6681 9.39822 10.3737 9.39822 10.3073Z" fill="#FFE15A"/>
<path d="M11.5629 8.38316C11.4965 8.38316 11.4426 8.3293 11.4426 8.26289C11.4426 8.19648 11.4965 8.14262 11.5629 8.14262C11.6293 8.14262 11.9237 8.26289 11.9237 8.26289C11.9237 8.26289 11.6293 8.38316 11.5629 8.38316Z" fill="#FFE15A"/>
<path d="M7.47401 8.14264C7.54042 8.14264 7.59428 8.1965 7.59428 8.26291C7.59428 8.32932 7.54042 8.38318 7.47401 8.38318C7.4076 8.38318 7.11324 8.26291 7.11324 8.26291C7.11324 8.26291 7.4076 8.14264 7.47401 8.14264Z" fill="#FFE15A"/>
<path d="M11.0491 6.90234C11.0021 6.9493 10.926 6.9493 10.879 6.90234C10.832 6.85537 10.8321 6.77925 10.879 6.73225C10.926 6.68525 11.2192 6.56216 11.2192 6.56216C11.2192 6.56216 11.0961 6.85537 11.0491 6.90234Z" fill="#FFE15A"/>
<path d="M7.98785 9.62347C8.03482 9.5765 8.11094 9.5765 8.15794 9.62347C8.20495 9.67043 8.20491 9.74654 8.15794 9.79355C8.11097 9.84055 7.81779 9.96359 7.81779 9.96359C7.81779 9.96359 7.94088 9.67047 7.98785 9.62347Z" fill="#FFE15A"/>
<path d="M10.8791 9.79355C10.8321 9.74658 10.8321 9.67047 10.8791 9.62347C10.926 9.57646 11.0022 9.5765 11.0492 9.62347C11.0962 9.67043 11.2192 9.9636 11.2192 9.9636C11.2192 9.9636 10.926 9.84048 10.8791 9.79355Z" fill="#FFE15A"/>
<path d="M8.15785 6.73226C8.20481 6.77923 8.20481 6.85534 8.15785 6.90234C8.11088 6.94934 8.03476 6.94931 7.98776 6.90234C7.94075 6.85537 7.81767 6.56221 7.81767 6.56221C7.81767 6.56221 8.11088 6.68533 8.15785 6.73226Z" fill="#FFE15A"/>
<path d="M8.84728 6.32811C8.8727 6.38949 8.84355 6.45981 8.78217 6.48522C8.72078 6.51064 8.65047 6.4815 8.62505 6.42011C8.59963 6.35873 8.59808 6.04077 8.59808 6.04077C8.59808 6.04077 8.82186 6.26672 8.84728 6.32811Z" fill="#FFE15A"/>
<path d="M10.1897 10.1977C10.1643 10.1363 10.1935 10.066 10.2548 10.0406C10.3162 10.0152 10.3865 10.0443 10.4119 10.1057C10.4374 10.1671 10.4389 10.485 10.4389 10.485C10.4389 10.485 10.2151 10.2591 10.1897 10.1977Z" fill="#FFE15A"/>
<path d="M11.4532 7.59169C11.3918 7.61711 11.3215 7.58796 11.2961 7.52658C11.2707 7.4652 11.2998 7.39488 11.3612 7.36946C11.4226 7.34405 11.7405 7.3425 11.7405 7.3425C11.7405 7.3425 11.5146 7.56624 11.4532 7.59169Z" fill="#FFE15A"/>
<path d="M7.58371 8.93413C7.64509 8.90871 7.7154 8.93785 7.74082 8.99924C7.76624 9.06063 7.73709 9.13095 7.67571 9.15637C7.61433 9.18179 7.29639 9.18334 7.29639 9.18334C7.29639 9.18334 7.52233 8.95958 7.58371 8.93413Z" fill="#FFE15A"/>
<path d="M10.4119 6.42013C10.3865 6.48151 10.3162 6.51062 10.2548 6.48524C10.1934 6.45982 10.1643 6.38947 10.1897 6.32813C10.2151 6.26678 10.4388 6.04083 10.4388 6.04083C10.4388 6.04083 10.4373 6.35878 10.4119 6.42013Z" fill="#FFE15A"/>
<path d="M8.62508 10.1057C8.65049 10.0443 8.72085 10.0152 8.7822 10.0406C8.84358 10.066 8.8727 10.1363 8.84731 10.1977C8.82189 10.259 8.59814 10.485 8.59814 10.485C8.59814 10.485 8.59966 10.167 8.62508 10.1057Z" fill="#FFE15A"/>
<path d="M11.3612 9.15635C11.2998 9.13093 11.2707 9.06058 11.2961 8.99924C11.3215 8.93785 11.3919 8.90875 11.4532 8.93413C11.5146 8.95951 11.7405 9.18328 11.7405 9.18328C11.7405 9.18328 11.4225 9.1818 11.3612 9.15635Z" fill="#FFE15A"/>
<path d="M7.67562 7.36946C7.73701 7.39488 7.76612 7.46522 7.74073 7.52657C7.71532 7.58792 7.64497 7.61706 7.58362 7.59168C7.52227 7.56626 7.29633 7.34253 7.29633 7.34253C7.29633 7.34253 7.61431 7.34401 7.67562 7.36946Z" fill="#FFE15A"/>
<path d="M9.23767 6.23434C9.25064 6.29948 9.20835 6.36279 9.14316 6.37573C9.07801 6.3887 9.01469 6.34641 9.00175 6.28123C8.98877 6.21609 9.04932 5.90395 9.04932 5.90395C9.04932 5.90395 9.2247 6.16919 9.23767 6.23434Z" fill="#FFE15A"/>
<path d="M9.7994 10.2915C9.78642 10.2263 9.82872 10.163 9.89389 10.1501C9.95907 10.1371 10.0224 10.1794 10.0353 10.2446C10.0483 10.3097 9.98772 10.6219 9.98772 10.6219C9.98772 10.6219 9.81233 10.3566 9.7994 10.2915Z" fill="#FFE15A"/>
<path d="M11.547 7.98201C11.4819 7.99498 11.4186 7.95269 11.4056 7.8875C11.3927 7.82232 11.4349 7.75904 11.5001 7.7461C11.5653 7.73313 11.8774 7.79367 11.8774 7.79367C11.8774 7.79367 11.6122 7.96907 11.547 7.98201Z" fill="#FFE15A"/>
<path d="M7.48989 8.54383C7.55503 8.53085 7.61835 8.57315 7.63129 8.63833C7.64426 8.70351 7.60197 8.7668 7.53679 8.77973C7.47164 8.79271 7.15948 8.73217 7.15948 8.73217C7.15948 8.73217 7.42474 8.55677 7.48989 8.54383Z" fill="#FFE15A"/>
<path d="M10.7542 6.62989C10.7174 6.68512 10.6427 6.69996 10.5874 6.66304C10.5322 6.62613 10.5174 6.55146 10.5543 6.49623C10.5912 6.441 10.8547 6.26308 10.8547 6.26308C10.8547 6.26308 10.7911 6.57463 10.7542 6.62989Z" fill="#FFE15A"/>
<path d="M8.28271 9.89593C8.31959 9.8407 8.3943 9.82587 8.44953 9.86278C8.50476 9.89966 8.5196 9.97436 8.48268 10.0296C8.4458 10.0848 8.18227 10.2627 8.18227 10.2627C8.18227 10.2627 8.24583 9.9512 8.28271 9.89593Z" fill="#FFE15A"/>
<path d="M11.1516 9.4987C11.0963 9.46182 11.0815 9.38711 11.1184 9.33188C11.1553 9.27665 11.23 9.26181 11.2852 9.29872C11.3405 9.33561 11.5184 9.59915 11.5184 9.59915C11.5184 9.59915 11.2068 9.53558 11.1516 9.4987Z" fill="#FFE15A"/>
<path d="M7.88546 7.02712C7.94069 7.064 7.95553 7.1387 7.91861 7.19393C7.88173 7.24916 7.80702 7.264 7.75179 7.22709C7.69656 7.19017 7.51863 6.92668 7.51863 6.92668C7.51863 6.92668 7.83026 6.99024 7.88546 7.02712Z" fill="#FFE15A"/>
<path d="M8.48268 6.49622C8.51956 6.55145 8.50473 6.62612 8.44953 6.66304C8.39433 6.69995 8.31962 6.68508 8.28271 6.62989C8.24583 6.57466 8.18227 6.26311 8.18227 6.26311C8.18227 6.26311 8.4458 6.44103 8.48268 6.49622Z" fill="#FFE15A"/>
<path d="M10.5543 10.0296C10.5174 9.97435 10.5323 9.89968 10.5875 9.86277C10.6427 9.82589 10.7174 9.84073 10.7543 9.89592C10.7912 9.95115 10.8547 10.2627 10.8547 10.2627C10.8547 10.2627 10.5912 10.0848 10.5543 10.0296Z" fill="#FFE15A"/>
<path d="M11.2851 7.22709C11.2299 7.26397 11.1552 7.24913 11.1183 7.19394C11.0814 7.13871 11.0963 7.06403 11.1515 7.02712C11.2067 6.99024 11.5183 6.92668 11.5183 6.92668C11.5183 6.92668 11.3404 7.19021 11.2851 7.22709Z" fill="#FFE15A"/>
<path d="M7.75174 9.29873C7.80697 9.26185 7.88165 9.27669 7.91856 9.33189C7.95544 9.38712 7.9406 9.46179 7.88541 9.49871C7.83018 9.53559 7.51862 9.59916 7.51862 9.59916C7.51862 9.59916 7.69651 9.33561 7.75174 9.29873Z" fill="#FFE15A"/>
<path d="M10.0353 6.28124C10.0223 6.34638 9.95906 6.38871 9.89392 6.37574C9.82878 6.36277 9.78645 6.29949 9.79943 6.23434C9.8124 6.1692 9.98775 5.90395 9.98775 5.90395C9.98775 5.90395 10.0483 6.2161 10.0353 6.28124Z" fill="#FFE15A"/>
<path d="M9.00166 10.2446C9.01464 10.1794 9.07792 10.1371 9.14308 10.1501C9.20823 10.163 9.25056 10.2263 9.23758 10.2915C9.22461 10.3566 9.04923 10.6219 9.04923 10.6219C9.04923 10.6219 8.98872 10.3097 9.00166 10.2446Z" fill="#FFE15A"/>
<path d="M11.5001 8.77973C11.435 8.76676 11.3926 8.70348 11.4056 8.63833C11.4186 8.57318 11.4819 8.53085 11.547 8.54383C11.6121 8.5568 11.8774 8.73216 11.8774 8.73216C11.8774 8.73216 11.5652 8.79267 11.5001 8.77973Z" fill="#FFE15A"/>
<path d="M7.53682 7.74608C7.60197 7.75905 7.6443 7.82233 7.63132 7.88748C7.61835 7.95263 7.55507 7.99496 7.48993 7.98198C7.42478 7.96901 7.15953 7.79364 7.15953 7.79364C7.15953 7.79364 7.47168 7.73314 7.53682 7.74608Z" fill="#FFE15A"/>
<path d="M13.29 8.68477C13.243 8.66501 13.1893 8.68765 13.1697 8.73434C13.1697 8.73455 13.1697 8.73455 13.1697 8.73455C13.1694 8.73543 13.1676 8.73976 13.1644 8.74714C13.0949 8.90949 12.9511 9.14676 12.8059 9.36996C12.9412 8.93463 13.0648 8.46965 13.0734 8.43696C13.0863 8.38812 13.0574 8.33799 13.0087 8.32474C12.9599 8.31162 12.9096 8.34003 12.896 8.38865C12.8329 8.61478 12.7038 8.91237 12.5847 9.1643C12.6066 8.8834 12.6107 8.62318 12.611 8.60433C12.6117 8.55459 12.5727 8.51346 12.523 8.5111C12.4762 8.51254 12.431 8.54668 12.4273 8.59639C12.3096 10.216 10.7512 10.9405 10.5994 11.0071C10.5201 11.015 10.1502 11.0567 9.81461 11.1732C9.77657 11.1865 9.74416 11.1997 9.71188 11.2129C9.6999 11.2084 9.68703 11.2058 9.67349 11.2066C8.64335 11.2812 7.82196 10.8586 7.23162 9.95324C6.78559 9.26917 6.64571 8.55114 6.64434 8.54397C6.63492 8.49405 6.5871 8.46188 6.53697 8.47071C6.48705 8.4802 6.45425 8.52815 6.46371 8.57807C6.46743 8.5979 6.52881 8.91132 6.69785 9.32381C6.47169 8.96679 6.31408 8.5343 6.25861 8.30906C6.25748 8.30456 6.2546 8.30115 6.25291 8.297C6.25031 8.29064 6.24813 8.28424 6.2443 8.27872C6.24159 8.27481 6.23804 8.27197 6.23484 8.26856C6.22981 8.26325 6.225 8.25805 6.21884 8.25407C6.21533 8.25179 6.21139 8.25066 6.20756 8.24887C6.20077 8.24571 6.19413 8.24258 6.18657 8.24114C6.18133 8.24012 6.17599 8.24078 6.17054 8.24068C6.16502 8.24061 6.15982 8.2392 6.15416 8.24019C6.15293 8.2404 6.15198 8.24124 6.15075 8.24152C6.14955 8.24177 6.14843 8.24138 6.14723 8.24163C6.14231 8.24282 6.13855 8.24592 6.13405 8.24785C6.12832 8.25035 6.12245 8.25221 6.11742 8.25569C6.11246 8.2591 6.10877 8.26353 6.10466 8.26778C6.10054 8.272 6.09625 8.27573 6.09302 8.28062C6.08975 8.28557 6.08799 8.29116 6.08567 8.29668C6.08346 8.30206 6.08089 8.30712 6.07973 8.31292C6.07854 8.31887 6.07906 8.32498 6.0791 8.33121C6.0791 8.33616 6.07773 8.34091 6.07861 8.34597C6.07896 8.34815 6.07966 8.35033 6.08005 8.35244V8.35279C6.08015 8.35318 6.08029 8.35371 6.0804 8.35413C6.13728 8.68927 6.27284 9.03668 6.39543 9.30162C6.20077 9.08073 6.03811 8.82624 5.98045 8.67553C5.9788 8.67113 5.97546 8.66807 5.97321 8.66413C5.9698 8.65805 5.96681 8.65183 5.9622 8.6468C5.95893 8.64322 5.95496 8.6409 5.95124 8.63791C5.94565 8.63341 5.94034 8.62887 5.93387 8.62578C5.92972 8.62381 5.92522 8.62318 5.92083 8.62181C5.91404 8.61977 5.90747 8.61752 5.90026 8.61706C5.8946 8.61667 5.88897 8.61812 5.88324 8.61885C5.87793 8.61952 5.8727 8.61885 5.86742 8.62051C5.8664 8.62082 5.8657 8.62163 5.86475 8.62198C5.86377 8.6223 5.86278 8.62209 5.8618 8.62247C5.85681 8.62437 5.85326 8.62806 5.84879 8.6307C5.84355 8.63379 5.83796 8.63636 5.8335 8.64037C5.82893 8.64448 5.82576 8.64958 5.82218 8.65447C5.81877 8.65907 5.81497 8.66319 5.81244 8.66832C5.8098 8.6737 5.80882 8.67953 5.80731 8.68533C5.80579 8.69099 5.80379 8.69627 5.8034 8.70221C5.80298 8.70815 5.80446 8.71409 5.80523 8.7201C5.8059 8.72531 5.8052 8.73047 5.80681 8.73561C5.90687 9.05834 6.14748 9.44232 6.33598 9.71281C6.17891 9.59177 6.06345 9.46084 6.02995 9.42133C6.02633 9.41704 6.02278 9.41272 6.01916 9.40843C5.98674 9.36944 5.92947 9.36388 5.8902 9.39566C5.85108 9.42762 5.84492 9.48514 5.87656 9.52441C5.87829 9.52659 5.88518 9.5352 5.89671 9.54866C6.03466 9.71281 6.18495 9.86598 6.32111 9.99532L6.13486 9.91594C6.09239 9.89762 6.04247 9.91415 6.01923 9.95454C5.99595 9.99497 6.00647 10.0461 6.04373 10.0741C6.06187 10.0876 6.39171 10.334 6.67724 10.4797C6.65031 10.4813 6.61871 10.4793 6.58334 10.4766C6.54017 10.4725 6.4977 10.5034 6.48719 10.5472C6.47685 10.5912 6.49985 10.6361 6.54161 10.6533C6.54864 10.6562 6.63565 10.6921 6.74309 10.7303C6.71803 10.7406 6.69809 10.7616 6.68983 10.7889C6.67746 10.8297 6.69486 10.8738 6.73184 10.895C6.74147 10.9006 6.87145 10.9751 7.03229 11.0412C7.028 11.0478 7.02448 11.055 7.02184 11.0629C7.00926 11.1015 7.02364 11.1439 7.05714 11.1671C7.08505 11.1863 7.7096 11.6101 8.43902 11.6101C8.4869 11.6101 8.53528 11.6083 8.58394 11.6044C8.63449 11.6004 8.67232 11.5561 8.66827 11.5054C8.66423 11.4548 8.62032 11.4165 8.56924 11.4212C8.11102 11.4586 7.66956 11.2865 7.40701 11.155C7.44168 11.1465 7.46161 11.1388 7.46657 11.1369C7.50707 11.1204 7.53041 11.0778 7.5225 11.0349C7.51459 10.992 7.47761 10.9605 7.43387 10.9596C7.32728 10.9574 7.17966 10.9055 7.0525 10.8498C7.10052 10.8258 7.12858 10.8028 7.13104 10.8008C7.15871 10.7776 7.17038 10.7406 7.16096 10.7058C7.15146 10.6711 7.1225 10.6451 7.08699 10.6394C7.04793 10.6329 6.99924 10.6203 6.94826 10.6049C6.99783 10.5763 7.01893 10.5449 7.02701 10.5289C7.03977 10.5034 7.04006 10.4736 7.02782 10.4479C7.01552 10.4222 6.9921 10.4037 6.96422 10.3978C6.94018 10.3926 6.91293 10.3838 6.88351 10.3723C6.88888 10.3669 6.89384 10.3608 6.89785 10.3538C6.92126 10.3141 6.91159 10.2631 6.87524 10.2345C6.87334 10.2331 6.80198 10.1771 6.69391 10.0838C6.71106 10.0776 6.72622 10.0659 6.73719 10.0501C6.76035 10.0167 6.75877 9.97198 6.73332 9.94034C6.73128 9.93781 6.65981 9.84795 6.5613 9.71147C6.59382 9.73671 6.6263 9.76252 6.65879 9.7834C6.67408 9.79311 6.69138 9.79796 6.70853 9.79796C6.73181 9.79796 6.75476 9.78917 6.77245 9.77208C6.77972 9.76505 6.78542 9.75696 6.78992 9.74835C6.84571 9.80794 6.90432 9.86205 6.96588 9.90821C6.97389 9.91422 6.98363 9.91411 6.99263 9.91714C7.01872 9.96087 7.04586 10.0047 7.07433 10.0485C7.63272 10.9076 8.42004 11.3678 9.36433 11.3955C9.27739 11.4483 9.18299 11.5028 9.03355 11.561C9.00092 11.5738 8.97209 11.5865 8.94313 11.5993C8.92913 11.602 8.91602 11.6071 8.90509 11.6157C8.64423 11.7365 8.53623 11.8558 8.49242 11.9393C8.44869 12.0223 8.48641 12.1074 8.53981 12.1516C8.55641 12.1652 8.57754 12.1722 8.5987 12.1722C8.61326 12.1722 8.62781 12.169 8.64099 12.1623C8.67351 12.1461 8.69524 12.1118 8.6938 12.0758C8.69756 12.0716 8.71356 12.0584 8.76365 12.0567C8.80018 12.0536 8.87707 12.0619 8.96679 12.0691C9.05214 12.0761 9.15452 12.0841 9.26336 12.0897C9.19527 12.1691 9.11613 12.2611 9.11613 12.2611C9.09236 12.2887 9.08712 12.3279 9.10294 12.3607C9.11883 12.3938 9.15308 12.4143 9.18897 12.413C9.26164 12.4104 9.311 12.409 9.34341 12.4083C9.37168 12.4454 9.40638 12.4601 9.42874 12.4658C9.49198 12.482 9.55502 12.4566 9.60248 12.4267C9.63841 12.4525 9.67434 12.4635 9.70281 12.4676C9.76701 12.4764 9.82646 12.4577 9.86945 12.4365C9.914 12.4653 9.95762 12.4726 9.99088 12.4726C9.99134 12.4726 9.99187 12.4726 9.99239 12.4726C10.0641 12.4723 10.1269 12.4376 10.1713 12.4037C10.2106 12.427 10.2481 12.4345 10.2771 12.4358C10.343 12.4382 10.3975 12.4128 10.4338 12.3891C10.5634 12.4151 10.6751 12.3541 10.7489 12.2867C10.7826 12.3063 10.8146 12.3112 10.8401 12.3099C10.9058 12.3076 10.9558 12.2677 10.9879 12.232C11.1348 12.2497 11.2402 12.2226 11.3012 12.1503C11.3344 12.1109 11.3479 12.0666 11.3515 12.0262C11.7591 12.0238 11.796 11.8013 11.799 11.7738C11.8017 11.7488 11.7941 11.7239 11.7778 11.7047C11.7617 11.6855 11.7382 11.6736 11.7132 11.6722L10.6446 11.6079C10.5999 11.6047 10.56 11.6347 10.5496 11.6783C10.5494 11.679 10.5312 11.7469 10.4742 11.8012C10.3975 11.8744 10.274 11.9131 10.1396 11.9336C10.1401 11.9213 10.1384 11.9088 10.1337 11.8965C10.1154 11.8491 10.062 11.8261 10.0148 11.8439C9.79418 11.9295 9.437 11.9188 9.15758 11.8993C9.20043 11.8643 9.25204 11.8296 9.29328 11.807C9.32812 11.7878 9.34682 11.7485 9.33944 11.7093C9.3341 11.6809 9.31353 11.6611 9.28871 11.6484C9.36641 11.6091 9.43011 11.5712 9.49054 11.5344C9.59545 11.4701 9.69455 11.4096 9.87504 11.3469C10.2234 11.2259 10.6266 11.1891 10.6307 11.1887C10.6398 11.1879 10.6488 11.1856 10.6573 11.1822C10.6717 11.1763 11.809 10.6998 12.3448 9.60048C12.3378 9.63371 12.3302 9.66408 12.322 9.69062C12.3081 9.73591 12.3307 9.78421 12.3743 9.80249C12.408 9.81669 12.4464 9.80931 12.4724 9.78527C12.4385 9.87453 12.4079 9.94473 12.3829 9.98622C12.3574 10.0284 12.3697 10.0832 12.4107 10.1105C12.4204 10.1168 12.4307 10.1211 12.4413 10.1236C12.3998 10.1843 12.3577 10.2418 12.3158 10.2944C12.2879 10.3294 12.2895 10.3794 12.3187 10.4124C12.2467 10.4878 12.1828 10.55 12.1343 10.5895C12.1026 10.6152 12.0923 10.6581 12.1069 10.6948C12.0601 10.7215 12.0216 10.7404 11.995 10.7484C11.9503 10.7619 11.9228 10.807 11.9313 10.853C11.9356 10.8772 11.9493 10.8977 11.9681 10.9111C11.9119 10.9262 11.8504 10.9408 11.7836 10.954C11.746 10.9616 11.7169 10.9916 11.7108 11.0294C11.7047 11.0673 11.7227 11.1051 11.7559 11.1241C11.7588 11.1257 11.7902 11.1435 11.8383 11.164C11.6604 11.2356 11.3428 11.3292 10.8216 11.3805C10.7711 11.3856 10.7342 11.4307 10.7392 11.4811C10.7441 11.5316 10.7878 11.5666 10.8398 11.5637C11.8291 11.4659 12.1346 11.2182 12.1471 11.2076C12.1757 11.1837 12.187 11.1448 12.1757 11.1092C12.1681 11.0857 12.1516 11.0667 12.1304 11.0557C12.4465 10.9562 12.5822 10.8461 12.5893 10.8402C12.6239 10.8114 12.6327 10.7617 12.6098 10.7227C12.5868 10.6837 12.539 10.6668 12.4972 10.6837C12.4855 10.6882 12.4667 10.6929 12.443 10.6975C12.6551 10.5523 12.8803 10.3793 12.9793 10.3021C12.9967 10.2892 13.0126 10.2767 13.0265 10.265C13.0649 10.2327 13.0703 10.1756 13.0386 10.1367C13.0071 10.0979 12.9497 10.0914 12.9103 10.1224C12.896 10.1338 12.881 10.1454 12.8656 10.1575C12.8199 10.1914 12.7614 10.2299 12.6977 10.2693C12.9384 9.99599 13.1808 9.69966 13.25 9.61455C13.2563 9.60681 13.2625 9.59911 13.2688 9.59138C13.3005 9.55186 13.2944 9.49403 13.2548 9.46225C13.2152 9.42994 13.1573 9.43659 13.1256 9.47589L13.1254 9.4761L13.1253 9.47631C13.1236 9.47828 13.1158 9.48798 13.1027 9.50416C13.0302 9.59268 12.9538 9.67839 12.8785 9.75844C13.1237 9.31396 13.3094 8.87644 13.3367 8.81161C13.3376 8.80929 13.3386 8.80697 13.3395 8.80458C13.359 8.75807 13.3369 8.70418 13.29 8.68477ZM8.98018 11.7844L9.00528 11.7877C8.97448 11.8164 8.94942 11.8487 8.92952 11.8821C8.88586 11.8785 8.84624 11.8754 8.81519 11.8741C8.85798 11.8461 8.91303 11.8158 8.98018 11.7844Z" fill="#FFE15A"/>
</svg>
