<svg width="23" height="23" viewBox="0 0 23 23" fill="none" xmlns="http://www.w3.org/2000/svg">
<path fill-rule="evenodd" clip-rule="evenodd" d="M11.5931 22.0144H11.5887C9.79733 22.0137 8.03716 21.5643 6.47382 20.7116L0.799805 22.2L2.31827 16.6536C1.3816 15.0304 0.888739 13.1891 0.889542 11.3027C0.89189 5.40125 5.69342 0.599976 11.593 0.599976C14.4563 0.601211 17.1437 1.71587 19.1645 3.73903C21.1853 5.76209 22.2975 8.45123 22.2964 11.3111C22.294 17.2112 17.4944 22.012 11.5931 22.0144ZM6.73671 18.7739L7.06156 18.9667C8.42744 19.7772 9.99315 20.2061 11.5895 20.2067H11.5931C16.4964 20.2067 20.4872 16.2158 20.4892 11.3105C20.4901 8.93338 19.5657 6.69829 17.8861 5.01672C16.2064 3.33514 13.9728 2.40863 11.5966 2.4078C6.6895 2.4078 2.69864 6.3983 2.69669 11.3033C2.696 12.9843 3.16633 14.6213 4.05686 16.0377L4.26838 16.3743L3.36967 19.6571L6.73671 18.7739ZM16.6191 13.6155C16.8056 13.7057 16.9316 13.7665 16.9854 13.8563C17.0522 13.9678 17.0522 14.5033 16.8295 15.1281C16.6065 15.7528 15.5381 16.323 15.0242 16.3997C14.5635 16.4686 13.9804 16.4973 13.3398 16.2937C12.9513 16.1705 12.4532 16.006 11.8151 15.7304C9.30792 14.6478 7.61357 12.2178 7.29334 11.7585C7.27091 11.7263 7.25522 11.7038 7.24647 11.6921L7.24431 11.6893C7.10279 11.5004 6.15444 10.2351 6.15444 8.92555C6.15444 7.69365 6.75957 7.04795 7.03811 6.75074C7.05719 6.73037 7.07474 6.71165 7.09046 6.69448C7.3356 6.42673 7.62535 6.35979 7.80363 6.35979C7.9819 6.35979 8.16039 6.36144 8.31621 6.36926C8.33544 6.37023 8.35544 6.37011 8.37611 6.36999C8.53196 6.36908 8.72626 6.36794 8.91794 6.82835C8.99168 7.00555 9.09959 7.26826 9.2134 7.54533C9.44352 8.10557 9.69777 8.72455 9.7425 8.81413C9.80938 8.948 9.85394 9.10412 9.7648 9.28269C9.75142 9.30946 9.73904 9.33473 9.72722 9.35887C9.66026 9.49557 9.61101 9.59612 9.49737 9.7288C9.45268 9.78098 9.4065 9.83722 9.36032 9.89347C9.26831 10.0055 9.17631 10.1176 9.0962 10.1974C8.96231 10.3307 8.82294 10.4754 8.97894 10.7432C9.13495 11.0109 9.67168 11.8867 10.4667 12.5958C11.3214 13.3581 12.0642 13.6803 12.4407 13.8437C12.5142 13.8755 12.5738 13.9014 12.6175 13.9233C12.8848 14.0572 13.0408 14.0348 13.1968 13.8563C13.3528 13.6778 13.8654 13.0754 14.0436 12.8077C14.2219 12.54 14.4003 12.5846 14.6454 12.6738C14.8906 12.7632 16.2054 13.4101 16.4729 13.5439C16.5251 13.5701 16.5739 13.5936 16.6191 13.6155Z" fill="#FDFDFD"/>
</svg>
