<svg width="100" height="100" viewBox="0 0 100 100" fill="none" xmlns="http://www.w3.org/2000/svg">
<path fill-rule="evenodd" clip-rule="evenodd" d="M52 67C54.7614 67 57 64.7614 57 62C57 59.2386 54.7614 57 52 57C49.2386 57 47 59.2386 47 62C47 64.7614 49.2386 67 52 67ZM54 62C54 63.1046 53.1046 64 52 64C50.8954 64 50 63.1046 50 62C50 60.8954 50.8954 60 52 60C53.1046 60 54 60.8954 54 62Z" fill="#128AD6"/>
<path fill-rule="evenodd" clip-rule="evenodd" d="M41 62C41 55.9249 45.9249 51 52 51C58.0751 51 63 55.9249 63 62C63 68.0751 58.0751 73 52 73C45.9249 73 41 68.0751 41 62ZM52 55C48.134 55 45 58.134 45 62C45 65.866 48.134 69 52 69C55.866 69 59 65.866 59 62C59 58.134 55.866 55 52 55Z" fill="#128AD6"/>
<path fill-rule="evenodd" clip-rule="evenodd" d="M10 11C10 7.68629 12.6863 5 16 5H85C88.3137 5 91 7.68629 91 11C91 13.4412 89.542 15.542 87.4493 16.4789C89.642 18.6533 91 21.668 91 25V68C91 71.332 89.642 74.3467 87.4493 76.5211C89.542 77.458 91 79.5588 91 82C91 85.3137 88.3137 88 85 88V94C85 95.6569 83.6569 97 82 97H62C60.3431 97 59 95.6569 59 94V88H42V94C42 95.6569 40.6569 97 39 97H19C17.3431 97 16 95.6569 16 94L16 88C12.6863 88 10 85.3137 10 82C10 79.5588 11.458 77.458 13.5507 76.5211C11.358 74.3467 10 71.332 10 68V25C10 21.668 11.358 18.6533 13.5507 16.4789C11.458 15.542 10 13.4412 10 11ZM85 13C86.1046 13 87 12.1046 87 11C87 9.89543 86.1046 9 85 9H16C14.8954 9 14 9.89543 14 11C14 12.1046 14.8954 13 16 13H85ZM22 17C17.5817 17 14 20.5817 14 25V68C14 72.4183 17.5817 76 22 76H25V17H22ZM73 76H29V48H73V76ZM73 44H29V31H73V44ZM77 76H79C83.4183 76 87 72.4183 87 68V25C87 20.5817 83.4183 17 79 17H77V76ZM29 17V27H73V17H29ZM16 80C14.8954 80 14 80.8954 14 82C14 83.1046 14.8954 84 16 84H85C86.1046 84 87 83.1046 87 82C87 80.8954 86.1046 80 85 80H16ZM81 88H63V93H81V88ZM20 88V93H38V88H20Z" fill="#128AD6"/>
</svg>
