<svg width="100" height="100" viewBox="0 0 100 100" fill="none" xmlns="http://www.w3.org/2000/svg">
<path d="M39.5 54C41.433 54 43 52.433 43 50.5C43 48.567 41.433 47 39.5 47C37.567 47 36 48.567 36 50.5C36 52.433 37.567 54 39.5 54Z" fill="#128AD6"/>
<path d="M43 72.5C43 74.433 41.433 76 39.5 76C37.567 76 36 74.433 36 72.5C36 70.567 37.567 69 39.5 69C41.433 69 43 70.567 43 72.5Z" fill="#128AD6"/>
<path d="M28.5 65C30.433 65 32 63.433 32 61.5C32 59.567 30.433 58 28.5 58C26.567 58 25 59.567 25 61.5C25 63.433 26.567 65 28.5 65Z" fill="#128AD6"/>
<path d="M54 61.5C54 63.433 52.433 65 50.5 65C48.567 65 47 63.433 47 61.5C47 59.567 48.567 58 50.5 58C52.433 58 54 59.567 54 61.5Z" fill="#128AD6"/>
<path d="M61.5 54C63.433 54 65 52.433 65 50.5C65 48.567 63.433 47 61.5 47C59.567 47 58 48.567 58 50.5C58 52.433 59.567 54 61.5 54Z" fill="#128AD6"/>
<path d="M65 72.5C65 74.433 63.433 76 61.5 76C59.567 76 58 74.433 58 72.5C58 70.567 59.567 69 61.5 69C63.433 69 65 70.567 65 72.5Z" fill="#128AD6"/>
<path d="M72.5 65C74.433 65 76 63.433 76 61.5C76 59.567 74.433 58 72.5 58C70.567 58 69 59.567 69 61.5C69 63.433 70.567 65 72.5 65Z" fill="#128AD6"/>
<path fill-rule="evenodd" clip-rule="evenodd" d="M89 82C89 88.6274 83.6274 94 77 94H24C17.3726 94 12 88.6274 12 82V10C12 8.34315 13.3431 7 15 7H86C87.6569 7 89 8.34315 89 10V82ZM16 20V11H85V20L16 20ZM16 24L85 24V27L16 27V24ZM16 31L85 31V82C85 86.4183 81.4183 90 77 90H24C19.5817 90 16 86.4183 16 82V31Z" fill="#128AD6"/>
</svg>
