<svg width="100" height="100" viewBox="0 0 100 100" fill="none" xmlns="http://www.w3.org/2000/svg">
<g clip-path="url(#clip0)">
<path d="M49.9667 100C49.6375 100 49.3042 99.9208 49.0042 99.7625L1.12083 74.7625C0.433326 74.4042 -7.62939e-06 73.6917 -7.62939e-06 72.9167V26.0416C-7.62939e-06 25.3208 0.374992 24.65 0.987492 24.2708C1.59999 23.8916 2.37083 23.8583 3.01249 24.1791L50.8958 48.1375C51.6 48.4917 52.0458 49.2125 52.0458 50V97.9167C52.0458 98.6458 51.6667 99.3208 51.0417 99.7C50.7167 99.9 50.3417 100 49.9667 100ZM4.16666 71.6542L47.8833 94.4792V51.2875L4.16666 29.4125V71.6542Z" fill="#128AD6"/>
<path d="M50.0333 100C49.6583 100 49.2833 99.9 48.9542 99.7C48.3333 99.3208 47.95 98.6458 47.95 97.9167V50C47.95 49.2125 48.3958 48.4916 49.1 48.1375L96.9833 24.1791C97.6208 23.8541 98.3958 23.8875 99.0083 24.2708C99.625 24.65 100 25.3208 100 26.0416V72.9166C100 73.6916 99.5667 74.4042 98.8792 74.7625L50.9958 99.7625C50.6958 99.9208 50.3625 100 50.0333 100V100ZM52.1167 51.2875V94.4792L95.8333 71.6542V29.4125L52.1167 51.2875ZM97.9167 72.9166H97.9583H97.9167Z" fill="#128AD6"/>
<path d="M2.08204 28.1256C1.31537 28.1256 0.582037 27.7048 0.21537 26.9756C-0.301296 25.9464 0.119537 24.6964 1.1487 24.1798L49.0987 0.221436C49.6862 -0.0702311 50.3779 -0.0702311 50.9612 0.221436L98.8445 24.1798C99.8737 24.6964 100.29 25.9464 99.7779 26.9756C99.2612 28.0048 98.0154 28.4173 96.982 27.9089L50.032 4.4131L3.01537 27.9048C2.71537 28.0548 2.3987 28.1256 2.08204 28.1256V28.1256Z" fill="#128AD6"/>
<path d="M75 62.5C73.85 62.5 72.9167 61.5666 72.9167 60.4166V38.7875L26.1833 15.4042C25.1542 14.8917 24.7375 13.6375 25.2542 12.6083C25.7708 11.5792 27.0208 11.1667 28.05 11.675L75.9333 35.6333C76.6375 35.9916 77.0833 36.7125 77.0833 37.5V60.4166C77.0833 61.5666 76.15 62.5 75 62.5V62.5Z" fill="#128AD6"/>
</g>
<defs>
<clipPath id="clip0">
<rect width="100" height="100" fill="white"/>
</clipPath>
</defs>
</svg>
