<svg width="100" height="100" viewBox="0 0 100 100" fill="none" xmlns="http://www.w3.org/2000/svg">
<path fill-rule="evenodd" clip-rule="evenodd" d="M60.8122 25.3319C62.0668 24.0254 63.2871 22.5726 64.3186 21.0574C65.8742 18.7723 67.1561 16.1193 67.2376 13.4924C67.2796 12.1392 67.0022 10.7781 66.269 9.52055C65.5384 8.26734 64.423 7.233 62.9675 6.42074C60.118 4.8305 55.8052 4 49.7579 4C43.707 4 39.3796 4.83171 36.4996 6.41444C33.4604 8.0847 32.0619 10.5927 32.0713 13.437C32.0801 16.0697 33.2924 18.7325 34.7899 21.0255C35.8576 22.6604 37.1461 24.2223 38.4653 25.6067C35.5901 27.8351 31.918 30.9979 28.5449 34.5509C24.437 38.8777 20.5028 44.0589 19.2714 48.9976C18.617 51.622 17.9941 54.337 17.3852 56.9915L17.2812 57.4449C16.6371 60.2518 16.0078 62.9798 15.3631 65.4972C14.7175 68.0182 14.0666 70.2876 13.3859 72.1788C12.6945 74.0997 12.0197 75.4933 11.376 76.3537C10.5994 77.3919 9.95674 78.1326 9.43341 78.7057C9.28343 78.87 9.12492 79.0394 8.96716 79.2079C8.63435 79.5636 8.30457 79.916 8.0656 80.2088C7.64643 80.7225 7.23953 81.3511 7.07595 82.2075C6.92507 82.9975 7.02144 83.7858 7.17344 84.5478C7.34943 85.43 7.85756 86.1087 8.35652 86.5928C8.8644 87.0855 9.48308 87.4948 10.118 87.836C11.3895 88.5193 12.9881 89.0681 14.6287 89.4702C17.8418 90.2577 21.784 90.6158 24.443 89.9493C24.6766 89.8907 25.1144 89.8557 25.8264 89.9217C26.5164 89.9857 27.3493 90.1328 28.318 90.3523C30.1002 90.7563 32.1715 91.365 34.4262 92.0276L35.059 92.2135C37.5243 92.9368 40.1641 93.6979 42.6821 94.2383C45.1496 94.7678 47.6414 95.1182 49.8323 94.9628C59.4815 94.9466 70.1192 91.7922 74.7238 90.0512C77.122 90.3014 80.5571 90.4002 83.6744 89.9169C85.3413 89.6584 87.0374 89.216 88.4587 88.4584C89.8893 87.6957 91.2144 86.5135 91.7481 84.7298C92.3707 82.6491 91.7402 80.3602 90.9107 78.268C90.2423 76.5821 89.2909 74.6748 88.2857 72.6597L88.2852 72.6587L88.2821 72.6525C88.004 72.095 87.7219 71.5294 87.4405 70.9579C84.7826 65.5599 81.9176 59.1137 81.3971 51.5458C80.932 44.7845 76.7864 38.7117 72.1358 34.0359C68.4291 30.3091 64.2277 27.2938 60.8122 25.3319ZM42.785 24.2564C41.1203 22.7034 39.419 20.7984 38.139 18.8384C36.8059 16.7971 36.0763 14.9191 36.0713 13.4237C36.0671 12.14 36.583 10.9329 38.4261 9.91994C39.2344 9.47577 40.2902 9.07738 41.644 8.76017L44.2111 13.8944C44.7051 14.8824 45.9065 15.2828 46.8944 14.7889C47.8824 14.2949 48.2828 13.0935 47.7889 12.1056L45.8091 8.14605C46.9898 8.05151 48.3021 8 49.7579 8C51.014 8 52.1618 8.03836 53.2092 8.10954L51.2111 12.1056C50.7172 13.0935 51.1176 14.2949 52.1056 14.7889C53.0935 15.2828 54.2949 14.8824 54.7889 13.8944L57.4057 8.6608C58.9625 8.99149 60.1433 9.4254 61.0182 9.91364C61.9667 10.443 62.5062 11.0082 62.8134 11.5352C63.1182 12.0579 63.2616 12.6575 63.2396 13.3683C63.193 14.8694 62.4071 16.7572 61.0121 18.8065C59.6554 20.7993 57.8672 22.7342 56.1342 24.3017C55.2409 25.0352 52.6292 26.5663 49.7579 26.5663C46.9049 26.5663 43.9583 25.0642 42.785 24.2564ZM57.6272 28.1433C56.8118 28.666 55.7341 29.2383 54.4774 29.6954C54.5551 29.8489 54.6713 30.0565 54.8163 30.3156C56.2437 32.8661 60.4635 40.4057 58.298 50.4786C58.0658 51.5585 57.0022 52.2457 55.9223 52.0135C54.8424 51.7814 54.1552 50.7178 54.3873 49.6379C56.1745 41.3249 53.0243 35.4607 51.4147 32.4645C51.0936 31.8667 50.8337 31.3829 50.6867 31.0168C50.6238 30.8601 50.5821 30.7001 50.5603 30.5401C50.2958 30.5573 50.0282 30.5663 49.7579 30.5663C49.2581 30.5663 48.7619 30.5353 48.2733 30.4789C48.2634 30.492 48.2532 30.5055 48.2427 30.5194C46.887 32.3169 40.9604 40.1746 39.953 50.2484C39.8431 51.3475 38.863 52.1494 37.764 52.0395C36.6649 51.9296 35.863 50.9495 35.9729 49.8504C36.9282 40.2969 41.7969 32.627 44.0949 29.4047C43.1449 29.0327 42.3022 28.6172 41.6173 28.2313C38.8054 30.3554 34.9476 33.6164 31.4457 37.3049C27.4106 41.5551 24.1169 46.0976 23.1525 49.9653C22.5076 52.5518 21.8926 55.2327 21.2815 57.8965L21.1799 58.3395C20.5373 61.1398 19.8972 63.9158 19.2381 66.4895C18.5799 69.0598 17.8927 71.4687 17.1495 73.5335C16.417 75.5686 15.5822 77.4086 14.579 78.7497C13.7087 79.9131 12.979 80.7548 12.3873 81.4029C12.1242 81.6911 11.917 81.9116 11.7459 82.0937C11.4953 82.3604 11.3223 82.5446 11.1647 82.7378C11.0591 82.8672 11.0202 82.9322 11.007 82.9571L11.0042 82.9625C10.9992 82.9948 10.983 83.1604 11.0741 83.651C11.0896 83.6688 11.1115 83.6925 11.1418 83.7219C11.2965 83.872 11.5742 84.0776 12.0115 84.3126C12.8844 84.7817 14.1335 85.2305 15.5808 85.5852C18.5435 86.3113 21.7378 86.5036 23.4705 86.0693C24.3348 85.8527 25.2866 85.8545 26.1957 85.9388C27.1268 86.0252 28.1466 86.212 29.2023 86.4513C31.1152 86.8849 33.3108 87.5304 35.5305 88.1829L36.1853 88.3753C38.6606 89.1016 41.1674 89.8222 43.5214 90.3273C45.8964 90.837 47.972 91.094 49.6049 90.9687L49.6813 90.9629H49.7579C59.0697 90.9629 69.6389 87.7528 73.7307 86.1475L74.1998 85.9634L74.7 86.0236C76.8713 86.2849 80.191 86.4092 83.0616 85.9641C84.501 85.7409 85.7075 85.3921 86.577 84.9286C87.4371 84.4701 87.7909 84.0011 87.916 83.5832C88.1168 82.9119 87.9925 81.7608 87.1923 79.7422C86.593 78.2306 85.7473 76.5344 84.759 74.5522L84.7584 74.551L84.7548 74.5436C84.4652 73.9627 84.1634 73.3573 83.8519 72.7248C81.1574 67.2524 77.9838 60.2139 77.4065 51.8203C77.0387 46.4728 73.6818 41.2625 69.2998 36.8567C65.3879 32.9236 60.8769 29.8527 57.6272 28.1433Z" fill="#128AD6"/>
</svg>
