<svg width="100" height="100" viewBox="0 0 100 100" fill="none" xmlns="http://www.w3.org/2000/svg">
<g clip-path="url(#clip0)">
<path d="M81.25 100H18.75C17.6 100 16.6667 99.0666 16.6667 97.9166V10.4166C16.6667 9.26665 17.6 8.33331 18.75 8.33331H81.25C82.4 8.33331 83.3334 9.26665 83.3334 10.4166V97.9166C83.3334 99.0666 82.4 100 81.25 100ZM20.8334 95.8333H79.1667V12.5H20.8334V95.8333Z" fill="#128AD6"/>
<path d="M72.9167 12.5C71.7667 12.5 70.8333 11.5667 70.8333 10.4167V4.16667H58.3333V10.4167C58.3333 11.5667 57.4 12.5 56.25 12.5C55.1 12.5 54.1667 11.5667 54.1667 10.4167V2.08333C54.1667 0.933333 55.1 0 56.25 0H72.9167C74.0667 0 75 0.933333 75 2.08333V10.4167C75 11.5667 74.0667 12.5 72.9167 12.5Z" fill="#128AD6"/>
<path d="M85.4167 12.5H14.5833C13.4333 12.5 12.5 11.5666 12.5 10.4166C12.5 9.26665 13.4333 8.33331 14.5833 8.33331H85.4167C86.5667 8.33331 87.5 9.26665 87.5 10.4166C87.5 11.5666 86.5667 12.5 85.4167 12.5Z" fill="#128AD6"/>
<path d="M85.4167 100H14.5833C13.4333 100 12.5 99.0667 12.5 97.9167C12.5 96.7667 13.4333 95.8334 14.5833 95.8334H85.4167C86.5667 95.8334 87.5 96.7667 87.5 97.9167C87.5 99.0667 86.5667 100 85.4167 100Z" fill="#128AD6"/>
<path d="M85.4167 33.3334H14.5833C13.4333 33.3334 12.5 32.4 12.5 31.25C12.5 30.1 13.4333 29.1667 14.5833 29.1667H85.4167C86.5667 29.1667 87.5 30.1 87.5 31.25C87.5 32.4 86.5667 33.3334 85.4167 33.3334Z" fill="#128AD6"/>
<path d="M85.4167 79.1667H14.5833C13.4333 79.1667 12.5 78.2333 12.5 77.0833C12.5 75.9333 13.4333 75 14.5833 75H85.4167C86.5667 75 87.5 75.9333 87.5 77.0833C87.5 78.2333 86.5667 79.1667 85.4167 79.1667Z" fill="#128AD6"/>
<path d="M50 70.8333C43.9875 70.8333 37.5 66.7208 37.5 60.0708C37.5 54.4292 46.55 42.675 48.3625 40.375C49.15 39.375 50.8458 39.375 51.6333 40.375C53.45 42.675 62.5 54.425 62.5 60.0708C62.5 66.7208 56.0125 70.8333 50 70.8333ZM50 45.0958C46.1167 50.3292 41.6667 57.3708 41.6667 60.0708C41.6667 64.1458 45.9917 66.6667 50 66.6667C54.0083 66.6667 58.3333 64.1458 58.3333 60.0708C58.3333 57.375 53.8833 50.3292 50 45.0958Z" fill="#128AD6"/>
</g>
<defs>
<clipPath id="clip0">
<rect width="100" height="100" fill="white"/>
</clipPath>
</defs>
</svg>
