<svg width="100" height="100" viewBox="0 0 100 100" fill="none" xmlns="http://www.w3.org/2000/svg">
<path fill-rule="evenodd" clip-rule="evenodd" d="M63.0175 19V8C63.0175 4.68629 60.3312 2 57.0175 2H43.064C39.7503 2 37.064 4.6863 37.064 8V19H30.1054C27.5888 19 25.4643 20.8704 25.1456 23.3668L16.7192 89.3668C16.3377 92.3553 18.6662 95 21.679 95H79.3211C82.3338 95 84.6624 92.3553 84.2808 89.3668L75.8544 23.3668C75.5357 20.8704 73.4113 19 70.8947 19H63.0175ZM57.0175 6H43.064C41.9594 6 41.064 6.89543 41.064 8V19H59.0175V8C59.0175 6.89543 58.122 6 57.0175 6ZM30.1054 23H70.8947C71.398 23 71.8229 23.3741 71.8866 23.8734L80.313 89.8734C80.3893 90.4711 79.9236 91 79.3211 91H21.679C21.0764 91 20.6107 90.4711 20.687 89.8734L29.1134 23.8734C29.1772 23.3741 29.602 23 30.1054 23Z" fill="#128AD6"/>
</svg>
