<svg width="32" height="32" viewBox="0 0 32 32" fill="none" xmlns="http://www.w3.org/2000/svg">
<g clip-path="url(#clip0)">
<path fill-rule="evenodd" clip-rule="evenodd" d="M11.0882 0H20.9118C29.8772 0 32 2.12279 32 11.0882V20.9118C32 29.8772 29.8772 32 20.9118 32H11.0882C2.12279 32 0 29.8772 0 20.9118V11.0882C0 2.12279 2.12279 0 11.0882 0Z" fill="#4680C2"/>
<path fill-rule="evenodd" clip-rule="evenodd" d="M26.1548 10.2137C26.3129 9.71694 26.1548 9.35561 25.4547 9.35561H23.1287C22.5415 9.35561 22.2705 9.67174 22.1125 10.0105C22.1125 10.0105 20.9155 12.9011 19.2444 14.7755C18.7024 15.3175 18.454 15.4981 18.1605 15.4981C18.0023 15.4981 17.7991 15.3175 17.7991 14.8207V10.1911C17.7991 9.60401 17.6185 9.33301 17.1216 9.33301H13.4632C13.1019 9.33301 12.8761 9.60401 12.8761 9.87501C12.8761 10.4396 13.7116 10.5751 13.8019 12.1559V15.5885C13.8019 16.3337 13.6665 16.4692 13.3729 16.4692C12.5825 16.4692 10.6629 13.556 9.51119 10.2363C9.28532 9.58141 9.05952 9.33301 8.47239 9.33301H6.12372C5.44625 9.33301 5.33333 9.64921 5.33333 9.98794C5.33333 10.5977 6.12372 13.6689 9.01432 17.7339C10.9339 20.5115 13.6665 22.002 16.128 22.002C17.6185 22.002 17.7991 21.6633 17.7991 21.0987V18.9985C17.7991 18.321 17.9346 18.2081 18.4089 18.2081C18.7476 18.2081 19.3573 18.3887 20.7349 19.7211C22.3157 21.3019 22.5867 22.0246 23.4674 22.0246H25.7935C26.4709 22.0246 26.7871 21.6859 26.6065 21.0309C26.4032 20.3761 25.6354 19.4276 24.6417 18.2984C24.0997 17.6661 23.2867 16.9661 23.0383 16.6273C22.6996 16.1757 22.7899 15.995 23.0383 15.5885C23.0158 15.5885 25.8612 11.5687 26.1548 10.2137Z" fill="white"/>
</g>
<defs>
<clipPath id="clip0">
<path d="M0 16C0 7.16344 7.16344 0 16 0C24.8366 0 32 7.16344 32 16C32 24.8366 24.8366 32 16 32C7.16344 32 0 24.8366 0 16Z" fill="white"/>
</clipPath>
</defs>
</svg>
