<svg width="18" height="18" viewBox="0 0 18 18" fill="none" xmlns="http://www.w3.org/2000/svg">
<path fill-rule="evenodd" clip-rule="evenodd" d="M0 9C0 4.0302 4.0302 0 9 0C13.9698 0 18 4.0302 18 9C18 13.9698 13.9698 18 9 18C4.0302 18 0 13.9698 0 9ZM9.18855 14.2401H9.19075C12.1594 14.2401 14.5761 11.8243 14.5773 8.85512C14.5779 7.41632 14.0181 6.06335 13.0011 5.04547C11.9842 4.02773 10.6316 3.46687 9.19075 3.46632C6.22169 3.46632 3.80525 5.88181 3.80402 8.85086C3.8036 9.79994 4.05162 10.7264 4.52307 11.5429L3.75883 14.3335L6.61432 13.5846C7.40108 14.0136 8.28699 14.2397 9.18855 14.2401ZM4.71341 8.85127C4.71451 6.38347 6.72295 4.37585 9.19254 4.37585C10.3883 4.37627 11.5124 4.8425 12.3577 5.68845C13.203 6.53439 13.6682 7.65884 13.6678 8.85484C13.6667 11.3228 11.6583 13.3305 9.19061 13.3305H9.18883C8.38545 13.3303 7.59746 13.1145 6.91013 12.7066L6.74657 12.6097L5.05206 13.0541L5.50443 11.4024L5.398 11.2331C4.94989 10.5205 4.71314 9.69695 4.71341 8.85127ZM10.9175 11.4153C11.1761 11.3766 11.7138 11.0897 11.826 10.7755C11.9382 10.4612 11.9382 10.1919 11.9044 10.1357C11.8773 10.0905 11.814 10.0599 11.7202 10.0146C11.6974 10.0036 11.6728 9.99167 11.6465 9.97847C11.5119 9.91118 10.8502 9.58557 10.7268 9.5408C10.6035 9.4959 10.5136 9.47337 10.424 9.60809C10.3343 9.74281 10.0762 10.0459 9.99783 10.1357C9.91928 10.2254 9.84073 10.2366 9.70628 10.1694C9.68422 10.1583 9.65413 10.1452 9.61696 10.1291C9.42737 10.0469 9.05374 9.88479 8.62386 9.50153C8.22382 9.14474 7.95355 8.70406 7.87514 8.56947C7.80478 8.4488 7.85991 8.38333 7.91511 8.31779C7.92154 8.31016 7.92796 8.30253 7.93419 8.29482C8.0766 8.11821 8.22574 7.92444 8.27065 7.83463C8.31542 7.74481 8.29303 7.66626 8.25939 7.59883C8.23689 7.55383 8.10907 7.24281 7.9933 6.9611C7.93595 6.82154 7.88155 6.68916 7.84438 6.5999C7.74798 6.36819 7.6502 6.36879 7.57172 6.36927C7.56131 6.36933 7.55124 6.36939 7.54157 6.36891C7.46315 6.36507 7.37334 6.36424 7.28366 6.36424C7.19399 6.36424 7.04814 6.39789 6.92468 6.53261C6.91681 6.5412 6.90802 6.55058 6.89846 6.56077C6.75837 6.71015 6.45364 7.03509 6.45364 7.655C6.45364 8.3136 6.93052 8.94994 7.00206 9.0454L7.00324 9.04697C7.00765 9.05285 7.01556 9.06419 7.02687 9.08041C7.18813 9.3116 8.04081 10.534 9.3024 11.0786C9.62361 11.2172 9.87424 11.3 10.0698 11.3621C10.3922 11.4644 10.6856 11.45 10.9175 11.4153Z" fill="#26D145"/>
</svg>
