<svg width="32" height="32" viewBox="0 0 32 32" fill="none" xmlns="http://www.w3.org/2000/svg">
<path d="M0 16C0 7.16344 7.16344 0 16 0C24.8366 0 32 7.16344 32 16C32 24.8366 24.8366 32 16 32C7.16344 32 0 24.8366 0 16Z" fill="#FF0000"/>
<path d="M24.1767 12.0493C23.9804 11.2953 23.4021 10.7015 22.6678 10.5C21.3369 10.1338 16 10.1338 16 10.1338C16 10.1338 10.6631 10.1338 9.33219 10.5C8.59784 10.7015 8.01951 11.2953 7.82325 12.0493C7.46669 13.4158 7.46669 16.2671 7.46669 16.2671C7.46669 16.2671 7.46669 19.1183 7.82325 20.485C8.01951 21.239 8.59784 21.8327 9.33219 22.0343C10.6631 22.4005 16 22.4005 16 22.4005C16 22.4005 21.3369 22.4005 22.6678 22.0343C23.4021 21.8327 23.9804 21.239 24.1767 20.485C24.5334 19.1183 24.5334 16.2671 24.5334 16.2671C24.5334 16.2671 24.5334 13.4158 24.1767 12.0493Z" fill="white"/>
<path d="M14.4 19.1995V13.8662L18.6667 16.533L14.4 19.1995Z" fill="#FF0000"/>
</svg>
